<svg width="357" height="335" viewBox="0 0 357 335" fill="none" xmlns="http://www.w3.org/2000/svg">
<path d="M91.7256 179.322H106.359" stroke="#BDB7A4" stroke-width="0.5" stroke-linecap="round" stroke-linejoin="round"/>
<path d="M46.7588 190.332V243.394" stroke="#BDB7A4" stroke-width="0.5" stroke-linecap="round" stroke-linejoin="round"/>
<path d="M107.188 190.332V243.394" stroke="#BDB7A4" stroke-width="0.5" stroke-linecap="round" stroke-linejoin="round"/>
<path d="M134.152 194.191V247.273" stroke="#BDB7A4" stroke-width="0.5" stroke-linecap="round" stroke-linejoin="round"/>
<path d="M49.7217 187.281H103.045" stroke="#BDB7A4" stroke-width="0.5" stroke-linecap="round" stroke-linejoin="round"/>
<path d="M109.562 187.281L130.6 192.317" stroke="#BDB7A4" stroke-width="0.5" stroke-linecap="round" stroke-linejoin="round"/>
<path d="M64.208 202.076H81.0684" stroke="#BDB7A4" stroke-width="0.5" stroke-linecap="round" stroke-linejoin="round"/>
<path d="M65.3125 205.495V207.259H79.5775V205.495" stroke="#BDB7A4" stroke-linecap="round" stroke-linejoin="round"/>
<path d="M4.95703 124.421H319.487" stroke="#BDB7A4" stroke-width="0.5" stroke-linecap="round" stroke-linejoin="round"/>
<path d="M5 247H23" stroke="#BDB7A4" stroke-width="0.5" stroke-linecap="round" stroke-linejoin="round"/>
<path d="M5 256H23" stroke="#BDB7A4" stroke-width="0.5" stroke-linecap="round" stroke-linejoin="round"/>
<path d="M1 116.132H319.488" stroke="#BDB7A4" stroke-width="0.5" stroke-linecap="round" stroke-linejoin="round"/>
<path d="M339.256 110.673V32.6501" stroke="#BDB7A4" stroke-linecap="round" stroke-linejoin="round"/>
<path d="M331.194 110.673L331 24" stroke="#BDB7A4" stroke-linecap="round" stroke-linejoin="round"/>
<path d="M36.377 110.673L36 20" stroke="#BDB7A4" stroke-linecap="round" stroke-linejoin="round"/>
<path d="M28.334 110.673L28 25" stroke="#BDB7A4" stroke-linecap="round" stroke-linejoin="round"/>
<path d="M36.377 256.352V130.009" stroke="#BDB7A4" stroke-linecap="round" stroke-linejoin="round"/>
<path d="M28.334 256.352V130.009" stroke="#BDB7A4" stroke-linecap="round" stroke-linejoin="round"/>
<path d="M272.735 110.673V15.0605" stroke="#BDB7A4" stroke-width="1.07" stroke-linecap="round" stroke-linejoin="round"/>
<path d="M255.838 110.673V60.9369" stroke="#BDB7A4" stroke-width="0.5" stroke-linecap="round" stroke-linejoin="round"/>
<path d="M291.712 110.673V60.9369" stroke="#BDB7A4" stroke-width="0.5" stroke-linecap="round" stroke-linejoin="round"/>
<path d="M264.286 110.673V15.0605" stroke="#BDB7A4" stroke-width="1.07" stroke-linecap="round" stroke-linejoin="round"/>
<path d="M339.256 241.17L339 134" stroke="#BDB7A4" stroke-linecap="round" stroke-linejoin="round"/>
<path d="M331.194 241.17V130.009" stroke="#BDB7A4" stroke-linecap="round" stroke-linejoin="round"/>
<path d="M272.735 257.234V130.009" stroke="#BDB7A4" stroke-linecap="round" stroke-linejoin="round"/>
<path d="M264.286 257.234V130.009" stroke="#BDB7A4" stroke-linecap="round" stroke-linejoin="round"/>
<path d="M247.904 110.673V60.9369" stroke="#BDB7A4" stroke-width="0.5" stroke-linecap="round" stroke-linejoin="round"/>
<path d="M239.99 110.673V60.9369" stroke="#BDB7A4" stroke-width="0.5" stroke-linecap="round" stroke-linejoin="round"/>
<path d="M276.895 57.5918H287.957" stroke="#BDB7A4" stroke-width="0.5" stroke-linecap="round" stroke-linejoin="round"/>
<path d="M261.672 57.5918H258.341" stroke="#BDB7A4" stroke-width="0.5" stroke-linecap="round" stroke-linejoin="round"/>
<path d="M253.28 88.0105H249.948" stroke="#BDB7A4" stroke-width="0.75" stroke-linecap="round" stroke-linejoin="round"/>
<path d="M244.941 88.0105H241.591" stroke="#BDB7A4" stroke-width="0.75" stroke-linecap="round" stroke-linejoin="round"/>
<path d="M261.25 88.0105H257.918" stroke="#BDB7A4" stroke-width="0.75" stroke-linecap="round" stroke-linejoin="round"/>
<path d="M255.837 57.5918H250.205" stroke="#BDB7A4" stroke-width="0.5" stroke-linecap="round" stroke-linejoin="round"/>
<path d="M247.905 57.5918H239.99" stroke="#BDB7A4" stroke-width="0.5" stroke-linecap="round" stroke-linejoin="round"/>
<path d="M189.593 110.673V85.8049" stroke="#BDB7A4" stroke-width="0.5" stroke-linecap="round" stroke-linejoin="round"/>
<path d="M152.394 112.879V88.0105" stroke="#BDB7A4" stroke-width="0.5" stroke-linecap="round" stroke-linejoin="round"/>
<path d="M192.28 85.8049L207.466 88.0105" stroke="#BDB7A4" stroke-width="0.5" stroke-linecap="round" stroke-linejoin="round"/>
<path d="M209.896 91.4659V112.934" stroke="#BDB7A4" stroke-width="0.5" stroke-linecap="round" stroke-linejoin="round"/>
<path d="M185.967 85.1616H152.394" stroke="#BDB7A4" stroke-width="0.5" stroke-linecap="round" stroke-linejoin="round"/>
<path d="M282.141 242.788V217.92" stroke="#BDB7A4" stroke-width="0.5" stroke-linecap="round" stroke-linejoin="round"/>
<path d="M244.941 244.993V220.125" stroke="#BDB7A4" stroke-width="0.5" stroke-linecap="round" stroke-linejoin="round"/>
<path d="M284.81 217.92L299.995 220.125" stroke="#BDB7A4" stroke-width="0.5" stroke-linecap="round" stroke-linejoin="round"/>
<path d="M302.425 223.581V245.049" stroke="#BDB7A4" stroke-width="0.5" stroke-linecap="round" stroke-linejoin="round"/>
<path d="M261.25 217.276H244.941" stroke="#BDB7A4" stroke-width="0.5" stroke-linecap="round" stroke-linejoin="round"/>
<path d="M324.218 247.456H276.472" stroke="#BDB7A4" stroke-width="0.5" stroke-linecap="round" stroke-linejoin="round"/>
<path d="M257.642 247.456H209.896" stroke="#BDB7A4" stroke-width="0.5" stroke-linecap="round" stroke-linejoin="round"/>
<path d="M324.218 255.985H276.472" stroke="#BDB7A4" stroke-width="0.5" stroke-linecap="round" stroke-linejoin="round"/>
<path d="M257.642 255.985H209.896" stroke="#BDB7A4" stroke-width="0.5" stroke-linecap="round" stroke-linejoin="round"/>
<path d="M185.966 247.456H40.3711" stroke="#BDB7A4" stroke-width="0.5" stroke-linecap="round" stroke-linejoin="round"/>
<path d="M185.966 255.985H40.3711" stroke="#BDB7A4" stroke-width="0.5" stroke-linecap="round" stroke-linejoin="round"/>
<path d="M328.948 247.456L356.079 249.791" stroke="#BDB7A4" stroke-width="0.5" stroke-linecap="round" stroke-linejoin="round"/>
<path d="M328.948 256.077L356.079 258.392" stroke="#BDB7A4" stroke-width="0.5" stroke-linecap="round" stroke-linejoin="round"/>
<path d="M46.7588 57.5918V110.673" stroke="#BDB7A4" stroke-width="0.5" stroke-linecap="round" stroke-linejoin="round"/>
<path d="M107.188 57.5918V110.673" stroke="#BDB7A4" stroke-width="0.5" stroke-linecap="round" stroke-linejoin="round"/>
<path d="M134.152 61.4698V114.551" stroke="#BDB7A4" stroke-width="0.5" stroke-linecap="round" stroke-linejoin="round"/>
<path d="M49.7217 54.5591H103.045" stroke="#BDB7A4" stroke-width="0.5" stroke-linecap="round" stroke-linejoin="round"/>
<path d="M109.562 54.5591L130.6 59.5952" stroke="#BDB7A4" stroke-width="0.5" stroke-linecap="round" stroke-linejoin="round"/>
<path d="M51.8389 47.3908C55.649 41.932 59.8089 39.561 62.1281 38.495C71.9203 34.0103 82.5409 37.5943 88.5414 39.5978C96.6219 42.318 96.0697 44.2479 102.162 45.1485C109.433 46.2329 113.685 43.9906 118.562 46.8211C121.784 48.6958 123.495 51.7285 124.397 53.7687" stroke="#BDB7A4" stroke-width="0.5" stroke-linecap="round" stroke-linejoin="round"/>
<path d="M289.632 253.117C288.859 252.787 288.141 252.345 287.497 251.812C288.859 251.04 290.203 250.195 291.491 249.294C298.78 244.019 305.517 234.186 308.959 225.805C308.72 225.162 308.388 224.555 308.002 224.004L308.535 223.93C314.978 225.125 320.389 229.297 325.525 233.341C326.15 233.818 326.776 234.333 327.126 235.05C327.531 235.877 327.457 236.833 327.347 237.752C327.218 238.708 327.052 239.645 326.832 240.564C325.23 247.273 321.015 253.338 315.291 257.179C312.861 258.962 310.339 260.653 307.744 262.197L307.818 262.326C306.345 263.171 304.946 264.109 303.603 265.138C303.216 265.046 302.829 264.899 302.498 264.715C302.185 264.531 301.872 264.329 301.541 264.145L301.578 264.072C298.467 262.252 295.559 260.083 292.927 257.62C291.565 256.334 290.203 254.882 289.614 253.136L289.632 253.117Z" fill="white"/>
<path d="M226.074 301.034C225.817 300.887 225.522 300.758 225.246 300.666C223.516 300.06 221.546 300.207 219.669 300.188C217.884 300.17 216.117 299.968 214.386 299.582C213.558 299.398 212.638 299.086 212.325 298.295C212.067 297.634 212.362 296.898 212.803 296.365C213.889 295.097 215.712 294.785 217.368 294.619C221.859 294.178 226.406 294.16 230.915 294.583C231.155 294.601 231.376 294.619 231.615 294.656C232.774 294.785 233.934 294.968 235.02 295.41C236.272 295.906 237.376 296.696 238.444 297.487C242.235 300.28 246.285 303.423 250.886 303.791V304.03C252.709 304.434 254.531 303.772 256.224 302.853H256.243C268.906 296.843 277.907 289.62 288.049 279.897C293.203 274.953 297.933 269.402 303.529 265.156C304.873 264.145 306.272 263.19 307.744 262.344L307.67 262.215C310.266 260.653 312.787 258.981 315.217 257.198C320.942 253.356 325.138 247.273 326.758 240.582C326.813 240.656 326.887 240.729 326.942 240.821C335.814 248.008 350.594 254.9 339.422 268.814C335.409 273.795 329.703 277.82 324.825 281.808C318.99 286.587 313.008 291.237 306.621 295.263C301.725 298.369 296.608 301.089 291.51 303.809C280.337 309.764 269.164 315.738 258.01 321.693L254.936 323.862C252.69 325.865 246.264 325.934 244 324.5C242.27 323.397 240.671 322.594 238.664 322.189C237.578 321.987 236.474 322.152 235.388 322.336C234.689 322.446 233.971 322.575 233.271 322.685C231.412 322.998 229.553 323.292 227.713 323.604C225.946 323.898 223.626 324.799 221.896 324.082C219.706 323.182 219.411 320.958 221.289 319.469C224 319 226.976 317.962 229.498 317.576C231.578 317.263 233.695 316.694 235.719 316.014C236.198 315.848 236.677 315.683 237.155 315.499L236.916 314.856C236.29 314.856 235.664 314.856 235.02 314.856C229.332 314.911 222.982 314.966 217.515 315.591C216.319 315.738 215.086 315.866 213.963 315.444C212.84 315.003 211.938 313.79 212.306 312.65L211.883 312.448C211.883 312.448 211.883 312.411 211.883 312.393C211.625 311.621 210.889 311.051 210.079 310.977C209.674 310.132 209.601 309.066 209.969 308.184C210.668 306.493 212.362 305.463 214.018 304.673C217.644 302.909 221.546 301.714 225.541 301.107C225.706 301.071 225.872 301.052 226.038 301.034H226.074Z" fill="#FBF2ED"/>
<path d="M236.989 314.837L237.229 315.48C236.75 315.646 236.272 315.83 235.793 315.995C235.554 315.609 235.314 315.242 235.075 314.856C235.719 314.856 236.345 314.856 236.971 314.856L236.989 314.837Z" fill="#FBF2ED"/>
<path d="M159.517 65.3481C161.523 63.9145 163.768 62.8484 166.143 62.1684C166.308 62.0213 166.474 61.8927 166.64 61.7456C170.892 58.327 176.819 57.1874 182.249 58.0145C188.691 58.9887 194.544 62.3889 199.827 66.2855C213.521 76.4128 218.693 91.8336 225.577 106.776C228.007 112.033 230.142 117.988 229.038 123.943C227.805 130.597 223.35 137.048 222.264 143.83C221.307 144.878 220.203 145.797 219.006 146.551L218.933 146.422C218.933 146.422 218.841 146.459 218.785 146.495C214.165 148.536 209.159 149.142 204.189 149.694C202.128 150.723 199.624 150.778 197.508 149.914C197.655 149.436 197.802 148.958 197.949 148.499L197.747 148.26C205.643 141.423 210.098 131.424 210.337 121.499C210.337 121.26 210.337 121.003 210.337 120.764H210.705C210.631 119.459 210.558 118.19 210.466 116.904C209.269 115.268 208.312 113.614 207.705 112.107C205.385 106.317 206.269 99.0385 204.668 93.0099C203.361 88.0657 200.857 83.3604 197.084 80.0337C194.01 77.3318 190.053 75.6225 186.04 75.4938C184.623 74.9976 183.022 75.1814 181.66 75.7879C180.518 76.3025 179.524 77.1113 178.641 78.0303L178.512 77.92C172.935 78.8757 169.658 84.7941 167.1 89.3155V89.3523C166.658 89.3891 166.216 89.4442 165.775 89.4993C153.406 91.227 144.754 102.843 146.466 115.415C147.423 122.399 151.344 128.207 156.792 131.7L156.553 132.067C156.001 133.023 154.86 135.909 154.271 136.589L154.031 137.122C153.663 136.956 153.314 136.809 152.964 136.681C150.957 135.872 148.841 135.045 146.706 135.412C145.436 135.633 144.294 136.258 143.172 136.901C142.049 137.544 140.944 138.225 139.858 138.941L139.564 138.482C138.956 127.601 133.048 116.683 136.159 103.413C138.239 94.5906 146.908 65.0173 159.498 65.4032L159.517 65.3481Z" fill="#F2DFC5"/>
<path d="M181.678 75.7328C183.04 75.1078 184.642 74.924 186.059 75.4387C190.071 75.5673 194.029 77.2951 197.103 79.9785C200.894 83.3237 203.398 88.0106 204.686 92.9548C206.269 98.9834 205.386 106.262 207.723 112.051C208.331 113.559 209.288 115.231 210.484 116.849C210.576 118.135 210.65 119.403 210.724 120.69H210.355C210.355 120.947 210.355 121.205 210.355 121.444C210.116 131.387 205.662 141.367 197.765 148.205C197.489 148.462 197.195 148.701 196.9 148.922C196.753 149.05 196.587 149.161 196.44 149.289C195.925 149.712 195.373 150.098 194.839 150.484C194.121 150.98 193.403 151.458 192.63 151.899C191.194 152.745 189.685 153.498 188.047 153.939C184.807 154.803 181.31 154.362 178.089 153.443C174.592 152.451 171.278 150.907 168.37 148.922C166.769 147.819 165.278 146.587 163.971 145.209C162.499 143.665 161.265 141.974 160.235 140.191C160.087 139.934 159.94 139.695 159.811 139.438C159.112 138.133 159.59 138.39 159.057 137.011L158.799 136.883C159.351 135.743 159.995 134.457 160.142 134.218L160.437 133.538C163.989 134.99 167.947 135.559 172.015 134.99C184.384 133.262 193.035 121.646 191.323 109.074C189.703 97.1638 179.396 88.6539 167.8 89.2604C167.579 89.2604 167.358 89.2788 167.137 89.2971V89.2604C169.695 84.7389 172.972 78.8206 178.549 77.8648L178.678 77.9751C179.543 77.0561 180.537 76.2658 181.696 75.7328H181.678ZM200.729 116.941C201.244 116.481 201.281 115.103 201.06 114.514C200.876 114.037 200.048 113.889 199.845 114.753C199.698 115.433 199.588 115.948 199.753 116.61C199.901 117.143 200.342 117.271 200.729 116.941Z" fill="#FBF2ED"/>
<path d="M197.949 148.462C197.784 148.922 197.636 149.4 197.508 149.877C197.158 149.73 196.808 149.565 196.495 149.363L196.44 149.289C196.587 149.179 196.753 149.05 196.9 148.922C197.195 148.683 197.471 148.444 197.765 148.205L197.968 148.444L197.949 148.462Z" fill="#F2DFC5"/>
<path d="M199.422 160.795C199.974 160.722 200.526 160.556 201.023 160.317C219.871 162.872 231.817 162.229 245.383 169.728C259.28 177.429 271.262 188.108 283.098 198.694C291.712 206.396 300.345 214.134 307.726 222.993L307.394 223.268C307.597 223.507 307.799 223.746 307.965 224.004C308.352 224.555 308.683 225.18 308.922 225.805C305.48 234.186 298.743 244.038 291.454 249.276C290.166 250.195 288.822 251.04 287.46 251.812C287.147 251.555 286.834 251.298 286.558 251.004C272.385 241.226 257.678 232.183 242.567 223.948L242.714 223.691C242.254 223.434 241.812 223.158 241.389 222.864C239.309 228.047 238.333 233.598 237.376 239.094C234.21 257.198 231.044 275.431 231.155 293.811L231.707 293.847C231.688 294.105 231.67 294.362 231.633 294.619C231.394 294.601 231.173 294.564 230.934 294.546C226.424 294.123 221.896 294.141 217.387 294.583C215.73 294.748 213.908 295.06 212.822 296.329C212.38 296.862 212.086 297.615 212.343 298.258C212.656 299.049 213.576 299.361 214.405 299.545C216.135 299.931 217.92 300.133 219.687 300.152C221.546 300.17 223.534 300.023 225.265 300.63C225.375 300.777 225.485 300.924 225.596 301.071C221.602 301.677 217.7 302.872 214.073 304.636C212.435 305.427 210.742 306.474 210.024 308.147C209.656 309.029 209.73 310.095 210.134 310.941C210.503 311.694 211.11 312.264 211.938 312.356C211.938 312.356 211.938 312.393 211.938 312.411L212.362 312.613C211.994 313.753 212.914 314.984 214.018 315.407C215.141 315.848 216.374 315.701 217.571 315.554C223.037 314.929 229.406 314.856 235.075 314.819C235.315 315.205 235.554 315.572 235.793 315.958C233.768 316.638 231.652 317.208 229.572 317.521C227.05 317.907 223.479 317.741 221.362 319.414C219.485 320.903 219.779 323.127 221.97 324.027C223.7 324.744 226.019 323.843 227.786 323.549C229.645 323.237 231.504 322.924 233.345 322.63C233.345 322.722 233.382 322.832 233.382 322.924H233.437C234.192 327.336 233.989 329.486 235.296 333.768H175.125V333.603C172.585 290.337 174.242 252.548 174.15 211.836C174.15 209.428 174.15 206.965 174.831 204.65C175.457 202.573 176.561 200.735 177.923 199.044C178.052 198.878 178.181 198.713 178.328 198.566C179.782 196.838 181.457 195.257 183.095 193.695C190.145 186.876 195.777 178.035 196.44 168.331H196.201C196.072 167.706 195.906 167.118 195.741 166.53L196.422 166.309C196.366 165.188 195.906 164.067 195.906 162.964C195.906 161.236 195.961 159.527 196.109 157.854C196.219 158.02 196.33 158.185 196.458 158.35L196.569 158.277C197.379 159.269 198.391 160.041 199.459 160.758L199.422 160.795Z" fill="white"/>
<path d="M167.781 89.2604C179.377 88.6722 189.685 97.1821 191.305 109.074C193.016 121.646 184.365 133.262 171.996 134.99C167.928 135.559 163.971 134.99 160.418 133.538C159.148 133.023 157.952 132.38 156.811 131.645C151.381 128.152 147.442 122.344 146.485 115.36C144.773 102.788 153.424 91.1719 165.793 89.4442C166.235 89.3891 166.677 89.3339 167.118 89.2972C167.339 89.2788 167.56 89.2604 167.781 89.2604ZM171.591 131.902C182.285 130.395 189.74 120.359 188.249 109.497C186.758 98.6342 176.892 91.0433 166.198 92.5688C165.922 92.6055 165.646 92.6607 165.37 92.6974C157.676 94.1127 151.786 99.9943 149.945 107.328C149.338 109.754 149.172 112.346 149.522 114.974C151.013 125.836 160.879 133.427 171.573 131.902H171.591Z" fill="#999795"/>
<path d="M177.536 198.584C170.579 191.967 161.284 177.962 158.228 167.688L158.504 167.614V163.368C160.952 157.376 160.418 152.965 160.142 146.587C160.105 145.632 160.05 144.713 159.995 143.812L160.584 143.775C161.173 143.867 161.762 146.054 162.149 146.459C163.713 148.15 165.057 149.749 166.75 151.311C170.634 154.877 176.414 159.692 181.899 160.06C186.997 160.391 192.943 155.244 195.501 150.852L194.82 150.502C195.372 150.116 195.906 149.73 196.422 149.308L196.477 149.381C196.808 149.583 197.139 149.749 197.489 149.896C197.268 150.649 197.066 151.421 196.9 152.212C196.514 154.031 196.237 155.943 196.072 157.909C195.925 159.582 195.869 161.291 195.869 163.019C195.869 164.122 196.329 165.261 196.385 166.364L195.704 166.585C195.869 167.173 196.035 167.779 196.164 168.368H196.403C195.74 178.091 190.126 186.931 183.058 193.75C181.439 195.313 179.745 196.893 178.291 198.621C178.162 198.786 178.015 198.933 177.886 199.099L177.5 198.584H177.536Z" fill="#FBF2ED"/>
<path d="M175.622 112.897C175.714 113.908 175.659 116.058 174.536 116.536C173.597 116.941 172.861 116.242 172.677 115.341C172.548 114.772 172.456 114.202 172.456 113.614C172.456 112.952 172.604 112.29 172.99 111.739C173.616 110.857 174.647 110.544 175.272 111.665C175.493 112.033 175.567 112.474 175.604 112.897H175.622Z" fill="#602B24"/>
<path d="M166.198 92.5503C176.892 91.0432 186.758 98.6157 188.249 109.478C189.74 120.341 182.285 130.376 171.591 131.883C160.897 133.391 151.031 125.818 149.54 114.955C149.172 112.309 149.338 109.736 149.964 107.309L150.773 107.53C151.749 107.126 153.645 105.747 154.528 105.159C157.565 103.119 164.063 96.5755 165.48 93.212L165.388 92.679C165.664 92.6239 165.94 92.5871 166.217 92.5503H166.198ZM174.536 116.536C175.659 116.058 175.696 113.908 175.622 112.897C175.585 112.474 175.493 112.033 175.291 111.665C174.647 110.544 173.616 110.875 173.009 111.739C172.622 112.29 172.475 112.952 172.475 113.614C172.475 114.184 172.567 114.772 172.696 115.341C172.88 116.242 173.616 116.94 174.555 116.536H174.536Z" fill="#FBF2ED"/>
<path d="M165.388 92.6791L165.48 93.2121C164.063 96.5756 157.566 103.119 154.528 105.159C153.663 105.747 151.749 107.107 150.774 107.53L149.964 107.31C151.804 99.9943 157.694 94.1127 165.388 92.6791Z" fill="#F2DFC5"/>
<path d="M116.022 285.374C115.912 285.209 115.82 285.043 115.709 284.878C116.169 284.271 116.574 283.61 116.906 282.93C118.433 279.787 119.354 276.386 120.256 273.023C124.268 258.227 128.649 243.523 132.054 228.562C135.202 214.795 134.557 201.488 140.282 188.439L141.552 185.59C144.847 181.546 148.325 177.337 150.148 172.411L150.019 172.117C150.295 172.007 150.553 171.86 150.792 171.694C151.455 171.253 152.025 170.628 152.393 169.912C153.148 168.423 153.203 166.732 153.056 165.059L153.498 165.022C155.191 163.644 156.351 161.622 156.645 159.453C156.903 157.523 156.516 155.594 155.817 153.756C155.983 153.112 156.13 152.469 156.295 151.826C156.921 151.862 157.547 151.642 157.786 151.366C158.247 150.833 158.394 150.116 158.504 149.455C158.725 148.223 158.946 147.01 159.167 145.779C159.333 144.86 159.498 143.904 159.443 142.967L159.885 142.93C159.903 143.224 159.922 143.518 159.94 143.812C159.995 144.713 160.05 145.632 160.087 146.587C160.363 152.984 160.897 157.376 158.449 163.368V167.614L158.173 167.688C161.228 177.962 170.505 191.967 177.481 198.584L177.868 199.099C176.506 200.79 175.383 202.628 174.776 204.705C174.095 207.021 174.095 209.465 174.095 211.891C174.187 252.603 172.53 290.392 175.07 333.658V333.824H113.758V333.033C114.807 318.458 116.114 302.137 115.82 285.521L116.022 285.393V285.374Z" fill="white"/>
<path d="M160.216 140.191C161.247 141.974 162.48 143.665 163.952 145.209C165.259 146.587 166.75 147.819 168.352 148.922C171.26 150.907 174.573 152.451 178.07 153.443C181.291 154.362 184.789 154.803 188.028 153.939C189.666 153.498 191.176 152.745 192.611 151.899C193.366 151.458 194.102 150.98 194.82 150.484L195.501 150.833C192.943 155.226 186.997 160.372 181.899 160.042C176.414 159.674 170.652 154.858 166.75 151.293C165.038 149.73 163.713 148.131 162.149 146.44C161.781 146.036 161.191 143.83 160.584 143.757L159.995 143.794C159.977 143.5 159.958 143.187 159.94 142.911C159.848 141.698 159.756 140.559 159.627 139.53L159.793 139.438C159.921 139.695 160.069 139.952 160.216 140.191Z" fill="#D2BEB4"/>
<path d="M158.67 137.122C158.688 138.188 158.67 139.254 158.596 140.32C157.566 138.849 155.799 137.857 154.031 137.085L154.271 136.552C154.86 135.872 156.001 132.986 156.553 132.03L156.792 131.663C157.934 132.398 159.148 133.041 160.4 133.556L160.106 134.236C159.94 134.475 159.314 135.762 158.762 136.901C158.725 136.975 158.688 137.067 158.652 137.14L158.67 137.122Z" fill="#999795"/>
<path d="M156.314 151.807C156.148 152.451 156.001 153.094 155.835 153.737C155.504 152.855 155.099 151.973 154.676 151.127L154.878 151.035C155.209 151.55 155.762 151.77 156.314 151.807Z" fill="#FBF2ED"/>
<path d="M153.093 143.922C153.037 145.724 153.406 148.15 154.087 149.694L153.958 149.767C153.498 148.958 153.001 148.15 152.283 147.562C151.142 146.606 149.632 146.257 148.16 146.036C147.608 145.962 147.055 145.889 146.503 145.834C147.331 145.043 148.215 144.253 149.043 143.444V143.389C150.35 143.867 151.749 144.033 153.111 143.904L153.093 143.922Z" fill="#999795"/>
<path d="M138.57 172.963C138.478 172.963 138.367 172.963 138.257 172.926C137.576 172.76 137.097 172.154 136.858 171.492C136.637 170.831 136.637 170.132 136.637 169.434L138.128 168.386C138.772 168.423 139.417 168.478 140.006 168.754C140.576 169.029 141.073 169.562 141.147 170.187C141.202 170.665 141 171.143 140.742 171.566C140.263 172.319 139.453 172.999 138.588 172.944L138.57 172.963Z" fill="#999795"/>
<path d="M138.57 172.963C139.435 173.018 140.263 172.338 140.724 171.584C140.981 171.161 141.184 170.702 141.128 170.206C141.055 169.581 140.576 169.048 139.987 168.772C139.417 168.496 138.754 168.441 138.11 168.404L136.619 169.452C136.619 170.15 136.619 170.849 136.84 171.511C137.061 172.172 137.558 172.76 138.239 172.944C138.331 172.963 138.441 172.981 138.552 172.981L138.57 172.963ZM153.093 143.922C151.731 144.051 150.332 143.867 149.043 143.408V143.463C148.197 144.253 147.313 145.062 146.485 145.852C147.037 145.907 147.589 145.962 148.141 146.054C149.614 146.275 151.123 146.624 152.264 147.58C152.982 148.186 153.479 148.977 153.939 149.785L154.068 149.712C153.387 148.168 153.019 145.742 153.074 143.941L153.093 143.922ZM86.995 262.932C87.4183 261.499 88.1177 260.139 89.0565 258.981L88.2834 258.429C89.1301 255.36 90.6394 252.511 92.1856 249.717C93.6397 247.089 95.149 244.35 96.6952 241.52C100.082 235.326 103.616 228.709 107.15 222.11C112.893 211.377 120.366 197.996 124.176 186.306C123.863 184.34 124.176 182.281 125.06 180.48L125.409 180.553C126.293 177.282 125.998 173.054 125.759 169.875C125.593 167.614 125.465 165.28 125.796 163.037C125.998 161.604 126.385 160.225 127.066 158.939H128.005V154.509L127.36 154.454C127.36 154.454 127.36 154.362 127.36 154.325C127.416 153.645 127.489 152.947 127.729 152.322C127.986 151.679 128.446 151.109 129.109 150.87L129.275 150.925C129.532 150.135 129.882 149.399 130.342 148.701L130.177 148.591C129.79 147.157 130.968 145.815 132.072 144.841C134.539 142.672 137.153 140.687 139.895 138.886C140.981 138.169 142.086 137.489 143.208 136.846C144.313 136.203 145.472 135.578 146.742 135.357C148.859 134.99 150.994 135.817 153.001 136.625C153.35 136.772 153.718 136.919 154.068 137.067C155.835 137.838 157.602 138.831 158.633 140.301C158.983 140.798 159.24 141.331 159.388 141.937C159.461 142.268 159.517 142.599 159.535 142.93C159.59 143.867 159.425 144.804 159.259 145.742C159.038 146.973 158.817 148.186 158.596 149.418C158.467 150.098 158.32 150.815 157.878 151.329C157.639 151.605 157.013 151.826 156.387 151.789C155.835 151.752 155.301 151.55 154.952 151.017L154.749 151.109C155.173 151.954 155.578 152.818 155.909 153.719C156.608 155.557 156.995 157.487 156.737 159.417C156.443 161.567 155.283 163.607 153.59 164.986L153.148 165.022C153.314 166.695 153.24 168.386 152.485 169.875C152.136 170.592 151.565 171.198 150.884 171.658C150.645 171.823 150.387 171.97 150.111 172.08L150.24 172.374C148.417 177.3 144.957 181.509 141.644 185.553L140.374 188.402C134.631 201.47 135.294 214.758 132.146 228.525C128.741 243.486 124.342 258.19 120.348 272.986C119.427 276.35 118.507 279.75 116.998 282.893C116.666 283.591 116.261 284.235 115.801 284.841C113.114 288.462 108.549 290.741 104.647 293.13C102.42 294.491 99.8059 295.575 97.229 295.079C94.4128 294.546 92.2776 292.248 90.6763 289.859C88.3386 286.385 86.7189 282.433 85.8722 278.316C84.823 273.151 84.9702 267.748 86.4243 262.693L87.0686 262.877L86.995 262.932Z" fill="#FBF2ED"/>
<path d="M86.3692 262.748C84.915 267.803 84.7494 273.207 85.817 278.371H85.7065C85.32 278.096 84.9703 277.747 84.6389 277.379L84.6021 277.416C82.1541 276.405 80.5159 273.997 79.798 271.442C79.0802 268.906 79.1538 266.204 79.2458 263.576C79.3195 260.874 79.4115 258.172 79.4851 255.488C79.5219 254.073 79.5772 252.603 80.1294 251.298C80.5711 250.232 81.3074 249.35 82.1173 248.522C82.3197 248.32 82.5222 248.118 82.7247 247.916C82.8903 247.769 83.0376 247.603 83.2032 247.456C85.0439 245.729 86.9214 243.964 89.1854 242.843C91.4494 241.704 94.1183 240.399 96.4559 241.391L96.7136 241.538C95.1675 244.369 93.6581 247.107 92.204 249.736C90.6579 252.529 89.1485 255.378 88.3018 258.448L89.0749 258.999C88.1362 260.157 87.4183 261.517 87.0134 262.951L86.3692 262.767V262.748Z" fill="white"/>
<path d="M82.0068 248.412C83.829 240.049 85.3752 231.062 87.1974 222.699C87.9153 219.445 88.6147 216.174 89.2037 212.902C91.2837 201.286 91.9647 189.119 97.321 178.624C99.0144 175.297 101.205 172.154 104.205 169.93C106.616 168.129 109.451 166.971 112.285 165.96C116.335 164.508 120.495 163.276 124.747 162.633C125.078 162.78 125.428 162.927 125.759 163.056C125.428 165.28 125.557 167.632 125.722 169.893C125.961 173.073 126.256 177.3 125.372 180.572L125.023 180.498C124.158 182.281 123.845 184.34 124.139 186.325C120.329 198.014 112.856 211.395 107.113 222.129C103.579 228.727 100.045 235.326 96.6584 241.538L96.4007 241.391C94.063 240.399 91.3941 241.722 89.1301 242.843C86.8661 243.983 84.9886 245.729 83.148 247.456C82.9823 247.603 82.8351 247.75 82.6694 247.916C82.4669 248.118 82.2645 248.302 82.062 248.522L81.97 248.431L82.0068 248.412Z" fill="white"/>
<path d="M199.845 114.753C200.029 113.889 200.876 114.037 201.06 114.514C201.281 115.103 201.262 116.481 200.729 116.941C200.342 117.271 199.9 117.143 199.753 116.61C199.588 115.948 199.698 115.433 199.845 114.753Z" fill="#461412" stroke="#461412" stroke-width="0.5" stroke-linecap="round" stroke-linejoin="round"/>
<path d="M173.008 111.739C173.634 110.857 174.665 110.544 175.291 111.665C175.512 112.033 175.585 112.474 175.622 112.897C175.714 113.908 175.659 116.058 174.536 116.536C173.597 116.941 172.861 116.242 172.677 115.341C172.548 114.772 172.456 114.202 172.456 113.614C172.456 112.952 172.604 112.29 172.99 111.739H173.008Z" stroke="#461412" stroke-width="0.5" stroke-linecap="round" stroke-linejoin="round"/>
<path d="M167.082 99.4796C171.389 95.8587 177.739 98.2114 180.224 101.556" stroke="#461412" stroke-width="0.5" stroke-linecap="round" stroke-linejoin="round"/>
<path d="M196.182 102.843C198.041 100.932 203.435 99.3693 205.478 102.237" stroke="#461412" stroke-width="0.5" stroke-linecap="round" stroke-linejoin="round"/>
<path d="M159.038 137.011C159.572 138.39 159.093 138.151 159.793 139.438C159.922 139.695 160.069 139.952 160.216 140.191C161.247 141.974 162.48 143.665 163.953 145.209C165.259 146.587 166.75 147.819 168.352 148.922C171.26 150.907 174.573 152.451 178.07 153.443C181.292 154.362 184.789 154.803 188.028 153.939C189.666 153.498 191.176 152.745 192.612 151.899C193.366 151.458 194.102 150.98 194.82 150.484C195.373 150.098 195.906 149.712 196.422 149.289C196.569 149.179 196.735 149.05 196.882 148.922C197.176 148.683 197.452 148.444 197.747 148.205C205.643 141.368 210.098 131.369 210.337 121.444C210.337 121.205 210.337 120.947 210.337 120.708" stroke="#461412" stroke-width="0.5" stroke-linecap="round" stroke-linejoin="round"/>
<path d="M191.047 118.944C191.47 119.642 191.525 120.028 191.838 120.782C192.906 123.282 193.127 124.164 191.673 126.278" stroke="#461412" stroke-width="0.5" stroke-linecap="round" stroke-linejoin="round"/>
<path d="M178.549 77.8649C172.972 78.8206 169.695 84.739 167.137 89.2604" stroke="#461412" stroke-width="0.5" stroke-linecap="round" stroke-linejoin="round"/>
<path d="M183.187 75.6224C183.187 75.6224 183.371 75.5857 183.463 75.5857C184.328 75.457 185.194 75.4203 186.059 75.4386C190.071 75.5673 194.029 77.295 197.103 79.9785C200.894 83.3236 203.398 88.0105 204.686 92.9547C206.269 98.9833 205.385 106.262 207.723 112.051C208.331 113.559 209.288 115.231 210.484 116.849C213.098 120.451 216.853 123.87 220.46 125.175" stroke="#461412" stroke-width="0.5" stroke-linecap="round" stroke-linejoin="round"/>
<path d="M160.51 65.44C160.179 65.3849 159.848 65.3481 159.517 65.3481C146.926 64.9621 138.257 94.5354 136.177 103.358C133.048 116.646 138.975 127.564 139.582 138.427" stroke="#461412" stroke-width="0.5" stroke-linecap="round" stroke-linejoin="round"/>
<path d="M164.449 63.8961C164.965 63.2712 165.535 62.7014 166.143 62.1684C166.309 62.0213 166.474 61.8927 166.64 61.7456C170.892 58.327 176.819 57.1874 182.249 58.0145C188.691 58.9887 194.544 62.3889 199.827 66.2855C213.521 76.4128 218.693 91.8336 225.577 106.776C228.007 112.033 230.142 117.988 229.038 123.943C227.805 130.597 223.35 137.048 222.264 143.83C222.264 143.904 222.246 143.977 222.227 144.069" stroke="#461412" stroke-width="0.5" stroke-linecap="round" stroke-linejoin="round"/>
<path d="M197.949 148.462C197.784 148.922 197.637 149.4 197.508 149.877C197.287 150.631 197.084 151.403 196.919 152.193C196.532 154.013 196.256 155.924 196.09 157.891C195.943 159.564 195.888 161.273 195.888 163.001C195.888 164.103 196.348 165.243 196.403 166.346" stroke="#461412" stroke-width="0.5" stroke-linecap="round" stroke-linejoin="round"/>
<path d="M159.627 139.53C159.737 140.559 159.848 141.698 159.94 142.911C159.958 143.206 159.977 143.5 159.995 143.794C160.05 144.694 160.106 145.613 160.142 146.569C160.418 152.965 160.952 157.358 158.504 163.35C158.467 163.423 158.431 163.515 158.412 163.589" stroke="#461412" stroke-width="0.5" stroke-linecap="round" stroke-linejoin="round"/>
<path d="M202.109 149.896C202.79 149.822 203.49 149.749 204.171 149.675C209.14 149.124 214.147 148.517 218.767 146.477C218.822 146.459 218.859 146.44 218.914 146.404" stroke="#461412" stroke-width="0.5" stroke-linecap="round" stroke-linejoin="round"/>
<path d="M168.996 68.6013C171.333 69.6122 173.505 71.0275 175.383 72.7552" stroke="#461412" stroke-width="0.5" stroke-linecap="round" stroke-linejoin="round"/>
<path d="M96.456 241.373C94.1183 240.38 91.4494 241.703 89.1854 242.825C86.9214 243.964 85.0439 245.71 83.2033 247.438C83.0376 247.585 82.8904 247.732 82.7247 247.897C82.5222 248.1 82.3198 248.283 82.1173 248.504C81.3074 249.331 80.5712 250.213 80.1294 251.279C79.5772 252.603 79.522 254.055 79.4852 255.47C79.4115 258.172 79.3195 260.874 79.2459 263.557C79.1723 266.204 79.0986 268.887 79.7981 271.424C80.5159 273.96 82.1541 276.386 84.6022 277.397" stroke="#461412" stroke-width="0.5" stroke-linecap="round" stroke-linejoin="round"/>
<path d="M124.839 182.134C125.06 181.638 125.244 181.105 125.391 180.554C126.275 177.282 125.98 173.055 125.741 169.875C125.575 167.614 125.446 165.28 125.778 163.037C125.98 161.604 126.367 160.225 127.048 158.939" stroke="#461412" stroke-width="0.5" stroke-linecap="round" stroke-linejoin="round"/>
<path d="M132.79 158.645C136.674 159.067 140.503 159.876 144.221 161.052C144.828 161.236 145.436 161.457 145.896 161.898C146.319 162.321 146.558 162.872 146.798 163.442C147.718 165.666 148.601 168.312 147.331 170.353C147.111 170.702 146.834 171.014 146.54 171.272C145.417 172.246 143.797 172.687 142.288 173.055C141.055 173.349 139.693 173.624 138.588 172.999C138.588 172.999 138.57 172.999 138.552 172.981" stroke="#461412" stroke-width="0.5" stroke-linecap="round" stroke-linejoin="round"/>
<path d="M136.656 169.434C136.656 170.132 136.656 170.83 136.877 171.492C137.098 172.154 137.595 172.742 138.276 172.926C138.368 172.944 138.478 172.963 138.589 172.963C139.454 173.018 140.282 172.338 140.742 171.584C141 171.161 141.202 170.702 141.147 170.206C141.073 169.581 140.595 169.048 140.006 168.772C139.435 168.496 138.773 168.441 138.128 168.404L136.637 169.452L136.656 169.434Z" stroke="#461412" stroke-width="0.5" stroke-linecap="round" stroke-linejoin="round"/>
<path d="M137.226 172.393C137.466 175.867 135.92 179.212 134.116 182.208" stroke="#461412" stroke-width="0.5" stroke-linecap="round" stroke-linejoin="round"/>
<path d="M134.778 168.386C135.551 168.515 136.324 168.662 137.098 168.79" stroke="#461412" stroke-width="0.5" stroke-linecap="round" stroke-linejoin="round"/>
<path d="M127.14 156.807C127.213 156.016 127.287 155.244 127.342 154.454C127.342 154.417 127.342 154.362 127.342 154.325C127.397 153.645 127.471 152.947 127.71 152.322C127.968 151.679 128.428 151.109 129.091 150.87" stroke="#461412" stroke-width="0.5" stroke-linecap="round" stroke-linejoin="round"/>
<path d="M137.392 152.12C140.595 152.193 143.779 152.855 146.724 154.086C147.663 154.472 148.565 154.932 149.356 155.557C151.602 157.395 152.357 160.427 152.835 163.295C152.89 163.644 152.946 163.993 152.982 164.342C153.019 164.581 153.038 164.82 153.056 165.059C153.222 166.732 153.148 168.423 152.393 169.912C152.044 170.628 151.473 171.235 150.792 171.694C150.553 171.86 150.295 172.007 150.019 172.117C149.504 172.338 148.951 172.466 148.418 172.466C147.847 172.466 147.276 172.301 146.779 171.97" stroke="#461412" stroke-width="0.5" stroke-linecap="round" stroke-linejoin="round"/>
<path d="M133.379 147.525C137.558 146.018 142.049 145.429 146.485 145.834C147.037 145.889 147.589 145.944 148.141 146.036C149.614 146.257 151.123 146.606 152.264 147.561C152.982 148.168 153.479 148.958 153.939 149.767C154.013 149.914 154.105 150.043 154.179 150.19C154.344 150.502 154.51 150.815 154.676 151.127C155.099 151.973 155.504 152.837 155.835 153.737C156.535 155.575 156.921 157.505 156.664 159.435C156.369 161.585 155.21 163.626 153.516 165.004" stroke="#461412" stroke-width="0.5" stroke-linecap="round" stroke-linejoin="round"/>
<path d="M130.158 148.591C129.772 147.157 130.95 145.815 132.054 144.841C134.521 142.672 137.134 140.687 139.877 138.886C140.963 138.169 142.067 137.489 143.19 136.846C144.294 136.203 145.454 135.578 146.724 135.357C148.841 134.99 150.976 135.817 152.982 136.625C153.332 136.772 153.7 136.919 154.05 137.067C155.817 137.838 157.584 138.831 158.615 140.301C158.964 140.798 159.222 141.331 159.369 141.937C159.443 142.268 159.498 142.599 159.517 142.93C159.572 143.867 159.406 144.804 159.241 145.742C159.02 146.973 158.799 148.186 158.578 149.418C158.449 150.098 158.302 150.815 157.86 151.329C157.621 151.605 156.995 151.826 156.369 151.789C155.817 151.752 155.283 151.55 154.933 151.017" stroke="#461412" stroke-width="0.5" stroke-linecap="round" stroke-linejoin="round"/>
<path d="M153.111 143.444C153.111 143.591 153.093 143.757 153.093 143.922C153.038 145.723 153.406 148.15 154.087 149.694" stroke="#461412" stroke-width="0.5" stroke-linecap="round" stroke-linejoin="round"/>
<path d="M146.466 145.852C147.295 145.062 148.178 144.271 149.006 143.463" stroke="#461412" stroke-width="0.5" stroke-linecap="round" stroke-linejoin="round"/>
<path d="M147.92 142.893C148.289 143.077 148.657 143.261 149.062 143.389C150.35 143.867 151.731 144.033 153.111 143.904" stroke="#461412" stroke-width="0.5" stroke-linecap="round" stroke-linejoin="round"/>
<path d="M154.271 136.552C154.86 135.872 156.001 132.986 156.553 132.031" stroke="#461412" stroke-width="0.5" stroke-linecap="round" stroke-linejoin="round"/>
<path d="M157.842 138.721C157.952 138.555 158.283 137.894 158.67 137.122C158.707 137.048 158.743 136.956 158.78 136.883C159.332 135.743 159.977 134.457 160.124 134.218" stroke="#461412" stroke-width="0.5" stroke-linecap="round" stroke-linejoin="round"/>
<path d="M167.781 89.2604C179.377 88.6722 189.685 97.1821 191.305 109.074C193.016 121.646 184.365 133.262 171.996 134.99C167.928 135.559 163.971 134.99 160.418 133.538C159.148 133.023 157.952 132.38 156.811 131.645C151.381 128.152 147.442 122.344 146.485 115.36C144.773 102.788 153.424 91.1719 165.793 89.4442C166.235 89.3891 166.677 89.3339 167.118 89.2972C167.339 89.2788 167.56 89.2604 167.781 89.2604Z" stroke="#461412" stroke-width="0.5" stroke-linecap="round" stroke-linejoin="round"/>
<path d="M165.388 92.6791C165.664 92.624 165.941 92.5872 166.217 92.5505C176.911 91.0433 186.777 98.6158 188.268 109.478C189.759 120.341 182.304 130.376 171.61 131.883C160.916 133.391 151.05 125.818 149.559 114.956C149.191 112.309 149.356 109.736 149.982 107.31C151.823 99.9943 157.713 94.1127 165.407 92.6791H165.388Z" stroke="#461412" stroke-width="0.5" stroke-linecap="round" stroke-linejoin="round"/>
<path d="M88.302 258.411C89.1487 255.341 90.658 252.493 92.2042 249.699C93.6583 247.07 95.1676 244.332 96.7138 241.501C100.101 235.307 103.635 228.691 107.169 222.092C112.911 211.358 120.385 197.978 124.195 186.288C124.268 186.049 124.342 185.829 124.416 185.59" stroke="#461412" stroke-width="0.5" stroke-linecap="round" stroke-linejoin="round"/>
<path d="M86.6636 261.774C86.5531 262.105 86.4611 262.418 86.3691 262.748C84.915 267.803 84.7493 273.207 85.8169 278.371C86.6636 282.489 88.2649 286.422 90.621 289.914C92.2223 292.285 94.3575 294.583 97.1737 295.134C99.7506 295.63 102.364 294.546 104.592 293.186C108.494 290.796 113.04 288.517 115.746 284.896C116.206 284.29 116.611 283.628 116.942 282.948C118.47 279.805 119.39 276.405 120.292 273.041C124.305 258.245 128.686 243.541 132.091 228.58C135.238 214.814 134.594 201.507 140.319 188.457L141.589 185.608C144.883 181.564 148.362 177.355 150.184 172.43" stroke="#461412" stroke-width="0.5" stroke-linecap="round" stroke-linejoin="round"/>
<path d="M157.529 164.783C157.694 165.702 157.934 166.677 158.247 167.687C161.302 177.962 170.579 191.967 177.555 198.584" stroke="#461412" stroke-width="0.5" stroke-linecap="round" stroke-linejoin="round"/>
<path d="M147.516 178.366C148.013 185.498 147.644 195.882 149.448 202.812C152.688 199.319 158.026 195.698 161.946 192.978C162.222 192.794 162.517 192.592 162.848 192.629C163.198 192.666 163.456 192.96 163.677 193.217C165.812 195.772 168.131 197.022 170.284 199.577" stroke="#461412" stroke-width="0.5" stroke-linecap="round" stroke-linejoin="round"/>
<path d="M184.531 198.658C186.648 196.048 189.004 193.658 191.562 191.471C192.133 190.993 192.759 190.497 193.495 190.46C194.544 190.405 195.391 191.269 196.09 192.041C198.686 194.908 203.729 200.33 206.729 202.775C209.159 194.044 207.852 182.171 207.171 173.146C206.95 170.132 206.453 166.934 204.52 164.618C203.158 162.982 201.226 161.971 199.459 160.777C198.391 160.06 197.379 159.288 196.569 158.295" stroke="#461412" stroke-width="0.5" stroke-linecap="round" stroke-linejoin="round"/>
<path d="M235.333 307.577C228.375 307.357 221.362 308.459 214.81 310.775C213.797 311.125 212.693 311.639 212.38 312.65C212.012 313.79 212.932 315.021 214.037 315.444C215.159 315.885 216.393 315.738 217.589 315.591C223.056 314.966 229.424 314.892 235.094 314.856C235.738 314.856 236.364 314.856 236.99 314.856" stroke="#461412" stroke-width="0.5" stroke-linecap="round" stroke-linejoin="round"/>
<path d="M235.738 300.868C232.535 300.538 229.277 300.593 226.074 301.034C225.909 301.052 225.743 301.071 225.578 301.107C221.583 301.714 217.681 302.909 214.055 304.673C212.417 305.463 210.723 306.511 210.006 308.184C209.637 309.066 209.711 310.132 210.116 310.977C210.484 311.731 211.092 312.301 211.92 312.393C211.957 312.393 211.994 312.393 212.049 312.393" stroke="#461412" stroke-width="0.5" stroke-linecap="round" stroke-linejoin="round"/>
<path d="M252.267 303.772C251.807 303.791 251.365 303.773 250.923 303.754C246.322 303.387 242.254 300.262 238.481 297.45C237.395 296.659 236.29 295.869 235.057 295.373C233.971 294.95 232.811 294.748 231.652 294.619C231.412 294.601 231.192 294.564 230.952 294.546C226.443 294.123 221.915 294.141 217.405 294.583C215.749 294.748 213.926 295.06 212.84 296.329C212.399 296.862 212.104 297.615 212.362 298.259C212.675 299.049 213.595 299.361 214.423 299.545C216.153 299.931 217.939 300.133 219.706 300.152C221.565 300.17 223.553 300.023 225.283 300.63C225.559 300.721 225.835 300.85 226.111 300.997C226.148 301.016 226.203 301.034 226.24 301.071" stroke="#461412" stroke-width="0.5" stroke-linecap="round" stroke-linejoin="round"/>
<path d="M256.298 302.798C268.962 296.788 277.962 289.565 288.104 279.842C293.258 274.898 297.989 269.347 303.584 265.101C304.928 264.09 306.327 263.134 307.799 262.289C308.867 261.682 309.99 261.113 311.131 260.616" stroke="#461412" stroke-width="0.5" stroke-linecap="round" stroke-linejoin="round"/>
<path d="M256.059 302.909C256.059 302.909 256.206 302.835 256.279 302.798" stroke="#461412" stroke-width="0.5" stroke-linecap="round" stroke-linejoin="round"/>
<path d="M237.965 315.205C237.726 315.297 237.468 315.389 237.229 315.48C236.75 315.646 236.272 315.83 235.793 315.995C233.768 316.675 231.652 317.245 229.572 317.557C227.05 317.943 225.5 319 221.363 319.451C219.485 320.939 219.78 323.163 221.97 324.064C223.7 324.781 226.019 323.88 227.786 323.586C229.645 323.274 231.504 322.961 233.345 322.667C234.045 322.538 234.762 322.428 235.462 322.318C236.548 322.134 237.652 321.95 238.738 322.171C240.745 322.557 242.288 323.397 244 324.5C246.246 325.934 252.764 325.847 255.01 323.843L258.083 321.675C269.256 315.719 280.429 309.746 291.583 303.791C296.7 301.071 301.799 298.332 306.695 295.244C313.082 291.201 319.046 286.569 324.899 281.79C329.777 277.802 335.483 273.776 339.495 268.795C350.668 254.882 335.888 247.989 327.016 240.803" stroke="#461412" stroke-width="0.5" stroke-linecap="round" stroke-linejoin="round"/>
<path d="M289.393 252.18C289.448 252.511 289.522 252.823 289.632 253.117C290.221 254.864 291.583 256.316 292.945 257.602C295.577 260.065 298.486 262.234 301.596 264.053C301.633 264.072 301.652 264.09 301.688 264.109" stroke="#461412" stroke-width="0.5" stroke-linecap="round" stroke-linejoin="round"/>
<path d="M291.473 249.276C298.762 244.038 305.498 234.186 308.94 225.805C308.996 225.676 309.051 225.529 309.106 225.401" stroke="#461412" stroke-width="0.5" stroke-linecap="round" stroke-linejoin="round"/>
<path d="M308.499 223.93C314.941 225.125 320.353 229.297 325.488 233.341C326.114 233.818 326.74 234.333 327.089 235.05C327.494 235.877 327.421 236.833 327.31 237.752C327.181 238.708 327.016 239.645 326.795 240.564C325.193 247.273 320.978 253.338 315.254 257.179C314.462 257.731 313.634 258.209 312.787 258.668" stroke="#461412" stroke-width="0.5" stroke-linecap="round" stroke-linejoin="round"/>
<path d="M201.023 160.317C219.871 162.872 231.817 162.21 245.383 169.728C259.28 177.429 271.262 188.108 283.098 198.694C291.712 206.396 300.345 214.134 307.726 222.993C307.928 223.232 308.112 223.471 308.315 223.691" stroke="#461412" stroke-width="0.5" stroke-linecap="round" stroke-linejoin="round"/>
<path d="M242.162 223.71C242.309 223.783 242.438 223.857 242.585 223.949C257.697 232.201 272.404 241.244 286.577 251.004C286.65 251.059 286.724 251.114 286.798 251.151" stroke="#461412" stroke-width="0.5" stroke-linecap="round" stroke-linejoin="round"/>
<path d="M241.573 222.441C241.518 222.588 241.462 222.717 241.407 222.864C239.327 228.047 238.352 233.598 237.395 239.093C234.229 257.198 231.063 275.431 231.173 293.811" stroke="#461412" stroke-width="0.5" stroke-linecap="round" stroke-linejoin="round"/>
<path d="M115.82 285.503C116.114 302.137 114.789 318.44 113.758 333.015" stroke="#461412" stroke-width="0.5" stroke-linecap="round" stroke-linejoin="round"/>
<path d="M175.125 333.658C172.585 290.392 174.242 252.603 174.15 211.891C174.15 209.483 174.15 207.021 174.831 204.705C175.457 202.628 176.561 200.79 177.923 199.099C178.052 198.933 178.181 198.768 178.328 198.621C179.782 196.893 181.457 195.313 183.095 193.75C190.145 186.931 195.777 178.091 196.44 168.386C196.477 167.835 196.495 167.302 196.514 166.75" stroke="#461412" stroke-width="0.5" stroke-linecap="round" stroke-linejoin="round"/>
<path d="M233.437 322.961C234.192 327.391 233.989 329.523 235.296 333.805C235.296 333.805 235.296 333.805 235.296 333.824" stroke="#461412" stroke-width="0.5" stroke-linecap="round" stroke-linejoin="round"/>
<path d="M125.593 162.486C125.317 162.523 125.041 162.559 124.747 162.596C120.495 163.24 116.335 164.471 112.286 165.923C109.451 166.934 106.616 168.092 104.205 169.893C101.223 172.135 99.0329 175.278 97.321 178.587C91.9463 189.082 91.2837 201.249 89.2038 212.865C88.6148 216.155 87.8969 219.409 87.1975 222.662C85.3752 231.025 83.8291 240.012 82.0068 248.375" stroke="#461412" stroke-width="0.5" stroke-linecap="round" stroke-linejoin="round"/>
<path d="M165.48 93.212C164.063 96.5756 157.565 103.119 154.528 105.159C153.663 105.747 151.749 107.107 150.773 107.53" stroke="#461412" stroke-width="0.5" stroke-linecap="round" stroke-linejoin="round"/>
<path d="M186.353 140.595C187.531 140.595 189.766 140.423 191 140" stroke="#461412" stroke-width="0.5" stroke-linecap="round" stroke-linejoin="round"/>
<path d="M256.261 302.817H256.28" stroke="#461412" stroke-width="0.5" stroke-linecap="round" stroke-linejoin="round"/>
<path d="M64.208 69.3549H81.0684" stroke="#BDB7A4" stroke-width="0.5" stroke-linecap="round" stroke-linejoin="round"/>
<path d="M65.3125 72.7736V74.538H79.5775V72.7736" stroke="#BDB7A4" stroke-linecap="round" stroke-linejoin="round"/>
<path d="M54.084 184.56L87.8231 179.322" stroke="#BDB7A4" stroke-width="0.5" stroke-linecap="round" stroke-linejoin="round"/>
<path d="M343.821 18.13L314.702 9.56494" stroke="#BDB7A4" stroke-width="0.75" stroke-linecap="round" stroke-linejoin="round"/>
<path d="M343.821 9.56504L314.702 1" stroke="#BDB7A4" stroke-width="0.75" stroke-linecap="round" stroke-linejoin="round"/>
<path d="M307.45 9.56494H9.41162" stroke="#BDB7A4" stroke-width="0.75" stroke-linecap="round" stroke-linejoin="round"/>
<path d="M307.45 1H9.41162" stroke="#BDB7A4" stroke-width="0.75" stroke-linecap="round" stroke-linejoin="round"/>
<path d="M324 116L349 119" stroke="#BDB7A4" stroke-width="0.5" stroke-linecap="round" stroke-linejoin="round"/>
<path d="M323.868 123.796L346.582 126.608" stroke="#BDB7A4" stroke-width="0.5" stroke-linecap="round" stroke-linejoin="round"/>
</svg>
