<svg width="48" height="45" viewBox="0 0 48 45" fill="none" xmlns="http://www.w3.org/2000/svg">
<path d="M13.4698 6.4524C13.4698 6.4524 13.8352 5.6039 13.9884 4.44899C14.1062 3.57692 14.1887 2.91697 13.8116 2.38665C13.4463 1.86812 12.7628 1.32602 12.0675 1.17282C11.6314 1.07854 10.6533 0.937125 9.51015 1.31424C8.06062 1.79741 7.27104 2.84626 6.99999 3.23516C6.84679 3.47085 6.64645 3.0466 5.88044 4.63755C5.32655 5.78067 5.31477 6.33455 5.00837 6.98272C5.00837 6.98272 4.47805 8.72687 4.207 10.4592C3.70025 13.6647 3.1228 13.3583 1.59078 18.249C1.3433 19.0503 0.860122 20.5234 1.22545 21.5605C1.37865 21.9847 1.66149 21.478 2.62784 22.8097C3.74739 24.3417 3.86524 24.6952 4.45448 24.9545C4.57233 25.0017 5.46797 25.3788 6.19863 24.9781C6.94107 24.5656 6.67002 23.835 7.4596 22.9511C7.81314 22.5622 7.88385 21.9376 8.2374 21.808C8.53201 21.6901 9.06233 22.0672 9.55729 21.6666C10.6061 20.8416 11.1011 19.9342 11.1954 19.7456C11.7257 18.7321 11.7728 17.7894 11.7964 17.3062C11.8907 15.6681 12.2442 9.37503 13.4816 6.46419L13.4698 6.4524Z" fill="#FFE780"/>
<path d="M8.30825 11.8376C8.40253 13.4404 8.28468 14.7367 8.16683 15.597C7.86043 17.8714 7.24762 19.2385 7.93114 20.8412C8.07255 21.1712 8.37896 21.8783 8.94463 21.9725C9.68707 22.1022 10.4059 21.1123 10.677 20.7234C12.4211 18.3193 11.0659 13.4639 10.5945 11.9201" stroke="#824236" stroke-width="0.52" stroke-miterlimit="10" stroke-linecap="round"/>
<path d="M45.7131 8.27913L42.5547 37.4347C42.3072 39.7681 40.7045 41.7479 38.4536 42.4432C34.1522 43.7631 26.4331 45.0948 16.8521 42.2193C14.6837 41.5711 13.1281 39.6502 12.8689 37.3875C11.9614 29.256 10.3116 11.0368 10.2055 8.59732L8.34351 7.05351L8.86204 5.58041L27.6116 8.39698L35.5664 8.00808L42.1894 7.20671L44.7467 6.91209L46.8444 5.7454L47.1979 6.19323L46.4908 7.68989" fill="#F4F4F4"/>
<path d="M9.6991 4.2485C9.29842 4.38992 9.10986 4.82595 9.32199 5.37984C9.66374 6.26369 10.7833 6.52296 11.1133 6.59367C12.3271 6.87651 13.2345 6.44047 14.4366 6.06336C15.8508 5.61553 17.3592 5.55661 18.8205 5.29734C25.9385 3.98923 32.0077 4.69632 32.0077 4.69632C42.7908 5.94551 43.5803 6.06336 43.5803 6.06336C44.1814 6.14585 45.9609 6.4169 46.444 5.61553C46.7151 5.16771 46.5737 4.49598 46.4205 4.41348C45.2184 3.72997 38.5836 2.10367 32.703 2.10367C17.4888 2.10367 19.9519 2.61041 14.9433 3.03466C13.8473 3.12894 11.8793 3.45892 9.6991 4.26028V4.2485Z" fill="#B5B4B5"/>
<path d="M44.4285 6.52273C44.4285 7.31231 37.5109 8.73827 28.6369 8.73827C19.763 8.73827 11.6079 7.25339 11.6079 6.46381C11.6079 5.67423 19.3505 4.51932 28.2245 4.51932C37.0984 4.51932 44.4285 5.74494 44.4285 6.52273Z" fill="#C6D4D5"/>
<path d="M27.9064 8.27899C38.2941 8.27899 46.7149 6.91773 46.7149 5.23852C46.7149 3.55931 38.2941 2.19804 27.9064 2.19804C17.5188 2.19804 9.0979 3.55931 9.0979 5.23852C9.0979 6.91773 17.5188 8.27899 27.9064 8.27899Z" stroke="#824236" stroke-width="0.52" stroke-miterlimit="10" stroke-linecap="round"/>
<path d="M45.1238 6.46423C42.2129 5.39181 35.6017 4.64937 27.9062 4.64937C20.2108 4.64937 13.8116 5.36824 10.8301 6.41709" stroke="#824236" stroke-width="0.52" stroke-miterlimit="10" stroke-linecap="round"/>
<path d="M46.4203 4.70807C46.4203 4.70807 48.1644 6.16938 46.5028 7.71319C44.193 9.85802 34.8241 10.3058 27.9771 10.2587C21.1301 10.2116 13.4583 10.2587 9.72247 8.27886C7.14161 6.91182 9.0036 5.23838 9.0036 5.23838" stroke="#824236" stroke-width="0.52" stroke-miterlimit="10" stroke-linecap="round"/>
<path d="M38.4653 42.4312C34.1639 43.7511 26.4448 45.0828 16.8638 42.2073C14.6954 41.5591 13.1398 39.6382 12.8806 37.3755C11.9731 29.244 9.87544 9.99947 10.2172 8.5853" stroke="#824236" stroke-width="0.52" stroke-miterlimit="10" stroke-linecap="round"/>
<path d="M45.713 8.27859L42.5547 37.4341" stroke="#824236" stroke-width="0.52" stroke-miterlimit="10" stroke-linecap="round"/>
<path d="M8.54395 4.59046C8.60287 4.83794 10.4884 4.178 10.8302 4.53154C11.5255 5.2622 11.0541 6.14606 11.3841 6.33461C11.8673 6.61745 13.5171 6.8885 13.5171 6.8885C13.7764 5.89858 14.6131 3.84803 13.8825 2.99952C13.2225 2.23351 12.2797 2.05674 8.55573 4.59046H8.54395Z" fill="#FFE780"/>
<path d="M11.0307 6.15758C11.1486 5.61548 11.1132 5.29729 10.7361 4.80233C10.4179 4.38986 9.87579 4.22487 9.29834 4.79054" stroke="#824236" stroke-width="0.52" stroke-miterlimit="10" stroke-linecap="round"/>
<path d="M37.8528 26.8282C39.5144 26.1801 40.6222 25.1194 42.8495 22.9864C45.1358 20.7944 46.326 19.6159 46.6207 17.7657C46.9506 15.7152 45.9843 13.9475 45.395 13.0754" stroke="#824236" stroke-width="0.52" stroke-miterlimit="10" stroke-linecap="round"/>
<path d="M10.4294 8.91502C11.714 10.5178 20.8354 22.0668 26.2682 25.4491" stroke="#824236" stroke-width="0.52" stroke-miterlimit="10" stroke-linecap="round"/>
<path d="M28.3775 26.0975C27.8236 26.5572 27.9061 27.877 28.5424 28.6548C28.7074 28.867 29.1317 29.2912 30.3809 29.5387C31.8775 29.8215 32.9382 29.5387 34.6234 29.2205C37.2278 28.7373 37.9113 29.3266 38.5477 28.6548C39.2784 27.8888 39.3373 26.3686 38.6774 25.7086C38.1706 25.2019 37.6049 25.5554 35.0948 25.7086C31.6654 25.909 30.5 26.0172 30 26.0172C29.7267 26.0172 28.7074 25.8383 28.3892 26.0975H28.3775Z" fill="#28A745" stroke="#824236" stroke-width="0.52" stroke-miterlimit="10" stroke-linecap="round"/>
<path d="M13.2224 7.00602C13.9648 6.05145 14.5659 4.01268 14.1298 2.95205C13.4817 1.38468 11.7729 1.07828 11.5372 1.04292C9.73411 0.748301 8.21387 2.04463 7.48322 2.66922C4.2424 5.50935 5.63301 8.102 2.47468 15.88C1.96794 17.1174 0.270931 21.1713 1.35513 21.9491C1.64975 22.1613 2.08579 22.0905 2.65146 22.5619C3.13463 22.9744 3.12285 23.3044 3.60602 23.9643C3.88886 24.365 4.45453 25.1546 5.00841 25.2606C5.8687 25.4256 7.04718 24.0232 7.93104 21.8902" stroke="#824236" stroke-width="0.52" stroke-miterlimit="10" stroke-linecap="round"/>
<path d="M3.26476 34.6926C2.90705 36.5011 2.68182 39.7139 4.16567 41.3567C5.28519 42.6021 6.65642 42.8538 7.09363 42.9797C7.25924 43.0261 9.644 43.662 11.8168 42.3835C13.1085 41.6283 12.9164 41.0189 14.6917 39.7868C15.7914 39.025 16.785 38.6143 17.2885 38.4089C19.4878 37.5146 20.4417 37.9518 21.5744 37.1635C22.1508 36.7594 22.8331 35.8254 23.1245 32.8378" fill="#FFF097"/>
<path d="M3.26476 34.6926C2.90705 36.5011 2.68182 39.7139 4.16567 41.3567C5.28519 42.6021 6.65642 42.8538 7.09363 42.9797C7.25924 43.0261 9.644 43.662 11.8168 42.3835C13.1085 41.6283 12.9164 41.0189 14.6917 39.7868C15.7914 39.025 16.785 38.6143 17.2885 38.4089C19.4878 37.5146 20.4417 37.9518 21.5744 37.1635C22.1508 36.7594 22.8331 35.8254 23.1245 32.8378" stroke="#824236" stroke-width="0.344466" stroke-miterlimit="10" stroke-linecap="round"/>
<path d="M10.7239 29.8107C10.492 29.9233 10.2469 30.0293 10.0018 30.1088C8.59083 30.5725 7.00762 30.4003 5.65625 31.023C2.54281 32.4538 2.69517 37.0047 4.51024 39.3961C5.66288 40.9065 7.69655 41.7875 9.53811 41.3106C11.6182 40.774 12.9629 38.7867 14.8111 37.7003C16.3347 36.806 18.1431 36.5543 19.8191 36.0045C21.0711 35.5938 22.3562 34.9181 22.8795 33.7124C23.2306 32.9109 23.1842 31.9901 23.0385 31.1223C22.8133 29.7511 22.3363 28.3865 21.4553 27.3133C20.5743 26.2402 19.2361 25.485 17.8384 25.5181C15.0231 25.591 13.2411 28.5653 10.7239 29.8107Z" fill="#FFF097"/>
<path d="M14.8179 26.8362C13.4666 27.8232 12.2278 29.1812 10.7307 29.9165C10.4989 30.0291 10.2538 30.1351 10.0087 30.2146C8.59767 30.6783 7.01445 30.506 5.66309 31.1287C2.54965 32.5596 2.70201 37.1105 4.51708 39.5019C5.66971 41.0122 7.70338 41.8933 9.54495 41.4163C11.625 40.8798 12.9697 38.8925 14.8179 37.8061C16.3415 36.9118 18.15 36.6601 19.8259 36.1102C21.0779 35.6995 22.363 35.0238 22.8864 33.8182C23.2375 33.0167 23.1911 32.0959 23.0454 31.2281C22.8201 29.8569 22.3432 28.4923 21.4621 27.4191C20.5811 26.346 19.243 25.5908 17.8519 25.6239C17.2292 25.6372 16.6529 25.7961 16.1097 26.0545" stroke="#824236" stroke-width="0.344466" stroke-miterlimit="10" stroke-linecap="round"/>
<path d="M16.9036 27.7496C17.0719 27.7496 17.2083 27.6132 17.2083 27.4449C17.2083 27.2766 17.0719 27.1402 16.9036 27.1402C16.7353 27.1402 16.5989 27.2766 16.5989 27.4449C16.5989 27.6132 16.7353 27.7496 16.9036 27.7496Z" fill="#F7D21C"/>
<path d="M17.8773 30.0814C18.1371 30.0814 18.3476 29.8708 18.3476 29.6111C18.3476 29.3513 18.1371 29.1407 17.8773 29.1407C17.6176 29.1407 17.407 29.3513 17.407 29.6111C17.407 29.8708 17.6176 30.0814 17.8773 30.0814Z" fill="#F7D21C"/>
<path d="M12.1351 31.9106C12.2814 31.9106 12.4001 31.792 12.4001 31.6457C12.4001 31.4993 12.2814 31.3807 12.1351 31.3807C11.9888 31.3807 11.8701 31.4993 11.8701 31.6457C11.8701 31.792 11.9888 31.9106 12.1351 31.9106Z" fill="#F7D21C"/>
<path d="M5.50399 33.8778C5.65033 33.8778 5.76896 33.7592 5.76896 33.6129C5.76896 33.4665 5.65033 33.3479 5.50399 33.3479C5.35765 33.3479 5.23901 33.4665 5.23901 33.6129C5.23901 33.7592 5.35765 33.8778 5.50399 33.8778Z" fill="#F7D21C"/>
<path d="M13.9632 36.9979C14.1096 36.9979 14.2282 36.8793 14.2282 36.7329C14.2282 36.5866 14.1096 36.468 13.9632 36.468C13.8169 36.468 13.6982 36.5866 13.6982 36.7329C13.6982 36.8793 13.8169 36.9979 13.9632 36.9979Z" fill="#F7D21C"/>
<path d="M20.8724 33.2487C21.0187 33.2487 21.1374 33.1301 21.1374 32.9838C21.1374 32.8374 21.0187 32.7188 20.8724 32.7188C20.7261 32.7188 20.6074 32.8374 20.6074 32.9838C20.6074 33.1301 20.7261 33.2487 20.8724 33.2487Z" fill="#F7D21C"/>
<path d="M7.25942 39.5283C7.57771 39.5283 7.83574 39.2703 7.83574 38.952C7.83574 38.6337 7.57771 38.3757 7.25942 38.3757C6.94113 38.3757 6.68311 38.6337 6.68311 38.952C6.68311 39.2703 6.94113 39.5283 7.25942 39.5283Z" fill="#F7D21C"/>
<path d="M11.3996 39.0315C11.6081 39.0315 11.7771 38.8625 11.7771 38.654C11.7771 38.4454 11.6081 38.2764 11.3996 38.2764C11.191 38.2764 11.022 38.4454 11.022 38.654C11.022 38.8625 11.191 39.0315 11.3996 39.0315Z" fill="#F7D21C"/>
<path d="M9.78991 35.3023C10.0497 35.3023 10.2602 35.0917 10.2602 34.8319C10.2602 34.5722 10.0497 34.3616 9.78991 34.3616C9.53015 34.3616 9.31958 34.5722 9.31958 34.8319C9.31958 35.0917 9.53015 35.3023 9.78991 35.3023Z" fill="#F7D21C"/>
<path d="M15.6459 32.9837C15.9056 32.9837 16.1162 32.7732 16.1162 32.5134C16.1162 32.2537 15.9056 32.0431 15.6459 32.0431C15.3861 32.0431 15.1755 32.2537 15.1755 32.5134C15.1755 32.7732 15.3861 32.9837 15.6459 32.9837Z" fill="#F7D21C"/>
</svg>
