<svg width="75" height="116" viewBox="0 0 75 116" fill="none" xmlns="http://www.w3.org/2000/svg">
<path d="M18.6079 37.0855L18.186 38.0915C18.1536 38.1672 17.2666 38.7297 17.2017 38.7837L14.7571 41.0337C14.6922 41.0877 14.6381 41.1635 14.6056 41.25L13.7727 43.4999C13.6754 43.9542 13.8268 44.4194 14.1621 44.7331L15.4926 45.8688L16.2931 42.9699L16.1416 46.1933C16.1416 46.3448 16.2065 46.4746 16.3255 46.5719L17.8183 47.8375L17.4938 45.2739C17.4938 45.209 17.4937 45.1441 17.5046 45.0792L17.894 43.6081C17.894 43.6081 17.894 43.5865 17.894 43.5756L18.2401 42.548L19.7437 41.4014L20.5549 40.7741C20.7713 40.6118 20.8146 40.2981 20.6631 40.071L18.5971 37.0855H18.6079Z" fill="#F4C3AB"/>
<path d="M36.3478 35.6466L36.3911 35.6682C37.5485 33.9483 37.3429 31.7525 36.8454 29.7405C36.3478 27.7286 35.6231 25.7599 35.0498 23.7696C34.8118 22.9583 34.6387 22.0929 34.8118 21.2709C34.9849 20.4379 35.569 19.6483 36.4019 19.4752L36.4884 19.5834C36.7264 19.3887 37.0076 19.2265 37.2997 19.1291C37.4836 19.0642 37.6783 19.0101 37.873 19.0209C38.0569 19.0209 38.2299 19.0858 38.403 19.1507C39.0412 19.3671 39.7119 19.605 40.1445 20.1134C41.1289 20.9896 41.9726 22.6013 42.4594 23.9426C42.9786 24.6241 43.1192 25.5327 43.4545 26.3224C43.6709 26.8416 43.9737 27.3175 44.2225 27.8367C44.7958 29.0374 45.0013 30.3787 45.2069 31.6984H45.196C45.2393 31.8606 45.2826 32.0337 45.3258 32.196C45.4232 32.5637 45.5097 32.9423 45.6179 33.2993C46.3318 35.8629 45.4016 40.6981 43.6817 42.7208C42.9678 43.5645 41.8969 44.0189 40.7935 44.1378C40.9342 44.7328 37.224 43.7701 36.7156 44.2893C36.7156 44.2893 33.7842 49.0379 34.9199 54.5329C35.3959 55.1062 36.0774 56.2312 35.8827 56.7504C35.5041 58.1674 42.5675 67.8053 41.6048 68.7355L34.9308 70.6718C32.67 66.3558 32.1616 65.285 30.2362 61.9966C28.8625 59.6277 28.2134 58.016 26.2664 55.6903C24.6763 50.6496 24.4816 47.1882 24.4816 47.1882C24.2761 45.8902 28.5163 42.3639 27.6185 41.4012C27.2832 41.0442 26.7423 40.3519 26.7423 40.3519C26.3313 40.3087 26.4719 37.8316 26.3638 37.6693C26.3421 37.6477 26.3313 37.6044 26.3421 37.572H26.2989C26.4719 36.2848 27.0669 35.0949 27.7375 33.9807C29.1437 31.6335 30.9177 29.4052 32.0318 26.9389H32.0426C33.2217 30.0975 33.5462 33.5589 33.0054 36.8797C32.8972 37.5071 32.7566 38.1453 32.4645 38.7077C32.6484 38.5888 32.8215 38.459 32.9945 38.3292L32.9729 38.3075C34.6387 36.3172 35.45 33.6454 35.1796 31.0602C35.2445 30.2381 35.1471 29.416 34.9632 28.6047C35.2985 29.2429 35.6231 29.8919 35.9151 30.541C36.3262 31.4712 36.6831 32.4447 36.7588 33.4615C36.8129 34.2079 36.7047 34.9867 36.3802 35.6574L36.3478 35.6466ZM43.5302 29.2754C43.5302 29.1888 43.4329 28.7994 43.3247 28.8535C43.3247 28.8535 43.3031 28.8643 43.3031 28.8752C43.2057 29.005 43.3247 29.535 43.4329 29.5999C43.5735 29.6756 43.541 29.3619 43.5302 29.2754ZM38.4679 29.7081C38.4679 29.7081 38.4246 29.6215 38.3814 29.5891C38.2408 29.5025 38.1434 29.5458 38.1001 29.6432C38.0785 29.6864 38.0569 29.7513 38.0569 29.827C38.046 30.1191 38.0352 30.422 38.1758 30.6924C38.1975 30.7357 38.2191 30.7789 38.2624 30.8114C38.4571 30.9412 38.5869 30.6167 38.6085 30.4869C38.6302 30.2381 38.5761 29.946 38.4787 29.7189L38.4679 29.7081Z" fill="#FFD9D7"/>
<path d="M60.9451 42.9912H60.9884C60.9992 43.0777 61.0208 43.175 61.0317 43.2724C62.0268 43.9755 63.0652 43.9647 64.3741 43.8024C65.8344 43.6294 67.2081 42.9479 68.3872 42.0717C68.7333 41.8121 69.0794 41.5092 69.2958 41.1523C69.2525 40.9684 69.2093 40.7845 69.1552 40.6006C68.809 39.8542 68.4845 39.0971 68.1708 38.3399C68.3764 38.3615 68.5711 38.4048 68.7766 38.448C69.6744 38.9024 70.4424 39.5838 70.8318 40.5141C71.2861 41.5958 71.4484 42.7748 71.5998 43.9322C72.5625 51.0606 73.536 58.1781 74.4987 65.3065C74.5636 65.75 74.6177 66.1935 74.5636 66.637C74.3798 68.0864 73.0384 69.0708 71.8161 69.8712C70.6155 70.6609 66.4618 71.6668 65.2611 72.4565C65.2611 72.4565 65.2827 72.2726 65.326 72.2185C65.445 72.0779 62.1999 73.9925 60.891 74.0249C57.938 74.1006 55.3203 75.6691 52.8541 77.2916C51.4911 78.1786 47.2184 78.1462 45.8555 79.044C45.769 78.0488 48.5381 74.8687 48.0513 74.0033L48.0946 73.9817C47.1103 72.1644 46.1151 70.3472 45.1308 68.5299C43.995 66.4423 43.3243 65.2416 42.7186 63.3919H42.751C42.4914 61.91 42.0371 60.4821 41.3989 59.13C43.3892 59.2815 46.061 60.255 47.8891 60.9905C50.2147 61.9208 52.7892 62.2128 55.2554 61.8343C56.8347 61.5855 59.7228 61.2826 61.3237 61.3583H61.3778C61.4535 59.0759 61.3778 56.7611 61.0208 54.5545C60.7829 53.1158 60.5773 51.6771 60.3286 50.2493C60.1122 49.027 59.9175 47.8155 59.7228 46.5932C59.5714 45.6305 59.4199 44.6678 59.2577 43.7051C59.0846 42.6126 59.3875 42.0501 60.1122 41.4011L60.1339 41.4227C60.2637 41.3253 60.3935 41.228 60.5233 41.1415C60.6531 41.758 60.7829 42.3854 60.9235 43.0236L60.9451 42.9912Z" fill="#F4F4F4"/>
<path d="M54.5524 11.8061C54.5308 12.0874 54.4659 12.3686 54.3361 12.6174C54.282 12.7147 54.2171 12.8013 54.1306 12.877C53.9034 13.0933 53.5789 13.2231 53.2869 13.1366C53.0597 13.0717 52.9083 12.8986 52.8001 12.6931C52.6919 12.4876 52.6162 12.2388 52.573 12.0116C52.454 11.4059 52.3891 10.7893 52.3674 10.1728C52.3674 9.83744 52.3674 9.50211 52.4972 9.19924C52.627 8.90718 52.865 8.66921 53.0922 8.45287C53.4275 8.12836 53.7845 7.81467 54.1955 7.58751C54.2279 7.5767 54.2496 7.55506 54.282 7.54425C54.7255 7.31709 55.8937 7.30627 56.3805 7.43608L56.413 7.5767C56.2507 7.60915 56.0993 7.67405 55.9695 7.78222C55.7964 7.92284 55.6882 8.12836 55.5801 8.33388C55.2123 9.01535 54.8445 9.70763 54.7472 10.4756C54.7472 10.5405 54.7363 10.6271 54.7796 10.6812C54.8229 10.7352 54.8878 10.7461 54.9527 10.7569C54.8661 11.1138 54.7363 11.4708 54.5633 11.7953L54.5524 11.8061Z" fill="#FCF7F2"/>
<path d="M57.1918 9.39336C57.0619 9.70705 56.8672 9.98829 56.6293 10.2155L56.586 10.1722C56.1533 10.5832 55.5476 10.8104 54.9526 10.7671C54.9526 10.7671 54.9418 10.7671 54.931 10.7671C54.8661 10.7671 54.8012 10.7455 54.7579 10.6914C54.7147 10.6373 54.7147 10.5616 54.7255 10.4859C54.8228 9.71787 55.2014 9.02559 55.5584 8.34412C55.6666 8.14942 55.7747 7.94389 55.9478 7.79246C56.0776 7.68429 56.229 7.61939 56.3913 7.58693C56.7699 7.51122 57.2134 7.60857 57.6028 7.71674H57.8516C57.8191 8.3333 57.6244 8.91742 57.2891 9.415L57.1809 9.38255L57.1918 9.39336Z" fill="#FFF8F5"/>
<path d="M56.6297 10.2156C56.8676 9.98848 57.0623 9.69642 57.1921 9.39355L57.3003 9.426C57.6356 8.92842 57.8303 8.33349 57.8628 7.73855C57.8628 7.53303 57.8628 7.32751 57.8303 7.13281C57.7438 6.51624 57.4842 5.94294 57.2138 5.39128C56.5756 4.07161 55.8508 2.7844 55.0504 1.55127H58.7173C60.1992 3.26034 61.4973 5.56435 61.5946 7.79264C61.6595 9.39355 60.5129 10.7024 59.2041 11.5245C59.1608 11.5461 59.1284 11.5677 59.0851 11.5894C58.7822 11.7733 58.4793 11.9247 58.1765 12.0545C57.0515 12.5305 55.3857 12.8009 54.1742 12.9307L54.1201 12.8874C54.1958 12.8117 54.2716 12.7143 54.3256 12.6278C54.4663 12.379 54.5204 12.0978 54.542 11.8165C54.7151 11.4812 54.834 11.1351 54.9314 10.7781C54.9314 10.7781 54.9422 10.7781 54.953 10.7781C55.548 10.8214 56.1537 10.5942 56.5864 10.1832L56.6297 10.2264V10.2156Z" fill="#FFE780"/>
<path d="M50.799 8.73431C50.8423 8.66941 50.8855 8.60451 50.9396 8.55043C51.1019 8.33409 51.2641 8.11775 51.4264 7.91223C51.567 7.72834 51.7076 7.53363 51.9023 7.40383C52.4432 7.04687 53.5681 7.34975 54.1739 7.55527V7.60935C53.7737 7.83651 53.4167 8.1502 53.0814 8.47471C52.8434 8.69105 52.6162 8.92902 52.4864 9.22108C52.3566 9.52395 52.3458 9.85928 52.3566 10.1946C52.3783 10.8112 52.4432 11.4277 52.5622 12.0335C52.6054 12.2606 52.6703 12.5094 52.7893 12.7149L52.7352 12.769C52.6487 12.8772 52.573 12.9854 52.4864 13.0827C52.2268 13.245 51.9023 13.2774 51.6319 13.2558C51.3939 13.2342 51.1884 13.1693 51.1127 13.0935C50.918 12.9096 50.8206 12.6392 50.7449 12.3796C50.7016 12.2282 50.6584 12.0659 50.6259 11.9145C50.4745 11.233 50.4096 10.5299 50.4529 9.83764C50.4637 9.59967 50.4961 9.35088 50.5827 9.13454C50.6367 9.00474 50.7125 8.87493 50.799 8.75595V8.73431Z" fill="#FCF7F2"/>
<path d="M60.9884 42.9912H60.9452C60.8046 42.3638 60.6747 41.7364 60.5449 41.1199C59.5822 36.5767 58.6736 32.3365 56.8456 27.1768L56.9321 27.047C56.6184 26.6252 56.1425 26.3007 55.6341 26.2358V26.1384C54.1089 25.7165 52.7243 24.7863 51.7508 23.5315C51.6642 23.4883 51.5777 23.4558 51.4804 23.4234C50.8746 22.4607 50.085 21.4006 49.1872 20.3838C48.96 19.9944 48.8086 19.5617 48.7112 19.1182C48.1271 17.9175 47.4348 16.7601 46.6452 15.6784C46.364 15.2998 46.0611 14.8672 46.1368 14.402H46.1801C46.1692 14.2722 46.1692 14.1424 46.1801 14.0126C46.4938 14.0451 46.8074 14.0559 47.1211 14.0451C47.4673 14.0343 47.8242 14.0126 48.1704 13.9694C48.3002 14.1316 48.43 14.2939 48.5814 14.4345C49.317 15.1484 49.9876 15.9164 50.5934 16.7385C50.5609 16.4681 50.5501 16.1976 50.5934 15.9272C50.6691 15.3215 50.6799 14.7049 50.6583 14.0992C50.6475 13.9585 50.6366 13.8179 50.6366 13.6773C50.9828 13.6124 51.3289 13.5367 51.6751 13.4718V13.2771C51.9563 13.2987 52.2808 13.2663 52.5404 13.104C52.6269 12.9958 52.7027 12.8877 52.7892 12.7903L52.8433 12.7362C52.9515 12.9418 53.1137 13.104 53.3301 13.1797C53.6329 13.2771 53.9466 13.1473 54.1738 12.9201L54.2279 12.9634C55.4394 12.8336 57.1052 12.5632 58.2301 12.0872C58.533 11.9574 58.8359 11.806 59.1387 11.6221C59.2036 11.7086 59.2685 11.806 59.3226 11.8925C61.5617 15.2241 62.2108 19.4752 62.5677 23.4991C62.73 24.1697 62.8922 24.8296 63.0437 25.4894C65.0989 29.6539 66.4402 34.0889 68.2033 38.3615C68.517 39.1187 68.8415 39.8759 69.1877 40.6223C69.2418 40.8062 69.285 40.9901 69.3283 41.1739C69.1119 41.5309 68.7658 41.8446 68.4197 42.0934C67.2298 42.9696 65.8669 43.6402 64.4066 43.8241C63.0977 43.9863 62.0593 43.9972 61.0642 43.2941C61.0533 43.1967 61.0317 43.0994 61.0209 43.002L60.9884 42.9912Z" fill="#FCF7F2"/>
<path d="M50.5937 13.4715H50.4206C49.685 13.6986 48.917 13.8501 48.149 13.9474C47.8029 13.9907 47.4459 14.0123 47.0998 14.0231C46.7861 14.0231 46.4724 14.0231 46.1587 13.9907C45.7044 13.9366 45.2717 13.8284 44.8823 13.5905C43.5951 12.8008 43.3896 11.0377 43.422 9.5233C43.4869 6.75416 43.9304 3.99585 44.7093 1.33488H44.8391C45.7585 1.29161 46.6779 1.24835 47.5974 1.20508C47.0998 3.72542 46.7104 6.2674 46.4075 8.8202C46.3642 9.18797 46.321 9.56657 46.4075 9.92353C46.4832 10.2805 46.7104 10.6374 47.0565 10.7672C47.3161 10.8646 47.6082 10.8321 47.8786 10.8754V10.843C48.0409 10.897 48.2139 10.9295 48.3762 10.9295C48.3546 11.1242 48.3329 11.3297 48.3221 11.5352C48.3005 11.903 48.3221 12.3141 48.5709 12.5737C48.7872 12.8008 49.1442 12.8441 49.4471 12.7576C49.7499 12.671 50.0096 12.4763 50.2475 12.2708L50.3773 12.3032C50.4422 12.1626 50.5179 12.0328 50.6153 11.903C50.6477 12.0545 50.691 12.2167 50.7343 12.3682C50.81 12.6278 50.9074 12.8982 51.1021 13.0821C51.1778 13.1578 51.3833 13.2227 51.6213 13.2443V13.439C51.2643 13.5039 50.9182 13.5796 50.572 13.6445C50.572 13.5905 50.572 13.5256 50.572 13.4715H50.5937Z" fill="#FFE780"/>
<path d="M49.9767 8.73381H50.7988C50.7123 8.85279 50.6366 8.97178 50.5825 9.1124C50.4959 9.33956 50.4635 9.57753 50.4527 9.8155C50.4094 10.5078 50.4743 11.2109 50.6257 11.8924C50.5284 12.0113 50.4527 12.152 50.3878 12.2926L50.258 12.2601C50.02 12.4656 49.7604 12.6604 49.4575 12.7469C49.1546 12.8334 48.7977 12.7902 48.5813 12.563C48.3217 12.3034 48.3109 11.8924 48.3326 11.5246C48.3434 11.3191 48.365 11.1243 48.3866 10.9188C48.4191 10.616 48.4624 10.3239 48.5273 10.021C48.6138 9.58835 48.7436 9.12322 49.1114 8.86361C49.3602 8.69054 49.663 8.65809 49.9659 8.604V8.71217L49.9767 8.73381Z" fill="#FCF7F2"/>
<path d="M44.6335 113.604H44.6227C45.6611 108.531 45.845 96.9784 45.7909 91.7971H45.845C45.791 91.3103 45.7261 90.8236 45.6503 90.3476V90.3152C46.7861 89.9582 47.9111 89.558 48.9711 88.9847C49.1226 88.8982 49.2632 88.8224 49.4146 88.7359L49.6634 88.8333C50.8208 95.2477 47.9651 108.401 49.2524 113.983H49.3173C49.2956 114.221 49.274 114.459 49.2524 114.697H48.4736V114.74C47.0782 114.74 45.7044 114.74 44.3523 114.74C44.4605 114.361 44.5686 113.983 44.6552 113.593L44.6335 113.604Z" fill="#F4F4F4"/>
<path d="M44.7414 74.1653C45.0443 74.9766 45.477 75.9393 45.6608 76.783C46.1043 77.3996 45.7149 90.2933 45.6176 90.3258C44.9037 90.5529 44.0599 91.3642 43.2595 91.5265C41.9506 91.7969 39.095 92.3269 37.8727 92.5757C37.2128 92.7163 36.2609 88.4869 35.8823 89.0494C35.8391 89.1143 37.732 79.9956 37.6888 80.0605C37.6347 79.4764 37.5157 78.9031 37.3643 78.3406H37.4183C36.7369 75.6148 35.8066 73.1052 34.7141 70.7039L34.9088 70.6606C36.2285 70.4875 38.8137 69.8277 39.9603 68.9191C40.4363 68.627 40.8906 68.3133 41.3449 67.9888C42.4807 70.0116 43.6381 72.0452 44.7414 74.1653Z" fill="#95C6D1"/>
<path d="M35.179 31.1363C35.4494 33.7107 34.6273 36.3933 32.9615 38.3728L32.9831 38.3944C32.8101 38.5242 32.637 38.654 32.4531 38.773C32.7452 38.2105 32.8858 37.5723 32.994 36.945C33.5456 33.6242 33.2211 30.1627 32.0421 27.0042H32.0312C32.4207 26.128 32.7344 25.2302 32.9291 24.2783H32.9831C33.4483 25.8035 34.2163 27.2314 34.9518 28.67C35.1357 29.4813 35.2331 30.3034 35.1682 31.1255L35.179 31.1363Z" fill="#F4C3AB"/>
<path d="M34.8984 54.5217C34.3576 53.6564 34.4333 52.3259 34.6064 51.5254C34.6388 51.5795 35.926 52.38 35.9585 52.4341L36.0017 52.4124C37.9163 54.0133 39.8417 56.3173 40.9992 58.5781L41.0965 58.524C41.1939 58.7187 41.302 58.9134 41.3886 59.1189C42.0268 60.471 42.4811 61.8989 42.7407 63.37H42.7082C43.314 65.2305 43.9846 66.4312 45.1204 68.5188C46.1047 70.3361 47.0999 72.1533 48.0843 73.9706L48.041 73.9922C48.5277 74.8576 48.8306 75.8311 48.9172 76.8262C48.9388 77.1832 48.9712 77.7132 49.0037 78.1134C49.0145 78.2757 49.7392 89.2224 49.696 89.2441L45.6288 90.3474C45.261 89.7308 46.1913 76.7938 45.4882 76.6532C45.38 76.5991 45.0447 74.9765 44.7418 74.1545C43.6385 72.0343 42.4811 70.0008 41.3453 67.978C39.1927 64.1596 37.1267 60.3845 35.6231 56.1226C35.5799 55.6575 35.2013 55.0193 34.8876 54.5217H34.8984Z" fill="#F4F4F4"/>
<path d="M8.56957 110.262C11.0575 109.797 13.4805 108.975 15.8494 108.131C17.6342 107.493 25.206 106.043 25.0221 103.826L24.6868 101.619C24.6868 101.457 24.6652 101.306 24.6652 101.143C28.6782 98.4825 34.1083 95.6268 37.3967 92.7279L37.3642 92.663C37.613 92.544 37.8618 92.4358 38.1106 92.3384C38.208 92.8901 38.2729 93.4526 38.2729 94.0151H38.4568C38.6515 98.5149 38.4351 110.176 37.1912 114.762C27.3478 114.784 18.0236 114.827 7.61768 114.827C8.0179 113.713 8.32078 112.555 8.50466 111.376C8.54793 111.008 8.55875 110.63 8.56957 110.262Z" fill="#F4F4F4"/>
<path d="M38.3707 92.3711C40.1988 91.8627 42.0376 91.3435 43.8657 90.8351C44.4498 90.6729 45.0447 90.5106 45.6289 90.3267V90.3592C45.7046 90.8351 45.7695 91.3219 45.8344 91.8086H45.7803C45.8344 96.99 45.6505 108.542 44.6121 113.616H44.6229C44.5363 114.005 44.4282 114.384 44.32 114.762C41.897 114.762 39.5281 114.762 37.1917 114.773C38.4248 110.187 38.6411 98.526 38.4572 94.0261H38.2733C38.2733 93.4636 38.2084 92.9012 38.1111 92.3495C38.1868 92.317 38.2517 92.2954 38.3274 92.263L38.3707 92.3819V92.3711Z" fill="#95C6D1"/>
<path d="M3.58316 105.579C2.3933 103.707 1.69019 102.712 1.83081 100.689C2.03633 97.585 0.727485 95.1512 1.05199 92.0576C2.09042 82.4197 -0.440745 72.7818 3.63724 63.8795C4.91364 61.0995 6.38474 57.2054 8.87264 55.28C9.90024 54.4795 11.155 54.0685 12.399 53.7224C13.8376 53.3113 15.2979 52.9652 16.769 52.6839C16.9204 52.7488 17.1043 52.7056 17.2666 52.6515C17.3747 52.619 17.4829 52.5758 17.5911 52.5325C18.1968 52.2945 18.7701 51.9808 19.3002 51.6131L19.2785 51.5806C19.9059 50.9749 20.7172 50.2177 21.5068 49.4929C22.0909 48.9521 22.6642 48.4221 23.1185 47.9677C23.4539 47.6432 24.5572 46.8861 25.3685 47.7081C25.3468 47.7298 25.3252 47.7514 25.3035 47.773C25.3144 47.773 25.3252 47.7947 25.336 47.8055C24.9899 48.0435 24.687 48.3355 24.449 48.66C24.6221 51.6888 26.104 55.0853 27.5859 57.6922C30.0197 61.9649 32.6591 66.1186 34.7359 70.6941C35.8284 73.0955 36.7587 75.605 37.4401 78.3201H37.3861C37.5483 78.8934 37.6565 79.4775 37.7106 80.0508C36.5099 81.8356 35.3092 83.6095 34.1085 85.3943L34.141 85.416C33.8706 85.7621 33.6001 86.0974 33.3081 86.4328C32.897 86.6707 32.4968 86.9195 32.0858 87.1575C31.5341 87.4928 35.5255 87.8498 35.969 88.3257C38.1216 90.6946 39.1384 91.5924 36.8993 93.9938C36.6613 94.2534 29.6411 103.037 29.6411 103.037C29.8142 105.254 17.656 107.483 15.8712 108.11C13.5023 108.954 9.03489 112.729 8.59139 110.241C8.41832 109.267 7.83421 109.289 6.63353 108.564C5.3355 107.775 3.60479 105.568 3.60479 105.568L3.58316 105.579Z" fill="#F4F4F4"/>
<path d="M37.1478 15.7223C37.5048 15.863 37.8401 16.0036 38.1538 16.1442C43.7786 18.7186 47.4672 24.2353 47.8457 30.3901C47.9864 32.7374 47.1751 36.4151 49.6846 37.7997L49.6197 37.9836C49.1113 37.8754 48.6354 37.6158 48.2352 37.2697C47.651 36.7829 47.2184 36.1447 46.8181 35.4957C46.4287 34.8683 46.0501 34.2301 45.704 33.5811H45.6932C45.6715 33.5162 45.6499 33.4513 45.6283 33.3864C45.5201 33.0186 45.4336 32.6508 45.3362 32.2722C45.2929 32.11 45.2497 31.9477 45.2172 31.7855H45.2281C45.0333 30.4658 44.817 29.1245 44.2545 27.9238C44.0166 27.4154 43.7137 26.9287 43.4865 26.4095C43.1512 25.609 43.0106 24.7112 42.4914 24.0297C42.0046 22.6776 41.1717 21.0767 40.1765 20.1897C39.7439 19.6813 39.0732 19.4434 38.435 19.227C38.2619 19.1729 38.0889 19.108 37.905 19.0972C37.7103 19.0972 37.5156 19.1405 37.3317 19.2054C37.0396 19.3136 36.7584 19.465 36.5204 19.6597L36.4339 19.5515C35.6118 19.7246 35.0169 20.5142 34.8438 21.3471C34.6707 22.18 34.8438 23.0346 35.0818 23.8458C35.6551 25.8362 36.3798 27.8048 36.8774 29.8276C37.375 31.8396 37.5805 34.0354 36.4231 35.7553L36.3798 35.7337C36.7043 35.063 36.8125 34.2842 36.7584 33.5486C36.6827 32.5318 36.3365 31.5583 35.9147 30.6281C35.6226 29.9682 35.2981 29.33 34.9736 28.6918C34.238 27.2532 33.47 25.8253 33.0049 24.2893H32.9508C32.7669 25.252 32.4533 26.1499 32.053 27.0152C30.9389 29.4815 29.1649 31.6989 27.7479 34.057C27.0772 35.1712 26.4715 36.361 26.3092 37.6374H26.3525C26.3525 37.6374 26.3525 37.7132 26.3741 37.7456C26.4823 37.9079 26.2011 38.9787 26.3309 39.1194L26.7419 40.3417C27.0989 40.6121 27.0989 41.0664 27.5207 41.1097L27.6181 41.3909C28.0075 41.6938 27.5424 41.2503 27.8777 41.6181C28.7755 42.57 26.5039 46.5939 24.4812 47.178C24.4812 47.178 24.7624 45.0146 24.6542 44.6901C24.6542 44.6901 24.6542 44.6793 24.6542 44.6684C23.4752 42.213 20.8251 40.8609 19.3756 38.5785C15.276 32.1316 13.8589 20.9469 22.1555 17.0095H22.1664C22.6856 16.512 23.3021 16.1117 23.9728 15.8305C26.2227 13.9051 30.106 13.9484 33.5025 14.6623C34.8438 14.9435 36.0986 15.3221 37.1586 15.7331L37.1478 15.7223Z" fill="#F4C3AB"/>
<path d="M25.379 47.7395C25.379 47.7395 25.3573 47.7178 25.3465 47.707C24.5461 46.8741 23.4319 47.6313 23.0966 47.9666C22.6315 48.4209 22.069 48.951 21.4849 49.4918C20.6952 50.2165 19.884 50.9737 19.2566 51.5795" stroke="#824236" stroke-width="0.52" stroke-linecap="round" stroke-linejoin="round"/>
<path d="M38.1107 29.7413C38.1648 29.644 38.2513 29.6007 38.3919 29.6872C38.4352 29.7089 38.4568 29.763 38.4785 29.8062C38.5758 30.0334 38.6407 30.3254 38.6083 30.5742C38.5975 30.7148 38.4568 31.0285 38.2621 30.8987C38.2189 30.8771 38.1972 30.823 38.1756 30.7797C38.035 30.5093 38.035 30.2065 38.0566 29.9144C38.0566 29.8495 38.0782 29.7846 38.0999 29.7305L38.1107 29.7413Z" stroke="#824236" stroke-width="0.52" stroke-linecap="round" stroke-linejoin="round"/>
<path d="M43.3136 28.9721C43.3136 28.9721 43.3244 28.9505 43.3353 28.9505C43.4434 28.8964 43.53 29.2858 43.5408 29.3723C43.5408 29.4589 43.584 29.7726 43.4434 29.6968C43.3244 29.6319 43.2163 29.0911 43.3136 28.9721Z" stroke="#824236" stroke-width="0.52" stroke-linecap="round" stroke-linejoin="round"/>
<path d="M37.9815 26.6148C37.2243 27.0691 37.1378 27.0042 36.4888 26.9609" stroke="#824236" stroke-width="0.52" stroke-linecap="round" stroke-linejoin="round"/>
<path d="M42.2214 29.5244C42.3512 29.9571 42.5568 30.3682 42.8596 30.7035C43.2274 31.0929 43.8007 31.266 44.1252 31.7095C44.5146 32.2395 44.3524 32.975 44.0928 33.5267" stroke="#824236" stroke-width="0.52" stroke-linecap="round" stroke-linejoin="round"/>
<path d="M42.8158 25.6841C42.6103 25.8031 42.3615 25.868 42.1235 25.8464" stroke="#824236" stroke-width="0.52" stroke-linecap="round" stroke-linejoin="round"/>
<path d="M38.9761 19.5513C39.3871 19.6162 39.7874 19.8542 40.1659 20.1895C41.1503 21.0657 41.994 22.6774 42.4808 24.0295C42.524 24.1593 42.5673 24.2891 42.6106 24.4081" stroke="#824236" stroke-width="0.52" stroke-linecap="round" stroke-linejoin="round"/>
<path d="M45.5853 33.2989C45.5853 33.2989 45.6069 33.3529 45.6069 33.3854C46.3208 35.949 45.3906 40.7842 43.6707 42.8069C42.9567 43.6398 41.8859 44.105 40.7825 44.224C40.5987 44.2456 40.404 44.2564 40.2201 44.2564C38.9328 44.2672 37.7322 44.397 36.5315 43.9427" stroke="#824236" stroke-width="0.52" stroke-linecap="round" stroke-linejoin="round"/>
<path d="M26.677 16.9114C29.219 16.6842 31.1119 16.9114 33.5458 17.6577" stroke="#824236" stroke-width="0.52" stroke-linecap="round" stroke-linejoin="round"/>
<path d="M17.7967 52.4888C17.721 52.4996 17.6453 52.5105 17.5695 52.5321C17.2991 52.5754 17.0287 52.6294 16.7583 52.6835C15.2872 52.9648 13.8269 53.3217 12.3882 53.7219C11.1551 54.0681 9.90033 54.4791 8.86191 55.2796C6.37401 57.205 4.90291 61.1099 3.62651 63.879C-0.300032 72.4461 1.9607 81.8027 1.04126 90.8889C1.04126 90.9322 1.0629 91.2026 1.05208 91.2567C1.05208 91.3 1.11698 92.5331 1.11698 92.5764C0.889822 94.7614 1.8958 97.1411 1.78763 99.3261C1.59293 103.22 3.64814 107.006 7.60714 109.202C10.9712 111.073 13.2319 111.236 17.0611 110.77C17.1801 110.76 18.8243 110.208 18.9433 110.208" stroke="#824236" stroke-width="0.52" stroke-linecap="round" stroke-linejoin="round"/>
<path d="M16.5739 73.2569C16.4873 81.4345 17.8827 85.8262 16.3792 94.1768" stroke="#824236" stroke-width="0.52" stroke-linecap="round" stroke-linejoin="round"/>
<path d="M24.4165 48.3018C24.4165 48.4208 24.4165 48.5398 24.4273 48.6587C24.6004 51.6875 26.0823 55.084 27.5642 57.6909C29.998 61.9636 32.6374 66.1173 34.7142 70.6928C35.8067 73.0942 36.737 75.6037 37.4185 78.3188" stroke="#824236" stroke-width="0.52" stroke-linecap="round" stroke-linejoin="round"/>
<path d="M36.0017 52.4122C37.9163 54.0131 39.8417 56.3171 40.9991 58.5778C41.064 58.7076 41.1289 58.8266 41.183 58.9564" stroke="#824236" stroke-width="0.52" stroke-linecap="round" stroke-linejoin="round"/>
<path d="M35.6011 56.0264C35.6011 56.0264 35.6227 56.0913 35.6335 56.113C37.1263 60.3748 39.2031 64.1499 41.3557 67.9683C42.4915 69.9911 43.6489 72.0247 44.7522 74.1448C44.7738 74.188 44.8063 74.2421 44.8279 74.2962C44.8279 74.2962 45.8014 76.3298 45.8447 77.5305C45.888 78.7311 45.4661 89.7752 45.65 90.7812C45.8339 91.7872 45.7906 91.8737 45.7906 92.036" stroke="#824236" stroke-width="0.52" stroke-linecap="round" stroke-linejoin="round"/>
<path d="M42.2432 61.7583C42.4054 62.3641 42.5569 62.8941 42.7191 63.3809C43.3249 65.2306 43.9955 66.4313 45.1313 68.5189C46.1156 70.3362 47.1108 72.1534 48.0951 73.9707C48.1925 74.1437 48.4845 74.9009 48.5494 75.1497C48.5494 75.1497 49.1227 77.1725 49.1011 79.3791C49.0795 81.5858 49.3715 85.2635 49.404 86.2262" stroke="#824236" stroke-width="0.52" stroke-linecap="round" stroke-linejoin="round"/>
<path d="M18.9106 53.5166C19.1378 55.3123 19.4623 57.1079 19.8734 58.871C19.895 58.9684 19.9274 59.0874 20.0032 59.1523C20.0789 59.2172 20.187 59.2172 20.2844 59.2172C21.3985 59.2172 22.5019 59.2172 23.616 59.228" stroke="#824236" stroke-width="0.52" stroke-linecap="round" stroke-linejoin="round"/>
<path d="M24.6975 60.0166C24.0809 60.6548 23.4751 61.293 22.8586 61.9312C22.6422 62.1584 22.4259 62.3964 22.3285 62.6884C22.1663 63.2185 22.4583 63.7701 22.7396 64.2461C26.4822 70.6821 28.7971 76.1339 31.047 83.1432C31.1119 83.3379 31.166 83.5218 31.2309 83.7165" stroke="#824236" stroke-width="0.52" stroke-linecap="round" stroke-linejoin="round"/>
<path d="M38.457 94.0045C38.6517 98.5043 38.4353 110.165 37.1914 114.751C37.1697 114.838 37.1481 114.914 37.1265 115" stroke="#824236" stroke-width="0.52" stroke-linecap="round" stroke-linejoin="round"/>
<path d="M45.7798 91.7969C45.8339 96.9782 45.65 108.531 44.6116 113.604" stroke="#824236" stroke-width="0.52" stroke-linecap="round" stroke-linejoin="round"/>
<path d="M49.6417 88.8336C50.7991 95.248 47.9434 108.401 49.2306 113.983" stroke="#824236" stroke-width="0.52" stroke-linecap="round" stroke-linejoin="round"/>
<path d="M50.4852 8.51709C50.3229 8.57117 50.139 8.60362 49.9659 8.62526C49.6631 8.66853 49.3602 8.71179 49.1114 8.88487C48.7436 9.13365 48.6138 9.59878 48.5273 10.0423C48.4732 10.3343 48.4191 10.6372 48.3867 10.9401C48.365 11.1348 48.3434 11.3403 48.3326 11.5458C48.3109 11.9136 48.3326 12.3246 48.5814 12.5843C48.7977 12.8114 49.1547 12.8547 49.4575 12.7681C49.7604 12.6816 50.02 12.4869 50.258 12.2814" stroke="#824236" stroke-width="0.52" stroke-linecap="round" stroke-linejoin="round"/>
<path d="M54.1846 7.55527C53.5789 7.33893 52.4431 7.04687 51.9131 7.40383C51.7184 7.53364 51.5777 7.71752 51.4371 7.91223C51.2749 8.12857 51.1126 8.34491 50.9504 8.55043C50.9071 8.61533 50.853 8.66941 50.8097 8.73432C50.7232 8.8533 50.6475 8.97229 50.5934 9.11291C50.5069 9.34006 50.4744 9.57804 50.4636 9.81601C50.4203 10.5083 50.4852 11.2114 50.6367 11.8929C50.6691 12.0443 50.7124 12.2066 50.7557 12.358C50.8314 12.6176 50.9287 12.888 51.1234 13.0719C51.1991 13.1476 51.4047 13.2125 51.6426 13.2342C51.9131 13.2558 52.2376 13.2233 52.4972 13.0611C52.5945 12.9962 52.6811 12.9205 52.7568 12.8231" stroke="#824236" stroke-width="0.52" stroke-linecap="round" stroke-linejoin="round"/>
<path d="M56.3695 7.44682C55.8828 7.31702 54.7145 7.32783 54.271 7.55499C54.2386 7.56581 54.217 7.58744 54.1845 7.59826C53.7735 7.82541 53.4273 8.1391 53.0812 8.46361C52.8432 8.67995 52.6161 8.91792 52.4862 9.20998C52.3564 9.51285 52.3456 9.84818 52.3564 10.1835C52.3781 10.8001 52.443 11.4166 52.562 12.0224C52.6052 12.2495 52.6701 12.4983 52.7891 12.7038C52.8973 12.9094 53.0595 13.0716 53.2759 13.1473C53.5788 13.2447 53.8924 13.1149 54.1196 12.8877C54.1953 12.812 54.271 12.7147 54.3251 12.6281C54.4657 12.3793 54.5198 12.0981 54.5415 11.8169C54.5523 11.6762 54.5631 11.5356 54.5631 11.395" stroke="#824236" stroke-width="0.52" stroke-linecap="round" stroke-linejoin="round"/>
<path d="M57.6139 7.71674C57.2244 7.60857 56.7809 7.51122 56.4024 7.58693C56.2401 7.61939 56.0887 7.68429 55.9589 7.79246C55.7858 7.93308 55.6776 8.1386 55.5695 8.34412C55.2017 9.02559 54.8339 9.71787 54.7366 10.4859C54.7366 10.5508 54.7257 10.6373 54.769 10.6914C54.8123 10.7455 54.8772 10.7563 54.9421 10.7671C54.9421 10.7671 54.9529 10.7671 54.9637 10.7671C55.5586 10.8104 56.1644 10.5832 56.5971 10.1722C56.6187 10.1505 56.6511 10.1181 56.6728 10.0965" stroke="#824236" stroke-width="0.52" stroke-linecap="round" stroke-linejoin="round"/>
<path d="M44.7952 1.08691C44.7736 1.17345 44.7411 1.25998 44.7195 1.34652C43.9299 4.00749 43.4972 6.7658 43.4323 9.53494C43.3998 11.0493 43.6054 12.8017 44.8926 13.6021C45.282 13.8401 45.7147 13.9591 46.169 14.0023C46.4827 14.0348 46.7964 14.0456 47.11 14.0348C47.4562 14.024 47.8131 14.0023 48.1593 13.9591C48.9273 13.8725 49.6845 13.7103 50.4308 13.4831" stroke="#824236" stroke-width="0.52" stroke-linecap="round" stroke-linejoin="round"/>
<path d="M47.6299 1.07568C47.6299 1.07568 47.6082 1.16222 47.6082 1.20549C47.1107 3.72583 46.7212 6.26781 46.4184 8.82061C46.3751 9.18838 46.3318 9.56698 46.4184 9.92393C46.4941 10.2809 46.7212 10.6379 47.0674 10.7677C47.327 10.865 47.619 10.8326 47.8895 10.8758" stroke="#824236" stroke-width="0.52" stroke-linecap="round" stroke-linejoin="round"/>
<path d="M54.1843 12.9311C55.3958 12.8013 57.0616 12.5308 58.1866 12.0549C58.4895 11.9251 58.7923 11.7737 59.0952 11.5898C59.1385 11.5681 59.1709 11.5465 59.2142 11.5249C60.523 10.7028 61.6696 9.39394 61.6047 7.79303C61.5182 5.56474 60.2094 3.26074 58.7274 1.55166C58.5652 1.35696 58.3921 1.17307 58.2299 1" stroke="#824236" stroke-width="0.52" stroke-linecap="round" stroke-linejoin="round"/>
<path d="M57.3109 9.41592C57.6462 8.91835 57.8409 8.32341 57.8734 7.72848C57.8734 7.52296 57.8734 7.31744 57.8409 7.12274C57.7544 6.50617 57.4948 5.93287 57.2244 5.38121C56.5862 4.06154 55.8614 2.77433 55.061 1.5412C55.0394 1.50875 55.0177 1.4763 54.9961 1.44385" stroke="#824236" stroke-width="0.52" stroke-linecap="round" stroke-linejoin="round"/>
<path d="M46.126 14.3911C46.0503 14.8563 46.364 15.2889 46.6344 15.6675C47.424 16.7492 48.1163 17.9066 48.7004 19.1073C48.7004 19.1073 48.7004 19.1289 48.7112 19.1398" stroke="#824236" stroke-width="0.52" stroke-linecap="round" stroke-linejoin="round"/>
<path d="M48.2241 14.1109C48.3323 14.2082 48.4405 14.3164 48.5486 14.4137C49.2842 15.1168 49.9548 15.8848 50.5606 16.7069C50.8202 17.0639 51.069 17.4317 51.3069 17.8102" stroke="#824236" stroke-width="0.52" stroke-linecap="round" stroke-linejoin="round"/>
<path d="M50.4746 16.4564C50.5071 16.2725 50.5287 16.0778 50.5503 15.8939C50.626 15.2881 50.6369 14.6716 50.6152 14.0658C50.6152 14.0442 50.6152 14.0334 50.6152 14.0117" stroke="#824236" stroke-width="0.52" stroke-linecap="round" stroke-linejoin="round"/>
<path d="M51.6428 23.4019C51.6428 23.4019 51.7077 23.4884 51.7402 23.5317C52.7137 24.7864 54.0983 25.7167 55.6343 26.1386" stroke="#824236" stroke-width="0.52" stroke-linecap="round" stroke-linejoin="round"/>
<path d="M52.6814 16.6846C54.4878 17.604 56.3592 18.61 57.5057 20.2866" stroke="#824236" stroke-width="0.52" stroke-linecap="round" stroke-linejoin="round"/>
<path d="M59.0957 11.5899C59.1606 11.6764 59.2255 11.7737 59.2796 11.8603C61.5187 15.1919 62.1677 19.443 62.5247 23.4669C62.5247 23.5426 62.5355 23.6291 62.5463 23.7048" stroke="#824236" stroke-width="0.52" stroke-linecap="round" stroke-linejoin="round"/>
<path d="M56.835 27.1773C58.663 32.3261 59.5716 36.5664 60.5343 41.1203C60.6642 41.7368 60.794 42.3642 60.9346 43.0024" stroke="#824236" stroke-width="0.52" stroke-linecap="round" stroke-linejoin="round"/>
<path d="M62.6975 24.8296C62.8057 25.0459 62.9139 25.2515 63.022 25.4678C65.0772 29.6323 66.4185 34.0673 68.1817 38.34C68.4954 39.0971 68.8199 39.8543 69.166 40.6007C69.2201 40.7089 69.2634 40.817 69.3175 40.936" stroke="#824236" stroke-width="0.52" stroke-linecap="round" stroke-linejoin="round"/>
<path d="M60.4798 41.0762C60.35 41.1736 60.2419 41.2709 60.1337 41.3683C59.3981 42.0173 59.1061 42.5906 59.2792 43.6723C59.4306 44.635 59.582 45.5977 59.7443 46.5604C59.939 47.7827 60.1337 49.005 60.35 50.2165C60.5988 51.6443 60.8043 53.083 61.0423 54.5216C61.3993 56.7175 61.4858 59.0431 61.3993 61.3255C61.3885 61.7474 61.3668 62.1692 61.3344 62.5911" stroke="#824236" stroke-width="0.52" stroke-linecap="round" stroke-linejoin="round"/>
<path d="M60.6858 43.0016C60.8048 43.099 60.9129 43.1963 61.0319 43.2721C62.0271 43.9752 63.0655 43.9643 64.3744 43.8021C65.8346 43.629 67.2084 42.9475 68.3874 42.0714C68.7336 41.8118 69.0797 41.5089 69.2961 41.1519C69.4259 40.9356 69.5016 40.6976 69.5124 40.438" stroke="#824236" stroke-width="0.52" stroke-linecap="round" stroke-linejoin="round"/>
<path d="M68.3443 38.2534C68.4957 38.3184 68.6364 38.3833 68.777 38.4482C69.6748 38.9025 70.4428 39.5839 70.8322 40.5142C71.2865 41.5959 71.4488 42.7749 71.6002 43.9323C72.5629 51.0607 73.5364 58.1782 74.4991 65.3066C74.564 65.7501 74.6181 66.1936 74.564 66.6371C74.3802 68.0865 73.0388 69.0709 71.8165 69.8713C70.6159 70.661 66.4622 71.667 65.2615 72.4566" stroke="#824236" stroke-width="0.52" stroke-linecap="round" stroke-linejoin="round"/>
<path d="M41.3125 59.1094C41.3125 59.1094 41.3666 59.1094 41.399 59.1094C43.3894 59.2609 46.0611 60.2344 47.8892 60.9699C50.2148 61.9002 52.7893 62.1922 55.2555 61.8136C56.8348 61.5649 59.7229 61.262 61.3238 61.3377" stroke="#824236" stroke-width="0.52" stroke-linecap="round" stroke-linejoin="round"/>
<path d="M34.9089 70.6618C36.2286 70.4887 38.8138 69.8289 39.9604 68.9203C40.0362 68.8554 40.1119 68.8013 40.166 68.7364" stroke="#824236" stroke-width="0.52" stroke-linecap="round" stroke-linejoin="round"/>
<path d="M8.62371 110.478C8.59126 110.781 8.54799 111.073 8.50472 111.375C8.32083 112.554 8.01796 113.712 7.61773 114.826C7.60691 114.869 7.58528 114.913 7.57446 114.956" stroke="#824236" stroke-width="0.52" stroke-linecap="round" stroke-linejoin="round"/>
<path d="M36.4232 19.562C35.6011 19.7351 35.0062 20.5247 34.8331 21.3576C34.66 22.1905 34.8331 23.0451 35.0711 23.8563C35.6444 25.8467 36.3691 27.8153 36.8667 29.8381C37.3642 31.8501 37.5698 34.0459 36.4124 35.7658" stroke="#824236" stroke-width="0.52" stroke-linecap="round" stroke-linejoin="round"/>
<path d="M26.7314 38.1885C27.0884 38.4589 27.4886 38.6536 27.8997 38.6969C27.9646 38.6969 28.0187 38.6969 28.0836 38.6969" stroke="#824236" stroke-width="0.52" stroke-linecap="round" stroke-linejoin="round"/>
<path d="M32.9404 24.2993C32.7565 25.2512 32.4428 26.149 32.0426 27.0144C30.9285 29.4806 29.1545 31.6981 27.7375 34.0562C27.0668 35.1704 26.4611 36.3602 26.2988 37.6366C26.2988 37.6799 26.288 37.734 26.2772 37.7772C26.1257 39.1077 26.5476 40.5788 27.6077 41.4009" stroke="#824236" stroke-width="0.52" stroke-linecap="round" stroke-linejoin="round"/>
<path d="M23.9404 15.8301C23.9404 15.8301 23.9404 15.8301 23.9512 15.8193C26.2012 13.8939 30.0844 13.9371 33.481 14.651C34.8223 14.9323 36.077 15.3109 37.1371 15.7219C37.494 15.8625 37.8294 16.0032 38.1431 16.1438C43.7679 18.7182 47.4564 24.2348 47.835 30.3897C47.9756 32.7369 47.1644 36.4147 49.6739 37.7993C49.7064 37.8101 49.728 37.8317 49.7604 37.8425" stroke="#824236" stroke-width="0.52" stroke-linecap="round" stroke-linejoin="round"/>
<path d="M24.665 44.7213C24.665 44.7213 24.6433 44.678 24.6325 44.6672C23.4535 42.2118 20.8033 40.8596 19.3539 38.5773C15.2542 32.1304 13.8372 20.9457 22.1338 17.0083" stroke="#824236" stroke-width="0.52" stroke-linecap="round" stroke-linejoin="round"/>
<path d="M26.98 35.9065C27.3478 35.8849 27.7047 35.9606 28.04 36.112" stroke="#824236" stroke-width="0.52" stroke-linecap="round" stroke-linejoin="round"/>
<path d="M35.1796 31.147C35.4501 33.7214 34.628 36.404 32.9622 38.3835" stroke="#824236" stroke-width="0.52" stroke-linecap="round" stroke-linejoin="round"/>
<path d="M42.5146 39.6056C43.045 39.5686 43.42 38.7511 43.3523 37.7797C43.2845 36.8083 42.7996 36.0508 42.2692 36.0878C41.7388 36.1248 41.3638 36.9423 41.4315 37.9137C41.4993 38.8851 41.9842 39.6426 42.5146 39.6056Z" stroke="#824236" stroke-width="0.52" stroke-linecap="round" stroke-linejoin="round"/>
<path d="M20.3495 40.9902C20.1007 41.239 19.2895 40.8496 18.5539 40.114C17.8184 39.3784 17.4181 38.5672 17.6669 38.3184" stroke="#824236" stroke-width="0.52" stroke-linecap="round" stroke-linejoin="round"/>
<path d="M19.4081 42.126C19.1593 42.3747 18.348 41.9853 17.6124 41.2498C16.8769 40.5142 16.574 39.876 16.6497 39.5191" stroke="#824236" stroke-width="0.52" stroke-linecap="round" stroke-linejoin="round"/>
<path d="M20.4575 40.5572C20.1871 40.7194 17.7641 42.223 17.6235 44.9272C17.5586 46.0413 17.9155 46.9283 18.1643 47.4475" stroke="#824236" stroke-width="0.52" stroke-linecap="round" stroke-linejoin="round"/>
<path d="M16.4445 39.8223C16.0983 39.9413 15.4385 40.2333 14.8436 40.8932C14.0647 41.7693 13.9133 42.7321 13.8809 43.089" stroke="#824236" stroke-width="0.52" stroke-linecap="round" stroke-linejoin="round"/>
<path d="M17.5479 38.4376C17.6236 38.351 17.6885 38.351 18.1211 37.9183C18.2077 37.8318 18.6728 37.3991 18.4024 36.8799" stroke="#824236" stroke-width="0.52" stroke-linecap="round" stroke-linejoin="round"/>
<path d="M36.142 45.3501C35.6553 46.2912 35.0712 47.6974 34.7791 49.4714C34.4221 51.678 34.6709 53.5277 34.9197 54.6743" stroke="#824236" stroke-width="0.52" stroke-linecap="round" stroke-linejoin="round"/>
<path d="M30.647 32.4122C30.4847 32.9747 30.2792 33.5155 30.052 34.0456C29.8465 34.5107 29.4679 35.0191 29.6302 35.5491C29.6951 35.7655 29.8573 35.9602 30.052 36.0792C30.4198 36.2847 30.8633 36.2955 31.2419 36.1224C31.4474 36.0359 31.653 35.8412 31.7287 35.5816C31.8368 35.1922 31.6205 34.7595 31.4799 34.4891C31.1337 33.7968 30.7876 32.9422 30.6362 32.4014L30.647 32.4122Z" fill="#95C6D1" stroke="#824236" stroke-width="0.5" stroke-linecap="round" stroke-linejoin="round"/>
<path d="M17.3855 38.4917C17.3855 38.4917 16.823 38.5458 16.6499 39.5193" stroke="#824236" stroke-width="0.52" stroke-linecap="round" stroke-linejoin="round"/>
<path d="M34.7574 72.8129C34.5519 72.4776 35.4064 72.1639 35.1793 71.8394L34.8548 71.5906C33.6649 70.087 32.7563 68.8431 31.5664 67.3395C31.5231 67.2855 31.4799 67.2314 31.4366 67.1773C31.058 66.7013 30.6794 66.2254 30.4414 65.6629C29.9655 64.5704 30.0845 63.3156 30.2143 62.1258C30.29 61.401 30.3765 60.6655 30.6686 59.9948C30.7011 59.9191 30.7443 59.8434 30.7876 59.7677C31.1013 59.1944 31.5989 58.7184 32.2154 58.567L33.124 58.5237C33.243 58.9456 32.9185 59.3675 33.0375 59.8001C33.0808 60.0273 32.7887 60.2869 32.8753 60.5032C33.1998 57.3122 33.1457 54.0888 32.7346 50.9194C32.5724 49.6539 32.3452 48.3666 32.5399 47.1119C32.594 46.7766 32.6806 46.4412 32.8969 46.1924C33.124 45.9436 33.5135 45.8138 33.7947 45.9869C34.0543 46.1384 34.1517 46.4737 34.2166 46.7657C34.4437 47.7284 34.6492 48.702 34.8548 49.6755C34.9737 49.7079 35.0927 49.7404 35.2117 49.762V49.7945C35.7417 49.9567 36.1203 50.3894 36.4232 50.8762C36.7045 50.9843 36.9749 51.1141 37.2237 51.2872L37.202 51.3197C38.5433 52.5528 39.3221 54.2186 39.9063 55.9601C39.9279 55.9818 39.9387 55.9926 39.9603 56.0142L40.0036 55.9709C41.1178 56.9228 41.7884 58.2966 42.1346 59.7352C42.167 59.8867 42.1994 60.0273 42.2319 60.1787C42.4374 61.228 42.4807 62.2988 42.4699 63.3697C42.4699 63.9214 42.4482 64.4622 42.4266 65.0139C42.3725 66.7122 42.3076 68.4212 42.2535 70.1195L42.3076 70.444C42.3076 70.5089 42.3401 72.7264 42.3509 72.7913C42.3725 73.0401 41.4531 74.6085 41.4855 74.8465L35.2333 90.9313C33.362 90.3039 28.7107 85.0469 28.5809 84.4844C28.4836 84.0733 34.8548 73.2564 34.7574 72.8345V72.8129Z" fill="#FFF8F5"/>
<path d="M15.4709 96.9024C16.293 95.8423 19.603 92.9867 20.5549 92.0456C21.3121 91.2884 22.0909 90.5529 22.8373 89.8065C24.5247 88.1191 26.872 83.219 28.1376 84.1168" stroke="#824236" stroke-width="0.52" stroke-linecap="round" stroke-linejoin="round"/>
<path d="M18.9546 110.208C19.3548 110.122 20.0795 109.797 20.4581 109.7C22.0699 109.3 23.952 108.196 25.196 107.331C26.1803 106.649 27.0781 105.881 27.9218 105.049C29.7283 103.285 31.2859 101.252 32.7786 99.229C33.9036 97.7039 39.3878 92.2846 38.0032 90.543L36.4997 88.8989L36.3915 88.7799" stroke="#824236" stroke-width="0.52" stroke-linecap="round" stroke-linejoin="round"/>
<path d="M28.5706 84.4628C28.5706 84.4628 28.603 84.4088 28.6138 84.3763C28.7869 84.0085 28.96 83.6516 29.1439 83.2946C30.615 80.3632 32.2591 77.6049 33.6761 74.6194C33.9574 74.0353 34.2278 73.4512 34.509 72.8671C34.7146 72.4344 34.9201 72.0126 35.1256 71.5799C35.1581 71.5042 35.4718 72.164 35.4718 72.164" stroke="#824236" stroke-width="0.52" stroke-linecap="round" stroke-linejoin="round"/>
<path d="M28.3647 84.4742C28.4296 84.5716 28.4946 84.6797 28.5703 84.7879C29.6736 86.3672 32.6807 89.6555 35.2227 90.9103C35.7527 91.1699 36.2719 91.3538 36.737 91.4079" stroke="#824236" stroke-width="0.52" stroke-linecap="round" stroke-linejoin="round"/>
<path d="M35.0715 71.5261C33.9141 69.99 32.7566 68.454 31.5992 66.9289C31.556 66.8748 31.5127 66.8207 31.4694 66.7558C31.1017 66.269 30.7339 65.7823 30.5067 65.2198C30.0524 64.1056 30.2039 62.8617 30.3553 61.6718C30.4526 60.9471 30.55 60.2115 30.8529 59.5517C30.8853 59.476 30.9286 59.4003 30.9719 59.3246C31.2964 58.7621 31.8048 58.2969 32.4321 58.1563" stroke="#824236" stroke-width="0.52" stroke-linecap="round" stroke-linejoin="round"/>
<path d="M32.4863 63.7049C32.6702 62.6989 32.8108 61.6821 32.919 60.6654C33.2543 57.4744 33.2219 54.2509 32.8217 51.0815C32.6594 49.816 32.4431 48.5288 32.6486 47.274C32.7027 46.9387 32.7892 46.6033 33.0164 46.3546C33.2435 46.1058 33.6329 45.976 33.925 46.149C34.1846 46.3113 34.2819 46.6358 34.3468 46.9387C34.5632 47.9014 34.7795 48.8749 34.9742 49.8484C35.4826 52.3579 35.9153 54.8891 36.2723 57.4311" stroke="#824236" stroke-width="0.52" stroke-linecap="round" stroke-linejoin="round"/>
<path d="M35.2986 49.9678C35.8394 50.1301 36.218 50.5628 36.5101 51.0603C36.6615 51.3091 36.7913 51.5904 36.9103 51.85C37.7324 53.6889 38.4896 55.5926 38.7059 57.5938" stroke="#824236" stroke-width="0.52" stroke-linecap="round" stroke-linejoin="round"/>
<path d="M40.6313 58.4269C40.4257 57.6697 40.2202 56.9017 39.9714 56.1445C39.3981 54.3922 38.6301 52.7264 37.2888 51.4932" stroke="#824236" stroke-width="0.52" stroke-linecap="round" stroke-linejoin="round"/>
<path d="M40.0686 56.1548C41.172 57.1176 41.8426 58.4913 42.178 59.93C42.2104 60.0814 42.2428 60.222 42.2753 60.3735C42.47 61.4227 42.5133 62.4936 42.4916 63.5644C42.4916 64.1161 42.4592 64.657 42.4376 65.2086C42.3727 66.9069 42.3078 68.616 42.2428 70.3142C42.2428 70.3142 42.2645 72.0557 42.2428 72.2829C42.1563 73.0293 41.7128 74.1001 41.6263 74.4571C40.1119 78.3079 37.7971 84.1815 36.0447 88.6597C35.9041 89.0275 35.7635 89.3953 35.6337 89.7522C35.5364 90.0118 35.4498 90.2715 35.3633 90.5311" stroke="#824236" stroke-width="0.52" stroke-linecap="round" stroke-linejoin="round"/>
<path d="M49.0789 78.4492C49.0789 78.4492 50.2255 77.9841 51.5451 77.7677C52.8648 77.5514 53.3299 76.924 54.39 76.3074C55.45 75.6909 56.7481 74.5551 59.0629 74.2522C61.3777 73.9493 64.6228 72.727 65.2718 72.4566" stroke="#824236" stroke-width="0.52" stroke-linecap="round" stroke-linejoin="round"/>
</svg>
