<svg width="75" height="65" viewBox="0 0 75 65" fill="none" xmlns="http://www.w3.org/2000/svg">
<path d="M74.9197 64.3956L0 64.5338L2.16743 60.2395L4.63303 53.136L5.91743 50.9141L8.13073 48.2891L12.3968 45.8599L24.7248 42.6363L27.2706 40.6331L29.3349 37.0526L48.7959 36.1431L51.3188 41.2548L68.5665 48.3122L71.0894 50.868L71.8578 53.2282L74.9197 64.3956Z" fill="#EFEDED"/>
<path d="M50.6768 19.8983C50.0919 19.8983 49.5644 20.2667 49.1974 20.8538C49.0713 20.6927 48.8763 20.6005 48.5896 20.6005C47.913 20.6005 46.8465 20.0134 45.9864 20.3818C44.2891 16.6862 41.6057 14.0728 38.2341 14.0728C35.9291 14.0728 33.7846 15.0398 32.03 16.6631C31.3648 15.3737 30.4703 14.5793 29.4726 14.5793C27.4428 14.5793 25.8029 17.8605 25.8029 21.9015C25.8029 22.1087 25.8029 22.316 25.8144 22.5232C25.5162 22.6268 25.2754 23.1334 25.2754 23.7666C25.2754 24.4804 25.3098 25.2633 25.6653 25.2633C25.7456 25.2633 26.7777 26.5066 26.8465 26.4606C27.1332 27.704 26.8809 27.255 27.4428 28.0033C27.4428 28.0839 27.4428 28.153 27.4428 28.2336C27.4428 31.6414 28.3603 34.7614 29.8855 37.2021C29.8625 37.4208 29.8396 37.6396 29.8396 37.8929C29.8396 40.5063 30.8258 45.146 34.9314 46.4239C35.069 46.47 36.9612 52.0191 37.0644 51.7659C40.7685 42.6477 46.9497 43.5687 46.9497 39.0096C46.9497 38.1922 46.835 37.5705 46.6286 37.087C47.5231 35.1989 48.0047 32.8387 48.0047 30.0641C48.0047 29.949 48.0047 29.8339 48.0047 29.7187C48.5093 29.1431 48.9107 28.199 49.1171 27.0247C50.241 26.9556 52.6836 24.3192 52.6836 22.765C52.6836 21.2107 51.7892 19.9213 50.6882 19.9213L50.6768 19.8983Z" fill="#FFF8F5"/>
<path d="M47.3624 21.2567C47.6147 21.3258 48.5436 21.5675 49.5069 21.0495C49.6216 20.9919 50.4129 20.5544 50.7684 19.6449C51.0092 19.0347 50.7913 18.9081 51.0092 18.0216C51.1583 17.4114 51.3303 17.2963 51.7087 16.2716C52.0643 15.3161 52.2477 14.844 52.2707 14.6829C52.4542 13.3243 51.4565 11.9888 50.3441 10.5152C49.8624 9.87048 49.484 9.46753 49.312 8.70768C49.1514 8.01691 49.312 7.63698 49.312 7.07285C49.3349 5.43803 48.1881 4.14859 47.9243 3.86077C46.445 2.20291 44.2317 2.0072 43.1652 1.91509C42.2477 1.8345 42.0413 1.96114 40.2294 1.84602C39.0941 1.77694 38.5207 1.73089 37.7523 1.56971C36.4565 1.28189 36.3188 1.01709 35.4817 1.01709C35.1147 1.01709 34.0941 1.01709 33.2684 1.6503C32.5459 2.21443 32.7065 2.69797 31.8464 3.36571C31.3418 3.75715 30.8601 3.92984 30.4702 4.068C29.1055 4.54003 28.7042 4.13708 28.062 4.57456C27.4083 5.01205 27.6376 5.57618 26.9152 6.9347C26.3876 7.92481 26.1927 7.77514 25.3441 9.03004C24.4381 10.3655 23.8188 11.2866 23.8074 12.4839C23.8074 13.1056 23.9794 12.8868 24.5069 15.0282C24.8051 16.2371 24.9542 16.8588 24.9771 17.7107C25.0115 18.7699 24.8165 18.9426 24.9083 19.691C25.0688 21.084 25.7569 22.1432 25.9519 22.0856C26.2042 22.0165 25.4932 20.0248 26.3647 19.3341C26.5023 19.2189 26.5253 19.2765 27.0298 18.9887C27.6721 18.6203 27.9932 18.4361 28.1881 18.1713C28.601 17.5841 28.1766 17.1466 28.5665 16.6976C28.8418 16.3752 29.0597 16.594 29.9542 16.1795C30.562 15.8917 30.6537 15.7075 31.078 15.6614C31.4335 15.6269 31.7087 15.719 32.0643 15.8341C33.0276 16.168 32.9702 16.5134 33.5092 16.5825C34.289 16.6976 34.5872 15.9953 35.3899 16.1795C35.8372 16.2716 35.7913 16.5019 36.2271 16.5825C36.8578 16.7091 37.156 16.2716 38.1078 16.0068C38.8876 15.7881 39.5413 15.8341 39.8739 15.8572C40.5734 15.9147 40.5964 16.0874 41.7776 16.4098C43.1078 16.7667 43.2684 16.617 43.7156 16.9279C44.0138 17.1466 44.289 17.6186 44.8165 18.5512C45.4932 19.7485 45.4702 19.8867 45.8257 20.2666C46.0436 20.5084 46.5482 21.038 47.3854 21.2682L47.3624 21.2567Z" fill="#9E7F6A"/>
<path d="M35.5273 16.3752C35.5617 15.8686 35.6764 15.0857 36.1237 14.2453C36.9494 12.6565 38.3599 11.9773 38.8416 11.77" stroke="#824236" stroke-width="0.52" stroke-linecap="round" stroke-linejoin="round"/>
<path d="M27.8669 4.55177C28.5435 4.52874 29.4724 4.42513 30.4931 4.0452C32.3853 3.3314 32.6835 1.88078 34.2087 1.2706C34.9656 0.971267 36.1582 0.775548 37.9931 1.48935" stroke="#824236" stroke-width="0.52" stroke-linecap="round" stroke-linejoin="round"/>
<path d="M39.9312 1.88054C40.9403 1.68482 42.477 1.54667 44.2431 2.00718C45.2981 2.28349 46.8004 2.68644 47.9243 3.99891C48.922 5.18473 49.2431 6.66989 49.3234 7.04981C49.5756 8.25867 49.4266 9.16818 50.1261 10.1928C50.4013 10.5958 50.711 10.8721 50.9289 11.0448" stroke="#824236" stroke-width="0.52" stroke-linecap="round" stroke-linejoin="round"/>
<path d="M51.4681 13.3013C51.9612 14.1647 52.0185 14.8325 51.9726 15.293C51.8924 16.2025 51.3993 16.6285 50.9979 18.01C50.8259 18.6087 50.7456 19.1153 50.6997 19.4491" stroke="#824236" stroke-width="0.52" stroke-linecap="round" stroke-linejoin="round"/>
<path d="M50.1606 20.5543C50.562 20.0592 51.101 19.7945 51.5597 19.9211C52.1216 20.0708 52.328 20.75 52.4427 21.153C52.9358 22.7878 52.0987 24.3535 51.8464 24.7565C51.0322 26.138 49.8166 26.7597 49.2661 27.0015" stroke="#824236" stroke-width="0.52" stroke-linecap="round" stroke-linejoin="round"/>
<path d="M49.1858 24.0427L49.8165 23.1562" stroke="#824236" stroke-width="0.52" stroke-linecap="round" stroke-linejoin="round"/>
<path d="M44.8394 18.3901C44.9082 18.7355 45.0687 19.2536 45.4357 19.7947C46.032 20.6582 46.8118 21.0496 47.1673 21.1993" stroke="#824236" stroke-width="0.52" stroke-linecap="round" stroke-linejoin="round"/>
<path d="M37.7754 15.9724C38.28 15.7767 39.0254 15.5695 39.8855 15.7192C40.8488 15.8918 40.9176 16.3293 41.9612 16.6517C43.4635 17.1237 44.8855 16.6977 45.4703 16.5251C46.0667 16.3408 46.5369 16.1106 46.8694 15.9264" stroke="#824236" stroke-width="0.52" stroke-linecap="round" stroke-linejoin="round"/>
<path d="M32.4884 16.0187C31.8806 15.5581 31.3875 15.466 31.0091 15.5121C30.4013 15.5927 30.1604 16.0187 29.4036 16.364C28.7958 16.6403 28.2109 16.7094 27.7178 16.6979" stroke="#824236" stroke-width="0.52" stroke-linecap="round" stroke-linejoin="round"/>
<path d="M27.1216 6.80811C26.6744 7.41829 26.0436 8.28175 25.2982 9.35245C24.3808 10.6764 24.2317 10.9758 24.117 11.3096C23.9106 11.9198 23.6468 13.1977 24.5872 15.178" stroke="#824236" stroke-width="0.52" stroke-linecap="round" stroke-linejoin="round"/>
<path d="M24.9998 17.5498C24.9081 18.0333 24.8507 18.7011 24.954 19.507C25.1374 20.7849 25.6764 21.6944 26.009 22.178" stroke="#824236" stroke-width="0.52" stroke-linecap="round" stroke-linejoin="round"/>
<path d="M26.5254 19.2422C26.7547 19.1961 27.2135 19.0925 27.6722 18.7356C28.0392 18.4478 28.2456 18.1254 28.3488 17.9297" stroke="#824236" stroke-width="0.52" stroke-linecap="round" stroke-linejoin="round"/>
<path d="M25.2754 23.6401C25.241 23.7668 25.069 24.3424 25.3786 24.9296C25.5506 25.2519 25.78 25.4361 25.9176 25.5282" stroke="#824236" stroke-width="0.52" stroke-linecap="round" stroke-linejoin="round"/>
<path d="M29.7017 22.1895C30.0228 22.4197 30.5732 22.7421 31.3301 22.9148C31.9264 23.0529 32.454 23.0414 32.8095 23.0069" stroke="#824236" stroke-width="0.52" stroke-linecap="round" stroke-linejoin="round"/>
<path d="M40.4128 23.0875C40.8257 23.1105 41.5482 23.0875 42.3509 22.7421C42.9587 22.4888 43.383 22.1434 43.6583 21.8901" stroke="#824236" stroke-width="0.52" stroke-linecap="round" stroke-linejoin="round"/>
<path d="M31.4448 27.6347C31.8882 27.6347 32.2476 27.176 32.2476 26.6101C32.2476 26.0442 31.8882 25.5854 31.4448 25.5854C31.0015 25.5854 30.6421 26.0442 30.6421 26.6101C30.6421 27.176 31.0015 27.6347 31.4448 27.6347Z" fill="#824236"/>
<path d="M42.0642 27.6347C42.5076 27.6347 42.867 27.176 42.867 26.6101C42.867 26.0442 42.5076 25.5854 42.0642 25.5854C41.6209 25.5854 41.2615 26.0442 41.2615 26.6101C41.2615 27.176 41.6209 27.6347 42.0642 27.6347Z" fill="#824236"/>
<path d="M35.883 27.2202C36.0779 27.8074 36.0665 28.2564 36.0091 28.5557C35.9174 29.0623 35.7224 29.258 35.516 30.0869C35.4243 30.4899 35.3784 30.6971 35.4128 30.9389C35.5045 31.48 35.9403 31.8369 36.1582 31.9865" stroke="#824236" stroke-width="0.52" stroke-linecap="round" stroke-linejoin="round"/>
<path d="M39.0138 36.1544C38.3486 36.0853 37.6147 36.0393 36.8349 36.0278C36.0436 36.0163 35.2982 36.0393 34.6216 36.0969" stroke="#824236" stroke-width="0.52" stroke-linecap="round" stroke-linejoin="round"/>
<path d="M27.4312 27.6348C27.4197 28.3946 27.4427 29.6265 27.7294 31.0886C27.9473 32.1708 29.1514 38.2496 34.2087 40.7825C34.9427 41.1509 35.906 41.6344 37.2477 41.692C41.617 41.8992 44.6216 37.3862 44.9885 36.822" stroke="#824236" stroke-width="0.52" stroke-linecap="round" stroke-linejoin="round"/>
<path d="M47.8671 29.7646C48.1194 31.6182 47.9589 33.0343 47.7639 33.9784C47.5002 35.2563 47.1217 36.0161 46.9038 37.6394C46.7548 38.7562 46.7662 39.6887 46.8006 40.2759" stroke="#824236" stroke-width="0.52" stroke-linecap="round" stroke-linejoin="round"/>
<path d="M47.1445 36.3619C47.3854 36.2467 47.9014 36.028 48.4289 36.2122C48.945 36.3964 49.1973 36.8684 49.3578 37.1908C50.1262 38.6875 50.7684 40.2993 51.0665 41.0591" stroke="#824236" stroke-width="0.52" stroke-linecap="round" stroke-linejoin="round"/>
<path d="M29.8966 36.7188C29.7131 36.8109 29.4264 36.9605 29.1397 37.2253C28.509 37.801 28.3943 38.3881 27.7062 39.8042C27.4998 40.2302 27.3163 40.564 27.2017 40.7828" stroke="#824236" stroke-width="0.52" stroke-linecap="round" stroke-linejoin="round"/>
<path d="M31.8579 47.2643C31.5941 47.3334 31.101 47.5176 30.8487 47.9666C30.6194 48.3695 30.6652 48.8185 30.6882 49.1409C30.7455 49.7741 30.9634 50.0158 30.8029 50.3958C30.7799 50.4418 30.6538 50.7296 30.4129 50.7872C30.0689 50.8678 29.7019 50.4533 29.5529 50.2806C28.6469 49.2445 27.4772 43.845 27.2593 42.8203" stroke="#824236" stroke-width="0.52" stroke-linecap="round" stroke-linejoin="round"/>
<path d="M40.562 48.7036C40.7799 48.6921 41.101 48.7036 41.4221 48.8648C42.0299 49.1526 42.2593 49.7628 42.546 50.4306C43.2226 51.9963 43.5551 52.7792 43.7501 52.8483C44.3005 53.067 45.7455 51.6624 49.7363 44.1445" stroke="#824236" stroke-width="0.52" stroke-linecap="round" stroke-linejoin="round"/>
<path d="M47.9244 38.7563C47.2822 40.2991 46.4679 41.3467 45.7569 42.072C44.0941 43.7529 42.7523 43.8335 40.9519 45.572C39.8739 46.6081 39.312 47.5752 38.6468 48.738C36.0436 53.251 35.2867 58.9844 35.0688 61.1258" stroke="#824236" stroke-width="0.52" stroke-linecap="round" stroke-linejoin="round"/>
<path d="M29.8394 38.3306C29.8623 39.2401 30.0343 41.0131 31.1123 42.8206C31.4449 43.3732 32.5916 45.3074 33.9334 45.8024C34.0825 45.86 34.5412 46.0096 34.9196 46.4126C35.2981 46.8155 35.4127 47.2645 35.4701 47.4603C35.7109 48.3468 36.1467 49.7744 36.6972 51.6279" stroke="#824236" stroke-width="0.52" stroke-linecap="round" stroke-linejoin="round"/>
<path d="M52.3052 41.4619C54.9199 42.9356 57.1676 43.8221 58.7501 44.3632C61.1813 45.1921 63.4405 45.6641 66.7318 47.2644C67.9359 47.8516 68.9221 48.4042 69.851 49.4173C71.0896 50.7758 71.6286 52.2725 71.8694 53.205" stroke="#824236" stroke-width="0.52" stroke-linecap="round" stroke-linejoin="round"/>
<path d="M25.3668 42.3945C24.6443 42.7169 23.532 43.1774 22.1214 43.6264C18.532 44.7777 17.3622 44.4784 14.1856 45.4339C11.9379 46.1017 10.0113 46.6888 8.13059 48.3006C6.22692 49.9355 5.25215 51.8811 4.74756 53.1475" stroke="#824236" stroke-width="0.52" stroke-linecap="round" stroke-linejoin="round"/>
<path d="M74.7017 64.3957C74.3347 62.9911 73.9678 61.5866 73.6123 60.1705C73.165 58.4205 72.7178 56.6821 72.2705 54.9321" stroke="#824236" stroke-width="0.52" stroke-linecap="round" stroke-linejoin="round"/>
<path d="M0.29834 64.1653C0.929074 63.0716 1.58274 61.7591 2.16761 60.2394C2.78687 58.6621 3.19972 57.2 3.48641 55.9336" stroke="#824236" stroke-width="0.52" stroke-linecap="round" stroke-linejoin="round"/>
</svg>
