<svg width="148" height="96" viewBox="0 0 148 96" fill="none" xmlns="http://www.w3.org/2000/svg">
<mask id="mask0_622_17623" style="mask-type:luminance" maskUnits="userSpaceOnUse" x="0" y="0" width="148" height="96">
<path d="M147.677 0H0V95.99H147.677V0Z" fill="white"/>
</mask>
<g mask="url(#mask0_622_17623)">
<path d="M54.4011 33.3042C54.5078 35.0346 54.6026 36.4213 54.01 38.0095C53.7967 38.5784 53.6663 38.7206 51.3789 42.9518C51.1063 43.4615 50.6085 44.4096 50.9877 45.0971C51.1774 45.4408 51.5211 45.5949 51.5804 45.6186C52.8604 46.1756 54.5552 44.2437 55.2308 44.7652C55.5389 45.0022 55.3493 45.5356 55.7523 45.7371C55.9182 45.82 56.096 45.8082 56.7005 45.6541C57.5182 45.4408 57.9331 45.3341 58.1701 45.2037C58.3123 45.1326 58.8338 44.8363 59.4501 44.0185C60.4694 42.6792 60.742 41.2688 60.8961 40.4392C61.0028 39.8821 61.145 39.0288 61.0502 37.9266C60.979 37.1443 60.8487 36.9902 60.7657 35.9828C60.7302 35.5561 60.7302 35.3547 60.7183 33.9324C60.7183 32.6761 60.7183 32.0479 60.7065 31.9294C60.6353 30.7323 60.3746 30.0805 60.0901 28.9782C59.782 27.7693 59.6279 26.3589 59.3198 23.5263C59.1538 22.0211 59.1301 21.4522 58.9049 20.3499C58.6916 19.3188 58.419 18.4773 58.1938 17.8373C57.9212 17.0787 57.6842 16.4032 57.1982 15.5617C57.0916 15.372 56.6175 14.5661 55.7997 13.6298C55.2426 13.0016 54.7567 12.4446 53.9389 11.9112C52.9789 11.2831 52.1137 11.0342 51.2366 10.7971C50.49 10.5838 50.1344 10.5838 50.004 10.5838C49.6485 10.5838 49.5536 10.5838 49.2218 10.6075C48.8307 10.6431 48.6529 10.7853 48.1907 10.6549C48.0958 10.6312 47.9655 10.2638 47.2188 10.1571C46.164 9.9912 45.6425 9.90824 45.0973 9.88453C44.955 9.88453 44.3269 9.83713 43.5565 9.88453C43.2957 9.89639 41.7076 10.0031 40.0957 10.5483C38.0927 11.2357 36.8364 12.3853 34.3119 14.6846C33.743 15.2061 33.0318 15.8817 32.2733 16.8417C31.6689 17.6002 31.3726 17.9795 31.0881 18.5484C30.4836 19.7573 30.6377 20.3618 29.9029 21.8314C29.6066 22.4122 29.6184 22.2581 29.334 22.8152C28.7532 23.9411 28.6703 24.6759 28.2555 26.2997C27.9355 27.5323 27.9473 27.2597 27.5799 28.6227C27.2362 29.8908 27.1769 30.3175 26.7739 32.1546C26.0273 35.4969 25.8613 35.6984 25.7902 36.9073C25.6836 38.5192 25.8969 39.4673 25.9799 39.8347C26.2406 40.937 26.6554 41.6837 26.9991 42.2763C27.5088 43.1652 27.8762 43.5089 28.2199 43.7341C28.5162 43.9237 28.8955 44.1726 29.3577 44.1133C29.891 44.0541 30.0096 43.6511 30.4244 43.6985C30.8037 43.7459 30.7918 44.0896 31.3489 44.3859C31.657 44.54 31.9178 44.5756 32.4392 44.6467C33.0081 44.7178 33.2926 44.7534 33.5059 44.6111C33.8615 44.3741 33.7311 43.9474 34.0037 43.8407C34.2882 43.7341 34.5726 44.137 35.3786 44.6467C35.9593 45.0141 36.5045 45.3578 36.8601 45.1682C37.1682 45.0022 37.1919 44.4926 37.2038 44.3148C37.2986 42.1222 35.6156 34.5369 35.9119 29.8316C36.0541 27.6508 35.4615 26.1456 39.5031 21.4759C41.6009 19.0462 42.9876 17.9558 44.7773 17.7543C46.5314 17.5528 48.1077 18.264 48.7477 18.5603C49.4707 18.8921 50.9877 19.6032 52.1018 21.227C52.9433 22.4596 53.1685 23.6448 53.4056 24.8893C53.6545 26.2404 53.5004 26.4893 53.6545 28.3027C53.8915 31.0405 54.3182 31.2183 54.4486 33.3042H54.4011Z" fill="#9E7F6A"/>
<path d="M108.707 26.7268C108.968 25.7431 108.992 25.0912 108.992 25.0912C109.051 23.3134 109.513 22.4601 109.513 19.8052C109.513 17.6955 109.3 16.7474 108.98 15.9059C108.423 14.4125 108.032 14.1043 107.522 13.571C107.261 13.2984 107.759 13.2154 107.795 12.5636C107.807 12.3384 107.83 12.0184 107.653 11.7221C107.451 11.3784 107.107 11.2598 106.621 11.0702C105.507 10.6554 104.95 10.4183 104.844 10.3472C104.31 9.99167 104.429 9.81389 103.575 9.04351C103.161 8.66424 102.9 8.4272 102.473 8.20201C101.94 7.91756 101.478 7.8346 100.731 7.70422C100.02 7.57385 99.4746 7.55015 99.0716 7.5383C98.5738 7.51459 98.5146 7.53829 97.2701 7.55015C95.8479 7.57385 95.8005 7.55015 95.3264 7.5857C94.9234 7.62126 94.3427 7.68052 93.6078 7.89386C93.1693 8.02423 92.6834 8.16645 92.1026 8.51017C91.9248 8.61683 91.5456 8.90128 90.787 9.49389C90.4907 9.71908 90.3722 9.81389 90.23 9.96797C89.9455 10.2524 89.8981 10.3946 89.6848 10.5487C89.4003 10.7502 89.1159 10.7858 88.9263 10.8095C88.547 10.8569 88.3218 10.7739 87.4922 10.525C86.7218 10.2998 86.3425 10.1932 86.1055 10.1695C85.9869 10.1695 85.4536 10.1339 84.8136 10.3591C84.6951 10.3946 84.4106 10.5013 83.735 10.9517C82.7987 11.5799 82.3247 11.888 82.0046 12.4214C81.815 12.7414 81.7439 13.0377 81.6017 13.6303C81.3765 14.5547 81.4831 14.7918 81.2935 15.6451C81.1276 16.4155 81.0328 16.2496 80.7602 17.257C80.5942 17.897 80.6535 17.8852 80.3454 19.3785C80.1913 20.1134 80.1557 20.2319 80.1439 20.5282C80.1083 21.3223 80.3216 21.9267 80.3691 22.0689C80.7365 23.1119 80.9498 22.8156 81.9098 23.586C82.6684 24.1905 82.8698 24.4512 83.261 24.7357C83.7113 25.0438 83.6284 25.909 84.138 25.5772C85.0506 24.9964 84.5884 23.9653 85.501 21.6897C86.0936 20.2319 86.7455 19.5207 87.0773 19.2007C87.7292 18.5726 88.3218 18.3 88.4403 18.2407C89.3174 17.8378 90.0878 17.8259 90.6804 17.8259C91.7234 17.814 92.5056 18.0274 92.7308 18.0866C98.5146 19.6274 100.743 19.2363 102.343 21.263C102.959 22.0452 103.018 22.5786 104.322 24.4631C105.175 25.6957 105.294 25.672 105.721 26.4542C105.97 26.9283 106.076 27.189 106.408 27.4142C107.001 27.8172 107.961 27.8409 108.399 27.3668C108.482 27.272 108.553 27.1653 108.672 26.7031L108.707 26.7268Z" fill="#9E7F6A"/>
<path d="M84.7305 22.9808C84.2328 23.9645 83.8416 24.249 84.0076 25.0075C84.1853 25.8609 83.7231 26.2994 84.0431 27.0461C84.6713 28.5157 85.0624 30.0684 85.5957 31.5617C86.4372 33.9084 86.0224 33.5529 87.0536 36.6344C87.7173 38.6374 88.5469 40.7471 89.6729 41.3871C89.7914 41.4582 90.1351 41.636 90.4077 42.0271C90.7514 42.5249 90.7633 43.0345 90.787 43.556C90.8699 44.9309 91.0477 44.599 91.1781 46.1635C91.261 47.2894 91.3203 47.965 91.1781 48.8776C91.0596 49.6717 90.8225 50.3591 90.3603 51.7458C89.9929 52.8362 89.9455 52.8006 89.8744 53.1088C89.4714 54.8985 90.7158 56.6407 90.9529 56.9726C92.4818 59.1178 94.0226 58.4304 97.1041 61.1682C97.9812 61.9505 98.5501 62.4601 99.0597 63.3608C99.7471 64.5816 99.6286 65.3401 100.494 66.5965C100.624 66.798 101.667 68.3269 102.212 68.1254C102.829 67.9002 101.809 65.8142 102.781 63.5505C103.516 61.8438 105.069 60.8008 105.602 60.4452C106.787 59.6511 107.273 59.7578 108.257 59.023C109.644 57.9919 110.224 56.5933 110.497 55.977C110.663 55.6096 110.864 54.7444 111.279 53.014C111.576 51.7814 111.635 51.4021 111.469 50.9517C111.315 50.5132 110.876 50.1221 110.011 49.3872C108.897 48.4391 108.636 48.3798 108.115 47.7635C107.641 47.2065 107.404 46.6968 107.202 46.2939C106.562 44.9427 106.455 43.7457 106.408 43.1531C106.325 42.0864 106.444 41.2449 106.515 40.7945C106.681 39.8463 106.823 39.9174 107.155 38.6019C107.605 36.824 107.475 36.2196 108.103 35.6507C108.411 35.3781 108.518 35.4611 109.051 35.0225C109.241 34.8684 109.75 34.4418 110.201 33.7306C110.829 32.7588 110.983 31.8343 111.066 31.2654C111.22 30.3054 111.125 29.6298 111.007 28.7409C110.924 28.1365 110.829 27.8046 110.58 27.4965C110.248 27.1053 109.81 26.9513 109.608 26.892C109.193 26.7498 108.838 26.7498 108.494 26.7616C107.581 26.7735 107.546 27.0224 107.119 26.9276C106.432 26.7616 106.052 25.9912 105.756 25.3631C105.531 24.9009 105.389 24.6164 105.507 24.3082C105.697 23.7868 106.432 23.7038 106.42 23.4312C106.408 23.2179 105.946 23.0875 105.756 23.0282C104.571 22.6608 102.71 21.6652 102.485 20.4919C102.378 19.9467 102.686 19.6622 102.426 19.2711C102.201 18.9393 101.857 18.9867 101.169 18.7259C100.932 18.643 99.996 18.2874 99.3442 17.5289C98.8938 17.0074 99.0597 16.8533 98.4434 16.0236C98.0286 15.4666 97.7915 15.1466 97.3412 14.9451C96.796 14.7081 96.2863 14.8029 95.6582 14.9095C94.9115 15.0399 94.9115 15.194 94.1055 15.3836C93.2522 15.5851 93.1455 15.431 92.0077 15.6207C91.3559 15.7273 90.8936 15.8103 90.3129 16.0473C89.578 16.3555 88.9617 16.6162 88.618 17.2326C88.3336 17.7303 88.4521 18.1096 88.0491 18.3941C87.8239 18.5481 87.741 18.4652 87.2313 18.6785C87.0417 18.7615 86.6861 18.9037 86.3661 19.1763C86.0343 19.4607 85.8446 19.7689 85.7024 20.0415C85.0505 21.2978 85.2639 21.9141 84.7305 22.9571V22.9808Z" fill="#FFF8F5"/>
<path d="M47.598 16.6876C46.7447 16.6402 46.5076 16.261 45.7728 16.095C45.0024 15.9291 44.3979 16.1424 43.4735 16.4625C42.1816 16.9128 41.3401 17.5884 40.7712 18.0506C40.0127 18.6788 39.5386 19.2358 38.8156 20.101C38.1163 20.9425 37.7015 21.547 37.5593 21.7603C37.2156 22.2937 36.8956 22.7796 36.623 23.4196C36.2911 24.2137 36.2911 24.6404 36.1252 25.4937C35.9119 26.5012 35.3785 29.0731 34.3118 29.2508C33.9089 29.322 33.8259 28.9664 32.7829 28.8242C32.0836 28.7294 31.6925 28.8242 31.5266 28.8716C31.3251 28.9308 31.491 28.6819 31.2066 28.9783C31.0051 29.1916 30.2703 29.9027 30.2703 31.0287C30.2703 32.2257 30.2821 32.9368 30.6969 33.7428C31.2066 34.7384 32.0718 35.4021 32.3207 35.5917C32.9014 36.0302 33.3518 36.208 33.6718 36.8006C33.9207 37.2747 33.9207 37.7132 33.9207 37.8673C33.98 39.5148 35.6985 41.4348 36.54 43.6867C37.5593 46.4008 37.4171 49.8972 35.9711 50.7624C35.3667 51.1179 34.7741 50.8809 34.4303 51.3905C34.0274 51.9713 34.4303 52.8365 35.0704 54.318C36.8482 58.4425 36.5637 58.2884 36.9311 58.6559C38.0097 59.7226 39.0289 59.6277 41.6483 61.1567C42.0275 61.37 42.5372 61.69 43.0468 62.2589C43.6513 62.9463 43.5564 63.2308 43.9239 63.5152C44.8483 64.25 46.9343 63.6574 48.1906 62.4485C48.8069 61.8441 48.5817 61.7256 49.6366 59.9951C50.644 58.3596 51.0114 58.1936 51.9477 56.5343C52.5877 55.3965 52.8248 54.7447 52.8603 53.9861C52.884 53.4884 52.9196 52.8602 52.5759 52.2557C52.1018 51.4379 51.3907 51.4854 50.9758 50.715C50.6558 50.1105 50.7625 49.4942 50.8336 49.032C51.3788 45.4289 50.4307 44.6111 51.3433 43.0941C51.8292 42.3 52.4218 41.8852 52.6707 41.6837C53.1803 41.2807 53.4648 40.2733 54.0337 38.2584C54.6026 36.1962 54.8989 35.1295 54.8515 33.9324C54.8278 33.0554 54.4367 33.0672 54.1641 31.5264C53.9981 30.5783 53.8559 28.0301 53.9389 25.0552C53.9744 23.7752 54.1878 23.0167 53.9389 21.4996C53.8085 20.7292 53.6426 20.2077 53.5833 20.0655C52.8959 18.5366 51.9833 17.624 51.5329 17.3514C50.8573 16.9365 50.0158 16.4387 48.9728 16.5099C48.3921 16.5573 48.238 16.7351 47.6099 16.6995L47.598 16.6876Z" fill="#FFF8F5"/>
<path d="M34.6915 52.2681C34.8812 51.7348 35.2367 51.4147 35.2367 51.4147C35.4856 51.1777 35.7108 51.1066 35.9597 50.7629C36.0901 50.5851 36.2323 50.3836 36.1612 50.2295C36.0782 50.0399 35.7345 50.0162 35.1893 49.9925C34.6441 49.9688 34.336 49.9569 33.9448 50.0755C33.7196 50.1466 33.4708 50.3007 32.9967 50.6088C32.5818 50.8696 32.2737 51.071 31.9063 51.391C31.7166 51.557 31.4915 51.7822 31.0529 52.2325C30.3418 52.9555 30.4129 52.92 30.1048 53.2163C29.5122 53.7733 29.4173 53.7496 29.0973 54.1407C28.7536 54.5556 28.801 54.6622 28.5284 54.923C28.244 55.1956 28.0069 55.2311 27.3669 55.4682C26.0513 55.9541 26.1343 56.1082 25.4943 56.2148C25.1743 56.2622 25.198 56.2148 24.1669 56.286C23.8824 56.2978 23.5861 56.3215 23.0172 56.3689C19.8883 56.6297 18.2882 56.7719 16.9015 57.2223C16.3326 57.4 15.7163 57.6015 14.9697 58.0401C14.5311 58.3008 13.583 58.8579 12.777 59.889C11.5207 61.5009 11.2244 63.5157 11.1059 64.3098C11.0229 64.855 10.9992 65.3884 10.7029 66.1232C10.4303 66.8225 10.6199 67.0121 10.3592 67.6995C10.2288 68.0432 10.2525 68.8492 10.1577 69.8566C10.0747 70.6388 9.8377 71.0062 9.89696 72.464C9.93252 73.2581 9.63622 74.3959 9.87326 76.1974C10.0155 77.359 10.134 78.2004 10.1459 78.2597C10.6081 81.5664 8.45101 88.9858 8.54583 91.7355C8.59323 93.1104 7.51469 94.4378 8.54583 95.6349C12.4452 100.162 23.598 103.256 27.1536 104.441C38.662 108.269 41.6487 105.567 69.3944 104.879C71.4567 104.832 75.7471 104.737 78.9472 101.786C81.9576 99.0127 82.4791 95.1371 82.5384 94.6867C83.7354 84.9561 71.9426 74.55 70.7692 68.6832C70.7218 68.4225 70.3307 66.3958 69.7026 63.6224C69.6789 63.5157 69.584 62.449 69.1455 61.2401C69.0151 60.8846 68.8255 60.4342 68.4937 59.9482C68.3633 59.7468 68.1144 59.4031 67.7351 59.0593C67.2255 58.609 66.7277 58.3956 66.5144 58.3127C63.7528 57.1512 62.3661 56.5704 61.2639 55.7171C61.0861 55.5867 60.7424 55.3022 60.209 54.9941C59.7942 54.757 59.2609 54.4489 58.4905 54.283C57.9571 54.1644 57.5068 54.0578 56.926 54.1526C56.5823 54.2 56.4164 54.2948 56.203 54.2C55.9779 54.1052 55.8712 53.9037 55.563 53.1807C55.1482 52.1851 55.1956 52.1733 55.0415 51.9481C54.7571 51.5096 54.4015 51.2844 53.9867 51.0236C53.5482 50.7392 53.2045 50.6207 52.5882 50.3836C52.4933 50.3481 52.1259 50.2651 51.403 50.111C51.2607 50.0755 51.1185 50.0518 51 50.1229C50.7511 50.2888 50.8459 50.8221 50.8459 50.8577C50.9763 51.5807 51.6637 51.6162 52.1141 52.3392C52.5526 53.0503 52.4222 53.8681 52.3274 54.4133C52.197 55.243 51.8415 55.8 51.4978 56.3334C51.0355 57.0563 50.7748 57.1749 49.8148 58.2534C48.7718 59.4268 48.9851 59.3793 48.274 60.1142C47.7407 60.6594 47.1244 61.1572 45.9154 62.1172C45.311 62.5913 44.9791 63.3024 44.4932 63.2194C44.2324 63.172 43.9836 62.9468 43.9243 62.8994C43.6872 62.6742 43.6043 62.4609 43.4858 62.2238C43.2013 61.6787 42.7865 61.2638 42.4783 61.0623C42.1109 60.8134 41.8857 60.8609 41.2457 60.6949C40.345 60.4697 39.7049 60.1142 39.3612 59.9245C39.0886 59.7705 38.1523 59.2253 37.299 58.206C36.979 57.8149 36.6945 57.3289 36.1256 56.3571C35.6989 55.6222 35.4501 55.1837 35.1656 54.5437C34.7152 53.5007 34.4663 52.8844 34.7034 52.2444L34.6915 52.2681Z" fill="#2E6A89"/>
<path d="M107.783 47.1237C107.901 46.9934 108.257 47.2304 109.205 47.6097C111.505 48.546 111.943 48.1667 112.678 48.8779C113.401 49.5653 113.105 50.0394 114.041 50.9401C114.148 51.0468 114.645 51.4972 115.428 51.8646C116.565 52.3861 117.253 52.2083 118.639 52.4453C119.765 52.635 120.157 52.8957 121.164 53.2157C123.748 54.0335 124.163 53.2631 126.604 53.8439C128.429 54.2824 129.828 55.0528 130.989 55.6928C132.21 56.3684 133.063 56.9965 133.301 57.1743C134.723 58.241 135.766 59.7225 136.145 60.2914C138.681 64.1907 140.542 73.3406 140.518 73.7198C140.021 80.5585 140.495 81.2103 139.12 84.7186C137.769 88.1912 141.23 99.9722 137.378 102.663C132.281 106.218 118.557 102.485 114.325 101.892C112.334 101.62 112.453 92.6357 98.7754 84.7778C88.7722 79.0295 82.6091 75.4265 83.2729 73.0087C83.6047 71.7879 86.2477 71.4087 91.4152 70.6383C96.2627 69.9153 99.6169 66.3241 100.138 64.4752C100.209 64.2263 101.537 67.6634 101.738 66.1937C101.964 64.5345 102.118 64.1315 102.212 63.8944C102.544 63.1004 102.995 62.5907 103.327 62.2233C103.741 61.7729 103.955 61.6425 105.59 60.4455C106.562 59.7344 107.048 59.367 107.416 59.0588C108.601 58.0395 109.075 57.3877 109.193 57.2099C109.596 56.641 109.845 56.1195 109.976 55.835C110.26 55.2424 110.402 54.792 110.545 54.3772C110.888 53.3105 111.113 52.6231 111.019 51.7461C110.995 51.4972 110.971 51.2957 110.865 51.0468C110.58 50.3831 109.987 50.1105 109.561 49.8497C108.233 49.0082 107.522 47.3726 107.759 47.1119L107.783 47.1237Z" fill="#2E6A89"/>
<path d="M100.482 65.7081C96.9265 56.5465 92.2687 60.3628 90.0049 53.3701C89.6138 52.173 91.3086 50.9523 91.0005 49.7197C90.9294 49.4115 90.0168 49.5182 89.6731 49.5182C87.9308 49.5182 86.8997 53.5834 86.5678 53.6545C83.1781 54.4131 71.6105 58.7035 70.603 63.717C64.677 93.4894 76.3632 109.182 87.113 109.182C97.8628 109.182 102.39 70.6623 100.47 65.6963L100.482 65.7081Z" fill="#2E6A89"/>
<path d="M70.0698 65.4476C70.295 64.2387 70.6387 62.7928 72.0728 60.9438C73.4714 59.1423 75.0714 58.2771 77.4537 57.0208C79.03 56.1912 81.3056 55.16 84.2331 54.3659" stroke="#824236" stroke-width="0.52" stroke-linecap="round" stroke-linejoin="round"/>
<path d="M140.365 73.9687C140.246 73.222 138.338 65.8026 137.935 64.6174C136.833 61.3818 136.027 58.9521 132.625 56.712C131.416 55.9179 129.638 54.7683 127.067 53.9742C124.139 53.0734 122.527 53.3697 118.296 52.5164C116.257 52.1134 115.309 51.8408 114.337 51.5445" stroke="#824236" stroke-width="0.52" stroke-linecap="round" stroke-linejoin="round"/>
<path d="M81.0328 57.4353C81.1513 58.8694 81.4713 60.3865 82.8461 63.7762C84.7188 68.4103 84.778 71.5985 87.2195 73.8386C90.9292 77.2401 93.2878 75.4267 98.242 79.2668C101.679 81.9335 103.327 84.9795 103.67 85.6314C105.495 89.1159 104.903 90.8463 105.685 98.2064C106.787 108.553 108.565 110.675 106.621 114.041C104.974 116.885 102.129 118.071 100.257 118.853C95.753 120.737 88.3573 121.579 83.8061 118.236C74.8223 111.635 81.815 92.3278 77.9038 76.1853C76.6949 71.1837 77.086 65.5658 74.4904 61.1331C74.1822 60.6117 72.9733 58.9879 73.6845 57.4709C73.9926 56.819 75.1067 56.6531 75.7941 56.2027C76.2919 55.8945 79.5275 54.0456 80.6179 54.7449C81.3528 55.219 80.9261 56.096 81.0328 57.4471V57.4353Z" fill="#DCD843"/>
<path d="M91.0956 49.4825C90.7874 49.3995 90.2067 49.2928 89.5311 49.4825C89.3178 49.5417 88.7963 49.7195 88.1326 50.3714C86.8525 51.6395 87.4214 53.2633 86.3192 53.8322C86.011 53.9862 85.7503 53.9862 85.5962 54.2588C85.3829 54.6381 85.6792 55.0648 85.8925 55.6929C86.1533 56.4752 85.9755 56.5937 86.1414 58.1819C86.2244 59.0234 86.3429 59.6041 86.5207 60.5049C87.0659 63.2901 87.5992 64.2857 87.9548 64.8546C88.2155 65.2813 88.7489 66.0872 89.1755 65.9924C89.4007 65.945 89.5192 65.6605 89.7681 65.0205C90.1593 64.0131 90.42 63.2664 90.4911 63.0768C90.9296 61.8679 91.2259 61.0382 92.0082 60.5404C92.1978 60.4219 92.7312 60.1256 93.4067 60.1612C94.1178 60.1967 94.6275 60.5641 95.0542 60.8842C95.469 61.1805 95.7534 61.5005 95.9431 61.7257" stroke="#824236" stroke-width="0.52" stroke-linecap="round" stroke-linejoin="round"/>
<path d="M108.316 34.1099C108.21 35.6625 107.878 36.824 107.593 37.5944C107.262 38.507 107.001 38.8508 106.728 39.9174C106.396 41.1975 106.385 42.1693 106.385 42.4301C106.385 42.5368 106.385 43.6508 106.728 44.8953C107.404 47.4554 109.111 49.3754 109.822 50.1102" stroke="#824236" stroke-width="0.52" stroke-linecap="round" stroke-linejoin="round"/>
<path d="M114.93 53.4288C114.61 52.3266 114.266 51.4377 113.994 50.8095C113.484 49.6243 113.247 49.3517 113.093 49.2095C112.713 48.8302 112.346 48.6643 110.865 48.1665C110.201 47.9413 109.395 47.6806 108.494 47.3961" stroke="#824236" stroke-width="0.52" stroke-linecap="round" stroke-linejoin="round"/>
<path d="M108.494 61.4535C109.336 60.6475 109.952 60.0193 110.379 59.569C110.663 59.2727 110.9 59.0119 111.232 59.0119C111.872 59.0119 112.346 59.9127 112.429 60.0786C112.844 60.8727 112.607 61.2638 112.856 62.6505C112.879 62.7927 113.223 64.6298 113.626 64.618C113.756 64.618 113.828 64.4402 114.1 63.8476C114.705 62.5438 114.728 62.5794 114.823 62.3068C115.238 61.2283 115.001 60.2327 114.906 58.4075C114.871 57.6726 114.835 56.6178 114.906 55.3259" stroke="#824236" stroke-width="0.52" stroke-linecap="round" stroke-linejoin="round"/>
<path d="M95.7057 28.2074C95.7768 28.7052 95.8005 29.4282 95.3975 30.0208C94.9827 30.6371 94.3901 30.7082 94.2716 31.1942C94.2005 31.5023 94.3072 32.012 95.279 32.8416" stroke="#824236" stroke-width="0.52" stroke-linecap="round" stroke-linejoin="round"/>
<path d="M94.2478 38.4841C94.7456 38.6026 95.5752 38.7329 96.5827 38.5907C97.5427 38.4485 98.2657 38.1285 98.716 37.8796" stroke="#824236" stroke-width="0.52" stroke-linecap="round" stroke-linejoin="round"/>
<path d="M107.463 27.6154C107.546 27.485 107.961 26.8213 108.708 26.7146C109.597 26.5961 110.237 27.3665 110.45 27.6154C111.209 28.5161 111.173 29.6302 111.149 30.448C111.126 31.088 111.066 32.9607 109.609 34.5251C108.815 35.3785 108.66 35.3074 108.151 35.4851" stroke="#824236" stroke-width="0.52" stroke-linecap="round" stroke-linejoin="round"/>
<path d="M108.897 30.0567C108.719 30.1396 108.198 30.4241 107.973 31.0285C107.913 31.2063 107.89 31.3604 107.878 31.5026" stroke="#824236" stroke-width="0.52" stroke-linecap="round" stroke-linejoin="round"/>
<path d="M107.309 13.3214C108.577 14.7081 109.075 16 109.312 16.8415C109.762 18.5363 109.549 20.1245 109.099 23.3127C108.968 24.249 108.826 25.0313 108.731 25.5765" stroke="#824236" stroke-width="0.52" stroke-linecap="round" stroke-linejoin="round"/>
<path d="M107.664 11.4848C106.479 11.3307 105.697 10.9277 105.199 10.6077C104.298 10.0151 104.168 9.51732 103.161 8.81805C102.272 8.20174 101.466 7.941 100.944 7.77507C99.356 7.27728 98.0523 7.36024 96.9026 7.44321C95.8004 7.51432 94.5204 7.62099 93.027 8.27285C91.9722 8.73509 91.1899 9.30399 90.6921 9.73066" stroke="#824236" stroke-width="0.52" stroke-linecap="round" stroke-linejoin="round"/>
<path d="M88.5115 11.0698C88.1796 10.8328 87.2078 10.2165 85.8803 10.2757C84.8848 10.3231 84.1736 10.7261 83.7944 10.9395C83.4507 11.1409 82.1943 11.8758 81.7084 13.2743C81.4714 13.9617 81.6373 14.1751 81.3291 15.5262C81.1869 16.1544 81.021 16.664 80.9143 16.984" stroke="#824236" stroke-width="0.52" stroke-linecap="round" stroke-linejoin="round"/>
<path d="M80.1558 20.2673C80.1321 20.6466 80.1558 21.2155 80.4165 21.7962C80.6536 22.3177 80.9617 22.614 81.5899 23.1948C82.5973 24.1311 83.0358 24.2378 83.4744 24.9607C83.7232 25.3637 83.8418 25.7548 83.901 26.0156" stroke="#824236" stroke-width="0.52" stroke-linecap="round" stroke-linejoin="round"/>
<path d="M87.7887 18.5723C87.3264 18.6434 86.7101 18.8094 86.2716 19.2953C85.7501 19.8761 85.8212 20.5161 85.5486 21.405C85.359 22.0213 84.9679 22.8391 84.0908 23.7161" stroke="#824236" stroke-width="0.52" stroke-linecap="round" stroke-linejoin="round"/>
<path d="M93.0745 16.7942C93.2167 16.4979 93.5841 15.8579 94.3308 15.4075C94.4493 15.3364 95.6227 14.6372 96.8434 15.0164C98.1472 15.4194 98.1827 16.6402 99.6879 17.8609C100.601 18.6076 101.572 18.9395 102.26 19.1172" stroke="#824236" stroke-width="0.52" stroke-linecap="round" stroke-linejoin="round"/>
<path d="M102.853 20.9545C103.173 21.3812 103.742 22.033 104.642 22.5427C105.188 22.8508 105.697 23.0286 106.1 23.1353" stroke="#824236" stroke-width="0.52" stroke-linecap="round" stroke-linejoin="round"/>
<path d="M105.555 24.7828C105.626 25.0909 105.792 25.5532 106.147 26.0391C106.396 26.371 106.669 26.608 106.87 26.7621" stroke="#824236" stroke-width="0.52" stroke-linecap="round" stroke-linejoin="round"/>
<path d="M91.2255 15.6681C91.1663 15.5259 90.4789 13.5585 91.6878 11.9703C92.3989 11.034 93.3826 10.7377 93.7382 10.6547" stroke="#824236" stroke-width="0.52" stroke-linecap="round" stroke-linejoin="round"/>
<path d="M89.045 16.9248C88.9383 16.6285 88.5354 15.5618 87.3976 14.8744C86.4731 14.3174 85.5724 14.3292 85.2168 14.3411" stroke="#824236" stroke-width="0.52" stroke-linecap="round" stroke-linejoin="round"/>
<path d="M96.6184 24.1662C97.1636 23.5855 97.7325 23.3603 98.017 23.2655C99.0836 22.9336 100.044 23.2892 100.518 23.467C100.909 23.6092 101.217 23.787 101.419 23.9173" stroke="#824236" stroke-width="0.52" stroke-linecap="round" stroke-linejoin="round"/>
<path d="M90.242 29.8314C90.6151 29.8314 90.9175 29.3803 90.9175 28.8239C90.9175 28.2676 90.6151 27.8165 90.242 27.8165C89.8689 27.8165 89.5664 28.2676 89.5664 28.8239C89.5664 29.3803 89.8689 29.8314 90.242 29.8314Z" fill="#824236"/>
<path d="M99.1665 28.3857C99.5396 28.3857 99.8421 27.9347 99.8421 27.3783C99.8421 26.8219 99.5396 26.3709 99.1665 26.3709C98.7934 26.3709 98.491 26.8219 98.491 27.3783C98.491 27.9347 98.7934 28.3857 99.1665 28.3857Z" fill="#824236"/>
<path d="M85.5959 31.5745C86.1174 33.3641 86.1056 33.5419 86.4493 34.7034C87.3619 37.7375 87.8715 39.4087 89.1753 40.902C90.8701 42.8458 93.0509 43.4858 93.7739 43.6873C97.8984 44.8488 101.312 42.9169 101.964 42.5495C102.722 42.1228 103.291 41.6724 103.67 41.3524" stroke="#824236" stroke-width="0.52" stroke-linecap="round" stroke-linejoin="round"/>
<path d="M88.2627 26.4535C88.4286 26.1691 88.7486 25.7424 89.2938 25.4935C90.0049 25.1616 90.7161 25.3276 91.1546 25.4224C91.4746 25.4935 91.7354 25.6002 91.9013 25.6713" stroke="#824236" stroke-width="0.52" stroke-linecap="round" stroke-linejoin="round"/>
<path d="M75.332 62.3891C75.332 62.3891 81.9099 61.3579 81.9573 61.3816C82.0048 61.4053 84.387 67.2721 83.9248 67.3906C83.8063 67.4262 76.6239 68.3506 76.6239 68.3506L75.332 62.3772V62.3891Z" fill="white"/>
<path d="M27.5446 55.4089C27.1179 55.5511 26.0393 56.2504 25.1978 56.2504C24.06 56.2504 20.86 56.5586 20.0896 56.6771C19.6511 56.7363 18.1103 56.6771 16.368 57.2341C15.1117 57.6489 13.6065 58.6208 12.3739 60.5883C10.8687 63.0061 10.9161 64.7009 10.6909 66.1113C9.97977 70.4492 9.65976 73.8626 9.82569 76.6123C10 79.0002 9.95259 81.538 10 82.0002" stroke="#824236" stroke-width="0.52" stroke-linecap="round" stroke-linejoin="round"/>
<path d="M22.9457 57.4708C22.9457 58.4782 23.2065 59.2486 23.6924 60.7893C26.288 68.9199 30.8748 72.7836 30.8748 72.7836C34.8452 76.1378 37.8793 75.7348 39.7638 79.4208C40.3209 80.4994 40.8779 82.1468 41.0438 82.6327C41.1624 82.9764 42.0394 85.5602 42.5491 88.6299C44.7061 101.762 46.0099 109.715 41.8024 113.697C36.9075 118.319 27.6747 115.368 26.4776 114.977C24.8183 114.444 17.2093 112.014 15.3367 105.981C14.0567 101.857 16.8063 100.363 18.0152 90.4432C18.5723 85.8328 18.4893 81.9335 18.4419 79.9423C18.2997 74.3718 17.6834 73.3051 17.6952 67.1895C17.6952 61.619 18.2049 61.9508 17.8019 59.5804C17.5293 57.9685 16.996 56.1315 17.9086 55.3492C18.1812 55.124 18.8212 55.0529 20.0894 54.9226C21.6775 54.7685 22.4716 54.6974 22.8035 55.0292C23.242 55.4796 22.922 56.1433 22.9339 57.4352L22.9457 57.4708Z" fill="#DCD843"/>
<path d="M70.8046 74.2298C70.9469 73.2579 71.0772 71.8475 70.9587 70.1527C70.8876 69.1097 70.7691 68.8015 70.0817 65.554C69.2402 61.5836 69.1928 61.0147 68.5409 60.0665C67.735 58.8932 66.7749 58.265 65.9808 57.7435C63.6341 56.1909 62.6149 56.7835 60.7185 55.385C60.4222 55.1716 59.6281 54.5435 58.4666 54.2946C58.3126 54.259 57.957 54.1998 57.5066 54.176C56.6059 54.1523 56.7836 54.1286 56.3333 54.2827" stroke="#824236" stroke-width="0.52" stroke-linecap="round" stroke-linejoin="round"/>
<path d="M17.885 62.4962C17.885 62.4962 23.5622 61.6073 23.6096 61.6429C23.657 61.6784 26.6674 67.4504 26.2052 67.5808C26.0867 67.6163 17.731 67.7112 17.731 67.7112L17.8732 62.5081L17.885 62.4962Z" fill="white"/>
<path d="M49.625 16.7236C50.2532 16.9014 51.3791 17.3043 52.3391 18.3118C53.4769 19.5207 53.7377 20.9192 53.9392 22.0926C54.2118 23.6689 53.9155 23.9178 53.8562 27.2482C53.7851 30.5194 54.0458 31.598 54.1525 32.0128C54.5199 33.3995 55.0888 34.4543 55.5392 35.1536" stroke="#824236" stroke-width="0.52" stroke-linecap="round" stroke-linejoin="round"/>
<path d="M49.9805 10.5839C50.9405 10.6906 52.8961 11.0343 54.7095 12.4803C56.1554 13.6299 56.8428 14.9336 57.3525 15.9055C58.3717 17.873 58.6562 19.5085 59.071 22.1041C59.8651 27.0939 59.9125 27.8524 60.6829 33.8733C60.9911 36.22 61.1925 37.7133 60.8607 39.7875C60.6118 41.3638 60.2444 43.4023 58.5495 44.7298C57.5658 45.5002 56.4873 45.749 55.788 45.832" stroke="#824236" stroke-width="0.52" stroke-linecap="round" stroke-linejoin="round"/>
<path d="M51.0945 45.3931C51.5923 45.4879 52.3508 45.5709 53.2753 45.4168C54.3775 45.2272 55.1953 44.7768 55.6338 44.4805" stroke="#824236" stroke-width="0.52" stroke-linecap="round" stroke-linejoin="round"/>
<path d="M51.3905 43.0354C51.1179 44.185 50.8809 45.4058 50.8098 47.0532C50.7387 48.6769 50.8572 50.111 51.035 51.2725" stroke="#824236" stroke-width="0.52" stroke-linecap="round" stroke-linejoin="round"/>
<path d="M36.6708 43.3311C36.8841 44.0778 37.1923 44.7652 37.2041 45.8556C37.2397 48.4512 36.3271 50.4542 35.7463 51.5091" stroke="#824236" stroke-width="0.52" stroke-linecap="round" stroke-linejoin="round"/>
<path d="M33.3877 34.7151C33.4351 35.4499 33.5536 36.4336 33.8381 37.5596C34.0159 38.247 34.407 39.7878 35.3788 41.4352C35.9952 42.49 37.3226 44.7301 40.0841 46.0575C40.9375 46.4723 43.0471 47.4442 45.6072 46.899C47.1717 46.5672 48.1909 45.8205 49.2576 45.0264C50.1821 44.339 52.114 42.7271 53.3822 39.9655C53.8325 38.9937 54.0814 38.1166 54.2355 37.4885" stroke="#824236" stroke-width="0.52" stroke-linecap="round" stroke-linejoin="round"/>
<path d="M48.3568 12.3619C48.3923 12.7056 48.416 13.2271 48.2501 13.8552C48.1197 14.353 47.9182 14.7441 47.7642 15.0049" stroke="#824236" stroke-width="0.52" stroke-linecap="round" stroke-linejoin="round"/>
<path d="M33.7549 24.0123C34.5253 23.87 35.6038 23.5619 36.5994 22.7678C37.2394 22.2581 37.5594 21.7604 37.9031 21.2863C38.5905 20.3381 40.3683 17.8966 42.6202 16.7943C43.3195 16.4506 44.4929 16.0358 46.2233 16.0951" stroke="#824236" stroke-width="0.52" stroke-linecap="round" stroke-linejoin="round"/>
<path d="M48.084 10.762C47.4321 10.1694 45.4054 9.80201 43.7935 9.86127C43.4498 9.87312 42.3239 9.92053 41.1387 10.205C38.6142 10.8213 36.9786 12.2791 35.1534 13.8791C33.7785 15.088 32.2259 16.4866 30.8985 18.7977C30.2822 19.8644 29.8792 21.0378 29.097 23.3608C27.971 26.7031 28.2199 26.5371 26.2525 33.8736C26.0273 34.7151 25.7073 35.8884 25.7073 37.4766C25.7073 38.4603 25.7191 39.8589 26.454 41.4115C27.0821 42.7271 27.9473 43.5686 28.5044 44.0308" stroke="#824236" stroke-width="0.52" stroke-linecap="round" stroke-linejoin="round"/>
<path d="M29.2512 41.0085C29.3223 41.447 29.4764 42.0989 29.8912 42.7863C30.7209 44.1374 32.0009 44.6589 32.4513 44.8249" stroke="#824236" stroke-width="0.52" stroke-linecap="round" stroke-linejoin="round"/>
<path d="M33.0439 43.2008C33.601 43.6868 34.4662 44.3031 35.6277 44.7653C36.4099 45.0734 36.647 45.1446 37.2159 45.2275" stroke="#824236" stroke-width="0.52" stroke-linecap="round" stroke-linejoin="round"/>
<path d="M36.1373 24.9609C36.1373 25.5416 36.078 26.5372 35.5565 27.5802C34.8809 28.955 33.7905 29.7136 33.2691 30.0691C31.989 30.9462 31.2779 30.8395 29.9623 31.9062C29.4645 32.3092 29.109 32.7003 28.8838 32.961" stroke="#824236" stroke-width="0.52" stroke-linecap="round" stroke-linejoin="round"/>
<path d="M32.9253 28.8951C32.8305 28.8358 32.4038 28.6225 31.8705 28.741C31.2898 28.8714 31.0053 29.3099 30.946 29.4047" stroke="#824236" stroke-width="0.52" stroke-linecap="round" stroke-linejoin="round"/>
<path d="M30.6379 32.8771C30.6024 33.1734 30.6024 33.6356 30.8394 34.1334C31.0172 34.5245 31.2661 34.7616 31.4557 34.9512C31.7757 35.2712 32.0957 35.4727 32.3209 35.5912" stroke="#824236" stroke-width="0.52" stroke-linecap="round" stroke-linejoin="round"/>
<path d="M50.9287 50.1342C51.545 50.0749 51.7228 50.0987 52.7184 50.4305C53.3702 50.6438 54.2354 50.9402 54.8755 51.7342C55.3851 52.3743 55.1006 52.5402 55.7525 53.5239C56.2503 54.2824 56.594 54.4365 56.8903 55.1358C57.1036 55.6454 57.1629 56.1195 57.1748 56.4395" stroke="#824236" stroke-width="0.52" stroke-linecap="round" stroke-linejoin="round"/>
<path d="M57.3525 57.6125C57.3762 58.454 57.3525 59.177 57.3051 59.7814C57.1984 61.2155 56.9732 62.057 56.6888 63.1593C56.345 64.4511 56.108 64.9252 55.7287 64.9963C55.4798 65.0437 55.2428 64.8897 55.2191 64.866C54.7332 64.5341 55.0295 63.8467 54.6976 62.9933C54.6502 62.863 54.3065 62.0333 53.5243 61.6659C52.825 61.334 52.1139 61.5592 51.462 61.7607C50.9405 61.9148 50.0042 62.2941 49.0679 63.2304" stroke="#824236" stroke-width="0.52" stroke-linecap="round" stroke-linejoin="round"/>
<path d="M39.5625 62.318C39.527 62.2351 38.9106 60.8128 37.524 60.6232C37.358 60.5995 36.6469 60.5165 35.9832 60.9432C35.4973 61.2513 35.2958 61.6661 34.9165 62.4721C34.4069 63.5506 33.4705 64.2143 33.3165 65.2099C33.2217 65.7788 32.4987 64.2736 32.3564 63.9418C31.3372 61.4528 31.0172 60.0069 29.5712 58.1105C28.9668 57.3164 28.4334 57.0675 28.3149 56.2616C28.0541 54.5075 29.8675 53.5593 30.9223 52.5045C31.6927 51.7223 31.7046 51.5208 32.4039 50.9637C33.3283 50.2289 33.9209 50.0867 34.0869 50.0511C34.8691 49.8852 35.521 50.0511 35.7224 50.1104C36.2439 50.2644 36.1017 50.1815 36.3269 50.3593" stroke="#824236" stroke-width="0.52" stroke-linecap="round" stroke-linejoin="round"/>
<path d="M48.7361 25.2926C49.0442 25.1977 49.4709 25.1029 49.9569 25.1029C50.9761 25.1029 51.7584 25.4703 52.1495 25.6837" stroke="#824236" stroke-width="0.52" stroke-linecap="round" stroke-linejoin="round"/>
<path d="M39.5149 24.0243C40.0601 23.8821 40.5105 23.8584 40.8186 23.8584C41.3046 23.8584 41.8972 23.8703 42.5016 24.2377C42.8809 24.4747 43.1298 24.771 43.2601 24.9725" stroke="#824236" stroke-width="0.52" stroke-linecap="round" stroke-linejoin="round"/>
<path d="M45.7255 29.3217C45.607 29.7957 45.6425 30.1632 45.6899 30.3765C45.761 30.6965 45.9033 31.0047 46.0336 31.2891C46.1996 31.6565 46.247 31.6684 46.2707 31.775C46.3299 32.0476 46.164 32.4743 45.1921 33.1617" stroke="#824236" stroke-width="0.52" stroke-linecap="round" stroke-linejoin="round"/>
<path d="M50.8527 30.5692C50.9776 29.9133 50.8078 29.33 50.4734 29.2663C50.1391 29.2026 49.7668 29.6827 49.6419 30.3386C49.517 30.9945 49.6868 31.5778 50.0212 31.6415C50.3556 31.7051 50.7279 31.225 50.8527 30.5692Z" fill="#824236"/>
<path d="M40.6512 29.2803C40.7761 28.6245 40.6115 28.0421 40.2836 27.9797C39.9556 27.9173 39.5885 28.3983 39.4637 29.0542C39.3388 29.7101 39.5034 30.2924 39.8313 30.3549C40.1593 30.4173 40.5264 29.9362 40.6512 29.2803Z" fill="#824236"/>
<path d="M42.6438 38.0094C42.9757 38.2228 43.4734 38.4835 44.1135 38.6376C45.2868 38.922 46.2705 38.685 46.7328 38.5309" stroke="#824236" stroke-width="0.52" stroke-linecap="round" stroke-linejoin="round"/>
<path d="M70.5202 77.1921C70.2832 78.2588 70.0106 79.9181 70.0461 81.9566C70.0698 83.5922 70.3306 84.9908 70.8521 87.7167C71.658 91.9835 71.9187 91.9953 71.9899 93.7494C72.061 95.5865 71.7884 96.0013 71.658 98.9762C71.5632 100.979 71.6106 102.603 71.658 103.67" stroke="#824236" stroke-width="0.52" stroke-linecap="round" stroke-linejoin="round"/>
<path d="M9.97956 82.0521C9.6477 83.8773 9.41066 85.3588 9.25658 86.3781C8.54545 91.0359 8.85361 90.4315 8.5336 91.5337C8.09507 93.0152 7.57358 94.0108 8.03581 95.1249C8.29656 95.7649 8.75879 96.1323 9.05509 96.3694C11.1174 97.9931 14.1278 97.4242 14.91 97.2583" stroke="#824236" stroke-width="0.52" stroke-linecap="round" stroke-linejoin="round"/>
<path d="M23.2542 77.6665C23.8823 76.8368 25.0794 77.4532 28.6113 77.382C30.4365 77.3465 31.4321 77.1569 31.9417 77.8206C32.2736 78.2472 32.2143 78.7924 32.1551 79.3376C31.6928 83.96 32.238 83.8533 31.7166 84.7659C30.5432 86.8519 27.3076 88.1911 25.0557 87.0889C23.586 86.3778 23.0171 84.8607 22.9579 84.6948C22.4601 83.3436 23.1001 82.7866 23.1001 79.551C23.1001 78.2235 22.9934 77.9983 23.2423 77.6665H23.2542Z" stroke="#824236" stroke-width="0.52" stroke-linecap="round" stroke-linejoin="round"/>
<path d="M83.3323 82.0279C83.8182 81.1153 85.0983 81.5183 88.5828 80.8901C90.3724 80.5583 91.3324 80.2146 91.9369 80.7835C92.3399 81.1509 92.3636 81.6961 92.3991 82.2531C92.6717 86.8873 93.3236 87.6221 92.9562 88.6058C92.1265 90.8459 89.0213 91.7585 86.6272 91.0355C85.0627 90.5614 84.2568 89.1629 84.1738 89.0088C83.4745 87.7525 83.6167 87.1599 83.0953 83.9717C82.8819 82.6561 83.1427 82.3953 83.3323 82.0279Z" stroke="#824236" stroke-width="0.52" stroke-linecap="round" stroke-linejoin="round"/>
<path d="M140.127 77.9276C140.068 80.6535 139.677 82.7276 139.321 84.138C139.108 84.9914 138.978 85.3232 138.847 86.1292C138.575 87.8122 138.741 88.9026 139.013 91.3797C139.523 95.9901 139.452 96.7012 139.25 97.4479C139.108 97.9694 138.705 99.4746 137.65 100.494C135.647 102.438 131.606 102.295 127.671 100.209" stroke="#824236" stroke-width="0.52" stroke-linecap="round" stroke-linejoin="round"/>
<path d="M99.5933 63.5512C99.6525 63.5275 99.7592 63.5749 99.9133 63.729C101.016 64.8194 101.549 66.372 101.75 67.9127C101.952 69.4535 101.857 71.018 101.881 72.5706C101.928 75.5455 102.45 78.4967 103.137 81.3886C103.445 82.6923 103.789 83.9842 103.848 85.3235C102.793 84.8257 101.999 83.8775 101.49 82.8345C100.98 81.7915 100.707 80.6419 100.482 79.5041C100.02 77.2048 99.6881 74.8581 99.7711 72.5232C99.8422 70.6387 100.186 68.7424 100.032 66.8698C99.9725 66.1468 99.8422 65.4475 99.6762 64.7364C99.6407 64.5586 99.3918 63.6579 99.5933 63.563V63.5512Z" fill="#1D2A4A"/>
<path d="M41.364 60.3987C41.364 60.3987 41.447 60.3631 41.4944 60.3631C41.684 60.3631 41.8618 60.4698 42.0159 60.5883C42.7152 61.1098 43.3315 61.7616 43.8174 62.4846C43.9359 62.6624 44.0426 62.8402 44.09 63.0535C44.1374 63.3143 44.0071 63.2906 43.9004 63.5395C43.4382 64.6417 42.4663 65.8269 42.4426 67.024C42.4307 67.5455 42.6204 68.0432 42.727 68.5529C42.9996 69.8803 42.727 71.2433 42.6204 72.5944C42.4781 74.4315 42.6678 76.2686 42.6796 78.1175C42.6915 79.9664 42.5255 81.8509 41.7196 83.5102C41.6841 83.5813 41.6366 83.6524 41.5655 83.6761C41.4352 83.7117 41.3522 83.5695 41.3048 83.4391C41.0796 82.8821 40.8544 82.3132 40.6411 81.7443C40.404 81.1042 40.167 80.4642 40.0959 79.7887C39.9892 78.7931 40.2499 77.7975 40.4277 76.8138C40.9492 73.9811 40.7951 71.0892 40.7122 68.2329C40.6648 66.7869 40.6411 65.3291 40.7122 63.8713C40.7359 63.338 40.6766 60.7305 41.364 60.4105V60.3987Z" fill="#1D2A4A"/>
<path d="M90.799 43.5683C91.0835 44.8602 91.3087 46.5313 91.2257 48.3803C91.119 50.4662 90.6805 51.4025 90.2064 52.0307C90.0997 52.1611 90.0879 52.1611 90.0405 52.244C89.2464 53.607 91.3442 56.4989 93.6198 58.1345C94.8524 59.0234 95.1487 58.8338 96.2747 59.5805C98.3962 60.9909 99.4747 63.0768 100.044 64.6058" stroke="#824236" stroke-width="0.52" stroke-linecap="round" stroke-linejoin="round"/>
<path d="M110.876 51.0706C110.983 51.6158 111.09 52.4455 110.924 53.441C110.841 53.9625 110.651 54.6737 110.059 55.7641C109.585 56.6293 108.731 58.1819 107.013 59.533C105.259 60.9079 104.263 60.7656 103.101 62.342C102.687 62.899 102.426 63.4324 102.284 63.7879C101.679 65.2339 101.727 66.5494 101.798 67.2724" stroke="#824236" stroke-width="0.52" stroke-linecap="round" stroke-linejoin="round"/>
<path d="M81.0329 57.435C81.1515 58.8691 81.6374 60.801 83.0122 64.1907C84.8849 68.8249 84.7782 71.5983 87.2197 73.8383C90.9294 77.2398 93.288 75.4265 98.2421 79.2666C101.679 81.9333 103.327 84.9793 103.67 85.6311C105.496 89.1156 104.903 90.846 105.685 98.2062C106.787 108.553 108.565 110.675 106.622 114.041C104.974 116.885 102.13 118.07 100.257 118.853C95.7532 120.737 88.3575 121.578 83.8063 118.236C74.8224 111.635 81.8152 92.3275 77.904 76.185C76.6951 71.1834 77.0862 65.5656 74.4906 61.1329C74.1824 60.6114 73.1157 59.2128 73.815 57.7076C74.1232 57.0558 75.2254 56.5817 75.9247 56.1431C76.4225 55.835 79.5277 54.069 80.6181 54.7565C81.3529 55.2305 80.9263 56.1076 81.0329 57.4587V57.435Z" stroke="#824236" stroke-width="0.52" stroke-linecap="round" stroke-linejoin="round"/>
<path d="M120.749 56.6766C120.749 56.6766 122.254 61.4886 120.18 67.462C118.485 72.3332 115.297 71.6814 108.684 79.2193C105.744 82.5734 103.967 84.6001 102.722 87.8832C101.75 90.4432 101.596 92.4581 102.177 103.587C102.77 114.965 103.09 115.759 103.801 116.589C108.233 121.709 121.875 120.986 126.545 114.42C131.321 107.724 122.563 100.814 125.466 83.5453C125.691 82.1823 126.616 77.0859 127.315 70.1999C127.327 70.0695 127.173 65.8739 126.841 57.4944C126.794 56.1196 126.604 53.8084 125.94 53.4055C124.305 52.398 120.725 51.201 119.86 52.3388C119.173 53.2395 120.121 54.6855 120.737 56.6529L120.749 56.6766Z" fill="#DCD843"/>
<path d="M121.235 62.2474C121.235 62.2474 126.96 61.6785 127.007 61.7141C127.054 61.7497 126.948 67.889 126.96 68.375L120.085 67.4861L121.235 62.2474Z" fill="white"/>
<path d="M120.749 56.6764C120.749 56.6764 122.254 61.4884 120.18 67.4618C118.485 72.333 115.297 71.6811 108.684 79.2191C105.744 82.5732 103.967 84.5999 102.722 87.8829C101.75 90.443 101.596 92.4579 102.177 103.587C102.77 114.965 103.09 115.759 103.801 116.589C108.233 121.709 121.875 120.986 126.545 114.42C131.321 107.723 122.563 100.814 125.466 83.5451C125.691 82.1821 126.616 77.0857 127.315 70.1996C127.327 70.0693 127.173 65.8736 126.841 57.4942C126.794 56.1194 126.829 53.2512 125.395 53.0497C123.155 52.7415 120.737 51.2008 119.86 52.3386C119.173 53.2393 120.121 54.6853 120.737 56.6527L120.749 56.6764Z" stroke="#824236" stroke-width="0.52" stroke-linecap="round" stroke-linejoin="round"/>
<path d="M52.1021 52.3508C52.2443 52.7538 52.4103 53.3819 52.351 54.1286C52.268 55.219 51.7466 56.0131 50.3006 57.6724C48.1791 60.1258 47.1124 61.3465 46.0813 61.9984C45.0501 62.6502 44.0546 63.0651 43.3197 64.274C42.8812 64.9851 42.7271 65.6725 42.6679 65.9333C42.419 67.1659 42.6797 68.1852 42.7508 68.4933C42.9049 69.1333 42.8219 71.0889 42.6679 75.0238C42.4782 79.7884 42.0753 84.4107 41.8738 86.5085" stroke="#824236" stroke-width="0.52" stroke-linecap="round" stroke-linejoin="round"/>
<path d="M34.5015 51.9116C34.5607 52.3501 34.6792 52.9782 34.8926 53.7131C35.177 54.6731 35.6274 56.1902 36.8482 57.6954C37.5356 58.5369 38.4364 59.651 39.9653 60.2199C40.9253 60.5754 41.7194 60.5636 42.6557 61.3458C43.2009 61.808 43.5328 62.3295 43.6513 62.4955C44.0424 63.1236 44.0068 62.9933 44.0898 63.3844" stroke="#824236" stroke-width="0.52" stroke-linecap="round" stroke-linejoin="round"/>
<path d="M22.9457 57.4707C22.9457 58.4781 23.2065 59.2485 23.6924 60.7893C26.288 68.9198 30.8748 72.7836 30.8748 72.7836C34.8452 76.1377 37.8793 75.7348 39.7638 79.4208C40.3209 80.4993 40.8779 82.1468 41.0438 82.6327C41.1624 82.9764 42.0394 85.5601 42.5491 88.6298C44.7061 101.762 46.0099 109.715 41.8024 113.697C36.9075 118.319 27.6747 115.368 26.4776 114.977C24.8183 114.444 17.2093 112.014 15.3367 105.981C14.0567 101.857 16.8063 100.363 18.0152 90.4432C18.5723 85.8327 18.4893 81.9334 18.4419 79.9423C18.2997 74.3718 17.6834 73.3051 17.6952 67.1894C17.6952 61.6189 18.2049 61.9508 17.8019 59.5804C17.5293 57.9685 16.996 56.1314 17.9086 55.3492C18.1812 55.124 18.8804 55.3255 20.1486 55.1951C21.7368 55.041 22.4835 54.6973 22.8035 55.0292C23.242 55.4796 22.922 56.1433 22.9339 57.4352L22.9457 57.4707Z" stroke="#824236" stroke-width="0.52" stroke-linecap="round" stroke-linejoin="round"/>
<path d="M61.6787 57.3168C61.6787 57.3168 61.7261 57.7316 61.6787 61.2161C61.655 63.4799 60.932 65.2221 60.2209 66.9644C59.4031 68.9674 58.0756 72.1793 55.0534 74.4668C51.9955 76.7779 50.194 75.8653 45.9036 79.0417C44.1376 80.3454 43.462 81.2224 43.2724 81.4713C41.3761 84.0077 41.2931 86.8403 41.222 88.8789C40.8427 99.9724 40.6649 105.519 40.2501 108.162C39.6457 112.002 39.1242 112.63 39.7642 113.816C42.2294 118.367 55.48 118.853 62.0698 112.263C65.4476 108.885 66.1114 104.618 66.941 99.2139C67.9958 92.4108 66.301 92.1501 66.5499 79.0535C66.5973 76.7305 66.7395 72.2149 66.7395 66.9762C66.7632 58.5138 66.4195 59.9598 66.5499 59.3316C66.704 58.5731 67.024 57.3049 66.3602 56.3686C65.8269 55.6338 64.8787 55.3612 63.7054 55.0412C62.7572 54.7804 62.1646 54.6145 61.7972 54.9227C61.3468 55.3019 61.5602 56.1316 61.6905 57.3286L61.6787 57.3168Z" fill="#DCD843"/>
<path d="M61.5124 62.2951C61.5124 62.2951 66.7273 61.6788 66.7866 61.7025C66.8459 61.7262 66.7273 67.8774 66.7392 68.3634L59.865 67.4745L61.5243 62.2951H61.5124Z" fill="white"/>
<path d="M61.6787 57.3168C61.6787 57.3168 61.7261 57.7316 61.6787 61.2161C61.655 63.4799 60.932 65.2221 60.2209 66.9644C59.4031 68.9674 58.0756 72.1793 55.0534 74.4668C51.9955 76.7779 50.194 75.8653 45.9036 79.0417C44.1376 80.3454 43.462 81.2224 43.2724 81.4713C41.3761 84.0077 41.2931 86.8403 41.222 88.8789C40.8427 99.9724 40.6649 105.519 40.2501 108.162C39.6457 112.002 39.1242 112.63 39.7642 113.816C42.2294 118.367 55.48 118.853 62.0698 112.263C65.4476 108.885 66.1114 104.618 66.941 99.2139C67.9958 92.4108 66.301 92.1501 66.5499 79.0535C66.5973 76.7305 66.7395 72.2149 66.7395 66.9762C66.7632 58.5138 66.4195 59.9598 66.5499 59.3316C66.704 58.5731 67.024 57.3049 66.3602 56.3686C65.8269 55.6338 64.8787 55.3612 63.7054 55.0412C62.7572 54.7804 62.1646 54.6145 61.7972 54.9227C61.3468 55.3019 61.5602 56.1316 61.6905 57.3286L61.6787 57.3168Z" stroke="#824236" stroke-width="0.52" stroke-linecap="round" stroke-linejoin="round"/>
</g>
</svg>
