<svg width="68" height="54" viewBox="0 0 68 54" fill="none" xmlns="http://www.w3.org/2000/svg">
<path d="M19.4074 9.99995H15.9061C15.4178 9.99995 15.022 10.3958 15.022 10.8841V13.0415C15.022 13.5298 15.4178 13.9256 15.9061 13.9256H19.4074C19.8957 13.9256 20.2916 13.5298 20.2916 13.0415V10.8841C20.2916 10.3958 19.8957 9.99995 19.4074 9.99995Z" fill="#EEEEEE" stroke="#848484" stroke-width="0.919526" stroke-miterlimit="10"/>
<path d="M43.1737 11.9632H12.4756C11.114 11.9632 10 13.0595 10 14.4388V40.663C10 42.0246 11.0964 43.1386 12.4756 43.1386H55.4458C56.8074 43.1386 57.9215 42.0423 57.9215 40.663V14.4388C57.9215 13.0772 56.8251 11.9632 55.4458 11.9632H48.3195" fill="#EEEEEE"/>
<path d="M43.1737 11.9632H12.4756C11.114 11.9632 10 13.0595 10 14.4388V40.663C10 42.0246 11.0964 43.1386 12.4756 43.1386H55.4458C56.8074 43.1386 57.9215 42.0423 57.9215 40.663V14.4388C57.9215 13.0772 56.8251 11.9632 55.4458 11.9632H48.3195" stroke="#848484" stroke-width="0.919526" stroke-miterlimit="10" stroke-linecap="round"/>
<path d="M57.9215 23.6337H10V39.2126H57.9215V23.6337Z" fill="#D5D5D5" stroke="#848484" stroke-width="0.919526" stroke-miterlimit="10"/>
<path d="M33.9608 39.9907C40.3284 39.9907 45.4903 34.8288 45.4903 28.4612C45.4903 22.0937 40.3284 16.9318 33.9608 16.9318C27.5933 16.9318 22.4314 22.0937 22.4314 28.4612C22.4314 34.8288 27.5933 39.9907 33.9608 39.9907Z" fill="#EEEEEE" stroke="#848484" stroke-width="0.919526" stroke-miterlimit="10"/>
<path d="M33.9608 36.9491C38.6486 36.9491 42.4488 33.1489 42.4488 28.4612C42.4488 23.7734 38.6486 19.9732 33.9608 19.9732C29.2731 19.9732 25.4729 23.7734 25.4729 28.4612C25.4729 33.1489 29.2731 36.9491 33.9608 36.9491Z" fill="#EEEEEE" stroke="#848484" stroke-width="0.919526" stroke-miterlimit="10"/>
<path d="M33.9606 35.3931C37.789 35.3931 40.8924 32.2896 40.8924 28.4612C40.8924 24.6329 37.789 21.5294 33.9606 21.5294C30.1323 21.5294 27.0288 24.6329 27.0288 28.4612C27.0288 32.2896 30.1323 35.3931 33.9606 35.3931Z" fill="#848484" stroke="#848484" stroke-width="0.919526" stroke-miterlimit="10"/>
<path d="M53.3239 14.9692H49.8226C49.3343 14.9692 48.9385 15.3651 48.9385 15.8534V18.0107C48.9385 18.4991 49.3343 18.8949 49.8226 18.8949H53.3239C53.8122 18.8949 54.2081 18.4991 54.2081 18.0107V15.8534C54.2081 15.3651 53.8122 14.9692 53.3239 14.9692Z" fill="white" stroke="#848484" stroke-width="0.919526" stroke-miterlimit="10"/>
</svg>
