<svg width="390" height="330" viewBox="0 0 390 330" fill="none" xmlns="http://www.w3.org/2000/svg">
<path d="M133.126 61.9551L190.335 84.4491" stroke="#BDB7A4" stroke-width="0.5" stroke-linecap="round" stroke-linejoin="round"/>
<path d="M50.3579 29.4155L127.488 59.7417" stroke="#BDB7A4" stroke-width="0.5" stroke-linecap="round" stroke-linejoin="round"/>
<path d="M-6 7.26221L42.6203 26.3698" stroke="#BDB7A4" stroke-width="0.5" stroke-linecap="round" stroke-linejoin="round"/>
<path d="M134.602 56.412L190.922 78.6033" stroke="#BDB7A4" stroke-width="0.5" stroke-linecap="round" stroke-linejoin="round"/>
<path d="M51.6443 23.7209L127.961 53.7823" stroke="#BDB7A4" stroke-width="0.5" stroke-linecap="round" stroke-linejoin="round"/>
<path d="M-6 1L42.4689 20.1076" stroke="#BDB7A4" stroke-width="0.5" stroke-linecap="round" stroke-linejoin="round"/>
<path d="M39.2339 28.791C39.442 30.7207 40.3122 32.5558 41.6554 33.9557" stroke="#BDB7A4" stroke-width="0.5" stroke-linecap="round" stroke-linejoin="round"/>
<path d="M41.9581 37.2856C41.8824 41.9017 41.8257 46.5367 41.75 51.1528" stroke="#BDB7A4" stroke-width="0.5" stroke-linecap="round" stroke-linejoin="round"/>
<path d="M39.0258 54.0472C34.4665 61.5767 30.872 69.6548 28.318 78.0735C27.5045 80.7599 26.9748 84.1463 29.0937 85.9814C30.2288 86.9652 31.799 87.1922 33.2936 87.3246C36.6421 87.6462 40.0096 87.7598 43.3581 87.6841C46.5743 87.6084 49.9039 87.3057 52.7606 85.8301C54.5957 84.8842 55.6362 84.4869 55.6929 82.0275C55.8064 77.5438 54.293 72.0575 52.6092 67.9333C50.6228 63.0334 48.1823 57.0174 45.4202 52.5148" stroke="#BDB7A4" stroke-width="0.5" stroke-linecap="round" stroke-linejoin="round"/>
<path d="M42.6013 59.7793C45.2877 62.5792 47.0471 66.1737 48.0877 69.9006C49.1282 73.6276 50.1876 77.7139 50.3768 81.5922" stroke="#BDB7A4" stroke-width="0.5" stroke-linecap="round" stroke-linejoin="round"/>
<path d="M38.5905 63.0146C36.2636 68.2929 34.315 73.7225 32.7448 79.2845C32.4231 80.4196 32.1394 81.7439 32.8394 82.7087C33.4447 83.5222 34.542 83.7681 35.5447 83.9006C38.8932 84.3735 43.4337 83.4276 46.8011 83.1817" stroke="#BDB7A4" stroke-width="0.5" stroke-linecap="round" stroke-linejoin="round"/>
<path d="M45.4958 49.6012C45.4769 44.7013 45.458 39.8015 45.4202 34.9016C45.4202 34.5611 45.4202 34.2205 45.5715 33.9178C45.7418 33.6151 46.0445 33.407 46.3472 33.1989C48.7687 31.4774 50.7173 27.164 50.4146 24.2127C50.1119 21.2614 46.0255 16.021 41.6743 18.7074" stroke="#BDB7A4" stroke-width="0.5" stroke-linecap="round" stroke-linejoin="round"/>
<path d="M43.5472 20.3156C44.3039 21.2993 44.985 22.5101 44.7958 24.7614C44.6823 26.2181 44.4742 27.864 43.1877 28.564" stroke="#BDB7A4" stroke-width="0.5" stroke-linecap="round" stroke-linejoin="round"/>
<path d="M125.842 59.0417C125.464 61.4633 126.486 62.5795 127.469 63.6011" stroke="#BDB7A4" stroke-width="0.5" stroke-linecap="round" stroke-linejoin="round"/>
<path d="M127.564 64.8496C127.507 68.2171 127.602 72.7953 127.545 76.1628" stroke="#BDB7A4" stroke-width="0.5" stroke-linecap="round" stroke-linejoin="round"/>
<path d="M126.75 77.9222C123.421 83.4085 120.299 89.8219 118.426 95.9514C117.84 97.9189 117.443 100.378 118.994 101.722C119.826 102.44 120.98 102.592 122.059 102.705C124.499 102.932 126.959 103.027 129.418 102.97C132.445 102.894 138.688 103.235 138.423 99.4513C137.875 91.6948 132.313 76.5033 130.931 77.3168" stroke="#BDB7A4" stroke-width="0.5" stroke-linecap="round" stroke-linejoin="round"/>
<path d="M129.285 82.368C131.348 82.5194 132.104 87.2679 132.861 89.9922C133.618 92.7164 134.847 96.5001 134.98 99.3379" stroke="#BDB7A4" stroke-width="0.5" stroke-linecap="round" stroke-linejoin="round"/>
<path d="M125.918 84.96C124.216 88.8193 122.797 92.7733 121.643 96.8218C121.416 97.6542 121.208 98.619 121.718 99.319C122.153 99.9244 122.967 100.095 123.705 100.189C126.164 100.53 130.553 100.284 132.937 100.284" stroke="#BDB7A4" stroke-width="0.5" stroke-linecap="round" stroke-linejoin="round"/>
<path d="M130.269 75.0277C130.269 71.4521 130.231 67.8765 130.212 64.3009C130.212 64.055 130.212 63.7901 130.326 63.582C130.439 63.355 130.685 63.2036 130.893 63.0523C132.672 61.8037 133.788 58.6632 133.864 56.5065C133.958 53.0066 130.023 51.3418 127.469 52.4958" stroke="#BDB7A4" stroke-width="0.5" stroke-linecap="round" stroke-linejoin="round"/>
<path d="M128.85 53.6499C129.399 54.3688 129.891 55.258 129.759 56.885C129.683 57.9444 128.548 60.2524 127.602 60.7632" stroke="#BDB7A4" stroke-width="0.5" stroke-linecap="round" stroke-linejoin="round"/>
<path d="M54.1794 58.1714C78.1491 65.6063 96.6702 72.625 116.062 79.6438" stroke="#BDB7A4" stroke-width="0.5" stroke-linecap="round" stroke-linejoin="round"/>
<path d="M143.077 88.3463C150.247 90.9381 174.198 99.1866 183.317 102.005" stroke="#BDB7A4" stroke-width="0.5" stroke-linecap="round" stroke-linejoin="round"/>
<path d="M4.19702 42.7527C12.9373 47.0472 23.21 50.0741 32.5179 52.9686" stroke="#BDB7A4" stroke-width="0.5" stroke-linecap="round" stroke-linejoin="round"/>
<path d="M36.3962 96.2351V238.539" stroke="#BDB7A4" stroke-linecap="round" stroke-linejoin="round"/>
<path d="M26.1425 93.7002C26.1425 137.913 25.2344 192.303 25.2344 236.515" stroke="#BDB7A4" stroke-linecap="round" stroke-linejoin="round"/>
<path d="M124.821 113.016V223.291" stroke="#BDB7A4" stroke-linecap="round" stroke-linejoin="round"/>
<path d="M132.445 111.484V185.171" stroke="#BDB7A4" stroke-linecap="round" stroke-linejoin="round"/>
<path d="M65.8333 261.998C67.3278 260.05 69.844 259.293 72.2088 258.631C87.911 254.28 103.613 250.004 119.353 245.804" stroke="#BDB7A4" stroke-width="0.5" stroke-linecap="round" stroke-linejoin="round"/>
<path d="M122.343 10.6295C150.361 25.1399 173.422 36.6423 195.386 48.088" stroke="#BDB7A4" stroke-width="0.5" stroke-linecap="round" stroke-linejoin="round"/>
<path d="M307.118 38.7233C321.08 54.4823 345.674 83.2004 358.633 99.7729" stroke="#BDB7A4" stroke-width="0.5" stroke-linecap="round" stroke-linejoin="round"/>
<path d="M338.05 82.0084C337.615 83.9003 337.445 85.8489 337.577 87.7785" stroke="#BDB7A4" stroke-width="0.5" stroke-linecap="round" stroke-linejoin="round"/>
<path d="M339.45 91.0894C339.375 93.3406 340.68 95.3838 342.099 97.1243C343.518 98.8648 345.164 100.511 345.977 102.611C346.791 104.711 346.507 107.454 344.634 108.702C343.764 109.289 342.666 109.459 341.607 109.573C339.299 109.819 336.953 109.819 334.645 109.592" stroke="#BDB7A4" stroke-width="0.5" stroke-linecap="round" stroke-linejoin="round"/>
<path d="M316.729 58.8903C317.334 62.9956 317.297 67.1954 316.597 71.2818" stroke="#BDB7A4" stroke-width="0.5" stroke-linecap="round" stroke-linejoin="round"/>
<path d="M317.959 76.6736C318.545 80.6843 320.645 84.2788 322.423 87.9111C324.202 91.5624 325.696 95.592 324.996 99.5838C324.902 100.076 324.24 100.643 324.05 100.17" stroke="#BDB7A4" stroke-width="0.5" stroke-linecap="round" stroke-linejoin="round"/>
<path d="M333.075 91.9407C331.675 94.1352 330.294 96.3297 328.894 98.5243" stroke="#BDB7A4" stroke-width="0.5" stroke-linecap="round" stroke-linejoin="round"/>
<path d="M333.358 207.986V298.095" stroke="#BDB7A4" stroke-linecap="round" stroke-linejoin="round"/>
<path d="M339.62 201.384V283.66" stroke="#BDB7A4" stroke-linecap="round" stroke-linejoin="round"/>
<path d="M345.807 215.005C348.001 211.827 351.009 209.235 354.471 207.513" stroke="#BDB7A4" stroke-width="0.5" stroke-linecap="round" stroke-linejoin="round"/>
<path d="M358.16 207.381C364.006 205.432 370.287 204.751 376.416 205.376" stroke="#BDB7A4" stroke-width="0.5" stroke-linecap="round" stroke-linejoin="round"/>
<path d="M357.574 201.403C357.933 196.938 359.806 192.492 363.155 189.541C366.522 186.571 371.441 185.284 375.679 186.741" stroke="#BDB7A4" stroke-width="0.5" stroke-linecap="round" stroke-linejoin="round"/>
<path d="M373.049 179.476C373.144 174.766 377.079 170.414 381.752 169.885" stroke="#BDB7A4" stroke-width="0.5" stroke-linecap="round" stroke-linejoin="round"/>
<path d="M380.105 131.972V165.439" stroke="#BDB7A4" stroke-width="0.5" stroke-linecap="round" stroke-linejoin="round"/>
<path d="M355.171 114.037C356.571 117.121 357.914 118.124 357.12 120.337C356.325 122.551 352.315 121.794 349.969 121.661" stroke="#BDB7A4" stroke-width="0.5" stroke-linecap="round" stroke-linejoin="round"/>
<path d="M353.677 103.065V108.854" stroke="#BDB7A4" stroke-width="0.5" stroke-linecap="round" stroke-linejoin="round"/>
<path d="M359.466 127.053C363.987 125.975 368.849 126.372 373.125 128.151" stroke="#BDB7A4" stroke-width="0.5" stroke-linecap="round" stroke-linejoin="round"/>
<path d="M343.763 243.761C359.201 243.515 374.676 244.366 390 246.296" stroke="#BDB7A4" stroke-width="0.5" stroke-linecap="round" stroke-linejoin="round"/>
<path d="M156.641 8.30249C171.625 16.532 197.789 31.5532 212.394 40.4449" stroke="#BDB7A4" stroke-width="0.5" stroke-linecap="round" stroke-linejoin="round"/>
<path d="M306.702 123.459H306.835C306.872 123.705 306.929 123.988 306.967 124.253C309.805 126.278 312.775 126.221 316.521 125.767C320.702 125.256 324.599 123.326 327.985 120.848C328.969 120.129 329.972 119.259 330.577 118.218C330.464 117.689 330.331 117.159 330.18 116.629C329.196 114.491 328.25 112.335 327.361 110.178C327.947 110.254 328.515 110.348 329.083 110.481C331.655 111.767 333.831 113.735 334.947 116.383C336.234 119.467 336.707 122.815 337.142 126.126C339.904 146.463 342.647 166.782 345.409 187.119C345.579 188.387 345.75 189.654 345.598 190.922C345.069 195.065 341.247 197.865 337.747 200.135C334.323 202.386 322.461 205.262 319.037 207.513L318.81 207.305C318.942 207.154 319.094 206.983 319.226 206.832C319.567 206.435 319.907 205.962 319.813 205.451C319.68 204.751 318.848 204.467 318.167 204.316C314.515 203.502 310.826 202.67 307.099 202.765C298.681 202.973 291.151 207.74 284.114 212.356C280.216 214.91 276.338 217.445 272.441 219.999C272.195 217.162 271.344 214.381 269.963 211.902L270.076 211.845C267.257 206.662 264.438 201.478 261.62 196.276C258.366 190.297 256.474 186.892 254.733 181.595H254.809C254.071 177.376 252.785 173.29 250.969 169.449C256.644 169.884 264.249 172.665 269.49 174.765C276.111 177.414 283.451 178.265 290.508 177.149C295.011 176.449 303.278 175.579 307.837 175.787H308.007C308.234 169.279 308.007 162.658 306.986 156.377C306.324 152.29 305.737 148.166 305.018 144.099C304.413 140.618 303.864 137.137 303.297 133.656C302.862 130.913 302.427 128.15 301.972 125.407C301.481 122.305 302.332 120.697 304.432 118.824L304.489 118.88C304.848 118.597 305.226 118.332 305.605 118.067C305.983 119.845 306.362 121.624 306.759 123.44L306.702 123.459Z" fill="#EDEBEB"/>
<path d="M288.446 34.4665C288.37 35.28 288.219 36.0746 287.822 36.7935C287.67 37.0583 287.481 37.3232 287.254 37.5502C286.611 38.1745 285.703 38.5529 284.852 38.288C284.208 38.0799 283.773 37.607 283.452 37.0205C283.13 36.434 282.941 35.734 282.808 35.0719C282.468 33.3503 282.279 31.5909 282.222 29.8315C282.203 28.8856 282.222 27.9207 282.6 27.0505C282.96 26.2181 283.641 25.537 284.303 24.9127C285.268 23.9857 286.27 23.0965 287.443 22.4533C287.519 22.4155 287.595 22.3777 287.67 22.3209C288.938 21.6777 292.268 21.6398 293.649 21.9993L293.743 22.4155C293.289 22.5101 292.854 22.6993 292.476 23.0209C291.984 23.4371 291.662 24.0236 291.359 24.5911C290.319 26.5208 289.241 28.5261 288.976 30.7017C288.957 30.9098 288.938 31.118 289.07 31.2882C289.184 31.4396 289.373 31.4774 289.562 31.4963C289.297 32.5179 288.938 33.5206 288.465 34.4665H288.446Z" fill="#FAF5F0"/>
<path d="M295.994 27.5612C295.635 28.4504 295.086 29.2639 294.386 29.926L294.273 29.8125C293.043 31.0044 291.322 31.6287 289.619 31.5152C289.6 31.5152 289.581 31.5152 289.543 31.5152C289.354 31.5152 289.165 31.4584 289.051 31.3071C288.919 31.1557 288.938 30.9287 288.957 30.7206C289.241 28.5261 290.3 26.5397 291.34 24.61C291.643 24.0424 291.965 23.456 292.457 23.0397C292.835 22.7181 293.27 22.529 293.724 22.4344C294.803 22.2073 296.07 22.4911 297.186 22.7938L297.905 22.8316C297.829 24.5343 297.262 26.237 296.297 27.6369L295.975 27.5612H295.994Z" fill="#FFF6F3"/>
<path d="M294.405 29.9262C295.086 29.264 295.635 28.4505 296.013 27.5614L296.335 27.637C297.3 26.2182 297.867 24.5344 297.943 22.8318C297.962 22.2453 297.943 21.6778 297.867 21.0913C297.622 19.3508 296.884 17.7049 296.108 16.1157C294.273 12.351 292.211 8.68081 289.941 5.16199H300.403C304.621 10.0429 308.348 16.6076 308.594 22.9831C308.783 27.5425 305.511 31.2694 301.784 33.6342C301.67 33.6909 301.576 33.7666 301.462 33.8423C300.611 34.3531 299.721 34.8071 298.87 35.1666C295.654 36.5287 290.906 37.2854 287.443 37.6638L287.273 37.5314C287.5 37.3044 287.689 37.0584 287.841 36.7746C288.238 36.0557 288.389 35.2612 288.465 34.4477C288.938 33.5018 289.316 32.518 289.562 31.4775C289.581 31.4775 289.6 31.4775 289.638 31.4775C291.341 31.6099 293.081 30.9667 294.292 29.7748L294.405 29.8883V29.9262Z" fill="#FFE580"/>
<path d="M277.757 25.6885C277.89 25.4993 278.022 25.329 278.155 25.1587C278.628 24.5533 279.082 23.929 279.555 23.3237C279.952 22.7939 280.368 22.2453 280.936 21.8859C282.468 20.8643 285.684 21.7156 287.425 22.3399V22.4723C286.271 23.1156 285.268 24.0047 284.303 24.9317C283.641 25.556 282.96 26.2371 282.6 27.0695C282.222 27.9397 282.203 28.9046 282.222 29.8505C282.279 31.6099 282.468 33.3693 282.809 35.0909C282.941 35.753 283.13 36.453 283.452 37.0395L283.3 37.1908C283.073 37.4935 282.827 37.7962 282.6 38.0989C281.863 38.553 280.936 38.6476 280.16 38.5719C279.479 38.5151 278.892 38.307 278.684 38.0989C278.117 37.5692 277.852 36.7936 277.625 36.0557C277.492 35.6206 277.379 35.1666 277.284 34.7314C276.83 32.7829 276.679 30.7775 276.792 28.7911C276.83 28.11 276.906 27.41 277.171 26.7857C277.322 26.4074 277.549 26.0479 277.795 25.7074L277.757 25.6885Z" fill="#FAF5F0"/>
<path d="M306.835 123.44H306.702C306.305 121.643 305.927 119.864 305.548 118.086C302.786 105.108 300.213 93.0192 294.992 78.3007L295.238 77.9412C294.348 76.7493 292.986 75.8223 291.53 75.6332L291.567 75.3494C287.197 74.1575 283.224 71.5089 280.462 67.9145C280.216 67.8009 279.952 67.6874 279.687 67.5928C277.965 64.8497 275.714 61.8227 273.141 58.9093C272.498 57.7742 272.044 56.5634 271.798 55.2959C270.133 51.8527 268.146 48.5609 265.895 45.4772C265.101 44.3989 264.23 43.1692 264.438 41.8449H264.571C264.533 41.4665 264.533 41.0882 264.552 40.7098C265.441 40.8044 266.349 40.8233 267.238 40.7855C268.241 40.7476 269.244 40.672 270.227 40.5584C270.587 41.0314 270.984 41.4665 271.4 41.8827L271.363 41.9206C273.463 43.9259 275.392 46.1205 277.114 48.4663C277 47.6907 277 46.915 277.095 46.1394C277.303 44.3989 277.36 42.6584 277.284 40.9179C277.246 40.5206 277.208 40.1233 277.208 39.7071C278.192 39.5179 279.176 39.3098 280.16 39.1206L280.198 38.572C280.973 38.6477 281.881 38.5342 282.638 38.0991C282.865 37.7964 283.111 37.4937 283.338 37.191L283.489 37.0396C283.811 37.6261 284.265 38.0991 284.889 38.3072C285.741 38.572 286.649 38.2126 287.292 37.5693L287.462 37.7018C290.924 37.3234 295.673 36.5477 298.889 35.2045C299.759 34.8451 300.629 34.391 301.481 33.8802C301.67 34.1451 301.84 34.41 302.01 34.6559C308.405 44.1719 310.24 56.2986 311.28 67.782C311.734 69.6739 312.189 71.5846 312.643 73.4765C318.488 85.3572 322.329 97.9947 327.361 110.216C328.25 112.392 329.196 114.548 330.18 116.667C330.331 117.197 330.464 117.727 330.577 118.256C329.972 119.297 328.969 120.167 327.985 120.886C324.599 123.383 320.702 125.313 316.521 125.805C312.775 126.259 309.805 126.297 306.967 124.291C306.929 124.026 306.872 123.743 306.835 123.478V123.44Z" fill="#FAF5F0"/>
<path d="M227.775 247.45C228.588 246.504 229.383 245.539 230.158 244.537L230.083 244.48C233.507 239.391 236.931 234.302 240.355 229.232C240.488 229.042 240.601 228.853 240.734 228.664C241.812 227.056 242.909 225.448 244.366 224.18C247.242 221.664 251.158 220.832 254.904 220.075C257.174 219.621 259.501 219.148 261.809 219.394C262.074 219.432 262.358 219.47 262.622 219.526C264.647 219.924 266.595 220.964 267.655 222.724L267.844 223.007C266.652 223.783 265.479 224.559 264.306 225.334C263.644 225.694 263.02 226.11 262.452 226.583C272.441 224.483 282.203 221.229 291.454 216.916C295.143 215.194 298.832 213.283 302.843 212.659C303.902 212.489 305.019 212.432 305.983 212.867C306.967 213.302 307.724 214.362 307.497 215.402C307.27 216.348 306.362 216.954 305.529 217.445C302.805 219.054 300.081 220.643 297.319 222.194C297.319 222.591 297.357 222.97 297.394 223.348H297.281C297.3 225.164 296.373 226.734 295.162 228.115C295.124 229.061 294.954 230.026 294.708 230.953L294.576 230.915C292.135 236.175 287.822 240.148 283.073 243.61C283.035 243.685 282.998 243.761 282.96 243.837L283.149 243.931C281.314 248.226 277.795 251.612 273.765 254.034C273.349 254.28 272.933 254.526 272.498 254.753C269.49 256.38 266.274 257.534 263.02 258.555C261.355 259.066 259.671 259.539 257.987 260.012C252.747 261.469 247.526 262.944 242.285 264.401L242.153 264.06C241.945 264.136 241.736 264.212 241.547 264.306C240.828 264.59 240.109 264.912 239.41 265.233L239.485 265.404C230.121 273.69 214.607 281.844 203.162 289.43C202.216 290.054 201.289 290.697 200.4 291.303C199.151 291.814 197.978 292.57 196.994 293.497C192.965 286.46 191.073 273.898 190.959 268.412C191.205 268.109 191.489 267.863 191.83 267.655C191.905 267.617 191.981 267.56 192.057 267.522C193.041 266.936 194.043 266.368 195.027 265.801C203.181 261.185 211.448 257.25 219.545 252.426C221.134 251.48 222.705 250.534 224.294 249.588C225.467 248.888 226.621 248.207 227.794 247.507L227.775 247.45Z" fill="#FFF6F3"/>
<path d="M277.171 39.2151H276.66C274.541 39.8583 272.384 40.3124 270.19 40.5583C269.187 40.6718 268.203 40.7475 267.201 40.7853C266.312 40.8043 265.404 40.7853 264.514 40.7097C263.228 40.5583 261.979 40.2367 260.882 39.5556C257.212 37.3043 256.606 32.2721 256.72 27.9587C256.909 20.0697 258.158 12.1807 260.409 4.61335L260.769 4.65119C263.398 4.51876 266.009 4.36741 268.639 4.23499C267.239 11.4429 266.104 18.6886 265.252 25.9722C265.12 27.0317 265.006 28.0911 265.252 29.1316C265.479 30.1532 266.122 31.1559 267.106 31.5342C267.844 31.818 268.676 31.7423 269.471 31.8369L269.509 31.7234C269.944 31.8748 270.417 31.9694 270.871 31.9694C270.795 32.5369 270.757 33.1045 270.72 33.6909C270.663 34.7314 270.701 35.9044 271.439 36.6422C272.063 37.2854 273.084 37.3989 273.955 37.1719C274.825 36.926 275.563 36.3773 276.225 35.7909L276.603 35.8855C276.792 35.4882 277.019 35.1098 277.284 34.7504C277.379 35.2044 277.492 35.6395 277.625 36.0747C277.852 36.8125 278.136 37.5881 278.684 38.1178C278.911 38.3259 279.479 38.534 280.16 38.5908L280.122 39.1394C279.138 39.3475 278.155 39.5367 277.171 39.7259C277.171 39.5556 277.171 39.4043 277.171 39.234V39.2151Z" fill="#FFE580"/>
<path d="M243.799 112.089L243.874 112.221C249.455 110.254 252.728 104.881 255.036 99.4136C257.344 93.9462 259.028 88.2139 261.109 82.6708C261.96 80.4195 263.02 78.1493 264.836 76.5413C266.633 74.9332 269.338 74.1386 271.533 75.1413V75.5197C272.441 75.4818 273.33 75.5953 274.182 75.8602C274.711 76.0116 275.241 76.2386 275.676 76.598C276.073 76.9386 276.376 77.3737 276.679 77.7899C277.757 79.379 278.892 81.0628 279.025 82.9546C279.781 86.6437 278.987 91.7706 277.776 95.6678C277.795 98.1082 276.584 100.416 275.998 102.819C275.6 104.389 275.487 105.997 275.165 107.586C274.428 111.313 272.611 114.738 270.814 118.086H270.776C270.587 118.521 270.417 118.956 270.228 119.41C269.811 120.413 269.395 121.435 269.017 122.456H268.998C266.255 129.532 255.887 139.01 248.509 140.694C245.445 141.394 242.209 140.599 239.485 139.01C238.785 140.618 238.066 142.226 237.366 143.834L237.083 143.721C236.269 145.745 235.626 147.826 235.153 149.964C234.642 152.253 234.339 154.599 234.245 156.944C234.264 158.269 234.358 159.612 234.491 160.936C238.747 173.101 244.688 183.884 250.817 194.781C249.531 195.708 248.207 196.597 246.863 197.449C243.591 200.041 236.212 201.932 232.448 202.424L231.899 202.538C225.959 189.465 218.448 177.603 211.505 165.42C207.267 158.004 203.029 148.28 202.538 139.653C203.238 138.707 204.108 137.875 205.073 137.194C205.054 137.156 205.016 137.118 204.978 137.099C205.035 137.042 205.092 136.986 205.148 136.929C207.57 134.413 214.135 126.751 217.502 120.451L217.407 120.394C219.148 117.083 220.359 113.338 219.924 109.611C219.753 108.211 219.659 106.016 219.261 104.654L219.413 104.427C218.543 103.613 217.956 102.497 217.597 101.268H217.559C217.502 100.719 217.483 100.17 217.502 99.6028C217.502 99.5082 217.559 99.3947 217.616 99.3379L217.521 99.2434C220.094 96.5948 223.499 94.911 226.923 93.5111C234.169 90.5409 242.001 88.4788 248.755 84.7329V84.7708C246.088 93.984 240.942 102.478 234.018 109.138C232.694 110.405 231.294 111.616 229.648 112.411C230.272 112.448 230.896 112.467 231.502 112.448V112.354C238.691 110.651 245.123 105.903 248.907 99.546H248.888C250.42 97.7677 251.612 95.7245 252.577 93.5489C252.236 95.5732 251.896 97.5974 251.442 99.6028C250.798 102.441 249.947 105.259 248.396 107.719C247.242 109.516 245.672 111.105 243.78 112.089H243.799ZM271.098 109.762C271.23 109.535 271.703 108.513 271.363 108.438C271.325 108.438 271.287 108.438 271.268 108.438C270.833 108.57 270.171 109.989 270.341 110.33C270.53 110.746 271.003 109.97 271.117 109.743L271.098 109.762ZM258.782 102.119C258.82 101.987 258.839 101.835 258.782 101.703C258.612 101.268 258.328 101.192 258.044 101.324C257.912 101.4 257.76 101.514 257.628 101.665C257.079 102.308 256.569 103.008 256.417 103.859C256.398 103.992 256.379 104.143 256.417 104.276C256.625 104.9 257.496 104.408 257.76 104.105C258.233 103.576 258.612 102.8 258.763 102.119H258.782Z" fill="#FAF5F0"/>
<path d="M275.411 25.6886H277.776C277.53 26.0291 277.303 26.3885 277.152 26.7669C276.887 27.4101 276.811 28.0912 276.773 28.7723C276.66 30.7587 276.83 32.764 277.265 34.7126C277 35.0721 276.773 35.4505 276.584 35.8477L276.206 35.7531C275.525 36.3396 274.787 36.8883 273.936 37.1342C273.065 37.3801 272.063 37.2477 271.419 36.6045C270.682 35.8667 270.644 34.6937 270.701 33.6532C270.738 33.0857 270.776 32.4992 270.852 31.9316C270.947 31.0803 271.079 30.229 271.249 29.3776C271.495 28.129 271.874 26.8047 272.914 26.0858C273.633 25.594 274.503 25.4805 275.373 25.3669L275.411 25.6696V25.6886Z" fill="#FAF5F0"/>
<path d="M260.144 324.959H260.106C263.076 310.467 263.587 277.511 263.436 262.736H263.568C263.398 261.336 263.228 259.955 263.02 258.593V258.517C266.274 257.515 269.49 256.342 272.479 254.715C272.895 254.488 273.33 254.242 273.746 253.996L274.446 254.28C277.738 272.593 269.603 310.127 273.254 326.056H273.444C273.387 326.737 273.33 327.418 273.254 328.099H271.022V328.213C267.049 328.213 263.133 328.213 259.255 328.213C259.576 327.134 259.86 326.056 260.125 324.959H260.144Z" fill="#EDEBEB"/>
<path d="M310.297 213.605C309.37 214.21 308.424 214.797 307.497 215.402C307.724 214.362 306.967 213.302 305.983 212.867C305 212.432 303.883 212.489 302.843 212.659C298.813 213.283 295.143 215.194 291.454 216.916C282.203 221.229 272.441 224.483 262.452 226.583C263.039 226.11 263.663 225.694 264.306 225.334C265.498 224.559 266.671 223.783 267.844 223.007C267.957 222.932 268.071 222.856 268.184 222.78C269.603 221.853 271.003 220.926 272.422 219.999C276.319 217.445 280.198 214.891 284.095 212.356C291.132 207.74 298.662 202.973 307.081 202.765C310.808 202.67 314.516 203.503 318.148 204.316C318.848 204.467 319.68 204.751 319.794 205.451C319.888 205.962 319.548 206.435 319.207 206.832C319.075 206.984 318.942 207.154 318.791 207.305C317.107 209.197 315.121 210.786 312.926 212.035C312.737 212.129 312.548 212.224 312.378 212.318C311.659 212.697 310.978 213.132 310.297 213.567V213.605Z" fill="#999795"/>
<path d="M260.485 212.394C261.355 214.721 262.074 217.105 262.622 219.508C262.358 219.451 262.074 219.413 261.809 219.375C259.501 219.129 257.174 219.583 254.904 220.056C251.158 220.813 247.242 221.664 244.366 224.162C242.909 225.429 241.812 227.056 240.734 228.645C240.601 228.834 240.488 229.024 240.355 229.213C240.185 227.548 239.882 225.902 239.428 224.313L239.58 224.275C237.65 216.537 234.964 209.367 231.861 202.519L232.41 202.405C236.174 201.913 243.553 200.022 246.826 197.43C248.169 196.597 249.493 195.708 250.779 194.762C254.033 200.532 257.325 206.34 260.466 212.394H260.485Z" fill="#93C4CF"/>
<path d="M248.925 99.5271C245.161 105.903 238.728 110.651 231.521 112.354V112.448C230.896 112.448 230.291 112.448 229.667 112.411C231.293 111.635 232.712 110.405 234.037 109.138C240.961 102.478 246.107 93.984 248.793 84.7707V84.7329C251.158 83.4086 253.409 81.8951 255.452 80.0411L255.604 80.0979C254.052 84.4113 253.371 88.9895 252.615 93.5489C251.65 95.7245 250.458 97.7677 248.925 99.5271Z" fill="#F2C1A9"/>
<path d="M234.226 156.944C234.32 154.599 234.623 152.253 235.134 149.964C235.229 150.096 235.323 150.247 235.399 150.399L235.512 150.323C240.98 154.901 246.466 161.466 249.777 167.898L250.061 167.747C250.344 168.314 250.628 168.882 250.912 169.449C252.728 173.29 254.033 177.395 254.752 181.576H254.677C256.417 186.892 258.309 190.298 261.563 196.276C264.382 201.459 267.201 206.643 270.019 211.846L269.906 211.902C271.306 214.381 272.157 217.162 272.384 219.999C270.965 220.926 269.565 221.853 268.147 222.78C268.033 222.856 267.919 222.932 267.806 223.007L267.617 222.724C266.557 220.964 264.609 219.924 262.585 219.526C262.036 217.105 261.317 214.74 260.447 212.413C257.306 206.359 253.996 200.551 250.761 194.781C244.631 183.884 238.709 173.101 234.434 160.936C234.301 159.612 234.226 158.288 234.188 156.944H234.226Z" fill="#EDEBEB"/>
<path d="M157.247 315.405C164.341 314.081 171.246 311.735 178 309.313C183.089 307.497 204.694 303.354 204.183 297.016L203.219 290.735C203.2 290.281 203.162 289.827 203.162 289.373C214.607 281.787 230.121 273.633 239.485 265.347L239.409 265.177C240.109 264.836 240.828 264.533 241.547 264.25C241.831 265.82 242.001 267.428 242.02 269.036H242.531C243.08 281.882 242.455 315.14 238.936 328.251C210.843 328.326 184.243 328.44 154.542 328.44C155.696 325.243 156.547 321.951 157.077 318.583C157.19 317.524 157.247 316.464 157.247 315.405Z" fill="#EDEBEB"/>
<path d="M242.285 264.363C247.525 262.906 252.747 261.431 257.987 259.974C259.671 259.501 261.355 259.028 263.02 258.517V258.593C263.247 259.974 263.436 261.336 263.606 262.717H263.474C263.606 277.511 263.095 310.467 260.144 324.959H260.182C259.917 326.056 259.633 327.153 259.312 328.232C252.406 328.232 245.653 328.232 238.974 328.27C242.493 315.178 243.117 281.9 242.569 269.055H242.058C242.039 267.466 241.869 265.858 241.585 264.269C241.793 264.193 241.982 264.098 242.19 264.023L242.323 264.363H242.285Z" fill="#93C4CF"/>
<path d="M132.142 314.573C130.761 314.327 129.475 313.627 128.396 312.738C127.129 311.716 126.069 310.429 125.029 309.162L124.764 309.275C121.359 303.922 122.929 295.635 123.307 289.846C123.894 280.974 124.669 272.12 125.615 263.285C128.567 235.796 131.537 208.44 143.172 183.033C146.804 175.106 151.004 163.982 158.098 158.496C161.031 156.226 164.606 155.053 168.144 154.05C172.268 152.877 176.43 151.893 180.63 151.08C181.046 151.288 181.576 151.155 182.03 150.985C182.333 150.872 182.635 150.758 182.938 150.645C184.66 149.964 186.306 149.074 187.819 148.015L187.762 147.939C189.541 146.199 191.868 144.061 194.119 141.98C195.784 140.429 197.411 138.915 198.735 137.629C199.681 136.702 202.84 134.526 205.148 136.91C205.092 136.967 205.035 137.023 204.978 137.08C205.016 137.118 205.035 137.137 205.073 137.175C204.089 137.837 203.238 138.669 202.538 139.634C203.029 148.261 207.267 157.985 211.505 165.401C218.448 177.584 225.959 189.446 231.899 202.519C235.002 209.367 237.688 216.537 239.618 224.275L239.466 224.313C239.92 225.921 240.242 227.567 240.393 229.213C236.969 234.302 233.545 239.391 230.121 244.461L230.196 244.518C229.44 245.502 228.645 246.485 227.813 247.431C226.64 248.131 225.486 248.812 224.313 249.512C222.723 250.458 221.153 251.404 219.564 252.35C211.448 257.174 203.181 261.109 195.046 265.725C194.043 266.293 193.059 266.86 192.076 267.447C192 267.485 191.924 267.523 191.849 267.579C191.527 267.787 191.243 268.052 190.978 268.336C191.092 273.822 193.003 286.384 197.013 293.422C198.016 292.495 199.17 291.757 200.419 291.227C201.308 290.622 202.235 289.998 203.181 289.354C203.181 289.808 203.219 290.262 203.238 290.717L204.202 296.997C204.713 303.316 183.108 307.478 178.019 309.294C171.265 311.697 164.341 314.062 157.266 315.386C153.936 316.01 150.569 316.389 147.182 316.464C142.869 316.54 136.645 316.181 132.18 314.554L132.142 314.573Z" fill="#EDEBEB"/>
<path d="M279.687 67.5927C280.273 68.5197 280.803 69.4088 281.276 70.2602C289.77 85.7354 288.824 104.654 279.214 119.372C275.543 124.991 267.409 132.01 270.795 139.464L270.341 139.766C269.376 138.65 268.714 137.231 268.373 135.794C267.881 133.694 267.976 131.48 268.146 129.323C268.317 127.223 268.544 125.124 268.865 123.024H268.827C268.903 122.815 268.96 122.626 269.036 122.456C269.414 121.434 269.83 120.432 270.246 119.41C270.435 118.975 270.606 118.521 270.795 118.086H270.833C272.63 114.737 274.427 111.313 275.184 107.586C275.506 106.016 275.619 104.389 276.016 102.819C276.603 100.435 277.814 98.108 277.795 95.6676C278.987 91.7515 279.8 86.6435 279.043 82.9544C278.911 81.0626 277.776 79.3599 276.697 77.7897C276.395 77.3546 276.092 76.9194 275.695 76.5978C275.26 76.2384 274.73 76.0113 274.2 75.86C273.349 75.6141 272.441 75.5006 271.552 75.5195V75.1411C269.357 74.1384 266.652 74.933 264.855 76.5411C263.057 78.1491 261.979 80.4193 261.128 82.6706C259.047 88.2137 257.363 93.946 255.055 99.4134C252.747 104.862 249.493 110.235 243.893 112.221L243.817 112.089C245.69 111.105 247.279 109.516 248.433 107.719C250.004 105.278 250.855 102.44 251.479 99.6026C251.933 97.5972 252.274 95.573 252.614 93.5487C253.371 88.9894 254.071 84.43 255.603 80.0977L255.452 80.041C253.409 81.895 251.158 83.4084 248.774 84.7327C242.001 88.4786 234.169 90.5407 226.942 93.5109C223.518 94.9108 220.113 96.6135 217.54 99.2431L217.634 99.3377C217.634 99.3377 217.521 99.508 217.521 99.6026C217.483 100.151 217.521 100.719 217.577 101.267H217.615C217.956 102.497 218.561 103.594 219.431 104.427L219.28 104.654C219.677 106.016 219.772 108.192 219.942 109.61C220.377 113.337 219.167 117.064 217.426 120.394L217.521 120.451C214.153 126.751 207.589 134.412 205.167 136.929C202.878 134.564 199.718 136.721 198.754 137.648C197.429 138.934 195.802 140.447 194.138 141.999C193.57 141.507 193.059 140.939 192.624 140.334C190.24 138.139 189.313 134.545 189.37 131.215C189.389 129.569 189.635 127.867 190.467 126.448C190.505 126.391 190.543 126.315 190.581 126.259C190.24 125.029 190.789 123.629 191.451 122.494C192.113 121.359 192.908 120.299 193.797 119.316C193.967 119.126 194.156 118.956 194.383 118.862L194.308 118.635C195.727 118.105 197.146 117.594 198.394 117.064C199.34 116.837 200.116 116.118 200.627 115.286C201.156 114.454 201.459 113.527 201.762 112.581C201.762 112.562 201.762 112.543 201.781 112.524C203.275 104.881 199.51 97.2756 200.078 89.5948C201.686 67.8386 217.483 39.8394 243.193 44.9284V44.9852C245.255 44.7203 247.355 44.8338 249.379 45.3257C257.817 44.7581 266.614 51.4742 273.179 58.8902C275.752 61.8036 278.003 64.8306 279.724 67.5737L279.687 67.5927Z" fill="#F2C1A9"/>
<path d="M205.205 137.004C205.205 137.004 205.148 136.929 205.111 136.91C202.821 134.545 199.662 136.702 198.697 137.629C197.373 138.915 195.746 140.428 194.081 141.98C191.83 144.061 189.503 146.199 187.725 147.939" stroke="#461412" stroke-width="0.5" stroke-linecap="round" stroke-linejoin="round"/>
<path d="M258.044 101.324C258.328 101.192 258.612 101.267 258.782 101.703C258.839 101.835 258.82 101.986 258.782 102.119C258.631 102.819 258.252 103.575 257.779 104.105C257.514 104.389 256.644 104.9 256.436 104.275C256.398 104.143 256.398 104.011 256.436 103.859C256.587 103.008 257.098 102.308 257.647 101.665C257.779 101.513 257.912 101.4 258.063 101.324H258.044Z" fill="#602B24" stroke="#461412" stroke-width="0.5" stroke-linecap="round" stroke-linejoin="round"/>
<path d="M271.268 108.457C271.268 108.457 271.344 108.457 271.363 108.457C271.703 108.532 271.211 109.554 271.079 109.762C270.946 109.97 270.473 110.746 270.284 110.329C270.133 109.989 270.814 108.57 271.249 108.457H271.268Z" fill="#602B24" stroke="#461412" stroke-width="0.5" stroke-linecap="round" stroke-linejoin="round"/>
<path d="M259.047 92.1865C261.563 92.4325 261.639 92.7162 263.058 93.9459" stroke="#461412" stroke-width="0.5" stroke-linecap="round" stroke-linejoin="round"/>
<path d="M267.806 107.851C267.371 109.062 267.125 110.348 267.276 111.635C267.447 113.167 268.468 114.529 268.468 116.08C268.449 117.953 266.822 119.372 265.29 120.186" stroke="#461412" stroke-width="0.5" stroke-linecap="round" stroke-linejoin="round"/>
<path d="M273.822 99.2433C274.503 99.319 275.165 99.6027 275.695 100.038" stroke="#461412" stroke-width="0.5" stroke-linecap="round" stroke-linejoin="round"/>
<path d="M277.379 79.4924C278.192 80.3438 278.722 81.5545 279.006 82.9734C279.763 86.6625 278.968 91.7894 277.757 95.6866C277.644 96.0649 277.53 96.4244 277.398 96.7839" stroke="#461412" stroke-width="0.5" stroke-linecap="round" stroke-linejoin="round"/>
<path d="M269.073 122.21C269.073 122.21 269.017 122.38 268.979 122.456C266.236 129.55 255.868 139.009 248.49 140.712C245.425 141.412 242.19 140.618 239.466 139.028C238.993 138.764 238.539 138.461 238.123 138.139C235.153 135.964 232.183 134.223 230.215 131.121" stroke="#461412" stroke-width="0.5" stroke-linecap="round" stroke-linejoin="round"/>
<path d="M219.072 116.818C218.713 117.935 218.164 119.164 217.464 120.451C214.097 126.751 207.532 134.412 205.11 136.929C205.054 136.985 204.997 137.042 204.94 137.099C204.638 137.402 204.411 137.629 204.278 137.704" stroke="#461412" stroke-width="0.5" stroke-linecap="round" stroke-linejoin="round"/>
<path d="M253.693 52.4768C259.898 56.2794 263.852 60.0252 268.147 65.89" stroke="#461412" stroke-width="0.5" stroke-linecap="round" stroke-linejoin="round"/>
<path d="M183.581 150.55C183.373 150.588 183.146 150.626 182.919 150.664C182.144 150.796 181.368 150.947 180.592 151.099C176.392 151.912 172.23 152.915 168.106 154.069C164.568 155.072 160.993 156.244 158.06 158.515C150.966 164.001 146.766 175.144 143.134 183.052C131.499 208.459 128.548 235.796 125.578 263.304C124.632 272.139 123.856 280.992 123.269 289.865C122.891 295.654 121.321 303.94 124.726 309.294C125.029 309.786 125.388 310.24 125.786 310.675" stroke="#461412" stroke-width="0.5" stroke-linecap="round" stroke-linejoin="round"/>
<path d="M176.998 198.886C175.73 222.194 168.333 247.469 162.998 271.098" stroke="#461412" stroke-width="0.5" stroke-linecap="round" stroke-linejoin="round"/>
<path d="M152.233 274.976C155.866 273.784 159.612 272.952 163.357 272.214C166.347 271.628 169.355 271.117 172.325 270.53C178.984 269.206 192.359 261.317 193.911 265.46" stroke="#461412" stroke-width="0.5" stroke-linecap="round" stroke-linejoin="round"/>
<path d="M190.94 267.295C190.94 267.617 190.94 267.976 190.94 268.374C191.054 273.86 192.965 286.422 196.975 293.459C197.827 294.935 198.754 296.165 199.775 297.035" stroke="#461412" stroke-width="0.5" stroke-linecap="round" stroke-linejoin="round"/>
<path d="M129.285 313.21C130.099 313.74 131.064 314.194 132.142 314.572C136.607 316.181 142.831 316.559 147.144 316.483C150.55 316.426 153.917 316.029 157.228 315.405C164.322 314.081 171.227 311.735 177.981 309.313C183.07 307.497 204.675 303.354 204.164 297.016L203.2 290.735L203.124 290.3" stroke="#461412" stroke-width="0.5" stroke-linecap="round" stroke-linejoin="round"/>
<path d="M191.811 267.598C191.811 267.598 191.962 267.503 192.038 267.466C193.022 266.879 194.024 266.312 195.008 265.744C203.162 261.128 211.429 257.193 219.526 252.369C221.116 251.423 222.686 250.477 224.275 249.531C225.448 248.831 226.602 248.15 227.775 247.45C227.964 247.336 228.172 247.223 228.361 247.109" stroke="#461412" stroke-width="0.5" stroke-linecap="round" stroke-linejoin="round"/>
<path d="M191.754 267.635C191.754 267.635 191.773 267.635 191.791 267.617" stroke="#461412" stroke-width="0.5" stroke-linecap="round" stroke-linejoin="round"/>
<path d="M198.489 292.646C199.094 292.192 199.738 291.738 200.4 291.284C201.289 290.66 202.216 290.035 203.162 289.411C214.607 281.825 230.121 273.671 239.485 265.385" stroke="#461412" stroke-width="0.5" stroke-linecap="round" stroke-linejoin="round"/>
<path d="M202.462 138.612C202.462 138.953 202.481 139.293 202.5 139.634C202.992 148.261 207.23 157.985 211.467 165.401C218.41 177.584 225.921 189.446 231.861 202.519C234.964 209.367 237.65 216.537 239.58 224.275" stroke="#461412" stroke-width="0.5" stroke-linecap="round" stroke-linejoin="round"/>
<path d="M235.512 150.323C240.98 154.901 246.466 161.466 249.777 167.898C249.966 168.258 250.136 168.617 250.307 168.958" stroke="#461412" stroke-width="0.5" stroke-linecap="round" stroke-linejoin="round"/>
<path d="M234.377 160.671C234.377 160.671 234.434 160.842 234.472 160.936C238.728 173.101 244.669 183.884 250.798 194.781C254.052 200.551 257.344 206.359 260.485 212.413C260.56 212.546 260.636 212.697 260.712 212.829" stroke="#461412" stroke-width="0.5" stroke-linecap="round" stroke-linejoin="round"/>
<path d="M230.083 244.48C233.507 239.391 236.931 234.302 240.355 229.232C240.488 229.042 240.601 228.853 240.734 228.664C241.812 227.056 242.909 225.448 244.366 224.18C247.242 221.664 251.158 220.832 254.904 220.075C257.174 219.621 259.501 219.148 261.809 219.394C262.074 219.432 262.358 219.47 262.622 219.526C264.647 219.924 266.595 220.964 267.655 222.724" stroke="#461412" stroke-width="0.5" stroke-linecap="round" stroke-linejoin="round"/>
<path d="M263.852 225.599C264.003 225.504 264.136 225.41 264.287 225.315C265.479 224.54 266.652 223.764 267.825 222.988C267.938 222.913 268.052 222.837 268.165 222.761C269.584 221.834 270.984 220.907 272.403 219.98C276.3 217.426 280.179 214.872 284.076 212.337C291.113 207.721 298.643 202.954 307.062 202.746C310.789 202.651 314.497 203.483 318.129 204.297C318.829 204.448 319.661 204.732 319.775 205.432C319.869 205.943 319.529 206.416 319.188 206.813C319.056 206.964 318.924 207.135 318.772 207.286C317.088 209.178 315.102 210.767 312.907 212.016C312.605 212.186 312.302 212.356 311.999 212.508" stroke="#461412" stroke-width="0.5" stroke-linecap="round" stroke-linejoin="round"/>
<path d="M252.785 228.229C256.02 227.794 259.236 227.245 262.433 226.564C272.422 224.464 282.184 221.21 291.435 216.897C295.124 215.175 298.813 213.264 302.824 212.64C303.884 212.47 305 212.413 305.965 212.848C306.948 213.283 307.705 214.343 307.478 215.383C307.251 216.329 306.343 216.935 305.511 217.427C302.786 219.035 300.062 220.624 297.3 222.175C290.168 226.186 282.903 229.969 275.544 233.545" stroke="#461412" stroke-width="0.5" stroke-linecap="round" stroke-linejoin="round"/>
<path d="M297.281 223.348C297.3 225.145 296.373 226.716 295.162 228.097C294.538 228.797 293.838 229.459 293.157 230.083C288.37 234.377 283.338 238.539 277.473 241.169" stroke="#461412" stroke-width="0.5" stroke-linecap="round" stroke-linejoin="round"/>
<path d="M276.773 247.809C278.873 246.466 280.992 245.066 283.054 243.591C287.822 240.147 292.135 236.175 294.556 230.896" stroke="#461412" stroke-width="0.5" stroke-linecap="round" stroke-linejoin="round"/>
<path d="M242.285 264.363C247.526 262.906 252.747 261.431 257.987 259.974C259.671 259.501 261.355 259.028 263.02 258.517C266.293 257.515 269.509 256.342 272.498 254.715C272.914 254.488 273.349 254.242 273.765 253.996C277.776 251.574 281.314 248.188 283.149 243.893" stroke="#461412" stroke-width="0.5" stroke-linecap="round" stroke-linejoin="round"/>
<path d="M253.352 176.998C253.806 178.719 254.26 180.233 254.696 181.614C256.436 186.911 258.328 190.316 261.582 196.295C264.401 201.478 267.219 206.662 270.038 211.864C270.303 212.375 270.587 212.867 270.852 213.378" stroke="#461412" stroke-width="0.5" stroke-linecap="round" stroke-linejoin="round"/>
<path d="M251.668 123.137C251.763 126.032 254.96 128.832 257.798 128.453" stroke="#461412" stroke-width="0.5" stroke-linecap="round" stroke-linejoin="round"/>
<path d="M237.972 141.658C237.65 142.339 237.347 143.02 237.064 143.72C236.25 145.745 235.607 147.826 235.134 149.963C234.623 152.253 234.32 154.598 234.226 156.944C234.226 157.152 234.226 157.36 234.226 157.569" stroke="#461412" stroke-width="0.5" stroke-linecap="round" stroke-linejoin="round"/>
<path d="M186.76 153.501C187.422 158.647 188.33 163.736 189.484 168.787C189.559 169.071 189.635 169.393 189.862 169.582C190.089 169.752 190.392 169.771 190.676 169.771C193.835 169.771 197.013 169.79 200.173 169.809" stroke="#461412" stroke-width="0.5" stroke-linecap="round" stroke-linejoin="round"/>
<path d="M203.256 172.041C201.516 173.857 199.757 175.693 198.016 177.509C197.411 178.152 196.767 178.814 196.503 179.665C196.03 181.179 196.881 182.749 197.676 184.13C208.346 202.5 214.986 218.051 221.399 238.048C221.569 238.596 221.74 239.126 221.929 239.675" stroke="#461412" stroke-width="0.5" stroke-linecap="round" stroke-linejoin="round"/>
<path d="M242.531 269.036C243.08 281.881 242.455 315.14 238.937 328.25C238.88 328.496 238.804 328.723 238.747 328.95" stroke="#461412" stroke-width="0.5" stroke-linecap="round" stroke-linejoin="round"/>
<path d="M263.436 262.736C263.568 277.511 263.057 310.467 260.106 324.959" stroke="#461412" stroke-width="0.5" stroke-linecap="round" stroke-linejoin="round"/>
<path d="M274.446 254.28C277.738 272.593 269.603 310.127 273.255 326.056" stroke="#461412" stroke-width="0.5" stroke-linecap="round" stroke-linejoin="round"/>
<path d="M276.849 25.0641C276.376 25.2344 275.865 25.31 275.373 25.3857C274.503 25.5181 273.633 25.6127 272.914 26.1046C271.874 26.8235 271.495 28.1478 271.249 29.3964C271.079 30.2477 270.947 31.0991 270.852 31.9504C270.776 32.5179 270.738 33.0855 270.701 33.672C270.644 34.7125 270.682 35.8854 271.419 36.6232C272.044 37.2665 273.065 37.38 273.936 37.1529C274.806 36.907 275.544 36.3584 276.206 35.7719" stroke="#461412" stroke-width="0.5" stroke-linecap="round" stroke-linejoin="round"/>
<path d="M287.424 22.3209C285.684 21.7155 282.468 20.8642 280.935 21.8669C280.387 22.2263 279.971 22.775 279.554 23.3047C279.081 23.9101 278.627 24.5344 278.154 25.1398C278.022 25.31 277.89 25.4992 277.757 25.6695C277.511 26.01 277.284 26.3694 277.133 26.7478C276.868 27.391 276.792 28.0721 276.754 28.7532C276.641 30.7396 276.811 32.7449 277.246 34.6935C277.341 35.1476 277.454 35.5827 277.587 36.0178C277.814 36.7557 278.098 37.5313 278.646 38.061C278.873 38.2691 279.441 38.4772 280.122 38.534C280.898 38.6097 281.806 38.4961 282.562 38.061C282.846 37.8908 283.092 37.6637 283.319 37.38" stroke="#461412" stroke-width="0.5" stroke-linecap="round" stroke-linejoin="round"/>
<path d="M293.649 22.0182C292.268 21.6588 288.938 21.6966 287.67 22.3398C287.595 22.3777 287.519 22.4155 287.443 22.4722C286.27 23.1155 285.268 24.0046 284.303 24.9316C283.641 25.5559 282.96 26.237 282.6 27.0694C282.222 27.9397 282.203 28.9045 282.222 29.8504C282.279 31.6098 282.468 33.3692 282.808 35.0908C282.941 35.753 283.13 36.4529 283.452 37.0394C283.773 37.6259 284.227 38.0988 284.852 38.3069C285.703 38.5718 286.611 38.2124 287.254 37.5691C287.481 37.3421 287.67 37.0962 287.822 36.8124C288.219 36.0935 288.37 35.2989 288.446 34.4854C288.484 34.0881 288.503 33.6909 288.522 33.2936" stroke="#461412" stroke-width="0.5" stroke-linecap="round" stroke-linejoin="round"/>
<path d="M297.205 22.7941C296.089 22.4914 294.84 22.2076 293.743 22.4346C293.289 22.5292 292.854 22.7184 292.476 23.04C291.984 23.4562 291.662 24.0427 291.359 24.6102C290.319 26.5399 289.241 28.5452 288.976 30.7209C288.957 30.929 288.938 31.1371 289.07 31.3073C289.184 31.4587 289.373 31.4965 289.562 31.5154C289.581 31.5154 289.6 31.5154 289.638 31.5154C291.341 31.6479 293.081 31.0046 294.292 29.8128C294.368 29.7371 294.443 29.6614 294.519 29.5858" stroke="#461412" stroke-width="0.5" stroke-linecap="round" stroke-linejoin="round"/>
<path d="M260.636 3.87561C260.56 4.12155 260.484 4.36749 260.409 4.61343C258.157 12.1997 256.909 20.0698 256.72 27.9587C256.625 32.2721 257.212 37.3044 260.882 39.5557C261.979 40.2368 263.228 40.5584 264.514 40.7097C265.403 40.8043 266.311 40.8232 267.2 40.7854C268.203 40.7476 269.206 40.6719 270.19 40.5584C272.384 40.2935 274.56 39.8395 276.66 39.1773" stroke="#461412" stroke-width="0.5" stroke-linecap="round" stroke-linejoin="round"/>
<path d="M268.714 3.85657C268.695 3.989 268.657 4.10251 268.638 4.23494C267.238 11.4428 266.103 18.6886 265.252 25.9722C265.119 27.0316 265.006 28.091 265.252 29.1316C265.479 30.1531 266.122 31.1558 267.106 31.5342C267.844 31.818 268.676 31.7423 269.471 31.8369" stroke="#461412" stroke-width="0.5" stroke-linecap="round" stroke-linejoin="round"/>
<path d="M287.424 37.6828C290.886 37.3044 295.635 36.5287 298.851 35.1855C299.721 34.8261 300.592 34.372 301.443 33.8612C301.556 33.7856 301.651 33.7288 301.764 33.6531C305.491 31.3073 308.764 27.5614 308.575 23.0021C308.31 16.6266 304.602 10.0619 300.383 5.18095C299.91 4.63231 299.437 4.12151 298.965 3.61072" stroke="#461412" stroke-width="0.5" stroke-linecap="round" stroke-linejoin="round"/>
<path d="M296.316 27.6561C297.281 26.2372 297.849 24.5534 297.924 22.8508C297.943 22.2643 297.924 21.6968 297.849 21.1103C297.603 19.3698 296.865 17.7239 296.089 16.1347C294.254 12.37 292.192 8.69982 289.922 5.18099C289.865 5.0864 289.808 4.99181 289.733 4.89722" stroke="#461412" stroke-width="0.5" stroke-linecap="round" stroke-linejoin="round"/>
<path d="M264.419 41.8258C264.211 43.1501 265.082 44.3798 265.876 45.4581C268.127 48.5418 270.114 51.8336 271.779 55.2768C271.779 55.3146 271.817 55.3335 271.817 55.3714" stroke="#461412" stroke-width="0.5" stroke-linecap="round" stroke-linejoin="round"/>
<path d="M270.417 41.0503C270.738 41.3341 271.041 41.6178 271.344 41.9205C273.444 43.9259 275.373 46.1204 277.095 48.4663C277.852 49.4879 278.552 50.5284 279.233 51.6068" stroke="#461412" stroke-width="0.5" stroke-linecap="round" stroke-linejoin="round"/>
<path d="M276.83 47.7285C276.925 47.1987 277 46.669 277.057 46.1204C277.265 44.3988 277.322 42.6394 277.246 40.8989C277.246 40.8422 277.246 40.8043 277.246 40.7665" stroke="#461412" stroke-width="0.5" stroke-linecap="round" stroke-linejoin="round"/>
<path d="M280.179 67.5549C280.273 67.6874 280.368 67.8009 280.462 67.9144C283.243 71.5089 287.197 74.1575 291.568 75.3493" stroke="#461412" stroke-width="0.5" stroke-linecap="round" stroke-linejoin="round"/>
<path d="M283.111 48.3906C288.276 51.0014 293.592 53.8959 296.884 58.6633" stroke="#461412" stroke-width="0.5" stroke-linecap="round" stroke-linejoin="round"/>
<path d="M301.443 33.8423C301.632 34.1071 301.802 34.372 301.973 34.6179C308.367 44.1339 310.202 56.2606 311.243 67.7441C311.262 67.9711 311.28 68.1981 311.299 68.4251" stroke="#461412" stroke-width="0.5" stroke-linecap="round" stroke-linejoin="round"/>
<path d="M294.992 78.3195C300.232 93.0191 302.805 105.127 305.548 118.105C305.927 119.883 306.305 121.662 306.702 123.478" stroke="#461412" stroke-width="0.5" stroke-linecap="round" stroke-linejoin="round"/>
<path d="M311.697 71.6223C311.999 72.2277 312.321 72.8331 312.605 73.4385C318.451 85.3192 322.291 97.9567 327.323 110.178C328.213 112.354 329.158 114.51 330.142 116.629C330.294 116.951 330.426 117.253 330.577 117.575" stroke="#461412" stroke-width="0.5" stroke-linecap="round" stroke-linejoin="round"/>
<path d="M305.378 118.01C305.019 118.294 304.697 118.578 304.394 118.843C302.313 120.716 301.443 122.324 301.935 125.426C302.37 128.169 302.805 130.932 303.259 133.675C303.808 137.156 304.375 140.637 304.981 144.118C305.7 148.204 306.286 152.309 306.948 156.396C307.97 162.677 308.216 169.298 307.97 175.806C307.932 177.017 307.875 178.209 307.8 179.419" stroke="#461412" stroke-width="0.5" stroke-linecap="round" stroke-linejoin="round"/>
<path d="M305.983 123.478C306.305 123.761 306.627 124.026 306.967 124.253C309.805 126.278 312.775 126.221 316.521 125.767C320.702 125.256 324.599 123.326 327.985 120.848C328.969 120.129 329.972 119.259 330.577 118.218C330.956 117.594 331.183 116.932 331.183 116.194" stroke="#461412" stroke-width="0.5" stroke-linecap="round" stroke-linejoin="round"/>
<path d="M327.815 109.913C328.232 110.083 328.648 110.273 329.064 110.481C331.637 111.767 333.813 113.735 334.929 116.383C336.215 119.467 336.688 122.815 337.123 126.126C339.885 146.463 342.628 166.782 345.391 187.119C345.561 188.387 345.731 189.654 345.58 190.922C345.05 195.065 341.229 197.865 337.729 200.135C334.304 202.386 322.443 205.262 319.018 207.513" stroke="#461412" stroke-width="0.5" stroke-linecap="round" stroke-linejoin="round"/>
<path d="M250.685 169.449C250.685 169.449 250.836 169.449 250.912 169.449C256.588 169.885 264.193 172.666 269.433 174.766C276.055 177.414 283.395 178.265 290.452 177.149C294.954 176.449 303.221 175.579 307.781 175.787" stroke="#461412" stroke-width="0.5" stroke-linecap="round" stroke-linejoin="round"/>
<path d="M232.41 202.405C236.174 201.913 243.553 200.022 246.825 197.43C247.053 197.259 247.242 197.089 247.431 196.9" stroke="#461412" stroke-width="0.5" stroke-linecap="round" stroke-linejoin="round"/>
<path d="M157.417 316.048C157.323 316.9 157.209 317.751 157.077 318.602C156.547 321.951 155.696 325.261 154.542 328.459C154.504 328.591 154.447 328.705 154.409 328.818" stroke="#461412" stroke-width="0.5" stroke-linecap="round" stroke-linejoin="round"/>
<path d="M290.546 98.8647C292.476 99.9242 294.765 100.303 296.921 99.962" stroke="#461412" stroke-width="0.5" stroke-linecap="round" stroke-linejoin="round"/>
<path d="M271.514 75.1413C269.32 74.1386 266.614 74.9332 264.817 76.5413C263.02 78.1493 261.941 80.4195 261.09 82.6708C259.009 88.2139 257.325 93.9462 255.017 99.4136C252.709 104.862 249.455 110.235 243.855 112.221" stroke="#461412" stroke-width="0.5" stroke-linecap="round" stroke-linejoin="round"/>
<path d="M217.597 101.286C217.937 102.516 218.543 103.632 219.413 104.446C219.545 104.559 219.678 104.673 219.81 104.786" stroke="#461412" stroke-width="0.5" stroke-linecap="round" stroke-linejoin="round"/>
<path d="M255.453 80.0599C253.409 81.9139 251.158 83.4274 248.774 84.7517C242.002 88.4975 234.169 90.5596 226.943 93.5298C223.518 94.9298 220.113 96.6325 217.54 99.2621C217.446 99.3567 217.351 99.4513 217.256 99.5459C214.646 102.346 213.094 106.394 214.135 110.083" stroke="#461412" stroke-width="0.5" stroke-linecap="round" stroke-linejoin="round"/>
<path d="M199.038 116.78C198.811 116.875 198.584 116.97 198.357 117.064C197.108 117.594 195.689 118.086 194.27 118.634C190.506 120.053 186.608 121.756 185.076 124.821" stroke="#461412" stroke-width="0.5" stroke-linecap="round" stroke-linejoin="round"/>
<path d="M249.285 45.3447C249.285 45.3447 249.323 45.3447 249.342 45.3447C257.78 44.7772 266.577 51.4932 273.141 58.9092C275.714 61.8227 277.965 64.8496 279.687 67.5928C280.273 68.5198 280.803 69.4089 281.276 70.2603C289.771 85.7355 288.825 104.654 279.214 119.372C275.544 124.991 267.409 132.01 270.795 139.464C270.833 139.539 270.871 139.634 270.909 139.71" stroke="#461412" stroke-width="0.5" stroke-linecap="round" stroke-linejoin="round"/>
<path d="M201.724 112.713C201.724 112.713 201.743 112.6 201.762 112.524C203.257 104.881 199.492 97.2756 200.059 89.5948C201.667 67.8386 217.464 39.8394 243.174 44.9284" stroke="#461412" stroke-width="0.5" stroke-linecap="round" stroke-linejoin="round"/>
<path d="M222.024 96.481C222.894 97.0674 223.613 97.8431 224.105 98.7512" stroke="#461412" stroke-width="0.5" stroke-linecap="round" stroke-linejoin="round"/>
<path d="M195.708 122.172C193.76 123.232 191.716 124.386 190.544 126.24C190.506 126.297 190.468 126.372 190.43 126.429C189.598 127.848 189.371 129.551 189.333 131.197C189.276 134.507 190.203 138.102 192.587 140.315C192.927 140.637 193.306 140.94 193.722 141.185" stroke="#461412" stroke-width="0.5" stroke-linecap="round" stroke-linejoin="round"/>
<path d="M248.926 99.5458C245.161 105.902 238.729 110.651 231.521 112.354" stroke="#461412" stroke-width="0.5" stroke-linecap="round" stroke-linejoin="round"/>
<path d="M234.472 160.917C234.528 161.485 234.604 162.033 234.68 162.582" stroke="#461412" stroke-width="0.5" stroke-linecap="round" stroke-linejoin="round"/>
</svg>
