<svg width="24" height="24" viewBox="0 0 24 24" fill="none" xmlns="http://www.w3.org/2000/svg">
<path d="M24 12C24 18.6274 18.6274 24 12 24C5.37258 24 0 18.6274 0 12C0 5.37258 5.37258 0 12 0C18.6274 0 24 5.37258 24 12Z" fill="#3CB44A"/>
<path d="M8.62256 17.328V16.352L10.9266 13.952C11.8439 12.9813 12.5159 12.1867 12.9426 11.568C13.3692 10.9387 13.5826 10.2987 13.5826 9.648C13.5826 8.96533 13.4012 8.46933 13.0386 8.16C12.6866 7.84 12.1479 7.68 11.4226 7.68C10.6866 7.68 9.91323 7.94667 9.10256 8.48L8.76656 7.216C9.73723 6.61867 10.7506 6.32 11.8066 6.32C12.9479 6.32 13.8172 6.59733 14.4146 7.152C15.0226 7.696 15.3266 8.464 15.3266 9.456C15.3266 9.91467 15.2519 10.3573 15.1026 10.784C14.9532 11.2107 14.7079 11.6587 14.3666 12.128C14.0359 12.5973 13.7372 12.9813 13.4706 13.28C13.2146 13.568 12.8359 13.9787 12.3346 14.512L10.8626 15.984H15.4706V17.328H8.62256Z" fill="white"/>
</svg>
