<svg width="42" height="20" viewBox="0 0 42 20" fill="none" xmlns="http://www.w3.org/2000/svg">
<path d="M0.5 10C0.5 4.47715 4.97715 0 10.5 0H31.2143C36.7371 0 41.2143 4.47715 41.2143 10C41.2143 15.5228 36.7371 20 31.2143 20H10.5C4.97715 20 0.5 15.5228 0.5 10Z" fill="#F4AB3E"/>
<path d="M15.2214 12.2939H14.1725V4.81H15.2214V12.2939ZM15.4571 14.7925H8.44462V11.5868H9.49355V13.9557H15.4571V14.7925ZM7.78462 6.24786C8.30319 5.75286 8.95926 5.50536 9.75284 5.50536C10.5464 5.50536 11.2025 5.74893 11.7211 6.23607C12.2475 6.72321 12.5107 7.33607 12.5107 8.07464C12.5107 8.81321 12.2514 9.41821 11.7328 9.88964C11.2143 10.3532 10.5543 10.585 9.75284 10.585C8.95926 10.585 8.30319 10.3532 7.78462 9.88964C7.26605 9.41821 7.00676 8.81714 7.00676 8.08643C7.00676 7.34786 7.26605 6.735 7.78462 6.24786ZM9.75284 6.40107C9.27355 6.40107 8.87677 6.55821 8.56248 6.8725C8.25605 7.18679 8.10284 7.58357 8.10284 8.06286C8.10284 8.53429 8.25605 8.92714 8.56248 9.24143C8.87677 9.55571 9.27355 9.71286 9.75284 9.71286C10.2557 9.71286 10.6564 9.55964 10.955 9.25321C11.2536 8.94679 11.4028 8.55393 11.4028 8.07464C11.4028 7.57964 11.2536 7.17893 10.955 6.8725C10.6564 6.55821 10.2557 6.40107 9.75284 6.40107Z" fill="white"/>
<path d="M22.767 10.4082L22.2367 11.245C21.781 11.1114 21.3135 10.8482 20.8342 10.4554C20.3549 10.0625 20.0092 9.64214 19.797 9.19429C19.632 9.65786 19.306 10.1175 18.8188 10.5732C18.3395 11.0289 17.821 11.3511 17.2631 11.5396L16.6856 10.7146C17.3927 10.4946 17.9899 10.1175 18.477 9.58321C18.9642 9.04107 19.2235 8.44 19.2549 7.78H16.9567V6.93143H22.5785V7.78H20.3274C20.3588 8.42429 20.6142 8.98607 21.0935 9.46536C21.5727 9.93679 22.1306 10.2511 22.767 10.4082ZM25.1831 4.81V12.3293H24.1342V9.19429H22.3663V8.34571H24.1342V4.81H25.1831ZM25.407 14.7925H18.5006V11.6811H19.5377V13.9557H25.407V14.7925ZM21.2113 6.03571H18.3592V5.18714H21.2113V6.03571Z" fill="white"/>
<path d="M29.8141 13.7907V13.1779L31.6291 11.2921C32.2891 10.6007 32.7683 10.0271 33.0669 9.57143C33.3733 9.10786 33.5266 8.62464 33.5266 8.12179C33.5266 7.60321 33.3969 7.22214 33.1376 6.97857C32.8783 6.72714 32.4737 6.60143 31.9237 6.60143C31.3816 6.60143 30.7962 6.80964 30.1676 7.22607L29.9201 6.42464C30.6273 5.95321 31.3619 5.7175 32.1241 5.7175C32.9255 5.7175 33.5423 5.92179 33.9744 6.33036C34.4066 6.73893 34.6226 7.30071 34.6226 8.01571C34.6226 8.65214 34.4458 9.2375 34.0923 9.77179C33.7466 10.2982 33.1887 10.9504 32.4187 11.7282L31.2401 12.9186H34.7758V13.7907H29.8141Z" fill="white"/>
</svg>
