<svg width="24" height="24" viewBox="0 0 24 24" fill="none" xmlns="http://www.w3.org/2000/svg">
<path d="M24 12C24 18.6274 18.6274 24 12 24C5.37258 24 0 18.6274 0 12C0 5.37258 5.37258 0 12 0C18.6274 0 24 5.37258 24 12Z" fill="#B5500B"/>
<path d="M12.1649 17.52C10.9063 17.52 9.94627 17.0987 9.28494 16.256C8.6236 15.4133 8.29294 14.224 8.29294 12.688V11.888C8.29294 9.98933 8.69827 8.58667 9.50894 7.68C10.3196 6.77333 11.4076 6.32 12.7729 6.32C13.7543 6.32 14.5969 6.53333 15.3009 6.96L14.9169 8.176C14.7036 8.05867 14.3943 7.952 13.9889 7.856C13.5943 7.74933 13.2209 7.696 12.8689 7.696C11.9623 7.696 11.2636 7.984 10.7729 8.56C10.2929 9.136 10.0209 10.144 9.95694 11.584C10.6929 10.8907 11.5623 10.544 12.5649 10.544C13.5143 10.544 14.2929 10.8373 14.9009 11.424C15.5089 12.0107 15.8129 12.8107 15.8129 13.824C15.8129 14.9013 15.4876 15.7867 14.8369 16.48C14.1863 17.1733 13.2956 17.52 12.1649 17.52ZM12.1329 16.24C12.7623 16.24 13.2583 16.0427 13.6209 15.648C13.9836 15.2427 14.1649 14.6827 14.1649 13.968C14.1649 12.528 13.4823 11.808 12.1169 11.808C11.7009 11.808 11.2956 11.9307 10.9009 12.176C10.5063 12.4107 10.1916 12.688 9.95694 13.008V13.104C9.95694 15.1947 10.6823 16.24 12.1329 16.24Z" fill="white"/>
</svg>
