<svg width="54" height="20" viewBox="0 0 54 20" fill="none" xmlns="http://www.w3.org/2000/svg">
<path d="M0 10C0 4.47715 4.47715 0 10 0H43.9286C49.4514 0 53.9286 4.47715 53.9286 10C53.9286 15.5228 49.4514 20 43.9286 20H10C4.47715 20 0 15.5228 0 10Z" fill="#7CC4A5"/>
<path d="M14.9609 11.6575C15.5738 12.0111 15.8802 12.4982 15.8802 13.1189C15.8802 13.7396 15.5738 14.2268 14.9609 14.5804C14.348 14.9339 13.4838 15.1107 12.368 15.1107C11.268 15.1107 10.4077 14.9339 9.78698 14.5804C9.17412 14.2268 8.86769 13.7396 8.86769 13.1189C8.86769 12.4982 9.17412 12.0111 9.78698 11.6575C10.4077 11.2961 11.268 11.1154 12.368 11.1154C13.4838 11.1154 14.348 11.2961 14.9609 11.6575ZM12.368 11.9639C11.6138 11.9639 11.0205 12.0661 10.5884 12.2704C10.1641 12.4746 9.95198 12.7575 9.95198 13.1189C9.95198 13.4804 10.1641 13.7632 10.5884 13.9675C11.0205 14.1639 11.6138 14.2621 12.368 14.2621C13.1459 14.2621 13.747 14.1639 14.1713 13.9675C14.6034 13.7632 14.8195 13.4804 14.8195 13.1189C14.8195 12.7575 14.6034 12.4746 14.1713 12.2704C13.747 12.0661 13.1459 11.9639 12.368 11.9639ZM12.6273 9.65393V8.81714H14.7723V7.56786H12.7452V6.73107H14.7723V4.81H15.8213V11.1861H14.7723V9.65393H12.6273ZM12.6155 5.59964C12.5448 6.91179 12.1048 8.03536 11.2955 8.97036C10.4941 9.8975 9.40198 10.6007 8.01912 11.08L7.41805 10.2314C8.43948 9.96429 9.32733 9.48893 10.0816 8.80536C10.8359 8.11393 11.2955 7.33214 11.4605 6.46H7.92483V5.59964H12.6155Z" fill="white"/>
<path d="M24.8283 4.81H25.8537V15.1107H24.8283V4.81ZM23.3433 8.06286C23.3433 8.76214 23.084 9.32786 22.5655 9.76C22.0469 10.1921 21.4065 10.4082 20.6444 10.4082C19.8744 10.4082 19.234 10.1921 18.7233 9.76C18.2126 9.32 17.9572 8.75429 17.9572 8.06286C17.9572 7.35571 18.2126 6.77429 18.7233 6.31857C19.2419 5.86286 19.8822 5.635 20.6444 5.635C21.4222 5.635 22.0665 5.85893 22.5772 6.30679C23.088 6.75464 23.3433 7.34 23.3433 8.06286ZM22.318 8.05107C22.318 7.5875 22.1569 7.21429 21.8347 6.93143C21.5205 6.64857 21.1237 6.50714 20.6444 6.50714C20.1887 6.50714 19.7997 6.65643 19.4776 6.955C19.1555 7.24571 18.9944 7.61107 18.9944 8.05107C18.9944 8.48321 19.1515 8.84071 19.4658 9.12357C19.788 9.39857 20.1808 9.53607 20.6444 9.53607C21.108 9.53607 21.5008 9.39857 21.823 9.12357C22.153 8.84857 22.318 8.49107 22.318 8.05107ZM24.2744 12.5061C23.5358 12.6004 22.2787 12.6946 20.503 12.7889C19.5758 12.8361 18.5505 12.8675 17.4269 12.8832L17.2619 11.9875C18.5583 11.9875 19.6937 11.9639 20.668 11.9168C22.153 11.8539 23.3197 11.7754 24.1683 11.6811L24.2744 12.5061Z" fill="white"/>
<path d="M35.5089 13.225C35.5089 13.8143 35.1907 14.27 34.5543 14.5921C33.9257 14.9221 33.0536 15.0871 31.9379 15.0871C30.8221 15.0871 29.95 14.9221 29.3214 14.5921C28.7007 14.27 28.3904 13.8143 28.3904 13.225C28.3904 12.6829 28.6536 12.2546 29.18 11.9404C29.7064 11.6261 30.445 11.4454 31.3957 11.3982V10.4789H27.2943V9.61857H36.5932V10.4789H32.4446V11.3864C33.4111 11.4336 34.1614 11.6182 34.6957 11.9404C35.2379 12.2546 35.5089 12.6829 35.5089 13.225ZM36.1572 8.21607L35.6857 9.04107C34.8764 8.93107 34.1182 8.67964 33.4111 8.28679C32.7039 7.89393 32.2129 7.45786 31.9379 6.97857C31.7179 7.46571 31.2582 7.90571 30.5589 8.29857C29.8675 8.68357 29.0857 8.93107 28.2136 9.04107L27.7539 8.22786C28.6025 8.15714 29.3725 7.93714 30.0639 7.56786C30.7632 7.19071 31.1914 6.71929 31.3486 6.15357H28.19V5.305H35.6975V6.15357H32.5625C32.7275 6.71143 33.1714 7.17893 33.8943 7.55607C34.6171 7.93321 35.3714 8.15321 36.1572 8.21607ZM33.7646 12.4825C33.3168 12.3096 32.7079 12.2232 31.9379 12.2232C31.1679 12.2232 30.5629 12.3096 30.1229 12.4825C29.6829 12.6554 29.4629 12.9068 29.4629 13.2368C29.4629 13.5668 29.6829 13.8182 30.1229 13.9911C30.5629 14.1561 31.1679 14.2386 31.9379 14.2386C32.7157 14.2386 33.3246 14.1561 33.7646 13.9911C34.2125 13.8182 34.4364 13.5668 34.4364 13.2368C34.4364 12.9068 34.2125 12.6554 33.7646 12.4825Z" fill="white"/>
<path d="M46.7435 8.28679H45.2113V11.0211H44.1624V4.81H45.2113V7.42643H46.7435V8.28679ZM44.4335 11.6104C45.0385 11.9796 45.341 12.4707 45.341 13.0836C45.341 13.6964 45.0385 14.1836 44.4335 14.545C43.8285 14.9143 42.9799 15.0989 41.8878 15.0989C40.7956 15.0989 39.9471 14.9182 39.3421 14.5568C38.7449 14.1954 38.4463 13.7043 38.4463 13.0836C38.4463 12.4629 38.7449 11.9718 39.3421 11.6104C39.9471 11.2411 40.7956 11.0564 41.8878 11.0564C42.9799 11.0564 43.8285 11.2411 44.4335 11.6104ZM43.6321 12.235C43.2078 12.0229 42.6263 11.9168 41.8878 11.9168C41.1492 11.9168 40.5678 12.0229 40.1435 12.235C39.7271 12.4471 39.5188 12.73 39.5188 13.0836C39.5188 13.445 39.7271 13.7279 40.1435 13.9321C40.5678 14.1364 41.1492 14.2386 41.8878 14.2386C42.6263 14.2386 43.2078 14.1364 43.6321 13.9321C44.0563 13.7279 44.2685 13.445 44.2685 13.0836C44.2685 12.7221 44.0563 12.4393 43.6321 12.235ZM40.0374 5.37571C40.7917 5.37571 41.432 5.61143 41.9585 6.08286C42.4928 6.55429 42.7599 7.15143 42.7599 7.87429C42.7599 8.605 42.4967 9.19429 41.9703 9.64214C41.4517 10.0821 40.8074 10.3021 40.0374 10.3021C39.2831 10.3021 38.6467 10.0821 38.1281 9.64214C37.6096 9.19429 37.3503 8.60893 37.3503 7.88607C37.3503 7.16321 37.6096 6.56607 38.1281 6.09464C38.6545 5.61536 39.291 5.37571 40.0374 5.37571ZM40.0374 6.27143C39.566 6.27143 39.1731 6.42464 38.8588 6.73107C38.5445 7.0375 38.3874 7.41464 38.3874 7.8625C38.3874 8.33393 38.5406 8.71893 38.847 9.0175C39.1613 9.31607 39.5581 9.46536 40.0374 9.46536C40.5324 9.46536 40.9331 9.32 41.2395 9.02929C41.546 8.73071 41.6992 8.34571 41.6992 7.87429C41.6992 7.40286 41.546 7.01786 41.2395 6.71929C40.941 6.42071 40.5403 6.27143 40.0374 6.27143Z" fill="white"/>
</svg>
