<svg width="24" height="24" viewBox="0 0 24 24" fill="none" xmlns="http://www.w3.org/2000/svg">
<path d="M24 12C24 18.6274 18.6274 24 12 24C5.37258 24 0 18.6274 0 12C0 5.37258 5.37258 0 12 0C18.6274 0 24 5.37258 24 12Z" fill="#8936E0"/>
<path d="M11.5133 17.52C10.2866 17.52 9.25731 17.2587 8.42531 16.736L8.72931 15.44C9.48665 15.9093 10.2813 16.144 11.1133 16.144C11.9133 16.144 12.5373 15.9467 12.9853 15.552C13.444 15.1573 13.6733 14.608 13.6733 13.904C13.6733 12.5067 12.8413 11.808 11.1773 11.808C10.4733 11.808 9.73198 11.9893 8.95331 12.352L9.35331 6.496H14.9373V7.824H10.6333L10.4413 10.768C10.9213 10.6293 11.396 10.56 11.8653 10.56C12.996 10.56 13.8653 10.8427 14.4733 11.408C15.0813 11.9627 15.3853 12.8 15.3853 13.92C15.3853 14.944 15.0333 15.8027 14.3293 16.496C13.636 17.1787 12.6973 17.52 11.5133 17.52Z" fill="white"/>
</svg>
