<svg width="45" height="20" viewBox="0 0 45 20" fill="none" xmlns="http://www.w3.org/2000/svg">
<path d="M0.678467 10C0.678467 4.47715 5.15562 0 10.6785 0H34.607C40.1299 0 44.607 4.47715 44.607 10C44.607 15.5228 40.1299 20 34.607 20H10.6785C5.15562 20 0.678467 15.5228 0.678467 10Z" fill="#FF9D27"/>
<path d="M15.5259 4.81H16.5513V15.1107H15.5259V4.81ZM14.0409 8.06286C14.0409 8.76214 13.7816 9.32786 13.2631 9.76C12.7445 10.1921 12.1041 10.4082 11.342 10.4082C10.572 10.4082 9.93165 10.1921 9.42093 9.76C8.91022 9.32 8.65486 8.75429 8.65486 8.06286C8.65486 7.35571 8.91022 6.77429 9.42093 6.31857C9.9395 5.86286 10.5799 5.635 11.342 5.635C12.1199 5.635 12.7641 5.85893 13.2749 6.30679C13.7856 6.75464 14.0409 7.34 14.0409 8.06286ZM13.0156 8.05107C13.0156 7.5875 12.8545 7.21429 12.5324 6.93143C12.2181 6.64857 11.8213 6.50714 11.342 6.50714C10.8863 6.50714 10.4974 6.65643 10.1752 6.955C9.85307 7.24571 9.692 7.61107 9.692 8.05107C9.692 8.48321 9.84915 8.84071 10.1634 9.12357C10.4856 9.39857 10.8784 9.53607 11.342 9.53607C11.8056 9.53607 12.1984 9.39857 12.5206 9.12357C12.8506 8.84857 13.0156 8.49107 13.0156 8.05107ZM14.972 12.5061C14.2334 12.6004 12.9763 12.6946 11.2006 12.7889C10.2734 12.8361 9.24807 12.8675 8.1245 12.8832L7.9595 11.9875C9.25593 11.9875 10.3913 11.9639 11.3656 11.9168C12.8506 11.8539 14.0174 11.7754 14.8659 11.6811L14.972 12.5061Z" fill="white"/>
<path d="M25.5819 11.6575C26.1948 12.0111 26.5012 12.4982 26.5012 13.1189C26.5012 13.7396 26.1987 14.2268 25.5937 14.5804C24.9887 14.9339 24.1323 15.1107 23.0244 15.1107C21.9323 15.1107 21.0798 14.9339 20.4669 14.5804C19.8619 14.2268 19.5594 13.7396 19.5594 13.1189C19.5594 12.4982 19.8619 12.0111 20.4669 11.6575C21.0798 11.2961 21.9323 11.1154 23.0244 11.1154C24.1244 11.1154 24.9769 11.2961 25.5819 11.6575ZM18.2276 6.49536V5.64679H23.8612V6.49536H21.6101V6.83714C21.6101 7.52071 21.8616 8.14143 22.3644 8.69929C22.8673 9.24929 23.4369 9.6225 24.0733 9.81893L23.4958 10.6557C23.0244 10.4671 22.5569 10.1686 22.0933 9.76C21.6298 9.34357 21.2958 8.9075 21.0916 8.45179C20.9344 8.93107 20.6005 9.41036 20.0898 9.88964C19.5791 10.3689 19.0487 10.7225 18.4987 10.9504L17.9094 10.1254C18.6166 9.87393 19.2333 9.44179 19.7598 8.82893C20.2862 8.20821 20.5494 7.55214 20.5494 6.86071V6.49536H18.2276ZM23.0244 11.9757C22.2701 11.9757 21.6808 12.0779 21.2566 12.2821C20.8323 12.4786 20.6201 12.7575 20.6201 13.1189C20.6201 13.4804 20.8323 13.7632 21.2566 13.9675C21.6808 14.1639 22.2701 14.2621 23.0244 14.2621C23.7866 14.2621 24.3798 14.1639 24.8041 13.9675C25.2283 13.7632 25.4405 13.4804 25.4405 13.1189C25.4405 12.7575 25.2283 12.4786 24.8041 12.2821C24.3798 12.0779 23.7866 11.9757 23.0244 11.9757ZM25.3933 8.26321H23.4723V7.40286H25.3933V4.81H26.4423V11.1979H25.3933V8.26321Z" fill="white"/>
<path d="M36.1093 9.74821H29.0732V5.19893H30.1222V6.66036H35.0722V5.19893H36.1093V9.74821ZM33.104 15.1225H32.055V11.7754H27.9536V10.915H37.2525V11.7754H33.104V15.1225ZM35.0722 8.91143V7.50893H30.1222V8.91143H35.0722Z" fill="white"/>
</svg>
