<svg width="41" height="20" viewBox="0 0 41 20" fill="none" xmlns="http://www.w3.org/2000/svg">
<path d="M0 10C0 4.47715 4.47715 0 10 0H30.7143C36.2371 0 40.7143 4.47715 40.7143 10C40.7143 15.5228 36.2371 20 30.7143 20H10C4.47715 20 0 15.5228 0 10Z" fill="#6F99CF"/>
<path d="M15.6997 12.2939H14.6508V4.81H15.6997V12.2939ZM15.9354 14.7925H8.92293V11.5868H9.97186V13.9557H15.9354V14.7925ZM8.26293 6.24786C8.7815 5.75286 9.43757 5.50536 10.2311 5.50536C11.0247 5.50536 11.6808 5.74893 12.1994 6.23607C12.7258 6.72321 12.989 7.33607 12.989 8.07464C12.989 8.81321 12.7297 9.41821 12.2111 9.88964C11.6926 10.3532 11.0326 10.585 10.2311 10.585C9.43757 10.585 8.7815 10.3532 8.26293 9.88964C7.74436 9.41821 7.48507 8.81714 7.48507 8.08643C7.48507 7.34786 7.74436 6.735 8.26293 6.24786ZM10.2311 6.40107C9.75186 6.40107 9.35507 6.55821 9.04079 6.8725C8.73436 7.18679 8.58114 7.58357 8.58114 8.06286C8.58114 8.53429 8.73436 8.92714 9.04079 9.24143C9.35507 9.55571 9.75186 9.71286 10.2311 9.71286C10.734 9.71286 11.1347 9.55964 11.4333 9.25321C11.7319 8.94679 11.8811 8.55393 11.8811 8.07464C11.8811 7.57964 11.7319 7.17893 11.4333 6.8725C11.1347 6.55821 10.734 6.40107 10.2311 6.40107Z" fill="white"/>
<path d="M23.2453 10.4082L22.715 11.245C22.2593 11.1114 21.7918 10.8482 21.3125 10.4554C20.8332 10.0625 20.4875 9.64214 20.2753 9.19429C20.1103 9.65786 19.7843 10.1175 19.2971 10.5732C18.8178 11.0289 18.2993 11.3511 17.7414 11.5396L17.1639 10.7146C17.871 10.4946 18.4682 10.1175 18.9553 9.58321C19.4425 9.04107 19.7018 8.44 19.7332 7.78H17.435V6.93143H23.0568V7.78H20.8057C20.8371 8.42429 21.0925 8.98607 21.5718 9.46536C22.051 9.93679 22.6089 10.2511 23.2453 10.4082ZM25.6614 4.81V12.3293H24.6125V9.19429H22.8446V8.34571H24.6125V4.81H25.6614ZM25.8853 14.7925H18.9789V11.6811H20.016V13.9557H25.8853V14.7925ZM21.6896 6.03571H18.8375V5.18714H21.6896V6.03571Z" fill="white"/>
<path d="M31.577 13.8379V6.90786L30.1391 7.22607V6.625L32.0484 5.74107H32.6141V13.8379H31.577Z" fill="white"/>
</svg>
