<svg width="181" height="23" viewBox="0 0 181 23" fill="none" xmlns="http://www.w3.org/2000/svg">
	<path d="M97.8353 15.4161C97.8208 15.3434 97.7966 15.2662 97.7675 15.1889L91.8277 0.739532C91.7503 0.548691 91.6002 0.385112 91.392 0.253341C91.1839 0.126114 90.9322 0.0625 90.6465 0.0625C90.3609 0.0625 90.1189 0.144289 89.9204 0.303323C89.7219 0.466902 89.5912 0.639567 89.5186 0.816777L83.6224 15.1889C83.5691 15.3434 83.5449 15.4888 83.5449 15.6297C83.5449 15.7705 83.5691 15.9114 83.6224 16.0477C83.6805 16.184 83.7579 16.3067 83.8644 16.4158C83.9758 16.5248 84.1016 16.6112 84.2565 16.6748C84.4066 16.7384 84.5809 16.7656 84.7697 16.7656C84.9972 16.7656 85.215 16.702 85.4184 16.5748C85.6217 16.443 85.7717 16.2704 85.8686 16.0523L86.5124 14.4892H94.8388L95.4971 16.0523C95.5891 16.2704 95.7343 16.443 95.9425 16.5748C96.1458 16.7066 96.3733 16.7656 96.6154 16.7656C96.7897 16.7656 96.9591 16.7338 97.114 16.6748C97.2641 16.6112 97.3996 16.5294 97.5061 16.4203C97.6175 16.3158 97.7094 16.1977 97.7675 16.0614C97.8305 15.925 97.8595 15.7842 97.8595 15.6342C97.8595 15.5661 97.8498 15.4934 97.8305 15.4207L97.8353 15.4161ZM87.4806 12.1764L90.6901 4.35188L93.8851 12.1764H87.4806Z" fill="#171717"/>
	<path d="M133.906 4.8708C133.674 4.66179 133.393 4.55728 133.069 4.55728C132.745 4.55728 132.454 4.66179 132.222 4.87535C131.994 5.08436 131.878 5.34791 131.878 5.67052V12.5862C131.878 12.8543 131.82 13.1088 131.709 13.3496C131.597 13.5904 131.447 13.7994 131.254 13.9812C131.06 14.1629 130.837 14.3038 130.576 14.4083C130.319 14.5174 130.048 14.5674 129.763 14.5674C129.477 14.5674 129.24 14.5219 129.003 14.4265C128.765 14.3356 128.557 14.2084 128.373 14.0448C128.189 13.8812 128.044 13.6858 127.928 13.4723C127.817 13.2542 127.749 12.9997 127.749 12.6271V6.84737C127.749 6.68834 127.715 6.53839 127.657 6.40662C127.594 6.27485 127.507 6.15671 127.4 6.05674C127.289 5.95678 127.168 5.87499 127.018 5.81592C126.873 5.75231 126.723 5.72959 126.563 5.72959C126.229 5.72959 125.948 5.83864 125.716 6.04766C125.488 6.26122 125.372 6.5293 125.372 6.84737V12.5772C125.372 12.8543 125.319 13.1133 125.212 13.3541C125.101 13.595 124.956 13.804 124.772 13.9903C124.588 14.1766 124.375 14.322 124.118 14.4265C123.866 14.531 123.6 14.5855 123.315 14.5855C123.048 14.5855 122.797 14.5401 122.564 14.4492C122.332 14.3629 122.119 14.2402 121.94 14.0902C121.756 13.9403 121.601 13.7585 121.48 13.5541C121.359 13.3451 121.267 13.0679 121.267 12.7816C121.267 12.7498 121.233 5.66597 121.233 5.66597C121.233 5.34791 121.112 5.07982 120.884 4.8708C120.652 4.65724 120.376 4.55273 120.061 4.55273C119.727 4.55273 119.451 4.65724 119.214 4.86626C118.982 5.07982 118.866 5.34336 118.866 5.66143V12.6953C118.866 13.2633 118.982 13.804 119.214 14.3084C119.447 14.8127 119.766 15.2535 120.163 15.6261C120.56 15.9987 121.03 16.294 121.562 16.5167C122.09 16.7302 122.666 16.8438 123.271 16.8438C123.915 16.8438 124.515 16.7257 125.062 16.4848C125.614 16.244 126.098 15.9169 126.51 15.5079C126.911 15.9214 127.386 16.244 127.942 16.4848C128.494 16.7257 129.09 16.8438 129.734 16.8438C130.377 16.8438 130.92 16.7302 131.471 16.5167C132.018 16.2986 132.493 15.9987 132.904 15.6261C133.311 15.2535 133.635 14.8127 133.877 14.3084C134.119 13.804 134.24 13.2633 134.24 12.6953V5.66597C134.24 5.34791 134.119 5.07982 133.887 4.8708H133.906Z" fill="#171717"/>
	<path d="M149.435 8.26828C149.096 7.52763 148.636 6.88241 148.05 6.3326C147.469 5.7828 146.782 5.34659 145.997 5.02852C145.213 4.71045 144.366 4.54688 143.466 4.54688C142.565 4.54688 141.713 4.71045 140.919 5.03307C140.13 5.36022 139.443 5.80097 138.857 6.35987C138.271 6.9233 137.807 7.57761 137.468 8.3228C137.129 9.06799 136.959 9.87225 136.959 10.7174C136.959 11.5626 137.129 12.3714 137.468 13.1166C137.807 13.8617 138.271 14.5206 138.857 15.0749C139.443 15.6293 140.13 16.07 140.919 16.3927C141.708 16.7153 142.551 16.8788 143.461 16.8788C144.25 16.8788 144.991 16.7607 145.688 16.5108C146.385 16.2654 147.019 15.9201 147.585 15.4839L147.6 15.6611C147.6 15.9837 147.706 16.2563 147.924 16.4835C148.142 16.7062 148.423 16.8198 148.762 16.8198C149.1 16.8198 149.396 16.7062 149.628 16.4835C149.861 16.2609 149.977 15.9883 149.977 15.6702V10.6492C149.962 9.80409 149.778 9.01801 149.439 8.27736L149.435 8.26828ZM147.28 12.2305C147.072 12.7031 146.782 13.1211 146.404 13.4801C146.036 13.8345 145.596 14.1162 145.097 14.3252C144.598 14.5297 144.051 14.6342 143.461 14.6342C142.87 14.6342 142.338 14.5297 141.834 14.3252C141.336 14.1162 140.9 13.8345 140.527 13.4801C140.164 13.1211 139.869 12.7076 139.656 12.2305C139.438 11.7579 139.332 11.2536 139.332 10.7129C139.332 10.1721 139.438 9.67232 139.656 9.19976C139.869 8.7272 140.159 8.30917 140.527 7.9593C140.895 7.60488 141.331 7.3277 141.834 7.12323C142.333 6.91421 142.875 6.80971 143.461 6.80971C144.047 6.80971 144.598 6.91421 145.097 7.12323C145.596 7.3277 146.036 7.60488 146.404 7.9593C146.777 8.30917 147.067 8.7272 147.28 9.19976C147.488 9.67232 147.595 10.1767 147.595 10.7129C147.595 11.249 147.488 11.7579 147.28 12.2305Z" fill="#171717"/>
	<path d="M180.464 8.26353C180.115 7.51834 179.631 6.85494 179.026 6.29151C178.43 5.73716 177.719 5.29186 176.91 4.96471C176.112 4.64209 175.25 4.47852 174.34 4.47852C173.43 4.47852 172.554 4.64209 171.745 4.96925C170.941 5.29186 170.225 5.7417 169.63 6.30059C169.024 6.86403 168.545 7.52743 168.202 8.27716C167.853 9.03144 167.679 9.85387 167.679 10.7172C167.679 11.5805 167.853 12.3893 168.202 13.1436C168.545 13.8933 169.024 14.5613 169.63 15.1202C170.23 15.6791 170.941 16.1289 171.745 16.4515C172.554 16.7787 173.425 16.9468 174.34 16.9468C174.877 16.9468 175.385 16.9105 175.85 16.8332C176.344 16.7514 176.77 16.6424 177.128 16.497C177.491 16.3561 177.791 16.1743 178.019 15.9562C178.246 15.7427 178.367 15.4837 178.367 15.1883C178.367 15.0338 178.334 14.8748 178.271 14.7203C178.203 14.5704 178.116 14.4341 177.995 14.3205C177.879 14.2069 177.748 14.1205 177.603 14.0569C177.254 13.8933 176.814 13.9206 176.363 14.166C176.078 14.3296 175.773 14.4522 175.468 14.534C175.177 14.6113 174.795 14.6476 174.335 14.6476C173.875 14.6476 173.41 14.5749 172.984 14.425C172.568 14.2841 172.181 14.0751 171.837 13.807C171.498 13.5526 171.203 13.239 170.966 12.8755C170.743 12.5438 170.583 12.1803 170.486 11.8032H179.762C180.125 11.8032 180.425 11.6896 180.652 11.476C180.88 11.2625 181.001 10.9853 181.001 10.6672C180.986 9.81298 180.802 9.00418 180.454 8.25899L180.464 8.26353ZM178.396 9.78572H170.428C170.515 9.3904 170.661 9.01326 170.874 8.66793C171.101 8.29534 171.392 7.95909 171.74 7.66829C172.098 7.38203 172.505 7.15938 172.941 7.00489C173.381 6.84131 173.87 6.76406 174.383 6.76406C174.897 6.76406 175.39 6.84131 175.826 7.00034C176.276 7.15483 176.683 7.37294 177.036 7.65011C177.394 7.93637 177.685 8.25899 177.937 8.64067C178.159 8.99054 178.309 9.37223 178.396 9.78572Z" fill="#171717"/>
	<path d="M164.858 8.26828C164.683 7.90023 164.485 7.55035 164.252 7.23228C164.025 6.90967 163.759 6.60978 163.468 6.3326C162.887 5.7828 162.205 5.34659 161.421 5.02852C160.631 4.71045 159.789 4.54688 158.884 4.54688C157.979 4.54688 157.131 4.71045 156.342 5.03307C155.548 5.36022 154.866 5.80097 154.28 6.35987C153.694 6.9233 153.23 7.57762 152.886 8.3228C152.547 9.06799 152.378 9.87225 152.378 10.7174C152.378 11.5626 152.547 12.3714 152.886 13.1166C153.225 13.8617 153.69 14.5206 154.275 15.0749C154.861 15.6293 155.548 16.07 156.338 16.3927C157.127 16.7153 157.969 16.8789 158.874 16.8789C159.663 16.8789 160.404 16.7607 161.101 16.5108C161.803 16.2654 162.432 15.9201 162.999 15.4839L163.013 15.6611V18.7827C163.013 19.437 162.829 19.9369 162.461 20.2867C162.089 20.6366 161.575 20.8093 160.922 20.8093C160.583 20.8093 160.302 20.9183 160.08 21.1273C159.862 21.3409 159.75 21.5999 159.75 21.9043C159.75 22.2224 159.857 22.486 160.075 22.6904C160.288 22.8994 160.569 22.9994 160.907 22.9994C161.542 22.9994 162.132 22.8994 162.679 22.6995C163.226 22.495 163.696 22.2088 164.102 21.8362C164.504 21.459 164.819 21.0137 165.046 20.5003C165.274 19.9823 165.39 19.4052 165.39 18.7782V10.6402C165.371 9.79501 165.192 9.00892 164.853 8.26828H164.858ZM162.699 12.2305C162.49 12.7031 162.2 13.1211 161.827 13.4801C161.454 13.8345 161.019 14.1162 160.52 14.3252C160.017 14.5297 159.47 14.6342 158.879 14.6342C158.288 14.6342 157.756 14.5297 157.252 14.3252C156.754 14.1162 156.318 13.8345 155.95 13.4801C155.582 13.1211 155.292 12.7076 155.074 12.2305C154.856 11.7534 154.75 11.2536 154.75 10.7129C154.75 10.1721 154.861 9.67232 155.074 9.19977C155.287 8.72721 155.578 8.30917 155.95 7.9593C156.313 7.60488 156.749 7.3277 157.252 7.12323C157.751 6.91421 158.293 6.80971 158.879 6.80971C159.465 6.80971 160.017 6.91421 160.52 7.12323C161.019 7.3277 161.454 7.60488 161.827 7.9593C162.195 8.30917 162.486 8.72721 162.699 9.19977C162.912 9.67232 163.013 10.1767 163.013 10.7129C163.013 11.249 162.912 11.7579 162.699 12.2305Z" fill="#171717"/>
	<path d="M103.863 16.8894C101.995 16.8894 100.475 15.4627 100.475 13.7088V1.18594C100.475 0.531629 101.041 0 101.738 0C102.435 0 103.002 0.531629 103.002 1.18594V13.7088C103.002 14.1541 103.384 14.513 103.858 14.513C104.556 14.513 105.122 15.0446 105.122 15.699C105.122 16.3533 104.556 16.8849 103.858 16.8849L103.863 16.8894Z" fill="#171717"/>
	<path d="M110.422 16.8894C108.553 16.8894 107.033 15.4627 107.033 13.7088V1.18594C107.033 0.531629 107.6 0 108.297 0C108.994 0 109.56 0.531629 109.56 1.18594V13.7088C109.56 14.1541 109.943 14.513 110.417 14.513C111.114 14.513 111.68 15.0446 111.68 15.699C111.68 16.3533 111.114 16.8849 110.417 16.8849L110.422 16.8894Z" fill="#171717"/>
	<path d="M70.0837 10.4548C69.3866 5.2975 64.3666 1.61699 58.9012 2.25313C53.4309 2.88472 49.5485 7.59668 50.2505 12.7539C50.9476 17.9067 55.9676 21.5826 61.4427 20.951C66.908 20.324 70.7856 15.612 70.0837 10.4593V10.4548ZM65.7511 15.7302C64.5941 17.1297 62.9385 18.0202 61.0747 18.2384C60.7891 18.2702 60.5035 18.2883 60.2179 18.2883C58.4316 18.2883 56.7857 17.6567 55.5222 16.6071C54.2636 15.5575 53.3922 14.0853 53.1647 12.4132C52.9275 10.6411 53.4309 8.88259 54.5976 7.474C55.7546 6.06995 57.4199 5.17936 59.2739 4.9658C59.5595 4.92945 59.8548 4.91128 60.1356 4.91128C63.6937 4.91128 66.7289 7.44219 67.184 10.7955C67.4212 12.5676 66.9177 14.3216 65.7511 15.7302Z" fill="#09C984"/>
	<path d="M46.8635 11.595C46.8635 13.8078 45.9389 15.8843 44.264 17.4564C42.594 19.024 40.3769 19.8873 38.0194 19.8873C36.4898 19.8873 35.023 19.5193 33.7257 18.8332C33.6482 18.7968 33.6385 18.7923 33.5756 18.7514C32.9318 18.3924 32.3218 17.9653 31.7797 17.4519C30.1483 15.9206 28.9188 14.8165 27.8683 14.1168C25.0026 12.6583 23.0518 14.1713 18.24 18.6878C14.077 22.5954 7.29989 22.5954 3.13682 18.6878C1.11338 16.793 0 14.2713 0 11.5996C0 8.92789 1.11822 6.41522 3.14166 4.51141C5.16511 2.61668 7.84205 1.57617 10.6884 1.57617C13.5396 1.57617 16.2118 2.62122 18.2304 4.52049C22.9646 8.96424 24.9251 10.4955 27.7183 9.15507C28.7978 8.45989 30.066 7.3285 31.77 5.72912C32.3364 5.19751 32.9657 4.76131 33.6289 4.4069C33.6579 4.38418 33.6821 4.36146 33.7063 4.33874C33.716 4.32966 33.7257 4.32511 33.7354 4.31603V4.34783C37.0948 2.59851 41.4177 3.05288 44.2689 5.72912C45.9438 7.2967 46.8635 9.3868 46.8635 11.595Z" fill="url(#paint0_linear_1117_8443)"/>
	<defs>
		<linearGradient id="paint0_linear_1117_8443" x1="0" y1="11.5996" x2="46.8635" y2="11.5996" gradientUnits="userSpaceOnUse">
			<stop stop-color="#45A7FF"/>
			<stop offset="1" stop-color="#0B6BED"/>
		</linearGradient>
	</defs>
</svg>
