<svg width="43" height="45" viewBox="0 0 43 45" fill="none" xmlns="http://www.w3.org/2000/svg">
<path d="M1.17242 28.9325L6.05016 38.4619C6.87388 40.0609 8.52132 41.0623 10.3141 41.0623H30.8103C31.2948 41.0623 31.7794 41.1915 32.1993 41.4499L37.4808 44.6963C38.2561 45.1647 39.2575 44.6802 39.3544 43.7757L42.4716 14.7839C42.617 13.4272 42.1809 12.0704 41.2603 11.0529L33.3461 2.29883L1.15625 28.9325H1.17242Z" fill="#DFDFDF"/>
<path d="M4.78761 4.16824L0.57209 25.9404C0.103699 28.3954 1.97727 30.6566 4.46459 30.6566H26.802C28.7402 30.6566 30.3876 29.2514 30.7107 27.3455L34.3447 5.57341C34.7485 3.1507 32.8911 0.954102 30.4361 0.954102H8.68011C6.77425 0.954102 5.14295 2.29467 4.78761 4.16824Z" fill="#F5F5F5"/>
<path fill-rule="evenodd" clip-rule="evenodd" d="M12.3729 8.64239C12.0197 8.22016 11.3911 8.1642 10.9689 8.51739C10.5466 8.87058 10.4907 9.49918 10.8439 9.92141L11.9157 11.2027L10.5418 12.4528C10.1346 12.8233 10.1049 13.4537 10.4753 13.8608C10.8458 14.268 11.4762 14.2977 11.8833 13.9273L13.1958 12.7331L14.1805 13.9102C14.5337 14.3325 15.1623 14.3884 15.5845 14.0353C16.0067 13.6821 16.0627 13.0535 15.7095 12.6312L14.6715 11.3904L15.9467 10.2301C16.3539 9.85966 16.3836 9.22927 16.0132 8.82211C15.6427 8.41495 15.0123 8.38521 14.6052 8.75567L13.3914 9.86002L12.3729 8.64239ZM17.1261 17.3993C21.0265 17.2386 24.208 19.1778 24.7883 21.8583C24.8978 22.4147 24.392 22.88 23.6332 22.9031L10.3262 23.4418C9.56742 23.4649 9.06954 23.035 9.22897 22.4799C9.93956 19.7306 13.2459 17.5414 17.1463 17.3807L17.1261 17.3993ZM19.6051 8.97666C20.0273 8.62347 20.6559 8.67944 21.0091 9.10166L22.0277 10.3193L23.2414 9.21494C23.6486 8.84448 24.2789 8.87423 24.6494 9.28138C25.0199 9.68854 24.9901 10.3189 24.583 10.6894L23.3078 11.8496L24.3458 13.0905C24.699 13.5127 24.643 14.1413 24.2208 14.4945C23.7985 14.8477 23.1699 14.7917 22.8167 14.3695L21.8321 13.1924L20.5196 14.3865C20.1124 14.757 19.482 14.7273 19.1116 14.3201C18.7411 13.9129 18.7709 13.2826 19.178 12.9121L20.5519 11.662L19.4801 10.3807C19.1269 9.95845 19.1829 9.32985 19.6051 8.97666Z" fill="#DFDFDF"/>
</svg>
