<svg width="44" height="20" viewBox="0 0 44 20" fill="none" xmlns="http://www.w3.org/2000/svg">
<path d="M0.0715332 10C0.0715332 4.47715 4.54869 0 10.0715 0H34.0001C39.523 0 44.0001 4.47715 44.0001 10C44.0001 15.5228 39.523 20 34.0001 20H10.0715C4.54869 20 0.0715332 15.5228 0.0715332 10Z" fill="#A71E31"/>
<path d="M15.8736 12.2939H14.8247V4.81H15.8736V12.2939ZM13.6579 9.87786L13.0569 10.6911C12.554 10.4789 12.0629 10.1489 11.5836 9.70107C11.1122 9.24536 10.7704 8.76607 10.5583 8.26321C10.4011 8.80536 10.079 9.34357 9.59186 9.87786C9.11257 10.4043 8.60185 10.7893 8.05971 11.0329L7.42328 10.2196C8.154 9.91321 8.76686 9.42214 9.26186 8.74643C9.76471 8.06286 10.0161 7.32821 10.0161 6.5425V5.3875H11.0769V6.49536C11.0769 7.27321 11.3361 7.9725 11.8547 8.59321C12.3811 9.21393 12.9822 9.64214 13.6579 9.87786ZM16.0976 14.8161H9.15578V11.5986H10.2047V13.9675H16.0976V14.8161Z" fill="white"/>
<path d="M25.5171 9.12357H18.54V5.14H19.5889V6.35393H24.48V5.12821H25.5171V9.12357ZM22.5943 12.9304H21.5571V11.0329H17.385V10.1843H26.6839V11.0329H22.5943V12.9304ZM25.5996 14.8043H18.54V11.9757H19.5889V13.9557H25.5996V14.8043ZM24.48 8.275V7.17893H19.5889V8.275H24.48Z" fill="white"/>
<path d="M28.7256 9.37107H29.1852C30.9138 9.37107 32.2535 9.265 33.2042 9.05286L33.3456 9.88964C32.2063 10.1254 30.6702 10.2432 28.7374 10.2432H27.7002V5.61143H32.3674V6.44821H28.7256V9.37107ZM36.8342 8.31036H35.302V10.9268H34.2531V4.81H35.302V7.45H36.8342V8.31036ZM35.4317 13.0836C35.4317 13.6886 35.1292 14.1718 34.5242 14.5332C33.9192 14.9025 33.0706 15.0871 31.9785 15.0871C30.8863 15.0871 30.0377 14.9064 29.4327 14.545C28.8356 14.1836 28.537 13.6964 28.537 13.0836C28.537 12.4629 28.8356 11.9718 29.4327 11.6104C30.0377 11.2489 30.8863 11.0682 31.9785 11.0682C33.0706 11.0682 33.9192 11.2529 34.5242 11.6221C35.1292 11.9836 35.4317 12.4707 35.4317 13.0836ZM33.7227 13.9204C34.147 13.7161 34.3592 13.4371 34.3592 13.0836C34.3592 12.73 34.147 12.4511 33.7227 12.2468C33.2985 12.0346 32.717 11.9286 31.9785 11.9286C31.2399 11.9286 30.6585 12.0346 30.2342 12.2468C29.8177 12.4511 29.6095 12.73 29.6095 13.0836C29.6095 13.4371 29.8177 13.7161 30.2342 13.9204C30.6585 14.1246 31.2399 14.2268 31.9785 14.2268C32.717 14.2268 33.2985 14.1246 33.7227 13.9204Z" fill="white"/>
</svg>
