<svg width="34" height="20" viewBox="0 0 34 20" fill="none" xmlns="http://www.w3.org/2000/svg">
<path d="M0 10C0 4.47715 4.47715 0 10 0H23.9286C29.4514 0 33.9286 4.47715 33.9286 10C33.9286 15.5228 29.4514 20 23.9286 20H10C4.47715 20 0 15.5228 0 10Z" fill="#0CB07D"/>
<path d="M14.9226 11.6575C15.5355 12.0111 15.8419 12.4982 15.8419 13.1189C15.8419 13.7396 15.5355 14.2268 14.9226 14.5804C14.3097 14.9339 13.4455 15.1107 12.3297 15.1107C11.2297 15.1107 10.3694 14.9339 9.74867 14.5804C9.13581 14.2268 8.82938 13.7396 8.82938 13.1189C8.82938 12.4982 9.13581 12.0111 9.74867 11.6575C10.3694 11.2961 11.2297 11.1154 12.3297 11.1154C13.4455 11.1154 14.3097 11.2961 14.9226 11.6575ZM12.3297 11.9639C11.5755 11.9639 10.9822 12.0661 10.5501 12.2704C10.1258 12.4746 9.91367 12.7575 9.91367 13.1189C9.91367 13.4804 10.1258 13.7632 10.5501 13.9675C10.9822 14.1639 11.5755 14.2621 12.3297 14.2621C13.1076 14.2621 13.7087 14.1639 14.133 13.9675C14.5651 13.7632 14.7812 13.4804 14.7812 13.1189C14.7812 12.7575 14.5651 12.4746 14.133 12.2704C13.7087 12.0661 13.1076 11.9639 12.3297 11.9639ZM12.589 9.65393V8.81714H14.734V7.56786H12.7069V6.73107H14.734V4.81H15.783V11.1861H14.734V9.65393H12.589ZM12.5772 5.59964C12.5065 6.91179 12.0665 8.03536 11.2572 8.97036C10.4558 9.8975 9.36367 10.6007 7.98081 11.08L7.37974 10.2314C8.40117 9.96429 9.28902 9.48893 10.0433 8.80536C10.7976 8.11393 11.2572 7.33214 11.4222 6.46H7.88652V5.59964H12.5772Z" fill="white"/>
<path d="M26.1336 8.91143L25.7093 9.77179C24.9079 9.68536 24.1457 9.48893 23.4229 9.1825C22.7 8.86821 22.205 8.49107 21.9379 8.05107C21.6786 8.50679 21.1993 8.88786 20.5 9.19429C19.8086 9.50071 19.0425 9.69321 18.2018 9.77179L17.7421 8.91143C18.6379 8.87214 19.4432 8.69143 20.1582 8.36929C20.8811 8.03929 21.2975 7.6425 21.4075 7.17893H18.2489V6.34214H25.6268V7.17893H22.4918C22.6096 7.63464 23.0379 8.0275 23.7764 8.3575C24.515 8.67964 25.3007 8.86429 26.1336 8.91143ZM22.5036 12.9657H21.4664V11.2804H17.2943V10.4318H26.5932V11.2804H22.5036V12.9657ZM25.5325 14.8043H18.5082V11.9993H19.5454V13.9675H25.5325V14.8043ZM23.5996 5.72929H20.2643V4.90428H23.5996V5.72929Z" fill="white"/>
</svg>
