<svg width="42" height="20" viewBox="0 0 42 20" fill="none" xmlns="http://www.w3.org/2000/svg">
<path d="M0.0715332 10C0.0715332 4.47715 4.10097 0 9.07153 0H32.2144C37.185 0 41.2144 4.47715 41.2144 10C41.2144 15.5228 37.185 20 32.2144 20H9.07153C4.10097 20 0.0715332 15.5228 0.0715332 10Z" fill="#8F5988"/>
<path d="M10.0356 13.9204C8.99611 13.9204 8.1829 13.5982 7.59597 12.9539C7.01611 12.3096 6.72618 11.3275 6.72618 10.0075V9.77179C6.72618 9.04893 6.81811 8.42036 7.00197 7.88607C7.18583 7.34393 7.4404 6.92357 7.76568 6.625C8.09097 6.31857 8.44808 6.09464 8.837 5.95321C9.22593 5.81179 9.65375 5.74107 10.1205 5.74107C10.8347 5.74107 11.457 5.90214 11.9873 6.22429V7.10821C11.3297 6.78607 10.6826 6.625 10.0462 6.625C9.24008 6.625 8.65315 6.90786 8.28543 7.47357C7.91772 8.03929 7.73386 8.75429 7.73386 9.61857V9.98393C7.73386 10.9661 7.90358 11.7243 8.243 12.2586C8.58243 12.785 9.19058 13.0482 10.0674 13.0482C10.5483 13.0482 10.9726 12.9736 11.3403 12.8243V10.7736H9.84468V9.91321H12.2631V13.4607C11.5913 13.7671 10.8488 13.9204 10.0356 13.9204Z" fill="white"/>
<path d="M15.0631 13.7907V6.76643H12.9523V5.87071H18.0968V6.76643H15.986V13.7907H15.0631Z" fill="white"/>
<path d="M18.4384 13.7907L20.7613 9.74821L18.5551 5.87071H19.6052L21.3766 8.98214H21.4084L23.0525 5.87071H24.0283L21.8963 9.76L24.145 13.7907H23.0949L21.2705 10.5143H21.2387L19.393 13.7907H18.4384Z" fill="white"/>
<path d="M24.7894 10.3964V9.53607H28.2792V10.3964H24.7894Z" fill="white"/>
<path d="M28.804 13.7907L31.4027 5.87071H32.3043L34.8818 13.7907H33.906L33.1847 11.5632H30.4056L29.695 13.7907H28.804ZM31.7633 7.26143L30.6814 10.6793H32.8983L31.7952 7.26143H31.7633Z" fill="white"/>
</svg>
