<svg width="24" height="24" viewBox="0 0 24 24" fill="none" xmlns="http://www.w3.org/2000/svg">
<path d="M24 12C24 18.6274 18.6274 24 12 24C5.37258 24 0 18.6274 0 12C0 5.37258 5.37258 0 12 0C18.6274 0 24 5.37258 24 12Z" fill="#F06E00"/>
<path d="M11.5029 17.488C10.2229 17.488 9.2096 17.232 8.46294 16.72L8.76694 15.488C9.05494 15.6693 9.4336 15.824 9.90294 15.952C10.3829 16.08 10.8256 16.144 11.2309 16.144C12.0416 16.144 12.6603 15.9787 13.0869 15.648C13.5136 15.3067 13.7269 14.8213 13.7269 14.192C13.7269 12.9867 12.9216 12.3733 11.3109 12.352L10.2549 12.336V11.072L11.1989 11.056C11.8709 11.0453 12.3989 10.8907 12.7829 10.592C13.1776 10.2827 13.3749 9.856 13.3749 9.312C13.3749 8.224 12.7029 7.68 11.3589 7.68C10.7189 7.68 9.95094 7.89867 9.05494 8.336L8.84694 7.072C9.18827 6.85867 9.63627 6.68267 10.1909 6.544C10.7456 6.39467 11.2736 6.32 11.7749 6.32C12.7776 6.32 13.5776 6.56 14.1749 7.04C14.7723 7.50933 15.0709 8.17067 15.0709 9.024C15.0709 10.2613 14.4043 11.1093 13.0709 11.568C14.6603 11.8773 15.4549 12.7733 15.4549 14.256C15.4549 15.2373 15.0976 16.0213 14.3829 16.608C13.6683 17.1947 12.7083 17.488 11.5029 17.488Z" fill="white"/>
</svg>
