<svg width="54" height="20" viewBox="0 0 54 20" fill="none" xmlns="http://www.w3.org/2000/svg">
<path d="M0 10C0 4.47715 4.47715 0 10 0H43.9286C49.4514 0 53.9286 4.47715 53.9286 10C53.9286 15.5228 49.4514 20 43.9286 20H10C4.47715 20 0 15.5228 0 10Z" fill="#96710A"/>
<path d="M15.8095 10.585H14.7723V4.81H15.8095V10.585ZM15.8095 14.9693H9.17412V11.1743H15.8095V14.9693ZM14.7723 14.1443V11.9993H10.2113V14.1443H14.7723ZM7.99555 5.49357H12.7216C12.6666 6.845 12.2148 7.98821 11.3663 8.92321C10.5255 9.85036 9.42162 10.4946 8.05448 10.8561L7.52412 10.0193C8.50626 9.82286 9.39019 9.38286 10.1759 8.69929C10.9695 8.01571 11.437 7.24179 11.5784 6.3775H7.99555V5.49357Z" fill="white"/>
<path d="M25.8065 10.8914H22.483V12.9539H26.6315V13.8025H17.3326V12.9539H21.434V10.8914H18.0987V10.0429H19.8194L19.5483 7.35571L20.609 7.2025L20.8094 10.0429H23.143L23.5437 7.22607L24.5572 7.40286L24.1212 10.0429H25.8065V10.8914ZM25.8183 6.69571H18.0869V5.85893H25.8183V6.69571Z" fill="white"/>
<path d="M35.7564 14.9693H28.4139V12.4471H34.3186V11.5514H28.3432V10.7029H35.3675V13.2132H29.4511V14.1325H35.7564V14.9693ZM36.5932 9.83071H27.2943V8.99393H30.9714V7.16714H32.0086V8.99393H36.5932V9.83071ZM35.4029 5.21071C35.4029 5.61143 35.3989 5.90214 35.3911 6.08286C35.3754 6.98643 35.2929 7.76429 35.1436 8.41643L34.1418 8.28679C34.2754 7.67393 34.3421 6.93143 34.3421 6.05929H28.3786V5.21071H35.4029Z" fill="white"/>
<path d="M45.4471 10.7029H38.4581V5.82357H45.3528V6.67214H39.4953V9.86607H45.4471V10.7029ZM46.5549 13.72H37.256V12.8714H46.5549V13.72Z" fill="white"/>
</svg>
