<svg width="19" height="19" viewBox="0 0 19 19" fill="none" xmlns="http://www.w3.org/2000/svg">
<path fill-rule="evenodd" clip-rule="evenodd" d="M18.62 9.71564C18.62 9.04201 18.5595 8.39428 18.4473 7.77246H9.5V11.4472H14.6127C14.3925 12.6347 13.7232 13.6409 12.717 14.3145V16.6981H15.7873C17.5836 15.0443 18.62 12.6088 18.62 9.71564Z" fill="#4285F4"/>
<path fill-rule="evenodd" clip-rule="evenodd" d="M9.49992 18.9997C12.0649 18.9997 14.2154 18.149 15.7872 16.6981L12.717 14.3145C11.8663 14.8845 10.7781 15.2213 9.49992 15.2213C7.0256 15.2213 4.93128 13.5501 4.18424 11.3047H1.01038V13.7661C2.57356 16.8708 5.78629 18.9997 9.49992 18.9997Z" fill="#34A853"/>
<path fill-rule="evenodd" clip-rule="evenodd" d="M4.18432 11.3048C3.99432 10.7348 3.88636 10.1259 3.88636 9.49976C3.88636 8.87363 3.99432 8.26476 4.18432 7.69476V5.2334H1.01045C0.367045 6.5159 0 7.96681 0 9.49976C0 11.0327 0.367045 12.4836 1.01045 13.7661L4.18432 11.3048Z" fill="#FBBC05"/>
<path fill-rule="evenodd" clip-rule="evenodd" d="M9.49992 3.77841C10.8947 3.77841 12.147 4.25773 13.1315 5.19909L15.8563 2.47432C14.2111 0.941364 12.0606 0 9.49992 0C5.78628 0 2.57356 2.12886 1.01038 5.23364L4.18424 7.695C4.93128 5.44955 7.0256 3.77841 9.49992 3.77841Z" fill="#EA4335"/>
</svg>
