<svg width="390" height="328" viewBox="0 0 390 328" fill="none" xmlns="http://www.w3.org/2000/svg">
<path d="M35.0896 270.315C37.506 267.16 41.6173 265.901 45.4601 264.844C70.9837 257.763 96.5575 250.815 122.148 243.986" stroke="#BDB7A4" stroke-width="0.5" stroke-linecap="round" stroke-linejoin="round"/>
<path d="M133.693 61.7631L190.731 84.1822" stroke="#BDB7A4" stroke-width="0.5" stroke-linecap="round" stroke-linejoin="round"/>
<path d="M51.1819 29.3259L128.071 59.5481" stroke="#BDB7A4" stroke-width="0.5" stroke-linecap="round" stroke-linejoin="round"/>
<path d="M-5 7.24243L43.4628 26.3054" stroke="#BDB7A4" stroke-width="0.5" stroke-linecap="round" stroke-linejoin="round"/>
<path d="M135.17 56.2256L191.318 78.3594" stroke="#BDB7A4" stroke-width="0.5" stroke-linecap="round" stroke-linejoin="round"/>
<path d="M52.4741 23.6372L128.541 53.6244" stroke="#BDB7A4" stroke-width="0.5" stroke-linecap="round" stroke-linejoin="round"/>
<path d="M-5 1L43.3286 20.0462" stroke="#BDB7A4" stroke-width="0.5" stroke-linecap="round" stroke-linejoin="round"/>
<path d="M40.0901 28.7051C40.3082 30.6181 41.1641 32.464 42.4897 33.8568" stroke="#BDB7A4" stroke-width="0.5" stroke-linecap="round" stroke-linejoin="round"/>
<path d="M42.808 37.1794C42.7409 41.7942 42.6737 46.3921 42.5898 51.0068" stroke="#BDB7A4" stroke-width="0.5" stroke-linecap="round" stroke-linejoin="round"/>
<path d="M39.8887 53.8762C35.3578 61.3772 31.75 69.4487 29.1993 77.8223C28.3938 80.5072 27.8568 83.8634 29.9712 85.7093C31.0955 86.6826 32.6729 86.9175 34.1664 87.0517C37.5058 87.3706 40.8619 87.488 44.2013 87.4041C47.4064 87.3202 50.7122 87.0182 53.5818 85.5583C55.4109 84.6185 56.4345 84.2326 56.5016 81.7658C56.6191 77.2853 55.092 71.8316 53.4307 67.7203C51.4506 62.8371 49.0174 56.8464 46.2653 52.3491" stroke="#BDB7A4" stroke-width="0.5" stroke-linecap="round" stroke-linejoin="round"/>
<path d="M43.4626 59.5985C46.1476 62.3841 47.8928 65.9584 48.9332 69.6838C49.9736 73.4091 51.0308 77.47 51.2154 81.3296" stroke="#BDB7A4" stroke-width="0.5" stroke-linecap="round" stroke-linejoin="round"/>
<path d="M39.4358 62.8202C37.1201 68.0726 35.1735 73.4928 33.6129 79.0304C33.2941 80.1715 33.0088 81.4804 33.7136 82.4369C34.3177 83.2592 35.4085 83.4773 36.4153 83.6283C39.7547 84.0982 44.2687 83.1585 47.6416 82.9068" stroke="#BDB7A4" stroke-width="0.5" stroke-linecap="round" stroke-linejoin="round"/>
<path d="M46.3319 49.4461C46.3152 44.5629 46.2816 39.6797 46.2648 34.7965C46.2648 34.4608 46.2648 34.1084 46.4326 33.8232C46.6004 33.5043 46.9193 33.3197 47.2045 33.1184C49.621 31.4067 51.5675 27.1109 51.2487 24.1742C50.9466 21.2376 46.8857 16.002 42.5227 18.6869" stroke="#BDB7A4" stroke-width="0.5" stroke-linecap="round" stroke-linejoin="round"/>
<path d="M44.4027 20.2643C45.141 21.2376 45.8291 22.4458 45.6612 24.6944C45.5438 26.1543 45.3256 27.7821 44.0503 28.4701" stroke="#BDB7A4" stroke-width="0.5" stroke-linecap="round" stroke-linejoin="round"/>
<path d="M126.427 58.86C126.041 61.2764 127.081 62.3839 128.055 63.4076" stroke="#BDB7A4" stroke-width="0.5" stroke-linecap="round" stroke-linejoin="round"/>
<path d="M128.139 64.6495C128.089 68.0225 128.172 72.5701 128.122 75.943" stroke="#BDB7A4" stroke-width="0.5" stroke-linecap="round" stroke-linejoin="round"/>
<path d="M127.333 77.6712C124.027 83.1418 120.889 89.5185 119.043 95.6434C118.456 97.6068 118.07 100.057 119.614 101.399C120.436 102.104 121.594 102.272 122.668 102.373C125.101 102.607 127.551 102.691 130.001 102.624C133.022 102.54 139.247 102.893 138.979 99.117C138.442 91.3811 132.887 76.2281 131.511 77.0503" stroke="#BDB7A4" stroke-width="0.5" stroke-linecap="round" stroke-linejoin="round"/>
<path d="M129.867 82.1014C131.915 82.2525 132.67 86.9846 133.442 89.7031C134.197 92.4216 135.422 96.1973 135.556 99.0164" stroke="#BDB7A4" stroke-width="0.5" stroke-linecap="round" stroke-linejoin="round"/>
<path d="M126.511 84.6857C124.816 88.5285 123.406 92.4887 122.248 96.5161C122.014 97.3384 121.812 98.3117 122.316 98.9997C122.752 99.587 123.557 99.7716 124.296 99.8723C126.746 100.208 131.125 99.9729 133.492 99.9729" stroke="#BDB7A4" stroke-width="0.5" stroke-linecap="round" stroke-linejoin="round"/>
<path d="M130.841 74.7851C130.841 71.2276 130.807 67.6533 130.79 64.0957C130.79 63.844 130.79 63.5923 130.908 63.3742C131.025 63.1392 131.26 63.005 131.461 62.854C133.223 61.6122 134.348 58.4742 134.415 56.3262C134.516 52.8358 130.589 51.1745 128.055 52.3324" stroke="#BDB7A4" stroke-width="0.5" stroke-linecap="round" stroke-linejoin="round"/>
<path d="M129.431 53.4902C129.968 54.195 130.471 55.0844 130.337 56.7289C130.253 57.7861 129.129 60.0851 128.189 60.5885" stroke="#BDB7A4" stroke-width="0.5" stroke-linecap="round" stroke-linejoin="round"/>
<path d="M54.9912 58.0043C78.887 65.4046 97.3459 72.4189 116.677 79.4165" stroke="#BDB7A4" stroke-width="0.5" stroke-linecap="round" stroke-linejoin="round"/>
<path d="M143.611 88.0754C150.759 90.6429 174.638 98.8823 183.733 101.685" stroke="#BDB7A4" stroke-width="0.5" stroke-linecap="round" stroke-linejoin="round"/>
<path d="M5.16943 42.6332C13.8954 46.9123 24.1317 49.9328 33.3947 52.8191" stroke="#BDB7A4" stroke-width="0.5" stroke-linecap="round" stroke-linejoin="round"/>
<path d="M37.2708 95.9454V237.793" stroke="#BDB7A4" stroke-width="0.5" stroke-linecap="round" stroke-linejoin="round"/>
<path d="M27.0346 93.395C27.0346 137.461 26.1284 191.68 26.1284 235.746" stroke="#BDB7A4" stroke-width="0.5" stroke-linecap="round" stroke-linejoin="round"/>
<path d="M125.42 112.659V222.59" stroke="#BDB7A4" stroke-width="0.5" stroke-linecap="round" stroke-linejoin="round"/>
<path d="M133.022 111.132V184.582" stroke="#BDB7A4" stroke-width="0.5" stroke-linecap="round" stroke-linejoin="round"/>
<path d="M122.937 10.5986C150.86 25.0637 173.849 36.5249 195.748 47.9358" stroke="#BDB7A4" stroke-width="0.5" stroke-linecap="round" stroke-linejoin="round"/>
<path d="M307.139 38.589C321.05 54.2958 345.567 82.9238 358.488 99.4528" stroke="#BDB7A4" stroke-width="0.5" stroke-linecap="round" stroke-linejoin="round"/>
<path d="M337.966 81.7659C337.529 83.6453 337.378 85.5919 337.479 87.5217" stroke="#BDB7A4" stroke-width="0.5" stroke-linecap="round" stroke-linejoin="round"/>
<path d="M339.375 90.8107C339.307 93.0425 340.6 95.0898 342.026 96.835C343.452 98.5634 345.08 100.208 345.886 102.305C346.691 104.386 346.423 107.138 344.56 108.38C343.687 108.967 342.597 109.135 341.556 109.253C339.257 109.488 336.925 109.504 334.609 109.286" stroke="#BDB7A4" stroke-width="0.5" stroke-linecap="round" stroke-linejoin="round"/>
<path d="M316.721 58.7091C317.325 62.8036 317.291 66.982 316.587 71.0598" stroke="#BDB7A4" stroke-width="0.5" stroke-linecap="round" stroke-linejoin="round"/>
<path d="M317.946 76.4294C318.533 80.4233 320.631 84.0143 322.393 87.639C324.155 91.2636 325.665 95.291 324.96 99.2681C324.876 99.7547 324.205 100.325 324.02 99.8554" stroke="#BDB7A4" stroke-width="0.5" stroke-linecap="round" stroke-linejoin="round"/>
<path d="M333.015 91.6665C331.622 93.848 330.246 96.0463 328.853 98.2278" stroke="#BDB7A4" stroke-width="0.5" stroke-linecap="round" stroke-linejoin="round"/>
<path d="M333.3 207.336V297.164" stroke="#BDB7A4" stroke-width="0.5" stroke-linecap="round" stroke-linejoin="round"/>
<path d="M339.543 200.758V282.766" stroke="#BDB7A4" stroke-width="0.5" stroke-linecap="round" stroke-linejoin="round"/>
<path d="M345.701 214.334C347.883 211.179 350.886 208.578 354.343 206.867" stroke="#BDB7A4" stroke-width="0.5" stroke-linecap="round" stroke-linejoin="round"/>
<path d="M358.019 206.732C363.858 204.786 370.101 204.114 376.209 204.735" stroke="#BDB7A4" stroke-width="0.5" stroke-linecap="round" stroke-linejoin="round"/>
<path d="M357.431 200.758C357.8 196.311 359.646 191.881 363.002 188.928C366.358 185.975 371.258 184.682 375.487 186.142" stroke="#BDB7A4" stroke-width="0.5" stroke-linecap="round" stroke-linejoin="round"/>
<path d="M372.852 178.926C372.936 174.228 376.863 169.898 381.528 169.361" stroke="#BDB7A4" stroke-width="0.5" stroke-linecap="round" stroke-linejoin="round"/>
<path d="M379.901 131.571V164.931" stroke="#BDB7A4" stroke-width="0.5" stroke-linecap="round" stroke-linejoin="round"/>
<path d="M355.031 113.683C356.424 116.754 357.75 117.744 356.961 119.959C356.172 122.174 352.178 121.419 349.829 121.285" stroke="#BDB7A4" stroke-width="0.5" stroke-linecap="round" stroke-linejoin="round"/>
<path d="M353.555 102.742V108.514" stroke="#BDB7A4" stroke-width="0.5" stroke-linecap="round" stroke-linejoin="round"/>
<path d="M359.327 126.671C363.841 125.597 368.674 125.983 372.953 127.762" stroke="#BDB7A4" stroke-width="0.5" stroke-linecap="round" stroke-linejoin="round"/>
<path d="M343.654 242.995C359.042 242.76 374.463 243.599 389.734 245.529" stroke="#BDB7A4" stroke-width="0.5" stroke-linecap="round" stroke-linejoin="round"/>
<path d="M157.119 8.26599C172.054 16.4718 198.148 31.4402 212.697 40.3173" stroke="#BDB7A4" stroke-width="0.5" stroke-linecap="round" stroke-linejoin="round"/>
<path d="M186.25 105.326L185.059 108.179C184.975 108.397 182.441 109.991 182.257 110.142L175.309 116.536C175.108 116.703 174.974 116.905 174.873 117.14L172.49 123.533C172.222 124.809 172.624 126.151 173.581 127.04L177.373 130.262L179.656 122.023L179.236 131.202C179.236 131.622 179.437 132.007 179.756 132.276L183.985 135.884L183.062 128.601C183.045 128.416 183.062 128.232 183.096 128.047L184.203 123.852C184.203 123.852 184.22 123.785 184.237 123.768L185.21 120.848L189.506 117.576L191.822 115.797C192.443 115.327 192.577 114.455 192.124 113.817L186.234 105.326H186.25Z" fill="#F2C1A9"/>
<path d="M236.71 101.248L236.844 101.315C240.133 96.4155 239.546 90.173 238.136 84.434C236.727 78.695 234.646 73.107 233.018 67.4351C232.347 65.1194 231.86 62.6694 232.347 60.3201C232.834 57.9707 234.512 55.7221 236.861 55.2187L237.096 55.5208C237.784 54.967 238.573 54.5139 239.412 54.2119C239.932 54.0105 240.486 53.8762 241.056 53.9098C241.576 53.9434 242.08 54.1112 242.566 54.279C244.379 54.8999 246.275 55.5879 247.517 57.0142C250.336 59.5146 252.736 64.0789 254.112 67.9217C255.571 69.8515 255.991 72.4358 256.948 74.7012C257.568 76.1779 258.441 77.5539 259.129 78.997C260.757 82.4203 261.344 86.2296 261.915 89.9884H261.881C261.999 90.4583 262.116 90.9282 262.233 91.398C262.502 92.4552 262.77 93.5124 263.072 94.5528H263.056C265.086 101.852 262.452 115.596 257.552 121.352C255.521 123.735 252.467 125.043 249.329 125.379C249.715 127.091 239.16 124.339 237.717 125.815C237.717 125.815 229.393 139.324 232.599 154.964C233.958 156.575 235.904 159.796 235.317 161.273C234.243 165.301 254.33 192.72 251.611 195.355L232.632 200.842C226.205 188.559 224.745 185.521 219.275 176.158C215.348 169.429 213.536 164.831 207.998 158.219C203.484 143.888 202.93 134.021 202.93 134.021C202.343 130.329 214.408 120.295 211.858 117.576C210.884 116.552 209.374 114.589 209.374 114.589C208.183 114.455 208.602 107.424 208.283 106.954C208.233 106.87 208.199 106.752 208.216 106.669H208.099C208.585 103.01 210.297 99.6206 212.193 96.4658C216.204 89.7703 221.238 83.4607 224.41 76.4296H224.443C227.783 85.4241 228.739 95.2744 227.178 104.722C226.876 106.518 226.474 108.33 225.635 109.941C226.155 109.605 226.658 109.253 227.145 108.867L227.078 108.8C231.81 103.145 234.126 95.5261 233.354 88.1929H233.32C233.488 85.8604 233.236 83.5279 232.699 81.2121C233.639 83.0412 234.562 84.8703 235.401 86.733C236.576 89.3676 237.583 92.1532 237.801 95.0395C237.952 97.1538 237.633 99.3689 236.71 101.265V101.248ZM257.132 83.1251C257.115 82.8734 256.864 81.7827 256.545 81.9169C256.511 81.9169 256.494 81.9505 256.461 81.984C256.192 82.3532 256.511 83.8635 256.847 84.0481C257.25 84.2662 257.149 83.36 257.132 83.1251ZM242.734 84.3669C242.684 84.2326 242.6 84.1152 242.482 84.0313C242.097 83.7796 241.828 83.897 241.677 84.1655C241.61 84.2998 241.56 84.4844 241.543 84.6857C241.492 85.5248 241.492 86.3806 241.895 87.1525C241.962 87.27 242.029 87.4042 242.147 87.4713C242.684 87.8405 243.087 86.9344 243.12 86.5316C243.187 85.8268 243.036 84.9878 242.734 84.3333V84.3669Z" fill="#FFD7D5"/>
<path d="M306.669 122.14H306.803C306.854 122.392 306.887 122.661 306.937 122.946C309.757 124.96 312.727 124.909 316.452 124.456C320.614 123.953 324.507 122.023 327.88 119.539C328.87 118.818 329.86 117.945 330.464 116.922C330.347 116.385 330.212 115.864 330.061 115.344C329.071 113.213 328.148 111.065 327.242 108.9C327.813 108.968 328.383 109.085 328.954 109.202C331.521 110.495 333.703 112.441 334.81 115.092C336.102 118.163 336.555 121.503 337.009 124.809C339.761 145.08 342.513 165.351 345.248 185.622C345.416 186.881 345.584 188.156 345.433 189.398C344.896 193.526 341.086 196.311 337.613 198.594C334.189 200.825 322.376 203.712 318.969 205.944C318.969 205.944 319.02 205.423 319.154 205.256C319.489 204.853 310.26 210.29 306.535 210.39C298.144 210.592 290.694 215.072 283.679 219.67C279.803 222.204 267.637 222.103 263.761 224.654C263.526 221.835 271.413 212.773 270.02 210.307L270.137 210.239C267.318 205.071 264.516 199.902 261.713 194.734C258.475 188.777 256.595 185.37 254.85 180.101L254.934 180.068C254.212 175.889 252.903 171.811 251.091 167.985C256.746 168.422 264.331 171.191 269.55 173.288C276.145 175.94 283.478 176.779 290.509 175.671C295.006 174.966 303.229 174.094 307.776 174.312H307.944C308.179 167.834 307.944 161.223 306.921 154.964C306.249 150.886 305.679 146.791 304.957 142.714C304.353 139.257 303.799 135.783 303.246 132.31C302.809 129.574 302.373 126.822 301.937 124.087C301.45 120.983 302.306 119.388 304.387 117.526L304.437 117.593C304.79 117.308 305.159 117.039 305.545 116.787C305.914 118.549 306.3 120.328 306.686 122.14H306.669Z" fill="#EDEBEB"/>
<path d="M288.496 33.4203C288.428 34.2258 288.261 35.0313 287.875 35.7361C287.724 36.0046 287.522 36.2731 287.304 36.4912C286.65 37.1289 285.744 37.4813 284.905 37.2128C284.267 37.0114 283.831 36.5416 283.512 35.9542C283.193 35.3669 283.008 34.6621 282.874 34.0245C282.538 32.296 282.354 30.5508 282.304 28.8056C282.287 27.8659 282.304 26.8926 282.673 26.0368C283.042 25.1978 283.713 24.5265 284.368 23.9057C285.341 22.9827 286.331 22.0933 287.506 21.4557C287.589 21.4053 287.657 21.3718 287.74 21.3214C288.999 20.6837 292.322 20.6334 293.698 21.0026L293.798 21.4221C293.345 21.5228 292.909 21.7074 292.54 22.0262C292.036 22.4457 291.734 23.0163 291.415 23.5868C290.375 25.5166 289.318 27.5135 289.033 29.6782C289.016 29.8796 288.999 30.0978 289.117 30.2488C289.234 30.3998 289.419 30.4334 289.62 30.4669C289.368 31.4906 288.999 32.4806 288.512 33.4203H288.496Z" fill="#FAF5F0" stroke="#461412" stroke-width="0.5" stroke-miterlimit="10"/>
<path d="M296.013 26.5404C295.644 27.4298 295.107 28.2352 294.419 28.8897L294.302 28.7722C293.077 29.9469 291.348 30.5845 289.653 30.4671C289.636 30.4671 289.603 30.4671 289.586 30.4671C289.402 30.4503 289.2 30.3999 289.083 30.2489C288.965 30.0979 288.965 29.863 288.999 29.6784C289.284 27.4969 290.341 25.5167 291.382 23.587C291.684 23.0164 292.003 22.4459 292.506 22.0263C292.875 21.7075 293.311 21.5229 293.765 21.4222C294.855 21.2041 296.097 21.4726 297.205 21.7746L297.926 21.825C297.842 23.5366 297.289 25.2147 296.332 26.6243L296.013 26.5404Z" fill="#FFF6F3"/>
<path d="M294.419 28.8897C295.107 28.2353 295.644 27.4298 296.013 26.5404L296.332 26.6243C297.289 25.2147 297.842 23.5366 297.926 21.825C297.96 21.2545 297.926 20.6671 297.842 20.0966C297.591 18.3514 296.852 16.7237 296.097 15.1463C294.268 11.3874 292.221 7.74595 289.939 4.23877H300.36C304.571 9.10519 308.28 15.6497 308.532 21.9928C308.716 26.5404 305.461 30.2657 301.736 32.5983C301.635 32.6654 301.517 32.7325 301.417 32.7996C300.561 33.3198 299.688 33.7561 298.832 34.1253C295.627 35.4678 290.895 36.2397 287.438 36.6256L287.271 36.5082C287.505 36.29 287.69 36.0215 287.841 35.753C288.227 35.0483 288.395 34.2428 288.462 33.4373C288.932 32.4976 289.301 31.5075 289.569 30.4839C289.586 30.4839 289.62 30.4839 289.637 30.4839C291.331 30.6014 293.06 29.9637 294.285 28.789L294.402 28.9065L294.419 28.8897Z" fill="#FFE580"/>
<path d="M277.84 24.6609C277.974 24.4763 278.108 24.3085 278.243 24.1239C278.712 23.5198 279.165 22.8989 279.635 22.2948C280.038 21.7746 280.441 21.2208 281.011 20.8684C282.538 19.8448 285.744 20.7006 287.489 21.3047V21.439C286.348 22.0767 285.341 22.9828 284.384 23.889C283.713 24.5099 283.059 25.1811 282.689 26.0201C282.32 26.876 282.303 27.8492 282.32 28.789C282.371 30.5342 282.555 32.2961 282.891 34.0078C283.025 34.6622 283.21 35.3502 283.528 35.9376L283.377 36.0886C283.143 36.3907 282.908 36.6927 282.689 36.9948C281.951 37.4478 281.028 37.5485 280.273 37.4814C279.585 37.4143 279.014 37.2297 278.796 37.0115C278.243 36.4746 277.957 35.7194 277.739 34.9811C277.605 34.5448 277.487 34.1085 277.387 33.6554C276.95 31.7088 276.783 29.7119 276.883 27.7318C276.917 27.0438 277.001 26.3558 277.252 25.7181C277.404 25.3321 277.638 24.9797 277.873 24.6441L277.84 24.6609Z" fill="#FAF5F0" stroke="#461412" stroke-width="0.5" stroke-miterlimit="10"/>
<path d="M306.804 122.124H306.669C306.283 120.345 305.897 118.549 305.528 116.787C302.776 103.849 300.209 91.7839 294.99 77.1343L295.225 76.7819C294.336 75.5905 292.993 74.6675 291.533 74.4829L291.567 74.1976C287.204 73.0062 283.26 70.3549 280.491 66.7806C280.24 66.6631 279.988 66.5624 279.719 66.4617C277.991 63.7264 275.759 60.7059 273.192 57.8028C272.554 56.6785 272.101 55.4535 271.849 54.195C270.188 50.7717 268.208 47.4827 265.959 44.4118C265.171 43.3378 264.298 42.1128 264.499 40.7871H264.617C264.583 40.4012 264.566 40.032 264.6 39.6628C265.489 39.7635 266.396 39.7635 267.268 39.7467C268.258 39.7132 269.265 39.6461 270.255 39.5286C270.608 39.9985 271.01 40.4348 271.43 40.8375L271.396 40.8711C273.494 42.868 275.407 45.0662 277.135 47.3988C277.035 46.6269 277.018 45.8549 277.118 45.083H277.102C277.303 43.3546 277.37 41.6094 277.286 39.881C277.236 39.4782 277.219 39.0755 277.219 38.6728C278.192 38.4714 279.182 38.2868 280.173 38.0854L280.223 37.5317C280.995 37.5988 281.901 37.4981 282.639 37.045C282.874 36.743 283.109 36.4409 283.327 36.1389L283.478 35.9879C283.797 36.5752 284.25 37.045 284.871 37.2464C285.727 37.5149 286.633 37.1457 287.271 36.5248L287.439 36.6423C290.895 36.2563 295.628 35.5012 298.833 34.142C299.689 33.7728 300.561 33.3365 301.417 32.8163C301.602 33.068 301.786 33.3365 301.954 33.5882C308.331 43.0693 310.16 55.1683 311.183 66.6127C311.636 68.509 312.09 70.3884 312.543 72.2846C318.382 84.1151 322.192 96.7342 327.226 108.917C328.115 111.082 329.055 113.23 330.045 115.361C330.196 115.881 330.33 116.401 330.448 116.938C329.844 117.962 328.837 118.834 327.863 119.556C324.491 122.04 320.597 123.953 316.436 124.473C312.71 124.926 309.74 124.976 306.921 122.963C306.871 122.694 306.837 122.409 306.787 122.14L306.804 122.124Z" fill="#FAF5F0"/>
<path d="M277.252 38.1527H276.749C274.651 38.7903 272.487 39.2434 270.288 39.4951C269.298 39.6126 268.292 39.6797 267.302 39.7133C266.412 39.7468 265.506 39.73 264.633 39.6294C263.341 39.4783 262.099 39.1595 261.009 38.4883C257.351 36.2396 256.746 31.2222 256.864 26.9263C257.048 19.0561 258.29 11.2027 260.539 3.6514L260.908 3.68496C263.526 3.55072 266.144 3.41647 268.761 3.28223C267.352 10.4644 266.228 17.6801 265.372 24.9462C265.254 25.9866 265.137 27.0606 265.372 28.0842C265.59 29.1078 266.228 30.1147 267.218 30.4838C267.956 30.7691 268.778 30.6852 269.567 30.7859L269.6 30.6852C270.037 30.8362 270.507 30.9201 270.96 30.9369C270.893 31.5075 270.842 32.078 270.809 32.6486C270.742 33.689 270.775 34.8468 271.513 35.5852C272.151 36.2229 273.158 36.3403 274.014 36.1054C274.87 35.8705 275.608 35.3167 276.279 34.7294L276.648 34.8301C276.833 34.4273 277.068 34.0581 277.336 33.7057C277.437 34.142 277.555 34.5951 277.689 35.0314C277.907 35.7698 278.192 36.5249 278.746 37.0619C278.964 37.2801 279.535 37.4646 280.223 37.5318L280.172 38.0855C279.199 38.2869 278.209 38.4883 277.219 38.6729C277.219 38.5051 277.219 38.354 277.219 38.1862L277.252 38.1527Z" fill="#FFE580"/>
<path d="M275.49 24.6609H277.84C277.605 24.9966 277.37 25.349 277.219 25.7349C276.967 26.3726 276.883 27.0606 276.849 27.7486C276.732 29.7287 276.9 31.7256 277.353 33.6722C277.084 34.0246 276.849 34.3938 276.665 34.7965L276.296 34.6958C275.624 35.2832 274.886 35.8369 274.03 36.0719C273.174 36.3068 272.151 36.1893 271.53 35.5517C270.792 34.8133 270.758 33.6554 270.825 32.615C270.859 32.0445 270.909 31.4739 270.976 30.9034C271.077 30.0476 271.194 29.1917 271.362 28.3527C271.597 27.1109 271.983 25.7853 273.023 25.0805C273.728 24.5938 274.601 24.4931 275.473 24.3589L275.524 24.6609H275.49Z" fill="#FAF5F0"/>
<path d="M260.27 323.006H260.22C263.173 308.558 263.694 275.701 263.542 260.968H263.677C263.509 259.575 263.324 258.199 263.123 256.839V256.756C266.362 255.749 269.567 254.591 272.554 252.98C272.973 252.745 273.393 252.51 273.812 252.258L274.517 252.544C277.806 270.784 269.684 308.205 273.342 324.097H273.527C273.477 324.785 273.41 325.456 273.326 326.127H271.111V326.245C267.15 326.245 263.24 326.245 259.381 326.245C259.7 325.171 259.985 324.08 260.253 323.006H260.27Z" fill="#EDEBEB"/>
<path d="M260.606 210.793C261.479 213.109 262.687 215.827 263.241 218.244C264.499 220.006 263.392 256.672 263.123 256.756C261.076 257.41 258.676 259.709 256.411 260.179C252.686 260.934 244.547 262.461 241.073 263.183C239.194 263.569 236.492 251.554 235.418 253.148C235.284 253.332 240.671 227.389 240.536 227.574C240.368 225.913 240.066 224.285 239.597 222.691L239.748 222.64C237.818 214.938 235.15 207.773 232.062 200.96L232.616 200.842C236.375 200.356 243.725 198.459 246.98 195.875C248.323 195.036 249.648 194.147 250.924 193.224C254.162 198.98 257.451 204.769 260.589 210.793H260.606Z" fill="#93C4CF"/>
<path d="M233.337 88.1928C234.109 95.526 231.776 103.144 227.044 108.8L227.111 108.867C226.625 109.253 226.121 109.605 225.601 109.941C226.44 108.346 226.843 106.517 227.145 104.739C228.722 95.291 227.783 85.4407 224.443 76.463H224.41C225.534 73.9795 226.423 71.412 226.96 68.7271L227.111 68.6768C228.437 73.0565 230.602 77.1175 232.716 81.212C233.236 83.5277 233.505 85.8603 233.337 88.1928Z" fill="#F2C1A9"/>
<path d="M232.582 154.947C231.038 152.48 231.256 148.688 231.76 146.405C231.86 146.54 235.519 148.839 235.602 148.99L235.72 148.923C241.157 153.487 246.644 160.031 249.95 166.458L250.235 166.307C250.521 166.861 250.806 167.432 251.074 168.002C252.887 171.828 254.179 175.923 254.917 180.084L254.833 180.118C256.562 185.387 258.458 188.794 261.697 194.751C264.516 199.919 267.318 205.088 270.121 210.256L270.003 210.323C271.396 212.79 272.235 215.559 272.487 218.378C272.571 219.402 272.654 220.895 272.738 222.053C272.772 222.523 274.836 253.634 274.718 253.718L263.14 256.84C262.083 255.094 264.751 218.277 262.72 217.891C262.418 217.724 261.462 213.109 260.589 210.793C257.451 204.752 254.162 198.963 250.923 193.224C244.815 182.367 238.908 171.61 234.663 159.478C234.529 158.152 233.455 156.34 232.582 154.93V154.947Z" fill="#EDEBEB"/>
<path d="M157.69 313.491C164.754 312.182 171.651 309.816 178.38 307.433C183.448 305.621 204.995 301.493 204.474 295.184L203.518 288.924C203.484 288.471 203.468 288.018 203.451 287.565C214.862 279.997 230.334 271.858 239.664 263.619L239.58 263.434C240.285 263.099 240.989 262.797 241.711 262.511C241.996 264.089 242.164 265.683 242.181 267.277H242.701C243.238 280.081 242.634 313.24 239.11 326.295C211.103 326.362 184.589 326.48 154.971 326.48C156.112 323.291 156.968 320.002 157.488 316.663C157.589 315.606 157.656 314.549 157.673 313.491H157.69Z" fill="#EDEBEB"/>
<path d="M242.466 262.595C247.685 261.135 252.904 259.676 258.106 258.216C259.784 257.746 261.462 257.276 263.123 256.772V256.856C263.358 258.232 263.526 259.592 263.694 260.968H263.559C263.694 275.718 263.19 308.575 260.237 323.006H260.287C260.019 324.114 259.733 325.188 259.414 326.262C252.534 326.262 245.788 326.278 239.143 326.295C242.667 313.24 243.271 280.081 242.734 267.26H242.214C242.197 265.666 242.03 264.072 241.744 262.495C241.946 262.411 242.147 262.327 242.348 262.26L242.483 262.595H242.466Z" fill="#93C4CF"/>
<path d="M143.493 300.184C140.103 294.848 138.123 292.046 138.492 286.273C139.079 277.43 135.337 270.516 136.294 261.723C139.247 234.32 132.048 206.883 143.644 181.561C147.268 173.657 151.464 162.565 158.528 157.095C161.465 154.829 165.022 153.655 168.546 152.665C172.658 151.507 176.803 150.517 180.981 149.694C181.4 149.896 181.937 149.762 182.391 149.594C182.693 149.493 182.995 149.376 183.297 149.258C185.008 148.587 186.653 147.698 188.146 146.624L188.096 146.54C189.875 144.811 192.191 142.68 194.422 140.599C196.084 139.055 197.695 137.545 199.02 136.27C199.96 135.347 203.115 133.182 205.414 135.548C205.347 135.615 205.296 135.666 205.246 135.716C205.28 135.75 205.313 135.783 205.33 135.817C204.357 136.488 203.501 137.31 202.796 138.267C203.283 146.875 207.511 156.558 211.74 163.958C218.671 176.091 226.155 187.921 232.078 200.96C235.183 207.789 237.851 214.938 239.764 222.64L239.613 222.691C240.066 224.285 240.385 225.93 240.553 227.574C237.129 232.642 233.723 237.71 230.3 242.777L230.384 242.844C229.628 243.835 228.84 244.791 228.017 245.748C226.86 246.436 225.702 247.124 224.544 247.828C222.966 248.768 234.344 249.792 235.586 251.151C241.711 257.88 244.597 260.448 238.22 267.261C237.532 267.999 217.58 292.985 217.58 292.985C218.083 299.295 183.481 305.621 178.414 307.434C171.684 309.833 158.948 320.573 157.723 313.492C157.236 310.723 155.558 310.773 152.135 308.709C148.46 306.477 143.526 300.184 143.526 300.184H143.493Z" fill="#EDEBEB"/>
<path d="M238.976 44.5628C239.999 44.9488 240.956 45.3515 241.828 45.7543C257.837 53.0707 268.342 68.7775 269.399 86.263C269.802 92.9418 267.486 103.396 274.618 107.34L274.433 107.86C272.99 107.541 271.631 106.803 270.49 105.846C268.845 104.453 267.604 102.641 266.463 100.812C265.338 99.0332 264.281 97.2041 263.291 95.3582H263.257C263.19 95.1736 263.14 94.989 263.09 94.8044C262.788 93.764 262.519 92.7068 262.251 91.6497C262.133 91.1798 262.016 90.7267 261.898 90.2568H261.932C261.361 86.498 260.774 82.6887 259.163 79.2654C258.475 77.8223 257.602 76.4463 256.998 74.9696C256.042 72.7042 255.639 70.1199 254.179 68.1901C252.803 64.3473 250.403 59.783 247.601 57.2826C246.359 55.8395 244.446 55.1515 242.651 54.5474C242.164 54.3796 241.661 54.2118 241.14 54.1782C240.587 54.1446 240.033 54.2957 239.496 54.4803C238.657 54.7823 237.868 55.2354 237.18 55.7892L236.945 55.4871C234.596 55.9905 232.901 58.2391 232.431 60.5885C231.944 62.9378 232.431 65.3878 233.102 67.7035C234.73 73.3754 236.794 78.9634 238.204 84.7024C239.613 90.4414 240.201 96.6839 236.895 101.584L236.761 101.517C237.684 99.6205 238.002 97.4055 237.851 95.2911C237.65 92.4048 236.643 89.636 235.468 86.9846C234.646 85.1219 233.706 83.2928 232.784 81.4637C230.686 77.3692 228.504 73.3083 227.179 68.9285L227.028 68.9788C226.491 71.6805 225.601 74.2312 224.477 76.698C221.289 83.7291 216.254 90.0387 212.244 96.7174C210.348 99.8722 208.619 103.262 208.133 106.903H208.25C208.233 107.004 208.25 107.122 208.317 107.205C208.619 107.659 207.831 110.729 208.2 111.132L209.374 114.623C210.381 115.411 210.398 116.67 211.573 116.804L211.858 117.626C212.982 118.482 211.64 117.24 212.613 118.264C215.18 120.982 208.686 132.427 202.931 134.088C202.931 134.088 203.736 127.93 203.434 127.007C203.434 126.99 203.434 126.973 203.417 126.94C200.061 119.942 192.526 116.099 188.415 109.622C176.753 91.2805 172.725 59.4641 196.302 48.2546L196.336 48.2882C197.812 46.845 199.574 45.6871 201.487 44.8817C207.898 39.4111 218.923 39.5454 228.588 41.5759C232.381 42.3813 235.972 43.4721 238.992 44.63L238.976 44.5628Z" fill="#F2C1A9"/>
<path d="M205.498 135.649C205.498 135.649 205.43 135.582 205.414 135.548C203.132 133.182 199.977 135.347 199.02 136.27C197.695 137.562 196.084 139.072 194.422 140.599C192.19 142.68 189.875 144.811 188.096 146.54" stroke="#461412" stroke-width="0.5" stroke-linecap="round" stroke-linejoin="round"/>
<path d="M241.744 84.434C241.895 84.1655 242.164 84.0481 242.55 84.2998C242.667 84.3669 242.735 84.5011 242.802 84.6354C243.087 85.2898 243.255 86.1289 243.188 86.8337C243.154 87.2196 242.751 88.1426 242.214 87.7734C242.097 87.6895 242.03 87.572 241.963 87.4546C241.56 86.6826 241.577 85.8268 241.61 84.9878C241.61 84.7864 241.661 84.6018 241.744 84.4676V84.434Z" fill="#461412" stroke="#461412" stroke-width="0.5" stroke-linecap="round" stroke-linejoin="round"/>
<path d="M256.528 82.2523C256.528 82.2523 256.579 82.202 256.612 82.1852C256.931 82.0342 257.166 83.1417 257.2 83.3934C257.233 83.6284 257.334 84.5513 256.914 84.3164C256.579 84.1318 256.26 82.6047 256.545 82.2523H256.528Z" fill="#461412" stroke="#461412" stroke-width="0.5" stroke-linecap="round" stroke-linejoin="round"/>
<path d="M241.342 75.5403C239.177 76.8324 238.959 76.6646 237.096 76.5136" stroke="#461412" stroke-width="0.5" stroke-linecap="round" stroke-linejoin="round"/>
<path d="M253.424 83.8298C253.793 85.0548 254.364 86.2463 255.253 87.1692C256.31 88.2767 257.938 88.7634 258.844 90.0219C259.935 91.5322 259.482 93.6298 258.76 95.1904" stroke="#461412" stroke-width="0.5" stroke-linecap="round" stroke-linejoin="round"/>
<path d="M255.102 72.8887C254.515 73.2411 253.81 73.4089 253.122 73.3585" stroke="#461412" stroke-width="0.5" stroke-linecap="round" stroke-linejoin="round"/>
<path d="M244.194 55.4535C245.352 55.6549 246.493 56.3093 247.567 57.2658C250.37 59.7661 252.769 64.3305 254.145 68.1733C254.28 68.5425 254.397 68.9117 254.514 69.2641" stroke="#461412" stroke-width="0.5" stroke-linecap="round" stroke-linejoin="round"/>
<path d="M262.989 94.5529C262.989 94.5529 263.039 94.7207 263.056 94.8046C265.07 102.104 262.435 115.848 257.535 121.603C255.505 123.986 252.45 125.278 249.312 125.631C248.776 125.698 248.239 125.715 247.702 125.732C244.043 125.765 240.62 126.151 237.197 124.825" stroke="#461412" stroke-width="0.5" stroke-linecap="round" stroke-linejoin="round"/>
<path d="M209.19 47.936C216.422 47.2815 221.809 47.936 228.74 50.0671" stroke="#461412" stroke-width="0.5" stroke-linecap="round" stroke-linejoin="round"/>
<path d="M183.951 149.141C183.733 149.174 183.515 149.208 183.297 149.258C182.525 149.392 181.753 149.543 180.981 149.694C176.803 150.5 172.641 151.49 168.547 152.665C165.023 153.655 161.465 154.829 158.528 157.095C151.464 162.565 147.269 173.674 143.644 181.561C132.468 205.944 138.912 232.541 136.294 258.383C136.294 258.518 136.344 259.29 136.328 259.424C136.328 259.558 136.512 263.048 136.512 263.199C135.858 269.408 138.744 276.171 138.425 282.397C137.871 293.472 143.728 304.245 154.988 310.488C164.57 315.807 170.997 316.294 181.887 314.968C182.24 314.918 186.888 313.374 187.24 313.374" stroke="#461412" stroke-width="0.5" stroke-linecap="round" stroke-linejoin="round"/>
<path d="M180.461 208.242C180.21 231.501 184.17 244.002 179.891 267.764" stroke="#461412" stroke-width="0.5" stroke-linecap="round" stroke-linejoin="round"/>
<path d="M202.763 137.243C202.763 137.579 202.779 137.914 202.796 138.25C203.283 146.858 207.512 156.541 211.74 163.941C218.671 176.074 226.155 187.904 232.079 200.943C235.183 207.772 237.851 214.921 239.764 222.623" stroke="#461412" stroke-width="0.5" stroke-linecap="round" stroke-linejoin="round"/>
<path d="M235.72 148.922C241.157 153.487 246.644 160.031 249.95 166.458C250.135 166.811 250.302 167.163 250.487 167.516" stroke="#461412" stroke-width="0.5" stroke-linecap="round" stroke-linejoin="round"/>
<path d="M234.579 159.226C234.613 159.31 234.646 159.394 234.68 159.494C238.925 171.627 244.832 182.366 250.94 193.24C254.179 198.996 257.468 204.786 260.606 210.81C260.673 210.944 260.757 211.095 260.824 211.229C260.824 211.229 263.576 217.019 263.727 220.425C263.862 223.849 262.653 255.262 263.19 258.115C263.711 260.968 263.61 261.219 263.593 261.689" stroke="#461412" stroke-width="0.5" stroke-linecap="round" stroke-linejoin="round"/>
<path d="M253.491 175.503C253.944 177.215 254.38 178.725 254.833 180.101C256.562 185.37 258.458 188.777 261.697 194.734C264.516 199.902 267.318 205.071 270.121 210.239C270.389 210.743 271.228 212.891 271.396 213.612C271.396 213.612 273.041 219.368 272.973 225.644C272.906 231.903 273.745 242.391 273.846 245.11" stroke="#461412" stroke-width="0.5" stroke-linecap="round" stroke-linejoin="round"/>
<path d="M187.106 152.077C187.761 157.195 188.667 162.28 189.825 167.314C189.892 167.599 189.976 167.918 190.211 168.103C190.429 168.271 190.731 168.287 191.016 168.287C194.171 168.287 197.326 168.321 200.48 168.338" stroke="#461412" stroke-width="0.5" stroke-linecap="round" stroke-linejoin="round"/>
<path d="M203.552 170.553C201.806 172.365 200.078 174.194 198.333 176.007C197.729 176.644 197.091 177.316 196.839 178.155C196.369 179.665 197.209 181.225 197.997 182.601C208.636 200.909 215.248 216.415 221.641 236.35C221.809 236.887 221.994 237.441 222.162 237.978" stroke="#461412" stroke-width="0.5" stroke-linecap="round" stroke-linejoin="round"/>
<path d="M242.717 267.26C243.254 280.081 242.65 313.223 239.126 326.295C239.059 326.53 238.992 326.765 238.925 327" stroke="#461412" stroke-width="0.5" stroke-linecap="round" stroke-linejoin="round"/>
<path d="M263.559 260.968C263.694 275.701 263.19 308.558 260.237 322.989" stroke="#461412" stroke-width="0.5" stroke-linecap="round" stroke-linejoin="round"/>
<path d="M274.534 252.544C277.823 270.784 269.701 308.205 273.359 324.097" stroke="#461412" stroke-width="0.5" stroke-linecap="round" stroke-linejoin="round"/>
<path d="M276.917 24.0568C276.447 24.2246 275.943 24.3085 275.44 24.3756C274.567 24.5098 273.695 24.6105 272.99 25.0972C271.95 25.8187 271.564 27.1444 271.329 28.3694C271.161 29.2085 271.027 30.0643 270.943 30.9201C270.876 31.4906 270.825 32.0612 270.792 32.6317C270.725 33.6721 270.758 34.83 271.496 35.5684C272.134 36.206 273.141 36.3235 273.997 36.0886C274.853 35.8536 275.591 35.2999 276.262 34.7125" stroke="#461412" stroke-width="0.5" stroke-linecap="round" stroke-linejoin="round"/>
<path d="M287.455 21.3215C285.727 20.7174 282.522 19.8615 280.978 20.8852C280.424 21.2543 280.004 21.7913 279.602 22.3115C279.132 22.9156 278.679 23.5365 278.209 24.1406C278.075 24.3084 277.94 24.493 277.806 24.6776C277.571 25.0132 277.336 25.3656 277.185 25.7516C276.934 26.3893 276.85 27.0773 276.816 27.7653C276.699 29.7454 276.866 31.7423 277.319 33.6889C277.42 34.1252 277.538 34.5783 277.672 35.0146C277.89 35.7529 278.175 36.5081 278.729 37.045C278.947 37.2632 279.518 37.4478 280.206 37.5149C280.978 37.582 281.884 37.4813 282.622 37.0283C282.907 36.8605 283.159 36.6423 283.377 36.357" stroke="#461412" stroke-width="0.5" stroke-linecap="round" stroke-linejoin="round"/>
<path d="M293.664 21.0194C292.288 20.6502 288.966 20.7006 287.707 21.3383C287.623 21.3886 287.556 21.4222 287.472 21.4725C286.314 22.1102 285.307 23.0163 284.334 23.9225C283.663 24.5434 283.008 25.2146 282.639 26.0537C282.27 26.9095 282.253 27.8828 282.27 28.8225C282.32 30.5677 282.505 32.3297 282.841 34.0413C282.975 34.6957 283.159 35.3838 283.478 35.9711C283.797 36.5584 284.25 37.0283 284.871 37.2296C285.727 37.4981 286.633 37.129 287.271 36.5081C287.506 36.2899 287.69 36.0214 287.841 35.7529C288.227 35.0481 288.395 34.2427 288.462 33.4372C288.496 33.0345 288.513 32.6485 288.529 32.2458" stroke="#461412" stroke-width="0.5" stroke-linecap="round" stroke-linejoin="round"/>
<path d="M297.221 21.7914C296.114 21.4894 294.855 21.2041 293.781 21.439C293.328 21.5397 292.892 21.7243 292.523 22.0431C292.019 22.4626 291.717 23.0332 291.398 23.6037C290.358 25.5335 289.301 27.5304 289.016 29.6952C288.999 29.8965 288.982 30.1147 289.099 30.2657C289.217 30.4167 289.401 30.4503 289.603 30.4839C289.62 30.4839 289.653 30.4839 289.67 30.4839C291.365 30.6013 293.093 29.9636 294.318 28.789C294.385 28.7219 294.469 28.638 294.536 28.5708" stroke="#461412" stroke-width="0.5" stroke-linecap="round" stroke-linejoin="round"/>
<path d="M260.74 2.92981C260.673 3.16474 260.589 3.41645 260.522 3.65138C258.273 11.2027 257.032 19.0561 256.847 26.9263C256.746 31.2222 257.35 36.2396 260.992 38.4883C262.083 39.1595 263.324 39.4951 264.616 39.6293C265.506 39.73 266.412 39.73 267.285 39.7132C268.275 39.6797 269.282 39.6126 270.272 39.4951C272.453 39.2434 274.618 38.7735 276.732 38.1191" stroke="#461412" stroke-width="0.5" stroke-linecap="round" stroke-linejoin="round"/>
<path d="M268.812 2.91296C268.795 3.03043 268.762 3.16468 268.745 3.28214C267.335 10.4643 266.211 17.68 265.355 24.9461C265.238 25.9865 265.12 27.0605 265.355 28.0841C265.573 29.1077 266.211 30.1146 267.201 30.4838C267.939 30.769 268.762 30.6851 269.55 30.7858" stroke="#461412" stroke-width="0.5" stroke-linecap="round" stroke-linejoin="round"/>
<path d="M287.455 36.6256C290.912 36.2396 295.644 35.4845 298.849 34.1253C299.705 33.7561 300.578 33.3198 301.434 32.7996C301.534 32.7325 301.652 32.6653 301.753 32.5982C305.461 30.2657 308.733 26.5236 308.549 21.9928C308.297 15.6496 304.588 9.10513 300.377 4.23871C299.907 3.70173 299.437 3.18152 298.967 2.6781" stroke="#461412" stroke-width="0.5" stroke-linecap="round" stroke-linejoin="round"/>
<path d="M296.332 26.6243C297.288 25.2147 297.842 23.5366 297.926 21.825C297.96 21.2545 297.926 20.6671 297.842 20.0966C297.591 18.3514 296.852 16.7237 296.097 15.1463C294.268 11.3874 292.221 7.74594 289.938 4.23876C289.888 4.13808 289.821 4.05418 289.754 3.95349" stroke="#461412" stroke-width="0.5" stroke-linecap="round" stroke-linejoin="round"/>
<path d="M264.533 40.7704C264.331 42.0961 265.204 43.3211 265.993 44.395C268.241 47.4827 270.221 50.7549 271.883 54.1782C271.883 54.2118 271.916 54.2453 271.933 54.2621" stroke="#461412" stroke-width="0.5" stroke-linecap="round" stroke-linejoin="round"/>
<path d="M270.506 39.9817C270.825 40.267 271.127 40.5522 271.429 40.8375C273.527 42.8344 275.44 45.0327 277.168 47.3652C277.923 48.3721 278.628 49.4125 279.299 50.4864" stroke="#461412" stroke-width="0.5" stroke-linecap="round" stroke-linejoin="round"/>
<path d="M276.9 46.6436C276.984 46.1066 277.068 45.5864 277.118 45.0494C277.319 43.321 277.387 41.5926 277.303 39.8474C277.303 39.797 277.303 39.7467 277.303 39.7131" stroke="#461412" stroke-width="0.5" stroke-linecap="round" stroke-linejoin="round"/>
<path d="M280.24 66.3945C280.323 66.512 280.424 66.6295 280.508 66.7637C283.277 70.338 287.22 72.9894 291.583 74.1808" stroke="#461412" stroke-width="0.5" stroke-linecap="round" stroke-linejoin="round"/>
<path d="M283.159 47.298C288.311 49.899 293.614 52.7853 296.886 57.5342" stroke="#461412" stroke-width="0.5" stroke-linecap="round" stroke-linejoin="round"/>
<path d="M301.433 32.7996C301.618 33.0513 301.803 33.3198 301.97 33.5715C308.347 43.0526 310.176 55.1515 311.2 66.596C311.217 66.8142 311.233 67.0491 311.267 67.2673" stroke="#461412" stroke-width="0.5" stroke-linecap="round" stroke-linejoin="round"/>
<path d="M294.99 77.1343C300.209 91.8007 302.776 103.849 305.528 116.787C305.897 118.549 306.283 120.328 306.669 122.14" stroke="#461412" stroke-width="0.5" stroke-linecap="round" stroke-linejoin="round"/>
<path d="M311.67 70.4556C311.972 71.0597 312.291 71.6638 312.576 72.2679C318.416 84.0983 322.225 96.7175 327.259 108.9C328.149 111.065 329.088 113.213 330.078 115.344C330.229 115.663 330.364 115.982 330.515 116.284" stroke="#461412" stroke-width="0.5" stroke-linecap="round" stroke-linejoin="round"/>
<path d="M305.36 116.703C305.008 116.989 304.672 117.274 304.37 117.542C302.289 119.405 301.433 121.016 301.92 124.104C302.356 126.839 302.793 129.591 303.229 132.326C303.783 135.8 304.337 139.274 304.941 142.73C305.662 146.808 306.233 150.903 306.904 154.98C307.928 161.24 308.163 167.851 307.928 174.329C307.877 175.537 307.827 176.728 307.76 177.92" stroke="#461412" stroke-width="0.5" stroke-linecap="round" stroke-linejoin="round"/>
<path d="M305.964 122.157C306.283 122.442 306.602 122.711 306.938 122.929C309.757 124.943 312.727 124.892 316.452 124.439C320.614 123.936 324.507 122.006 327.88 119.522C328.87 118.801 329.86 117.928 330.464 116.905C330.833 116.284 331.068 115.612 331.068 114.874" stroke="#461412" stroke-width="0.5" stroke-linecap="round" stroke-linejoin="round"/>
<path d="M327.729 108.632C328.149 108.8 328.568 108.984 328.971 109.202C331.538 110.495 333.72 112.441 334.827 115.092C336.119 118.163 336.573 121.503 337.026 124.808C339.778 145.08 342.53 165.351 345.265 185.622C345.433 186.881 345.601 188.156 345.45 189.398C344.913 193.526 341.103 196.311 337.63 198.594C334.206 200.825 322.393 203.712 318.986 205.943" stroke="#461412" stroke-width="0.5" stroke-linecap="round" stroke-linejoin="round"/>
<path d="M250.84 167.985C250.84 167.985 250.991 167.985 251.075 168.002C256.73 168.438 264.315 171.207 269.533 173.305C276.128 175.956 283.461 176.795 290.493 175.688C294.99 174.983 303.212 174.11 307.76 174.328" stroke="#461412" stroke-width="0.5" stroke-linecap="round" stroke-linejoin="round"/>
<path d="M232.616 200.842C236.375 200.355 243.725 198.459 246.98 195.875C247.198 195.707 247.4 195.523 247.584 195.355" stroke="#461412" stroke-width="0.5" stroke-linecap="round" stroke-linejoin="round"/>
<path d="M157.857 314.112C157.757 314.968 157.656 315.807 157.522 316.663C157.002 320.002 156.146 323.291 155.005 326.48C154.954 326.597 154.921 326.715 154.87 326.849" stroke="#461412" stroke-width="0.5" stroke-linecap="round" stroke-linejoin="round"/>
<path d="M236.928 55.4702C234.579 55.9736 232.884 58.2223 232.414 60.5716C231.928 62.9209 232.414 65.3709 233.085 67.6866C234.713 73.3585 236.777 78.9465 238.187 84.6855C239.596 90.4245 240.184 96.667 236.878 101.567" stroke="#461412" stroke-width="0.5" stroke-linecap="round" stroke-linejoin="round"/>
<path d="M209.357 108.447C210.364 109.236 211.505 109.756 212.68 109.89C212.848 109.907 213.016 109.924 213.2 109.924" stroke="#461412" stroke-width="0.5" stroke-linecap="round" stroke-linejoin="round"/>
<path d="M227.011 68.9452C226.474 71.6469 225.584 74.1976 224.46 76.6643C221.272 83.6955 216.237 90.005 212.227 96.6838C210.331 99.8386 208.602 103.228 208.115 106.87C208.099 107.004 208.082 107.138 208.065 107.272C207.646 111.065 208.82 115.227 211.841 117.576" stroke="#461412" stroke-width="0.5" stroke-linecap="round" stroke-linejoin="round"/>
<path d="M201.42 44.8648C201.42 44.8648 201.454 44.848 201.454 44.8313C207.864 39.3607 218.889 39.495 228.555 41.5254C232.347 42.3309 235.938 43.4217 238.959 44.5795C239.982 44.9655 240.939 45.3682 241.811 45.771C257.82 53.0874 268.325 68.7942 269.382 86.2797C269.785 92.9585 267.469 103.413 274.601 107.356C274.685 107.39 274.769 107.44 274.836 107.491" stroke="#461412" stroke-width="0.5" stroke-linecap="round" stroke-linejoin="round"/>
<path d="M203.467 127.04C203.467 127.04 203.417 126.923 203.383 126.873C200.027 119.875 192.493 116.032 188.381 109.555C176.719 91.2134 172.691 59.397 196.268 48.1875" stroke="#461412" stroke-width="0.5" stroke-linecap="round" stroke-linejoin="round"/>
<path d="M210.045 101.987C211.086 101.936 212.126 102.138 213.066 102.557" stroke="#461412" stroke-width="0.5" stroke-linecap="round" stroke-linejoin="round"/>
<path d="M233.405 88.4279C234.177 95.7611 231.844 103.38 227.112 109.018" stroke="#461412" stroke-width="0.5" stroke-linecap="round" stroke-linejoin="round"/>
<path d="M254.256 112.483C255.772 112.378 256.845 110.051 256.652 107.286C256.46 104.522 255.074 102.367 253.558 102.473C252.042 102.578 250.969 104.905 251.162 107.669C251.354 110.434 252.74 112.589 254.256 112.483Z" stroke="#461412" stroke-width="0.5" stroke-linecap="round" stroke-linejoin="round"/>
<path d="M191.201 116.452C190.479 117.173 188.197 116.049 186.082 113.951C183.968 111.854 182.844 109.572 183.565 108.85" stroke="#461412" stroke-width="0.5" stroke-linecap="round" stroke-linejoin="round"/>
<path d="M188.516 119.657C187.794 120.378 185.512 119.254 183.398 117.157C181.283 115.059 180.444 113.247 180.662 112.24" stroke="#461412" stroke-width="0.5" stroke-linecap="round" stroke-linejoin="round"/>
<path d="M191.52 115.193C190.764 115.646 183.868 119.942 183.448 127.644C183.28 130.799 184.27 133.333 184.992 134.793" stroke="#461412" stroke-width="0.5" stroke-linecap="round" stroke-linejoin="round"/>
<path d="M180.092 113.096C179.118 113.448 177.222 114.27 175.544 116.133C173.329 118.616 172.91 121.368 172.809 122.392" stroke="#461412" stroke-width="0.5" stroke-linecap="round" stroke-linejoin="round"/>
<path d="M183.213 109.185C183.415 108.934 183.616 108.934 184.841 107.692C185.076 107.457 186.418 106.198 185.647 104.739" stroke="#461412" stroke-width="0.5" stroke-linecap="round" stroke-linejoin="round"/>
<path d="M236.122 128.836C234.746 131.521 233.085 135.498 232.263 140.566C231.239 146.858 231.961 152.094 232.666 155.35" stroke="#461412" stroke-width="0.5" stroke-linecap="round" stroke-linejoin="round"/>
<path d="M220.483 92.0356C220.013 93.613 219.459 95.1736 218.788 96.6839C218.218 97.9928 217.144 99.4527 217.597 100.946C217.798 101.567 218.234 102.121 218.805 102.456C219.845 103.061 221.104 103.061 222.195 102.591C222.782 102.339 223.369 101.785 223.571 101.064C223.873 99.9729 223.252 98.7312 222.866 97.9593C221.876 95.9959 220.903 93.5627 220.483 92.0356Z" fill="#93C4CF" stroke="#461412" stroke-width="0.5" stroke-linecap="round" stroke-linejoin="round"/>
<path d="M182.76 109.32C182.76 109.32 181.149 109.454 180.663 112.257" stroke="#461412" stroke-width="0.5" stroke-linecap="round" stroke-linejoin="round"/>
<path d="M232.179 206.967C231.592 206.011 234.008 205.121 233.371 204.198L232.448 203.494C229.041 199.214 226.491 195.674 223.084 191.395C222.967 191.244 222.832 191.076 222.715 190.925C221.641 189.582 220.567 188.206 219.879 186.629C218.52 183.508 218.855 179.95 219.225 176.56C219.443 174.496 219.678 172.399 220.517 170.503C220.617 170.284 220.718 170.066 220.836 169.848C221.708 168.237 223.134 166.861 224.913 166.425L227.481 166.291C227.816 167.499 226.893 168.69 227.229 169.915C227.346 170.57 226.524 171.291 226.776 171.912C227.682 162.851 227.548 153.671 226.39 144.643C225.92 141.036 225.282 137.394 225.836 133.803C225.987 132.863 226.239 131.89 226.86 131.185C227.497 130.48 228.605 130.111 229.427 130.581C230.182 131.017 230.434 131.957 230.635 132.813C231.273 135.565 231.877 138.317 232.448 141.069C232.783 141.17 233.119 141.254 233.455 141.304V141.405C234.982 141.875 236.056 143.083 236.895 144.492C237.7 144.794 238.455 145.18 239.177 145.65L239.11 145.751C242.919 149.241 245.134 153.99 246.795 158.957C246.846 159.008 246.896 159.058 246.946 159.108L247.064 158.974C250.219 161.693 252.148 165.603 253.122 169.68C253.222 170.1 253.306 170.519 253.39 170.956C253.961 173.943 254.078 176.997 254.061 180.051C254.061 181.611 253.994 183.172 253.944 184.716C253.776 189.566 253.608 194.398 253.441 199.248L253.608 200.188C253.608 200.389 253.709 206.665 253.726 206.867C253.776 207.555 251.175 212.035 251.259 212.723L233.471 258.484C228.152 256.705 214.912 241.737 214.543 240.143C214.274 238.968 232.397 208.192 232.129 207.018L232.179 206.967Z" fill="#FFF6F3"/>
<path d="M177.34 275.5C179.689 272.496 189.087 264.357 191.788 261.672C193.936 259.541 196.151 257.444 198.282 255.296C203.065 250.513 209.761 236.552 213.352 239.119" stroke="#461412" stroke-width="0.5" stroke-linecap="round" stroke-linejoin="round"/>
<path d="M187.24 313.357C188.365 313.105 190.429 312.182 191.52 311.914C196.118 310.773 201.471 307.618 205.011 305.168C207.797 303.238 210.364 301.04 212.781 298.691C217.916 293.673 222.346 287.884 226.608 282.145C229.813 277.815 245.403 262.411 241.476 257.444L237.197 252.779L236.895 252.46" stroke="#461412" stroke-width="0.5" stroke-linecap="round" stroke-linejoin="round"/>
<path d="M214.593 240.109C214.593 240.109 214.677 239.941 214.71 239.874C215.197 238.834 215.7 237.81 216.221 236.803C220.416 228.463 225.081 220.61 229.108 212.119C229.897 210.458 230.686 208.796 231.474 207.135C232.062 205.91 232.632 204.702 233.219 203.477C233.32 203.275 234.209 205.155 234.209 205.155" stroke="#461412" stroke-width="0.5" stroke-linecap="round" stroke-linejoin="round"/>
<path d="M214.006 240.126C214.174 240.394 214.375 240.696 214.61 241.032C217.748 245.512 226.289 254.859 233.522 258.467C235.032 259.222 236.492 259.726 237.835 259.877" stroke="#461412" stroke-width="0.5" stroke-linecap="round" stroke-linejoin="round"/>
<path d="M233.085 203.326C229.78 198.963 226.491 194.6 223.185 190.237C223.067 190.086 222.95 189.918 222.816 189.75C221.775 188.374 220.735 186.981 220.08 185.387C218.805 182.232 219.225 178.675 219.661 175.302C219.929 173.255 220.215 171.157 221.087 169.278C221.188 169.059 221.305 168.841 221.423 168.623C222.346 167.029 223.789 165.686 225.584 165.301" stroke="#461412" stroke-width="0.5" stroke-linecap="round" stroke-linejoin="round"/>
<path d="M225.719 181.074C226.239 178.205 226.642 175.335 226.944 172.432C227.883 163.371 227.8 154.192 226.658 145.163C226.205 141.556 225.584 137.914 226.155 134.323C226.306 133.383 226.558 132.41 227.195 131.705C227.833 131.001 228.941 130.631 229.763 131.118C230.518 131.571 230.77 132.511 230.971 133.35C231.592 136.102 232.196 138.854 232.75 141.623C234.21 148.771 235.435 155.97 236.458 163.203" stroke="#461412" stroke-width="0.5" stroke-linecap="round" stroke-linejoin="round"/>
<path d="M233.74 141.958C235.284 142.428 236.358 143.653 237.197 145.063C237.633 145.785 238.002 146.556 238.338 147.312C240.67 152.547 242.835 157.951 243.456 163.656" stroke="#461412" stroke-width="0.5" stroke-linecap="round" stroke-linejoin="round"/>
<path d="M248.893 166.056C248.323 163.908 247.719 161.726 247.014 159.578C245.386 154.594 243.188 149.845 239.396 146.338" stroke="#461412" stroke-width="0.5" stroke-linecap="round" stroke-linejoin="round"/>
<path d="M247.299 159.578C250.437 162.313 252.35 166.223 253.306 170.301C253.407 170.721 253.491 171.14 253.575 171.576C254.128 174.563 254.246 177.617 254.212 180.672C254.195 182.232 254.128 183.793 254.078 185.337C253.893 190.186 253.709 195.019 253.524 199.869C253.524 199.869 253.575 204.802 253.507 205.457C253.273 207.588 251.98 210.642 251.745 211.649C247.45 222.59 240.855 239.304 235.871 252.057C235.451 253.114 235.065 254.155 234.696 255.178C234.428 255.933 234.176 256.655 233.924 257.376" stroke="#461412" stroke-width="0.5" stroke-linecap="round" stroke-linejoin="round"/>
<path d="M272.923 223.01C272.923 223.01 276.179 221.684 279.938 221.063C283.697 220.442 285.022 218.663 288.026 216.918C291.03 215.173 294.738 211.934 301.316 211.062C307.894 210.189 317.124 206.732 318.97 205.943" stroke="#461412" stroke-width="0.5" stroke-linecap="round" stroke-linejoin="round"/>
</svg>
