<svg width="24" height="24" viewBox="0 0 24 24" fill="none" xmlns="http://www.w3.org/2000/svg">
<path fill-rule="evenodd" clip-rule="evenodd" d="M11.0764 20.0413C11.4117 20.389 11.9998 20.1516 11.9998 19.6686V18.3387C11.9998 18.3382 12.0003 18.338 12.0006 18.3383L12.0009 18.3387C12.0009 18.3387 12.0009 18.3387 12.001 18.3387V18.3387C12.001 18.3387 12.001 18.3386 12.001 18.3386L4.80411 10.8683C4.36943 10.4176 4.07781 9.88995 3.92925 9.28524C3.78069 8.68053 3.77794 8.07868 3.921 7.47968C4.06405 6.87497 4.35292 6.35298 4.7876 5.91371C5.23878 5.45163 5.75049 5.14642 6.32273 4.9981C6.90046 4.84407 7.4782 4.84407 8.05593 4.9981C8.63917 5.15213 9.15913 5.46019 9.61582 5.92227L11.2911 7.61112C11.6823 8.00546 12.3198 8.00546 12.711 7.61112L14.3863 5.92227C14.8485 5.46019 15.3684 5.15213 15.9462 4.9981C16.5239 4.84407 17.0989 4.84407 17.6711 4.9981C18.2488 5.14642 18.7633 5.45163 19.2145 5.91371C19.6492 6.35298 19.938 6.87497 20.0811 7.47968C20.2241 8.07868 20.2214 8.68053 20.0728 9.28524C19.9298 9.88995 19.6382 10.4176 19.198 10.8683L15.2796 14.9356C15.1001 15.1219 14.9998 15.3706 14.9998 15.6294V17.4871C14.9998 17.7461 14.8993 17.9949 14.7195 18.1813L12.001 20.9999C12.001 20.9999 12.001 20.9999 12.001 21V21C12.001 21 12.0011 21 12.0011 21L20.4855 12.2032C21.1623 11.5015 21.6107 10.6858 21.8308 9.75588C22.0564 8.826 22.0564 7.90183 21.8308 6.98336C21.6052 6.05919 21.1568 5.25481 20.4855 4.57024C19.7977 3.86855 19.0109 3.40361 18.125 3.17542C17.2447 2.94153 16.3643 2.94153 15.484 3.17542C14.6036 3.40932 13.8168 3.87426 13.1235 4.57024L12.7104 4.98598C12.3193 5.37947 11.6827 5.37947 11.2917 4.98598L10.8786 4.57024C10.1908 3.87426 9.40398 3.40932 8.51812 3.17542C7.63776 2.94153 6.75465 2.94153 5.86879 3.17542C4.98843 3.40361 4.20436 3.86855 3.51658 4.57024C2.84531 5.25481 2.39687 6.05919 2.17128 6.98336C1.94569 7.90183 1.94294 8.826 2.16303 9.75588C2.38862 10.6858 2.83981 11.5015 3.51658 12.2032L11.0764 20.0413Z" fill="#323232"/>
</svg>
