<svg width="26" height="27" viewBox="0 0 26 27" fill="none" xmlns="http://www.w3.org/2000/svg">
<rect x="1.92505" y="9.62579" width="23.1018" height="17.3264" rx="2" fill="#323232"/>
<path d="M12.1993 22.0961C12.1993 22.7135 12.5968 23.1018 13.2628 23.1018C13.9287 23.1018 14.3263 22.7035 14.3263 22.0961C14.3263 21.4887 13.9287 21.0904 13.2628 21.0904C12.5968 21.0904 12.1993 21.4787 12.1993 22.0961ZM14.2666 20.6224V20.1743C14.2666 19.9154 14.3163 19.7162 14.5946 19.527C15.0817 19.2084 15.5587 18.8599 15.8569 18.5114C16.2147 18.0931 16.3638 17.6152 16.3638 16.948C16.3638 15.2452 15.1711 14.4387 13.5212 14.4387C11.9309 14.4387 10.6288 15.3747 10.5891 16.5895C10.5692 17.2069 10.9767 17.5156 11.4339 17.5455C11.9806 17.5853 12.398 17.3164 12.5372 16.8385C12.6565 16.4302 13.064 16.2012 13.5212 16.2012C13.9685 16.2012 14.3362 16.4899 14.3362 16.948C14.3362 17.2866 14.2567 17.5056 13.9386 17.7944C13.7299 17.9836 13.3721 18.1927 12.9348 18.4516C12.3782 18.7802 12.2589 19.2482 12.2589 20.015V20.6224H14.2666Z" fill="white"/>
<path d="M1.12329 10.8156L25.3873 6.71356" stroke="white"/>
<rect y="4.17181" width="25.027" height="6.73803" rx="2" transform="rotate(-9.59555 0 4.17181)" fill="#323232"/>
</svg>
