<svg width="18" height="20" viewBox="0 0 18 20" fill="none" xmlns="http://www.w3.org/2000/svg">
<path d="M6.31592 4.25372V13.2258C6.31592 13.6175 6.54997 13.9675 6.90168 14.1016L16.6992 17.8376C17.2802 18.0591 17.8949 17.6089 17.8949 16.9618V0.932805C17.8949 0.299919 17.3051 -0.148972 16.7297 0.0460376L6.93216 3.36695C6.56477 3.49148 6.31592 3.84958 6.31592 4.25372Z" fill="current"/>
<path d="M7.90881 15.4445L6.32986 14.7929C5.81374 14.5799 5.26318 14.9998 5.26318 15.6064V19.1312C5.26318 19.611 5.61664 20 6.05266 20H7.6316C8.06762 20 8.42108 19.611 8.42108 19.1312V16.258C8.42108 15.8959 8.21694 15.5717 7.90881 15.4445Z" fill="current"/>
<path d="M5.26316 12.7643V5.13032C5.26316 4.55967 4.82315 4.10964 4.32152 4.23009C2.48811 4.67032 0 5.99032 0 8.94729C0 11.9043 2.48811 13.2243 4.32152 13.6645C4.82315 13.7849 5.26316 13.3349 5.26316 12.7643Z" fill="current"/>
</svg>
