<svg width="52" height="52" viewBox="0 0 52 52" fill="none" xmlns="http://www.w3.org/2000/svg">
<path d="M46.161 44.8328C45.4969 44.1686 40.1837 43.5045 39.5196 43.5045C38.9883 43.5045 39.2982 35.9777 39.5196 32.2142H36.199L35.5349 35.5349L36 38.9999V43.4999L35.5349 44.1686L36.199 45.4969L38.1914 46.8252L40.848 47.4893H43.5045C44.6114 46.8252 46.6923 45.3641 46.161 44.8328Z" fill="#444444"/>
<path d="M44.3586 18.2675H39.0455L35.7249 21.5881L37.0531 32.8784L49.0075 32.2142C49.893 30.6646 50.9999 27.1668 50.9999 25.5729C50.9999 23.979 49.6716 20.924 49.0075 19.5957H45.0227L44.3586 18.2675Z" fill="#28A745"/>
<path d="M47.6793 46.5002V26.237H41.7021V30.2218C42.7646 35.0036 41.9427 42.6796 41.5 46.0002C40.3931 46.2216 38.9127 46.958 41.038 47.4893C43.1632 48.0206 46.351 47.1644 47.6793 46.5002Z" fill="#777777"/>
<path d="M19.7857 8.96959L10.4879 2.32827L9.5 1.5L8.49549 1C5.83896 1 -0.138239 13.6185 1.19003 32.2142C2.25264 47.0908 6.94584 51.2527 9.15962 51.4741C9.69093 52.0054 14.2513 47.2679 16.4651 44.8328L20.4499 42.8404L24.4347 40.848L32.4043 37.5273L36 37V35.5L37.7173 32.8784L39.0456 30.2218L39.7097 24.9088V20.924L39.0456 18.2675L38.3815 17.6033L37.7173 15.6109L36.3891 14.9468L33.0684 14.2827L29.0836 13.6185L25.7629 12.2903L19.7857 8.96959Z" fill="#F4F4F4"/>
<path d="M11.8162 20.924H13.1445C13.1445 24.6431 12.7017 31.3287 12.4804 34.2066H10.488L8.49557 33.5425L7.16731 31.5501L6.50317 28.8936V25.5729L7.83144 22.9164L9.82384 21.5881L11.8162 20.924Z" fill="#FFE780"/>
<path d="M8.81554 51.4741C4.60404 51.4741 1.18994 40.1751 1.18994 26.2371C1.18994 12.299 4.60404 1 8.81554 1C10.5101 1 13.7298 6.04741 13.052 26.2371" stroke="#824236" stroke-width="0.52" stroke-linecap="round"/>
<path d="M13.1811 33.333C13.1811 37.6155 12.4959 46.8656 9.75513 49.6064" stroke="#824236" stroke-width="0.52" stroke-linecap="round"/>
<path d="M9.15967 1C14.1059 5.59508 26.4423 14.7852 36.2183 14.7852C37.3822 15.0724 39.7098 17.37 39.7098 24.2626C39.7098 31.1552 37.9641 32.8784 37.0912 32.8784" stroke="#824236" stroke-width="0.52" stroke-linecap="round"/>
<path d="M14.4727 46.1611C19.0065 43.3435 29.6043 37.5394 35.7249 36.8632" stroke="#824236" stroke-width="0.52" stroke-linecap="round"/>
<path d="M39.0457 18.2675H44.3587C45.0229 18.8578 46.3511 21.2782 46.3511 26.2371" stroke="#824236" stroke-width="0.52" stroke-linecap="round"/>
<path d="M45.554 19.5957H49.0358C50.1964 21.2305 51.9954 25.6444 49.9063 30.2218" stroke="#824236" stroke-width="0.52" stroke-linecap="round"/>
<path d="M13.1445 20.924C10.9307 20.924 6.50317 22.0625 6.50317 26.6165C6.50317 32.3091 8.71695 34.2066 10.9307 34.2066" stroke="#824236" stroke-width="0.52" stroke-linecap="round"/>
<path d="M43.2517 26.237H47.6793V46.4579C46.7938 46.9971 44.5 47.5002 42.5 47.5002" stroke="#824236" stroke-width="0.52" stroke-linecap="round"/>
<path d="M35.8862 35.5349V43.5045C35.3956 44.5671 35.739 46.8517 41.0379 47.4893" stroke="#824236" stroke-width="0.52" stroke-linecap="round"/>
<path d="M41.842 30.2218C42.378 35.5349 42.9675 46.161 41.0381 46.161" stroke="#824236" stroke-width="0.52" stroke-linecap="round"/>
</svg>
