<svg width="56" height="49" viewBox="0 0 56 49" fill="none" xmlns="http://www.w3.org/2000/svg">
<path d="M24.2271 5.56299C24.5186 5.56299 24.7984 5.59797 25.084 5.67374C28.7271 6.62968 54.9397 13.5486 55.4235 14.5162C55.9422 15.5596 53.6865 37.9018 52.987 38.9452C52.2875 39.9886 36.2114 47.8984 34.6434 47.8984C33.0754 47.8984 2.9516 32.7607 2.17052 31.5425C1.38945 30.3242 0.655004 11.5609 1.17378 9.47419C1.69255 7.38744 11.0829 5.47556 22.9914 5.56299H24.2213H24.2271Z" stroke="#824236" stroke-width="0.52" stroke-miterlimit="10" stroke-linecap="round"/>
<path d="M33.2327 3.62197C32.4167 1.86747 30.7146 1.80335 29.8519 1.60517C28.0042 1.18549 26.1098 0.963988 22.117 1.00479C19.6397 1.02811 18.4972 1.17383 17.961 1.99571C17.6345 2.49116 17.6579 3.04491 17.722 3.74438C17.8502 5.0792 18.1591 7.02023 18.9402 9.42174C18.9169 9.46254 18.9052 9.50918 18.9052 9.54998C18.9052 9.84142 19.3716 10.0804 19.9486 10.0804C20.5257 10.0804 20.992 9.84142 20.992 9.54998C20.8463 8.85634 20.8113 4.27481 21.2077 3.84347C21.604 3.41213 27.9051 4.30396 28.9077 4.5138C30.7263 4.89851 30.0326 13.094 30.0326 13.094H30.0385C30.0385 13.094 30.0326 13.1231 30.0326 13.1348C30.0326 13.3679 30.3999 13.5544 30.8545 13.5544C31.3092 13.5544 31.6764 13.3679 31.6764 13.1348C31.6764 13.1114 31.6706 13.094 31.6647 13.0765C32.0786 12.3129 32.6323 11.0946 32.9296 9.50918C33.2036 8.05195 34.0138 5.30653 33.2327 3.62197Z" fill="#FFE780"/>
<path d="M2.75928 9.5558C9.81809 13.2105 17.0518 16.7079 24.5128 19.4766C28.6047 20.998 32.0554 21.849 36.4271 21.4468C38.0942 21.2952 39.3737 20.8615 41 20.5001" stroke="#824236" stroke-width="0.52" stroke-miterlimit="10" stroke-linecap="round"/>
<path d="M46 19C48.0984 18.691 50.801 17.7279 53.5814 15.9151C54.2168 15.5013 54.7938 15.0699 55.3126 14.6328" stroke="#824236" stroke-width="0.52" stroke-miterlimit="10" stroke-linecap="round"/>
<path d="M34.2061 22.9623C34.754 27.0834 35.0979 31.8514 34.958 37.1266C34.8764 40.315 34.6257 43.2936 34.2818 46.0157" stroke="#824236" stroke-width="0.52" stroke-miterlimit="10" stroke-linecap="round"/>
<path d="M31.6531 13.0997C32.0669 12.3361 32.6265 11.1062 32.9296 9.50908C33.2036 8.05186 34.0138 5.30644 33.2327 3.62188C32.7256 2.53187 31.6706 1.99561 30.5514 1.73331C29.5197 1.4885 28.4472 1.35443 27.3922 1.23203C25.6435 1.02219 23.8715 0.993041 22.1112 1.01053C19.6339 1.03384 18.4914 1.17957 17.9551 2.00144C17.6171 2.51439 17.6637 3.1614 17.7162 3.75012C17.8444 5.09077 18.1533 7.04928 18.9461 9.46828" stroke="#824236" stroke-width="0.52" stroke-miterlimit="10" stroke-linecap="round"/>
<path d="M30.0326 13.0998C30.0326 13.0998 30.6038 4.73533 28.9076 4.51966C27.8934 4.39142 21.6098 3.41217 21.2076 3.84934C20.8054 4.2865 20.8462 8.8622 20.992 9.55584" stroke="#824236" stroke-width="0.52" stroke-miterlimit="10" stroke-linecap="round"/>
<path d="M13.4902 17.3025L18.5439 19.1211L17.5821 35.6052L14.452 34.2355L13.4902 17.3025Z" fill="#28A745"/>
<path d="M9.47998 22.7699L22.6825 26.7277L22.8165 32.306L9.47998 25.9408V22.7699Z" fill="#28A745"/>
</svg>
