<svg width="32" height="58" viewBox="0 0 32 58" fill="none" xmlns="http://www.w3.org/2000/svg">
<path d="M1.81323 10.0028V22.2228L4.72323 31.9528L8.61323 35.4528L5.84323 57.3128H28.0732L25.3932 32.7828L31.2032 20.8828L27.8232 9.38281L13.0432 10.0028H1.81323Z" fill="#FFF8F5"/>
<path d="M24.3521 13.0017L21.5605 1.96945C21.425 1.43404 20.8812 1.10983 20.3457 1.24531L16.7103 2.16521C16.1749 2.30069 15.8507 2.84455 15.9862 3.37996L18.7778 14.4122C18.9133 14.9477 19.4571 15.2719 19.9925 15.1364L23.628 14.2165C24.1634 14.081 24.4876 13.5371 24.3521 13.0017Z" fill="#FFF8F5" stroke="#824236" stroke-width="0.52" stroke-miterlimit="10" stroke-linecap="round"/>
<path d="M19.4438 17.0843L15.644 2.06759C15.5085 1.53218 14.9646 1.20797 14.4292 1.34345L10.7938 2.26335C10.2584 2.39883 9.9342 2.9427 10.0697 3.47811L13.8695 18.4948C14.005 19.0302 14.5488 19.3544 15.0842 19.219L18.7197 18.2991C19.2551 18.1636 19.5793 17.6197 19.4438 17.0843Z" fill="#FFF8F5" stroke="#824236" stroke-width="0.52" stroke-miterlimit="10" stroke-linecap="round"/>
<path d="M26.5232 43.143L27.9432 56.213C28.0032 56.803 27.5432 57.323 26.9532 57.323H6.98324C6.38324 57.323 5.91324 56.793 5.99324 56.193L8.55324 35.983C8.59324 35.663 8.47324 35.333 8.23324 35.113L4.94324 32.143C4.80324 32.023 4.70324 31.863 4.65324 31.683L1.86324 22.363C1.83324 22.263 1.82324 22.163 1.82324 22.063L1.95324 12.083" fill="#FFF8F5"/>
<path d="M26.5232 43.143L27.9432 56.213C28.0032 56.803 27.5432 57.323 26.9532 57.323H6.98324C6.38324 57.323 5.91324 56.793 5.99324 56.193L8.55324 35.983C8.59324 35.663 8.47324 35.333 8.23324 35.113L4.94324 32.143C4.80324 32.023 4.70324 31.863 4.65324 31.683L1.86324 22.363C1.83324 22.263 1.82324 22.163 1.82324 22.063L1.95324 12.083" stroke="#824236" stroke-width="0.52" stroke-miterlimit="10" stroke-linecap="round"/>
<path d="M15.7332 29.3727L15.0432 25.8627C14.9932 25.6227 15.0432 25.3827 15.1532 25.1727L17.7132 20.6927C17.8432 20.4627 18.0632 20.2927 18.3232 20.2227L24.1032 18.6727L23.1332 18.1527C22.9832 18.0727 22.8532 17.9527 22.7632 17.8027L21.8232 16.2927C21.6332 15.9927 21.3032 15.8127 20.9532 15.8227L17.3432 15.8927C17.1232 15.8927 16.9032 15.8227 16.7232 15.6927L13.6632 13.4027C13.4332 13.2327 13.2932 12.9727 13.2632 12.6927L13.1132 10.9727C13.0632 10.4327 13.4532 9.95274 13.9932 9.89274L27.0032 9.28274C27.5132 9.22274 27.9832 9.56274 28.0932 10.0527L31.1132 20.5327C31.1632 20.7527 31.1332 20.9827 31.0332 21.1927L25.5032 32.5127C25.4232 32.6827 25.3832 32.8727 25.4032 33.0627L25.9932 38.4427" fill="#FFF8F5"/>
<path d="M15.7332 29.3727L15.0432 25.8627C14.9932 25.6227 15.0432 25.3827 15.1532 25.1727L17.7132 20.6927C17.8432 20.4627 18.0632 20.2927 18.3232 20.2227L24.1032 18.6727L23.1332 18.1527C22.9832 18.0727 22.8532 17.9527 22.7632 17.8027L21.8232 16.2927C21.6332 15.9927 21.3032 15.8127 20.9532 15.8227L17.3432 15.8927C17.1232 15.8927 16.9032 15.8227 16.7232 15.6927L13.6632 13.4027C13.4332 13.2327 13.2932 12.9727 13.2632 12.6927L13.1132 10.9727C13.0632 10.4327 13.4532 9.95274 13.9932 9.89274L27.0032 9.28274C27.5132 9.22274 27.9832 9.56274 28.0932 10.0527L31.1132 20.5327C31.1632 20.7527 31.1332 20.9827 31.0332 21.1927L25.5032 32.5127C25.4232 32.6827 25.3832 32.8727 25.4032 33.0627L25.9932 38.4427" stroke="#824236" stroke-width="0.52" stroke-miterlimit="10" stroke-linecap="round"/>
<path d="M17.5232 9.49268V11.7227C17.5232 12.0127 17.2932 12.2427 17.0032 12.2427H14.5332" stroke="#824236" stroke-width="0.52" stroke-miterlimit="10" stroke-linecap="round"/>
<path d="M14.0232 22.323C14.0232 22.323 10.0932 19.543 5.31323 20.553" stroke="#824236" stroke-width="0.52" stroke-miterlimit="10" stroke-linecap="round"/>
<path d="M13.632 17.5638L10.4038 4.80587C10.2683 4.27046 9.72441 3.94625 9.189 4.08173L5.55358 5.00164C5.01817 5.13712 4.69396 5.68098 4.82944 6.21639L8.05769 18.9743C8.19317 19.5097 8.73703 19.8339 9.27244 19.6984L12.9079 18.7785C13.4433 18.643 13.7675 18.0992 13.632 17.5638Z" fill="#FFF8F5" stroke="#824236" stroke-width="0.52" stroke-miterlimit="10" stroke-linecap="round"/>
<path d="M8.12763 19.2738L5.35566 8.31905C5.22018 7.78364 4.67632 7.45944 4.14091 7.59492L1.96935 8.14441C1.43394 8.27988 1.10973 8.82375 1.24521 9.35916L4.01718 20.3139C4.15266 20.8493 4.69653 21.1735 5.23194 21.038L7.40349 20.4885C7.9389 20.3531 8.26311 19.8092 8.12763 19.2738Z" fill="#FFF8F5" stroke="#824236" stroke-width="0.52" stroke-miterlimit="10" stroke-linecap="round"/>
</svg>
