<svg width="28" height="28" viewBox="0 0 28 28" fill="none" xmlns="http://www.w3.org/2000/svg">
<path d="M14 24.5C19.799 24.5 24.5 19.799 24.5 14C24.5 8.20101 19.799 3.5 14 3.5C8.20101 3.5 3.5 8.20101 3.5 14C3.5 19.799 8.20101 24.5 14 24.5Z" stroke="#CFCFCF" stroke-linecap="round" stroke-linejoin="round"/>
<path d="M20.086 22.554C18.5906 20.8839 16.418 19.833 13.9999 19.833C11.5818 19.833 9.40916 20.884 7.91382 22.554" stroke="#CFCFCF" stroke-linecap="round" stroke-linejoin="round"/>
<path d="M14 16.333C15.933 16.333 17.5 14.766 17.5 12.833C17.5 10.9 15.933 9.33301 14 9.33301C12.067 9.33301 10.5 10.9 10.5 12.833C10.5 14.766 12.067 16.333 14 16.333Z" stroke="#CFCFCF" stroke-linecap="round" stroke-linejoin="round"/>
</svg>
