<svg width="28" height="28" viewBox="0 0 28 28" fill="none" xmlns="http://www.w3.org/2000/svg">
<path d="M23.3332 21.6663V14.6663C23.3332 12.191 22.3498 9.81702 20.5995 8.06668C18.8492 6.31634 16.4752 5.33301 13.9998 5.33301C11.5245 5.33301 9.15051 6.31634 7.40017 8.06668C5.64983 9.81702 4.6665 12.191 4.6665 14.6663V21.6663" fill="#2EE477"/>
<path d="M23.3332 21.6663V14.6663C23.3332 12.191 22.3498 9.81702 20.5995 8.06668C18.8492 6.31634 16.4752 5.33301 13.9998 5.33301C11.5245 5.33301 9.15051 6.31634 7.40017 8.06668C5.64983 9.81702 4.6665 12.191 4.6665 14.6663V21.6663" stroke="white" stroke-width="1.5"/>
<path d="M16.6716 9.41602C17.2519 9.65153 17.7791 10.0011 18.222 10.4439C18.6649 10.8868 19.0144 11.414 19.2499 11.9943M2.33325 21.666H25.6666" stroke="white" stroke-width="1.5" stroke-linecap="round"/>
<path d="M15.75 16.416C15.75 16.8801 15.5656 17.3253 15.2374 17.6535C14.9092 17.9816 14.4641 18.166 14 18.166C13.5359 18.166 13.0908 17.9816 12.7626 17.6535C12.4344 17.3253 12.25 16.8801 12.25 16.416C12.25 15.9519 12.4344 15.5068 12.7626 15.1786C13.0908 14.8504 13.5359 14.666 14 14.666C14.4641 14.666 14.9092 14.8504 15.2374 15.1786C15.5656 15.5068 15.75 15.9519 15.75 16.416Z" stroke="white" stroke-width="1.5"/>
<path d="M14 18.166V21.666" stroke="white" stroke-width="1.5" stroke-linecap="round"/>
</svg>
