<svg width="28" height="28" viewBox="0 0 28 28" fill="none" xmlns="http://www.w3.org/2000/svg">
<path d="M4.66675 9.33366H23.3334V21.0003C23.3334 21.6192 23.0876 22.2127 22.65 22.6502C22.2124 23.0878 21.6189 23.3337 21.0001 23.3337H7.00008C6.38124 23.3337 5.78775 23.0878 5.35017 22.6502C4.91258 22.2127 4.66675 21.6192 4.66675 21.0003V9.33366ZM9.33341 4.66699H18.6667L23.3334 9.33366H4.66675L9.33341 4.66699ZM9.33341 14.0003H14.0001H9.33341Z" fill="#2EE477"/>
<path d="M4.66675 9.33366H23.3334M4.66675 9.33366V21.0003C4.66675 21.6192 4.91258 22.2127 5.35017 22.6502C5.78775 23.0878 6.38124 23.3337 7.00008 23.3337H21.0001C21.6189 23.3337 22.2124 23.0878 22.65 22.6502C23.0876 22.2127 23.3334 21.6192 23.3334 21.0003V9.33366M4.66675 9.33366L9.33341 4.66699H18.6667L23.3334 9.33366M9.33341 14.0003H14.0001" stroke="white" stroke-width="1.5" stroke-linecap="round" stroke-linejoin="round"/>
</svg>
