<svg width="25" height="25" viewBox="0 0 25 25" fill="none" xmlns="http://www.w3.org/2000/svg">
<path d="M24.248 12.1245C24.248 18.7519 18.8755 24.1245 12.248 24.1245C5.62063 24.1245 0.248047 18.7519 0.248047 12.1245C0.248047 5.49709 5.62063 0.124512 12.248 0.124512C18.8755 0.124512 24.248 5.49709 24.248 12.1245Z" fill="#D2386E"/>
<path d="M12.2702 17.7488C11.4857 17.7488 10.7877 17.6144 10.1763 17.3455C9.56859 17.0766 9.09345 16.7028 8.75091 16.224C8.41205 15.7415 8.24446 15.1963 8.24815 14.5886C8.24446 14.1135 8.34391 13.6696 8.54649 13.2571C8.75275 12.8409 9.03083 12.4984 9.38074 12.2295C9.73065 11.9569 10.1192 11.7857 10.5465 11.7157V11.6604C10.1782 11.572 9.8522 11.4063 9.56859 11.1632C9.28498 10.9201 9.06583 10.6217 8.91113 10.2682C8.75643 9.91457 8.67908 9.53519 8.67908 9.13004C8.67908 8.55913 8.83378 8.04532 9.14317 7.5886C9.45257 7.1282 9.87982 6.76908 10.4249 6.51125C10.9737 6.25343 11.5888 6.12451 12.2702 6.12451C12.948 6.12451 13.5594 6.25343 14.1045 6.51125C14.6496 6.76908 15.075 7.1282 15.3807 7.5886C15.6901 8.04532 15.8467 8.55913 15.8504 9.13004C15.8467 9.53519 15.7656 9.91457 15.6073 10.2682C15.4526 10.6217 15.2334 10.9201 14.9498 11.1632C14.6699 11.4063 14.3476 11.572 13.983 11.6604V11.7157C14.4065 11.7857 14.7933 11.9569 15.1432 12.2295C15.4968 12.4984 15.7748 12.8409 15.9774 13.2571C16.1837 13.6696 16.2887 14.1135 16.2923 14.5886C16.2887 15.1963 16.1155 15.7415 15.773 16.224C15.4341 16.7028 14.959 17.0766 14.3476 17.3455C13.7362 17.6144 13.0437 17.7488 12.2702 17.7488ZM12.2702 16.5113C12.8006 16.5113 13.2629 16.4265 13.657 16.2571C14.0511 16.0877 14.355 15.8538 14.5686 15.5555C14.7822 15.2571 14.889 14.909 14.889 14.5113C14.889 14.0987 14.7767 13.7286 14.552 13.4008C14.3273 13.0729 14.0143 12.8151 13.6128 12.6273C13.215 12.4394 12.7675 12.3455 12.2702 12.3455C11.7693 12.3455 11.3181 12.4394 10.9167 12.6273C10.5152 12.8151 10.2021 13.0748 9.97743 13.4063C9.75275 13.7341 9.64409 14.1024 9.65146 14.5113C9.64409 14.909 9.74538 15.2571 9.95533 15.5555C10.1653 15.8538 10.4691 16.0877 10.8669 16.2571C11.2647 16.4265 11.7325 16.5113 12.2702 16.5113ZM12.2702 11.1521C12.6938 11.1521 13.0732 11.0711 13.4084 10.909C13.7472 10.747 14.0106 10.5205 14.1984 10.2295C14.3863 9.93851 14.4802 9.60518 14.4802 9.22948C14.4802 8.85748 14.3881 8.52967 14.2039 8.24606C14.0198 7.95877 13.7601 7.73593 13.4249 7.57755C13.0898 7.41917 12.7049 7.33998 12.2702 7.33998C11.8283 7.33998 11.4397 7.41917 11.1045 7.57755C10.7693 7.73593 10.5097 7.95877 10.3255 8.24606C10.1413 8.52967 10.0493 8.85748 10.0493 9.22948C10.0493 9.60886 10.1432 9.94403 10.331 10.235C10.5189 10.5223 10.7804 10.747 11.1155 10.909C11.4544 11.0711 11.8393 11.1521 12.2702 11.1521Z" fill="white"/>
</svg>
