<svg width="69" height="25" viewBox="0 0 69 25" fill="none" xmlns="http://www.w3.org/2000/svg">
<rect y="0.254395" width="69" height="24" rx="12" fill="#89C07A"/>
<path d="M18.1033 12.34H15.7732V11.4505H18.1033V12.34ZM21.2069 18.8663H20.1723V6.71296H21.2069V18.8663ZM18.7704 18.2475H17.7359V6.97401H18.7704V18.2475ZM13.5494 7.73782C14.0747 7.73782 14.534 7.90863 14.9272 8.25025C15.3236 8.59187 15.6297 9.08174 15.8457 9.71986C16.0648 10.358 16.176 11.1025 16.1792 11.9533C16.176 12.8073 16.0648 13.5534 15.8457 14.1915C15.6297 14.8264 15.3236 15.3179 14.9272 15.666C14.534 16.0108 14.0747 16.1817 13.5494 16.1784C13.0273 16.1817 12.5713 16.0108 12.1813 15.666C11.7913 15.3179 11.4884 14.8264 11.2725 14.1915C11.0565 13.5534 10.9486 12.8073 10.9486 11.9533C10.9486 11.1025 11.0565 10.358 11.2725 9.71986C11.4884 9.08174 11.7913 8.59187 12.1813 8.25025C12.5713 7.90863 13.0273 7.73782 13.5494 7.73782ZM13.5494 8.74334C13.2271 8.74334 12.9451 8.87387 12.7034 9.13492C12.4617 9.39597 12.2748 9.76821 12.1426 10.2516C12.0137 10.7351 11.9509 11.3023 11.9541 11.9533C11.9509 12.6043 12.0137 13.1715 12.1426 13.6549C12.2748 14.1384 12.4617 14.5122 12.7034 14.7765C12.9451 15.0375 13.2271 15.1665 13.5494 15.1632C13.8781 15.1665 14.165 15.0375 14.4099 14.7765C14.6548 14.5122 14.8434 14.1384 14.9755 13.6549C15.1076 13.1715 15.1737 12.6043 15.1737 11.9533C15.1737 11.3023 15.1076 10.7351 14.9755 10.2516C14.8434 9.76821 14.6548 9.39597 14.4099 9.13492C14.165 8.87387 13.8781 8.74334 13.5494 8.74334ZM32.9681 18.8856H31.9045V6.71296H32.9681V18.8856ZM32.2139 12.1273H28.6462V11.2378H32.2139V12.1273ZM24.4695 10.8317H27.9404V7.66047H28.9846V15.811H23.3866V7.66047H24.4695V10.8317ZM27.9404 14.9215V11.6922H24.4695V14.9215H27.9404ZM44.4006 18.8856H43.337V6.71296H44.4006V18.8856ZM46.4309 12.4561H44.1588V11.5472H46.4309V12.4561ZM36.4627 15.0375C37.6938 15.0375 38.7413 15.0085 39.605 14.9505C40.4719 14.8893 41.3517 14.7765 42.2445 14.6121L42.3508 15.5016C41.4355 15.6692 40.5364 15.7836 39.6533 15.8449C38.7703 15.9061 37.7067 15.9399 36.4627 15.9464H35.4959V15.0375H36.4627ZM40.9972 12.195H36.5594V15.4049H35.4959V11.3055H39.924V8.73368H35.4669V7.84417H40.9972V12.195ZM57.1286 15.608H56.0554V6.72263H57.1286V15.608ZM57.5057 18.5956H49.2778V17.7061H57.5057V18.5956ZM50.351 18.0058H49.2778V14.6991H50.351V18.0058ZM50.5637 7.57345C51.1631 7.57345 51.7062 7.69915 52.1928 7.95053C52.6795 8.20191 53.0598 8.55481 53.3337 9.00923C53.6077 9.46365 53.7446 9.97769 53.7446 10.5514C53.7446 11.1315 53.6077 11.6487 53.3337 12.1032C53.0598 12.5576 52.6795 12.9121 52.1928 13.1667C51.7062 13.4181 51.1631 13.5421 50.5637 13.5389C49.9643 13.5421 49.4212 13.4181 48.9346 13.1667C48.4479 12.9121 48.066 12.5576 47.7888 12.1032C47.5117 11.6487 47.3731 11.1315 47.3731 10.5514C47.3731 9.97769 47.5117 9.46365 47.7888 9.00923C48.066 8.55481 48.4479 8.20191 48.9346 7.95053C49.4212 7.69915 49.9643 7.57345 50.5637 7.57345ZM50.5637 8.5113C50.1576 8.5113 49.7918 8.59832 49.4663 8.77235C49.1408 8.94638 48.8846 9.18971 48.6977 9.50232C48.514 9.81171 48.4237 10.1614 48.427 10.5514C48.4237 10.9478 48.514 11.3023 48.6977 11.6149C48.8846 11.9243 49.1408 12.166 49.4663 12.34C49.7918 12.5141 50.1576 12.6011 50.5637 12.6011C50.9633 12.6011 51.3259 12.5141 51.6514 12.34C51.9769 12.166 52.2331 11.9243 52.4201 11.6149C52.607 11.3023 52.7004 10.9478 52.7004 10.5514C52.7004 10.1614 52.607 9.81171 52.4201 9.50232C52.2331 9.18971 51.9769 8.94638 51.6514 8.77235C51.3259 8.59832 50.9633 8.5113 50.5637 8.5113Z" fill="white"/>
</svg>
