<svg width="25" height="25" viewBox="0 0 25 25" fill="none" xmlns="http://www.w3.org/2000/svg">
<path d="M24.248 12.1245C24.248 18.7519 18.8755 24.1245 12.248 24.1245C5.62063 24.1245 0.248047 18.7519 0.248047 12.1245C0.248047 5.49709 5.62063 0.124512 12.248 0.124512C18.8755 0.124512 24.248 5.49709 24.248 12.1245Z" fill="#7F41D8"/>
<path d="M11.9276 17.5941C11.2536 17.5941 10.6422 17.4652 10.0934 17.2074C9.54823 16.9496 9.11177 16.5941 8.78396 16.1411C8.45615 15.6844 8.27751 15.1706 8.24805 14.5997H9.61821C9.65136 14.9311 9.77291 15.2295 9.98285 15.4947C10.1965 15.7599 10.4727 15.9698 10.8116 16.1245C11.1541 16.2792 11.5261 16.3566 11.9276 16.3566C12.4101 16.3566 12.8429 16.2479 13.2259 16.0306C13.6127 15.8133 13.9147 15.5149 14.132 15.1356C14.3493 14.7562 14.458 14.3308 14.458 13.8593C14.458 13.3768 14.3457 12.9422 14.121 12.5555C13.8963 12.165 13.5832 11.8593 13.1817 11.6383C12.7803 11.4136 12.3291 11.2995 11.8282 11.2958C11.3383 11.2884 10.9147 11.3676 10.5574 11.5334C10.2002 11.6991 9.92024 11.9588 9.71766 12.3124H8.35854L9.15412 6.12451H15.2867V7.37313H10.3254L9.90551 10.688H10.0271C10.1928 10.5591 10.3843 10.445 10.6016 10.3455C10.8226 10.2424 11.0584 10.165 11.3088 10.1135C11.563 10.0619 11.8208 10.0361 12.0823 10.0361C12.7932 10.0361 13.4322 10.1982 13.9994 10.5223C14.5703 10.8464 15.0178 11.2976 15.342 11.8759C15.6661 12.4542 15.8282 13.1043 15.8282 13.8262C15.8282 14.5444 15.6606 15.1908 15.3254 15.7654C14.9902 16.3363 14.5261 16.7838 13.9331 17.1079C13.3401 17.4321 12.6716 17.5941 11.9276 17.5941Z" fill="white"/>
</svg>
