<svg width="69" height="25" viewBox="0 0 69 25" fill="none" xmlns="http://www.w3.org/2000/svg">
<rect y="0.254395" width="69" height="24" rx="12" fill="#907227"/>
<path d="M17.2041 7.50578C17.2041 8.5113 16.9688 9.42336 16.4983 10.242C16.0278 11.0606 15.3542 11.7631 14.4776 12.3497C13.6042 12.933 12.5664 13.3842 11.3643 13.7033L10.9292 12.8621C11.996 12.5785 12.9145 12.1982 13.6848 11.7212C14.4582 11.2443 15.0496 10.6883 15.4589 10.0534C15.8715 9.41531 16.0793 8.72078 16.0825 7.96986V7.50578H17.2041ZM16.682 8.37594H11.577V7.50578H16.682V8.37594ZM20.8298 13.5873H19.7566V6.72263H20.8298V13.5873ZM20.8298 18.6922H12.9209V14.1674H20.8298V18.6922ZM13.9845 17.8221H19.7759V15.0279H13.9845V17.8221ZM34.0219 17.358H22.8935V16.4395H34.0219V17.358ZM28.9363 16.8552H27.8824V13.2585H28.9363V16.8552ZM32.9584 8.78202H23.8797V7.89252H32.9584V8.78202ZM32.9294 13.6453H23.899V12.7751H32.9294V13.6453ZM26.8672 12.9395H25.8037V8.57898H26.8672V12.9395ZM31.0247 12.9395H29.9708V8.57898H31.0247V12.9395ZM44.2072 8.08589H36.3177V7.21572H44.2072V8.08589ZM46.0635 12.4367H35.0028V11.5665H46.0635V12.4367ZM40.6395 11.9726H39.5856V9.44915H40.6395V11.9726ZM44.6616 8.11489C44.6552 8.64666 44.6374 9.1188 44.6084 9.53133C44.5794 9.94385 44.5166 10.3967 44.4199 10.8898L43.3564 10.7834C43.424 10.4289 43.474 10.0937 43.5062 9.77788C43.5417 9.46204 43.5642 9.17682 43.5739 8.92221C43.5836 8.66439 43.5884 8.37594 43.5884 8.05688V7.99887V7.21572H44.6616V7.99887V8.11489ZM44.7003 16.4588H37.4102V18.1508H36.337V15.6853H43.6367V14.4478H36.3177V13.5679H44.7003V16.4588ZM45.0097 18.7212H36.337V17.8511H45.0097V18.7212ZM56.9062 13.4422H48.514V12.5527H56.9062V13.4422ZM58.2212 17.2033H47.0927V16.3041H58.2212V17.2033ZM56.7902 8.73368H49.5775V12.9588H48.514V7.84417H56.7902V8.73368Z" fill="white"/>
</svg>
