<svg width="45" height="25" viewBox="0 0 45 25" fill="none" xmlns="http://www.w3.org/2000/svg">
<rect y="0.254395" width="45" height="24" rx="12" fill="#3C74EA"/>
<path d="M20.0786 9.84555H16.7623V8.98506H20.0786V9.84555ZM19.9916 12.3787H16.6559V11.4892H19.9916V12.3787ZM20.9681 14.0224H19.8949V6.72263H20.9681V14.0224ZM17.207 7.6218C17.2038 8.64988 16.9734 9.58128 16.5157 10.416C16.0613 11.2475 15.4071 11.9646 14.553 12.5672C13.699 13.1699 12.6822 13.6453 11.5026 13.9933L11.0578 13.1425C12.0988 12.8363 12.9932 12.4351 13.7409 11.9388C14.4918 11.4392 15.0671 10.864 15.4667 10.213C15.8663 9.56194 16.0661 8.85614 16.0661 8.09555V7.6218H17.207ZM16.7913 8.52097H11.6766V7.6218H16.7913V8.52097ZM16.9943 14.148C17.8097 14.148 18.5219 14.2399 19.1311 14.4236C19.7434 14.6073 20.2139 14.8748 20.5427 15.2261C20.8714 15.5774 21.0358 15.9915 21.0358 16.4685C21.0358 16.9487 20.8714 17.366 20.5427 17.7206C20.2139 18.0718 19.7434 18.341 19.1311 18.5279C18.5219 18.7148 17.8097 18.8083 16.9943 18.8083C16.166 18.8083 15.4457 18.7148 14.8334 18.5279C14.2243 18.341 13.7538 18.0718 13.4218 17.7206C13.0898 17.366 12.9239 16.9487 12.9239 16.4685C12.9239 15.9915 13.0898 15.5774 13.4218 15.2261C13.7538 14.8748 14.2243 14.6073 14.8334 14.4236C15.4457 14.2399 16.166 14.148 16.9943 14.148ZM16.9943 15.0085C16.3852 15.0053 15.8534 15.0617 15.399 15.1777C14.9478 15.2905 14.5997 15.4581 14.3548 15.6805C14.1099 15.9029 13.9874 16.1655 13.9874 16.4685C13.9874 16.7714 14.1099 17.0325 14.3548 17.2516C14.5997 17.4708 14.9478 17.64 15.399 17.7592C15.8534 17.8785 16.3852 17.9381 16.9943 17.9381C17.5905 17.9381 18.1126 17.8785 18.5606 17.7592C19.0118 17.64 19.3583 17.4708 19.6 17.2516C19.8449 17.0325 19.969 16.7714 19.9722 16.4685C19.969 16.1655 19.8449 15.9029 19.6 15.6805C19.3583 15.4581 19.0118 15.2905 18.5606 15.1777C18.1126 15.0617 17.5905 15.0053 16.9943 15.0085ZM32.4972 14.003H31.424V6.71296H32.4972V14.003ZM34.3246 10.7641H32.1975V9.87456H34.3246V10.7641ZM29.1809 7.61213C29.1809 8.63055 28.9521 9.56033 28.4945 10.4015C28.0368 11.2427 27.3794 11.9694 26.5221 12.5817C25.6648 13.1909 24.6432 13.6711 23.4572 14.0224L23.0124 13.1522C24.0502 12.8492 24.9461 12.448 25.7003 11.9485C26.4544 11.4489 27.0329 10.872 27.4358 10.2178C27.8419 9.56033 28.0465 8.85292 28.0497 8.09555V7.61213H29.1809ZM28.6492 8.50163H23.5442V7.61213H28.6492V8.50163ZM28.6588 14.1384C29.4678 14.1384 30.1704 14.2318 30.7666 14.4188C31.366 14.6057 31.8269 14.8764 32.1492 15.2309C32.4715 15.5854 32.6326 16.0044 32.6326 16.4878C32.6326 16.9712 32.4715 17.3902 32.1492 17.7447C31.8269 18.0992 31.366 18.37 30.7666 18.5569C30.1704 18.7438 29.4678 18.8373 28.6588 18.8373C27.8531 18.8373 27.1506 18.7438 26.5511 18.5569C25.9517 18.37 25.4876 18.0992 25.1588 17.7447C24.8333 17.3902 24.6722 16.9712 24.6754 16.4878C24.6722 16.0076 24.8333 15.5903 25.1588 15.2357C25.4876 14.878 25.9517 14.6057 26.5511 14.4188C27.1506 14.2318 27.8531 14.1384 28.6588 14.1384ZM28.6588 15.0085C28.0658 15.0053 27.5502 15.0633 27.1119 15.1826C26.6736 15.2986 26.3336 15.4694 26.0919 15.695C25.8534 15.9206 25.7357 16.1849 25.739 16.4878C25.7357 16.7875 25.8534 17.0502 26.0919 17.2758C26.3336 17.4982 26.6736 17.6706 27.1119 17.7931C27.5534 17.9155 28.0691 17.9768 28.6588 17.9768C29.2486 17.9768 29.7643 17.9155 30.2058 17.7931C30.6506 17.6706 30.9922 17.4982 31.2307 17.2758C31.4692 17.0502 31.5884 16.7875 31.5884 16.4878C31.5884 16.1849 31.4692 15.9206 31.2307 15.695C30.9922 15.4694 30.6506 15.2986 30.2058 15.1826C29.7643 15.0633 29.2486 15.0053 28.6588 15.0085Z" fill="white"/>
</svg>
