<svg width="45" height="26" viewBox="0 0 45 26" fill="none" xmlns="http://www.w3.org/2000/svg">
<rect y="0.254395" width="45" height="25" rx="12.5" fill="#4FAC7F"/>
<path d="M20.0786 10.3456H16.7623V9.48506H20.0786V10.3456ZM19.9916 12.8787H16.6559V11.9892H19.9916V12.8787ZM20.9681 14.5224H19.8949V7.22263H20.9681V14.5224ZM17.207 8.1218C17.2038 9.14988 16.9734 10.0813 16.5157 10.916C16.0613 11.7475 15.4071 12.4646 14.553 13.0672C13.699 13.6699 12.6822 14.1453 11.5026 14.4933L11.0578 13.6425C12.0988 13.3363 12.9932 12.9351 13.7409 12.4388C14.4918 11.9392 15.0671 11.364 15.4667 10.713C15.8663 10.0619 16.0661 9.35614 16.0661 8.59555V8.1218H17.207ZM16.7913 9.02097H11.6766V8.1218H16.7913V9.02097ZM16.9943 14.648C17.8097 14.648 18.5219 14.7399 19.1311 14.9236C19.7434 15.1073 20.2139 15.3748 20.5427 15.7261C20.8714 16.0774 21.0358 16.4915 21.0358 16.9685C21.0358 17.4487 20.8714 17.866 20.5427 18.2206C20.2139 18.5718 19.7434 18.841 19.1311 19.0279C18.5219 19.2148 17.8097 19.3083 16.9943 19.3083C16.166 19.3083 15.4457 19.2148 14.8334 19.0279C14.2243 18.841 13.7538 18.5718 13.4218 18.2206C13.0898 17.866 12.9239 17.4487 12.9239 16.9685C12.9239 16.4915 13.0898 16.0774 13.4218 15.7261C13.7538 15.3748 14.2243 15.1073 14.8334 14.9236C15.4457 14.7399 16.166 14.648 16.9943 14.648ZM16.9943 15.5085C16.3852 15.5053 15.8534 15.5617 15.399 15.6777C14.9478 15.7905 14.5997 15.9581 14.3548 16.1805C14.1099 16.4029 13.9874 16.6655 13.9874 16.9685C13.9874 17.2714 14.1099 17.5325 14.3548 17.7516C14.5997 17.9708 14.9478 18.14 15.399 18.2592C15.8534 18.3785 16.3852 18.4381 16.9943 18.4381C17.5905 18.4381 18.1126 18.3785 18.5606 18.2592C19.0118 18.14 19.3583 17.9708 19.6 17.7516C19.8449 17.5325 19.969 17.2714 19.9722 16.9685C19.969 16.6655 19.8449 16.4029 19.6 16.1805C19.3583 15.9581 19.0118 15.7905 18.5606 15.6777C18.1126 15.5617 17.5905 15.5053 16.9943 15.5085ZM29.0552 8.89528H28.0014V7.19362H29.0552V8.89528ZM28.8812 9.27235C28.8812 9.9427 28.6637 10.5325 28.2286 11.0417C27.7935 11.5509 27.2086 11.9602 26.4738 12.2696C25.739 12.579 24.9236 12.7852 24.0276 12.8884L23.6699 12.0569C24.4563 11.9763 25.175 11.8103 25.826 11.559C26.477 11.3043 26.9926 10.9821 27.3729 10.5921C27.7532 10.1989 27.9434 9.759 27.9434 9.27235V9.07898H28.8812V9.27235ZM29.1133 9.27235C29.11 9.759 29.2986 10.1989 29.6789 10.5921C30.0624 10.9821 30.578 11.3043 31.2258 11.559C31.8768 11.8103 32.5971 11.9763 33.3867 12.0569L33.029 12.8884C32.1331 12.7852 31.3177 12.579 30.5829 12.2696C29.8481 11.9602 29.2631 11.5509 28.828 11.0417C28.393 10.5325 28.1754 9.9427 28.1754 9.27235V9.07898H29.1133V9.27235ZM32.942 9.3787H24.134V8.52788H32.942V9.3787ZM34.1022 14.5127H22.9738V13.6425H34.1022V14.5127ZM29.1519 16.9395H28.0884V14.1066H29.1519V16.9395ZM32.8646 19.0956H24.4047V18.2061H32.8646V19.0956ZM25.4779 18.5638H24.4047V15.7406H25.4779V18.5638Z" fill="white"/>
</svg>
