<svg width="56" height="25" viewBox="0 0 56 25" fill="none" xmlns="http://www.w3.org/2000/svg">
<rect y="0.254395" width="56" height="24" rx="12" fill="#E9AD54"/>
<path d="M20.5642 15.608H19.491V6.72263H20.5642V15.608ZM20.9412 18.5956H12.7133V17.7061H20.9412V18.5956ZM13.7865 18.0058H12.7133V14.6991H13.7865V18.0058ZM13.9992 7.57345C14.5987 7.57345 15.1417 7.69915 15.6284 7.95053C16.115 8.20191 16.4953 8.55481 16.7693 9.00923C17.0432 9.46365 17.1802 9.97769 17.1802 10.5514C17.1802 11.1315 17.0432 11.6487 16.7693 12.1032C16.4953 12.5576 16.115 12.9121 15.6284 13.1667C15.1417 13.4181 14.5987 13.5421 13.9992 13.5389C13.3998 13.5421 12.8567 13.4181 12.3701 13.1667C11.8835 12.9121 11.5015 12.5576 11.2244 12.1032C10.9472 11.6487 10.8086 11.1315 10.8086 10.5514C10.8086 9.97769 10.9472 9.46365 11.2244 9.00923C11.5015 8.55481 11.8835 8.20191 12.3701 7.95053C12.8567 7.69915 13.3998 7.57345 13.9992 7.57345ZM13.9992 8.5113C13.5932 8.5113 13.2274 8.59832 12.9019 8.77235C12.5764 8.94638 12.3201 9.18971 12.1332 9.50232C11.9495 9.81171 11.8593 10.1614 11.8625 10.5514C11.8593 10.9478 11.9495 11.3023 12.1332 11.6149C12.3201 11.9243 12.5764 12.166 12.9019 12.34C13.2274 12.5141 13.5932 12.6011 13.9992 12.6011C14.3989 12.6011 14.7614 12.5141 15.087 12.34C15.4125 12.166 15.6687 11.9243 15.8556 11.6149C16.0425 11.3023 16.136 10.9478 16.136 10.5514C16.136 10.1614 16.0425 9.81171 15.8556 9.50232C15.6687 9.18971 15.4125 8.94638 15.087 8.77235C14.7614 8.59832 14.3989 8.5113 13.9992 8.5113ZM26.6016 9.61351C26.5984 10.3322 26.455 11.0042 26.1714 11.6294C25.891 12.2514 25.493 12.7912 24.9773 13.2489C24.4649 13.7033 23.8719 14.0481 23.1983 14.2834L22.6665 13.4422C23.2628 13.2424 23.7913 12.9508 24.2522 12.5672C24.7163 12.1837 25.0756 11.7374 25.3302 11.2282C25.5848 10.7157 25.7121 10.1775 25.7121 9.61351V8.99473H26.6016V9.61351ZM26.7756 9.61351C26.7756 10.1453 26.9062 10.6513 27.1672 11.1315C27.4283 11.6084 27.7908 12.029 28.2549 12.3932C28.7222 12.7542 29.2572 13.0297 29.8599 13.2199L29.3281 14.0804C28.6546 13.8612 28.0583 13.5325 27.5395 13.0942C27.0238 12.6559 26.621 12.1386 26.3309 11.5424C26.0408 10.9429 25.8958 10.3 25.8958 9.61351V8.99473H26.7756V9.61351ZM29.5118 9.22677H22.9663V8.34694H29.5118V9.22677ZM26.795 8.68533H25.7121V6.79031H26.795V8.68533ZM32.1997 11.3538H29.0961V10.4643H32.1997V11.3538ZM32.7024 15.8014H31.6292V6.72263H32.7024V15.8014ZM33.0408 18.5956H24.9V17.7061H33.0408V18.5956ZM25.9732 18.1605H24.9V14.9795H25.9732V18.1605ZM38.6666 16.8552L42.0409 13.2972C42.4856 12.8235 42.8256 12.4432 43.0609 12.1563C43.2962 11.8663 43.4734 11.5875 43.5927 11.32C43.7151 11.0493 43.778 10.7673 43.7812 10.474C43.778 10.1388 43.6893 9.84394 43.5153 9.58934C43.3445 9.33474 43.1092 9.13814 42.8095 8.99956C42.513 8.86098 42.1794 8.79169 41.8088 8.79169C41.4221 8.79169 41.0837 8.86904 40.7936 9.02373C40.5036 9.17843 40.2796 9.39597 40.1217 9.67636C39.9637 9.95674 39.8848 10.2806 39.8848 10.648H38.7149C38.7117 10.0744 38.8454 9.56517 39.1161 9.12042C39.3901 8.67566 39.7655 8.33082 40.2425 8.08589C40.7195 7.84095 41.2545 7.71848 41.8475 7.71848C42.4341 7.71848 42.9626 7.83934 43.4331 8.08105C43.9037 8.32276 44.2695 8.65472 44.5305 9.07691C44.7948 9.49588 44.9285 9.96158 44.9317 10.474C44.9285 10.8511 44.8576 11.212 44.719 11.5569C44.5837 11.8985 44.3532 12.2788 44.0277 12.6978C43.7055 13.1167 43.2462 13.6324 42.65 14.2447L40.3875 16.5845V16.6619H45.1058V17.7544H38.6762L38.6666 16.8552Z" fill="white"/>
</svg>
