<svg width="25" height="25" viewBox="0 0 25 25" fill="none" xmlns="http://www.w3.org/2000/svg">
<path d="M24.248 12.1245C24.248 18.7519 18.8755 24.1245 12.248 24.1245C5.62063 24.1245 0.248047 18.7519 0.248047 12.1245C0.248047 5.49709 5.62063 0.124512 12.248 0.124512C18.8755 0.124512 24.248 5.49709 24.248 12.1245Z" fill="#D1A946"/>
<path d="M12.2038 6.12475C12.9258 6.13212 13.5943 6.30339 14.2094 6.63856C14.8245 6.97374 15.3291 7.53911 15.7232 8.33469C16.1173 9.12659 16.3143 10.1763 16.3143 11.4839C16.3143 12.8098 16.1412 13.9406 15.795 14.8761C15.4488 15.8117 14.9534 16.5244 14.3088 17.0143C13.6643 17.5041 12.9 17.7491 12.016 17.7491C11.3641 17.7491 10.7766 17.6238 10.2536 17.3734C9.73423 17.1229 9.30882 16.7712 8.97733 16.3181C8.64584 15.8614 8.43221 15.3329 8.33644 14.7325H9.72871C9.81711 15.0787 9.9626 15.3844 10.1652 15.6496C10.3678 15.9148 10.6237 16.1229 10.9331 16.2739C11.2462 16.4249 11.6072 16.5004 12.016 16.5004C12.6274 16.5004 13.1578 16.3292 13.6072 15.9866C14.0565 15.6441 14.3991 15.1487 14.6348 14.5004C14.8742 13.8485 14.9957 13.0677 14.9994 12.1579H14.8447C14.6274 12.471 14.3696 12.7399 14.0713 12.9645C13.7766 13.1855 13.4488 13.3568 13.0878 13.4783C12.7269 13.5999 12.3475 13.6607 11.9497 13.6607C11.2794 13.6607 10.6624 13.4986 10.0989 13.1745C9.53534 12.8503 9.08598 12.4047 8.75081 11.8375C8.41563 11.2666 8.24805 10.6257 8.24805 9.91481C8.24805 9.21499 8.41195 8.57411 8.73976 7.99215C9.06757 7.4102 9.53166 6.95164 10.132 6.61646C10.7324 6.28129 11.423 6.11738 12.2038 6.12475ZM12.2038 7.36232C11.7213 7.36232 11.2812 7.4765 10.8834 7.70486C10.4893 7.93322 10.1781 8.24261 9.9497 8.63304C9.72503 9.01978 9.61453 9.44335 9.61821 9.90376C9.61821 10.3678 9.72871 10.7914 9.9497 11.1745C10.1707 11.5575 10.4727 11.8614 10.8558 12.0861C11.2425 12.3108 11.6771 12.4231 12.1596 12.4231C12.6385 12.4231 13.0786 12.3034 13.4801 12.064C13.8816 11.8246 14.1983 11.5115 14.4304 11.1247C14.6624 10.7343 14.7784 10.32 14.7784 9.88166C14.7784 9.44703 14.6661 9.03635 14.4414 8.64961C14.2167 8.26287 13.9073 7.95164 13.5132 7.71591C13.1228 7.48018 12.6864 7.36232 12.2038 7.36232Z" fill="white"/>
</svg>
