<svg width="57" height="26" viewBox="0 0 57 26" fill="none" xmlns="http://www.w3.org/2000/svg">
<rect y="0.254395" width="57" height="25" rx="12.5" fill="#BC2A38"/>
<path d="M20.8796 16.137H19.8064V7.22263H20.8796V16.137ZM21.2567 19.0956H13.0288V18.2061H21.2567V19.0956ZM14.102 18.6315H13.0288V15.3152H14.102V18.6315ZM14.9528 9.11765C14.9496 9.90403 14.8045 10.6469 14.5177 11.3462C14.2341 12.0456 13.8361 12.6579 13.3237 13.1833C12.8144 13.7086 12.2263 14.1066 11.5591 14.3773L10.9694 13.5362C11.5753 13.3009 12.1119 12.9577 12.5792 12.5065C13.0465 12.052 13.4091 11.5332 13.6669 10.9498C13.9247 10.3633 14.0536 9.75255 14.0536 9.11765V7.89942H14.9528V9.11765ZM15.1462 9.11765C15.1429 9.72677 15.2702 10.3101 15.5281 10.8677C15.7891 11.422 16.1517 11.9102 16.6158 12.3324C17.0799 12.7546 17.6116 13.0753 18.2111 13.2944L17.6503 14.1549C16.9767 13.8939 16.3821 13.5168 15.8665 13.0237C15.354 12.5274 14.956 11.9441 14.6724 11.2737C14.3888 10.6034 14.247 9.88469 14.247 9.11765V7.89942H15.1462V9.11765ZM34.0524 14.5224H22.924V13.6425H34.0524V14.5224ZM29.1021 16.9008H28.0386V14.0776H29.1021V16.9008ZM32.8148 19.0956H24.3549V18.2061H32.8148V19.0956ZM25.4184 18.5348H24.3549V15.7793H25.4184V18.5348ZM25.4861 9.166H31.4999V7.5997H32.5731V12.4533H24.4129V7.5997H25.4861V9.166ZM31.4999 11.5831V9.98782H25.4861V11.5831H31.4999ZM44.5567 14.4643H43.4738V7.21296H44.5567V14.4643ZM46.3744 11.2834H44.2473V10.3842H46.3744V11.2834ZM40.6506 14.6964C41.4725 14.6996 42.1831 14.7931 42.7825 14.9768C43.3852 15.1572 43.8477 15.4231 44.17 15.7744C44.4923 16.1225 44.6534 16.5366 44.6534 17.0168C44.6534 17.5003 44.4923 17.9176 44.17 18.2689C43.8477 18.6202 43.3852 18.8861 42.7825 19.0665C42.1831 19.247 41.4725 19.3373 40.6506 19.3373C39.8256 19.3373 39.1101 19.2454 38.5042 19.0617C37.8983 18.878 37.4326 18.6121 37.1071 18.2641C36.7816 17.916 36.6189 17.5003 36.6189 17.0168C36.6189 16.5366 36.7816 16.1225 37.1071 15.7744C37.4326 15.4231 37.8983 15.1572 38.5042 14.9768C39.1101 14.7931 39.8256 14.6996 40.6506 14.6964ZM40.6506 15.5859C40.0415 15.5827 39.513 15.6391 39.065 15.7551C38.6202 15.8679 38.277 16.0322 38.0353 16.2482C37.7936 16.4641 37.6727 16.7203 37.6727 17.0168C37.6727 17.3133 37.7936 17.5712 38.0353 17.7903C38.277 18.0095 38.6202 18.177 39.065 18.2931C39.513 18.4091 40.0415 18.4671 40.6506 18.4671C41.2533 18.4671 41.777 18.4091 42.2218 18.2931C42.6697 18.177 43.0146 18.0095 43.2563 17.7903C43.498 17.5712 43.6189 17.3133 43.6189 17.0168C43.6189 16.7203 43.498 16.4641 43.2563 16.2482C43.0146 16.0322 42.6697 15.8679 42.2218 15.7551C41.777 15.6391 41.2533 15.5827 40.6506 15.5859ZM36.5415 12.5886C37.4471 12.5854 38.2077 12.5725 38.8233 12.55C39.4421 12.5242 40.0173 12.4823 40.5491 12.4243C41.0809 12.3663 41.6175 12.2825 42.1589 12.1729L42.2749 13.0624C41.7142 13.1752 41.1615 13.2606 40.6168 13.3186C40.0721 13.3734 39.4856 13.4121 38.8571 13.4346C38.2287 13.4572 37.4568 13.4685 36.5415 13.4685H35.6037V12.5886H36.5415ZM40.9987 9.03064H36.6575V13.1688H35.6037V8.14113H40.9987V9.03064Z" fill="white"/>
</svg>
