<svg width="25" height="25" viewBox="0 0 25 25" fill="none" xmlns="http://www.w3.org/2000/svg">
<path d="M24.248 12.1245C24.248 18.7519 18.8755 24.1245 12.248 24.1245C5.62063 24.1245 0.248047 18.7519 0.248047 12.1245C0.248047 5.49709 5.62063 0.124512 12.248 0.124512C18.8755 0.124512 24.248 5.49709 24.248 12.1245Z" fill="#A95523"/>
<path d="M12.3696 17.7488C11.644 17.7415 10.9718 17.5702 10.353 17.235C9.73792 16.8998 9.23331 16.3345 8.83921 15.5389C8.4451 14.7433 8.24805 13.6862 8.24805 12.3676C8.24805 11.049 8.42116 9.92193 8.76738 8.98639C9.11361 8.05085 9.609 7.33998 10.2536 6.85379C10.8981 6.36761 11.6624 6.12451 12.5464 6.12451C13.1983 6.12451 13.784 6.24974 14.3033 6.5002C14.8263 6.75066 15.2517 7.10241 15.5795 7.55545C15.9073 8.00849 16.1191 8.52967 16.2149 9.11899H14.8226C14.7342 8.78013 14.5906 8.4781 14.3917 8.21291C14.1928 7.94772 13.9368 7.74146 13.6237 7.59413C13.3107 7.4468 12.9515 7.37313 12.5464 7.37313C11.9313 7.37313 11.4009 7.54256 10.9552 7.88142C10.5132 8.22028 10.1725 8.71567 9.93313 9.36761C9.69372 10.0159 9.57401 10.7912 9.57401 11.6936H9.71766C9.93497 11.3768 10.1928 11.1061 10.4911 10.8814C10.7932 10.6567 11.1228 10.4855 11.4801 10.3676C11.841 10.2497 12.2223 10.1908 12.6237 10.1908C13.2904 10.1908 13.9055 10.351 14.469 10.6715C15.0363 10.9919 15.4856 11.4394 15.8171 12.014C16.1486 12.5849 16.3143 13.2258 16.3143 13.9367C16.3143 14.6475 16.1504 15.2958 15.8226 15.8814C15.4948 16.4634 15.0307 16.9219 14.4304 17.2571C13.8337 17.5923 13.1468 17.7562 12.3696 17.7488ZM12.3696 16.5113C12.8484 16.5113 13.2849 16.3971 13.679 16.1687C14.0731 15.9404 14.3825 15.631 14.6072 15.2405C14.8355 14.8464 14.9515 14.4155 14.9552 13.9477C14.9515 13.491 14.8392 13.0693 14.6182 12.6825C14.4009 12.2958 14.0989 11.9901 13.7121 11.7654C13.3254 11.5407 12.8926 11.4284 12.4138 11.4284C11.9313 11.4284 11.4875 11.5462 11.0823 11.782C10.6808 12.0177 10.3622 12.3308 10.1265 12.7212C9.89446 13.1116 9.77659 13.5278 9.77291 13.9698C9.77291 14.4118 9.88525 14.828 10.1099 15.2184C10.3346 15.6089 10.644 15.9219 11.0381 16.1577C11.4359 16.3934 11.8797 16.5113 12.3696 16.5113Z" fill="white"/>
</svg>
