<svg width="25" height="25" viewBox="0 0 25 25" fill="none" xmlns="http://www.w3.org/2000/svg">
<path d="M24.248 12.1245C24.248 18.7519 18.8755 24.1245 12.248 24.1245C5.62063 24.1245 0.248047 18.7519 0.248047 12.1245C0.248047 5.49709 5.62063 0.124512 12.248 0.124512C18.8755 0.124512 24.248 5.49709 24.248 12.1245Z" fill="#FE8A39"/>
<path d="M12.1928 17.7488C11.4488 17.7488 10.7821 17.6236 10.1928 17.3731C9.60348 17.1227 9.13755 16.7709 8.79501 16.3179C8.45615 15.8648 8.27383 15.3437 8.24805 14.7543H9.67346C9.69924 15.1043 9.82447 15.4118 10.0492 15.677C10.2775 15.9385 10.5759 16.1411 10.9442 16.2847C11.3125 16.4284 11.7213 16.5002 12.1707 16.5002C12.6643 16.5002 13.1062 16.4155 13.4967 16.2461C13.8871 16.0766 14.1928 15.8427 14.4138 15.5444C14.6348 15.2424 14.7453 14.898 14.7453 14.5113C14.7453 14.0987 14.6385 13.7341 14.4248 13.4173C14.2112 13.1006 13.8963 12.8538 13.4801 12.677C13.0676 12.5002 12.5722 12.4118 11.9939 12.4118H11.0768V11.1742H11.9939C12.4506 11.1742 12.8576 11.0932 13.2149 10.9311C13.5722 10.7691 13.8484 10.5426 14.0436 10.2516C14.2388 9.95692 14.3364 9.61623 14.3364 9.22948C14.3364 8.85748 14.2499 8.52967 14.0768 8.24606C13.9037 7.95877 13.6569 7.73777 13.3364 7.58308C13.016 7.42838 12.6422 7.35103 12.2149 7.35103C11.8097 7.35103 11.4304 7.42285 11.0768 7.5665C10.7232 7.71015 10.4341 7.91641 10.2094 8.18529C9.98838 8.45048 9.86867 8.76171 9.85026 9.11899H8.49114C8.51324 8.53704 8.69372 8.0177 9.03258 7.56098C9.37144 7.10425 9.82263 6.75066 10.3862 6.5002C10.9497 6.24974 11.5666 6.12451 12.237 6.12451C12.9331 6.12451 13.5427 6.26263 14.0657 6.53888C14.5924 6.81512 14.9957 7.18529 15.2757 7.64937C15.5593 8.11346 15.6992 8.61807 15.6956 9.16319C15.6992 9.58308 15.6237 9.96613 15.469 10.3124C15.318 10.6586 15.0952 10.9514 14.8005 11.1908C14.5096 11.4302 14.167 11.6052 13.7729 11.7157V11.8041C14.2591 11.8777 14.6808 12.0361 15.0381 12.2792C15.3954 12.5223 15.6661 12.8372 15.8503 13.224C16.0381 13.6107 16.1302 14.0435 16.1265 14.5223C16.1302 15.13 15.9608 15.6807 15.6182 16.1742C15.2794 16.6641 14.8079 17.049 14.2038 17.3289C13.6035 17.6089 12.9331 17.7488 12.1928 17.7488Z" fill="white"/>
</svg>
