<svg width="25" height="25" viewBox="0 0 25 25" fill="none" xmlns="http://www.w3.org/2000/svg">
<path d="M24.1861 11.9996C24.2205 18.627 18.8759 24.0274 12.2486 24.0618C5.62124 24.0963 0.220811 18.7517 0.186375 12.1244C0.151939 5.49702 5.49653 0.0965958 12.1239 0.0621599C18.7512 0.0277239 24.1516 5.37232 24.1861 11.9996Z" fill="#60B157"/>
<path d="M8.17828 16.5664L12.0135 12.4801C12.5189 11.936 12.9052 11.4994 13.1724 11.1702C13.4396 10.8373 13.6405 10.5176 13.7752 10.2112C13.9135 9.90111 13.9837 9.57846 13.9856 9.24327C13.9799 8.86024 13.8769 8.52375 13.6765 8.23381C13.4798 7.94385 13.2097 7.72058 12.8664 7.56398C12.5267 7.40736 12.1451 7.33015 11.7215 7.33236C11.2795 7.33465 10.8932 7.42506 10.5627 7.60357C10.2321 7.78209 9.97742 8.03203 9.79861 8.35341C9.6198 8.67479 9.53148 9.04541 9.53367 9.4653L8.19667 9.47225C8.18958 8.81666 8.33941 8.23392 8.64615 7.72403C8.95658 7.21412 9.38363 6.81779 9.92729 6.53504C10.4709 6.25228 11.0816 6.10914 11.7593 6.10562C12.4297 6.10214 13.0344 6.23712 13.5736 6.51057C14.1128 6.78401 14.5328 7.16121 14.8337 7.64216C15.1382 8.1194 15.2938 8.65083 15.3005 9.23644C15.2991 9.66739 15.2202 10.0803 15.0639 10.4753C14.9112 10.8665 14.6501 11.3025 14.2806 11.7832C13.9148 12.2639 13.393 12.856 12.7152 13.5593L10.1435 16.2468L10.144 16.3351L15.5361 16.3071L15.5426 17.5557L8.19467 17.5939L8.17828 16.5664Z" fill="white"/>
</svg>
