<svg width="69" height="25" viewBox="0 0 69 25" fill="none" xmlns="http://www.w3.org/2000/svg">
<rect y="0.254395" width="69" height="24" rx="12" fill="#C5C03E"/>
<path d="M21.903 14.5831H10.7745V13.6743H21.903V14.5831ZM16.8367 18.8663H15.7828V14.2157H16.8367V18.8663ZM16.3146 7.19638C17.1622 7.19961 17.9083 7.31079 18.5529 7.52995C19.2006 7.74588 19.7034 8.05527 20.0611 8.45812C20.4189 8.86098 20.5977 9.33312 20.5977 9.87456C20.5977 10.4096 20.4189 10.8769 20.0611 11.2765C19.7034 11.6761 19.2006 11.9839 18.5529 12.1998C17.9083 12.4158 17.1622 12.5237 16.3146 12.5237C15.467 12.5237 14.7209 12.4158 14.0763 12.1998C13.435 11.9839 12.9354 11.6761 12.5777 11.2765C12.22 10.8769 12.0411 10.4096 12.0411 9.87456C12.0411 9.33312 12.22 8.86098 12.5777 8.45812C12.9354 8.05527 13.435 7.74588 14.0763 7.52995C14.7209 7.31079 15.467 7.19961 16.3146 7.19638ZM16.3146 8.07622C15.6861 8.07622 15.1318 8.15034 14.6516 8.29859C14.1746 8.44684 13.8024 8.65633 13.5349 8.92705C13.2706 9.19776 13.1401 9.5136 13.1433 9.87456C13.1401 10.2323 13.2706 10.5449 13.5349 10.8124C13.8024 11.0767 14.1746 11.2829 14.6516 11.4312C15.1318 11.5794 15.6861 11.6536 16.3146 11.6536C16.943 11.6536 17.4974 11.5794 17.9776 11.4312C18.461 11.2829 18.8349 11.0767 19.0991 10.8124C19.3634 10.5449 19.4955 10.2323 19.4955 9.87456C19.4955 9.5136 19.3634 9.19776 19.0991 8.92705C18.8349 8.65633 18.461 8.44684 17.9776 8.29859C17.4974 8.15034 16.943 8.07622 16.3146 8.07622ZM32.9101 18.8856H31.8369V6.71296H32.9101V18.8856ZM26.4515 7.6508C27.0509 7.65403 27.5859 7.82967 28.0565 8.17774C28.527 8.52258 28.8944 9.01567 29.1587 9.65702C29.423 10.2984 29.5551 11.0412 29.5551 11.8856C29.5551 12.7332 29.423 13.4777 29.1587 14.119C28.8944 14.7572 28.5254 15.2503 28.0516 15.5983C27.5811 15.9464 27.0477 16.1204 26.4515 16.1204C25.8488 16.1204 25.3122 15.9464 24.8417 15.5983C24.3744 15.2503 24.0086 14.7572 23.7443 14.119C23.48 13.4809 23.3479 12.7364 23.3479 11.8856C23.3479 11.038 23.48 10.2951 23.7443 9.65702C24.0086 9.01567 24.3744 8.52258 24.8417 8.17774C25.3122 7.82967 25.8488 7.65403 26.4515 7.6508ZM26.4515 8.60799C26.0486 8.61121 25.6893 8.74979 25.3735 9.02373C25.0608 9.29445 24.8175 9.67797 24.6435 10.1743C24.4695 10.6674 24.3824 11.2378 24.3824 11.8856C24.3824 12.5366 24.4695 13.1103 24.6435 13.6066C24.8175 14.1029 25.0608 14.4864 25.3735 14.7572C25.6893 15.0279 26.0486 15.1632 26.4515 15.1632C26.8544 15.1632 27.2105 15.0279 27.5199 14.7572C27.8325 14.4864 28.0758 14.1029 28.2498 13.6066C28.4239 13.1103 28.5109 12.5366 28.5109 11.8856C28.5109 11.2378 28.4239 10.6674 28.2498 10.1743C28.0758 9.67797 27.8325 9.29445 27.5199 9.02373C27.2105 8.74979 26.8544 8.61121 26.4515 8.60799ZM45.029 15.637H43.9558V6.72263H45.029V15.637ZM45.4061 18.5956H37.1782V17.7061H45.4061V18.5956ZM38.2514 18.1315H37.1782V14.8152H38.2514V18.1315ZM39.1022 8.61765C39.099 9.40403 38.954 10.1469 38.6671 10.8462C38.3835 11.5456 37.9855 12.1579 37.4731 12.6833C36.9639 13.2086 36.3757 13.6066 35.7086 13.8773L35.1188 13.0362C35.7247 12.8009 36.2613 12.4577 36.7286 12.0065C37.1959 11.552 37.5585 11.0332 37.8163 10.4498C38.0741 9.86328 38.203 9.25255 38.203 8.61765V7.39942H39.1022V8.61765ZM39.2956 8.61765C39.2924 9.22677 39.4197 9.8101 39.6775 10.3677C39.9385 10.922 40.3011 11.4102 40.7652 11.8324C41.2293 12.2546 41.7611 12.5753 42.3605 12.7944L41.7997 13.6549C41.1262 13.3939 40.5315 13.0168 40.0159 12.5237C39.5035 12.0274 39.1054 11.4441 38.8218 10.7737C38.5382 10.1034 38.3964 9.38469 38.3964 8.61765V7.39942H39.2956V8.61765ZM56.5388 9.83589H53.3869V8.94638H56.5388V9.83589ZM57.1673 12.9975H56.0941V6.71296H57.1673V12.9975ZM57.1673 16.5072H50.3703V18.3732H49.3165V15.6853H56.1038V14.4768H49.2875V13.6163H57.1673V16.5072ZM57.6217 18.7019H49.3165V17.8317H57.6217V18.7019ZM51.0471 8.25025C51.0439 8.98828 50.9021 9.67636 50.6217 10.3145C50.3445 10.9494 49.9497 11.5005 49.4373 11.9678C48.9281 12.4319 48.3367 12.7848 47.6631 13.0265L47.083 12.166C47.6889 11.963 48.2255 11.6665 48.6928 11.2765C49.1602 10.8833 49.5227 10.4273 49.7805 9.9084C50.0416 9.3863 50.1737 8.83358 50.177 8.25025V7.0997H51.0471V8.25025ZM51.2308 8.25025C51.2276 8.77235 51.3533 9.27511 51.6079 9.75854C51.8657 10.242 52.2235 10.669 52.6811 11.0396C53.142 11.4102 53.6673 11.6922 54.2571 11.8856L53.677 12.7268C53.0259 12.4947 52.4491 12.1579 51.9463 11.7164C51.4435 11.2749 51.0503 10.756 50.7667 10.1598C50.4831 9.56356 50.3413 8.92705 50.3413 8.25025V7.0997H51.2308V8.25025Z" fill="white"/>
</svg>
