<svg width="57" height="25" viewBox="0 0 57 25" fill="none" xmlns="http://www.w3.org/2000/svg">
<rect y="0.254395" width="57" height="24" rx="12" fill="#F1A145"/>
<path d="M14.8174 7.60246C15.4491 7.60246 16.0131 7.72171 16.5094 7.9602C17.0057 8.19869 17.3925 8.53547 17.6696 8.97055C17.95 9.40241 18.0918 9.89712 18.0951 10.4547C18.0918 11.0122 17.95 11.5069 17.6696 11.9388C17.3925 12.3674 17.0057 12.7026 16.5094 12.9443C16.0131 13.186 15.4491 13.3069 14.8174 13.3069C14.1858 13.3069 13.6202 13.186 13.1206 12.9443C12.6211 12.7026 12.2311 12.3658 11.9507 11.934C11.6736 11.5021 11.5366 11.009 11.5398 10.4547C11.5366 9.90034 11.6736 9.40564 11.9507 8.97055C12.2311 8.53547 12.6211 8.19869 13.1206 7.9602C13.6202 7.72171 14.1858 7.60246 14.8174 7.60246ZM14.8174 8.54031C14.3888 8.54031 14.0053 8.62088 13.6669 8.78202C13.3317 8.94316 13.0674 9.17037 12.8741 9.46365C12.6839 9.7537 12.5905 10.084 12.5937 10.4547C12.5905 10.8253 12.6839 11.1572 12.8741 11.4505C13.0674 11.7406 13.3317 11.9662 13.6669 12.1273C14.0053 12.2885 14.3888 12.369 14.8174 12.369C15.2429 12.369 15.6248 12.2885 15.9632 12.1273C16.3016 11.9662 16.5658 11.7406 16.756 11.4505C16.9461 11.1572 17.0412 10.8253 17.0412 10.4547C17.0412 10.084 16.9461 9.7537 16.756 9.46365C16.5658 9.17037 16.3016 8.94316 15.9632 8.78202C15.6248 8.62088 15.2429 8.54031 14.8174 8.54031ZM20.8119 18.8856H19.7387V6.71296H20.8119V18.8856ZM10.9114 15.2889C11.8621 15.2921 12.7629 15.2873 13.6137 15.2744C14.4678 15.2583 15.3605 15.2196 16.2919 15.1584C17.2233 15.0972 18.1047 15.0053 18.9362 14.8828L19.0232 15.6757C18.166 15.8368 17.2765 15.9561 16.3547 16.0334C15.433 16.1107 14.5709 16.1591 13.7684 16.1784C12.9659 16.1978 12.0619 16.2074 11.0564 16.2074L10.9114 15.2889ZM32.2734 10.7737H29.4889V9.88423H32.2734V10.7737ZM33.0179 13.9547H31.9447V6.71296H33.0179V13.9547ZM28.9861 14.3317C29.824 14.3317 30.5492 14.4204 31.1615 14.5976C31.7739 14.7749 32.2428 15.0343 32.5683 15.3759C32.8938 15.7143 33.0565 16.1204 33.0565 16.5942C33.0565 17.0679 32.8938 17.4724 32.5683 17.8076C32.2428 18.146 31.7739 18.4038 31.1615 18.5811C30.5524 18.7615 29.8273 18.8534 28.9861 18.8566C28.1417 18.8534 27.415 18.7615 26.8059 18.5811C26.1967 18.4038 25.7278 18.146 25.3991 17.8076C25.0736 17.4724 24.9124 17.0679 24.9157 16.5942C24.9124 16.1204 25.0736 15.7143 25.3991 15.3759C25.7278 15.0343 26.1967 14.7749 26.8059 14.5976C27.4182 14.4204 28.1449 14.3317 28.9861 14.3317ZM28.9861 15.1729C28.3673 15.1729 27.8323 15.2293 27.3811 15.3421C26.9299 15.4549 26.5819 15.6193 26.3369 15.8352C26.0952 16.0479 25.976 16.3009 25.9792 16.5942C25.976 16.8842 26.0952 17.1356 26.3369 17.3483C26.5819 17.561 26.9299 17.7222 27.3811 17.8317C27.8323 17.9445 28.3673 17.9993 28.9861 17.9961C29.6017 17.9993 30.135 17.9445 30.5862 17.8317C31.0407 17.7222 31.3887 17.561 31.6304 17.3483C31.8722 17.1356 31.993 16.8842 31.993 16.5942C31.993 16.3009 31.8722 16.0479 31.6304 15.8352C31.3887 15.6193 31.0407 15.4549 30.5862 15.3421C30.135 15.2293 29.6017 15.1729 28.9861 15.1729ZM26.9751 8.94638C26.9718 9.67797 26.8252 10.3693 26.5351 11.0203C26.2483 11.6681 25.8471 12.2369 25.3314 12.7268C24.8158 13.2134 24.2228 13.584 23.5524 13.8386L22.9916 12.9878C23.5879 12.7719 24.1212 12.4561 24.5918 12.0403C25.0655 11.6213 25.4329 11.1444 25.694 10.6094C25.955 10.0712 26.0856 9.51683 26.0856 8.94638V7.94086H26.9751V8.94638ZM27.1684 8.93671C27.1684 9.45881 27.2941 9.9648 27.5455 10.4547C27.7969 10.9445 28.1498 11.3812 28.6042 11.7648C29.0586 12.1483 29.5791 12.4399 30.1657 12.6398L29.6049 13.5003C28.9507 13.265 28.3722 12.9169 27.8694 12.4561C27.3699 11.992 26.9815 11.457 26.7043 10.8511C26.4272 10.2452 26.2886 9.60706 26.2886 8.93671V7.94086H27.1684V8.93671ZM29.8853 8.49196H23.3397V7.60246H29.8853V8.49196ZM46.152 14.7958H35.0236V13.9257H46.152V14.7958ZM41.0857 18.8663H40.0318V14.3124H41.0857V18.8663ZM37.518 8.89804H43.6479V7.21572H44.7211V12.4464H36.4545V7.21572H37.518V8.89804ZM43.6479 11.5762V9.76821H37.518V11.5762H43.6479Z" fill="white"/>
</svg>
