<svg width="25" height="24" viewBox="0 0 25 24" fill="none" xmlns="http://www.w3.org/2000/svg">
<path fill-rule="evenodd" clip-rule="evenodd" d="M3.5 6C3.5 5.44772 3.94772 5 4.5 5H20.5C21.0523 5 21.5 5.44772 21.5 6C21.5 6.55228 21.0523 7 20.5 7H4.5C3.94772 7 3.5 6.55228 3.5 6ZM3.5 12C3.5 11.4477 3.94772 11 4.5 11H20.5C21.0523 11 21.5 11.4477 21.5 12C21.5 12.5523 21.0523 13 20.5 13H4.5C3.94772 13 3.5 12.5523 3.5 12ZM4.5 17C3.94772 17 3.5 17.4477 3.5 18C3.5 18.5523 3.94772 19 4.5 19H20.5C21.0523 19 21.5 18.5523 21.5 18C21.5 17.4477 21.0523 17 20.5 17H4.5Z" fill="#020617"/>
</svg>
