<svg width="24" height="24" viewBox="0 0 24 24" fill="none" xmlns="http://www.w3.org/2000/svg">
<path d="M3 16.9997L8.22999 10.898C8.63274 10.4282 9.36128 10.4332 9.75746 10.9086L13.299 15.1585C13.6754 15.6102 14.3585 15.6412 14.7743 15.2254L16.21 13.7897C16.6314 13.3683 17.3256 13.4067 17.698 13.8721L21 17.9997" stroke="#171717" stroke-linecap="round" stroke-linejoin="round"/>
<path d="M20 3H4C3.44772 3 3 3.44772 3 4V20C3 20.5523 3.44772 21 4 21H20C20.5523 21 21 20.5523 21 20V4C21 3.44772 20.5523 3 20 3Z" stroke="#171717" stroke-linecap="round" stroke-linejoin="round"/>
<path d="M14 8C14 7.44772 14.4477 7 15 7C15.5523 7 16 7.44772 16 8C16 8.55228 15.5523 9 15 9C14.4477 9 14 8.55228 14 8Z" stroke="#2EE477" stroke-width="2" stroke-linecap="round" stroke-linejoin="round"/>
</svg>
