<svg width="24" height="24" viewBox="0 0 24 24" fill="none" xmlns="http://www.w3.org/2000/svg">
<path d="M12 16C14.2091 16 16 14.2091 16 12C16 9.79086 14.2091 8 12 8C9.79086 8 8 9.79086 8 12C8 14.2091 9.79086 16 12 16Z" stroke="#2EE477" stroke-width="2" stroke-linecap="round" stroke-linejoin="round"/>
<path d="M19.1671 7.93906L19.1013 7.82521C18.9199 7.51119 18.8273 7.15377 18.8334 6.79118L18.8634 5.01236C18.8695 4.64883 18.6778 4.31063 18.3628 4.1291L15.6261 2.55209C15.3119 2.37102 14.9243 2.37427 14.6131 2.56057L13.094 3.47016C12.7836 3.65606 12.4285 3.75424 12.0666 3.75424H11.9349C11.5722 3.75424 11.2164 3.65563 10.9055 3.46897L9.3794 2.5528C9.06716 2.36534 8.6777 2.36246 8.36272 2.54527L5.63473 4.12856C5.32124 4.31051 5.13075 4.64785 5.13685 5.01027L5.16681 6.79118C5.17291 7.15377 5.08031 7.5112 4.89892 7.82521L4.83403 7.93754C4.65254 8.25173 4.389 8.51063 4.07164 8.6865L2.51675 9.54817C2.19805 9.72478 2.00064 10.0608 2.00147 10.4251L2.00863 13.5769C2.00945 13.9391 2.20601 14.2725 2.52248 14.4485L4.0699 15.3094C4.38835 15.4865 4.65235 15.7473 4.83337 16.0636L4.9029 16.1851C5.08174 16.4975 5.17293 16.8524 5.16685 17.2124L5.13692 18.9855C5.13078 19.349 5.32245 19.6873 5.63749 19.8688L8.37412 21.4458C8.68835 21.6269 9.07598 21.6236 9.38713 21.4373L10.9062 20.5277C11.2167 20.3418 11.5718 20.2436 11.9337 20.2436H12.0654C12.428 20.2436 12.7838 20.3423 13.0948 20.5289L14.6208 21.4451C14.9331 21.6325 15.3226 21.6354 15.6375 21.4526L18.3655 19.8693C18.679 19.6874 18.8695 19.35 18.8634 18.9876L18.8334 17.2067C18.8273 16.8441 18.9199 16.4867 19.1013 16.1727L19.1662 16.0603C19.3477 15.7462 19.6112 15.4873 19.9286 15.3114L21.4835 14.4497C21.8022 14.2731 21.9996 13.9371 21.9988 13.5728L21.9916 10.421C21.9908 10.0588 21.7942 9.7254 21.4778 9.54935L19.9266 8.68644C19.6105 8.51058 19.348 8.25229 19.1671 7.93906Z" stroke="#14181F" stroke-width="2" stroke-linecap="round" stroke-linejoin="round"/>
</svg>
