<svg width="68" height="54" viewBox="0 0 68 54" fill="none" xmlns="http://www.w3.org/2000/svg">
<path d="M19.4074 10H15.9061C15.4178 10 15.022 10.3959 15.022 10.8842V13.0415C15.022 13.5298 15.4178 13.9257 15.9061 13.9257H19.4074C19.8957 13.9257 20.2916 13.5298 20.2916 13.0415V10.8842C20.2916 10.3959 19.8957 10 19.4074 10Z" fill="#EEEEEE" stroke="#848484" stroke-width="0.919526" stroke-miterlimit="10"/>
<path d="M43.1737 11.9634H12.4756C11.114 11.9634 10 13.0597 10 14.439V40.6632C10 42.0248 11.0964 43.1389 12.4756 43.1389H55.4458C56.8074 43.1389 57.9215 42.0425 57.9215 40.6632V14.439C57.9215 13.0774 56.8251 11.9634 55.4458 11.9634H48.3195" fill="#EEEEEE"/>
<path d="M43.1737 11.9634H12.4756C11.114 11.9634 10 13.0597 10 14.439V40.6632C10 42.0248 11.0964 43.1389 12.4756 43.1389H55.4458C56.8074 43.1389 57.9215 42.0425 57.9215 40.6632V14.439C57.9215 13.0774 56.8251 11.9634 55.4458 11.9634H48.3195" stroke="#848484" stroke-width="0.919526" stroke-miterlimit="10" stroke-linecap="round"/>
<path d="M57.9215 23.6338H10V39.2127H57.9215V23.6338Z" fill="#D5D5D5" stroke="#848484" stroke-width="0.919526" stroke-miterlimit="10"/>
<path d="M33.9608 39.9905C40.3284 39.9905 45.4903 34.8286 45.4903 28.4611C45.4903 22.0935 40.3284 16.9316 33.9608 16.9316C27.5933 16.9316 22.4314 22.0935 22.4314 28.4611C22.4314 34.8286 27.5933 39.9905 33.9608 39.9905Z" fill="#EEEEEE" stroke="#848484" stroke-width="0.919526" stroke-miterlimit="10"/>
<path d="M33.9608 36.949C38.6486 36.949 42.4488 33.1488 42.4488 28.4611C42.4488 23.7733 38.6486 19.9731 33.9608 19.9731C29.2731 19.9731 25.4729 23.7733 25.4729 28.4611C25.4729 33.1488 29.2731 36.949 33.9608 36.949Z" fill="#EEEEEE" stroke="#848484" stroke-width="0.919526" stroke-miterlimit="10"/>
<path d="M33.9606 35.3929C37.789 35.3929 40.8924 32.2894 40.8924 28.4611C40.8924 24.6328 37.789 21.5293 33.9606 21.5293C30.1323 21.5293 27.0288 24.6328 27.0288 28.4611C27.0288 32.2894 30.1323 35.3929 33.9606 35.3929Z" fill="#848484" stroke="#848484" stroke-width="0.919526" stroke-miterlimit="10"/>
<path d="M53.3239 14.9692H49.8226C49.3343 14.9692 48.9385 15.3651 48.9385 15.8534V18.0107C48.9385 18.4991 49.3343 18.8949 49.8226 18.8949H53.3239C53.8122 18.8949 54.2081 18.4991 54.2081 18.0107V15.8534C54.2081 15.3651 53.8122 14.9692 53.3239 14.9692Z" fill="white" stroke="#848484" stroke-width="0.919526" stroke-miterlimit="10"/>
</svg>
