<svg width="67" height="66" viewBox="0 0 67 66" fill="none" xmlns="http://www.w3.org/2000/svg">
<g filter="url(#filter0_i_6488_6884)">
<path d="M66.5 32.7663C66.5 50.8627 51.7254 65.5326 33.5 65.5326C15.2746 65.5326 0.5 50.8627 0.5 32.7663C0.5 14.67 15.2746 0 33.5 0C51.7254 0 66.5 14.67 66.5 32.7663Z" fill="#DBDBDB"/>
<path d="M27.8649 27.9829C27.8649 29.7281 26.4401 31.1428 24.6825 31.1428C22.9248 31.1428 21.5 29.7281 21.5 27.9829C21.5 26.2377 22.9248 24.823 24.6825 24.823C26.4401 24.823 27.8649 26.2377 27.8649 27.9829Z" fill="black"/>
<path d="M37.4123 27.9829C37.4123 29.7281 35.9875 31.1428 34.2298 31.1428C32.4721 31.1428 31.0474 29.7281 31.0474 27.9829C31.0474 26.2377 32.4721 24.823 34.2298 24.823C35.9875 24.823 37.4123 26.2377 37.4123 27.9829Z" fill="black"/>
<path d="M33.169 39.0735C33.169 41.4003 31.5067 43.2867 29.4562 43.2867C27.4056 43.2867 25.7433 41.4003 25.7433 39.0735C25.7433 36.7466 27.4056 34.8602 29.4562 34.8602C31.5067 34.8602 33.169 36.7466 33.169 39.0735Z" fill="#A0A0A0"/>
<path d="M32.1082 39.0735C32.1082 40.7356 30.9208 42.0829 29.4561 42.0829C27.9915 42.0829 26.8041 40.7356 26.8041 39.0735C26.8041 37.4114 27.9915 36.0641 29.4561 36.0641C30.9208 36.0641 32.1082 37.4114 32.1082 39.0735Z" fill="#CCCCCC"/>
<path d="M52.8302 56.8189C52.8302 55.2558 52.9744 54.1317 53.2626 53.4466C53.5508 52.7615 54.162 52.0137 55.0963 51.2032C55.9112 50.5085 56.5325 49.9053 56.9598 49.394C57.3873 48.8825 57.6008 48.2988 57.6008 47.6426C57.6008 46.8514 57.3276 46.1953 56.781 45.6742C56.2343 45.1532 55.474 44.8926 54.4999 44.8926C53.4862 44.8926 52.716 45.1917 52.1892 45.79C51.6625 46.3882 51.2897 46.9962 51.0711 47.6137L48 46.3401C48.4174 45.1049 49.1827 44.0338 50.2959 43.1268C51.409 42.2198 52.8103 41.7663 54.4999 41.7663C56.5872 41.7663 58.1923 42.3308 59.3153 43.4598C60.4384 44.5887 61 45.9444 61 47.5268C61 48.4918 60.7863 49.3167 60.359 50.0018C59.9315 50.6869 59.2606 51.4636 58.3463 52.3321C57.3723 53.2391 56.781 53.9291 56.5722 54.4018C56.3635 54.8746 56.2592 55.6804 56.2592 56.8189H52.8302ZM54.4999 63.7663C53.844 63.7663 53.2825 63.5396 52.8153 63.086C52.3482 62.6325 52.1146 62.0874 52.1146 61.4505C52.1146 60.8137 52.3482 60.2685 52.8153 59.815C53.2825 59.3615 53.844 59.1347 54.4999 59.1347C55.156 59.1347 55.7175 59.3615 56.1847 59.815C56.6518 60.2685 56.8853 60.8137 56.8853 61.4505C56.8853 62.0874 56.6518 62.6325 56.1847 63.086C55.7175 63.5396 55.156 63.7663 54.4999 63.7663Z" fill="#78767E"/>
</g>
<defs>
<filter id="filter0_i_6488_6884" x="-3.5" y="-2" width="70" height="67.5326" filterUnits="userSpaceOnUse" color-interpolation-filters="sRGB">
<feFlood flood-opacity="0" result="BackgroundImageFix"/>
<feBlend mode="normal" in="SourceGraphic" in2="BackgroundImageFix" result="shape"/>
<feColorMatrix in="SourceAlpha" type="matrix" values="0 0 0 0 0 0 0 0 0 0 0 0 0 0 0 0 0 0 127 0" result="hardAlpha"/>
<feOffset dx="-4" dy="-2"/>
<feGaussianBlur stdDeviation="3.5"/>
<feComposite in2="hardAlpha" operator="arithmetic" k2="-1" k3="1"/>
<feColorMatrix type="matrix" values="0 0 0 0 0 0 0 0 0 0 0 0 0 0 0 0 0 0 0.16 0"/>
<feBlend mode="normal" in2="shape" result="effect1_innerShadow_6488_6884"/>
</filter>
</defs>
</svg>
