<svg width="24" height="24" viewBox="0 0 24 24" fill="none" xmlns="http://www.w3.org/2000/svg">
<path d="M24 12C24 18.6274 18.6274 24 12 24C5.37258 24 0 18.6274 0 12C0 5.37258 5.37258 0 12 0C18.6274 0 24 5.37258 24 12Z" fill="#EA4B8B"/>
<path d="M11.9685 17.536C10.7525 17.536 9.7925 17.2693 9.0885 16.736C8.39517 16.2027 8.0485 15.488 8.0485 14.592C8.0485 13.9413 8.26717 13.3707 8.7045 12.88C9.1525 12.3787 9.70717 12 10.3685 11.744C9.0245 11.1787 8.3525 10.304 8.3525 9.12C8.3525 8.288 8.67783 7.616 9.3285 7.104C9.98983 6.58133 10.8645 6.32 11.9525 6.32C13.0512 6.32 13.9205 6.56 14.5605 7.04C15.2005 7.52 15.5205 8.176 15.5205 9.008C15.5205 10.0747 14.8325 10.9387 13.4565 11.6C15.1205 12.208 15.9525 13.1467 15.9525 14.416C15.9525 15.3227 15.5952 16.0693 14.8805 16.656C14.1658 17.2427 13.1952 17.536 11.9685 17.536ZM11.9525 16.272C12.6245 16.272 13.1685 16.112 13.5845 15.792C14.0112 15.472 14.2245 15.056 14.2245 14.544C14.2245 13.968 14.0218 13.52 13.6165 13.2C13.2218 12.8693 12.5712 12.576 11.6645 12.32C11.0992 12.5013 10.6245 12.784 10.2405 13.168C9.8565 13.5413 9.6645 13.9733 9.6645 14.464C9.6645 15.0187 9.8725 15.4613 10.2885 15.792C10.7045 16.112 11.2592 16.272 11.9525 16.272ZM12.2085 11.056C13.3392 10.5653 13.9045 9.91467 13.9045 9.104C13.9045 8.656 13.7338 8.29333 13.3925 8.016C13.0618 7.728 12.5872 7.584 11.9685 7.584C11.3818 7.584 10.9178 7.71733 10.5765 7.984C10.2352 8.24 10.0645 8.60267 10.0645 9.072C10.0645 10.032 10.7792 10.6933 12.2085 11.056Z" fill="white"/>
</svg>
