<svg width="35" height="20" viewBox="0 0 35 20" fill="none" xmlns="http://www.w3.org/2000/svg">
<path d="M0.535645 10C0.535645 4.47715 5.0128 0 10.5356 0H24.4642C29.9871 0 34.4642 4.47715 34.4642 10C34.4642 15.5228 29.9871 20 24.4642 20H10.5356C5.0128 20 0.535645 15.5228 0.535645 10Z" fill="#4E67A5"/>
<path d="M16.3186 12.2939H15.2697V4.81H16.3186V12.2939ZM14.1029 9.87786L13.5018 10.6911C12.999 10.4789 12.5079 10.1489 12.0286 9.70107C11.5572 9.24536 11.2154 8.76607 11.0032 8.26321C10.8461 8.80536 10.524 9.34357 10.0368 9.87786C9.55752 10.4043 9.04681 10.7893 8.50467 11.0329L7.86824 10.2196C8.59895 9.91321 9.21181 9.42214 9.70681 8.74643C10.2097 8.06286 10.4611 7.32821 10.4611 6.5425V5.3875H11.5218V6.49536C11.5218 7.27321 11.7811 7.9725 12.2997 8.59321C12.8261 9.21393 13.4272 9.64214 14.1029 9.87786ZM16.5425 14.8161H9.60074V11.5986H10.6497V13.9675H16.5425V14.8161Z" fill="white"/>
<path d="M26.2803 14.9693H19.4328V11.4925H26.2803V14.9693ZM25.2314 14.1325V12.3293H20.4699V14.1325H25.2314ZM26.2803 10.9504H25.2314V4.81H26.2803V10.9504ZM24.0764 9.37107L24.206 10.2079C23.2474 10.3886 21.8214 10.4946 19.9278 10.5261C19.7628 10.5261 19.5035 10.53 19.1499 10.5379C18.7964 10.5379 18.5292 10.5379 18.3485 10.5379V7.48536H22.0846V6.23607H18.3014V5.37571H23.1335V8.28679H19.3856V9.6775C21.6956 9.6775 23.2592 9.57536 24.0764 9.37107Z" fill="white"/>
</svg>
