<svg width="55" height="20" viewBox="0 0 55 20" fill="none" xmlns="http://www.w3.org/2000/svg">
<path d="M0.142822 10C0.142822 4.47715 4.61998 0 10.1428 0H44.0714C49.5942 0 54.0714 4.47715 54.0714 10C54.0714 15.5228 49.5942 20 44.0714 20H10.1428C4.61998 20 0.142822 15.5228 0.142822 10Z" fill="#7EC679"/>
<path d="M9.96516 5.62321C10.6566 5.62321 11.1948 5.91786 11.5798 6.50714C11.9727 7.08857 12.1887 7.8625 12.228 8.82893H13.2298V5.01036H14.2198V14.6275H13.2298V9.68929H12.228C12.1809 10.64 11.9648 11.4061 11.5798 11.9875C11.1948 12.5611 10.6566 12.8479 9.96516 12.8479C9.22659 12.8479 8.6648 12.5139 8.2798 11.8461C7.8948 11.1782 7.7023 10.3021 7.7023 9.21786C7.7023 8.14143 7.8948 7.27321 8.2798 6.61321C8.6648 5.95321 9.22659 5.62321 9.96516 5.62321ZM10.8962 11.2214C11.1084 10.7264 11.2144 10.0625 11.2144 9.22964C11.2144 8.39679 11.1084 7.73679 10.8962 7.24964C10.6841 6.75464 10.3737 6.50714 9.96516 6.50714C9.5723 6.50714 9.26587 6.75464 9.04587 7.24964C8.83373 7.74464 8.72766 8.40464 8.72766 9.22964C8.72766 10.0625 8.83373 10.7264 9.04587 11.2214C9.25801 11.7086 9.56444 11.9521 9.96516 11.9521C10.3737 11.9521 10.6841 11.7086 10.8962 11.2214ZM16.2116 15.1107H15.2216V4.81H16.2116V15.1107Z" fill="white"/>
<path d="M24.9476 9.46536H23.0972V8.58143H24.9476V4.81H25.9847V15.1107H24.9476V9.46536ZM22.6376 12.5179H17.7936V5.64679H18.819V8.23964H21.5886V5.635H22.6376V12.5179ZM21.5886 11.6693V9.06464H18.819V11.6693H21.5886Z" fill="white"/>
<path d="M33.5421 11.4571L33.6482 12.3293C32.3125 12.5571 30.7803 12.6711 29.0518 12.6711H27.8143V8.62857H31.515V6.58964H27.7789V5.74107H32.5521V9.46536H28.8514V11.8107C30.7057 11.8264 32.2693 11.7086 33.5421 11.4571ZM35.3925 4.81V8.89964H36.9953V9.76H35.3925V15.1107H34.3553V4.81H35.3925Z" fill="white"/>
<path d="M45.8492 12.2939H44.8002V4.81H45.8492V12.2939ZM46.0849 14.7925H39.0724V11.5868H40.1213V13.9557H46.0849V14.7925ZM38.4124 6.24786C38.9309 5.75286 39.587 5.50536 40.3806 5.50536C41.1742 5.50536 41.8302 5.74893 42.3488 6.23607C42.8752 6.72321 43.1384 7.33607 43.1384 8.07464C43.1384 8.81321 42.8792 9.41821 42.3606 9.88964C41.842 10.3532 41.182 10.585 40.3806 10.585C39.587 10.585 38.9309 10.3532 38.4124 9.88964C37.8938 9.41821 37.6345 8.81714 37.6345 8.08643C37.6345 7.34786 37.8938 6.735 38.4124 6.24786ZM40.3806 6.40107C39.9013 6.40107 39.5045 6.55821 39.1902 6.8725C38.8838 7.18679 38.7306 7.58357 38.7306 8.06286C38.7306 8.53429 38.8838 8.92714 39.1902 9.24143C39.5045 9.55571 39.9013 9.71286 40.3806 9.71286C40.8834 9.71286 41.2842 9.55964 41.5827 9.25321C41.8813 8.94679 42.0306 8.55393 42.0306 8.07464C42.0306 7.57964 41.8813 7.17893 41.5827 6.8725C41.2842 6.55821 40.8834 6.40107 40.3806 6.40107Z" fill="white"/>
</svg>
