<svg width="35" height="20" viewBox="0 0 35 20" fill="none" xmlns="http://www.w3.org/2000/svg">
<path d="M0.607178 10C0.607178 4.47715 5.08433 0 10.6072 0H24.5357C30.0586 0 34.5357 4.47715 34.5357 10C34.5357 15.5228 30.0586 20 24.5357 20H10.6072C5.08433 20 0.607178 15.5228 0.607178 10Z" fill="#2673F2"/>
<path d="M15.5298 11.6575C16.1426 12.0111 16.4491 12.4982 16.4491 13.1189C16.4491 13.7396 16.1426 14.2268 15.5298 14.5804C14.9169 14.9339 14.0526 15.1107 12.9369 15.1107C11.8369 15.1107 10.9766 14.9339 10.3558 14.5804C9.74299 14.2268 9.43656 13.7396 9.43656 13.1189C9.43656 12.4982 9.74299 12.0111 10.3558 11.6575C10.9766 11.2961 11.8369 11.1154 12.9369 11.1154C14.0526 11.1154 14.9169 11.2961 15.5298 11.6575ZM12.9369 11.9639C12.1826 11.9639 11.5894 12.0661 11.1573 12.2704C10.733 12.4746 10.5208 12.7575 10.5208 13.1189C10.5208 13.4804 10.733 13.7632 11.1573 13.9675C11.5894 14.1639 12.1826 14.2621 12.9369 14.2621C13.7148 14.2621 14.3158 14.1639 14.7401 13.9675C15.1723 13.7632 15.3883 13.4804 15.3883 13.1189C15.3883 12.7575 15.1723 12.4746 14.7401 12.2704C14.3158 12.0661 13.7148 11.9639 12.9369 11.9639ZM13.1962 9.65393V8.81714H15.3412V7.56786H13.3141V6.73107H15.3412V4.81H16.3901V11.1861H15.3412V9.65393H13.1962ZM13.1844 5.59964C13.1137 6.91179 12.6737 8.03536 11.8644 8.97036C11.063 9.8975 9.97084 10.6007 8.58799 11.08L7.98692 10.2314C9.00834 9.96429 9.8962 9.48893 10.6505 8.80536C11.4048 8.11393 11.8644 7.33214 12.0294 6.46H8.4937V5.59964H13.1844Z" fill="white"/>
<path d="M27.389 8.26321H25.8568V10.9857H24.8079V4.81H25.8568V7.40286H27.389V8.26321ZM25.9982 13.0836C25.9982 13.7043 25.6879 14.1954 25.0672 14.5568C24.4543 14.9182 23.6057 15.0989 22.5215 15.0989C21.4372 15.0989 20.5847 14.9182 19.964 14.5568C19.3511 14.1954 19.0447 13.7043 19.0447 13.0836C19.0447 12.455 19.3511 11.9639 19.964 11.6104C20.5847 11.2489 21.4372 11.0682 22.5215 11.0682C23.6057 11.0682 24.4543 11.2489 25.0672 11.6104C25.6879 11.9639 25.9982 12.455 25.9982 13.0836ZM24.2775 12.2232C23.8532 12.0189 23.2679 11.9168 22.5215 11.9168C21.775 11.9168 21.1897 12.0189 20.7654 12.2232C20.3411 12.4275 20.129 12.7143 20.129 13.0836C20.129 13.445 20.3411 13.7318 20.7654 13.9439C21.1897 14.1482 21.775 14.2504 22.5215 14.2504C23.2679 14.2504 23.8532 14.1482 24.2775 13.9439C24.7097 13.7318 24.9257 13.445 24.9257 13.0836C24.9257 12.7143 24.7097 12.4275 24.2775 12.2232ZM18.3375 5.58786H22.9929C22.9457 6.90786 22.5057 8.02357 21.6729 8.935C20.8479 9.83857 19.74 10.4986 18.3493 10.915L17.8072 10.0664C18.8129 9.85429 19.7007 9.41821 20.4707 8.75821C21.2486 8.09036 21.7043 7.32036 21.8379 6.44821H18.3375V5.58786Z" fill="white"/>
</svg>
