<svg width="55" height="20" viewBox="0 0 55 20" fill="none" xmlns="http://www.w3.org/2000/svg">
<path d="M0.214355 10C0.214355 4.47715 4.69151 0 10.2144 0H44.1429C49.6658 0 54.1429 4.47715 54.1429 10C54.1429 15.5228 49.6658 20 44.1429 20H10.2144C4.69151 20 0.214355 15.5228 0.214355 10Z" fill="#C6C100"/>
<path d="M15.8824 7.5325C15.8824 8.22393 15.5524 8.78571 14.8924 9.21786C14.2324 9.64214 13.3406 9.85429 12.217 9.85429C11.0935 9.85429 10.2017 9.64214 9.54169 9.21786C8.88955 8.78571 8.56348 8.22393 8.56348 7.5325C8.56348 6.84893 8.88955 6.295 9.54169 5.87071C10.2017 5.44643 11.0935 5.23429 12.217 5.23429C13.3406 5.23429 14.2324 5.44643 14.8924 5.87071C15.5524 6.295 15.8824 6.84893 15.8824 7.5325ZM12.217 6.11821C11.4156 6.11821 10.7753 6.25571 10.296 6.53071C9.82455 6.79786 9.58883 7.13179 9.58883 7.5325C9.58883 7.93321 9.82455 8.275 10.296 8.55786C10.7753 8.83286 11.4156 8.97036 12.217 8.97036C13.0106 8.97036 13.6431 8.83286 14.1145 8.55786C14.5938 8.275 14.8335 7.93321 14.8335 7.5325C14.8335 7.13179 14.5938 6.79786 14.1145 6.53071C13.6431 6.25571 13.0106 6.11821 12.217 6.11821ZM12.7356 15.1225H11.6867V11.5632H7.58526V10.7029H16.8842V11.5632H12.7356V15.1225Z" fill="white"/>
<path d="M26.0445 15.1107H24.9955V4.81H26.0445V15.1107ZM17.9123 9.21786C17.9123 8.14143 18.1362 7.26929 18.5841 6.60143C19.032 5.92571 19.692 5.58786 20.5641 5.58786C21.4362 5.58786 22.0923 5.92571 22.5323 6.60143C22.9802 7.26929 23.2041 8.14536 23.2041 9.22964C23.2041 10.3139 22.9802 11.1939 22.5323 11.8696C22.0923 12.5375 21.4362 12.8714 20.5641 12.8714C19.692 12.8714 19.032 12.5336 18.5841 11.8579C18.1362 11.1821 17.9123 10.3021 17.9123 9.21786ZM21.7545 11.2214C22.0295 10.7186 22.167 10.0546 22.167 9.22964C22.167 8.40464 22.0295 7.74071 21.7545 7.23786C21.4795 6.735 21.0827 6.48357 20.5641 6.48357C20.0534 6.48357 19.6605 6.735 19.3855 7.23786C19.1105 7.74071 18.973 8.40464 18.973 9.22964C18.973 10.0546 19.1105 10.7186 19.3855 11.2214C19.6605 11.7164 20.0534 11.9639 20.5641 11.9639C21.0827 11.9639 21.4795 11.7164 21.7545 11.2214Z" fill="white"/>
<path d="M35.959 12.2939H34.9101V4.81H35.959V12.2939ZM33.7433 9.87786L33.1422 10.6911C32.6394 10.4789 32.1483 10.1489 31.669 9.70107C31.1976 9.24536 30.8558 8.76607 30.6436 8.26321C30.4865 8.80536 30.1644 9.34357 29.6772 9.87786C29.1979 10.4043 28.6872 10.7893 28.1451 11.0329L27.5086 10.2196C28.2394 9.91321 28.8522 9.42214 29.3472 8.74643C29.8501 8.06286 30.1015 7.32821 30.1015 6.5425V5.3875H31.1622V6.49536C31.1622 7.27321 31.4215 7.9725 31.9401 8.59321C32.4665 9.21393 33.0676 9.64214 33.7433 9.87786ZM36.1829 14.8161H29.2411V11.5986H30.2901V13.9675H36.1829V14.8161Z" fill="white"/>
<path d="M44.8718 7.66214H42.8682V6.80178H44.8718V4.81H45.9207V10.1018H44.8718V7.66214ZM43.4457 9.04107L42.8564 9.8425C42.3614 9.64607 41.8978 9.35929 41.4657 8.98214C41.0414 8.59714 40.7153 8.15714 40.4875 7.66214C40.3303 8.17286 40.0278 8.65214 39.58 9.1C39.1321 9.54 38.6096 9.88964 38.0125 10.1489L37.3878 9.37107C38.1343 9.0725 38.7432 8.63643 39.2146 8.06286C39.6939 7.48143 39.9335 6.80571 39.9335 6.03571V5.18714H40.9943V5.98857C40.9943 6.75071 41.2378 7.39893 41.725 7.93321C42.22 8.45964 42.7935 8.82893 43.4457 9.04107ZM46.286 15.04H39.2382V12.4354H44.8718V11.4925H39.1675V10.6557H45.9207V13.2132H40.2753V14.1796H46.286V15.04Z" fill="white"/>
</svg>
