<svg width="24" height="24" viewBox="0 0 24 24" fill="none" xmlns="http://www.w3.org/2000/svg">
<path d="M24 12C24 18.6274 18.6274 24 12 24C5.37258 24 0 18.6274 0 12C0 5.37258 5.37258 0 12 0C18.6274 0 24 5.37258 24 12Z" fill="#D6AF42"/>
<path d="M11.7329 6.32C13.0023 6.32 13.9783 6.736 14.6609 7.568C15.3436 8.38933 15.6849 9.56267 15.6849 11.088V11.824C15.6849 13.7547 15.2956 15.1893 14.5169 16.128C13.7383 17.056 12.6609 17.52 11.2849 17.52C10.7729 17.52 10.2716 17.456 9.78094 17.328C9.30094 17.1893 8.92227 17.0293 8.64494 16.848L8.98094 15.616C9.5996 15.9787 10.3409 16.16 11.2049 16.16C12.0903 16.16 12.7676 15.8827 13.2369 15.328C13.7063 14.7627 13.9676 13.7973 14.0209 12.432C13.3169 13.136 12.4476 13.488 11.4129 13.488C10.4743 13.488 9.6956 13.184 9.07694 12.576C8.45827 11.9573 8.14894 11.136 8.14894 10.112C8.14894 9.024 8.4636 8.12267 9.09294 7.408C9.72227 6.68267 10.6023 6.32 11.7329 6.32ZM11.7649 7.616C11.1463 7.616 10.6556 7.83467 10.2929 8.272C9.94094 8.69867 9.76494 9.264 9.76494 9.968C9.76494 10.7147 9.9516 11.28 10.3249 11.664C10.7089 12.0373 11.2156 12.224 11.8449 12.224C12.2609 12.224 12.6663 12.1067 13.0609 11.872C13.4663 11.6267 13.7863 11.3493 14.0209 11.04V10.752C14.0209 8.66133 13.2689 7.616 11.7649 7.616Z" fill="white"/>
</svg>
