<svg width="55" height="20" viewBox="0 0 55 20" fill="none" xmlns="http://www.w3.org/2000/svg">
<path d="M0.535889 10C0.535889 4.47715 5.01304 0 10.5359 0H44.4645C49.9873 0 54.4645 4.47715 54.4645 10C54.4645 15.5228 49.9873 20 44.4645 20H10.5359C5.01304 20 0.535889 15.5228 0.535889 10Z" fill="#EBA900"/>
<path d="M13.0572 15.1225H12.0082V11.4218H7.90679V10.585H17.2057V11.4218H13.0572V15.1225ZM16.8522 8.71107L16.3572 9.55964C15.5714 9.41036 14.8054 9.10393 14.0589 8.64036C13.3204 8.17679 12.8175 7.66607 12.5504 7.10821C12.3304 7.65821 11.8472 8.16893 11.1007 8.64036C10.3543 9.10393 9.57251 9.41429 8.75537 9.57143L8.28394 8.72286C9.25037 8.59714 10.1107 8.2475 10.865 7.67393C11.6272 7.10036 12.0082 6.46786 12.0082 5.77643V5.12821H13.1043V5.77643C13.1043 6.23214 13.3007 6.68393 13.6936 7.13178C14.0864 7.57179 14.5697 7.93321 15.1432 8.21607C15.7168 8.49107 16.2864 8.65607 16.8522 8.71107Z" fill="white"/>
<path d="M26.3188 12.2939H25.2699V4.81H26.3188V12.2939ZM26.5546 14.7925H19.5421V11.5868H20.591V13.9557H26.5546V14.7925ZM18.8821 6.24786C19.4006 5.75286 20.0567 5.50536 20.8503 5.50536C21.6438 5.50536 22.2999 5.74893 22.8185 6.23607C23.3449 6.72321 23.6081 7.33607 23.6081 8.07464C23.6081 8.81321 23.3488 9.41821 22.8303 9.88964C22.3117 10.3532 21.6517 10.585 20.8503 10.585C20.0567 10.585 19.4006 10.3532 18.8821 9.88964C18.3635 9.41821 18.1042 8.81714 18.1042 8.08643C18.1042 7.34786 18.3635 6.735 18.8821 6.24786ZM20.8503 6.40107C20.371 6.40107 19.9742 6.55821 19.6599 6.8725C19.3535 7.18679 19.2003 7.58357 19.2003 8.06286C19.2003 8.53429 19.3535 8.92714 19.6599 9.24143C19.9742 9.55571 20.371 9.71286 20.8503 9.71286C21.3531 9.71286 21.7538 9.55964 22.0524 9.25321C22.351 8.94679 22.5003 8.55393 22.5003 8.07464C22.5003 7.57964 22.351 7.17893 22.0524 6.8725C21.7538 6.55821 21.3531 6.40107 20.8503 6.40107Z" fill="white"/>
<path d="M35.9623 9.12357H28.9852V5.14H30.0341V6.35393H34.9252V5.12821H35.9623V9.12357ZM33.0395 12.9304H32.0023V11.0329H27.8302V10.1843H37.1291V11.0329H33.0395V12.9304ZM36.0448 14.8043H28.9852V11.9757H30.0341V13.9557H36.0448V14.8043ZM34.9252 8.275V7.17893H30.0341V8.275H34.9252Z" fill="white"/>
<path d="M39.1708 9.37107H39.6304C41.359 9.37107 42.6987 9.265 43.6494 9.05286L43.7908 9.88964C42.6515 10.1254 41.1154 10.2432 39.1826 10.2432H38.1454V5.61143H42.8126V6.44821H39.1708V9.37107ZM47.2794 8.31036H45.7472V10.9268H44.6983V4.81H45.7472V7.45H47.2794V8.31036ZM45.8769 13.0836C45.8769 13.6886 45.5744 14.1718 44.9694 14.5332C44.3644 14.9025 43.5158 15.0871 42.4237 15.0871C41.3315 15.0871 40.4829 14.9064 39.8779 14.545C39.2808 14.1836 38.9822 13.6964 38.9822 13.0836C38.9822 12.4629 39.2808 11.9718 39.8779 11.6104C40.4829 11.2489 41.3315 11.0682 42.4237 11.0682C43.5158 11.0682 44.3644 11.2529 44.9694 11.6221C45.5744 11.9836 45.8769 12.4707 45.8769 13.0836ZM44.1679 13.9204C44.5922 13.7161 44.8044 13.4371 44.8044 13.0836C44.8044 12.73 44.5922 12.4511 44.1679 12.2468C43.7437 12.0346 43.1622 11.9286 42.4237 11.9286C41.6851 11.9286 41.1037 12.0346 40.6794 12.2468C40.2629 12.4511 40.0547 12.73 40.0547 13.0836C40.0547 13.4371 40.2629 13.7161 40.6794 13.9204C41.1037 14.1246 41.6851 14.2268 42.4237 14.2268C43.1622 14.2268 43.7437 14.1246 44.1679 13.9204Z" fill="white"/>
</svg>
