<svg width="35" height="20" viewBox="0 0 35 20" fill="none" xmlns="http://www.w3.org/2000/svg">
<path d="M0.642822 10C0.642822 4.47715 5.1671 0 10.7481 0H24.8233C30.4043 0 34.9285 4.47715 34.9285 10C34.9285 15.5228 30.4043 20 24.8233 20H10.7481C5.1671 20 0.642822 15.5228 0.642822 10Z" fill="#74B6E4"/>
<path d="M16.3061 13.1661C16.3061 13.7632 15.9925 14.2307 15.3652 14.5686C14.738 14.9143 13.8527 15.0871 12.7093 15.0871C11.558 15.0871 10.6648 14.9143 10.0296 14.5686C9.39444 14.2307 9.07684 13.7632 9.07684 13.1661C9.07684 12.5611 9.39047 12.0896 10.0177 11.7518C10.6529 11.4061 11.5501 11.2332 12.7093 11.2332C13.8606 11.2332 14.7459 11.4061 15.3652 11.7518C15.9925 12.0896 16.3061 12.5611 16.3061 13.1661ZM17.4494 10.4671H8.0526V9.61857H11.8876V7.47357H12.9356V9.61857H17.4494V10.4671ZM14.5553 13.9675C15.0079 13.7789 15.2342 13.5118 15.2342 13.1661C15.2342 12.8204 15.0079 12.5532 14.5553 12.3646C14.1028 12.1761 13.4874 12.0818 12.7093 12.0818C11.9233 12.0818 11.3 12.1761 10.8395 12.3646C10.3869 12.5532 10.1606 12.8204 10.1606 13.1661C10.1606 13.5118 10.3869 13.7789 10.8395 13.9675C11.2921 14.1561 11.9153 14.2504 12.7093 14.2504C13.4874 14.2504 14.1028 14.1561 14.5553 13.9675ZM16.3299 5.35214C16.3299 5.48571 16.3259 5.6625 16.318 5.8825C16.318 6.1025 16.318 6.2675 16.318 6.3775C16.2942 7.41464 16.1949 8.29071 16.0202 9.00571C15.7979 8.98214 15.4565 8.93893 14.996 8.87607C15.1786 8.18464 15.2699 7.29286 15.2699 6.20071H9.18403V5.35214H16.3299Z" fill="white"/>
<path d="M27.7303 8.78179H26.1583V11.4807H25.1102V4.81H26.1583V7.90964H27.7303V8.78179ZM26.2773 13.3193C26.2773 13.885 25.9756 14.325 25.3722 14.6393C24.7688 14.9614 23.9113 15.1225 22.7997 15.1225C21.6802 15.1225 20.8187 14.9654 20.2153 14.6511C19.6198 14.3368 19.322 13.8929 19.322 13.3193C19.322 12.7457 19.6198 12.3018 20.2153 11.9875C20.8187 11.6654 21.6802 11.5043 22.7997 11.5043C23.9113 11.5043 24.7688 11.6654 25.3722 11.9875C25.9756 12.3018 26.2773 12.7457 26.2773 13.3193ZM24.5623 12.6004C24.1336 12.4196 23.546 12.3293 22.7997 12.3293C22.0534 12.3293 21.4658 12.4196 21.037 12.6004C20.6083 12.7732 20.3939 13.0129 20.3939 13.3193C20.3939 13.6179 20.6043 13.8575 21.0251 14.0382C21.4539 14.2111 22.0454 14.2975 22.7997 14.2975C23.554 14.2975 24.1415 14.2111 24.5623 14.0382C24.9911 13.8654 25.2055 13.6257 25.2055 13.3193C25.2055 13.0129 24.9911 12.7732 24.5623 12.6004ZM22.5734 5.82357H19.5483V4.96321H22.5734V5.82357ZM24.0502 7.29678H18.0596V6.46H24.0502V7.29678ZM22.7759 8.16893C23.2284 8.47536 23.4547 8.88393 23.4547 9.39464C23.4547 9.90536 23.2284 10.3179 22.7759 10.6321C22.3233 10.9386 21.7477 11.0918 21.049 11.0918C20.3503 11.0918 19.7746 10.9386 19.322 10.6321C18.8695 10.3179 18.6432 9.90536 18.6432 9.39464C18.6432 8.87607 18.8655 8.46357 19.3101 8.15714C19.7627 7.85071 20.3423 7.6975 21.049 7.6975C21.7477 7.6975 22.3233 7.85464 22.7759 8.16893ZM22.0017 10.0546C22.2717 9.88179 22.4067 9.66179 22.4067 9.39464C22.4067 9.1275 22.2717 8.91143 22.0017 8.74643C21.7397 8.57357 21.4221 8.48714 21.049 8.48714C20.6678 8.48714 20.3423 8.57357 20.0724 8.74643C19.8103 8.91143 19.6793 9.1275 19.6793 9.39464C19.6793 9.66179 19.8143 9.88179 20.0843 10.0546C20.3542 10.2196 20.6758 10.3021 21.049 10.3021C21.4221 10.3021 21.7397 10.2196 22.0017 10.0546Z" fill="white"/>
</svg>
