<svg width="31" height="20" viewBox="0 0 31 20" fill="none" xmlns="http://www.w3.org/2000/svg">
<path d="M0.143066 10C0.143066 4.47715 4.1725 0 9.14307 0H21.6788C26.6493 0 30.6788 4.47715 30.6788 10C30.6788 15.5228 26.6493 20 21.6788 20H9.14307C4.1725 20 0.143066 15.5228 0.143066 10Z" fill="#8BC53F"/>
<path d="M14.3902 15.1107H13.4461V9.31214H11.3777V8.42821H13.4461V4.81H14.3902V15.1107ZM12.3218 11.8814L11.7596 12.6593C11.307 12.3293 10.858 11.8736 10.4125 11.2921C9.96697 10.7107 9.6629 10.1371 9.50026 9.57143C9.34469 10.1921 9.05476 10.8089 8.63047 11.4218C8.21326 12.0268 7.74301 12.5218 7.21972 12.9068L6.62572 12.1407C7.33994 11.6457 7.91626 10.9779 8.35469 10.1371C8.79312 9.29643 9.01233 8.40857 9.01233 7.47357V5.69393H9.97758V7.42643C9.97758 8.35357 10.1968 9.21 10.6352 9.99571C11.0737 10.7814 11.6358 11.41 12.3218 11.8814Z" fill="white"/>
<path d="M23.536 15.1107H22.6344V9.925H21.6797V14.6039H20.7781V5.03393H21.6797V9.06464H22.6344V4.81H23.536V15.1107ZM20.1311 10.6911C20.1311 11.3118 19.9437 11.8068 19.5689 12.1761C19.1941 12.5375 18.7027 12.7182 18.0945 12.7182C17.4935 12.7182 17.002 12.5296 16.6201 12.1525C16.2383 11.7675 16.0473 11.2804 16.0473 10.6911C16.0473 10.0782 16.2347 9.59107 16.6095 9.22964C16.9914 8.86036 17.4864 8.67571 18.0945 8.67571C18.7027 8.67571 19.1941 8.86036 19.5689 9.22964C19.9437 9.59107 20.1311 10.0782 20.1311 10.6911ZM18.9007 11.5396C19.1199 11.3118 19.2295 11.0289 19.2295 10.6911C19.2295 10.3532 19.1199 10.0743 18.9007 9.85429C18.6885 9.63429 18.4198 9.52429 18.0945 9.52429C17.7622 9.52429 17.4864 9.63821 17.2672 9.86607C17.055 10.0861 16.949 10.3611 16.949 10.6911C16.949 11.0368 17.055 11.3236 17.2672 11.5514C17.4793 11.7714 17.7551 11.8814 18.0945 11.8814C18.4198 11.8814 18.6885 11.7675 18.9007 11.5396ZM20.322 8.20429H15.7291V7.34393H20.322V8.20429ZM19.2507 6.43643H16.758V5.58786H19.2507V6.43643Z" fill="white"/>
</svg>
