<svg xmlns="http://www.w3.org/2000/svg" width="12" height="12" viewBox="0 0 12 12" fill="none">
  <circle cx="6" cy="6" r="6" fill="#D0EEFF"/>
  <path fill-rule="evenodd" clip-rule="evenodd" d="M3.12588 3.12588C3.16568 3.08598 3.21297 3.05432 3.26502 3.03272C3.31708 3.01112 3.37288 3 3.42924 3C3.4856 3 3.54141 3.01112 3.59347 3.03272C3.64552 3.05432 3.6928 3.08598 3.73261 3.12588L6.00011 5.39424L8.26762 3.12588C8.30746 3.08604 8.35475 3.05444 8.4068 3.03288C8.45885 3.01132 8.51464 3.00022 8.57098 3.00022C8.62732 3.00022 8.68311 3.01132 8.73516 3.03288C8.78721 3.05444 8.83451 3.08604 8.87434 3.12588C8.91418 3.16572 8.94578 3.21301 8.96734 3.26507C8.9889 3.31712 9 3.3729 9 3.42924C9 3.48558 8.9889 3.54137 8.96734 3.59342C8.94578 3.64547 8.91418 3.69277 8.87434 3.73261L6.60598 6.00011L8.87434 8.26762C8.91418 8.30746 8.94578 8.35475 8.96734 8.4068C8.9889 8.45885 9 8.51464 9 8.57098C9 8.62732 8.9889 8.68311 8.96734 8.73516C8.94578 8.78721 8.91418 8.83451 8.87434 8.87434C8.83451 8.91418 8.78721 8.94578 8.73516 8.96734C8.68311 8.9889 8.62732 9 8.57098 9C8.51464 9 8.45885 8.9889 8.4068 8.96734C8.35475 8.94578 8.30746 8.91418 8.26762 8.87434L6.00011 6.60598L3.73261 8.87434C3.69277 8.91418 3.64547 8.94578 3.59342 8.96734C3.54137 8.9889 3.48558 9 3.42924 9C3.3729 9 3.31712 8.9889 3.26507 8.96734C3.21301 8.94578 3.16572 8.91418 3.12588 8.87434C3.08604 8.83451 3.05444 8.78721 3.03288 8.73516C3.01132 8.68311 3.00022 8.62732 3.00022 8.57098C3.00022 8.51464 3.01132 8.45885 3.03288 8.4068C3.05444 8.35475 3.08604 8.30746 3.12588 8.26762L5.39424 6.00011L3.12588 3.73261C3.08598 3.6928 3.05432 3.64552 3.03272 3.59347C3.01112 3.54141 3 3.4856 3 3.42924C3 3.37288 3.01112 3.31708 3.03272 3.26502C3.05432 3.21297 3.08598 3.16568 3.12588 3.12588Z" fill="#00BAF6"/>
</svg>