<svg width="24" height="24" viewBox="0 0 24 24" fill="none" xmlns="http://www.w3.org/2000/svg">
<circle cx="22" cy="2" r="2" fill="#00BAF6"/>
<path fill-rule="evenodd" clip-rule="evenodd" d="M11.6785 4.70634C9.32257 4.70634 7.41268 6.61623 7.41268 8.97219V15.9481H6.45914C6.06024 15.9481 5.73381 16.2584 5.70799 16.6507H17.6491C17.6233 16.2584 17.2968 15.9481 16.8979 15.9481H15.9444V8.9722C15.9444 6.61623 14.0345 4.70634 11.6785 4.70634ZM5.70634 8.97219C5.70634 5.67384 8.38019 3 11.6785 3C14.9769 3 17.6507 5.67384 17.6507 8.9722V14.3591C18.6406 14.6771 19.3571 15.6053 19.3571 16.7009C19.3571 17.6156 18.6156 18.3571 17.7009 18.3571H5.65615C4.74149 18.3571 4 17.6156 4 16.7009C4 15.6053 4.71643 14.6771 5.70634 14.3591V8.97219Z" fill="#272727"/>
<path fill-rule="evenodd" clip-rule="evenodd" d="M9.97217 18.7837C9.97217 19.0945 10.0553 19.3859 10.2004 19.6369C10.4955 20.1469 11.0469 20.49 11.6785 20.49C12.3101 20.49 12.8615 20.1469 13.1566 19.6369C13.3018 19.3859 13.3849 19.0945 13.3849 18.7837H9.97217Z" fill="#272727"/>
</svg>
