<svg width="15" height="14" viewBox="0 0 15 14" fill="none" xmlns="http://www.w3.org/2000/svg">
<path d="M12.4675 6.70835C12.4695 7.47827 12.2882 8.23778 11.9384 8.92502C11.5237 9.74853 10.8861 10.4412 10.0971 10.9254C9.30804 11.4097 8.39874 11.6663 7.47101 11.6667C6.69517 11.6687 5.92982 11.4888 5.2373 11.1417L1.88672 12.25L3.00358 8.92502C2.65378 8.23778 2.47252 7.47827 2.47454 6.70835C2.4749 5.78771 2.73354 4.88535 3.22149 4.10234C3.70945 3.31933 4.40744 2.6866 5.2373 2.27502C5.92982 1.92789 6.69517 1.74801 7.47101 1.75002H7.76492C8.99015 1.8171 10.1474 2.33029 11.0151 3.19135C11.8827 4.05241 12.3999 5.20081 12.4675 6.41668V6.70835Z" stroke="#BEBEBE" stroke-linecap="round" stroke-linejoin="round"/>
</svg>
