<svg width="12" height="12" viewBox="0 0 12 12" fill="none" xmlns="http://www.w3.org/2000/svg">
<path fill-rule="evenodd" clip-rule="evenodd" d="M6.75 0.782609C6.75 0.350386 6.41421 0 6 0C5.58579 0 5.25 0.350386 5.25 0.782609V5.25H0.782609C0.350385 5.25 0 5.58579 0 6C0 6.41421 0.350385 6.75 0.782609 6.75H5.25V11.2174C5.25 11.6496 5.58579 12 6 12C6.41421 12 6.75 11.6496 6.75 11.2174V6.75H11.2174C11.6496 6.75 12 6.41421 12 6C12 5.58579 11.6496 5.25 11.2174 5.25H6.75V0.782609Z" fill="#333333"/>
</svg>