<svg width="18" height="18" viewBox="0 0 18 18" fill="none" xmlns="http://www.w3.org/2000/svg">
<path d="M9.09004 9.58535C9.03754 9.57785 8.97004 9.57785 8.91004 9.58535C7.59004 9.54035 6.54004 8.46035 6.54004 7.13285C6.54004 5.77535 7.63504 4.67285 9.00004 4.67285C10.3575 4.67285 11.46 5.77535 11.46 7.13285C11.4525 8.46035 10.41 9.54035 9.09004 9.58535Z" stroke="#00BAF6" stroke-width="1.5" stroke-linecap="round" stroke-linejoin="round"/>
<path d="M14.0551 14.5349C12.7201 15.7574 10.9501 16.4999 9.00007 16.4999C7.05007 16.4999 5.28007 15.7574 3.94507 14.5349C4.02007 13.8299 4.47007 13.1399 5.27257 12.5999C7.32757 11.2349 10.6876 11.2349 12.7276 12.5999C13.5301 13.1399 13.9801 13.8299 14.0551 14.5349Z" stroke="#00BAF6" stroke-width="1.5" stroke-linecap="round" stroke-linejoin="round"/>
<path d="M9 16.5C13.1421 16.5 16.5 13.1421 16.5 9C16.5 4.85786 13.1421 1.5 9 1.5C4.85786 1.5 1.5 4.85786 1.5 9C1.5 13.1421 4.85786 16.5 9 16.5Z" stroke="#00BAF6" stroke-width="1.5" stroke-linecap="round" stroke-linejoin="round"/>
</svg>
