<svg width="16" height="18" viewBox="0 0 16 18" fill="none" xmlns="http://www.w3.org/2000/svg">
<path fill-rule="evenodd" clip-rule="evenodd" d="M14.8094 3.98263L8.74193 0.480132C8.62469 0.412526 8.49172 0.376943 8.35638 0.376953C8.22103 0.376963 8.08807 0.412565 7.97084 0.480188C7.8536 0.547811 7.7562 0.645077 7.68843 0.762226C7.62065 0.879376 7.58487 1.01229 7.58468 1.14763V2.22763C7.58484 2.90442 7.40679 3.56932 7.06843 4.15546C6.73007 4.7416 6.24334 5.2283 5.65718 5.56663L1.19243 8.14513C1.07515 8.21278 0.977744 8.31012 0.91002 8.42736C0.842296 8.5446 0.806641 8.67761 0.806641 8.81301C0.806641 8.9484 0.842296 9.08141 0.91002 9.19865C0.977744 9.3159 1.07515 9.41324 1.19243 9.48088L5.23868 11.8164C5.20343 11.8576 5.16068 11.8884 5.13368 11.9364L2.54168 16.4251C2.42748 16.6315 2.39885 16.8744 2.46195 17.1017C2.52504 17.3289 2.67483 17.5224 2.87907 17.6403C3.08331 17.7582 3.32569 17.7913 3.55406 17.7324C3.78243 17.6734 3.97853 17.5272 4.10018 17.3251L6.69218 12.8371C6.71993 12.7884 6.72518 12.7359 6.74243 12.6856L10.7894 15.0211C10.9066 15.0888 11.0396 15.1244 11.1749 15.1244C11.3102 15.1244 11.4431 15.0888 11.5603 15.0212C11.6775 14.9535 11.7749 14.8562 11.8426 14.7391C11.9102 14.6219 11.9459 14.489 11.9459 14.3536V9.19813C11.9459 7.82038 12.6802 6.54763 13.8734 5.85913L14.8094 5.31913C14.9269 5.25154 15.0245 5.15417 15.0923 5.03685C15.1602 4.91953 15.1959 4.78641 15.1959 4.65088C15.1959 4.51536 15.1602 4.38223 15.0923 4.26491C15.0245 4.14759 14.9269 4.05023 14.8094 3.98263" fill="#8B95A1"/>
</svg>
