<svg width="20" height="20" viewBox="0 0 20 20" fill="none" xmlns="http://www.w3.org/2000/svg">
<path fill-rule="evenodd" clip-rule="evenodd" d="M0.697674 5.06006C1.08299 5.06006 1.39535 5.38371 1.39535 5.78295V16.3854C1.39535 17.5831 2.33243 18.554 3.48837 18.554H16.5116C17.6676 18.554 18.6047 17.5831 18.6047 16.3854V5.78295C18.6047 5.38371 18.917 5.06006 19.3023 5.06006C19.6876 5.06006 20 5.38371 20 5.78295V16.3854C20 18.3816 18.4382 19.9998 16.5116 19.9998H3.48837C1.5618 19.9998 0 18.3816 0 16.3854V5.78295C0 5.38371 0.312359 5.06006 0.697674 5.06006Z" fill="current"/>
<path fill-rule="evenodd" clip-rule="evenodd" d="M14.4185 5.78295C14.4185 5.38371 14.7308 5.06006 15.1161 5.06006H19.3022C19.6875 5.06006 19.9999 5.38371 19.9999 5.78295C19.9999 6.18219 19.6875 6.50584 19.3022 6.50584H15.1161C14.7308 6.50584 14.4185 6.18219 14.4185 5.78295Z" fill="current"/>
<path fill-rule="evenodd" clip-rule="evenodd" d="M5.58154 5.78295C5.58154 5.38371 5.26918 5.06006 4.88387 5.06006H0.697822C0.312507 5.06006 0.00014782 5.38371 0.00014782 5.78295C0.00014782 6.18219 0.312507 6.50584 0.697822 6.50584H4.88387C5.26918 6.50584 5.58154 6.18219 5.58154 5.78295Z" fill="current"/>
<path d="M8.35471 11.0755C8.35471 11.9684 8.867 12.5301 9.72508 12.5301C10.5832 12.5301 11.0954 11.954 11.0954 11.0755C11.0954 10.1969 10.5832 9.62083 9.72508 9.62083C8.867 9.62083 8.35471 10.1825 8.35471 11.0755ZM11.0186 8.94391V8.2958C11.0186 7.92134 11.0826 7.63329 11.4412 7.35965C12.0688 6.89877 12.6835 6.39468 13.0677 5.8906C13.5288 5.28569 13.7209 4.59438 13.7209 3.62941C13.7209 1.1666 12.1841 0 10.0581 0C8.00892 0 6.33118 1.35383 6.27995 3.11093C6.25434 4.00388 6.77943 4.45035 7.36856 4.49356C8.07296 4.55117 8.61086 4.1623 8.79016 3.47099C8.94384 2.88049 9.46894 2.54923 10.0581 2.54923C10.6344 2.54923 11.1083 2.9669 11.1083 3.62941C11.1083 4.1191 11.0058 4.43595 10.596 4.85362C10.327 5.12727 9.86596 5.42972 9.30244 5.80418C8.58524 6.27946 8.43156 6.95638 8.43156 8.06536V8.94391H11.0186Z" fill="current"/>
</svg>
