<svg width="24" height="24" viewBox="0 0 24 24" fill="none" xmlns="http://www.w3.org/2000/svg">
<g id="Warning / Question">
<path id="Subtract" fill-rule="evenodd" clip-rule="evenodd" d="M2 12C2 17.5228 6.47715 22 12 22C17.5228 22 22 17.5228 22 12C22 6.47715 17.5228 2 12 2C6.47715 2 2 6.47715 2 12ZM12 8C11.2704 8 11 8.48789 11 8.71429C11 9.26657 10.5523 9.71429 10 9.71429C9.44772 9.71429 9 9.26657 9 8.71429C9 7.2264 10.3296 6 12 6C12.938 6 13.6951 6.45041 14.1967 7.01337C14.6836 7.55992 15 8.28934 15 9C15 9.78363 14.845 10.4013 14.5819 10.9276C14.3443 11.4028 14.0326 11.7671 13.7998 12.0391L13.7606 12.085C13.509 12.3797 13.3408 12.5879 13.2165 12.8508C13.0994 13.0982 13 13.4442 13 14C13 14.5523 12.5523 15 12 15C11.4477 15 11 14.5523 11 14C11 13.1843 11.1506 12.5411 11.4085 11.9957C11.6586 11.4668 11.9896 11.0791 12.2379 10.7883L12.2394 10.7865C12.5034 10.4772 12.6693 10.2806 12.7931 10.0331C12.905 9.80938 13 9.50208 13 9C13 8.85352 12.9164 8.58294 12.7033 8.34378C12.5049 8.12102 12.262 8 12 8ZM12 18C12.5523 18 13 17.5523 13 17C13 16.4477 12.5523 16 12 16C11.4477 16 11 16.4477 11 17C11 17.5523 11.4477 18 12 18Z" fill="#676767"/>
</g>
</svg>
