<svg width="18" height="18" viewBox="0 0 18 18" fill="none" xmlns="http://www.w3.org/2000/svg">
<path d="M10.2974 2.63297L11.6174 5.27297C11.7974 5.64047 12.2774 5.99297 12.6824 6.06047L15.0749 6.45797C16.6049 6.71297 16.9649 7.82297 15.8624 8.91797L14.0024 10.778C13.6874 11.093 13.5149 11.7005 13.6124 12.1355L14.1449 14.438C14.5649 16.2605 13.5974 16.9655 11.9849 16.013L9.74243 14.6855C9.33743 14.4455 8.66993 14.4455 8.25743 14.6855L6.01493 16.013C4.40993 16.9655 3.43493 16.253 3.85493 14.438L4.38743 12.1355C4.48493 11.7005 4.31243 11.093 3.99743 10.778L2.13743 8.91797C1.04243 7.82297 1.39493 6.71297 2.92493 6.45797L5.31743 6.06047C5.71493 5.99297 6.19493 5.64047 6.37493 5.27297L7.69493 2.63297C8.41493 1.20047 9.58493 1.20047 10.2974 2.63297Z" stroke="#00BAF6" stroke-width="1.5" stroke-linecap="round" stroke-linejoin="round"/>
</svg>
