<svg width="15" height="14" viewBox="0 0 15 14" fill="none" xmlns="http://www.w3.org/2000/svg">
<path d="M4.11488 12.8332H2.35142C2.03962 12.8332 1.74059 12.7103 1.52012 12.4915C1.29964 12.2727 1.17578 11.9759 1.17578 11.6665V7.58317C1.17578 7.27375 1.29964 6.97701 1.52012 6.75821C1.74059 6.53942 2.03962 6.4165 2.35142 6.4165H4.11488M8.22963 5.24984V2.9165C8.22963 2.45238 8.04383 2.00726 7.71312 1.67907C7.38241 1.35088 6.93386 1.1665 6.46617 1.1665L4.11488 6.4165V12.8332H10.7455C11.029 12.8364 11.3042 12.7377 11.5202 12.5555C11.7362 12.3733 11.8786 12.1197 11.9211 11.8415L12.7323 6.5915C12.7579 6.4243 12.7465 6.25357 12.699 6.09115C12.6515 5.92873 12.569 5.77851 12.4571 5.65089C12.3453 5.52327 12.2069 5.4213 12.0514 5.35205C11.8959 5.2828 11.7271 5.24792 11.5567 5.24984H8.22963Z" stroke="#BEBEBE" stroke-linecap="round" stroke-linejoin="round"/>
</svg>
