<svg width="254" height="369" viewBox="0 0 254 369" fill="none" xmlns="http://www.w3.org/2000/svg">
<path d="M209.74 136.551H209.88C209.915 136.83 209.984 137.144 210.019 137.457C213.224 139.721 216.567 139.686 220.782 139.164C225.484 138.607 229.908 136.412 233.704 133.591C234.819 132.755 235.933 131.78 236.63 130.63C236.491 130.038 236.351 129.446 236.177 128.854C235.062 126.451 234.018 124.012 233.007 121.574C233.669 121.644 234.296 121.783 234.958 121.923C237.849 123.385 240.322 125.58 241.576 128.575C243.039 132.058 243.561 135.855 244.049 139.582C247.149 162.535 250.284 185.454 253.384 208.407C253.592 209.836 253.767 211.264 253.592 212.692C253 217.359 248.681 220.529 244.745 223.106C240.879 225.649 227.504 228.888 223.638 231.431L223.394 231.187C223.568 231.013 223.708 230.839 223.847 230.664C224.23 230.212 224.613 229.689 224.509 229.097C224.369 228.296 223.429 227.982 222.628 227.808C218.518 226.868 214.338 225.962 210.124 226.067C200.615 226.311 192.116 231.674 184.175 236.899C179.786 239.755 175.397 242.646 171.009 245.537C170.73 242.333 169.79 239.198 168.187 236.411L168.327 236.342C165.157 230.49 161.953 224.639 158.783 218.787C155.126 212.065 152.966 208.198 151.016 202.242H151.12C150.284 197.471 148.821 192.873 146.766 188.519C153.175 189.007 161.778 192.141 167.665 194.51C175.153 197.505 183.443 198.446 191.385 197.227C196.47 196.426 205.77 195.45 210.925 195.694H211.099C211.343 188.345 211.099 180.891 209.949 173.786C209.183 169.153 208.521 164.521 207.72 159.923C207.024 155.987 206.397 152.086 205.77 148.15C205.282 145.05 204.794 141.95 204.272 138.85C203.715 135.332 204.69 133.521 207.024 131.431L207.093 131.501C207.511 131.188 207.929 130.874 208.347 130.595C208.765 132.581 209.183 134.601 209.636 136.656L209.74 136.551Z" fill="#EFEDED"/>
<path d="M189.155 36.1342C189.086 37.0398 188.877 37.9454 188.459 38.7465C188.284 39.06 188.075 39.3387 187.797 39.5825C187.065 40.2791 186.02 40.6971 185.08 40.4184C184.349 40.2094 183.861 39.6521 183.513 38.9904C183.164 38.3286 182.92 37.5275 182.781 36.796C182.398 34.8455 182.189 32.8601 182.119 30.8748C182.119 29.795 182.119 28.7153 182.537 27.74C182.955 26.7996 183.722 26.0333 184.453 25.3367C185.533 24.2917 186.682 23.2817 188.006 22.5502C188.11 22.5154 188.18 22.4457 188.284 22.4109C189.712 21.6794 193.474 21.6446 195.042 22.0626L195.146 22.5154C194.624 22.6199 194.136 22.8289 193.718 23.1772C193.161 23.63 192.812 24.2917 192.464 24.9535C191.28 27.1479 190.096 29.377 189.782 31.85C189.782 32.059 189.747 32.3377 189.887 32.5118C190.026 32.686 190.235 32.7208 190.444 32.7556C190.165 33.9051 189.747 35.0545 189.19 36.0994L189.155 36.1342Z" fill="#FCF7F2"/>
<path d="M197.688 28.3321C197.27 29.3422 196.643 30.2478 195.877 30.9793L195.738 30.8399C194.345 32.1635 192.394 32.895 190.478 32.7556C190.478 32.7556 190.444 32.7556 190.409 32.7556C190.2 32.7556 189.991 32.686 189.851 32.5118C189.712 32.3377 189.712 32.0939 189.747 31.85C190.06 29.377 191.279 27.1479 192.429 24.9535C192.777 24.3266 193.125 23.6648 193.683 23.1772C194.101 22.8289 194.588 22.6199 195.111 22.5154C196.33 22.2716 197.758 22.585 199.012 22.9333H199.813C199.709 24.9187 199.082 26.7996 198.002 28.4018L197.654 28.2973L197.688 28.3321Z" fill="#FFF8F5"/>
<path d="M195.877 31.0141C196.643 30.2826 197.27 29.3422 197.688 28.3669L198.037 28.4714C199.116 26.8692 199.743 24.9535 199.848 23.0378C199.848 22.376 199.848 21.7142 199.743 21.0873C199.465 19.1019 198.629 17.2559 197.758 15.4795C195.703 11.2301 193.369 7.08528 190.792 3.11456H202.599C207.371 8.61783 211.551 16.0368 211.864 23.2119C212.073 28.3669 208.381 32.5814 204.167 35.2286C204.028 35.2982 203.923 35.3679 203.784 35.4376C202.808 36.0297 201.833 36.5173 200.858 36.9353C197.236 38.4678 191.872 39.3386 187.971 39.7566L187.796 39.6173C188.04 39.3735 188.284 39.06 188.458 38.7813C188.911 37.9802 189.085 37.0746 189.155 36.169C189.712 35.0893 190.095 33.9747 190.409 32.8253C190.409 32.8253 190.444 32.8253 190.478 32.8253C192.394 32.9646 194.345 32.2331 195.738 30.9096L195.877 31.0489V31.0141Z" fill="#FFE780"/>
<path d="M177.103 26.2074C177.243 25.9984 177.382 25.7894 177.556 25.6153C178.079 24.9187 178.601 24.2221 179.124 23.5603C179.576 22.9682 180.029 22.3412 180.656 21.9232C182.398 20.7738 186.02 21.7491 187.971 22.4109V22.585C186.682 23.3165 185.533 24.3266 184.453 25.3715C183.687 26.0681 182.955 26.8344 182.537 27.7748C182.119 28.7501 182.084 29.8298 182.119 30.9096C182.189 32.8949 182.398 34.8803 182.781 36.8308C182.92 37.5623 183.129 38.3634 183.512 39.0252L183.338 39.1993C183.06 39.5476 182.816 39.8959 182.537 40.2094C181.701 40.7319 180.656 40.8364 179.785 40.7667C179.019 40.697 178.357 40.4881 178.114 40.2442C177.487 39.6521 177.173 38.7813 176.929 37.9454C176.79 37.4578 176.651 36.9353 176.546 36.4477C176.059 34.2533 175.85 31.9893 175.989 29.7602C176.024 28.9939 176.128 28.1928 176.407 27.4962C176.581 27.0782 176.825 26.6602 177.103 26.2771V26.2074Z" fill="#FCF7F2"/>
<path d="M209.879 136.517H209.74C209.287 134.496 208.869 132.476 208.451 130.491C205.351 115.862 202.425 102.208 196.539 85.594L196.818 85.176C195.808 83.8176 194.275 82.7727 192.638 82.5637V82.2502C187.727 80.8918 183.269 77.8964 180.134 73.856C179.855 73.7167 179.576 73.6122 179.263 73.5077C177.312 70.4077 174.77 66.9943 171.879 63.7202C171.147 62.4663 170.66 61.0731 170.346 59.645C168.465 55.7788 166.236 52.0519 163.694 48.5688C162.788 47.3497 161.813 45.9565 162.057 44.4588H162.196C162.161 44.0408 162.161 43.6228 162.196 43.2049C163.206 43.3094 164.216 43.3442 165.226 43.3094C166.341 43.2745 167.49 43.2049 168.605 43.0656C169.023 43.588 169.441 44.1105 169.928 44.5633C172.297 46.8621 174.456 49.3351 176.407 51.9822C176.302 51.1115 176.267 50.2407 176.407 49.3699C176.651 47.4194 176.685 45.4341 176.616 43.4835C176.581 43.0307 176.546 42.5779 176.546 42.1251C177.661 41.9161 178.775 41.6723 179.89 41.4633V40.8364C180.795 40.906 181.84 40.8016 182.676 40.2791C182.955 39.9308 183.199 39.5825 183.477 39.269L183.652 39.0948C184 39.7566 184.522 40.2791 185.219 40.5229C186.194 40.8364 187.204 40.4184 187.936 39.687L188.11 39.8263C192.011 39.4083 197.375 38.5375 200.997 37.005C201.973 36.587 202.948 36.0994 203.923 35.5073C204.132 35.7859 204.341 36.0994 204.515 36.378C211.725 47.1059 213.815 60.7944 214.965 73.7515C215.487 75.911 216.009 78.0357 216.497 80.1604C223.115 93.5702 227.434 107.851 233.111 121.609C234.121 124.047 235.166 126.485 236.281 128.889C236.455 129.481 236.595 130.073 236.734 130.665C236.037 131.814 234.923 132.825 233.808 133.626C229.977 136.447 225.588 138.606 220.886 139.199C216.671 139.721 213.327 139.756 210.123 137.492C210.088 137.178 210.019 136.865 209.984 136.551L209.879 136.517Z" fill="#FCF7F2"/>
<path d="M120.677 276.467C121.618 275.387 122.489 274.307 123.359 273.193L123.255 273.123C127.121 267.376 130.987 261.664 134.854 255.917C134.993 255.708 135.132 255.499 135.272 255.29C136.491 253.479 137.71 251.667 139.382 250.239C142.621 247.418 147.044 246.443 151.259 245.607C153.836 245.084 156.449 244.562 159.061 244.841C159.374 244.841 159.688 244.91 159.967 244.98C162.265 245.433 164.46 246.617 165.644 248.567L165.853 248.881C164.529 249.752 163.171 250.622 161.847 251.493C161.116 251.911 160.419 252.364 159.758 252.886C171.043 250.518 182.049 246.861 192.499 241.984C196.643 240.034 200.823 237.874 205.351 237.178C206.535 237.004 207.789 236.934 208.904 237.422C210.018 237.909 210.854 239.128 210.611 240.278C210.367 241.357 209.322 242.019 208.381 242.577C205.316 244.388 202.216 246.199 199.116 247.94C199.116 248.393 199.151 248.811 199.221 249.229H199.082C199.082 251.284 198.072 253.061 196.678 254.593C196.643 255.673 196.434 256.753 196.156 257.798H196.017C193.265 263.684 188.389 268.177 183.025 272.078C182.99 272.148 182.955 272.252 182.92 272.322L183.129 272.427C181.039 277.268 177.069 281.099 172.541 283.816C172.088 284.095 171.6 284.374 171.112 284.617C167.734 286.463 164.111 287.752 160.419 288.902C158.539 289.494 156.623 290.016 154.742 290.539C148.856 292.176 142.934 293.847 137.048 295.485L136.909 295.101C136.665 295.171 136.456 295.276 136.212 295.38C135.411 295.694 134.575 296.077 133.809 296.425L133.913 296.634C123.359 305.969 105.84 315.199 92.9173 323.732C91.8375 324.429 90.7926 325.16 89.7825 325.857C88.3544 326.449 87.0657 327.285 85.9511 328.33C81.4231 320.389 79.2636 306.212 79.1243 300.013C79.4029 299.664 79.7164 299.386 80.0995 299.142C80.1692 299.107 80.2737 299.037 80.3433 299.002C81.4579 298.341 82.5725 297.679 83.6871 297.052C92.8824 291.827 102.217 287.404 111.343 281.935C113.119 280.856 114.93 279.811 116.707 278.731C118.03 277.965 119.319 277.164 120.643 276.397L120.677 276.467Z" fill="#FFF8F5"/>
<path d="M176.442 41.4982H175.884C173.516 42.2296 171.043 42.7172 168.57 43.0307C167.455 43.17 166.306 43.2397 165.191 43.2745C164.181 43.2745 163.171 43.2745 162.161 43.17C160.698 42.9959 159.305 42.6476 158.051 41.8813C153.906 39.3386 153.244 33.6612 153.349 28.7849C153.558 19.8682 154.986 10.9864 157.494 2.41797H157.912C160.872 2.27865 163.833 2.13932 166.794 2C165.191 10.1156 163.937 18.3008 162.962 26.5209C162.823 27.7051 162.683 28.9242 162.962 30.0736C163.206 31.2231 163.937 32.3725 165.052 32.7905C165.888 33.1039 166.828 32.9994 167.699 33.1388V33.0343C168.222 33.2084 168.779 33.3129 169.301 33.3129C169.232 33.9399 169.162 34.6017 169.127 35.2634C169.058 36.4477 169.127 37.7713 169.928 38.6072C170.625 39.3386 171.774 39.478 172.75 39.1993C173.725 38.9207 174.561 38.2937 175.327 37.6319L175.745 37.7364C175.954 37.2836 176.198 36.8657 176.511 36.4477C176.616 36.9353 176.755 37.4578 176.894 37.9454C177.138 38.7813 177.452 39.6521 178.079 40.2442C178.323 40.4881 178.984 40.697 179.751 40.7667V41.3937C178.601 41.6026 177.487 41.8465 176.372 42.0555C176.372 41.8813 176.372 41.6723 176.372 41.4982H176.442Z" fill="#FFE780"/>
<path d="M138.755 123.699L138.824 123.838C145.129 121.609 148.821 115.549 151.398 109.383C154.011 103.218 155.891 96.7399 158.26 90.5052C159.235 87.9625 160.419 85.385 162.474 83.5738C164.495 81.7626 167.56 80.857 170.033 82.0064V82.4244C171.043 82.3896 172.053 82.5289 173.028 82.8075C173.62 82.9817 174.247 83.2255 174.735 83.6435C175.188 84.0266 175.536 84.5142 175.85 85.0019C177.069 86.7783 178.323 88.6939 178.497 90.8535C179.367 95.0332 178.462 100.78 177.103 105.204C177.103 107.955 175.745 110.568 175.083 113.285C174.63 115.061 174.526 116.872 174.143 118.648C173.307 122.863 171.252 126.729 169.232 130.491C169.023 130.979 168.814 131.466 168.605 131.989C168.117 133.138 167.664 134.253 167.246 135.402C164.146 143.378 152.478 154.071 144.119 155.987C140.67 156.788 137.013 155.883 133.913 154.071C133.112 155.883 132.311 157.694 131.51 159.505L131.196 159.366C130.291 161.665 129.559 163.998 129.002 166.402C128.445 168.979 128.096 171.626 127.992 174.273C127.992 175.771 128.096 177.269 128.271 178.766C133.077 192.49 139.765 204.646 146.696 216.941C145.233 217.986 143.77 218.996 142.238 219.937C138.546 222.862 130.221 224.987 125.972 225.544L125.345 225.684C118.657 210.95 110.159 197.54 102.322 183.817C97.5498 175.458 92.7432 164.486 92.2207 154.733C93.0218 153.653 93.9971 152.713 95.0768 151.982C95.0768 151.947 95.0072 151.912 94.9723 151.877C95.042 151.807 95.1117 151.738 95.1813 151.668C97.933 148.847 105.317 140.174 109.114 133.068L109.009 132.999C110.96 129.272 112.353 125.023 111.865 120.843C111.691 119.275 111.552 116.802 111.134 115.27L111.308 114.991C110.333 114.086 109.671 112.832 109.253 111.438H109.218C109.149 110.812 109.114 110.185 109.148 109.558C109.148 109.453 109.218 109.314 109.288 109.279L109.183 109.174C112.074 106.179 115.94 104.298 119.807 102.696C127.992 99.3522 136.804 97.0185 144.467 92.7692C141.437 103.218 135.62 112.797 127.818 120.32C126.32 121.748 124.718 123.142 122.907 124.012C123.603 124.047 124.3 124.082 124.997 124.047V123.943C133.112 122.027 140.357 116.663 144.641 109.488C146.383 107.468 147.706 105.169 148.786 102.731C148.403 105.03 148.02 107.294 147.497 109.558C146.766 112.762 145.825 115.966 144.049 118.718C142.76 120.738 140.984 122.55 138.859 123.629L138.755 123.699ZM169.545 121.087C169.684 120.843 170.207 119.693 169.824 119.589C169.789 119.589 169.754 119.589 169.719 119.589C169.232 119.728 168.5 121.33 168.674 121.714C168.883 122.201 169.406 121.296 169.545 121.052V121.087ZM155.648 112.483C155.648 112.483 155.717 112.17 155.648 112.031C155.473 111.543 155.125 111.473 154.812 111.613C154.638 111.682 154.498 111.822 154.359 111.996C153.732 112.727 153.175 113.494 153.001 114.469C153.001 114.608 152.966 114.782 153.001 114.922C153.244 115.618 154.22 115.061 154.498 114.747C155.021 114.155 155.473 113.285 155.648 112.483Z" fill="#FCF7F2"/>
<path d="M174.422 26.2074H177.069C176.79 26.5906 176.546 26.9737 176.372 27.4265C176.094 28.158 175.989 28.9242 175.954 29.6905C175.815 31.9197 176.024 34.1837 176.512 36.378C176.198 36.7612 175.954 37.214 175.745 37.6668L175.327 37.5623C174.561 38.2241 173.725 38.851 172.75 39.1297C171.775 39.4083 170.625 39.269 169.929 38.5375C169.093 37.7016 169.058 36.378 169.127 35.1938C169.162 34.532 169.232 33.905 169.302 33.2433C169.406 32.268 169.545 31.3276 169.754 30.3523C170.033 28.9591 170.451 27.4613 171.635 26.6254C172.436 26.0681 173.412 25.9636 174.387 25.7895V26.1378L174.422 26.2074Z" fill="#FCF7F2"/>
<path d="M157.216 363.892H157.181C160.525 347.557 161.117 310.357 160.943 293.673H161.117C160.943 292.106 160.734 290.539 160.49 289.006V288.902C164.147 287.752 167.769 286.463 171.183 284.617C171.67 284.339 172.123 284.095 172.611 283.816L173.412 284.13C177.139 304.784 167.944 347.139 172.088 365.111H172.297C172.228 365.878 172.158 366.644 172.088 367.41H169.581V367.55C165.087 367.55 160.664 367.55 156.31 367.55C156.658 366.33 157.007 365.111 157.285 363.857L157.216 363.892Z" fill="#EFEDED"/>
<path d="M213.816 238.257C212.771 238.919 211.691 239.616 210.646 240.278C210.925 239.093 210.054 237.909 208.94 237.422C207.825 236.934 206.571 237.004 205.387 237.178C200.859 237.874 196.679 240.034 192.534 241.984C182.085 246.861 171.078 250.518 159.793 252.886C160.455 252.364 161.152 251.876 161.883 251.493C163.207 250.622 164.565 249.752 165.889 248.881C166.028 248.811 166.132 248.707 166.272 248.637C167.874 247.592 169.441 246.547 171.044 245.502C175.432 242.611 179.821 239.755 184.21 236.864C192.151 231.674 200.65 226.276 210.159 226.032C214.373 225.927 218.553 226.868 222.663 227.773C223.464 227.948 224.37 228.261 224.544 229.062C224.648 229.654 224.265 230.177 223.882 230.63C223.743 230.804 223.568 230.978 223.429 231.152C221.548 233.277 219.284 235.088 216.811 236.481C216.602 236.586 216.393 236.69 216.184 236.795C215.383 237.213 214.617 237.7 213.851 238.223L213.816 238.257Z" fill="#E5E3E1"/>
<path d="M157.598 236.899C158.574 239.511 159.375 242.193 160.002 244.945C159.688 244.875 159.375 244.841 159.096 244.806C156.484 244.527 153.871 245.049 151.294 245.572C147.079 246.443 142.656 247.383 139.417 250.204C137.78 251.633 136.526 253.479 135.307 255.255C135.167 255.464 135.028 255.673 134.889 255.882C134.714 254.001 134.331 252.155 133.844 250.344H134.018C131.823 241.566 128.828 233.486 125.31 225.753L125.937 225.614C130.186 225.057 138.511 222.932 142.203 220.006C143.736 219.066 145.198 218.056 146.661 217.011C150.319 223.524 154.046 230.072 157.598 236.899Z" fill="#95C6D1"/>
<path d="M144.537 109.558C140.287 116.768 133.008 122.097 124.892 124.012V124.117C124.196 124.117 123.499 124.117 122.802 124.082C124.648 123.211 126.251 121.818 127.713 120.39C135.516 112.866 141.332 103.288 144.363 92.8736C147.045 91.3411 149.587 89.6343 151.886 87.5445L152.06 87.6141C150.319 92.4905 149.517 97.6454 148.682 102.766C147.602 105.239 146.243 107.537 144.537 109.523V109.558Z" fill="#F4C3AB"/>
<path d="M127.957 174.308C128.062 171.661 128.41 169.014 128.967 166.436C129.072 166.61 129.176 166.75 129.281 166.924L129.42 166.854C135.585 172.009 141.785 179.428 145.512 186.708L145.825 186.534C146.139 187.161 146.487 187.788 146.766 188.449C148.821 192.803 150.284 197.401 151.12 202.138H151.015C152.966 208.129 155.125 211.995 158.782 218.717C161.952 224.569 165.157 230.421 168.326 236.272L168.187 236.342C169.754 239.128 170.729 242.263 171.008 245.467C169.406 246.512 167.838 247.557 166.236 248.602C166.097 248.672 165.992 248.776 165.853 248.846L165.644 248.533C164.46 246.547 162.266 245.363 159.967 244.945C159.34 242.228 158.539 239.546 157.563 236.899C154.011 230.072 150.284 223.524 146.627 217.011C139.695 204.715 133.043 192.559 128.201 178.836C128.062 177.338 127.957 175.841 127.922 174.343L127.957 174.308Z" fill="#EFEDED"/>
<path d="M41.089 353.13C49.1001 351.632 56.9022 348.985 64.5302 346.268C70.2773 344.213 94.6588 339.546 94.0667 332.405L92.987 325.3C92.987 324.777 92.9173 324.29 92.9173 323.767C105.84 315.199 123.325 306.003 133.913 296.669L133.809 296.46C134.61 296.077 135.411 295.728 136.212 295.415C136.526 297.191 136.734 299.002 136.734 300.814H137.327C137.954 315.303 137.257 352.851 133.251 367.619C101.555 367.689 71.5312 367.828 38.0239 367.828C39.3127 364.241 40.2879 360.514 40.8801 356.717C41.0194 355.533 41.0542 354.314 41.089 353.13Z" fill="#EFEDED"/>
<path d="M137.048 295.519C142.935 293.882 148.856 292.211 154.742 290.573C156.623 290.051 158.539 289.529 160.42 288.936V289.041C160.664 290.573 160.873 292.141 161.082 293.708H160.907C161.082 310.392 160.489 347.592 157.146 363.927H157.18C156.902 365.181 156.554 366.4 156.205 367.619C148.403 367.619 140.775 367.619 133.252 367.654C137.222 352.886 137.919 315.338 137.327 300.849H136.735C136.735 299.037 136.526 297.226 136.212 295.45C136.456 295.345 136.665 295.276 136.909 295.171L137.048 295.554V295.519Z" fill="#95C6D1"/>
<path d="M12.7719 352.189C11.2045 351.91 9.7764 351.109 8.52249 350.134C7.09443 348.985 5.91019 347.522 4.72595 346.094L4.41245 346.233C0.581064 340.207 2.35745 330.838 2.77542 324.324C3.4372 314.328 4.30796 304.332 5.38771 294.37C8.73147 263.336 12.0752 232.476 25.2065 203.81C29.3165 194.858 34.0535 182.319 42.0646 176.119C45.3735 173.542 49.4139 172.218 53.4194 171.104C58.0519 169.78 62.7541 168.666 67.4911 167.76C67.9787 167.969 68.5708 167.83 69.0933 167.655C69.4416 167.551 69.7899 167.412 70.1382 167.272C72.0888 166.506 73.9348 165.496 75.6415 164.312L75.5718 164.207C77.592 162.257 80.2043 159.818 82.747 157.485C84.6278 155.743 86.4739 154.037 87.9368 152.574C89.0165 151.529 92.5693 149.091 95.1816 151.738C95.1119 151.807 95.0423 151.877 94.9726 151.947C95.0074 151.947 95.0423 152.016 95.0771 152.051C93.9625 152.817 92.9872 153.758 92.221 154.803C92.7783 164.555 97.5501 175.492 102.322 183.887C110.159 197.645 118.658 211.02 125.345 225.753C128.863 233.486 131.858 241.566 134.053 250.309H133.879C134.401 252.155 134.749 254.036 134.924 255.882C131.057 261.629 127.191 267.341 123.325 273.088L123.429 273.158C122.559 274.273 121.688 275.352 120.747 276.432C119.424 277.198 118.135 277.999 116.812 278.766C115.035 279.846 113.224 280.89 111.448 281.97C102.287 287.439 92.9873 291.862 83.7919 297.087C82.6773 297.714 81.5627 298.376 80.4482 299.037C80.3437 299.072 80.274 299.142 80.2043 299.177C79.8212 299.42 79.5077 299.699 79.2291 300.047C79.3684 306.247 81.4931 320.423 86.0559 328.365C87.1705 327.32 88.4941 326.484 89.8873 325.892C90.8974 325.195 91.9423 324.499 93.0221 323.767C93.0221 324.29 93.0569 324.777 93.0917 325.3L94.1715 332.405C94.7288 339.546 70.382 344.213 64.635 346.268C57.007 348.985 49.2049 351.632 41.1938 353.13C37.4321 353.826 33.6355 354.279 29.8041 354.349C24.9278 354.418 17.892 354.035 12.8763 352.189H12.7719Z" fill="#EFEDED"/>
<path d="M179.263 73.5077C179.925 74.5526 180.517 75.5627 181.04 76.5031C190.618 93.9534 189.573 115.305 178.706 131.919C174.561 138.258 165.401 146.2 169.197 154.594L168.675 154.942C167.595 153.688 166.864 152.086 166.481 150.449C165.923 148.08 166.028 145.573 166.202 143.169C166.376 140.801 166.655 138.432 167.003 136.064H166.968C167.038 135.82 167.107 135.611 167.212 135.402C167.63 134.253 168.118 133.103 168.57 131.989C168.779 131.501 168.988 130.979 169.197 130.491C171.218 126.729 173.273 122.863 174.108 118.648C174.457 116.872 174.596 115.026 175.049 113.285C175.711 110.568 177.104 107.955 177.069 105.204C178.428 100.78 179.333 95.0331 178.462 90.8534C178.323 88.6939 177.034 86.8131 175.815 85.0019C175.467 84.5142 175.153 84.0266 174.701 83.6435C174.213 83.2255 173.621 82.9817 172.994 82.8075C172.019 82.5289 171.009 82.3896 169.998 82.4244V82.0064C167.525 80.857 164.46 81.7626 162.44 83.5738C160.42 85.385 159.201 87.9277 158.226 90.5051C155.857 96.7747 153.976 103.218 151.364 109.383C148.752 115.548 145.094 121.609 138.79 123.838L138.72 123.699C140.845 122.584 142.621 120.808 143.91 118.788C145.687 116.036 146.627 112.832 147.358 109.627C147.881 107.363 148.264 105.099 148.647 102.8C149.518 97.6455 150.284 92.4905 152.026 87.649L151.852 87.5793C149.553 89.6692 147.01 91.3759 144.328 92.8736C136.7 97.0882 127.853 99.4218 119.668 102.8C115.802 104.403 111.97 106.284 109.045 109.279L109.149 109.383C109.149 109.383 109.01 109.558 109.01 109.662C109.01 110.289 109.01 110.916 109.079 111.543H109.114C109.497 112.936 110.159 114.19 111.169 115.096L110.995 115.374C111.448 116.907 111.552 119.38 111.726 120.947C112.214 125.162 110.856 129.376 108.87 133.103L108.975 133.173C105.178 140.278 97.7942 148.916 95.0425 151.773C92.465 149.091 88.8775 151.529 87.7977 152.608C86.3 154.071 84.4888 155.778 82.6079 157.52C81.9461 156.962 81.3888 156.335 80.9012 155.639C78.2192 153.166 77.1743 149.091 77.244 145.364C77.244 143.518 77.5574 141.602 78.463 139.965C78.4979 139.895 78.5327 139.826 78.6024 139.756C78.2192 138.363 78.8462 136.795 79.5776 135.507C80.3439 134.218 81.2147 133.034 82.2248 131.919C82.3989 131.71 82.6427 131.501 82.8865 131.397L82.7821 131.153C84.3843 130.561 85.9865 129.968 87.3797 129.376C88.4595 129.098 89.2954 128.297 89.8876 127.356C90.4797 126.416 90.828 125.371 91.1763 124.326C91.1763 124.326 91.1763 124.291 91.1763 124.256C92.8482 115.653 88.5988 107.05 89.2606 98.3769C91.0718 73.8212 108.905 42.2296 137.884 47.9767V48.0464C140.218 47.7329 142.587 47.8722 144.851 48.4295C154.359 47.8025 164.286 55.3608 171.705 63.7202C174.631 67.0292 177.139 70.4426 179.089 73.5077H179.263Z" fill="#F4C3AB"/>
<path d="M94.2162 151.504C94.2162 151.504 94.1465 151.434 94.1117 151.4C91.5342 148.718 87.9466 151.156 86.8669 152.235C85.3692 153.698 83.558 155.405 81.6771 157.147C79.1344 159.48 76.5221 161.918 74.502 163.869" stroke="#824236" stroke-width="1.8112" stroke-linecap="round" stroke-linejoin="round"/>
<path d="M153.847 111.24C154.16 111.1 154.474 111.17 154.683 111.658C154.752 111.797 154.683 111.971 154.683 112.11C154.508 112.911 154.091 113.747 153.533 114.374C153.255 114.688 152.244 115.28 152.035 114.548C152.001 114.409 152.035 114.235 152.035 114.096C152.21 113.12 152.767 112.354 153.394 111.623C153.533 111.449 153.707 111.309 153.847 111.24Z" stroke="#824236" stroke-width="1.8112" stroke-linecap="round" stroke-linejoin="round"/>
<path d="M168.754 119.251C168.754 119.251 168.824 119.251 168.859 119.251C169.242 119.32 168.719 120.505 168.58 120.748C168.441 120.992 167.918 121.863 167.709 121.41C167.535 121.027 168.266 119.425 168.754 119.285V119.251Z" stroke="#824236" stroke-width="1.8112" stroke-linecap="round" stroke-linejoin="round"/>
<path d="M154.961 100.93C157.783 101.208 157.887 101.522 159.489 102.915" stroke="#824236" stroke-width="1.8112" stroke-linecap="round" stroke-linejoin="round"/>
<path d="M164.853 118.589C164.366 119.947 164.087 121.41 164.261 122.873C164.47 124.58 165.62 126.147 165.585 127.889C165.585 129.979 163.739 131.581 161.997 132.521" stroke="#824236" stroke-width="1.8112" stroke-linecap="round" stroke-linejoin="round"/>
<path d="M171.646 108.871C172.412 108.941 173.178 109.289 173.77 109.777" stroke="#824236" stroke-width="1.8112" stroke-linecap="round" stroke-linejoin="round"/>
<path d="M175.651 86.5793C176.591 87.5546 177.148 88.913 177.497 90.5152C178.367 94.6949 177.462 100.442 176.103 104.866C175.964 105.283 175.825 105.701 175.685 106.085" stroke="#824236" stroke-width="1.8112" stroke-linecap="round" stroke-linejoin="round"/>
<path d="M166.281 134.785C166.281 134.785 166.211 134.959 166.177 135.064C163.077 143.075 151.408 153.733 143.049 155.649C139.601 156.45 135.943 155.544 132.844 153.733C132.321 153.42 131.799 153.106 131.311 152.723C127.967 150.285 124.623 148.3 122.394 144.816" stroke="#824236" stroke-width="1.8112" stroke-linecap="round" stroke-linejoin="round"/>
<path d="M109.856 128.725C109.438 129.979 108.811 131.372 108.044 132.835C104.248 139.94 96.8637 148.578 94.1121 151.434C94.0424 151.504 93.9727 151.574 93.9031 151.643C93.5548 151.992 93.311 152.235 93.1716 152.34" stroke="#824236" stroke-width="1.8112" stroke-linecap="round" stroke-linejoin="round"/>
<path d="M148.936 56.1024C155.937 60.3865 160.395 64.6359 165.237 71.2538" stroke="#824236" stroke-width="1.8112" stroke-linecap="round" stroke-linejoin="round"/>
<path d="M69.8348 166.76C69.591 166.795 69.3472 166.83 69.1034 166.899C68.2326 167.039 67.3619 167.213 66.4911 167.387C61.7541 168.292 57.0519 169.442 52.4194 170.731C48.4487 171.845 44.4083 173.169 41.0646 175.746C33.0535 181.946 28.3165 194.52 24.2065 203.437C11.0752 232.103 7.73147 262.963 4.38771 293.997C3.30796 303.959 2.4372 313.955 1.77542 323.951C1.35745 330.465 -0.418936 339.834 3.41245 345.86C3.76076 346.417 4.14392 346.94 4.59672 347.427" stroke="#824236" stroke-width="1.8112" stroke-linecap="round" stroke-linejoin="round"/>
<path d="M62.4156 221.305C60.9875 247.602 52.6281 276.129 46.6372 302.774" stroke="#824236" stroke-width="1.8112" stroke-linecap="round" stroke-linejoin="round"/>
<path d="M34.4463 307.163C38.5563 305.805 42.7709 304.864 46.9854 304.063C50.364 303.401 53.7425 302.809 57.1211 302.147C64.6446 300.65 79.7264 291.768 81.4679 296.435" stroke="#824236" stroke-width="1.8112" stroke-linecap="round" stroke-linejoin="round"/>
<path d="M78.1243 298.49C78.1243 298.838 78.1243 299.256 78.1243 299.709C78.2636 305.909 80.3883 320.085 84.9511 328.027C85.8915 329.698 86.9713 331.092 88.1207 332.067" stroke="#824236" stroke-width="1.8112" stroke-linecap="round" stroke-linejoin="round"/>
<path d="M8.56738 350.318C9.47298 350.91 10.5876 351.433 11.7718 351.851C16.8223 353.662 23.8233 354.08 28.6996 354.01C32.531 353.941 36.3275 353.488 40.0893 352.791C48.1004 351.294 55.9025 348.646 63.5304 345.93C69.2775 343.875 93.6591 339.207 93.0669 332.067L91.9872 324.962L91.9175 324.474" stroke="#824236" stroke-width="1.8112" stroke-linecap="round" stroke-linejoin="round"/>
<path d="M79.0999 298.838C79.0999 298.838 79.274 298.734 79.3437 298.699C80.4583 298.037 81.5728 297.375 82.6874 296.749C91.8828 291.524 101.217 287.1 110.343 281.632C112.119 280.552 113.931 279.507 115.707 278.428C117.031 277.661 118.319 276.86 119.643 276.094C119.852 275.955 120.096 275.815 120.305 275.711" stroke="#824236" stroke-width="1.8112" stroke-linecap="round" stroke-linejoin="round"/>
<path d="M79.0649 298.873C79.0649 298.873 79.0649 298.873 79.0998 298.873" stroke="#824236" stroke-width="1.8112" stroke-linecap="round" stroke-linejoin="round"/>
<path d="M86.6577 327.086C87.3543 326.564 88.051 326.076 88.8172 325.554C89.8273 324.857 90.8722 324.16 91.952 323.429C104.874 314.861 122.359 305.665 132.948 296.331" stroke="#824236" stroke-width="1.8112" stroke-linecap="round" stroke-linejoin="round"/>
<path d="M91.1162 153.315C91.1162 153.698 91.1162 154.081 91.151 154.465C91.7083 164.217 96.4802 175.154 101.252 183.548C109.089 197.307 117.588 210.682 124.275 225.415C127.793 233.147 130.789 241.228 132.983 249.971" stroke="#824236" stroke-width="1.8112" stroke-linecap="round" stroke-linejoin="round"/>
<path d="M128.42 166.516C134.585 171.671 140.785 179.09 144.512 186.37C144.721 186.788 144.93 187.171 145.104 187.589" stroke="#824236" stroke-width="1.8112" stroke-linecap="round" stroke-linejoin="round"/>
<path d="M127.132 178.184C127.132 178.184 127.201 178.393 127.236 178.463C132.043 192.186 138.73 204.342 145.662 216.638C149.319 223.151 153.046 229.699 156.598 236.526C156.668 236.665 156.773 236.839 156.842 237.014" stroke="#824236" stroke-width="1.8112" stroke-linecap="round" stroke-linejoin="round"/>
<path d="M122.29 272.785C126.156 267.038 130.022 261.326 133.888 255.578C134.028 255.369 134.167 255.16 134.306 254.952C135.525 253.14 136.744 251.329 138.416 249.901C141.656 247.08 146.079 246.104 150.294 245.269C152.871 244.746 155.483 244.224 158.096 244.502C158.409 244.502 158.723 244.572 159.001 244.642C161.3 245.094 163.494 246.279 164.679 248.229" stroke="#824236" stroke-width="1.8112" stroke-linecap="round" stroke-linejoin="round"/>
<path d="M160.395 251.468C160.395 251.468 160.709 251.259 160.883 251.155C162.206 250.284 163.565 249.413 164.888 248.543C165.028 248.473 165.132 248.369 165.272 248.299C166.874 247.254 168.441 246.209 170.043 245.164C174.432 242.273 178.821 239.417 183.209 236.526C191.151 231.336 199.65 225.937 209.158 225.694C213.373 225.589 217.553 226.53 221.663 227.435C222.464 227.609 223.369 227.923 223.544 228.724C223.648 229.316 223.265 229.839 222.882 230.291C222.742 230.465 222.568 230.64 222.429 230.814C220.548 232.938 218.284 234.75 215.811 236.143C215.463 236.352 215.149 236.526 214.801 236.7" stroke="#824236" stroke-width="1.8112" stroke-linecap="round" stroke-linejoin="round"/>
<path d="M147.926 254.429C151.583 253.941 155.205 253.314 158.793 252.548C170.078 250.18 181.084 246.522 191.534 241.646C195.679 239.696 199.858 237.536 204.386 236.839C205.571 236.665 206.824 236.596 207.939 237.083C209.054 237.571 209.89 238.79 209.646 239.939C209.402 241.019 208.357 241.681 207.417 242.238C204.351 244.049 201.252 245.861 198.152 247.602C190.106 252.13 181.92 256.414 173.596 260.42" stroke="#824236" stroke-width="1.8112" stroke-linecap="round" stroke-linejoin="round"/>
<path d="M198.117 248.926C198.117 250.946 197.107 252.722 195.713 254.29C195.017 255.091 194.216 255.822 193.449 256.519C188.051 261.36 182.373 266.063 175.755 269.023" stroke="#824236" stroke-width="1.8112" stroke-linecap="round" stroke-linejoin="round"/>
<path d="M174.989 276.512C177.358 274.979 179.761 273.412 182.06 271.74C187.424 267.839 192.3 263.381 195.052 257.424" stroke="#824236" stroke-width="1.8112" stroke-linecap="round" stroke-linejoin="round"/>
<path d="M136.049 295.181C141.935 293.544 147.856 291.872 153.743 290.235C155.624 289.713 157.539 289.19 159.42 288.598C163.112 287.449 166.735 286.16 170.113 284.314C170.601 284.035 171.054 283.791 171.541 283.513C176.069 280.796 180.04 276.965 182.13 272.123" stroke="#824236" stroke-width="1.8112" stroke-linecap="round" stroke-linejoin="round"/>
<path d="M148.552 196.61C149.075 198.56 149.562 200.267 150.085 201.834C152.035 207.791 154.195 211.657 157.852 218.379C161.022 224.231 164.226 230.082 167.396 235.934C167.709 236.491 168.023 237.083 168.336 237.641" stroke="#824236" stroke-width="1.8112" stroke-linecap="round" stroke-linejoin="round"/>
<path d="M146.637 135.83C146.742 139.104 150.364 142.239 153.569 141.821" stroke="#824236" stroke-width="1.8112" stroke-linecap="round" stroke-linejoin="round"/>
<path d="M131.172 156.729C130.823 157.495 130.475 158.261 130.162 159.062C129.256 161.361 128.525 163.695 127.967 166.098C127.41 168.676 127.062 171.323 126.957 173.97C126.957 174.214 126.957 174.423 126.957 174.667" stroke="#824236" stroke-width="1.8112" stroke-linecap="round" stroke-linejoin="round"/>
<path d="M73.3879 170.104C74.1194 175.886 75.1643 181.667 76.4879 187.345C76.5575 187.658 76.662 188.042 76.9058 188.25C77.1496 188.459 77.498 188.459 77.8114 188.459C81.399 188.459 84.9518 188.459 88.5393 188.494" stroke="#824236" stroke-width="1.8112" stroke-linecap="round" stroke-linejoin="round"/>
<path d="M92.0223 191.002C90.0369 193.057 88.0864 195.112 86.101 197.167C85.4044 197.899 84.7078 198.665 84.3943 199.605C83.8718 201.312 84.8123 203.088 85.7179 204.621C97.7693 225.345 105.223 242.9 112.468 265.47C112.677 266.097 112.851 266.69 113.06 267.316" stroke="#824236" stroke-width="1.8112" stroke-linecap="round" stroke-linejoin="round"/>
<path d="M136.327 300.475C136.954 314.965 136.257 352.513 132.251 367.281C132.182 367.56 132.112 367.803 132.042 368.082" stroke="#824236" stroke-width="1.8112" stroke-linecap="round" stroke-linejoin="round"/>
<path d="M159.943 293.37C160.117 310.054 159.525 347.253 156.181 363.589" stroke="#824236" stroke-width="1.8112" stroke-linecap="round" stroke-linejoin="round"/>
<path d="M172.377 283.826C176.104 304.481 166.908 346.835 171.053 364.808" stroke="#824236" stroke-width="1.8112" stroke-linecap="round" stroke-linejoin="round"/>
<path d="M175.059 25.1726C174.537 25.3467 173.945 25.4512 173.387 25.5209C172.412 25.6602 171.437 25.7995 170.636 26.3568C169.451 27.1579 169.033 28.6557 168.755 30.0837C168.581 31.0242 168.406 31.9994 168.302 32.9747C168.232 33.6016 168.163 34.2634 168.128 34.9252C168.058 36.1095 168.128 37.433 168.929 38.269C169.626 39.0004 170.775 39.1397 171.75 38.8611C172.725 38.5824 173.561 37.9555 174.328 37.2937" stroke="#824236" stroke-width="1.8112" stroke-linecap="round" stroke-linejoin="round"/>
<path d="M187.006 22.0726C185.055 21.376 181.398 20.4356 179.691 21.585C179.064 22.003 178.611 22.5951 178.159 23.222C177.636 23.9187 177.114 24.6153 176.591 25.2771C176.452 25.486 176.278 25.6602 176.138 25.8692C175.86 26.2523 175.616 26.6355 175.442 27.0883C175.163 27.8197 175.059 28.586 175.024 29.3523C174.884 31.5814 175.093 33.8454 175.581 36.0398C175.686 36.5274 175.825 37.0499 175.964 37.5375C176.208 38.3735 176.522 39.2442 177.148 39.8363C177.392 40.0802 178.054 40.2891 178.82 40.3588C179.691 40.4285 180.736 40.324 181.572 39.8015C181.885 39.5925 182.164 39.3487 182.408 39.0352" stroke="#824236" stroke-width="1.8112" stroke-linecap="round" stroke-linejoin="round"/>
<path d="M194.007 21.7591C192.439 21.3412 188.678 21.376 187.249 22.1074C187.145 22.1423 187.075 22.2119 186.971 22.2468C185.647 22.9782 184.533 23.9883 183.418 25.0332C182.652 25.7299 181.92 26.4961 181.502 27.4366C181.084 28.4118 181.05 29.4916 181.084 30.5713C181.154 32.5567 181.363 34.5421 181.746 36.4926C181.886 37.224 182.095 38.0251 182.478 38.6869C182.826 39.3487 183.348 39.8712 184.045 40.115C185.02 40.4285 186.03 40.0105 186.762 39.279C187.006 39.0352 187.249 38.7217 187.424 38.4431C187.876 37.642 188.051 36.7364 188.12 35.8308C188.155 35.378 188.19 34.9252 188.19 34.4724" stroke="#824236" stroke-width="1.8112" stroke-linecap="round" stroke-linejoin="round"/>
<path d="M198.047 22.6299C196.794 22.2816 195.365 21.9682 194.146 22.212C193.624 22.3165 193.136 22.5254 192.718 22.8738C192.161 23.3266 191.813 23.9883 191.464 24.6501C190.28 26.8445 189.096 29.0736 188.782 31.5466C188.782 31.7556 188.748 32.0343 188.887 32.2084C189.026 32.3826 189.235 32.4174 189.444 32.4522C189.444 32.4522 189.479 32.4522 189.514 32.4522C191.43 32.5916 193.38 31.8601 194.773 30.5365C194.843 30.4669 194.947 30.3624 195.017 30.2927" stroke="#824236" stroke-width="1.8112" stroke-linecap="round" stroke-linejoin="round"/>
<path d="M156.772 1.27863C156.703 1.55727 156.598 1.83592 156.529 2.11456C153.986 10.6829 152.593 19.5648 152.384 28.4815C152.279 33.3578 152.941 39.0004 157.086 41.5779C158.34 42.3442 159.733 42.7273 161.196 42.8666C162.206 42.9711 163.216 43.0059 164.226 42.9711C165.341 42.9363 166.49 42.8666 167.605 42.7273C170.078 42.4487 172.516 41.9262 174.919 41.1948" stroke="#824236" stroke-width="1.8112" stroke-linecap="round" stroke-linejoin="round"/>
<path d="M165.899 1.24377C165.899 1.24377 165.829 1.52242 165.829 1.66175C164.227 9.77733 162.973 17.9626 161.998 26.1826C161.858 27.3669 161.719 28.586 161.998 29.7354C162.241 30.8848 162.973 32.0342 164.087 32.4522C164.923 32.7657 165.864 32.6612 166.735 32.8005" stroke="#824236" stroke-width="1.8112" stroke-linecap="round" stroke-linejoin="round"/>
<path d="M187.006 39.4184C190.907 39.0004 196.271 38.1297 199.893 36.5971C200.868 36.1791 201.844 35.6915 202.819 35.0994C202.958 35.0297 203.063 34.9601 203.202 34.8904C207.416 32.2432 211.109 28.0287 210.9 22.8738C210.621 15.6986 206.406 8.27964 201.635 2.77637C201.112 2.14942 200.555 1.55729 200.032 1" stroke="#824236" stroke-width="1.8112" stroke-linecap="round" stroke-linejoin="round"/>
<path d="M197.037 28.0984C198.117 26.4962 198.744 24.5805 198.848 22.6648C198.848 22.003 198.848 21.3412 198.744 20.7143C198.465 18.7289 197.629 16.8829 196.758 15.1065C194.703 10.8571 192.369 6.71226 189.792 2.74155C189.722 2.63706 189.653 2.53256 189.583 2.42807" stroke="#824236" stroke-width="1.8112" stroke-linecap="round" stroke-linejoin="round"/>
<path d="M161.021 44.0858C160.778 45.5835 161.788 46.9767 162.658 48.1958C165.201 51.6789 167.43 55.4058 169.311 59.272C169.311 59.272 169.311 59.3417 169.346 59.3765" stroke="#824236" stroke-width="1.8112" stroke-linecap="round" stroke-linejoin="round"/>
<path d="M167.814 43.215C168.162 43.5284 168.51 43.8767 168.859 44.1902C171.227 46.4542 173.387 48.9272 175.337 51.5744C176.173 52.7238 176.974 53.908 177.741 55.1271" stroke="#824236" stroke-width="1.8112" stroke-linecap="round" stroke-linejoin="round"/>
<path d="M175.024 50.7384C175.128 50.1463 175.198 49.5193 175.268 48.9272C175.512 46.9767 175.546 44.9913 175.477 43.0408C175.477 42.9711 175.477 42.9363 175.477 42.8666" stroke="#824236" stroke-width="1.8112" stroke-linecap="round" stroke-linejoin="round"/>
<path d="M178.821 73.0998C178.821 73.0998 179.03 73.3784 179.134 73.5178C182.269 77.5581 186.727 80.5536 191.673 81.912" stroke="#824236" stroke-width="1.8112" stroke-linecap="round" stroke-linejoin="round"/>
<path d="M182.13 51.5047C187.946 54.4653 193.972 57.7046 197.664 63.1034" stroke="#824236" stroke-width="1.8112" stroke-linecap="round" stroke-linejoin="round"/>
<path d="M202.819 35.0645C203.028 35.3432 203.237 35.6566 203.411 35.9353C210.621 46.6632 212.711 60.3517 213.86 73.3088C213.86 73.5526 213.895 73.8312 213.93 74.075" stroke="#824236" stroke-width="1.8112" stroke-linecap="round" stroke-linejoin="round"/>
<path d="M195.539 85.2557C201.425 101.835 204.351 115.489 207.451 130.153C207.869 132.138 208.287 134.158 208.74 136.213" stroke="#824236" stroke-width="1.8112" stroke-linecap="round" stroke-linejoin="round"/>
<path d="M214.383 77.6975C214.731 78.3941 215.08 79.0559 215.428 79.7525C222.046 93.1624 226.365 107.443 232.042 121.201C233.052 123.639 234.097 126.078 235.212 128.481C235.386 128.829 235.525 129.177 235.7 129.561" stroke="#824236" stroke-width="1.8112" stroke-linecap="round" stroke-linejoin="round"/>
<path d="M207.242 130.048C206.824 130.362 206.476 130.675 206.128 130.989C203.759 133.079 202.819 134.925 203.376 138.408C203.864 141.508 204.351 144.608 204.874 147.707C205.501 151.643 206.128 155.579 206.824 159.48C207.626 164.078 208.287 168.71 209.054 173.343C210.203 180.414 210.482 187.902 210.203 195.252C210.168 196.61 210.099 197.968 209.994 199.327" stroke="#824236" stroke-width="1.8112" stroke-linecap="round" stroke-linejoin="round"/>
<path d="M207.939 136.248C208.322 136.562 208.67 136.875 209.054 137.119C212.258 139.383 215.602 139.348 219.816 138.826C224.518 138.268 228.942 136.074 232.739 133.253C233.853 132.417 234.968 131.441 235.664 130.292C236.082 129.595 236.326 128.829 236.361 127.993" stroke="#824236" stroke-width="1.8112" stroke-linecap="round" stroke-linejoin="round"/>
<path d="M232.564 120.922C233.052 121.131 233.505 121.34 233.957 121.549C236.848 123.012 239.321 125.207 240.575 128.202C242.038 131.685 242.561 135.482 243.048 139.209C246.148 162.162 249.283 185.081 252.383 208.034C252.592 209.462 252.766 210.891 252.592 212.319C252 216.986 247.681 220.156 243.745 222.733C239.879 225.276 226.504 228.515 222.637 231.058" stroke="#824236" stroke-width="1.8112" stroke-linecap="round" stroke-linejoin="round"/>
<path d="M145.557 188.076C145.557 188.076 145.731 188.076 145.836 188.076C152.245 188.564 160.848 191.699 166.734 194.067C174.223 197.063 182.513 198.003 190.454 196.784C195.539 195.983 204.839 195.008 209.994 195.251" stroke="#824236" stroke-width="1.8112" stroke-linecap="round" stroke-linejoin="round"/>
<path d="M124.902 225.276C129.151 224.718 137.476 222.594 141.168 219.668C141.412 219.459 141.655 219.285 141.83 219.076" stroke="#824236" stroke-width="1.8112" stroke-linecap="round" stroke-linejoin="round"/>
<path d="M40.2988 353.523C40.1943 354.498 40.0549 355.438 39.9156 356.414C39.3235 360.21 38.3482 363.937 37.0595 367.525C37.0247 367.664 36.955 367.803 36.9202 367.943" stroke="#824236" stroke-width="1.8112" stroke-linecap="round" stroke-linejoin="round"/>
<path d="M190.523 108.453C192.718 109.637 195.26 110.09 197.733 109.707" stroke="#824236" stroke-width="1.8112" stroke-linecap="round" stroke-linejoin="round"/>
<path d="M169.033 81.6682C166.56 80.5188 163.495 81.4244 161.475 83.2356C159.455 85.0468 158.236 87.5894 157.261 90.1669C154.892 96.4364 153.011 102.88 150.399 109.045C147.787 115.21 144.129 121.271 137.825 123.5" stroke="#824236" stroke-width="1.8112" stroke-linecap="round" stroke-linejoin="round"/>
<path d="M108.184 111.17C108.567 112.563 109.229 113.817 110.239 114.723C110.378 114.862 110.518 114.966 110.692 115.106" stroke="#824236" stroke-width="1.8112" stroke-linecap="round" stroke-linejoin="round"/>
<path d="M150.921 87.2411C148.622 89.3309 146.079 91.0377 143.397 92.5354C135.769 96.7499 126.922 99.0836 118.737 102.462C114.871 104.064 111.039 105.945 108.114 108.941C108.009 109.045 107.905 109.15 107.8 109.254C104.84 112.424 103.098 116.987 104.282 121.166" stroke="#824236" stroke-width="1.8112" stroke-linecap="round" stroke-linejoin="round"/>
<path d="M87.2504 128.655C87.0065 128.759 86.7279 128.864 86.4841 128.968C85.056 129.561 83.4886 130.118 81.8864 130.745C77.637 132.347 73.2484 134.263 71.5068 137.746" stroke="#824236" stroke-width="1.8112" stroke-linecap="round" stroke-linejoin="round"/>
<path d="M143.955 48.0565C143.955 48.0565 143.99 48.0565 144.025 48.0565C153.534 47.4295 163.46 54.9878 170.879 63.3472C173.805 66.6561 176.313 70.0695 178.263 73.1347C178.925 74.1796 179.517 75.1897 180.04 76.1301C189.618 93.5803 188.573 114.932 177.706 131.546C173.561 137.885 164.401 145.827 168.197 154.221C168.232 154.325 168.302 154.395 168.337 154.499" stroke="#824236" stroke-width="1.8112" stroke-linecap="round" stroke-linejoin="round"/>
<path d="M90.2801 124.092C90.2801 124.092 90.2801 123.953 90.315 123.883C91.9868 115.28 87.7375 106.677 88.3992 98.0039C90.2104 73.4481 108.044 41.8566 137.023 47.6036" stroke="#824236" stroke-width="1.8112" stroke-linecap="round" stroke-linejoin="round"/>
<path d="M113.199 105.771C114.174 106.433 114.976 107.304 115.533 108.349" stroke="#824236" stroke-width="1.8112" stroke-linecap="round" stroke-linejoin="round"/>
<path d="M83.5229 134.75C81.3285 135.935 79.0297 137.223 77.7061 139.348C77.6713 139.418 77.6016 139.487 77.5668 139.557C76.6264 141.159 76.3477 143.075 76.3477 144.956C76.2781 148.718 77.323 152.758 80.005 155.231C80.3881 155.614 80.8409 155.928 81.2937 156.206" stroke="#824236" stroke-width="1.8112" stroke-linecap="round" stroke-linejoin="round"/>
<path d="M143.572 109.219C139.323 116.395 132.043 121.758 123.927 123.674" stroke="#824236" stroke-width="1.8112" stroke-linecap="round" stroke-linejoin="round"/>
<path d="M127.236 178.463C127.306 179.09 127.375 179.717 127.445 180.344" stroke="#824236" stroke-width="1.8112" stroke-linecap="round" stroke-linejoin="round"/>
</svg>
