<svg width="390" height="386" viewBox="0 0 390 386" fill="none" xmlns="http://www.w3.org/2000/svg">
<path d="M140.891 62.2911L198.414 84.9033" stroke="#BFB9A6" stroke-width="0.63518" stroke-linecap="round" stroke-linejoin="round"/>
<path d="M57.6663 29.5763L135.215 60.0597" stroke="#BFB9A6" stroke-width="0.63518" stroke-linecap="round" stroke-linejoin="round"/>
<path d="M1 7.30151L49.8812 26.5165" stroke="#BFB9A6" stroke-width="0.63518" stroke-linecap="round" stroke-linejoin="round"/>
<path d="M142.37 56.705L199.003 79.0214" stroke="#BFB9A6" stroke-width="0.63518" stroke-linecap="round" stroke-linejoin="round"/>
<path d="M58.9607 23.84L135.698 54.0775" stroke="#BFB9A6" stroke-width="0.63518" stroke-linecap="round" stroke-linejoin="round"/>
<path d="M1 1L49.7376 20.2054" stroke="#BFB9A6" stroke-width="0.63518" stroke-linecap="round" stroke-linejoin="round"/>
<path d="M46.4858 28.9396C46.6986 30.8718 47.5668 32.7262 48.9127 34.1285" stroke="#BFB9A6" stroke-width="0.63518" stroke-linecap="round" stroke-linejoin="round"/>
<path d="M49.2214 37.4901C49.1501 42.1396 49.0789 46.7901 49.0076 51.4396" stroke="#BFB9A6" stroke-width="0.63518" stroke-linecap="round" stroke-linejoin="round"/>
<path d="M46.2742 54.3386C41.696 61.9012 38.0679 70.0383 35.5006 78.4978C34.6803 81.2002 34.1504 84.5974 36.2836 86.4477C37.4199 87.4329 39.0106 87.6584 40.5075 87.8021C43.8718 88.1255 47.2551 88.2436 50.6332 88.1574C53.8719 88.0744 57.2052 87.7755 60.0875 86.2934C61.926 85.3497 62.9729 84.9507 63.0399 82.4695C63.1623 77.952 61.626 72.446 59.946 68.3072C57.9457 63.3822 55.488 57.3411 52.7175 52.8044" stroke="#BFB9A6" stroke-width="0.63518" stroke-linecap="round" stroke-linejoin="round"/>
<path d="M49.8728 60.1021C52.5763 62.912 54.3435 66.5241 55.3958 70.2777C56.448 74.0313 57.512 78.1329 57.6982 82.028" stroke="#BFB9A6" stroke-width="0.63518" stroke-linecap="round" stroke-linejoin="round"/>
<path d="M45.8262 63.3453C43.4919 68.6513 41.5257 74.1179 39.9457 79.6951C39.6223 80.8389 39.3446 82.172 40.0468 83.1295C40.6501 83.952 41.7609 84.1861 42.7716 84.3265C46.1475 84.7957 50.6981 83.8445 54.0985 83.603" stroke="#BFB9A6" stroke-width="0.63518" stroke-linecap="round" stroke-linejoin="round"/>
<path d="M52.772 49.8605C52.7496 44.9365 52.7262 40.0115 52.7039 35.0875C52.7028 34.7492 52.7039 34.3949 52.8645 34.098C53.0337 33.7852 53.3497 33.5852 53.6402 33.3799C56.0787 31.6584 58.0343 27.3196 57.7226 24.3501C57.4108 21.3806 53.3167 16.113 48.9258 18.8229" stroke="#BFB9A6" stroke-width="0.63518" stroke-linecap="round" stroke-linejoin="round"/>
<path d="M50.8257 20.4232C51.5769 21.4063 52.262 22.6266 52.0886 24.8907C51.9758 26.3579 51.7577 28.0092 50.4629 28.7071" stroke="#BFB9A6" stroke-width="0.63518" stroke-linecap="round" stroke-linejoin="round"/>
<path d="M133.557 59.367C133.173 61.8003 134.212 62.9217 135.195 63.9452" stroke="#BFB9A6" stroke-width="0.63518" stroke-linecap="round" stroke-linejoin="round"/>
<path d="M135.286 65.1946C135.233 68.5886 135.315 73.1849 135.263 76.5778" stroke="#BFB9A6" stroke-width="0.63518" stroke-linecap="round" stroke-linejoin="round"/>
<path d="M134.477 78.3383C131.136 83.8581 127.983 90.296 126.11 96.4702C125.511 98.4427 125.125 100.922 126.683 102.272C127.511 102.991 128.673 103.156 129.765 103.26C132.219 103.497 134.689 103.583 137.156 103.52C140.202 103.442 146.475 103.783 146.209 99.9812C145.665 92.1782 140.058 76.9041 138.676 77.718" stroke="#BFB9A6" stroke-width="0.63518" stroke-linecap="round" stroke-linejoin="round"/>
<path d="M137.028 82.8025C139.101 82.9621 139.862 87.7307 140.629 90.4715C141.397 93.2111 142.631 97.019 142.767 99.8619" stroke="#BFB9A6" stroke-width="0.63518" stroke-linecap="round" stroke-linejoin="round"/>
<path d="M133.645 85.41C131.942 89.2818 130.506 93.2727 129.353 97.3423C129.117 98.1764 128.915 99.1499 129.428 99.849C129.868 100.45 130.679 100.62 131.416 100.722C133.88 101.065 138.303 100.816 140.695 100.816" stroke="#BFB9A6" stroke-width="0.63518" stroke-linecap="round" stroke-linejoin="round"/>
<path d="M138.011 75.4248C137.994 71.8308 137.978 68.2367 137.961 64.6427C137.96 64.3959 137.961 64.1373 138.079 63.9203C138.202 63.6915 138.432 63.5458 138.645 63.3958C140.425 62.1392 141.561 58.9835 141.624 56.8056C141.725 53.2861 137.763 51.605 135.204 52.7711" stroke="#BFB9A6" stroke-width="0.63518" stroke-linecap="round" stroke-linejoin="round"/>
<path d="M136.59 53.9409C137.139 54.658 137.639 55.5485 137.512 57.2019C137.43 58.2723 136.294 60.5864 135.349 61.096" stroke="#BFB9A6" stroke-width="0.63518" stroke-linecap="round" stroke-linejoin="round"/>
<path d="M61.5059 58.4924C85.6033 65.9635 104.228 73.0324 123.719 80.0811" stroke="#BFB9A6" stroke-width="0.63518" stroke-linecap="round" stroke-linejoin="round"/>
<path d="M150.89 88.8206C158.105 91.4177 182.178 99.7271 191.355 102.55" stroke="#BFB9A6" stroke-width="0.63518" stroke-linecap="round" stroke-linejoin="round"/>
<path d="M11.2512 42.9895C20.0448 47.3006 30.3683 50.3574 39.7226 53.2588" stroke="#BFB9A6" stroke-width="0.63518" stroke-linecap="round" stroke-linejoin="round"/>
<path d="M43.6333 96.7585V239.826" stroke="#BFB9A6" stroke-width="0.63518" stroke-linecap="round" stroke-linejoin="round"/>
<path d="M33.3108 94.1974C33.3108 138.65 32.3926 193.328 32.3926 237.782" stroke="#BFB9A6" stroke-width="0.63518" stroke-linecap="round" stroke-linejoin="round"/>
<path d="M132.54 113.62V224.498" stroke="#BFB9A6" stroke-width="0.63518" stroke-linecap="round" stroke-linejoin="round"/>
<path d="M140.204 112.087V186.175" stroke="#BFB9A6" stroke-width="0.63518" stroke-linecap="round" stroke-linejoin="round"/>
<path d="M130.044 10.6861C158.212 25.2782 181.401 36.837 203.491 48.3447" stroke="#BFB9A6" stroke-width="0.63518" stroke-linecap="round" stroke-linejoin="round"/>
<path d="M315.82 38.9199C329.853 54.7622 354.58 83.6304 367.619 100.299" stroke="#BFB9A6" stroke-width="0.63518" stroke-linecap="round" stroke-linejoin="round"/>
<path d="M346.917 82.4547C346.481 84.3517 346.318 86.3115 346.435 88.2543" stroke="#BFB9A6" stroke-width="0.63518" stroke-linecap="round" stroke-linejoin="round"/>
<path d="M348.336 91.5845C348.265 93.8433 349.574 95.9063 351.007 97.6533C352.441 99.4014 354.082 101.057 354.902 103.164C355.721 105.27 355.437 108.031 353.56 109.291C352.677 109.883 351.584 110.059 350.526 110.17C348.202 110.414 345.853 110.424 343.527 110.197" stroke="#BFB9A6" stroke-width="0.63518" stroke-linecap="round" stroke-linejoin="round"/>
<path d="M325.497 59.2061C326.11 63.3289 326.065 67.5496 325.363 71.6586" stroke="#BFB9A6" stroke-width="0.63518" stroke-linecap="round" stroke-linejoin="round"/>
<path d="M326.731 77.0858C327.329 81.1139 329.439 84.7282 331.22 88.3903C333.001 92.0525 334.516 96.1093 333.803 100.119C333.715 100.618 333.043 101.186 332.86 100.714" stroke="#BFB9A6" stroke-width="0.63518" stroke-linecap="round" stroke-linejoin="round"/>
<path d="M341.917 92.4385C340.519 94.6452 339.12 96.8508 337.722 99.0574" stroke="#BFB9A6" stroke-width="0.63518" stroke-linecap="round" stroke-linejoin="round"/>
<path d="M389.216 132.696V166.338" stroke="#BFB9A6" stroke-width="0.63518" stroke-linecap="round" stroke-linejoin="round"/>
<path d="M364.131 114.647C365.542 117.743 366.88 118.747 366.085 120.976C365.29 123.205 361.26 122.444 358.897 122.312" stroke="#BFB9A6" stroke-width="0.63518" stroke-linecap="round" stroke-linejoin="round"/>
<path d="M362.635 103.622V109.437" stroke="#BFB9A6" stroke-width="0.63518" stroke-linecap="round" stroke-linejoin="round"/>
<path d="M368.458 127.747C373.003 126.667 377.885 127.061 382.198 128.856" stroke="#BFB9A6" stroke-width="0.63518" stroke-linecap="round" stroke-linejoin="round"/>
<path d="M164.521 8.33432C179.583 16.6172 205.898 31.7083 220.576 40.6551" stroke="#BFB9A6" stroke-width="0.63518" stroke-linecap="round" stroke-linejoin="round"/>
<path d="M225.131 141.106L224.159 143.423C224.085 143.597 222.042 144.893 221.892 145.017L216.262 150.199C216.113 150.323 215.988 150.498 215.914 150.697L213.995 155.879C213.771 156.925 214.12 157.996 214.892 158.719L217.956 161.334L219.8 154.658L219.451 162.082C219.451 162.43 219.601 162.729 219.875 162.954L223.312 165.868L222.565 159.964C222.565 159.815 222.565 159.665 222.59 159.516L223.487 156.128C223.487 156.128 223.487 156.078 223.487 156.053L224.284 153.686L227.747 151.046L229.615 149.601C230.113 149.227 230.213 148.505 229.864 147.982L225.106 141.106H225.131Z" fill="#F4C3AB"/>
<path d="M265.987 137.792L266.086 137.842C268.752 133.881 268.278 128.824 267.132 124.19C265.987 119.557 264.317 115.023 262.997 110.439C262.449 108.571 262.05 106.578 262.449 104.684C262.848 102.766 264.193 100.948 266.111 100.549L266.31 100.798C266.858 100.35 267.506 99.9761 268.179 99.7519C268.602 99.6024 269.051 99.4779 269.499 99.5028C269.923 99.5028 270.321 99.6522 270.72 99.8017C272.19 100.3 273.734 100.848 274.731 102.019C276.997 104.037 278.941 107.749 280.062 110.838C281.257 112.407 281.581 114.5 282.354 116.318C282.852 117.514 283.549 118.61 284.122 119.806C285.443 122.571 285.916 125.66 286.389 128.699H286.364C286.464 129.073 286.564 129.472 286.663 129.845C286.887 130.692 287.087 131.564 287.336 132.386C288.98 138.29 286.838 149.426 282.877 154.084C281.233 156.028 278.766 157.074 276.225 157.348C276.549 158.718 268.004 156.501 266.833 157.697C266.833 157.697 260.082 168.633 262.698 181.288C263.794 182.608 265.364 185.199 264.915 186.395C264.043 189.658 280.311 211.855 278.094 213.997L262.723 218.456C257.516 208.517 256.346 206.05 251.911 198.477C248.748 193.022 247.253 189.31 242.769 183.954C239.107 172.345 238.658 164.373 238.658 164.373C238.185 161.384 247.95 153.262 245.883 151.045C245.11 150.223 243.865 148.629 243.865 148.629C242.918 148.529 243.242 142.824 242.993 142.451C242.943 142.401 242.918 142.301 242.943 142.226H242.843C243.242 139.262 244.612 136.522 246.157 133.956C249.395 128.55 253.481 123.418 256.047 117.738H256.072C258.787 125.012 259.534 132.984 258.289 140.632C258.04 142.077 257.716 143.547 257.043 144.842C257.467 144.568 257.865 144.269 258.264 143.97L258.214 143.92C262.05 139.337 263.919 133.183 263.296 127.23C263.446 125.336 263.221 123.443 262.798 121.575C263.57 123.044 264.317 124.539 264.99 126.034C265.937 128.176 266.759 130.418 266.933 132.76C267.058 134.479 266.809 136.273 266.061 137.817L265.987 137.792ZM282.528 123.119C282.528 122.92 282.304 122.023 282.055 122.148C282.055 122.148 282.005 122.172 282.005 122.197C281.781 122.496 282.055 123.717 282.304 123.866C282.628 124.041 282.553 123.318 282.528 123.119ZM270.869 124.116C270.869 124.116 270.77 123.916 270.67 123.842C270.346 123.642 270.122 123.742 270.022 123.966C269.972 124.066 269.923 124.215 269.923 124.39C269.898 125.062 269.873 125.76 270.197 126.383C270.246 126.482 270.296 126.582 270.396 126.657C270.844 126.956 271.143 126.208 271.193 125.909C271.243 125.336 271.118 124.664 270.894 124.14L270.869 124.116Z" fill="#FFD9D7"/>
<path d="M322.635 154.707H322.735C322.759 154.906 322.809 155.13 322.834 155.355C325.126 156.974 327.518 156.949 330.532 156.575C333.895 156.177 337.059 154.607 339.774 152.589C340.571 151.992 341.369 151.294 341.867 150.472C341.767 150.048 341.668 149.625 341.543 149.201C340.746 147.483 339.998 145.739 339.276 143.995C339.749 144.045 340.198 144.144 340.671 144.244C342.739 145.29 344.507 146.86 345.404 149.002C346.451 151.493 346.824 154.209 347.173 156.874C349.39 173.291 351.632 189.683 353.849 206.1C353.999 207.121 354.123 208.143 353.999 209.164C353.575 212.502 350.486 214.769 347.671 216.613C344.906 218.431 335.34 220.748 332.575 222.567C332.575 222.567 332.625 222.143 332.724 222.019C332.998 221.695 325.525 226.104 322.51 226.179C315.709 226.353 309.681 229.965 304.001 233.702C300.862 235.745 291.022 235.67 287.883 237.738C287.684 235.446 294.061 228.122 292.94 226.129L293.04 226.079C290.773 221.894 288.481 217.709 286.214 213.524C283.598 208.716 282.054 205.95 280.659 201.691H280.733C280.135 198.278 279.089 194.989 277.619 191.875C282.203 192.224 288.356 194.466 292.566 196.16C297.922 198.303 303.851 198.975 309.531 198.103C313.168 197.53 319.82 196.833 323.507 197.007H323.631C323.806 191.751 323.631 186.42 322.809 181.338C322.261 178.024 321.788 174.711 321.215 171.423C320.717 168.608 320.268 165.818 319.82 163.003C319.471 160.785 319.122 158.568 318.749 156.351C318.35 153.835 319.048 152.54 320.717 151.045L320.767 151.095C321.065 150.871 321.364 150.646 321.663 150.447C321.962 151.867 322.261 153.312 322.585 154.782L322.635 154.707Z" fill="#EFEDED"/>
<path d="M307.913 82.8869C307.863 83.5346 307.713 84.1823 307.414 84.7553C307.29 84.9795 307.14 85.1788 306.941 85.3531C306.418 85.8514 305.67 86.1503 304.998 85.951C304.475 85.8015 304.126 85.403 303.877 84.9296C303.628 84.4563 303.453 83.8833 303.354 83.3602C303.08 81.9651 302.93 80.5452 302.88 79.1252C302.88 78.3529 302.88 77.5807 303.179 76.8831C303.478 76.2105 304.026 75.6625 304.549 75.1642C305.322 74.4169 306.144 73.6944 307.09 73.1713C307.165 73.1464 307.215 73.0965 307.29 73.0716C308.311 72.5485 311.002 72.5236 312.123 72.8225L312.197 73.1464C311.824 73.2211 311.475 73.3706 311.176 73.6197C310.777 73.9435 310.528 74.4169 310.279 74.8902C309.432 76.4596 308.585 78.054 308.361 79.8227C308.361 79.9722 308.336 80.1715 308.436 80.296C308.535 80.4206 308.685 80.4455 308.834 80.4704C308.635 81.2925 308.336 82.1146 307.937 82.862L307.913 82.8869Z" fill="#FCF7F2"/>
<path d="M313.991 77.3302C313.692 78.0526 313.243 78.7003 312.695 79.2235L312.596 79.1238C311.599 80.0705 310.204 80.5936 308.834 80.494C308.834 80.494 308.809 80.494 308.784 80.494C308.635 80.494 308.485 80.4442 308.386 80.3196C308.286 80.195 308.286 80.0207 308.311 79.8463C308.535 78.0775 309.407 76.4832 310.229 74.9138C310.478 74.4653 310.727 73.992 311.126 73.6433C311.425 73.3941 311.774 73.2447 312.147 73.1699C313.019 72.9955 314.041 73.2198 314.937 73.4689H315.51C315.436 74.8888 314.987 76.2341 314.215 77.38L313.966 77.3053L313.991 77.3302Z" fill="#FFF8F5"/>
<path d="M312.696 79.2239C313.244 78.7008 313.693 78.0282 313.992 77.3306L314.241 77.4054C315.013 76.2594 315.461 74.8893 315.536 73.5191C315.536 73.0458 315.536 72.5725 315.461 72.1241C315.262 70.7041 314.664 69.3838 314.042 68.1133C312.572 65.074 310.903 62.1095 309.059 59.2696H317.504C320.917 63.2057 323.907 68.5119 324.131 73.6437C324.28 77.3306 321.64 80.3449 318.625 82.2382C318.526 82.2881 318.451 82.3379 318.351 82.3877C317.654 82.8112 316.956 83.16 316.259 83.4589C313.668 84.555 309.831 85.1778 307.041 85.4768L306.917 85.3771C307.091 85.2027 307.266 84.9785 307.39 84.7792C307.714 84.2063 307.839 83.5586 307.888 82.9109C308.287 82.1386 308.561 81.3414 308.785 80.5193C308.785 80.5193 308.81 80.5193 308.835 80.5193C310.205 80.619 311.6 80.0958 312.597 79.1492L312.696 79.2488V79.2239Z" fill="#FFE780"/>
<path d="M299.268 75.8124C299.368 75.6629 299.467 75.5135 299.592 75.3889C299.966 74.8907 300.339 74.3924 300.713 73.9191C301.037 73.4956 301.361 73.0472 301.809 72.7482C303.055 71.9262 305.646 72.6237 307.041 73.097V73.2216C306.119 73.7447 305.297 74.4672 304.525 75.2145C303.976 75.7127 303.453 76.2608 303.154 76.9334C302.855 77.6309 302.831 78.4032 302.855 79.1755C302.905 80.5955 303.055 82.0154 303.329 83.4105C303.428 83.9336 303.578 84.5066 303.852 84.9799L303.727 85.1045C303.528 85.3536 303.354 85.6027 303.154 85.8269C302.557 86.2006 301.809 86.2753 301.186 86.2255C300.638 86.1757 300.165 86.0262 299.991 85.8518C299.542 85.4283 299.318 84.8055 299.144 84.2077C299.044 83.8589 298.944 83.4852 298.87 83.1365C298.521 81.567 298.371 79.9477 298.471 78.3534C298.496 77.8053 298.571 77.2324 298.77 76.7341C298.894 76.4352 299.069 76.1362 299.268 75.8622V75.8124Z" fill="#FCF7F2"/>
<path d="M322.735 154.707H322.635C322.311 153.262 322.012 151.817 321.713 150.397C319.496 139.934 317.404 130.169 313.193 118.286L313.393 117.987C312.67 117.016 311.574 116.268 310.403 116.119V115.895C306.891 114.923 303.702 112.781 301.46 109.891C301.261 109.791 301.061 109.716 300.837 109.642C299.442 107.425 297.624 104.983 295.556 102.642C295.033 101.745 294.684 100.748 294.46 99.7269C293.115 96.9617 291.52 94.2961 289.702 91.8049C289.054 90.933 288.356 89.9365 288.531 88.8653H288.63C288.606 88.5664 288.606 88.2675 288.63 87.9685C289.353 88.0432 290.075 88.0682 290.798 88.0432C291.595 88.0183 292.417 87.9685 293.214 87.8689C293.513 88.2425 293.812 88.6162 294.161 88.9401C295.855 90.5842 297.399 92.353 298.794 94.2463C298.72 93.6235 298.695 93.0007 298.794 92.3779C298.969 90.9828 298.994 89.5629 298.944 88.1678C298.919 87.844 298.894 87.5201 298.894 87.1962C299.691 87.0468 300.488 86.8724 301.286 86.7229V86.2745C301.933 86.3243 302.681 86.2496 303.279 85.8759C303.478 85.6268 303.652 85.3777 303.852 85.1535L303.976 85.0289C304.225 85.5022 304.599 85.8759 305.097 86.0503C305.795 86.2745 306.517 85.9756 307.04 85.4524L307.165 85.5521C309.955 85.2531 313.791 84.6303 316.382 83.5342C317.08 83.2353 317.777 82.8865 318.475 82.463C318.624 82.6623 318.774 82.8865 318.898 83.0858C324.055 90.7586 325.55 100.549 326.372 109.816C326.745 111.361 327.119 112.88 327.468 114.4C332.201 123.991 335.29 134.205 339.351 144.045C340.073 145.789 340.821 147.533 341.618 149.251C341.742 149.675 341.842 150.098 341.942 150.522C341.443 151.344 340.646 152.066 339.849 152.639C337.109 154.657 333.97 156.202 330.607 156.625C327.592 156.999 325.201 157.024 322.909 155.405C322.884 155.18 322.834 154.956 322.809 154.732L322.735 154.707Z" fill="#FCF7F2"/>
<path d="M298.795 86.7222H298.397C296.703 87.2454 294.934 87.5941 293.165 87.8183C292.368 87.918 291.546 87.9678 290.749 87.9927C290.026 87.9927 289.304 87.9927 288.581 87.918C287.535 87.7934 286.539 87.5443 285.642 86.9963C282.677 85.1777 282.204 81.1171 282.279 77.6294C282.428 71.252 283.449 64.8995 285.243 58.7712H285.542C287.66 58.6716 289.777 58.5719 291.895 58.4723C290.749 64.2767 289.852 70.131 289.154 76.0102C289.055 76.8572 288.955 77.7291 289.154 78.5512C289.329 79.3733 289.852 80.1953 290.649 80.4943C291.247 80.7185 291.919 80.6438 292.542 80.7434V80.6687C292.916 80.7932 293.315 80.868 293.688 80.868C293.638 81.3164 293.589 81.7897 293.564 82.263C293.514 83.11 293.564 84.0567 294.137 84.6545C294.635 85.1777 295.457 85.2773 296.154 85.078C296.852 84.8788 297.45 84.4303 297.998 83.957L298.297 84.0318C298.446 83.7079 298.621 83.409 298.845 83.11C298.92 83.4588 299.019 83.8325 299.119 84.1812C299.293 84.7791 299.518 85.4019 299.966 85.8254C300.14 85.9998 300.614 86.1493 301.162 86.1991V86.6475C300.34 86.797 299.542 86.9713 298.745 87.1208C298.745 86.9963 298.745 86.8468 298.745 86.7222H298.795Z" fill="#FFE780"/>
<path d="M297.374 75.8112H299.268C299.068 76.0852 298.894 76.3593 298.769 76.6831C298.57 77.2063 298.495 77.7543 298.47 78.3024C298.371 79.8967 298.52 81.516 298.869 83.0854C298.645 83.3595 298.47 83.6833 298.321 84.0072L298.022 83.9324C297.474 84.4058 296.876 84.8542 296.179 85.0535C295.481 85.2528 294.659 85.1531 294.161 84.63C293.563 84.0321 293.538 83.0854 293.588 82.2384C293.613 81.7651 293.662 81.3167 293.712 80.8434C293.787 80.1459 293.887 79.4732 294.036 78.7757C294.235 77.7792 294.534 76.708 295.381 76.1101C295.954 75.7116 296.652 75.6368 297.349 75.5123V75.7614L297.374 75.8112Z" fill="#FCF7F2"/>
<path d="M285.069 317.331H285.044C287.435 305.647 287.859 279.042 287.734 267.109H287.859C287.734 265.988 287.585 264.867 287.411 263.771V263.696C290.026 262.874 292.617 261.952 295.058 260.632C295.407 260.432 295.731 260.258 296.08 260.059L296.653 260.283C299.318 275.056 292.742 305.348 295.706 318.203H295.856C295.806 318.751 295.756 319.299 295.706 319.847H293.913V319.947C290.699 319.947 287.535 319.947 284.421 319.947C284.67 319.075 284.919 318.203 285.119 317.306L285.069 317.331Z" fill="#EFEDED"/>
<path d="M285.317 226.502C286.015 228.371 287.011 230.588 287.435 232.531C288.456 233.951 287.559 263.646 287.335 263.72C285.691 264.244 283.748 266.112 281.904 266.486C278.89 267.108 272.313 268.329 269.498 268.902C267.979 269.226 265.787 259.485 264.915 260.781C264.815 260.93 269.175 239.93 269.075 240.079C268.95 238.734 268.676 237.414 268.327 236.118H268.452C266.883 229.84 264.74 224.061 262.224 218.53L262.673 218.431C265.712 218.032 271.666 216.513 274.306 214.42C275.402 213.747 276.449 213.025 277.495 212.278C280.111 216.936 282.776 221.62 285.317 226.502Z" fill="#95C6D1"/>
<path d="M263.295 127.405C263.918 133.334 262.024 139.512 258.188 144.071L258.238 144.121C257.839 144.42 257.44 144.719 257.017 144.993C257.69 143.697 258.013 142.227 258.263 140.782C259.533 133.135 258.786 125.163 256.07 117.889H256.045C256.942 115.871 257.665 113.803 258.113 111.611H258.238C259.309 115.123 261.078 118.412 262.772 121.725C263.195 123.593 263.419 125.487 263.27 127.38L263.295 127.405Z" fill="#F4C3AB"/>
<path d="M262.649 181.262C261.403 179.269 261.577 176.205 261.976 174.362C262.051 174.486 265.015 176.33 265.09 176.454L265.189 176.405C269.599 180.092 274.033 185.398 276.699 190.604L276.923 190.48C277.147 190.928 277.396 191.377 277.596 191.85C279.065 194.964 280.112 198.252 280.71 201.64H280.635C282.03 205.925 283.574 208.69 286.19 213.498C288.457 217.683 290.749 221.869 293.016 226.054L292.916 226.104C294.037 228.096 294.735 230.339 294.934 232.63C294.984 233.453 295.059 234.673 295.133 235.595C295.158 235.969 296.827 261.179 296.728 261.229L287.361 263.77C286.514 262.35 288.656 232.556 287.037 232.232C286.788 232.107 286.016 228.371 285.318 226.477C282.777 221.595 280.112 216.911 277.496 212.253C272.538 203.459 267.78 194.765 264.318 184.949C264.218 183.878 263.346 182.408 262.624 181.262H262.649Z" fill="#EFEDED"/>
<path d="M202.012 309.634C207.742 308.563 213.322 306.67 218.778 304.727C222.888 303.257 240.327 299.919 239.903 294.812L239.131 289.73C239.131 289.356 239.081 289.007 239.081 288.634C248.323 282.505 260.829 275.929 268.402 269.252L268.327 269.103C268.9 268.829 269.473 268.58 270.046 268.356C270.271 269.626 270.42 270.921 270.42 272.217H270.844C271.292 282.58 270.794 309.435 267.929 319.998C245.259 320.047 223.785 320.147 199.82 320.147C200.742 317.581 201.439 314.916 201.863 312.2C201.962 311.353 201.987 310.481 202.012 309.634Z" fill="#EFEDED"/>
<path d="M270.645 268.431C274.855 267.26 279.09 266.064 283.3 264.893C284.646 264.52 286.016 264.146 287.361 263.722V263.797C287.535 264.893 287.685 266.014 287.834 267.135H287.71C287.834 279.068 287.411 305.674 285.019 317.357H285.044C284.845 318.254 284.596 319.126 284.347 319.998C278.767 319.998 273.311 319.998 267.93 320.023C270.77 309.46 271.268 282.606 270.845 272.242H270.421C270.421 270.947 270.272 269.651 270.047 268.381C270.222 268.306 270.371 268.256 270.546 268.182L270.645 268.456V268.431Z" fill="#95C6D1"/>
<path d="M190.528 298.848C187.788 294.539 186.169 292.247 186.493 287.588C186.966 280.439 183.952 274.834 184.699 267.709C187.091 245.512 181.261 223.316 190.653 202.814C193.593 196.411 196.981 187.443 202.71 183.009C205.077 181.165 207.967 180.219 210.832 179.421C214.145 178.475 217.508 177.678 220.896 177.03C221.245 177.179 221.668 177.08 222.042 176.955C222.291 176.88 222.54 176.781 222.789 176.681C224.184 176.133 225.505 175.411 226.725 174.564L226.675 174.489C228.12 173.094 229.989 171.35 231.807 169.681C233.152 168.435 234.473 167.215 235.519 166.168C236.291 165.421 238.832 163.677 240.701 165.571C240.651 165.62 240.601 165.67 240.551 165.72C240.576 165.72 240.601 165.77 240.626 165.795C239.829 166.343 239.131 167.015 238.583 167.763C238.982 174.738 242.395 182.56 245.808 188.564C251.413 198.404 257.491 207.97 262.274 218.508C264.79 224.038 266.933 229.818 268.502 236.071H268.378C268.751 237.391 269 238.736 269.125 240.057C266.36 244.167 263.595 248.253 260.829 252.363L260.904 252.413C260.281 253.21 259.659 253.982 258.986 254.755C258.039 255.303 257.118 255.876 256.171 256.424C254.9 257.196 264.093 258.018 265.114 259.114C270.072 264.57 272.413 266.638 267.257 272.168C266.709 272.766 250.541 292.994 250.541 292.994C250.939 298.101 222.939 303.233 218.828 304.678C213.373 306.621 203.084 315.315 202.063 309.585C201.664 307.343 200.319 307.393 197.554 305.724C194.564 303.906 190.578 298.824 190.578 298.824L190.528 298.848Z" fill="#EFEDED"/>
<path d="M267.829 91.906C268.651 92.2298 269.423 92.5537 270.146 92.8775C283.1 98.8065 291.595 111.512 292.467 125.686C292.791 131.092 290.922 139.562 296.702 142.751L296.552 143.174C295.381 142.925 294.285 142.327 293.364 141.53C292.018 140.409 291.022 138.939 290.1 137.445C289.203 136 288.331 134.53 287.534 133.035H287.509C287.459 132.886 287.41 132.736 287.36 132.587C287.111 131.74 286.911 130.893 286.687 130.021C286.588 129.647 286.488 129.274 286.413 128.9H286.438C285.99 125.861 285.491 122.772 284.196 120.006C283.648 118.836 282.95 117.715 282.427 116.519C281.655 114.675 281.331 112.608 280.135 111.038C279.014 107.924 277.096 104.237 274.804 102.195C273.808 101.024 272.263 100.476 270.793 99.9774C270.395 99.8528 269.996 99.7034 269.573 99.6784C269.124 99.6784 268.676 99.7781 268.252 99.9276C267.58 100.177 266.932 100.525 266.384 100.974L266.185 100.725C264.291 101.123 262.921 102.942 262.523 104.86C262.124 106.778 262.523 108.746 263.071 110.615C264.391 115.198 266.06 119.732 267.206 124.391C268.352 129.025 268.825 134.082 266.16 138.043L266.06 137.993C266.808 136.448 267.057 134.655 266.932 132.961C266.758 130.619 265.961 128.377 264.989 126.234C264.316 124.715 263.569 123.245 262.822 121.775C261.128 118.462 259.359 115.174 258.288 111.636H258.163C257.74 113.853 257.017 115.921 256.096 117.914C253.53 123.594 249.444 128.701 246.181 134.131C244.636 136.697 243.241 139.438 242.867 142.377H242.967C242.967 142.377 242.967 142.552 243.017 142.626C243.266 143 242.618 145.466 242.917 145.79L243.864 148.605C244.686 149.228 244.686 150.274 245.657 150.374L245.882 151.022C246.779 151.719 245.707 150.698 246.48 151.545C248.547 153.737 243.316 163.004 238.657 164.349C238.657 164.349 239.305 159.367 239.056 158.62C239.056 158.62 239.056 158.595 239.056 158.57C236.34 152.915 230.237 149.801 226.899 144.545C217.457 129.697 214.194 103.938 233.301 94.8705H233.326C234.522 93.7245 235.942 92.8028 237.486 92.1551C242.668 87.7208 251.611 87.8205 259.434 89.4646C262.523 90.1123 265.413 90.9842 267.854 91.9309L267.829 91.906Z" fill="#F4C3AB"/>
<path d="M240.725 165.643C240.725 165.643 240.675 165.593 240.65 165.568C238.807 163.65 236.241 165.394 235.468 166.166C234.397 167.212 233.102 168.433 231.757 169.678C229.938 171.347 228.07 173.091 226.625 174.486" stroke="#824236" stroke-width="1.19758" stroke-linecap="round" stroke-linejoin="round"/>
<path d="M270.047 124.192C270.171 123.968 270.37 123.868 270.694 124.068C270.794 124.117 270.844 124.242 270.894 124.342C271.118 124.865 271.267 125.537 271.193 126.11C271.168 126.434 270.844 127.157 270.395 126.858C270.296 126.808 270.246 126.683 270.196 126.584C269.872 125.961 269.872 125.263 269.922 124.591C269.922 124.441 269.972 124.292 270.022 124.167L270.047 124.192Z" stroke="#824236" stroke-width="1.19758" stroke-linecap="round" stroke-linejoin="round"/>
<path d="M282.029 122.421C282.029 122.421 282.054 122.371 282.079 122.371C282.328 122.246 282.527 123.143 282.552 123.342C282.552 123.542 282.652 124.264 282.328 124.09C282.054 123.94 281.805 122.695 282.029 122.421Z" stroke="#824236" stroke-width="1.19758" stroke-linecap="round" stroke-linejoin="round"/>
<path d="M269.749 116.992C268.005 118.038 267.806 117.888 266.311 117.789" stroke="#824236" stroke-width="1.19758" stroke-linecap="round" stroke-linejoin="round"/>
<path d="M279.514 123.693C279.813 124.689 280.286 125.636 280.983 126.408C281.83 127.305 283.151 127.703 283.898 128.725C284.795 129.946 284.421 131.64 283.823 132.91" stroke="#824236" stroke-width="1.19758" stroke-linecap="round" stroke-linejoin="round"/>
<path d="M280.883 114.848C280.409 115.122 279.836 115.272 279.288 115.222" stroke="#824236" stroke-width="1.19758" stroke-linecap="round" stroke-linejoin="round"/>
<path d="M272.04 100.724C272.986 100.874 273.908 101.422 274.78 102.194C277.047 104.212 278.99 107.924 280.111 111.038C280.211 111.337 280.31 111.636 280.41 111.91" stroke="#824236" stroke-width="1.19758" stroke-linecap="round" stroke-linejoin="round"/>
<path d="M287.261 132.385C287.261 132.385 287.311 132.51 287.311 132.585C288.955 138.489 286.812 149.624 282.851 154.283C281.207 156.201 278.741 157.272 276.2 157.546C275.776 157.596 275.328 157.621 274.905 157.621C271.94 157.646 269.175 157.945 266.41 156.898" stroke="#824236" stroke-width="1.19758" stroke-linecap="round" stroke-linejoin="round"/>
<path d="M243.714 94.6443C249.569 94.1212 253.928 94.6443 259.533 96.3633" stroke="#824236" stroke-width="1.19758" stroke-linecap="round" stroke-linejoin="round"/>
<path d="M223.263 176.581C223.088 176.605 222.914 176.63 222.74 176.68C222.117 176.78 221.494 176.904 220.871 177.029C217.483 177.677 214.12 178.499 210.807 179.421C207.967 180.218 205.077 181.164 202.686 183.008C196.956 187.442 193.568 196.435 190.628 202.813C181.585 222.543 186.792 244.091 184.674 265.017C184.674 265.117 184.724 265.74 184.699 265.864C184.699 265.964 184.849 268.804 184.849 268.904C184.326 273.936 186.642 279.416 186.393 284.448C185.945 293.417 190.678 302.136 199.796 307.193C207.543 311.503 212.75 311.876 221.569 310.805C221.843 310.78 225.629 309.51 225.903 309.51" stroke="#824236" stroke-width="1.19758" stroke-linecap="round" stroke-linejoin="round"/>
<path d="M220.446 224.41C220.247 243.243 223.461 253.358 219.998 272.589" stroke="#824236" stroke-width="1.19758" stroke-linecap="round" stroke-linejoin="round"/>
<path d="M238.508 166.938C238.508 167.212 238.508 167.486 238.533 167.76C238.932 174.735 242.345 182.557 245.758 188.561C251.363 198.401 257.441 207.967 262.224 218.505C264.74 224.035 266.883 229.815 268.452 236.068" stroke="#824236" stroke-width="1.19758" stroke-linecap="round" stroke-linejoin="round"/>
<path d="M265.189 176.404C269.599 180.091 274.033 185.397 276.699 190.604C276.848 190.903 276.998 191.177 277.122 191.476" stroke="#824236" stroke-width="1.19758" stroke-linecap="round" stroke-linejoin="round"/>
<path d="M264.267 184.728C264.267 184.728 264.317 184.877 264.342 184.927C267.779 194.742 272.562 203.436 277.52 212.23C280.136 216.889 282.801 221.572 285.342 226.455C285.392 226.555 285.467 226.679 285.517 226.804C285.517 226.804 287.759 231.487 287.858 234.252C287.958 237.017 286.986 262.452 287.41 264.769C287.833 267.086 287.734 267.285 287.734 267.659" stroke="#824236" stroke-width="1.19758" stroke-linecap="round" stroke-linejoin="round"/>
<path d="M279.564 197.929C279.937 199.324 280.286 200.544 280.66 201.665C282.055 205.925 283.599 208.69 286.215 213.498C288.482 217.684 290.774 221.869 293.041 226.054C293.265 226.453 293.938 228.196 294.087 228.769C294.087 228.769 295.408 233.428 295.358 238.51C295.308 243.592 295.981 252.062 296.055 254.279" stroke="#824236" stroke-width="1.19758" stroke-linecap="round" stroke-linejoin="round"/>
<path d="M225.828 178.948C226.351 183.083 227.099 187.218 228.045 191.279C228.095 191.503 228.17 191.777 228.344 191.927C228.519 192.076 228.768 192.076 228.992 192.076C231.558 192.076 234.099 192.076 236.665 192.101" stroke="#824236" stroke-width="1.19758" stroke-linecap="round" stroke-linejoin="round"/>
<path d="M239.155 193.917C237.735 195.387 236.34 196.857 234.92 198.327C234.422 198.85 233.924 199.398 233.7 200.071C233.326 201.291 233.999 202.562 234.646 203.658C243.266 218.48 248.597 231.036 253.779 247.179C253.928 247.627 254.053 248.051 254.202 248.499" stroke="#824236" stroke-width="1.19758" stroke-linecap="round" stroke-linejoin="round"/>
<path d="M270.844 272.192C271.292 282.556 270.794 309.411 267.929 319.973C267.879 320.173 267.83 320.347 267.78 320.546" stroke="#824236" stroke-width="1.19758" stroke-linecap="round" stroke-linejoin="round"/>
<path d="M287.709 267.108C287.833 279.041 287.41 305.647 285.018 317.331" stroke="#824236" stroke-width="1.19758" stroke-linecap="round" stroke-linejoin="round"/>
<path d="M296.603 260.284C299.268 275.056 292.692 305.349 295.656 318.204" stroke="#824236" stroke-width="1.19758" stroke-linecap="round" stroke-linejoin="round"/>
<path d="M298.545 75.3121C298.172 75.4367 297.748 75.5114 297.349 75.5612C296.652 75.6609 295.954 75.7605 295.381 76.1591C294.534 76.7321 294.235 77.8033 294.036 78.8247C293.912 79.4973 293.787 80.1948 293.712 80.8924C293.662 81.3408 293.613 81.8141 293.588 82.2874C293.538 83.1344 293.588 84.0811 294.161 84.679C294.659 85.2021 295.481 85.3017 296.179 85.1025C296.876 84.9032 297.474 84.4548 298.022 83.9814" stroke="#824236" stroke-width="1.19758" stroke-linecap="round" stroke-linejoin="round"/>
<path d="M307.065 73.097C305.67 72.5988 303.054 71.9262 301.834 72.7483C301.385 73.0472 301.062 73.4707 300.738 73.9191C300.364 74.4173 299.99 74.9156 299.617 75.3889C299.517 75.5384 299.392 75.6629 299.293 75.8124C299.094 76.0864 298.919 76.3605 298.795 76.6843C298.595 77.2075 298.521 77.7555 298.496 78.3036C298.396 79.8979 298.545 81.5172 298.894 83.0866C298.969 83.4354 299.069 83.8091 299.168 84.1578C299.343 84.7557 299.567 85.3785 300.015 85.802C300.19 85.9764 300.663 86.1259 301.211 86.1757C301.834 86.2255 302.581 86.1508 303.179 85.7771C303.403 85.6276 303.603 85.4533 303.777 85.2291" stroke="#824236" stroke-width="1.19758" stroke-linecap="round" stroke-linejoin="round"/>
<path d="M312.097 72.8472C310.976 72.5483 308.286 72.5732 307.264 73.0964C307.19 73.1213 307.14 73.1711 307.065 73.196C306.118 73.7191 305.321 74.4416 304.524 75.1889C303.976 75.6872 303.453 76.2352 303.154 76.9079C302.855 77.6054 302.83 78.3777 302.855 79.1499C302.905 80.5699 303.054 81.9899 303.328 83.3849C303.428 83.9081 303.577 84.481 303.851 84.9544C304.101 85.4277 304.474 85.8014 304.972 85.9757C305.67 86.1999 306.392 85.901 306.916 85.3779C307.09 85.2035 307.264 84.9793 307.389 84.78C307.713 84.207 307.837 83.5593 307.887 82.9116C307.912 82.5877 307.937 82.2639 307.937 81.94" stroke="#824236" stroke-width="1.19758" stroke-linecap="round" stroke-linejoin="round"/>
<path d="M314.963 73.4689C314.066 73.2198 313.045 72.9955 312.173 73.1699C311.799 73.2447 311.45 73.3941 311.152 73.6433C310.753 73.9671 310.504 74.4404 310.255 74.9138C309.408 76.4832 308.561 78.0775 308.337 79.8463C308.337 79.9958 308.312 80.195 308.411 80.3196C308.511 80.4442 308.66 80.4691 308.81 80.494C308.81 80.494 308.835 80.494 308.86 80.494C310.23 80.5936 311.625 80.0705 312.621 79.1238C312.671 79.074 312.746 78.9993 312.796 78.9495" stroke="#824236" stroke-width="1.19758" stroke-linecap="round" stroke-linejoin="round"/>
<path d="M285.441 58.2002C285.391 58.3995 285.317 58.5988 285.267 58.7981C283.448 64.9264 282.452 71.2789 282.302 77.6563C282.228 81.1439 282.701 85.1796 285.665 87.0231C286.562 87.5712 287.559 87.8452 288.605 87.9448C289.327 88.0196 290.05 88.0445 290.772 88.0196C291.569 87.9947 292.392 87.9448 293.189 87.8452C294.957 87.6459 296.701 87.2722 298.42 86.7491" stroke="#824236" stroke-width="1.19758" stroke-linecap="round" stroke-linejoin="round"/>
<path d="M291.969 58.1743C291.969 58.1743 291.92 58.3736 291.92 58.4733C290.774 64.2777 289.877 70.132 289.179 76.0111C289.08 76.8581 288.98 77.73 289.179 78.5521C289.354 79.3742 289.877 80.1963 290.674 80.4953C291.272 80.7195 291.944 80.6447 292.567 80.7444" stroke="#824236" stroke-width="1.19758" stroke-linecap="round" stroke-linejoin="round"/>
<path d="M307.065 85.4777C309.855 85.1787 313.691 84.5559 316.282 83.4598C316.98 83.1609 317.677 82.8121 318.375 82.3886C318.474 82.3388 318.549 82.289 318.649 82.2391C321.663 80.3458 324.304 77.3315 324.154 73.6446C323.955 68.5128 320.941 63.2066 317.528 59.2705C317.154 58.8221 316.755 58.3986 316.382 58" stroke="#824236" stroke-width="1.19758" stroke-linecap="round" stroke-linejoin="round"/>
<path d="M314.265 77.3822C315.037 76.2362 315.486 74.8661 315.561 73.4959C315.561 73.0226 315.561 72.5493 315.486 72.1009C315.287 70.6809 314.689 69.3606 314.066 68.0901C312.596 65.0509 310.927 62.0864 309.084 59.2464C309.034 59.1717 308.984 59.097 308.934 59.0222" stroke="#824236" stroke-width="1.19758" stroke-linecap="round" stroke-linejoin="round"/>
<path d="M288.506 88.8402C288.332 89.9114 289.054 90.9079 289.677 91.7798C291.495 94.271 293.09 96.9365 294.435 99.7017C294.435 99.7017 294.435 99.7516 294.46 99.7765" stroke="#824236" stroke-width="1.19758" stroke-linecap="round" stroke-linejoin="round"/>
<path d="M293.338 88.1947C293.587 88.4189 293.836 88.668 294.085 88.8922C295.779 90.5115 297.324 92.2802 298.719 94.1735C299.317 94.9956 299.89 95.8426 300.438 96.7145" stroke="#824236" stroke-width="1.19758" stroke-linecap="round" stroke-linejoin="round"/>
<path d="M298.521 93.5965C298.596 93.173 298.646 92.7246 298.695 92.3011C298.87 90.906 298.895 89.4861 298.845 88.091C298.845 88.0412 298.845 88.0163 298.845 87.9664" stroke="#824236" stroke-width="1.19758" stroke-linecap="round" stroke-linejoin="round"/>
<path d="M301.211 109.592C301.211 109.592 301.361 109.792 301.436 109.891C303.678 112.781 306.866 114.923 310.404 115.895" stroke="#824236" stroke-width="1.19758" stroke-linecap="round" stroke-linejoin="round"/>
<path d="M303.603 94.1221C307.764 96.2396 312.073 98.5564 314.714 102.418" stroke="#824236" stroke-width="1.19758" stroke-linecap="round" stroke-linejoin="round"/>
<path d="M318.376 82.3888C318.525 82.5881 318.675 82.8123 318.799 83.0116C323.956 90.6844 325.451 100.475 326.273 109.742C326.273 109.916 326.298 110.116 326.323 110.29" stroke="#824236" stroke-width="1.19758" stroke-linecap="round" stroke-linejoin="round"/>
<path d="M313.169 118.287C317.379 130.145 319.472 139.911 321.689 150.398C321.988 151.818 322.287 153.263 322.611 154.733" stroke="#824236" stroke-width="1.19758" stroke-linecap="round" stroke-linejoin="round"/>
<path d="M326.671 112.88C326.92 113.379 327.169 113.852 327.418 114.35C332.151 123.941 335.241 134.155 339.301 143.995C340.024 145.739 340.771 147.483 341.568 149.202C341.693 149.451 341.792 149.7 341.917 149.974" stroke="#824236" stroke-width="1.19758" stroke-linecap="round" stroke-linejoin="round"/>
<path d="M321.563 150.297C321.264 150.521 321.015 150.745 320.766 150.969C319.072 152.464 318.399 153.784 318.798 156.276C319.147 158.493 319.496 160.71 319.869 162.927C320.318 165.742 320.766 168.557 321.264 171.347C321.837 174.636 322.311 177.949 322.859 181.262C323.681 186.319 323.88 191.675 323.681 196.932C323.656 197.903 323.606 198.875 323.531 199.846" stroke="#824236" stroke-width="1.19758" stroke-linecap="round" stroke-linejoin="round"/>
<path d="M322.038 154.731C322.312 154.955 322.561 155.18 322.835 155.354C325.127 156.973 327.518 156.948 330.532 156.575C333.896 156.176 337.059 154.607 339.775 152.589C340.572 151.991 341.369 151.293 341.867 150.471C342.166 149.973 342.341 149.425 342.366 148.827" stroke="#824236" stroke-width="1.19758" stroke-linecap="round" stroke-linejoin="round"/>
<path d="M339.676 143.796C340.024 143.945 340.348 144.095 340.672 144.244C342.74 145.291 344.508 146.86 345.405 149.002C346.452 151.494 346.825 154.209 347.174 156.875C349.391 173.291 351.633 189.683 353.85 206.1C354 207.122 354.124 208.143 354 209.164C353.576 212.503 350.487 214.77 347.672 216.613C344.907 218.432 335.341 220.748 332.576 222.567" stroke="#824236" stroke-width="1.19758" stroke-linecap="round" stroke-linejoin="round"/>
<path d="M277.42 191.828C277.42 191.828 277.545 191.828 277.62 191.828C282.203 192.177 288.357 194.419 292.567 196.113C297.923 198.255 303.852 198.928 309.532 198.056C313.169 197.483 319.82 196.785 323.507 196.96" stroke="#824236" stroke-width="1.19758" stroke-linecap="round" stroke-linejoin="round"/>
<path d="M262.673 218.433C265.712 218.035 271.666 216.515 274.307 214.423C274.481 214.273 274.655 214.149 274.78 213.999" stroke="#824236" stroke-width="1.19758" stroke-linecap="round" stroke-linejoin="round"/>
<path d="M202.137 310.131C202.062 310.828 201.963 311.501 201.863 312.198C201.439 314.914 200.742 317.579 199.82 320.145C199.795 320.245 199.745 320.345 199.72 320.444" stroke="#824236" stroke-width="1.19758" stroke-linecap="round" stroke-linejoin="round"/>
<path d="M266.16 100.749C264.267 101.148 262.897 102.966 262.498 104.884C262.099 106.803 262.498 108.771 263.046 110.639C264.366 115.223 266.035 119.757 267.181 124.415C268.327 129.049 268.801 134.106 266.135 138.067" stroke="#824236" stroke-width="1.19758" stroke-linecap="round" stroke-linejoin="round"/>
<path d="M243.84 143.646C244.662 144.269 245.583 144.718 246.53 144.817C246.68 144.817 246.804 144.817 246.954 144.817" stroke="#824236" stroke-width="1.19758" stroke-linecap="round" stroke-linejoin="round"/>
<path d="M258.139 111.659C257.716 113.851 256.993 115.919 256.072 117.912C253.506 123.592 249.42 128.699 246.157 134.13C244.612 136.695 243.217 139.436 242.843 142.375C242.843 142.475 242.819 142.6 242.794 142.699C242.445 145.763 243.416 149.151 245.858 151.045" stroke="#824236" stroke-width="1.19758" stroke-linecap="round" stroke-linejoin="round"/>
<path d="M237.412 92.1542C237.412 92.1542 237.412 92.1542 237.437 92.1293C242.618 87.695 251.562 87.7946 259.384 89.4388C262.473 90.0865 265.363 90.9584 267.804 91.9051C268.626 92.2289 269.399 92.5528 270.121 92.8766C283.075 98.8056 291.57 111.511 292.442 125.685C292.766 131.091 290.897 139.561 296.677 142.75C296.752 142.775 296.801 142.825 296.876 142.85" stroke="#824236" stroke-width="1.19758" stroke-linecap="round" stroke-linejoin="round"/>
<path d="M239.081 158.692C239.081 158.692 239.031 158.592 239.006 158.567C236.29 152.912 230.187 149.798 226.849 144.542C217.407 129.694 214.144 103.936 233.251 94.8677" stroke="#824236" stroke-width="1.19758" stroke-linecap="round" stroke-linejoin="round"/>
<path d="M244.412 138.391C245.259 138.341 246.081 138.515 246.853 138.864" stroke="#824236" stroke-width="1.19758" stroke-linecap="round" stroke-linejoin="round"/>
<path d="M263.296 127.43C263.919 133.359 262.026 139.537 258.189 144.095" stroke="#824236" stroke-width="1.19758" stroke-linecap="round" stroke-linejoin="round"/>
<path d="M280.189 146.91C281.41 146.825 282.274 144.942 282.118 142.705C281.962 140.468 280.845 138.723 279.624 138.808C278.402 138.894 277.538 140.776 277.694 143.013C277.85 145.251 278.967 146.995 280.189 146.91Z" stroke="#824236" stroke-width="1.19758" stroke-linecap="round" stroke-linejoin="round"/>
<path d="M229.142 150.099C228.569 150.672 226.701 149.775 225.007 148.081C223.313 146.387 222.391 144.518 222.964 143.945" stroke="#824236" stroke-width="1.19758" stroke-linecap="round" stroke-linejoin="round"/>
<path d="M226.974 152.714C226.401 153.287 224.532 152.391 222.838 150.697C221.144 149.003 220.447 147.533 220.621 146.711" stroke="#824236" stroke-width="1.19758" stroke-linecap="round" stroke-linejoin="round"/>
<path d="M229.391 149.101C228.768 149.475 223.188 152.938 222.864 159.166C222.714 161.732 223.536 163.774 224.109 164.97" stroke="#824236" stroke-width="1.19758" stroke-linecap="round" stroke-linejoin="round"/>
<path d="M220.148 147.409C219.351 147.683 217.832 148.356 216.462 149.875C214.668 151.893 214.319 154.11 214.244 154.932" stroke="#824236" stroke-width="1.19758" stroke-linecap="round" stroke-linejoin="round"/>
<path d="M222.689 144.22C222.864 144.021 223.013 144.021 224.01 143.024C224.209 142.825 225.28 141.828 224.657 140.633" stroke="#824236" stroke-width="1.19758" stroke-linecap="round" stroke-linejoin="round"/>
<path d="M265.513 160.14C264.392 162.307 263.046 165.546 262.374 169.631C261.552 174.713 262.125 178.973 262.698 181.614" stroke="#824236" stroke-width="1.19758" stroke-linecap="round" stroke-linejoin="round"/>
<path d="M252.857 130.343C252.484 131.639 252.01 132.884 251.487 134.105C251.014 135.176 250.142 136.347 250.516 137.568C250.665 138.066 251.039 138.514 251.487 138.788C252.334 139.262 253.356 139.287 254.228 138.888C254.701 138.689 255.174 138.24 255.349 137.642C255.598 136.746 255.099 135.749 254.776 135.126C253.978 133.532 253.181 131.564 252.833 130.318L252.857 130.343Z" fill="#95C6D1" stroke="#824236" stroke-width="1.15152" stroke-linecap="round" stroke-linejoin="round"/>
<path d="M222.316 144.345C222.316 144.345 221.02 144.469 220.622 146.711" stroke="#824236" stroke-width="1.19758" stroke-linecap="round" stroke-linejoin="round"/>
<path d="M262.324 223.388C261.851 222.615 263.819 221.893 263.295 221.146L262.548 220.573C259.808 217.11 257.715 214.245 254.975 210.782C254.875 210.658 254.776 210.533 254.676 210.409C253.804 209.312 252.932 208.216 252.384 206.921C251.288 204.405 251.562 201.515 251.861 198.775C252.035 197.106 252.235 195.412 252.907 193.867C252.982 193.693 253.082 193.518 253.181 193.344C253.904 192.024 255.05 190.928 256.47 190.579L258.562 190.479C258.836 191.451 258.089 192.422 258.363 193.419C258.463 193.942 257.79 194.54 257.989 195.038C258.737 187.689 258.612 180.265 257.665 172.966C257.292 170.051 256.769 167.087 257.217 164.197C257.341 163.425 257.541 162.653 258.039 162.08C258.562 161.507 259.459 161.208 260.107 161.606C260.705 161.955 260.929 162.727 261.078 163.4C261.601 165.617 262.075 167.859 262.548 170.101C262.822 170.176 263.096 170.251 263.37 170.301V170.375C264.591 170.749 265.463 171.745 266.16 172.867C266.808 173.116 267.431 173.415 268.004 173.813L267.954 173.888C271.043 176.728 272.837 180.564 274.182 184.575C274.232 184.625 274.257 184.65 274.306 184.7L274.406 184.6C276.972 186.792 278.516 189.956 279.314 193.269C279.388 193.618 279.463 193.942 279.538 194.291C280.011 196.707 280.111 199.173 280.086 201.64C280.086 202.91 280.036 204.156 279.986 205.426C279.862 209.337 279.712 213.273 279.588 217.185L279.712 217.932C279.712 218.081 279.787 223.188 279.812 223.338C279.862 223.911 277.744 227.523 277.819 228.071L263.42 265.115C259.11 263.67 248.398 251.563 248.099 250.267C247.875 249.321 262.548 224.409 262.324 223.437V223.388Z" fill="#FFF8F5"/>
<path d="M217.906 278.867C219.8 276.425 227.423 269.849 229.615 267.681C231.359 265.937 233.152 264.243 234.871 262.524C238.758 258.638 244.163 247.353 247.078 249.421" stroke="#824236" stroke-width="1.19758" stroke-linecap="round" stroke-linejoin="round"/>
<path d="M225.929 309.51C226.851 309.311 228.52 308.564 229.392 308.34C233.104 307.418 237.439 304.877 240.304 302.884C242.57 301.314 244.638 299.546 246.581 297.627C250.742 293.567 254.329 288.883 257.767 284.225C260.357 280.712 272.988 268.232 269.799 264.221L266.336 260.434L266.087 260.16" stroke="#824236" stroke-width="1.19758" stroke-linecap="round" stroke-linejoin="round"/>
<path d="M248.075 250.218C248.075 250.218 248.15 250.093 248.175 250.018C248.574 249.171 248.972 248.349 249.396 247.527C252.784 240.776 256.57 234.424 259.834 227.548C260.482 226.203 261.104 224.858 261.752 223.512C262.225 222.516 262.699 221.544 263.172 220.548C263.247 220.373 263.969 221.893 263.969 221.893" stroke="#824236" stroke-width="1.19758" stroke-linecap="round" stroke-linejoin="round"/>
<path d="M247.601 250.244C247.751 250.468 247.9 250.717 248.075 250.966C250.616 254.604 257.541 262.177 263.395 265.067C264.616 265.664 265.812 266.088 266.883 266.212" stroke="#824236" stroke-width="1.19758" stroke-linecap="round" stroke-linejoin="round"/>
<path d="M263.047 220.424C260.382 216.886 257.716 213.349 255.051 209.836C254.951 209.712 254.851 209.587 254.752 209.438C253.905 208.317 253.058 207.196 252.534 205.9C251.488 203.334 251.837 200.47 252.186 197.729C252.41 196.06 252.634 194.366 253.332 192.847C253.406 192.672 253.506 192.498 253.606 192.323C254.353 191.028 255.524 189.957 256.969 189.633" stroke="#824236" stroke-width="1.19758" stroke-linecap="round" stroke-linejoin="round"/>
<path d="M257.094 202.412C257.517 200.095 257.841 197.753 258.09 195.411C258.862 188.062 258.788 180.639 257.866 173.34C257.492 170.425 256.994 167.46 257.467 164.571C257.592 163.798 257.791 163.026 258.314 162.453C258.837 161.88 259.734 161.581 260.407 161.98C261.005 162.353 261.229 163.101 261.378 163.798C261.877 166.015 262.375 168.258 262.823 170.5C263.994 176.279 264.991 182.108 265.813 187.963" stroke="#824236" stroke-width="1.19758" stroke-linecap="round" stroke-linejoin="round"/>
<path d="M263.57 170.775C264.816 171.148 265.688 172.145 266.36 173.291C266.709 173.864 267.008 174.511 267.282 175.109C269.175 179.344 270.919 183.729 271.418 188.337" stroke="#824236" stroke-width="1.19758" stroke-linecap="round" stroke-linejoin="round"/>
<path d="M275.852 190.256C275.378 188.512 274.905 186.743 274.332 185C273.012 180.964 271.243 177.128 268.154 174.288" stroke="#824236" stroke-width="1.19758" stroke-linecap="round" stroke-linejoin="round"/>
<path d="M274.556 185.023C277.097 187.241 278.641 190.404 279.414 193.718C279.488 194.066 279.563 194.39 279.638 194.739C280.086 197.156 280.186 199.622 280.136 202.088C280.136 203.359 280.061 204.604 280.012 205.875C279.862 209.786 279.713 213.722 279.563 217.633C279.563 217.633 279.613 221.644 279.563 222.167C279.364 223.886 278.342 226.352 278.143 227.174C274.656 236.043 269.324 249.57 265.289 259.883C264.965 260.73 264.641 261.577 264.342 262.399C264.118 262.997 263.919 263.595 263.719 264.193" stroke="#824236" stroke-width="1.19758" stroke-linecap="round" stroke-linejoin="round"/>
<path d="M295.307 236.368C295.307 236.368 297.947 235.297 300.987 234.799C304.026 234.3 305.097 232.856 307.538 231.436C309.98 230.016 312.969 227.4 318.3 226.702C323.631 226.005 331.105 223.19 332.6 222.567" stroke="#824236" stroke-width="1.19758" stroke-linecap="round" stroke-linejoin="round"/>
<rect x="91.6348" y="358.758" width="114" height="25" fill="#EFEDED"/>
<path d="M98.3417 238.784L98.3978 238.251C97.4155 238.419 96.3491 238.644 95.2826 238.896H95.1984C90.0906 240.103 84.1408 242.348 78.7243 246.67C74.2339 250.235 72.8587 253.013 72.55 253.687C71.6238 255.651 71.2309 257.532 70.8661 266.344C70.6696 271.283 70.5574 273.781 70.5854 277.289C70.6416 285.344 71.0625 291.406 71.1467 292.753C72.3535 310.546 72.5781 319.443 71.708 321.969C70.3329 325.87 69.2863 331.394 68.1348 336C67.3558 337.354 66.7746 338.593 67.2517 341.428C67.7849 344.459 67.2517 347.125 67.2517 348.5C67.3359 358.547 66.635 362.094 69.135 365.094C69.4999 369.978 71.708 372.037 74.8233 376.022C77.9665 380.063 82.4289 381.439 84.2811 382C93.9916 384.975 102.944 380.063 132.693 368.725C136.342 367.322 139.906 365.778 143.47 364.123C143.695 364.179 143.919 364.235 144.144 364.291V237.1L116.977 225.65L111.252 226.407L106.789 236.258L98.635 238.251L98.3417 238.784Z" fill="#EFEDED"/>
<path d="M219.217 348.803C219.077 346.025 218.965 345.997 218.628 341.843C217.421 326.772 218.46 323.292 217.169 310.466C216.663 305.359 216.467 305.723 216.018 300.588C215.288 292.533 215.653 290.512 214.867 282.57C214.25 276.255 213.941 276.929 213.717 272.691C213.239 264.552 214.334 262.728 213.127 259.051C211.752 254.757 208.693 252.288 204.708 249.172C201.087 246.338 194.183 241.791 183.49 239.574L172.966 234.326L168.897 228.432L158.709 224.728L144.115 241.006V368.224C145.996 368.701 147.399 369.487 148.634 370.133C148.634 370.133 180.375 385.989 203.248 385.091C206.42 384.979 210.349 384.362 213.408 381.611C216.467 378.833 217.112 375.297 218.347 368.252C219.779 360.17 219.47 353.406 219.217 348.803Z" fill="#EFEDED"/>
<path d="M144.087 368.027C144.087 368.027 180.319 385.989 203.22 385.091C206.392 384.979 210.321 384.361 213.38 381.611C216.439 378.832 217.084 375.296 218.319 368.252C219.75 360.169 219.442 353.406 219.189 348.803C219.049 346.024 218.937 345.996 218.6 341.843C217.393 326.772 218.431 323.292 217.14 310.466C216.635 305.358 216.439 305.723 215.99 300.587C215.26 292.532 215.625 290.512 214.839 282.569C214.222 276.255 213.941 276.928 213.688 272.69C213.211 264.552 214.306 262.727 213.099 259.051C211.724 254.757 208.665 252.287 204.68 249.172C201.059 246.337 194.155 241.791 183.462 239.574C183.462 239.574 173.836 236.627 171.703 232.81" stroke="#824236" stroke-width="1.19758" stroke-linecap="round" stroke-linejoin="round"/>
<path d="M173.022 314.621C174.509 312.544 175.548 310.748 176.249 309.513C177.821 306.678 178.074 305.527 179.589 304.293C180.543 303.507 180.515 303.928 183.687 302.3C184.473 301.907 186.409 300.897 188.682 299.409C191.377 297.669 190.927 297.613 191.797 297.304C194.548 296.266 195.278 298.202 199.459 297.753C200.666 297.613 202.294 297.276 204.118 297.978C204.735 298.202 205.044 298.427 205.241 298.764C205.858 299.83 204.988 301.711 203.809 302.749C202.659 303.731 201.312 303.872 198.814 304.068C195.979 304.321 195.418 303.872 194.043 304.517C192.639 305.163 192.752 305.864 191.264 306.734C188.963 308.109 186.409 307.829 186.381 307.745C186.381 307.632 190.394 307.745 196.035 306.089C199.375 305.106 200.329 304.377 207.795 301.767C209.226 301.262 211.359 300.56 214.109 300.756C215.288 300.841 218.263 301.093 218.768 302.525C219.357 304.236 216.298 307.099 213.66 308.615C210.433 310.495 207.654 310.467 204.006 313.386C203.22 314.003 202.659 314.564 202.799 314.929C203.08 315.687 206.251 315.35 208.665 314.705C211.387 313.975 211.78 313.245 214.979 312.375C217.393 311.702 218.824 311.337 219.863 312.151C221.21 313.217 220.901 315.547 220.873 315.799C220.648 317.399 219.666 318.437 219.217 318.914C217.73 320.458 216.186 320.711 213.66 321.581C212.173 322.086 210.068 322.928 207.57 324.247" fill="#FFF8F5"/>
<path d="M173.022 314.619C176.362 314.872 185.062 341.618 186.83 341.702C195.025 342.067 201.452 341.983 205.184 342.488C207.149 342.741 209.17 343.133 212.145 342.965C212.762 342.937 214.446 342.825 216.495 342.179C218.347 341.618 219.722 341.169 220.564 339.85C220.704 339.597 221.603 338.222 221.041 336.847C220.676 335.921 219.834 335.5 219.582 335.387C218.487 334.854 217.617 335.191 215.99 335.387C214.25 335.584 213.015 335.444 210.769 335.191C208.945 334.995 206.84 334.742 206.812 334.237C206.756 333.704 208.777 333.395 213.295 331.515C214.362 331.065 215.456 330.616 216.691 329.971C219.666 328.427 220.536 327.529 220.845 327.164C221.518 326.407 222.332 325.481 222.501 324.077C222.725 322.085 221.462 320.597 221.154 320.204C220.143 318.998 218.908 318.492 218.347 318.296" fill="#FFF8F5"/>
<path d="M173.022 314.621C174.509 312.544 175.548 310.748 176.249 309.513C177.821 306.678 178.074 305.527 179.589 304.293C180.543 303.507 180.515 303.928 183.687 302.3C184.473 301.907 186.409 300.897 188.682 299.409C191.377 297.669 190.927 297.613 191.797 297.304C194.548 296.266 195.278 298.202 199.459 297.753C200.666 297.613 202.294 297.276 204.118 297.978C204.735 298.202 205.044 298.427 205.241 298.764C205.858 299.83 204.988 301.711 203.809 302.749C202.659 303.731 201.312 303.872 198.814 304.068C195.979 304.321 195.418 303.872 194.043 304.517C192.639 305.163 192.752 305.864 191.264 306.734C188.963 308.109 186.409 307.829 186.381 307.745C186.381 307.632 190.394 307.745 196.035 306.089C199.375 305.106 200.329 304.377 207.795 301.767C209.226 301.262 211.359 300.56 214.109 300.756C215.288 300.841 218.263 301.093 218.768 302.525C219.357 304.236 216.298 307.099 213.66 308.615C210.433 310.495 207.654 310.467 204.006 313.386C203.22 314.003 202.659 314.564 202.799 314.929C203.08 315.687 206.251 315.35 208.665 314.705C211.387 313.975 211.78 313.245 214.979 312.375C217.393 311.702 218.824 311.337 219.863 312.151C221.21 313.217 220.901 315.547 220.873 315.799C220.648 317.399 219.666 318.437 219.217 318.914C217.73 320.458 216.186 320.711 213.66 321.581C212.173 322.086 210.068 322.928 207.57 324.247" stroke="#824236" stroke-width="1.19758" stroke-linecap="round" stroke-linejoin="round"/>
<path d="M185.736 341.646C189.075 341.899 191.798 342.039 193.566 342.123C201.761 342.488 201.452 342.011 205.185 342.516C207.149 342.769 209.17 343.162 212.145 342.993C212.762 342.965 214.446 342.853 216.495 342.208C218.347 341.646 219.722 341.197 220.564 339.878C220.705 339.626 221.603 338.25 221.041 336.875C220.677 335.949 219.835 335.528 219.582 335.416C218.487 334.883 217.617 335.219 215.99 335.416C214.25 335.612 213.015 335.472 210.77 335.219C208.945 335.023 206.84 334.77 206.812 334.265C206.756 333.732 208.777 333.423 213.295 331.543C214.362 331.094 215.456 330.645 216.691 329.999C219.666 328.456 220.536 327.558 220.845 327.193C221.519 326.435 222.332 325.509 222.501 324.106C222.725 322.113 221.462 320.626 221.154 320.233C220.143 319.026 219.722 319.138 219.133 318.942" stroke="#824236" stroke-width="1.19758" stroke-linecap="round" stroke-linejoin="round"/>
<path d="M164.098 318.745C167.55 317.005 167.69 316.668 169.262 315.405C170.637 314.311 171.563 313.328 173.022 313.3C174.65 313.244 175.885 314.367 177.569 315.967C182.2 320.317 184.529 322.506 184.669 322.73C186.943 326.21 187.336 329.354 188.009 334.714C188.683 340.271 187.953 342.011 187.448 342.712C185.343 345.631 180.656 347.147 177.008 349.252C176.053 349.785 178.102 343.386 175.969 335.359C173.836 327.333 167.943 318.717 165.753 319.306" fill="#828282"/>
<path d="M164.098 318.745C167.578 317.229 167.69 316.668 169.262 315.405C170.637 314.311 171.563 313.328 173.022 313.3C174.65 313.244 175.885 314.367 177.569 315.967C182.2 320.317 184.529 322.506 184.669 322.73C186.943 326.21 187.336 329.354 188.009 334.714C188.683 340.271 187.897 341.955 187.448 342.712C187.167 343.162 186.353 344.481 182.677 346.585C180.628 347.764 178.27 348.69 176.278 349.28" stroke="#824236" stroke-width="1.19758" stroke-linecap="round" stroke-linejoin="round"/>
<path d="M98.3694 242.156C92.7003 243.11 85.3192 245.327 78.6958 250.576C74.2054 254.14 72.8302 256.918 72.5215 257.592C71.5954 259.556 71.2025 261.437 70.8376 270.249C70.6412 275.189 70.5289 277.686 70.557 281.194C70.6131 289.249 71.0341 295.311 71.1183 296.658C72.3251 314.452 72.5496 323.348 71.6796 325.874C70.3044 329.775 68.4027 334.97 67.2508 339.576C66.5043 342.561 66.7739 343.651 67.251 346.485C67.7843 349.516 67.6348 353.125 67.6348 354.5C67.719 364.547 68.2993 364.116 69.1537 367C70.6348 372 73.1348 374.5 76.6348 377.5C81.1348 381 84.2825 381.439 86.1348 382C95.8453 384.975 102.916 383.969 132.665 372.63C146.024 367.551 158.4 360.169 171.619 354.725C171.9 354.613 172.826 354.248 173.78 353.406C175.632 351.75 176.194 349.561 176.446 348.607C177.148 345.828 178.327 336.146 171.816 326.07C169.823 322.955 167.045 318.774 163.031 318.605C161.235 318.521 159.888 319.279 158.709 319.924C154.05 322.478 148.914 324.19 144.452 327.053C143.666 327.558 124.526 338.363 107.378 339.878" stroke="#824236" stroke-width="1.19758" stroke-linecap="round" stroke-linejoin="round"/>
<path d="M159.214 175.782C159.831 173.452 159.888 171.909 159.888 171.909C160.028 167.699 161.122 165.678 161.122 159.392C161.122 154.396 160.617 152.151 159.86 150.158C158.54 146.622 157.614 145.893 156.408 144.63C155.79 143.984 156.969 143.788 157.053 142.244C157.081 141.711 157.137 140.953 156.716 140.252C156.239 139.438 155.425 139.157 154.275 138.708C151.636 137.726 150.317 137.164 150.065 136.996C148.802 136.154 149.083 135.733 147.062 133.909C146.08 133.011 145.462 132.449 144.452 131.916C143.189 131.243 142.094 131.046 140.326 130.737C138.642 130.429 137.351 130.373 136.397 130.345C135.218 130.288 135.078 130.345 132.131 130.373C128.763 130.429 128.651 130.373 127.529 130.457C126.574 130.541 125.199 130.681 123.459 131.187C122.421 131.495 121.27 131.832 119.895 132.646C119.474 132.898 118.576 133.572 116.78 134.975C116.078 135.509 115.797 135.733 115.461 136.098C114.787 136.771 114.675 137.108 114.17 137.473C113.496 137.95 112.823 138.034 112.373 138.091C111.475 138.203 110.942 138.006 108.978 137.417C107.153 136.884 106.255 136.631 105.694 136.575C105.413 136.575 104.15 136.491 102.635 137.024C102.354 137.108 101.681 137.361 100.081 138.427C97.8639 139.915 96.7413 140.644 95.9835 141.907C95.5345 142.665 95.3661 143.367 95.0293 144.77C94.4961 146.959 94.7486 147.52 94.2996 149.541C93.9067 151.365 93.6822 150.972 93.0367 153.358C92.6438 154.873 92.7841 154.845 92.0544 158.382C91.6895 160.122 91.6054 160.402 91.5773 161.104C91.4931 162.984 91.9983 164.416 92.1105 164.752C92.9805 167.222 93.4857 166.52 95.759 168.345C97.5551 169.776 98.0322 170.393 98.9584 171.067C100.025 171.797 99.8284 173.845 101.035 173.06C103.196 171.684 102.102 169.243 104.263 163.854C105.666 160.402 107.21 158.718 107.995 157.961C109.539 156.473 110.942 155.828 111.223 155.687C113.3 154.733 115.124 154.705 116.527 154.705C118.997 154.677 120.849 155.182 121.382 155.322C135.078 158.971 140.354 158.045 144.143 162.844C145.602 164.696 145.743 165.959 148.83 170.421C150.851 173.34 151.131 173.284 152.142 175.136C152.731 176.259 152.984 176.876 153.769 177.41C155.173 178.364 157.446 178.42 158.484 177.297C158.681 177.073 158.849 176.82 159.13 175.726L159.214 175.782Z" fill="#9E7F6A"/>
<path d="M102.438 166.942C101.259 169.271 100.333 169.945 100.726 171.741C101.147 173.761 100.053 174.8 100.81 176.568C102.298 180.048 103.224 183.724 104.487 187.261C106.48 192.818 105.497 191.976 107.939 199.272C109.511 204.015 111.475 209.011 114.141 210.527C114.422 210.695 115.236 211.116 115.881 212.042C116.695 213.221 116.723 214.428 116.779 215.662C116.976 218.918 117.397 218.132 117.706 221.837C117.902 224.503 118.042 226.103 117.706 228.264C117.425 230.144 116.864 231.772 115.769 235.055C114.899 237.637 114.59 237.525 114.618 238.283C114.787 241.735 117.818 244.654 118.379 245.439C121.999 250.519 124.974 250.042 132.692 255.936C134.909 257.62 135.695 259.893 136.874 262.054C138.502 264.945 137.716 267.246 139.737 270.221C140.045 270.698 142.515 274.318 143.806 273.841C145.265 273.308 142.852 268.369 145.153 263.008C146.893 258.967 150.57 256.497 151.833 255.655C154.639 253.775 154.976 253.326 157.305 251.586C160.589 249.144 161.711 246.029 162.385 244.569C162.778 243.699 164.322 242.184 165.304 238.058C166.005 235.14 164.714 234.522 164.35 233.456C163.985 232.417 163.592 232.221 161.543 230.453C158.905 228.208 159.045 227.085 157.839 225.626C156.716 224.307 156.155 223.1 155.678 222.145C154.162 218.946 153.909 216.112 153.797 214.708C153.601 212.182 153.881 210.19 154.05 209.123C154.443 206.878 154.779 207.047 155.565 203.931C156.632 199.722 156.323 198.29 157.81 196.943C158.54 196.298 158.793 196.494 160.056 195.456C160.505 195.091 161.712 194.08 162.778 192.397C164.265 190.095 164.63 187.906 164.827 186.559C165.192 184.286 164.967 182.686 164.686 180.581C164.49 179.15 164.265 178.364 163.676 177.634C162.89 176.708 161.852 176.343 161.375 176.203C160.392 175.866 159.55 175.866 158.737 175.894C156.576 175.922 156.491 176.512 155.481 176.287C153.853 175.894 152.955 174.07 152.254 172.583C151.72 171.488 151.384 170.815 151.664 170.085C152.113 168.85 153.853 168.654 153.825 168.008C153.797 167.503 152.703 167.194 152.254 167.054C149.447 166.184 145.041 163.826 144.508 161.048C144.255 159.757 144.985 159.083 144.367 158.157C143.834 157.371 143.02 157.484 141.392 156.866C140.831 156.67 138.614 155.828 137.07 154.032C136.004 152.797 136.397 152.432 134.937 150.467C133.955 149.148 133.394 148.391 132.327 147.913C131.036 147.352 129.83 147.577 128.342 147.829C126.574 148.138 126.574 148.503 124.666 148.952C122.645 149.429 122.392 149.064 119.698 149.513C118.155 149.766 117.06 149.962 115.685 150.524C113.945 151.253 112.485 151.871 111.672 153.33C110.998 154.509 111.279 155.407 110.324 156.08C109.791 156.445 109.595 156.249 108.388 156.754C107.939 156.95 107.097 157.287 106.339 157.933C105.553 158.606 105.104 159.336 104.768 159.981C104.135 163.5 103.729 164.416 102.466 166.885L102.438 166.942Z" fill="#FFF8F5"/>
<path d="M117.51 229.695C116.78 229.499 115.405 229.246 113.805 229.695C113.3 229.835 112.065 230.256 110.493 231.8C107.462 234.803 108.809 238.648 106.199 239.995C105.47 240.36 104.852 240.36 104.487 241.005C103.982 241.903 104.684 242.914 105.189 244.401C105.806 246.253 105.385 246.534 105.778 250.295C105.975 252.287 106.255 253.663 106.676 255.796C107.967 262.391 109.23 264.748 110.072 266.095C110.69 267.106 111.953 269.014 112.963 268.79C113.496 268.677 113.777 268.004 114.366 266.488C115.292 264.103 115.91 262.335 116.078 261.886C117.117 259.023 117.818 257.058 119.671 255.88C120.12 255.599 121.383 254.897 122.982 254.982C124.666 255.066 125.873 255.936 126.883 256.694C127.866 257.395 128.539 258.153 128.988 258.686" stroke="#824236" stroke-width="1.19758" stroke-linecap="round" stroke-linejoin="round"/>
<path d="M158.287 193.294C158.035 196.971 157.249 199.721 156.576 201.546C155.79 203.707 155.172 204.52 154.527 207.046C153.741 210.077 153.713 212.379 153.713 212.996C153.713 213.249 153.713 215.887 154.527 218.834C156.126 224.896 160.168 229.442 161.852 231.182" stroke="#824236" stroke-width="1.19758" stroke-linecap="round" stroke-linejoin="round"/>
<path d="M173.948 239.04C173.19 236.43 172.376 234.325 171.731 232.838C170.524 230.031 169.963 229.386 169.598 229.049C168.7 228.151 167.83 227.758 164.322 226.579C162.75 226.046 160.842 225.429 158.709 224.755" stroke="#824236" stroke-width="1.19758" stroke-linecap="round" stroke-linejoin="round"/>
<path d="M158.709 258.041C160.701 256.133 162.161 254.645 163.171 253.579C163.845 252.877 164.406 252.26 165.192 252.26C166.707 252.26 167.83 254.393 168.026 254.786C169.009 256.666 168.447 257.592 169.037 260.876C169.093 261.213 169.907 265.563 170.861 265.535C171.17 265.535 171.338 265.114 171.983 263.71C173.415 260.623 173.471 260.708 173.695 260.062C174.678 257.508 174.116 255.151 173.892 250.829C173.808 249.089 173.724 246.591 173.892 243.532" stroke="#824236" stroke-width="1.19758" stroke-linecap="round" stroke-linejoin="round"/>
<path d="M128.427 179.291C128.595 180.469 128.651 182.181 127.697 183.584C126.715 185.044 125.312 185.212 125.031 186.363C124.863 187.093 125.115 188.299 127.416 190.264" stroke="#824236" stroke-width="1.19758" stroke-linecap="round" stroke-linejoin="round"/>
<path d="M156.267 177.916C156.464 177.607 157.446 176.035 159.214 175.783C161.319 175.502 162.835 177.326 163.34 177.916C165.136 180.049 165.052 182.687 164.996 184.623C164.939 186.139 164.799 190.573 161.347 194.278C159.467 196.298 159.102 196.13 157.895 196.551" stroke="#824236" stroke-width="1.19758" stroke-linecap="round" stroke-linejoin="round"/>
<path d="M159.663 183.696C159.242 183.893 158.007 184.566 157.474 185.998C157.333 186.419 157.277 186.783 157.249 187.12" stroke="#824236" stroke-width="1.19758" stroke-linecap="round" stroke-linejoin="round"/>
<path d="M155.902 144.041C158.905 147.324 160.084 150.383 160.645 152.376C161.712 156.389 161.206 160.15 160.14 167.7C159.831 169.917 159.494 171.769 159.27 173.06" stroke="#824236" stroke-width="1.19758" stroke-linecap="round" stroke-linejoin="round"/>
<path d="M156.744 139.719C153.938 139.354 152.085 138.4 150.907 137.642C148.774 136.239 148.465 135.06 146.079 133.404C143.974 131.945 142.066 131.327 140.831 130.934C137.07 129.756 133.983 129.952 131.261 130.149C128.651 130.317 125.62 130.569 122.084 132.113C119.586 133.208 117.734 134.555 116.555 135.565" stroke="#824236" stroke-width="1.19758" stroke-linecap="round" stroke-linejoin="round"/>
<path d="M111.391 138.709C110.605 138.147 108.304 136.688 105.161 136.828C102.803 136.941 101.119 137.895 100.221 138.4C99.4073 138.877 96.4324 140.617 95.2817 143.929C94.7204 145.557 95.1133 146.062 94.3836 149.261C94.0469 150.749 93.654 151.955 93.4014 152.713" stroke="#824236" stroke-width="1.19758" stroke-linecap="round" stroke-linejoin="round"/>
<path d="M91.6052 160.487C91.549 161.385 91.6052 162.732 92.2226 164.107C92.7839 165.342 93.5136 166.043 95.001 167.419C97.3866 169.636 98.425 169.888 99.4634 171.6C100.053 172.555 100.333 173.481 100.474 174.098" stroke="#824236" stroke-width="1.19758" stroke-linecap="round" stroke-linejoin="round"/>
<path d="M109.679 156.501C108.585 156.67 107.125 157.063 106.087 158.213C104.852 159.589 105.021 161.104 104.375 163.209C103.926 164.668 103 166.605 100.923 168.682" stroke="#824236" stroke-width="1.19758" stroke-linecap="round" stroke-linejoin="round"/>
<path d="M122.196 152.291C122.533 151.589 123.403 150.074 125.171 149.007C125.452 148.839 128.23 147.183 131.121 148.081C134.208 149.035 134.292 151.926 137.856 154.817C140.017 156.585 142.319 157.371 143.946 157.792" stroke="#824236" stroke-width="1.19758" stroke-linecap="round" stroke-linejoin="round"/>
<path d="M145.35 162.143C146.107 163.154 147.454 164.697 149.587 165.904C150.878 166.634 152.085 167.055 153.039 167.307" stroke="#824236" stroke-width="1.19758" stroke-linecap="round" stroke-linejoin="round"/>
<path d="M151.777 171.208C151.945 171.938 152.338 173.032 153.18 174.183C153.769 174.969 154.415 175.53 154.892 175.895" stroke="#824236" stroke-width="1.19758" stroke-linecap="round" stroke-linejoin="round"/>
<path d="M117.818 149.625C117.677 149.288 116.05 144.629 118.912 140.869C120.596 138.651 122.926 137.95 123.768 137.753" stroke="#824236" stroke-width="1.19758" stroke-linecap="round" stroke-linejoin="round"/>
<path d="M112.654 152.601C112.402 151.899 111.448 149.373 108.753 147.745C106.564 146.426 104.431 146.454 103.589 146.482" stroke="#824236" stroke-width="1.19758" stroke-linecap="round" stroke-linejoin="round"/>
<path d="M130.587 169.72C131.878 168.345 133.226 167.812 133.899 167.587C136.425 166.802 138.698 167.644 139.821 168.065C140.747 168.401 141.477 168.822 141.954 169.131" stroke="#824236" stroke-width="1.19758" stroke-linecap="round" stroke-linejoin="round"/>
<path d="M115.517 183.135C116.4 183.135 117.116 182.067 117.116 180.75C117.116 179.432 116.4 178.364 115.517 178.364C114.633 178.364 113.917 179.432 113.917 180.75C113.917 182.067 114.633 183.135 115.517 183.135Z" fill="#824236"/>
<path d="M136.65 179.74C137.533 179.74 138.249 178.672 138.249 177.354C138.249 176.037 137.533 174.969 136.65 174.969C135.766 174.969 135.05 176.037 135.05 177.354C135.05 178.672 135.766 179.74 136.65 179.74Z" fill="#824236"/>
<path d="M104.515 187.289C105.75 191.527 105.722 191.948 106.536 194.698C108.697 201.883 109.903 205.84 112.991 209.376C117.004 213.979 122.168 215.495 123.88 215.972C133.646 218.722 141.729 214.148 143.273 213.278C145.069 212.267 146.416 211.201 147.314 210.443" stroke="#824236" stroke-width="1.19758" stroke-linecap="round" stroke-linejoin="round"/>
<path d="M110.802 175.164C111.194 174.491 111.952 173.48 113.243 172.891C114.927 172.105 116.611 172.498 117.649 172.723C118.407 172.891 119.025 173.144 119.417 173.312" stroke="#824236" stroke-width="1.19758" stroke-linecap="round" stroke-linejoin="round"/>
<path d="M116.807 215.69C117.481 218.749 118.014 222.706 117.818 227.085C117.565 232.024 116.527 234.241 115.404 235.729C115.152 236.037 115.123 236.037 115.011 236.234C113.131 239.461 118.098 246.309 123.487 250.182C126.406 252.287 127.107 251.838 129.773 253.606C134.797 256.946 137.351 261.885 138.698 265.506" stroke="#824236" stroke-width="1.19758" stroke-linecap="round" stroke-linejoin="round"/>
<path d="M164.35 233.456C164.602 234.747 164.855 236.711 164.462 239.069C164.265 240.303 163.816 241.987 162.413 244.569C161.291 246.618 159.27 250.295 155.2 253.494C151.047 256.75 148.689 256.413 145.939 260.145C144.957 261.464 144.339 262.727 144.003 263.569C142.571 266.993 142.683 270.108 142.852 271.82" stroke="#824236" stroke-width="1.19758" stroke-linecap="round" stroke-linejoin="round"/>
<path d="M128.09 200.535C127.557 200.788 126.631 201.237 125.733 202.219C125.143 202.837 123.319 204.801 123.964 206.822C124.385 208.085 125.536 208.674 125.648 208.73C126.603 209.179 127.248 208.899 129.549 208.506C132.973 207.945 133.703 208.253 135.247 207.411C135.948 207.018 136.734 206.569 137.127 205.643C137.772 204.156 136.93 202.584 136.762 202.303C135.611 200.199 133.114 199.778 132.58 199.693C130.532 199.357 128.904 200.142 128.09 200.535Z" stroke="#824236" stroke-width="1.19758" stroke-linecap="round" stroke-linejoin="round"/>
<path d="M112.205 310.831L113.216 311.196C113.075 310.663 112.907 310.186 112.738 309.709C112.738 309.709 112.738 309.681 112.71 309.681C111.868 307.099 110.774 305.162 109.932 303.871C109.09 302.608 108.276 301.71 106.761 299.97C105.049 298.034 104.01 296.855 102.326 295.536C101.681 295.031 100.165 293.908 97.9762 292.814C95.6749 291.663 93.7945 291.186 91.9983 290.737C88.4902 289.839 89.3602 290.597 86.4695 289.839C85.9644 289.698 85.2627 289.502 84.5611 289.839C83.6911 290.26 83.1859 291.382 83.214 292.28C83.214 292.814 83.4104 294.077 86.7502 296.35C90.0338 298.595 91.2967 298.399 93.3455 299.97C94.44 300.812 95.8994 302.272 97.0781 304.91C95.6468 304.433 94.4681 304.04 93.8506 303.843C92.2509 303.31 91.9703 303.085 87.985 301.402C82.6807 299.156 83.5227 299.718 80.4636 298.371C76.8713 296.799 76.0013 296.181 73.9245 295.985C72.437 295.845 70.4163 295.704 69.0973 297.051C67.8343 298.342 68.0027 300.223 68.0308 300.672C68.1711 301.907 68.7605 302.833 69.406 303.535C70.0515 304.236 70.3883 305.218 69.1815 305.555C68.3395 305.78 67.0485 306.65 66.4592 308.081C65.8137 309.597 65.1401 311.252 65.6733 312.964C65.8698 313.61 66.2066 314.115 66.6276 314.592C66.2908 315.434 66.0382 316.192 65.8698 316.809C65.4769 318.269 65.1682 319.391 65.3366 320.851C65.4208 321.496 65.505 322.226 65.9259 322.956C66.403 323.797 67.1047 324.247 68.2553 324.78C68.1992 325.846 68.2553 327.109 68.5079 328.569C68.7886 330.112 69.0973 331.768 70.3041 333.199C71.4267 334.546 72.8019 335.08 74.9909 335.781C79.2288 337.156 81.3336 337.83 84.5611 338.419C89.276 339.289 92.9806 339.458 95.0574 339.542C96.152 339.598 97.1342 339.598 97.9762 339.598C98.4533 339.598 98.9023 339.598 99.2952 339.598L102.972 340.075L112.177 310.831H112.205Z" fill="#FFF8F5"/>
<path d="M100.923 305.442C99.2675 305.246 96.7977 304.825 93.9351 303.871C92.3354 303.337 92.0548 303.113 88.0695 301.429C82.7652 299.184 83.6072 299.745 80.5481 298.398C76.9558 296.826 76.0857 296.209 74.0089 296.012C72.5215 295.872 70.5008 295.732 69.1818 297.079C67.9188 298.37 68.0592 300.25 68.1153 300.699C68.3398 302.58 69.5747 303.758 70.4166 304.516C71.8479 305.807 73.0828 306.172 74.7106 306.902C76.3103 307.603 78.4713 308.726 80.9129 310.606" stroke="#824236" stroke-width="1.19758" stroke-linecap="round" stroke-linejoin="round"/>
<path d="M79.5092 320.374C77.4605 319.616 75.6643 318.999 74.233 318.522C71.6229 317.652 70.8932 317.455 69.7426 316.81C68.0587 315.855 66.2906 314.873 65.7012 312.993C65.168 311.281 65.8696 309.625 66.487 308.109C67.0764 306.706 68.8726 305.92 69.6022 305.443C70.5003 304.854 70.781 305.247 71.651 305.499" stroke="#824236" stroke-width="1.19758" stroke-linecap="round" stroke-linejoin="round"/>
<path d="M80.0987 328.961C78.2184 328.681 76.6187 328.288 75.4119 327.895C74.177 327.502 74.598 327.558 69.4059 325.257C67.5536 324.443 66.5994 324.022 65.982 322.956C65.561 322.198 65.4768 321.496 65.3926 320.851C65.2242 319.391 65.5049 318.269 65.9259 316.809C66.1504 315.967 66.3469 316.164 66.9362 314.873" stroke="#824236" stroke-width="1.19758" stroke-linecap="round" stroke-linejoin="round"/>
<path d="M120.372 313.189C118.295 311 117.313 311.056 116.106 310.607C114.703 310.074 113.917 310.074 113.664 310.074C112.093 310.074 110.605 310.719 108.949 312.067C103.701 316.332 100.726 323.461 100.726 323.461C99.9405 325.341 100.474 321.496 98.5092 334.35C98.4531 334.799 98.5092 338.279 101.989 340.076C102.41 340.3 106.564 339.626 106.564 339.626C107.743 328.653 114.478 317.96 114.955 318.129" fill="#828282"/>
<path d="M150.373 323.909C145.995 323.18 145.855 322.871 143.02 322.001C137.912 320.401 135.359 319.587 132.664 317.959C131.261 317.089 128.679 315.349 124.778 313.918C123.291 313.357 122.421 313.16 121.41 313.244C119.081 313.441 117.313 315.041 115.573 317.174C112.682 320.71 109.735 325.846 107.686 334.041C106.929 337.1 107.041 337.633 106.76 339.738" stroke="#824236" stroke-width="1.19758" stroke-linecap="round" stroke-linejoin="round"/>
<path d="M112.682 310.045C111.784 306.649 110.97 305.414 109.96 303.899C109.118 302.636 108.304 301.738 106.788 299.998C105.076 298.061 104.038 296.882 102.354 295.563C101.709 295.058 100.193 293.936 98.004 292.841C95.7027 291.69 93.8223 291.213 92.0262 290.764C88.5181 289.866 89.3881 290.624 86.4974 289.866C85.9922 289.726 85.2906 289.529 84.589 289.866C83.7189 290.287 83.2138 291.41 83.2418 292.308C83.2418 292.841 83.4383 294.104 86.778 296.377C90.0616 298.622 91.3246 298.426 93.3733 299.998C94.524 300.868 95.815 301.878 97.0218 304.713" stroke="#824236" stroke-width="1.19758" stroke-linecap="round" stroke-linejoin="round"/>
<path d="M120.372 313.189C118.744 311.73 117.313 311.056 116.106 310.607C114.703 310.074 113.917 310.074 113.665 310.074C112.093 310.074 110.606 310.719 108.95 312.067C103.702 316.332 100.727 323.461 100.727 323.461C99.9409 325.341 98.5377 331.179 98.5096 334.35C98.5096 334.883 97.9483 338.672 101.597 339.767" stroke="#824236" stroke-width="1.19758" stroke-linecap="round" stroke-linejoin="round"/>
<path d="M218.635 263.739C222.389 265.507 223.261 266.842 223.208 267.781C223.109 269.038 221.312 269.6 221.384 271.09C221.476 273.426 225.039 274.568 225.51 276.772C225.825 278.175 224.519 279.27 224.354 280.676C224.273 281.393 224.171 282.17 224.578 282.939C225.13 283.974 225.927 283.79 226.473 284.769C227.126 285.932 226.627 287.38 226.539 287.589C226.288 288.298 225.424 289.31 225.437 290.101C225.471 290.832 226.448 291.644 226.848 292.132C227.578 293.003 227.978 293.49 227.914 294.12C227.833 295.064 226.834 295.216 226.662 296.34C226.564 297.144 226.988 297.827 227.061 297.959C227.694 298.955 228.519 298.768 228.929 299.566C229.349 300.447 228.784 301.592 228.627 301.922C227.992 303.189 227.042 303.278 227.048 304.013C227.061 304.35 227.249 304.497 228.57 305.803C229.892 307.11 230 307.295 230.086 307.539C230.267 308.082 230.179 308.969 228.841 310.493" stroke="#824236" stroke-width="1.19758" stroke-linecap="round" stroke-linejoin="round"/>
<path d="M229.911 326C229.602 326.645 229.265 327.347 229.378 328.217C229.546 329.368 230.388 329.452 230.585 330.575C230.809 331.894 229.911 333.072 229.743 333.269C229.265 333.858 228.115 334.56 227.89 335.29C227.666 335.991 228.339 337.058 228.592 337.675C228.985 338.742 229.209 339.331 228.985 339.892C228.62 340.762 227.61 340.566 227.104 341.576C226.74 342.306 226.936 343.064 226.964 343.232C227.245 344.383 228.087 344.467 228.199 345.337C228.311 346.319 227.413 347.217 227.161 347.47C226.15 348.452 225.224 348.256 225 348.957C224.887 349.294 225.056 349.49 225.87 351.146C226.684 352.802 226.768 353.027 226.74 353.279C226.74 353.841 226.375 354.682 224.635 355.665" stroke="#824236" stroke-width="1.19758" stroke-linecap="round" stroke-linejoin="round"/>
<path d="M67.2724 253.012C63.4498 254.627 62.5242 255.925 62.5393 256.866C62.5872 258.126 64.3598 258.76 64.2281 260.246C64.0421 262.576 60.4355 263.573 59.8756 265.756C59.5038 267.145 60.765 268.292 60.873 269.704C60.9248 270.424 60.9951 271.204 60.5578 271.956C59.964 272.967 59.1747 272.752 58.5901 273.708C57.8904 274.844 58.3307 276.31 58.4094 276.522C58.6319 277.242 59.4546 278.288 59.4096 279.077C59.346 279.806 58.3366 280.578 57.9174 281.049C57.1527 281.89 56.7335 282.361 56.7713 282.993C56.8141 283.939 57.8063 284.131 57.9325 285.262C57.9982 286.069 57.5469 286.734 57.4687 286.863C56.7964 287.833 55.9794 287.613 55.5376 288.393C55.082 289.257 55.6004 290.423 55.7439 290.76C56.327 292.051 57.273 292.179 57.2371 292.912C57.2099 293.249 57.0163 293.388 55.6431 294.64C54.2699 295.892 54.1548 296.073 54.0583 296.313C53.856 296.848 53.908 297.738 55.1836 299.315" stroke="#824236" stroke-width="1.19758" stroke-linecap="round" stroke-linejoin="round"/>
<path d="M56.7765 325.733C53.8016 328.624 53.3807 330.167 53.7455 331.037C54.2507 332.188 56.131 332.132 56.552 333.591C57.1975 335.808 54.2226 338.053 54.4752 340.299C54.6436 341.73 56.2152 342.347 56.8327 343.638C57.1414 344.284 57.4781 344.986 57.3659 345.856C57.1975 347.006 56.3555 347.09 56.1591 348.213C55.9346 349.532 56.8327 350.711 57.001 350.907C57.4781 351.497 58.6288 352.198 58.8533 352.928C59.0779 353.63 58.4043 354.696 58.1517 355.313C57.7588 356.38 57.5343 356.969 57.7588 357.531C58.1236 358.401 59.134 358.204 59.6392 359.214C60.004 359.944 59.8075 360.702 59.7795 360.87C59.4988 362.021 58.6569 362.105 58.5446 362.975" stroke="#824236" stroke-width="1.19758" stroke-linecap="round" stroke-linejoin="round"/>
<path d="M107.35 339.906C105.638 339.906 97.4991 339.85 94.861 339.738C92.7842 339.654 88.6586 340.215 83.9437 339.345C80.7162 338.756 79.2569 337.128 75.019 335.781C72.83 335.079 71.4548 334.546 70.3322 333.199C69.1534 331.768 68.8447 330.112 68.536 328.568C68.1431 326.407 68.2834 326.014 68.4238 324.835" stroke="#824236" stroke-width="1.19758" stroke-linecap="round" stroke-linejoin="round"/>
</svg>
