<svg width="122" height="149" viewBox="0 0 122 149" fill="none" xmlns="http://www.w3.org/2000/svg">
<path d="M100.758 39.4142H100.824C100.841 39.5466 100.874 39.6956 100.891 39.8446C102.422 40.9204 104.02 40.9039 106.034 40.6556C108.281 40.3908 110.395 39.348 112.21 38.0073C112.742 37.6101 113.275 37.1466 113.608 36.6004C113.541 36.3191 113.475 36.0377 113.392 35.7563C112.859 34.6142 112.36 33.4556 111.877 32.297C112.193 32.3301 112.493 32.3963 112.809 32.4625C114.191 33.1577 115.372 34.2004 115.972 35.6239C116.671 37.2791 116.921 39.0832 117.154 40.8542C118.635 51.7618 120.133 62.6528 121.615 73.5603C121.715 74.2389 121.798 74.9175 121.715 75.5962C121.432 77.8141 119.367 79.3203 117.487 80.5451C115.639 81.7534 109.247 83.2927 107.399 84.501L107.283 84.3851C107.366 84.3023 107.432 84.2196 107.499 84.1368C107.682 83.9216 107.865 83.6734 107.815 83.392C107.749 83.0113 107.299 82.8623 106.916 82.7796C104.952 82.3327 102.955 81.9023 100.941 81.952C96.3964 82.0679 92.3348 84.6168 88.5396 87.0996C86.4422 88.4568 84.3449 89.8306 82.2475 91.2044C82.1144 89.6816 81.6649 88.192 80.8992 86.8678L80.9658 86.8347C79.451 84.0541 77.9196 81.2734 76.4049 78.4927C74.6571 75.2982 73.625 73.461 72.6929 70.6307H72.7428C72.3433 68.3631 71.6442 66.1783 70.6621 64.1093C73.7249 64.341 77.8364 65.8307 80.6495 66.9562C84.2284 68.3796 88.19 68.8265 91.9853 68.2472C94.4155 67.8665 98.8599 67.4031 101.324 67.5189H101.407C101.523 64.0265 101.407 60.4845 100.857 57.108C100.491 54.9066 100.175 52.7052 99.7921 50.5204C99.4592 48.65 99.1596 46.7963 98.8599 44.9259C98.6269 43.4528 98.3939 41.9797 98.1442 40.5066C97.8778 38.8349 98.3439 37.9742 99.4592 36.9811L99.4925 37.0142C99.6922 36.8653 99.892 36.7163 100.092 36.5839C100.291 37.5273 100.491 38.4873 100.708 39.4639L100.758 39.4142Z" fill="#EFEDED"/>
<path d="M100.824 39.3978H100.757C100.541 38.4378 100.341 37.4778 100.141 36.5343C98.6599 29.5826 97.2617 23.0944 94.4486 15.1992L94.5817 15.0006C94.099 14.3551 93.3666 13.8586 92.5843 13.7593V13.6103C90.2372 12.9648 88.1066 11.5413 86.6084 9.62134C86.4753 9.55513 86.3421 9.50547 86.1923 9.45582C85.2601 7.98272 84.045 6.36066 82.6634 4.8048C82.3139 4.20894 82.0808 3.54687 81.931 2.86826C81.0321 1.03102 79.9668 -0.740009 78.7517 -2.39518C78.3189 -2.97448 77.8528 -3.63655 77.9693 -4.34827H78.0359C78.0193 -4.54689 78.0193 -4.74551 78.0359 -4.94413C78.5186 -4.89448 79.0013 -4.87793 79.4841 -4.89448C80.0167 -4.91103 80.566 -4.94413 81.0987 -5.01034C81.2985 -4.76206 81.4982 -4.51379 81.7313 -4.29862C82.8632 -3.20621 83.8952 -2.03104 84.8273 -0.77311C84.7774 -1.1869 84.7608 -1.60069 84.8273 -2.01448C84.9439 -2.94138 84.9605 -3.88482 84.9272 -4.81172C84.9106 -5.02689 84.8939 -5.24206 84.8939 -5.45723C85.4266 -5.55654 85.9593 -5.6724 86.4919 -5.77171V-6.06964C86.9247 -6.03654 87.4241 -6.0862 87.8236 -6.33447C87.9567 -6.49999 88.0733 -6.66551 88.2064 -6.81447L88.2897 -6.89723C88.4561 -6.58275 88.7058 -6.33447 89.0387 -6.21861C89.5048 -6.06964 89.9875 -6.26826 90.3371 -6.61585L90.4203 -6.54964C92.2846 -6.74826 94.8481 -7.16206 96.5792 -7.89033C97.0453 -8.08895 97.5114 -8.32067 97.9775 -8.60205C98.0773 -8.46964 98.1772 -8.32067 98.2604 -8.18826C101.706 -3.09035 102.705 3.41446 103.254 9.57168C103.504 10.5979 103.754 11.6075 103.987 12.6172C107.149 18.9896 109.213 25.7758 111.927 32.3137C112.409 33.4723 112.909 34.6309 113.441 35.773C113.525 36.0544 113.591 36.3357 113.658 36.6171C113.325 37.1633 112.792 37.6433 112.259 38.024C110.428 39.3647 108.331 40.3909 106.084 40.6723C104.07 40.9205 102.472 40.9371 100.94 39.8612C100.924 39.7123 100.89 39.5633 100.874 39.4143L100.824 39.3978Z" fill="#FCF7F2"/>
<path d="M58.1943 105.902C58.6437 105.389 59.0598 104.876 59.476 104.347L59.4261 104.313C61.2737 101.582 63.1214 98.868 64.9691 96.1369C65.0357 96.0376 65.1022 95.9383 65.1688 95.839C65.7514 94.9783 66.334 94.1176 67.133 93.439C68.6811 92.0983 70.7951 91.6349 72.8092 91.2377C74.041 90.9894 75.2894 90.7411 76.5378 90.8735C76.6877 90.8735 76.8375 90.9066 76.9706 90.9397C78.0692 91.1549 79.1179 91.7176 79.6839 92.6445L79.7837 92.7935C79.1512 93.2073 78.502 93.6211 77.8695 94.0349C77.5199 94.2335 77.187 94.4487 76.8708 94.697C82.264 93.5714 87.524 91.8335 92.5177 89.5163C94.4986 88.5894 96.4961 87.5632 98.66 87.2322C99.2259 87.1494 99.8252 87.1163 100.358 87.348C100.891 87.5797 101.29 88.159 101.174 88.7052C101.057 89.2184 100.558 89.5328 100.108 89.7977C98.6433 90.6583 97.1619 91.519 95.6804 92.3466C95.6804 92.5618 95.6971 92.7604 95.7303 92.959H95.6638C95.6638 93.9356 95.181 94.7797 94.5152 95.508C94.4986 96.0211 94.3987 96.5342 94.2655 97.0307H94.1989C92.8839 99.828 90.5535 101.963 87.9901 103.817C87.9734 103.85 87.9568 103.9 87.9402 103.933L88.04 103.982C87.0413 106.283 85.1437 108.104 82.9797 109.395C82.7633 109.527 82.5303 109.66 82.2973 109.776C80.6826 110.653 78.9515 111.265 77.187 111.811C76.2882 112.093 75.3726 112.341 74.4738 112.589C71.6607 113.367 68.8309 114.162 66.0178 114.94L65.9512 114.758C65.8346 114.791 65.7348 114.84 65.6183 114.89C65.2354 115.039 64.8359 115.221 64.4697 115.387L64.5196 115.486C59.476 119.922 51.1032 124.308 44.9276 128.363C44.4116 128.694 43.9122 129.042 43.4295 129.373C42.747 129.654 42.1312 130.051 41.5985 130.548C39.4346 126.774 38.4025 120.038 38.3359 117.091C38.4691 116.926 38.6189 116.793 38.802 116.678C38.8353 116.661 38.8852 116.628 38.9185 116.611C39.4512 116.297 39.9839 115.982 40.5165 115.684C44.911 113.202 49.372 111.1 53.7332 108.501C54.5822 107.988 55.4477 107.491 56.2966 106.978C56.9292 106.614 57.5451 106.233 58.1776 105.869L58.1943 105.902Z" fill="#FFF8F5"/>
<path d="M66.8334 33.3066L66.8667 33.3728C69.8796 32.3135 71.644 29.4335 72.8758 26.5038C74.1242 23.5742 75.0231 20.4956 76.155 17.5328C76.6211 16.3245 77.187 15.0997 78.1691 14.239C79.1346 13.3783 80.5994 12.948 81.7812 13.4942V13.6928C82.264 13.6763 82.7467 13.7425 83.2128 13.8749C83.4958 13.9577 83.7954 14.0735 84.0284 14.2721C84.2448 14.4542 84.4113 14.6859 84.5611 14.9177C85.1437 15.7618 85.7429 16.6721 85.8262 17.6983C86.2423 19.6845 85.8095 22.4156 85.1603 24.5176C85.1603 25.8252 84.5111 27.0666 84.1949 28.3576C83.9785 29.2017 83.9285 30.0624 83.7454 30.9066C83.3459 32.9093 82.3638 34.7466 81.3984 36.5341C81.2985 36.7659 81.1986 36.9976 81.0988 37.2459C80.8657 37.7921 80.6493 38.3217 80.4496 38.8679C78.9681 42.6582 73.3918 47.7396 69.3968 48.65C67.7489 49.0306 66.0011 48.6003 64.5196 47.7396C64.1368 48.6003 63.7539 49.461 63.3711 50.3217L63.2213 50.2555C62.7885 51.3479 62.4389 52.4568 62.1726 53.5989C61.9063 54.8237 61.7398 56.0816 61.6899 57.3396C61.6899 58.0513 61.7398 58.763 61.823 59.4747C64.1201 65.9961 67.3161 71.7726 70.6286 77.6154C69.9295 78.1119 69.2304 78.5919 68.498 79.0388C66.7335 80.4291 62.7552 81.4388 60.7244 81.7036L60.4248 81.7698C57.2288 74.7685 53.1673 68.3961 49.422 61.8747C47.1415 57.9023 44.8444 52.6886 44.5947 48.0541C44.9776 47.541 45.4437 47.0941 45.9597 46.7465C45.9597 46.73 45.9264 46.7134 45.9097 46.6969C45.943 46.6637 45.9763 46.6306 46.0096 46.5975C47.3246 45.2569 50.8535 41.1355 52.6679 37.759L52.618 37.7259C53.5501 35.9548 54.2159 33.9355 53.9829 31.9493C53.8997 31.2045 53.8331 30.0293 53.6333 29.3011L53.7166 29.1686C53.2505 28.7383 52.9342 28.1424 52.7345 27.4804H52.7178C52.6845 27.1824 52.6679 26.8845 52.6845 26.5866C52.6845 26.5369 52.7178 26.4707 52.7511 26.4542L52.7012 26.4045C54.0828 24.9811 55.9305 24.0873 57.7781 23.3259C61.6899 21.7369 65.9012 20.628 69.5633 18.6087C68.1151 23.5742 65.3353 28.1259 61.6066 31.701C60.8909 32.3797 60.1252 33.0417 59.2596 33.4555C59.5925 33.4721 59.9254 33.4886 60.2583 33.4721V33.4224C64.1368 32.5121 67.5991 29.9631 69.6465 26.5535C70.4788 25.5935 71.1114 24.5011 71.6274 23.3425C71.4443 24.4349 71.2612 25.5107 71.0115 26.5866C70.6619 28.1093 70.2125 29.6321 69.3636 30.9397C68.7477 31.8997 67.8987 32.7603 66.8833 33.2735L66.8334 33.3066ZM81.5482 32.0652C81.6148 31.9493 81.8645 31.4031 81.6814 31.3535C81.6647 31.3535 81.6481 31.3535 81.6314 31.3535C81.3984 31.4197 81.0488 32.181 81.1321 32.3631C81.2319 32.5948 81.4816 32.1645 81.5482 32.0486V32.0652ZM74.9066 27.9769C74.9066 27.9769 74.9399 27.828 74.9066 27.7617C74.8233 27.53 74.6569 27.4969 74.5071 27.5631C74.4238 27.5962 74.3573 27.6624 74.2907 27.7452C73.9911 28.0928 73.7247 28.4569 73.6415 28.9204C73.6415 28.9866 73.6249 29.0693 73.6415 29.1355C73.758 29.4666 74.2241 29.2017 74.3573 29.0528C74.6069 28.7714 74.8233 28.3576 74.9066 27.9769Z" fill="#FCF7F2"/>
<path d="M75.6559 147.447H75.6393C77.2373 139.684 77.5203 122.007 77.437 114.079H77.5202C77.437 113.334 77.3371 112.589 77.2206 111.861V111.811C78.9684 111.265 80.6996 110.652 82.3309 109.775C82.5639 109.643 82.7803 109.527 83.0133 109.395L83.3962 109.543C85.1773 119.359 80.7828 139.485 82.7636 148.026H82.8635C82.8302 148.39 82.7969 148.754 82.7636 149.119H81.5652V149.185C79.4179 149.185 77.3039 149.185 75.2231 149.185C75.3896 148.605 75.5561 148.026 75.6892 147.43L75.6559 147.447Z" fill="#EFEDED"/>
<path d="M102.705 87.7452C102.206 88.0597 101.69 88.3907 101.19 88.7052C101.324 88.1424 100.907 87.5797 100.375 87.348C99.8421 87.1162 99.2429 87.1493 98.6769 87.2321C96.513 87.5631 94.5155 88.5893 92.5347 89.5162C87.541 91.8335 82.2809 93.5714 76.8877 94.6969C77.204 94.4486 77.5369 94.2169 77.8864 94.0348C78.519 93.621 79.1682 93.2072 79.8007 92.7935C79.8673 92.7604 79.9172 92.7107 79.9838 92.6776C80.7495 92.181 81.4986 91.6845 82.2643 91.1879C84.3616 89.8142 86.459 88.4569 88.5563 87.0831C92.3516 84.6169 96.4131 82.0514 100.957 81.9356C102.972 81.8859 104.969 82.3328 106.933 82.7631C107.316 82.8459 107.749 82.9949 107.832 83.3756C107.882 83.6569 107.699 83.9052 107.516 84.1204C107.449 84.2031 107.366 84.2859 107.299 84.3687C106.401 85.3783 105.319 86.239 104.137 86.9011C104.037 86.9507 103.937 87.0004 103.837 87.05C103.454 87.2486 103.088 87.4804 102.722 87.7286L102.705 87.7452Z" fill="#E5E3E1"/>
<path d="M75.8388 87.0996C76.3049 88.3409 76.6877 89.6154 76.9873 90.923C76.8375 90.8899 76.6877 90.8733 76.5546 90.8568C75.3061 90.7244 74.0577 90.9726 72.8259 91.2209C70.8118 91.6347 68.6978 92.0816 67.1497 93.4223C66.3674 94.1009 65.7681 94.9782 65.1855 95.8223C65.1189 95.9216 65.0524 96.0209 64.9858 96.1202C64.9025 95.2264 64.7194 94.3492 64.4864 93.4885H64.5696C63.521 89.3175 62.0894 85.4775 60.4082 81.803L60.7078 81.7368C62.7386 81.472 66.7169 80.4623 68.4814 79.072C69.2138 78.6251 69.9129 78.1451 70.612 77.6486C72.3598 80.7437 74.1409 83.8554 75.8388 87.0996Z" fill="#95C6D1"/>
<path d="M69.5964 26.5868C67.5656 30.0129 64.0867 32.5453 60.2082 33.4557V33.5054C59.8753 33.5054 59.5424 33.5053 59.2095 33.4888C60.0917 33.075 60.8574 32.4129 61.5565 31.7343C65.2852 28.1592 68.065 23.6075 69.5132 18.6585C70.7949 17.9302 72.01 17.1192 73.1087 16.1261L73.1919 16.1592C72.3596 18.4764 71.9767 20.9261 71.5772 23.3592C71.0612 24.5343 70.412 25.6268 69.5964 26.5702V26.5868Z" fill="#F4C3AB"/>
<path d="M61.6734 57.3563C61.7233 56.0984 61.8898 54.8404 62.1561 53.6156C62.2061 53.6984 62.256 53.7646 62.3059 53.8473L62.3725 53.8142C65.3188 56.2639 68.2817 59.7894 70.0628 63.2487L70.2126 63.1659C70.3624 63.4638 70.5289 63.7618 70.6621 64.0763C71.6442 66.1452 72.3433 68.33 72.7428 70.5811H72.6929C73.625 73.428 74.657 75.2652 76.4048 78.4596C77.9196 81.2403 79.451 84.021 80.9658 86.8017L80.8992 86.8348C81.6482 88.1589 82.1143 89.6486 82.2475 91.1713C81.4818 91.6679 80.7327 92.1644 79.967 92.661C79.9004 92.6941 79.8505 92.7437 79.7839 92.7768L79.684 92.6279C79.1181 91.6844 78.0694 91.1217 76.9708 90.923C76.6712 89.632 76.2883 88.3575 75.8222 87.0996C74.1244 83.8555 72.3433 80.7438 70.5955 77.6486C67.283 71.8059 64.1037 66.0294 61.7899 59.508C61.7233 58.7963 61.6734 58.0846 61.6567 57.3728L61.6734 57.3563Z" fill="#EFEDED"/>
<path d="M20.1587 142.332C23.9872 141.621 27.7158 140.363 31.3612 139.072C34.1078 138.095 45.7598 135.877 45.4768 132.484L44.9608 129.108C44.9608 128.859 44.9275 128.628 44.9275 128.379C51.1031 124.308 59.4592 119.938 64.5195 115.502L64.4696 115.403C64.8524 115.221 65.2353 115.055 65.6181 114.906C65.7679 115.751 65.8678 116.611 65.8678 117.472H66.1508C66.4504 124.357 66.1175 142.2 64.2032 149.218C49.0556 149.251 34.707 149.317 18.6938 149.317C19.3097 147.612 19.7758 145.841 20.0588 144.037C20.1254 143.475 20.142 142.895 20.1587 142.332Z" fill="#EFEDED"/>
<path d="M66.0178 114.956C68.8309 114.178 71.6607 113.384 74.4738 112.606C75.3727 112.358 76.2882 112.109 77.187 111.828V111.878C77.3035 112.606 77.4034 113.351 77.5033 114.095H77.4201C77.5033 122.024 77.2203 139.701 75.6223 147.464H75.639C75.5058 148.059 75.3394 148.639 75.1729 149.218C71.4443 149.218 67.7988 149.218 64.2034 149.235C66.101 142.217 66.4339 124.374 66.1509 117.489H65.8679C65.8679 116.628 65.7681 115.767 65.6183 114.923C65.7348 114.873 65.8347 114.84 65.9512 114.791L66.0178 114.973V114.956Z" fill="#95C6D1"/>
<path d="M6.62592 141.886C5.87686 141.753 5.19438 141.373 4.59514 140.909C3.91266 140.363 3.34672 139.668 2.78076 138.989L2.63094 139.055C0.799915 136.192 1.64885 131.74 1.8486 128.644C2.16487 123.894 2.581 119.144 3.09702 114.41C4.69501 99.6624 6.293 84.9976 12.5684 71.3756C14.5326 67.1218 16.7964 61.1632 20.625 58.217C22.2063 56.9922 24.1372 56.3632 26.0515 55.8336C28.2653 55.2046 30.5125 54.6749 32.7763 54.2446C33.0094 54.3439 33.2923 54.2777 33.542 54.1949C33.7085 54.1453 33.8749 54.0791 34.0414 54.0129C34.9736 53.6487 35.8558 53.1687 36.6714 52.606L36.6381 52.5563C37.6036 51.6294 38.852 50.4708 40.0671 49.3619C40.966 48.5343 41.8482 47.7232 42.5474 47.0281C43.0634 46.5315 44.7612 45.3729 46.0097 46.6308C45.9764 46.6639 45.9431 46.697 45.9098 46.7301C45.9264 46.7301 45.9431 46.7632 45.9597 46.7798C45.4271 47.1439 44.961 47.5908 44.5948 48.0874C44.8611 52.7218 47.1416 57.9191 49.422 61.908C53.1673 68.4459 57.2289 74.8018 60.4249 81.8031C62.1061 85.4776 63.5376 89.3176 64.5863 93.472H64.503C64.7527 94.3493 64.9192 95.2431 65.0024 96.1203C63.1547 98.8514 61.3071 101.566 59.4594 104.297L59.5093 104.33C59.0932 104.86 58.6771 105.373 58.2276 105.886C57.5951 106.25 56.9792 106.631 56.3467 106.995C55.4977 107.508 54.6321 108.004 53.7832 108.518C49.4054 111.116 44.961 113.218 40.5665 115.701C40.0339 115.999 39.5012 116.313 38.9685 116.628C38.9186 116.644 38.8853 116.677 38.852 116.694C38.6689 116.81 38.5191 116.942 38.3859 117.108C38.4525 120.054 39.4679 126.791 41.6485 130.564C42.1812 130.068 42.8137 129.671 43.4795 129.389C43.9622 129.058 44.4616 128.727 44.9776 128.38C44.9776 128.628 44.9943 128.86 45.0109 129.108L45.5269 132.484C45.7933 135.877 34.1579 138.095 31.4114 139.072C27.766 140.363 24.0373 141.621 20.2088 142.333C18.4111 142.664 16.5967 142.879 14.7657 142.912C12.4353 142.945 9.07283 142.763 6.67585 141.886H6.62592Z" fill="#EFEDED"/>
<path d="M86.1924 9.45578C86.5087 9.95233 86.7916 10.4323 87.0413 10.8792C91.6189 19.1716 91.1195 29.3178 85.926 37.2129C83.9452 40.2253 79.5674 43.9991 81.3818 47.9881L81.1321 48.1536C80.6161 47.5577 80.2665 46.7963 80.0834 46.0184C79.8171 44.8929 79.867 43.7012 79.9502 42.5591C80.0335 41.4336 80.1666 40.3081 80.3331 39.1826H80.3164C80.3497 39.0667 80.383 38.9674 80.433 38.8681C80.6327 38.3219 80.8657 37.7757 81.0821 37.246C81.182 37.0143 81.2819 36.766 81.3818 36.5343C82.3472 34.7467 83.3293 32.9095 83.7288 30.9067C83.8953 30.0626 83.9618 29.1854 84.1782 28.3578C84.4945 27.0668 85.1603 25.8254 85.1437 24.5178C85.7929 22.4157 86.2257 19.6847 85.8095 17.6985C85.7429 16.6723 85.1271 15.7785 84.5445 14.9178C84.378 14.6861 84.2282 14.4544 84.0118 14.2723C83.7788 14.0737 83.4958 13.9578 83.1962 13.8751C82.7301 13.7427 82.2473 13.6765 81.7646 13.693V13.4944C80.5828 12.9482 79.118 13.3785 78.1525 14.2392C77.1871 15.0999 76.6045 16.3082 76.1384 17.533C75.0065 20.5123 74.1076 23.5744 72.8592 26.504C71.6107 29.4336 69.8629 32.3136 66.8501 33.3729L66.8168 33.3067C67.8322 32.7771 68.6811 31.9329 69.297 30.9729C70.1459 29.6654 70.5953 28.1426 70.9449 26.6199C71.1946 25.544 71.3777 24.4681 71.5608 23.3757C71.9769 20.9261 72.3431 18.4764 73.1754 16.1758L73.0922 16.1427C71.9936 17.1358 70.7785 17.9468 69.4967 18.6585C65.8513 20.6613 61.6233 21.7702 57.7116 23.3757C55.8639 24.1371 54.0329 25.0309 52.6346 26.4543L52.6846 26.504C52.6846 26.504 52.618 26.5868 52.618 26.6364C52.618 26.9343 52.618 27.2323 52.6513 27.5302H52.6679C52.851 28.1923 53.1673 28.7881 53.65 29.2185L53.5668 29.3509C53.7832 30.0792 53.8331 31.2543 53.9163 31.9991C54.1494 34.0019 53.5002 36.0047 52.5514 37.7757L52.6013 37.8088C50.787 41.1853 47.2581 45.2901 45.9431 46.6474C44.7113 45.3729 42.9968 46.5315 42.4807 47.0446C41.765 47.7398 40.8994 48.5508 40.0005 49.3784C39.6843 49.1136 39.4179 48.8156 39.1849 48.4846C37.9032 47.3094 37.4038 45.3729 37.4371 43.6019C37.4371 42.7246 37.5869 41.8143 38.0197 41.0364C38.0363 41.0033 38.053 40.9702 38.0863 40.937C37.9032 40.275 38.2028 39.5302 38.5524 38.9177C38.9186 38.3053 39.3347 37.7426 39.8174 37.2129C39.9007 37.1136 40.0172 37.0143 40.1337 36.9646L40.0838 36.8488C40.8495 36.5674 41.6152 36.286 42.281 36.0047C42.797 35.8722 43.1965 35.4916 43.4795 35.0447C43.7625 34.5978 43.9289 34.1012 44.0954 33.6047C44.0954 33.6047 44.0954 33.5881 44.0954 33.5716C44.8944 29.4833 42.8636 25.395 43.1799 21.2737C44.0454 9.60474 52.568 -5.40762 66.4173 -2.67659V-2.64349C67.5325 -2.79245 68.6644 -2.72625 69.7464 -2.46142C74.2907 -2.75935 79.0347 0.832361 82.5803 4.80476C83.9785 6.37717 85.177 7.99923 86.1092 9.45578H86.1924Z" fill="#F4C3AB"/>
<path d="M45.5479 46.5196C45.5479 46.5196 45.5146 46.4865 45.498 46.4699C44.2662 45.1955 42.5517 46.3541 42.0357 46.8672C41.3199 47.5624 40.4543 48.3734 39.5555 49.201C38.3403 50.3099 37.0919 51.4685 36.1265 52.3954" stroke="#824236" stroke-width="0.879316" stroke-linecap="round" stroke-linejoin="round"/>
<path d="M74.0458 27.386C74.1956 27.3198 74.3455 27.3529 74.4453 27.5846C74.4786 27.6508 74.4453 27.7335 74.4453 27.7997C74.3621 28.1804 74.1623 28.5777 73.896 28.8756C73.7629 29.0246 73.2801 29.306 73.1802 28.9584C73.1636 28.8922 73.1802 28.8094 73.1802 28.7432C73.2635 28.2797 73.5298 27.9156 73.8294 27.568C73.896 27.4853 73.9793 27.4191 74.0458 27.386Z" stroke="#824236" stroke-width="0.879316" stroke-linecap="round" stroke-linejoin="round"/>
<path d="M81.1699 31.1927C81.1699 31.1927 81.2032 31.1927 81.2198 31.1927C81.4029 31.2259 81.1532 31.7886 81.0866 31.9045C81.0201 32.0203 80.7704 32.4341 80.6705 32.219C80.5873 32.0369 80.9368 31.2755 81.1699 31.2093V31.1927Z" stroke="#824236" stroke-width="0.879316" stroke-linecap="round" stroke-linejoin="round"/>
<path d="M74.5786 22.4867C75.9269 22.6191 75.9768 22.7681 76.7425 23.4301" stroke="#824236" stroke-width="0.879316" stroke-linecap="round" stroke-linejoin="round"/>
<path d="M79.3059 30.8784C79.0728 31.5239 78.9397 32.2191 79.0229 32.9143C79.1228 33.7253 79.6721 34.4701 79.6554 35.2977C79.6554 36.2908 78.7732 37.0522 77.9409 37.4991" stroke="#824236" stroke-width="0.879316" stroke-linecap="round" stroke-linejoin="round"/>
<path d="M82.5518 26.2605C82.918 26.2936 83.2842 26.4591 83.5671 26.6908" stroke="#824236" stroke-width="0.879316" stroke-linecap="round" stroke-linejoin="round"/>
<path d="M84.4658 15.6674C84.9153 16.1308 85.1816 16.7763 85.348 17.5377C85.7642 19.5239 85.3314 22.2549 84.6822 24.357C84.6156 24.5556 84.549 24.7542 84.4825 24.9363" stroke="#824236" stroke-width="0.879316" stroke-linecap="round" stroke-linejoin="round"/>
<path d="M79.9882 38.575C79.9882 38.575 79.955 38.6577 79.9383 38.7074C78.4568 42.5142 72.8805 47.5791 68.8856 48.4894C67.2376 48.8701 65.4898 48.4397 64.0084 47.5791C63.7587 47.4301 63.509 47.2811 63.2759 47.0991C61.678 45.9404 60.08 44.997 59.0146 43.3418" stroke="#824236" stroke-width="0.879316" stroke-linecap="round" stroke-linejoin="round"/>
<path d="M53.0221 35.6949C52.8224 36.2908 52.5227 36.9529 52.1565 37.648C50.3422 41.0246 46.8133 45.1294 45.4983 46.4866C45.465 46.5197 45.4317 46.5528 45.3984 46.5859C45.2319 46.7515 45.1154 46.8673 45.0488 46.917" stroke="#824236" stroke-width="0.879316" stroke-linecap="round" stroke-linejoin="round"/>
<path d="M71.6987 1.18469C75.0445 3.22055 77.1752 5.23985 79.4889 8.38467" stroke="#824236" stroke-width="0.879316" stroke-linecap="round" stroke-linejoin="round"/>
<path d="M33.8963 53.7694C33.7798 53.786 33.6632 53.8025 33.5467 53.8356C33.1306 53.9018 32.7144 53.9846 32.2983 54.0673C30.0345 54.4977 27.7873 55.0439 25.5734 55.6563C23.6758 56.186 21.7449 56.8149 20.1469 58.0397C16.3184 60.9859 14.0546 66.9611 12.0904 71.1983C5.81497 84.8203 4.21698 99.4851 2.61899 114.233C2.10298 118.966 1.68684 123.717 1.37057 128.467C1.17082 131.562 0.321888 136.015 2.15292 138.878C2.31937 139.143 2.50248 139.391 2.71888 139.623" stroke="#824236" stroke-width="0.879316" stroke-linecap="round" stroke-linejoin="round"/>
<path d="M30.3506 79.6892C29.6681 92.1857 25.6731 105.742 22.8101 118.404" stroke="#824236" stroke-width="0.879316" stroke-linecap="round" stroke-linejoin="round"/>
<path d="M16.9839 120.489C18.9481 119.844 20.9622 119.397 22.9763 119.016C24.591 118.702 26.2056 118.42 27.8202 118.106C31.4157 117.394 38.6233 113.173 39.4556 115.391" stroke="#824236" stroke-width="0.879316" stroke-linecap="round" stroke-linejoin="round"/>
<path d="M37.8579 116.368C37.8579 116.533 37.8579 116.732 37.8579 116.947C37.9245 119.893 38.9399 126.63 41.1205 130.403C41.5699 131.198 42.0859 131.86 42.6352 132.323" stroke="#824236" stroke-width="0.879316" stroke-linecap="round" stroke-linejoin="round"/>
<path d="M4.6167 140.997C5.04949 141.278 5.58215 141.526 6.1481 141.725C8.56173 142.586 11.9075 142.784 14.2379 142.751C16.0689 142.718 17.8833 142.503 19.6811 142.172C23.5096 141.46 27.2382 140.202 30.8836 138.911C33.6302 137.934 45.2822 135.717 44.9992 132.323L44.4832 128.947L44.4499 128.715" stroke="#824236" stroke-width="0.879316" stroke-linecap="round" stroke-linejoin="round"/>
<path d="M38.3242 116.533C38.3242 116.533 38.4074 116.484 38.4407 116.467C38.9734 116.153 39.5061 115.838 40.0387 115.54C44.4332 113.057 48.8942 110.955 53.2554 108.357C54.1044 107.844 54.9699 107.347 55.8189 106.834C56.4514 106.47 57.0673 106.089 57.6998 105.725C57.7997 105.659 57.9162 105.593 58.0161 105.543" stroke="#824236" stroke-width="0.879316" stroke-linecap="round" stroke-linejoin="round"/>
<path d="M38.3076 116.55C38.3076 116.55 38.3076 116.55 38.3248 116.55" stroke="#824236" stroke-width="0.879316" stroke-linecap="round" stroke-linejoin="round"/>
<path d="M41.936 129.957C42.2689 129.708 42.6019 129.477 42.9681 129.228C43.4508 128.897 43.9502 128.566 44.4662 128.219C50.6417 124.147 58.9979 119.777 64.0582 115.341" stroke="#824236" stroke-width="0.879316" stroke-linecap="round" stroke-linejoin="round"/>
<path d="M44.0669 47.3802C44.0669 47.5623 44.0669 47.7444 44.0835 47.9265C44.3499 52.5609 46.6303 57.7581 48.9108 61.7471C52.6561 68.285 56.7176 74.6408 59.9136 81.6422C61.5948 85.3167 63.0264 89.1567 64.075 93.3111" stroke="#824236" stroke-width="0.879316" stroke-linecap="round" stroke-linejoin="round"/>
<path d="M61.894 53.6536C64.8403 56.1032 67.8033 59.6287 69.5844 63.088C69.6842 63.2866 69.7841 63.4687 69.8673 63.6673" stroke="#824236" stroke-width="0.879316" stroke-linecap="round" stroke-linejoin="round"/>
<path d="M61.2783 59.1984C61.2783 59.1984 61.3116 59.2977 61.3283 59.3308C63.6254 65.8521 66.8213 71.6287 70.1338 77.4714C71.8816 80.5666 73.6627 83.6783 75.3606 86.9224C75.3939 86.9886 75.4438 87.0714 75.4771 87.1541" stroke="#824236" stroke-width="0.879316" stroke-linecap="round" stroke-linejoin="round"/>
<path d="M58.9646 104.152C60.8123 101.421 62.66 98.707 64.5076 95.976C64.5742 95.8766 64.6408 95.7773 64.7074 95.678C65.29 94.8173 65.8726 93.9567 66.6716 93.278C68.2196 91.9374 70.3336 91.4739 72.3478 91.0767C73.5795 90.8284 74.828 90.5801 76.0764 90.7125C76.2262 90.7125 76.376 90.7456 76.5092 90.7787C77.6078 90.9939 78.6565 91.5567 79.2224 92.4836" stroke="#824236" stroke-width="0.879316" stroke-linecap="round" stroke-linejoin="round"/>
<path d="M77.1753 94.023C77.1753 94.023 77.3251 93.9237 77.4083 93.8741C78.0409 93.4603 78.6901 93.0465 79.3226 92.6327C79.3892 92.5996 79.4391 92.5499 79.5057 92.5168C80.2714 92.0203 81.0205 91.5237 81.7862 91.0272C83.8835 89.6534 85.9809 88.2961 88.0782 86.9224C91.8735 84.4562 95.935 81.8906 100.479 81.7748C102.493 81.7251 104.491 82.172 106.455 82.6024C106.838 82.6851 107.271 82.8341 107.354 83.2148C107.404 83.4962 107.221 83.7444 107.038 83.9596C106.971 84.0424 106.888 84.1251 106.821 84.2079C105.922 85.2175 104.84 86.0782 103.659 86.7403C103.492 86.8396 103.342 86.9224 103.176 87.0051" stroke="#824236" stroke-width="0.879316" stroke-linecap="round" stroke-linejoin="round"/>
<path d="M71.2158 95.4298C72.9636 95.1981 74.6948 94.9002 76.4093 94.5361C81.8025 93.4106 87.0625 91.6726 92.0563 89.3554C94.0371 88.4285 96.0346 87.4023 98.1985 87.0713C98.7645 86.9885 99.3637 86.9554 99.8964 87.1871C100.429 87.4188 100.829 87.9982 100.712 88.5444C100.596 89.0575 100.096 89.3719 99.6467 89.6368C98.1819 90.4975 96.7004 91.3581 95.2189 92.1857C91.3738 94.3374 87.462 96.3733 83.4837 98.2767" stroke="#824236" stroke-width="0.879316" stroke-linecap="round" stroke-linejoin="round"/>
<path d="M95.2024 92.8147C95.2024 93.7747 94.7197 94.6188 94.0539 95.3637C93.7209 95.7443 93.3381 96.0919 92.9719 96.423C90.3918 98.7236 87.6786 100.958 84.5159 102.365" stroke="#824236" stroke-width="0.879316" stroke-linecap="round" stroke-linejoin="round"/>
<path d="M84.1499 105.924C85.2818 105.195 86.4304 104.45 87.529 103.656C90.0924 101.802 92.4228 99.6836 93.7378 96.8533" stroke="#824236" stroke-width="0.879316" stroke-linecap="round" stroke-linejoin="round"/>
<path d="M65.54 114.795C68.3532 114.017 71.1829 113.223 73.9961 112.445C74.8949 112.197 75.8104 111.948 76.7093 111.667C78.4738 111.121 80.2049 110.508 81.8195 109.631C82.0526 109.499 82.269 109.383 82.502 109.251C84.666 107.96 86.5636 106.139 87.5623 103.838" stroke="#824236" stroke-width="0.879316" stroke-linecap="round" stroke-linejoin="round"/>
<path d="M71.5156 67.9541C71.7653 68.881 71.9984 69.692 72.248 70.4369C73.1802 73.2672 74.2122 75.1044 75.96 78.2989C77.4748 81.0796 79.0062 83.8603 80.521 86.6409C80.6708 86.9058 80.8206 87.1871 80.9704 87.452" stroke="#824236" stroke-width="0.879316" stroke-linecap="round" stroke-linejoin="round"/>
<path d="M70.6003 39.0715C70.6503 40.6274 72.3814 42.117 73.9128 41.9184" stroke="#824236" stroke-width="0.879316" stroke-linecap="round" stroke-linejoin="round"/>
<path d="M63.2094 49.0024C63.043 49.3666 62.8765 49.7307 62.7267 50.1114C62.2939 51.2038 61.9444 52.3128 61.678 53.4548C61.4117 54.6797 61.2452 55.9376 61.1953 57.1955C61.1953 57.3114 61.1953 57.4107 61.1953 57.5265" stroke="#824236" stroke-width="0.879316" stroke-linecap="round" stroke-linejoin="round"/>
<path d="M35.5942 55.3583C35.9438 58.1059 36.4432 60.8534 37.0757 63.5514C37.109 63.7003 37.1589 63.8824 37.2754 63.9817C37.392 64.081 37.5584 64.081 37.7082 64.081C39.4227 64.081 41.1206 64.081 42.8351 64.0976" stroke="#824236" stroke-width="0.879316" stroke-linecap="round" stroke-linejoin="round"/>
<path d="M44.4998 65.2892C43.551 66.2657 42.6188 67.2423 41.67 68.2188C41.3371 68.5664 41.0042 68.9305 40.8544 69.3774C40.6047 70.1885 41.0541 71.0326 41.4869 71.7609C47.2463 81.6091 50.8085 89.9512 54.2708 100.677C54.3707 100.975 54.4539 101.256 54.5538 101.554" stroke="#824236" stroke-width="0.879316" stroke-linecap="round" stroke-linejoin="round"/>
<path d="M65.6729 117.311C65.9725 124.197 65.6396 142.039 63.7254 149.057C63.6921 149.19 63.6588 149.306 63.6255 149.438" stroke="#824236" stroke-width="0.879316" stroke-linecap="round" stroke-linejoin="round"/>
<path d="M76.9589 113.935C77.0421 121.863 76.7591 139.54 75.1611 147.303" stroke="#824236" stroke-width="0.879316" stroke-linecap="round" stroke-linejoin="round"/>
<path d="M82.9012 109.4C84.6823 119.215 80.2878 139.342 82.2686 147.882" stroke="#824236" stroke-width="0.879316" stroke-linecap="round" stroke-linejoin="round"/>
<path d="M77.4747 -4.52551C77.3582 -3.81379 77.8409 -3.15173 78.257 -2.57242C79.4722 -0.917252 80.5375 0.853777 81.4364 2.69101C81.4364 2.69101 81.4364 2.72412 81.453 2.74067" stroke="#824236" stroke-width="0.879316" stroke-linecap="round" stroke-linejoin="round"/>
<path d="M80.7207 -4.93945C80.8872 -4.79049 81.0536 -4.62497 81.2201 -4.47601C82.352 -3.40015 83.384 -2.22498 84.3162 -0.967053C84.7157 -0.420848 85.0985 0.14191 85.4647 0.721218" stroke="#824236" stroke-width="0.879316" stroke-linecap="round" stroke-linejoin="round"/>
<path d="M85.981 9.26196C85.981 9.26196 86.0808 9.39437 86.1308 9.46058C87.6289 11.3806 89.7595 12.804 92.1232 13.4495" stroke="#824236" stroke-width="0.879316" stroke-linecap="round" stroke-linejoin="round"/>
<path d="M87.562 -1.00024C90.3418 0.406648 93.2216 1.94595 94.986 4.51146" stroke="#824236" stroke-width="0.879316" stroke-linecap="round" stroke-linejoin="round"/>
<path d="M97.4497 -8.81262C97.5496 -8.68021 97.6495 -8.53124 97.7327 -8.39883C101.178 -3.30092 102.177 3.20389 102.726 9.36111C102.726 9.47697 102.743 9.60938 102.76 9.72524" stroke="#824236" stroke-width="0.879316" stroke-linecap="round" stroke-linejoin="round"/>
<path d="M93.9705 15.0383C96.7836 22.9169 98.1818 29.4052 99.6633 36.3734C99.863 37.3169 100.063 38.2769 100.279 39.2534" stroke="#824236" stroke-width="0.879316" stroke-linecap="round" stroke-linejoin="round"/>
<path d="M102.976 11.4467C103.143 11.7777 103.309 12.0922 103.475 12.4232C106.638 18.7956 108.702 25.5818 111.415 32.1197C111.898 33.2783 112.398 34.4369 112.93 35.579C113.013 35.7445 113.08 35.91 113.163 36.0921" stroke="#824236" stroke-width="0.879316" stroke-linecap="round" stroke-linejoin="round"/>
<path d="M99.5636 36.3239C99.3638 36.4728 99.1974 36.6218 99.0309 36.7707C97.899 37.7638 97.4496 38.6411 97.7159 40.2962C97.9489 41.7693 98.182 43.2424 98.4317 44.7155C98.7313 46.5859 99.0309 48.4562 99.3638 50.31C99.7467 52.4948 100.063 54.6962 100.429 56.8976C100.978 60.2576 101.112 63.8162 100.978 67.3086C100.962 67.9541 100.929 68.5996 100.879 69.2451" stroke="#824236" stroke-width="0.879316" stroke-linecap="round" stroke-linejoin="round"/>
<path d="M99.8965 39.2702C100.08 39.4191 100.246 39.5681 100.429 39.6839C101.961 40.7598 103.559 40.7433 105.573 40.495C107.82 40.2302 109.934 39.1874 111.748 37.8467C112.281 37.4495 112.814 36.986 113.146 36.4398C113.346 36.1088 113.463 35.7447 113.479 35.3474" stroke="#824236" stroke-width="0.879316" stroke-linecap="round" stroke-linejoin="round"/>
<path d="M111.665 31.9873C111.898 32.0866 112.114 32.1859 112.331 32.2852C113.712 32.9804 114.894 34.0232 115.493 35.4466C116.193 37.1018 116.442 38.9059 116.675 40.6769C118.157 51.5845 119.655 62.4755 121.136 73.383C121.236 74.0616 121.319 74.7403 121.236 75.4189C120.953 77.6368 118.889 79.143 117.008 80.3678C115.161 81.5761 108.769 83.1154 106.921 84.3237" stroke="#824236" stroke-width="0.879316" stroke-linecap="round" stroke-linejoin="round"/>
<path d="M70.0842 63.8989C70.0842 63.8989 70.1675 63.8989 70.2174 63.8989C73.2802 64.1306 77.3917 65.6203 80.2048 66.7458C83.7837 68.1693 87.7453 68.6162 91.5406 68.0368C93.9708 67.6562 98.4152 67.1927 100.879 67.3086" stroke="#824236" stroke-width="0.879316" stroke-linecap="round" stroke-linejoin="round"/>
<path d="M60.2129 81.5761C62.2437 81.3113 66.222 80.3016 67.9864 78.9113C68.103 78.8119 68.2195 78.7292 68.3027 78.6299" stroke="#824236" stroke-width="0.879316" stroke-linecap="round" stroke-linejoin="round"/>
<path d="M19.7809 142.519C19.731 142.983 19.6644 143.43 19.5978 143.893C19.3148 145.697 18.8487 147.468 18.2328 149.173C18.2162 149.239 18.1829 149.306 18.1663 149.372" stroke="#824236" stroke-width="0.879316" stroke-linecap="round" stroke-linejoin="round"/>
<path d="M91.5737 26.0619C92.6224 26.6246 93.8375 26.8398 95.0194 26.6578" stroke="#824236" stroke-width="0.879316" stroke-linecap="round" stroke-linejoin="round"/>
<path d="M81.3035 13.3337C80.1216 12.7875 78.6568 13.2178 77.6913 14.0785C76.7259 14.9392 76.1433 16.1475 75.6772 17.3723C74.5453 20.3516 73.6464 23.4137 72.398 26.3433C71.1496 29.2729 69.4018 32.1529 66.3889 33.2122" stroke="#824236" stroke-width="0.879316" stroke-linecap="round" stroke-linejoin="round"/>
<path d="M52.2236 27.3528C52.4067 28.0148 52.723 28.6107 53.2057 29.0411C53.2723 29.1073 53.3389 29.1569 53.4221 29.2231" stroke="#824236" stroke-width="0.879316" stroke-linecap="round" stroke-linejoin="round"/>
<path d="M72.6475 15.9818C71.5489 16.9749 70.3338 17.7859 69.0521 18.4977C65.4067 20.5004 61.1787 21.6094 57.2669 23.2149C55.4192 23.9763 53.5882 24.8701 52.19 26.2935C52.14 26.3432 52.0901 26.3928 52.0402 26.4425C50.6253 27.9487 49.793 30.1169 50.3589 32.1031" stroke="#824236" stroke-width="0.879316" stroke-linecap="round" stroke-linejoin="round"/>
<path d="M42.2192 35.6617C42.1026 35.7114 41.9695 35.7611 41.853 35.8107C41.1705 36.0921 40.4214 36.3569 39.6557 36.6548C37.625 37.4162 35.5276 38.3266 34.6953 39.9817" stroke="#824236" stroke-width="0.879316" stroke-linecap="round" stroke-linejoin="round"/>
<path d="M69.3184 -2.63869C69.3184 -2.63869 69.335 -2.63869 69.3517 -2.63869C73.8959 -2.93662 78.64 0.655093 82.1855 4.62749C83.5837 6.1999 84.7822 7.82197 85.7144 9.27851C86.0307 9.77506 86.3136 10.2551 86.5633 10.702C91.1409 18.9943 90.6415 29.1405 85.4481 37.0357C83.4672 40.0481 79.0894 43.8218 80.9038 47.8108C80.9204 47.8605 80.9537 47.8936 80.9704 47.9432" stroke="#824236" stroke-width="0.879316" stroke-linecap="round" stroke-linejoin="round"/>
<path d="M43.6672 33.4935C43.6672 33.4935 43.6672 33.4273 43.6839 33.3942C44.4829 29.3059 42.4521 25.2177 42.7684 21.0963C43.634 9.42738 52.1566 -5.58499 66.0058 -2.85396" stroke="#824236" stroke-width="0.879316" stroke-linecap="round" stroke-linejoin="round"/>
<path d="M54.6201 24.7874C55.0862 25.1018 55.469 25.5156 55.7354 26.0122" stroke="#824236" stroke-width="0.879316" stroke-linecap="round" stroke-linejoin="round"/>
<path d="M40.4379 38.5583C39.3892 39.1211 38.2906 39.7335 37.6581 40.7432C37.6414 40.7763 37.6081 40.8094 37.5915 40.8425C37.142 41.6039 37.0089 42.5142 37.0089 43.408C36.9756 45.1956 37.4749 47.1156 38.7567 48.2907C38.9398 48.4728 39.1562 48.6218 39.3726 48.7542" stroke="#824236" stroke-width="0.879316" stroke-linecap="round" stroke-linejoin="round"/>
<path d="M69.1353 26.4259C67.1045 29.8355 63.6255 32.3845 59.7471 33.2948" stroke="#824236" stroke-width="0.879316" stroke-linecap="round" stroke-linejoin="round"/>
<path d="M61.3286 59.3307C61.3619 59.6286 61.3952 59.9265 61.4285 60.2245" stroke="#824236" stroke-width="0.879316" stroke-linecap="round" stroke-linejoin="round"/>
</svg>
