<svg width="79" height="104" viewBox="0 0 79 104" fill="none" xmlns="http://www.w3.org/2000/svg">
<path d="M20.4997 49.9311L20.5241 49.6996C20.0976 49.7727 19.6345 49.8702 19.1714 49.9799H19.1349C16.917 50.5039 14.3335 51.4788 11.9816 53.3554C10.0318 54.9031 9.43472 56.1095 9.30068 56.4019C8.89853 57.255 8.72793 58.0714 8.56951 61.8979C8.48421 64.0426 8.43546 65.1272 8.44765 66.6505C8.47202 70.1479 8.65481 72.7801 8.69137 73.365C9.21537 81.091 9.31286 84.954 8.93509 86.0508C8.33797 87.7446 7.5 90 7 92C6.66177 92.5877 6.79294 93.2692 7.0001 94.5C7.23164 95.8161 8 96.9029 8 97.5C8.03656 101.863 8.50858 101.941 8.63044 103.623C8.78886 105.744 8.93509 107.791 10.2878 109.521C11.6526 111.276 13.5902 111.873 14.3945 112.117C18.6109 113.409 22.4982 111.276 35.4155 106.353C36.9997 105.744 38.5473 105.073 40.095 104.354C40.1925 104.379 40.29 104.403 40.3874 104.427V49.2L28.5913 44.228L26.1053 44.557L24.1677 48.8344L20.5119 49.9189L20.4997 49.9311Z" fill="#EFEDED"/>
<path d="M72.985 96.0066C72.9241 94.8002 72.8754 94.788 72.7291 92.9845C72.2051 86.4405 72.656 84.9295 72.0954 79.3604C71.8761 77.1425 71.7908 77.301 71.5958 75.0709C71.279 71.5735 71.4374 70.6961 71.0962 67.2474C70.8281 64.5055 70.694 64.798 70.5966 62.9579C70.3894 59.4239 70.8647 58.6318 70.3407 57.0355C69.7435 55.171 68.4152 54.0986 66.6848 52.7459C65.1128 51.5151 62.115 49.541 57.4721 48.5783L52.9023 46.2995L51.1353 43.7404L46.7118 42.1318L40.375 49.1998V104.439C41.1915 104.647 41.8008 104.988 42.337 105.268C42.337 105.268 56.1195 112.153 66.0511 111.763C67.4282 111.715 69.1342 111.446 70.4625 110.252C71.7908 109.046 72.0711 107.51 72.6073 104.452C73.2288 100.942 73.0947 98.0052 72.985 96.0066Z" fill="#EFEDED"/>
<path d="M40.3628 104.354C40.3628 104.354 56.0951 112.153 66.0389 111.763C67.416 111.714 69.122 111.446 70.4503 110.252C71.7786 109.045 72.0589 107.51 72.5951 104.451C73.2165 100.942 73.0825 98.0048 72.9728 96.0063C72.9119 94.7999 72.8632 94.7877 72.7169 92.9842C72.1929 86.4402 72.6438 84.9291 72.0832 79.3601C71.8639 77.1422 71.7786 77.3006 71.5836 75.0706C71.2668 71.5732 71.4252 70.6958 71.084 67.2471C70.8159 64.5052 70.694 64.7977 70.5844 62.9576C70.3772 59.4236 70.8524 58.6315 70.3284 57.0351C69.7313 55.1707 68.403 54.0983 66.6726 52.7456C65.1006 51.5148 62.1028 49.5407 57.4599 48.578C57.4599 48.578 53.2801 47.2984 52.3539 45.6411" stroke="#824236" stroke-width="0.52" stroke-linecap="round" stroke-linejoin="round"/>
<path d="M52.9268 81.1639C53.5726 80.2621 54.0235 79.4822 54.3282 78.946C55.0106 77.7153 55.1203 77.2156 55.7783 76.6794C56.1926 76.3382 56.1804 76.521 57.5575 75.8142C57.8987 75.6436 58.7395 75.2049 59.7266 74.559C60.8965 73.8035 60.7015 73.7791 61.0793 73.6451C62.2735 73.1942 62.5903 74.035 64.4061 73.8401C64.9301 73.7791 65.6369 73.6329 66.429 73.9376C66.6971 74.035 66.8311 74.1325 66.9164 74.2788C67.1845 74.7418 66.8067 75.5583 66.2949 76.0092C65.7953 76.4357 65.2104 76.4966 64.1258 76.5819C62.895 76.6916 62.6513 76.4966 62.0542 76.7769C61.4449 77.0572 61.4936 77.3619 60.8477 77.7396C59.8485 78.3367 58.7395 78.2149 58.7273 78.1783C58.7273 78.1296 60.47 78.1783 62.9194 77.4593C64.3695 77.0328 64.7838 76.716 68.0253 75.5827C68.6468 75.3633 69.573 75.0587 70.7672 75.144C71.279 75.1805 72.5708 75.2902 72.7901 75.9117C73.046 76.6551 71.7177 77.898 70.5722 78.5561C69.1708 79.3726 67.9644 79.3604 66.3802 80.6277C66.039 80.8958 65.7953 81.1395 65.8562 81.298C65.9781 81.627 67.3551 81.4808 68.4031 81.2005C69.5852 80.8836 69.7558 80.5668 71.145 80.189C72.193 79.8966 72.8145 79.7381 73.2654 80.0915C73.8503 80.5546 73.7163 81.5661 73.7041 81.6757C73.6066 82.3703 73.1801 82.8212 72.9851 83.0284C72.3392 83.6986 71.669 83.8083 70.5722 84.1861C69.9264 84.4054 69.0124 84.771 67.9279 85.3438" fill="#FFF8F5"/>
<path d="M52.9268 81.1636C54.3769 81.2732 58.1546 92.8866 58.9223 92.9232C62.4807 93.0816 65.2713 93.045 66.892 93.2644C67.7451 93.3741 68.6225 93.5447 69.9142 93.4715C70.1823 93.4594 70.9135 93.4106 71.803 93.1303C72.6073 92.8866 73.2045 92.6916 73.57 92.1189C73.631 92.0092 74.0209 91.4121 73.7772 90.815C73.6188 90.4128 73.2532 90.23 73.1435 90.1813C72.6683 89.9498 72.2905 90.096 71.5837 90.1813C70.8282 90.2666 70.292 90.2057 69.3171 90.096C68.525 90.0107 67.611 89.901 67.5988 89.6817C67.5745 89.4501 68.4519 89.3161 70.4138 88.4996C70.8769 88.3046 71.3522 88.1097 71.8883 87.8294C73.1801 87.1591 73.5578 86.7692 73.6919 86.6108C73.9844 86.2817 74.3378 85.8796 74.4109 85.2703C74.5084 84.4051 73.96 83.7592 73.8259 83.5886C73.3872 83.0646 72.8511 82.8453 72.6073 82.76" fill="#FFF8F5"/>
<path d="M52.9268 81.1639C53.5726 80.2621 54.0235 79.4822 54.3282 78.946C55.0106 77.7153 55.1203 77.2156 55.7783 76.6794C56.1926 76.3382 56.1804 76.521 57.5575 75.8142C57.8987 75.6436 58.7395 75.2049 59.7266 74.559C60.8965 73.8035 60.7015 73.7791 61.0793 73.6451C62.2735 73.1942 62.5903 74.035 64.4061 73.8401C64.9301 73.7791 65.6369 73.6329 66.429 73.9376C66.6971 74.035 66.8311 74.1325 66.9164 74.2788C67.1845 74.7418 66.8067 75.5583 66.2949 76.0092C65.7953 76.4357 65.2104 76.4966 64.1258 76.5819C62.895 76.6916 62.6513 76.4966 62.0542 76.7769C61.4449 77.0572 61.4936 77.3619 60.8477 77.7396C59.8485 78.3367 58.7395 78.2149 58.7273 78.1783C58.7273 78.1296 60.47 78.1783 62.9194 77.4593C64.3695 77.0328 64.7838 76.716 68.0253 75.5827C68.6468 75.3633 69.573 75.0587 70.7672 75.144C71.279 75.1805 72.5708 75.2902 72.7901 75.9117C73.046 76.6551 71.7177 77.898 70.5722 78.5561C69.1708 79.3726 67.9644 79.3604 66.3802 80.6277C66.039 80.8958 65.7953 81.1395 65.8562 81.298C65.9781 81.627 67.3551 81.4808 68.4031 81.2005C69.5852 80.8836 69.7558 80.5668 71.145 80.189C72.193 79.8966 72.8145 79.7381 73.2654 80.0915C73.8503 80.5546 73.7163 81.5661 73.7041 81.6757C73.6066 82.3703 73.1801 82.8212 72.9851 83.0284C72.3392 83.6986 71.669 83.8083 70.5722 84.1861C69.9264 84.4054 69.0124 84.771 67.9279 85.3438" stroke="#824236" stroke-width="0.52" stroke-linecap="round" stroke-linejoin="round"/>
<path d="M58.4473 92.8986C59.8974 93.0083 61.0795 93.0692 61.8472 93.1058C65.4055 93.2642 65.2715 93.057 66.8922 93.2764C67.7453 93.3861 68.6227 93.5567 69.9144 93.4835C70.1825 93.4714 70.9137 93.4226 71.8032 93.1423C72.6075 92.8986 73.2046 92.7036 73.5702 92.1309C73.6312 92.0212 74.0211 91.4241 73.7774 90.827C73.619 90.4248 73.2534 90.242 73.1437 90.1933C72.6685 89.9618 72.2907 90.108 71.5839 90.1933C70.8284 90.2786 70.2922 90.2177 69.3173 90.108C68.5252 90.0227 67.6112 89.913 67.599 89.6937C67.5747 89.4621 68.4521 89.3281 70.414 88.5116C70.8771 88.3166 71.3524 88.1217 71.8885 87.8414C73.1803 87.1711 73.558 86.7812 73.6921 86.6228C73.9846 86.2937 74.338 85.8916 74.4111 85.2823C74.5086 84.4171 73.9602 83.7712 73.8261 83.6006C73.3874 83.0766 73.2046 83.1253 72.9487 83.04" stroke="#824236" stroke-width="0.52" stroke-linecap="round" stroke-linejoin="round"/>
<path d="M49.0518 82.9548C50.5506 82.1993 50.6116 82.0531 51.294 81.5047C51.8911 81.0294 52.2933 80.6029 52.9269 80.5907C53.6337 80.5663 54.1699 81.0538 54.9011 81.7484C56.9118 83.6372 57.9233 84.5878 57.9842 84.6853C58.9713 86.1963 59.1419 87.5612 59.4343 89.8887C59.7268 92.3016 59.41 93.0571 59.1906 93.3618C58.2766 94.6291 56.2416 95.2872 54.6574 96.2011C54.243 96.4327 55.1326 93.6542 54.2065 90.169C53.2803 86.6838 50.7213 82.9426 49.7707 83.1985" fill="#828282"/>
<path d="M49.0518 82.9548C50.5628 82.2968 50.6116 82.0531 51.294 81.5047C51.8911 81.0294 52.2933 80.6029 52.9269 80.5907C53.6337 80.5663 54.1699 81.0538 54.9011 81.7484C56.9118 83.6372 57.9232 84.5878 57.9842 84.6853C58.9713 86.1963 59.1419 87.5612 59.4343 89.8887C59.7268 92.3016 59.3856 93.0327 59.1906 93.3618C59.0687 93.5567 58.7153 94.1295 57.119 95.0434C56.2294 95.5553 55.2057 95.9574 54.3405 96.2133" stroke="#824236" stroke-width="0.52" stroke-linecap="round" stroke-linejoin="round"/>
<path d="M20.5119 49.6992C18.0503 50.1135 14.8453 51.0762 11.9694 53.3551C10.0196 54.9027 9.42252 56.1091 9.28847 56.4016C8.88633 57.2546 8.71572 58.0711 8.5573 61.8975C8.472 64.0423 8.42326 65.1268 8.43544 66.6501C8.45981 70.1475 8.6426 72.7797 8.67916 73.3647C9.20317 81.0906 9.30066 84.9536 8.92289 86.0504C8.32577 87.7443 7.50002 90 6.99987 92C6.67573 93.2961 6.79281 93.7692 6.99997 95C7.23151 96.3161 7.82614 96.9029 7.82614 97.5C7.86269 101.863 8.43544 102 9.50005 103C9.65847 105.12 8.92289 107.79 10.2755 109.521C11.6404 111.276 13.578 111.873 14.3823 112.116C18.5987 113.408 22.486 111.276 35.4033 106.352C41.2039 104.147 46.578 100.942 52.3176 98.5777C52.4395 98.529 52.8416 98.3706 53.256 98.005C54.0602 97.286 54.304 96.3355 54.4136 95.9211C54.7183 94.7147 55.2301 90.5105 52.4029 86.1357C51.5377 84.783 50.3313 82.9673 48.5887 82.8942C47.8088 82.8576 47.2238 83.1867 46.712 83.4669C44.6891 84.5759 42.4591 85.3192 40.5215 86.5622C40.1803 86.7816 31.8693 91.4732 24.4236 92.1313" stroke="#824236" stroke-width="0.52" stroke-linecap="round" stroke-linejoin="round"/>
<path d="M46.9312 20.8789C47.1993 19.8675 47.2237 19.1972 47.2237 19.1972C47.2846 17.3693 47.7599 16.4919 47.7599 13.7622C47.7599 11.5931 47.5405 10.6182 47.2115 9.75298C46.6387 8.21753 46.2366 7.90069 45.7126 7.35232C45.4445 7.07204 45.9563 6.98674 45.9929 6.3165C46.0051 6.08496 46.0294 5.75594 45.8467 5.45129C45.6395 5.09789 45.2861 4.97603 44.7865 4.78105C43.641 4.35454 43.0682 4.11081 42.9585 4.0377C42.4102 3.67211 42.532 3.48932 41.6546 2.69722C41.2281 2.30727 40.96 2.06355 40.5213 1.83201C39.9729 1.53954 39.4977 1.45424 38.73 1.32019C37.9988 1.18615 37.4382 1.16177 37.0239 1.14959C36.5121 1.12522 36.4512 1.14959 35.1716 1.16177C33.7093 1.18615 33.6605 1.16177 33.1731 1.19833C32.7588 1.23489 32.1616 1.29582 31.4061 1.51517C30.9552 1.64922 30.4556 1.79545 29.8585 2.14885C29.6757 2.25852 29.2857 2.55099 28.5058 3.1603C28.2012 3.39183 28.0793 3.48932 27.9331 3.64774C27.6406 3.94021 27.5919 4.08644 27.3725 4.24486C27.08 4.45202 26.7876 4.48858 26.5926 4.51296C26.2026 4.5617 25.9711 4.4764 25.1181 4.22049C24.326 3.98895 23.936 3.87928 23.6923 3.8549C23.5704 3.8549 23.0221 3.81835 22.364 4.04988C22.2421 4.08644 21.9497 4.19612 21.2551 4.65919C20.2924 5.30505 19.8049 5.62189 19.4759 6.17027C19.2809 6.49929 19.2078 6.80394 19.0616 7.41325C18.83 8.36377 18.9397 8.60749 18.7447 9.48489C18.5741 10.277 18.4766 10.1064 18.1964 11.1422C18.0258 11.8003 18.0867 11.7881 17.7698 13.3235C17.6114 14.0791 17.5749 14.2009 17.5627 14.5056C17.5261 15.322 17.7455 15.9435 17.7942 16.0898C18.172 17.1621 18.3913 16.8575 19.3784 17.6496C20.1583 18.2711 20.3655 18.5392 20.7676 18.8316C21.2307 19.1485 21.1454 20.0381 21.6694 19.6968C22.6077 19.0997 22.1325 18.0395 23.0708 15.6998C23.6801 14.2009 24.3503 13.4697 24.6916 13.1407C25.3618 12.4949 25.9711 12.2146 26.093 12.1536C26.9947 11.7393 27.7868 11.7271 28.3961 11.7271C29.4685 11.7149 30.2728 11.9343 30.5043 11.9952C36.4512 13.5794 38.7421 13.1773 40.3873 15.2611C41.0209 16.0654 41.0819 16.6138 42.4224 18.5514C43.2998 19.8187 43.4216 19.7943 43.8603 20.5986C44.1162 21.0861 44.2259 21.3542 44.5671 21.5857C45.1764 22 46.1635 22.0244 46.6144 21.537C46.6997 21.4395 46.7728 21.3298 46.8947 20.8545L46.9312 20.8789Z" fill="#9E7F6A"/>
<path d="M22.2786 17.0404C21.7668 18.0519 21.3646 18.3443 21.5352 19.1242C21.718 20.0016 21.2428 20.4525 21.5718 21.2202C22.2177 22.7313 22.6198 24.3277 23.1682 25.8632C24.0334 28.276 23.6069 27.9104 24.6671 31.0788C25.3495 33.1383 26.2025 35.3074 27.3602 35.9654C27.4821 36.0386 27.8355 36.2214 28.1157 36.6235C28.4691 37.1353 28.4813 37.6593 28.5057 38.1955C28.591 39.6091 28.7738 39.2679 28.9078 40.8764C28.9931 42.0341 29.0541 42.7287 28.9078 43.6671C28.786 44.4835 28.5422 45.1903 28.067 46.6161C27.6892 47.7372 27.5552 47.6885 27.5674 48.0175C27.6405 49.5164 28.9566 50.7838 29.2003 51.125C30.7723 53.3307 32.064 53.1235 35.4152 55.6826C36.3779 56.4137 36.7191 57.4008 37.2309 58.3391C37.9377 59.5943 37.5965 60.5936 38.4739 61.8853C38.608 62.0925 39.6804 63.6645 40.2409 63.4573C40.8746 63.2258 39.8266 61.081 40.8258 58.7535C41.5814 56.9987 43.1778 55.9263 43.7261 55.5607C44.9448 54.7442 45.091 54.5493 46.1024 53.7937C47.5282 52.7335 48.0157 51.3809 48.3081 50.7472C48.4787 50.3694 49.149 49.7114 49.5755 47.92C49.8801 46.6527 49.3196 46.3846 49.1611 45.9215C49.0027 45.4706 48.8321 45.3853 47.9425 44.6176C46.797 43.6427 46.858 43.1553 46.334 42.5216C45.8465 41.9488 45.6028 41.4248 45.3956 41.0105C44.7376 39.6213 44.6279 38.3905 44.5792 37.7812C44.4939 36.6844 44.6157 35.8192 44.6888 35.3561C44.8595 34.3812 45.0057 34.4544 45.3469 33.1017C45.81 31.2738 45.6759 30.6523 46.3218 30.0674C46.6386 29.7871 46.7483 29.8724 47.2967 29.4215C47.4917 29.2631 48.0157 28.8244 48.4787 28.0932C49.1246 27.094 49.283 26.1434 49.3683 25.5585C49.5267 24.5714 49.4292 23.8768 49.3074 22.9629C49.2221 22.3414 49.1246 22.0002 48.8687 21.6833C48.5275 21.2812 48.0766 21.1228 47.8694 21.0618C47.4429 20.9156 47.0773 20.9156 46.7239 20.9278C45.7856 20.94 45.749 21.1959 45.3103 21.0984C44.6035 20.9278 44.2136 20.1357 43.9089 19.4898C43.6774 19.0146 43.5312 18.7221 43.653 18.4053C43.848 17.8691 44.6035 17.7838 44.5914 17.5035C44.5792 17.2841 44.1039 17.1501 43.9089 17.0892C42.6903 16.7114 40.7771 15.6878 40.5456 14.4813C40.4359 13.9208 40.7527 13.6283 40.4846 13.2262C40.2531 12.8849 39.8997 12.9337 39.1929 12.6656C38.9492 12.5803 37.9865 12.2147 37.3162 11.4348C36.8532 10.8986 37.0238 10.7402 36.3901 9.88716C35.9636 9.31442 35.7199 8.98539 35.2568 8.77823C34.6962 8.53451 34.1722 8.63199 33.5264 8.74167C32.7586 8.87572 32.7586 9.03414 31.93 9.22911C31.0526 9.43628 30.9429 9.27786 29.773 9.47284C29.1028 9.58251 28.6276 9.66781 28.0304 9.91154C27.2749 10.2284 26.6412 10.4965 26.2878 11.1301C25.9954 11.642 26.1172 12.0319 25.7029 12.3244C25.4713 12.4828 25.386 12.3975 24.862 12.6169C24.6671 12.7022 24.3015 12.8484 23.9725 13.1287C23.6312 13.4211 23.4363 13.738 23.29 14.0183C22.6198 15.31 22.8391 15.9437 22.2908 17.016L22.2786 17.0404Z" fill="#FFF8F5"/>
<path d="M28.8227 44.2886C28.5059 44.2032 27.9088 44.0936 27.2141 44.2886C26.9948 44.3495 26.4586 44.5323 25.7762 45.2025C24.4601 46.5064 25.045 48.1759 23.9117 48.7609C23.5949 48.9193 23.3268 48.9193 23.1684 49.1996C22.949 49.5895 23.2537 50.0282 23.473 50.6741C23.7411 51.4784 23.5583 51.6002 23.7289 53.2332C23.8142 54.0984 23.9361 54.6955 24.1189 55.6216C24.6794 58.4854 25.2278 59.509 25.5934 60.0939C25.8615 60.5326 26.4099 61.3613 26.8486 61.2638C27.0801 61.2151 27.202 60.9226 27.4579 60.2645C27.86 59.2287 28.1281 58.461 28.2012 58.266C28.6521 57.023 28.9568 56.17 29.761 55.6582C29.956 55.5363 30.5044 55.2317 31.199 55.2682C31.9302 55.3048 32.4542 55.6826 32.8929 56.0116C33.3194 56.3162 33.6119 56.6453 33.8068 56.8768" stroke="#824236" stroke-width="0.52" stroke-linecap="round" stroke-linejoin="round"/>
<path d="M46.5291 28.4829C46.4194 30.0793 46.0782 31.2735 45.7857 32.0656C45.4445 33.004 45.1764 33.3574 44.8961 34.4541C44.5549 35.7702 44.5427 36.7695 44.5427 37.0376C44.5427 37.1472 44.5427 38.2927 44.8961 39.5723C45.5907 42.2045 47.3455 44.1786 48.0767 44.9342" stroke="#824236" stroke-width="0.52" stroke-linecap="round" stroke-linejoin="round"/>
<path d="M53.3287 48.3463C52.9997 47.213 52.6463 46.299 52.366 45.6532C51.842 44.4345 51.5983 44.1543 51.4399 44.008C51.0499 43.6181 50.6722 43.4475 49.1489 42.9357C48.4665 42.7041 47.6378 42.436 46.7117 42.1436" stroke="#824236" stroke-width="0.52" stroke-linecap="round" stroke-linejoin="round"/>
<path d="M46.7117 56.5971C47.5769 55.7684 48.2106 55.1226 48.6493 54.6595C48.9417 54.3548 49.1854 54.0868 49.5267 54.0868C50.1847 54.0868 50.6722 55.0129 50.7575 55.1835C51.184 56 50.9403 56.4021 51.1962 57.8279C51.2205 57.9741 51.5739 59.863 51.9883 59.8508C52.1223 59.8508 52.1954 59.668 52.4757 59.0587C53.0972 57.7182 53.1216 57.7548 53.2191 57.4745C53.6456 56.3656 53.4018 55.3419 53.3044 53.4653C53.2678 52.7097 53.2312 51.6252 53.3044 50.2969" stroke="#824236" stroke-width="0.52" stroke-linecap="round" stroke-linejoin="round"/>
<path d="M33.563 22.4023C33.6361 22.9142 33.6605 23.6575 33.2462 24.2668C32.8197 24.9005 32.2104 24.9736 32.0885 25.4732C32.0154 25.7901 32.1251 26.3141 33.1243 27.1671" stroke="#824236" stroke-width="0.52" stroke-linecap="round" stroke-linejoin="round"/>
<path d="M45.6519 21.8055C45.7372 21.6715 46.1637 20.989 46.9314 20.8794C47.8454 20.7575 48.5034 21.5496 48.7228 21.8055C49.5027 22.7316 49.4661 23.8771 49.4417 24.718C49.4174 25.376 49.3564 27.3014 47.8575 28.91C47.0411 29.7874 46.8827 29.7143 46.3586 29.8971" stroke="#824236" stroke-width="0.52" stroke-linecap="round" stroke-linejoin="round"/>
<path d="M47.1261 24.3154C46.9433 24.4007 46.4071 24.6932 46.1756 25.3147C46.1147 25.4975 46.0903 25.6559 46.0781 25.8021" stroke="#824236" stroke-width="0.52" stroke-linecap="round" stroke-linejoin="round"/>
<path d="M45.4932 7.09668C46.7971 8.52245 47.3089 9.85074 47.5526 10.716C48.0157 12.4586 47.7963 14.0915 47.3333 17.3696C47.1992 18.3323 47.053 19.1366 46.9555 19.6971" stroke="#824236" stroke-width="0.52" stroke-linecap="round" stroke-linejoin="round"/>
<path d="M45.8587 5.21995C44.6401 5.06153 43.8358 4.6472 43.324 4.31817C42.3979 3.70887 42.2638 3.19705 41.228 2.47807C40.314 1.84439 39.4854 1.5763 38.9492 1.40569C37.3163 0.893877 35.9758 0.97918 34.7937 1.06448C33.6604 1.1376 32.3443 1.24727 30.8089 1.91751C29.7243 2.39277 28.92 2.9777 28.4082 3.4164" stroke="#824236" stroke-width="0.52" stroke-linecap="round" stroke-linejoin="round"/>
<path d="M26.166 4.78151C25.8248 4.53779 24.8256 3.90411 23.4607 3.96504C22.4371 4.01379 21.7059 4.42811 21.316 4.64746C20.9626 4.85463 19.6708 5.61017 19.1712 7.04813C18.9275 7.75492 19.0981 7.97427 18.7812 9.36349C18.635 10.0094 18.4644 10.5334 18.3547 10.8624" stroke="#824236" stroke-width="0.52" stroke-linecap="round" stroke-linejoin="round"/>
<path d="M17.5747 14.2373C17.5503 14.6273 17.5747 15.2122 17.8428 15.8093C18.0865 16.3455 18.4033 16.6502 19.0492 17.2473C20.085 18.21 20.5359 18.3197 20.9868 19.063C21.2427 19.4773 21.3646 19.8795 21.4255 20.1476" stroke="#824236" stroke-width="0.52" stroke-linecap="round" stroke-linejoin="round"/>
<path d="M25.4229 12.5073C24.9477 12.5804 24.314 12.751 23.8631 13.2507C23.3269 13.8478 23.4 14.5058 23.1197 15.4198C22.9248 16.0535 22.5226 16.8943 21.6208 17.7961" stroke="#824236" stroke-width="0.52" stroke-linecap="round" stroke-linejoin="round"/>
<path d="M30.8577 10.679C31.0039 10.3743 31.3817 9.71627 32.1494 9.25319C32.2713 9.18008 33.4777 8.4611 34.7329 8.85105C36.0733 9.26538 36.1099 10.5206 37.6575 11.7757C38.5958 12.5434 39.5951 12.8847 40.3019 13.0674" stroke="#824236" stroke-width="0.52" stroke-linecap="round" stroke-linejoin="round"/>
<path d="M40.9111 14.957C41.2402 15.3957 41.8251 16.066 42.7512 16.59C43.3118 16.9068 43.8358 17.0896 44.2501 17.1993" stroke="#824236" stroke-width="0.52" stroke-linecap="round" stroke-linejoin="round"/>
<path d="M43.7019 18.8931C43.775 19.2099 43.9456 19.6852 44.3112 20.1848C44.5671 20.526 44.8474 20.7697 45.0546 20.9281" stroke="#824236" stroke-width="0.52" stroke-linecap="round" stroke-linejoin="round"/>
<path d="M28.9567 9.52143C28.8957 9.37519 28.1889 7.3523 29.4319 5.71936C30.1631 4.75665 31.1745 4.452 31.5401 4.3667" stroke="#824236" stroke-width="0.52" stroke-linecap="round" stroke-linejoin="round"/>
<path d="M26.7144 10.8134C26.6048 10.5088 26.1904 9.41201 25.0206 8.70521C24.07 8.13247 23.1439 8.14465 22.7783 8.15684" stroke="#824236" stroke-width="0.52" stroke-linecap="round" stroke-linejoin="round"/>
<path d="M34.5012 18.2471C35.0618 17.65 35.6467 17.4184 35.9392 17.321C37.0359 16.9797 38.023 17.3453 38.5105 17.5281C38.9126 17.6743 39.2294 17.8571 39.4366 17.9912" stroke="#824236" stroke-width="0.52" stroke-linecap="round" stroke-linejoin="round"/>
<path d="M27.9573 24.0716C28.3409 24.0716 28.6519 23.6079 28.6519 23.0358C28.6519 22.4638 28.3409 22 27.9573 22C27.5737 22 27.2627 22.4638 27.2627 23.0358C27.2627 23.6079 27.5737 24.0716 27.9573 24.0716Z" fill="#824236"/>
<path d="M37.1336 22.5975C37.5172 22.5975 37.8282 22.1338 37.8282 21.5617C37.8282 20.9896 37.5172 20.5259 37.1336 20.5259C36.75 20.5259 36.439 20.9896 36.439 21.5617C36.439 22.1338 36.75 22.5975 37.1336 22.5975Z" fill="#824236"/>
<path d="M23.1804 25.8755C23.7166 27.7156 23.7044 27.8984 24.0578 29.0926C24.9962 32.2123 25.5202 33.9305 26.8606 35.466C28.6032 37.4645 30.8455 38.1225 31.5888 38.3297C35.8296 39.5239 39.3392 37.5376 40.0094 37.1598C40.7894 36.7211 41.3743 36.2581 41.7642 35.929" stroke="#824236" stroke-width="0.52" stroke-linecap="round" stroke-linejoin="round"/>
<path d="M25.9099 20.611C26.0805 20.3185 26.4095 19.8798 26.9701 19.6239C27.7013 19.2827 28.4324 19.4533 28.8833 19.5508C29.2123 19.6239 29.4804 19.7336 29.6511 19.8067" stroke="#824236" stroke-width="0.52" stroke-linecap="round" stroke-linejoin="round"/>
<path d="M28.5179 38.2075C28.8103 39.5358 29.0419 41.254 28.9566 43.1551C28.8469 45.2998 28.396 46.2625 27.9085 46.9084C27.7989 47.0424 27.7867 47.0424 27.7379 47.1278C26.9215 48.5292 29.0784 51.5026 31.4181 53.1843C32.6855 54.0982 32.9902 53.9032 34.1478 54.671C36.3291 56.1211 37.4381 58.2659 38.023 59.8379" stroke="#824236" stroke-width="0.52" stroke-linecap="round" stroke-linejoin="round"/>
<path d="M49.1613 45.9214C49.2709 46.4819 49.3806 47.335 49.21 48.3586C49.1247 48.8948 48.9297 49.626 48.3204 50.7471C47.833 51.6367 46.9556 53.2331 45.1886 54.6223C43.385 56.0359 42.3614 55.8896 41.1672 57.5104C40.7407 58.0831 40.4726 58.6315 40.3263 58.9971C39.7048 60.4838 39.7536 61.8364 39.8267 62.5798" stroke="#824236" stroke-width="0.52" stroke-linecap="round" stroke-linejoin="round"/>
<path d="M33.417 31.6272C33.1854 31.7369 32.7833 31.9319 32.3933 32.3584C32.1374 32.6265 31.3453 33.4795 31.6256 34.3569C31.8084 34.9053 32.308 35.1612 32.3568 35.1856C32.7711 35.3805 33.0514 35.2587 34.0506 35.0881C35.5373 34.8443 35.8542 34.9784 36.5244 34.6128C36.8291 34.4422 37.1703 34.2472 37.3409 33.8451C37.6212 33.1992 37.2556 32.5168 37.1825 32.3949C36.6828 31.481 35.5983 31.2982 35.3667 31.2616C34.4772 31.1154 33.7704 31.4566 33.417 31.6272Z" stroke="#824236" stroke-width="0.52" stroke-linecap="round" stroke-linejoin="round"/>
<path d="M26.5197 79.5187L26.9584 79.6771C26.8974 79.4456 26.8243 79.2384 26.7512 79.0313C26.7512 79.0313 26.7512 79.0191 26.739 79.0191C26.3734 77.898 25.8982 77.0571 25.5326 76.4966C25.167 75.9482 24.8136 75.5582 24.1556 74.8027C23.4122 73.9618 22.9613 73.45 22.2301 72.8773C21.9499 72.6579 21.2918 72.1705 20.3413 71.6952C19.342 71.1956 18.5256 70.9884 17.7457 70.7935C16.2224 70.4035 16.6002 70.7325 15.345 70.4035C15.1256 70.3426 14.821 70.2573 14.5163 70.4035C14.1386 70.5863 13.9192 71.0737 13.9314 71.4637C13.9314 71.6952 14.0167 72.2436 15.4669 73.2307C16.8926 74.2056 17.441 74.1203 18.3306 74.8027C18.8058 75.1683 19.4395 75.8019 19.9513 76.9474C19.3299 76.7403 18.818 76.5697 18.5499 76.4844C17.8553 76.2528 17.7335 76.1553 16.003 75.4242C13.6999 74.4493 14.0655 74.693 12.7372 74.1081C11.1773 73.4256 10.7996 73.1576 9.8978 73.0723C9.25194 73.0113 8.37454 72.9504 7.80179 73.5353C7.25341 74.0959 7.32653 74.9124 7.33872 75.1073C7.39965 75.6435 7.65556 76.0457 7.93584 76.3503C8.21612 76.655 8.36235 77.0815 7.83835 77.2277C7.47276 77.3252 6.9122 77.703 6.65629 78.3245C6.37601 78.9825 6.08355 79.7015 6.31508 80.4449C6.40039 80.7251 6.54662 80.9445 6.72941 81.1516C6.58318 81.5172 6.4735 81.8463 6.40039 82.1144C6.22978 82.748 6.09573 83.2355 6.16885 83.8691C6.20541 84.1494 6.24197 84.4663 6.42476 84.7831C6.63192 85.1487 6.93657 85.3437 7.43621 85.5752C7.41183 86.0383 7.43621 86.5866 7.54588 87.2203C7.66774 87.8906 7.80179 88.6095 8.32579 89.231C8.81324 89.816 9.41036 90.0475 10.3609 90.3522C12.201 90.9493 13.1149 91.2417 14.5163 91.4977C16.5636 91.8754 18.1722 91.9485 19.0739 91.9851C19.5492 92.0095 19.9757 92.0095 20.3413 92.0095C20.5485 92.0095 20.7434 92.0095 20.914 92.0095L22.5104 92.2166L26.5075 79.5187H26.5197Z" fill="#FFF8F5"/>
<path d="M21.6207 77.1788C20.9018 77.0935 19.8294 76.9107 18.5864 76.4964C17.8918 76.2649 17.7699 76.1674 16.0395 75.4362C13.7363 74.4613 14.1019 74.7051 12.7736 74.1201C11.2138 73.4377 10.836 73.1696 9.93426 73.0843C9.2884 73.0234 8.411 72.9624 7.83825 73.5474C7.28988 74.1079 7.35081 74.9244 7.37518 75.1194C7.47267 75.9359 8.00886 76.4477 8.37444 76.7767C8.99593 77.3373 9.53212 77.4957 10.2389 77.8125C10.9335 78.1172 11.8719 78.6046 12.932 79.4211" stroke="#824236" stroke-width="0.52" stroke-linecap="round" stroke-linejoin="round"/>
<path d="M12.3228 83.6622C11.4332 83.3331 10.6533 83.065 10.0318 82.8579C8.89845 82.4801 8.58161 82.3948 8.08198 82.1145C7.35082 81.7002 6.58309 81.2737 6.32718 80.4572C6.09565 79.7139 6.4003 78.9949 6.6684 78.3368C6.9243 77.7275 7.70421 77.3863 8.02105 77.1791C8.41101 76.9232 8.53287 77.0938 8.91064 77.2035" stroke="#824236" stroke-width="0.52" stroke-linecap="round" stroke-linejoin="round"/>
<path d="M12.5787 87.3909C11.7622 87.269 11.0676 87.0984 10.5436 86.9278C10.0074 86.7572 10.1902 86.7816 7.93579 85.7823C7.13151 85.4289 6.71718 85.2461 6.44909 84.783C6.26629 84.454 6.22974 84.1494 6.19318 83.8691C6.12006 83.2354 6.24192 82.748 6.42471 82.1143C6.5222 81.7487 6.60751 81.834 6.86341 81.2734" stroke="#824236" stroke-width="0.52" stroke-linecap="round" stroke-linejoin="round"/>
<path d="M30.0655 80.5426C29.1637 79.5921 28.7372 79.6165 28.2132 79.4215C27.6039 79.1899 27.2627 79.1899 27.153 79.1899C26.4706 79.1899 25.8247 79.4702 25.1058 80.0552C22.827 81.9074 21.5352 85.0027 21.5352 85.0027C21.194 85.8192 21.4256 84.1497 20.5725 89.7309C20.5482 89.9259 20.5725 91.437 22.0836 92.2169C22.2664 92.3144 24.0699 92.0219 24.0699 92.0219C24.5818 87.2571 27.5064 82.6142 27.7136 82.6874" fill="#828282"/>
<path d="M43.0925 85.1974C41.1915 84.8806 41.1305 84.7465 39.8997 84.3688C37.6819 83.6742 36.5729 83.3208 35.4031 82.614C34.7937 82.2362 33.6726 81.4807 31.9788 80.8592C31.3329 80.6155 30.9551 80.5301 30.5164 80.5667C29.505 80.652 28.7373 81.3466 27.9817 82.2728C26.7265 83.8082 25.447 86.0383 24.5574 89.5966C24.2284 90.9249 24.2771 91.1564 24.1553 92.0704" stroke="#824236" stroke-width="0.52" stroke-linecap="round" stroke-linejoin="round"/>
<path d="M26.7266 79.177C26.3366 77.7025 25.9832 77.1663 25.5445 76.5083C25.1789 75.9599 24.8256 75.5699 24.1675 74.8144C23.4241 73.9736 22.9733 73.4617 22.2421 72.889C21.9618 72.6696 21.3038 72.1822 20.3532 71.7069C19.354 71.2073 18.5375 71.0001 17.7576 70.8052C16.2343 70.4152 16.6121 70.7442 15.3569 70.4152C15.1376 70.3543 14.8329 70.269 14.5283 70.4152C14.1505 70.598 13.9312 71.0855 13.9434 71.4754C13.9434 71.7069 14.0287 72.2553 15.4788 73.2424C16.9046 74.2173 17.453 74.132 18.3425 74.8144C18.8422 75.1922 19.4027 75.6309 19.9267 76.8617" stroke="#824236" stroke-width="0.52" stroke-linecap="round" stroke-linejoin="round"/>
<path d="M30.0658 80.5426C29.359 79.9089 28.7375 79.6165 28.2135 79.4215C27.6042 79.1899 27.263 79.1899 27.1533 79.1899C26.4709 79.1899 25.825 79.4702 25.1061 80.0552C22.8272 81.9074 21.5355 85.0027 21.5355 85.0027C21.1943 85.8192 20.585 88.3539 20.5728 89.7309C20.5728 89.9625 20.3291 91.6076 21.9133 92.0829" stroke="#824236" stroke-width="0.52" stroke-linecap="round" stroke-linejoin="round"/>
<path d="M73.8992 56.3408C75.4224 57.3035 75.7271 57.925 75.654 58.3272C75.5443 58.8633 74.74 59.0096 74.6913 59.6554C74.606 60.6669 76.0805 61.3493 76.1658 62.3242C76.2267 62.9457 75.6052 63.3478 75.459 63.945C75.3859 64.2496 75.3006 64.5786 75.4346 64.932C75.6174 65.4073 75.9708 65.3707 76.1536 65.8216C76.373 66.3578 76.0805 66.9549 76.0317 67.0402C75.8855 67.3327 75.459 67.7226 75.4224 68.0639C75.3981 68.3807 75.7758 68.7828 75.9221 69.0144C76.1902 69.4287 76.3364 69.6602 76.2755 69.9283C76.1902 70.3305 75.7515 70.3427 75.6174 70.8179C75.5321 71.1591 75.6783 71.476 75.7027 71.5369C75.9221 72 76.2877 71.9634 76.4217 72.329C76.5557 72.7311 76.2511 73.1942 76.1658 73.3283C75.8246 73.8401 75.4103 73.8279 75.3737 74.1447C75.3615 74.291 75.4346 74.3641 75.9343 74.9978C76.4339 75.6314 76.4704 75.7167 76.4948 75.8264C76.5436 76.0701 76.4583 76.4479 75.8002 77.0328" stroke="#824236" stroke-width="0.52" stroke-linecap="round" stroke-linejoin="round"/>
<path d="M76.787 88.2681C78.0788 89.5232 78.2616 90.1935 78.1031 90.5712C77.8838 91.0709 77.0673 91.0465 76.8845 91.6802C76.6042 92.6429 77.896 93.6178 77.7863 94.5927C77.7132 95.2142 77.0308 95.4823 76.7627 96.0428C76.6286 96.3231 76.4824 96.6277 76.5311 97.0055C76.6042 97.5051 76.9698 97.5417 77.0551 98.0291C77.1526 98.6019 76.7627 99.1137 76.6896 99.199C76.4824 99.4549 75.9828 99.7596 75.8853 100.076C75.7878 100.381 76.0802 100.844 76.1899 101.112C76.3605 101.575 76.458 101.831 76.3605 102.075C76.2021 102.453 75.7634 102.367 75.5441 102.806C75.3856 103.123 75.4709 103.452 75.4831 103.525C75.605 104.025 75.9706 104.061 76.0193 104.439C76.0681 104.866 75.6781 105.256 75.5684 105.365C75.1297 105.792 74.7276 105.706 74.6301 106.011C74.5814 106.157 74.6545 106.243 75.0079 106.962C75.3613 107.681 75.3978 107.778 75.3856 107.888C75.3856 108.131 75.2272 108.497 74.4717 108.924" stroke="#824236" stroke-width="0.52" stroke-linecap="round" stroke-linejoin="round"/>
<path d="M5.33996 54.062C3.8167 55.0247 3.51205 55.6462 3.58516 56.0483C3.69484 56.5845 4.49912 56.7308 4.54787 57.3766C4.63317 58.3881 3.15865 59.0705 3.07335 60.0454C3.01242 60.6669 3.63391 61.069 3.78014 61.6661C3.85326 61.9708 3.93856 62.2998 3.80451 62.6532C3.62172 63.1285 3.26833 63.0919 3.08553 63.5428C2.86618 64.079 3.15865 64.6761 3.2074 64.7614C3.35363 65.0539 3.78014 65.4438 3.8167 65.7851C3.84107 66.1019 3.4633 66.504 3.31707 66.7356C3.04898 67.1499 2.90274 67.3814 2.96367 67.6495C3.04898 68.0517 3.48768 68.0639 3.62172 68.5391C3.70703 68.8803 3.56079 69.1972 3.53642 69.2581C3.31707 69.7212 2.95149 69.6846 2.81744 70.0502C2.68339 70.4523 2.98805 70.9154 3.07335 71.0495C3.41456 71.5613 3.82889 71.5491 3.86545 71.8659C3.87763 72.0122 3.80451 72.0853 3.30488 72.7189C2.80525 73.3526 2.7687 73.4379 2.74432 73.5476C2.69558 73.7913 2.78088 74.1691 3.43893 74.754" stroke="#824236" stroke-width="0.52" stroke-linecap="round" stroke-linejoin="round"/>
<path d="M2.45183 85.9893C1.1601 87.2444 0.977309 87.9147 1.13573 88.2924C1.35508 88.7921 2.17155 88.7677 2.35434 89.4014C2.63462 90.3641 1.34289 91.339 1.45257 92.3138C1.52568 92.9353 2.20811 93.2034 2.4762 93.764C2.61025 94.0443 2.75648 94.3489 2.70774 94.7267C2.63462 95.2263 2.26904 95.2629 2.18373 95.7503C2.08624 96.3231 2.4762 96.8349 2.54932 96.9202C2.75648 97.1761 3.25611 97.4808 3.3536 97.7976C3.45109 98.1022 3.15862 98.5653 3.04895 98.8334C2.87834 99.2965 2.78085 99.5524 2.87834 99.7961C3.03676 100.174 3.47546 100.089 3.69481 100.527C3.85323 100.844 3.76793 101.173 3.75574 101.246C3.63388 101.746 3.2683 101.782 3.21955 102.16C3.17081 102.587 3.56076 102.977 3.67044 103.086C4.10914 103.513 4.51128 103.428 4.60877 103.732C4.65751 103.878 4.5844 103.964 4.231 104.683C3.8776 105.402 3.84104 105.499 3.85323 105.609C3.85323 105.853 4.01165 106.218 4.76719 106.645" stroke="#824236" stroke-width="0.52" stroke-linecap="round" stroke-linejoin="round"/>
<path d="M24.4114 92.1435C23.6681 92.1435 20.1341 92.1192 18.9886 92.0704C18.0868 92.0339 16.2955 92.2776 14.2482 91.8998C12.8468 91.6439 12.2131 90.9371 10.373 90.3522C9.42251 90.0475 8.82539 89.816 8.33795 89.2311C7.82613 88.6096 7.69208 87.8906 7.55804 87.2204C7.38743 86.282 7.44836 86.1114 7.50929 85.5996" stroke="#824236" stroke-width="0.52" stroke-linecap="round" stroke-linejoin="round"/>
</svg>
