<svg width="16" height="16" viewBox="0 0 16 16" fill="none" xmlns="http://www.w3.org/2000/svg">
<circle cx="8" cy="8" r="6" fill="#323232"/>
<path fill-rule="evenodd" clip-rule="evenodd" d="M5.12588 5.12588C5.16568 5.08598 5.21297 5.05432 5.26502 5.03272C5.31708 5.01112 5.37288 5 5.42924 5C5.4856 5 5.54141 5.01112 5.59347 5.03272C5.64552 5.05432 5.6928 5.08598 5.73261 5.12588L8.00011 7.39424L10.2676 5.12588C10.3075 5.08604 10.3548 5.05444 10.4068 5.03288C10.4589 5.01132 10.5146 5.00022 10.571 5.00022C10.6273 5.00022 10.6831 5.01132 10.7352 5.03288C10.7872 5.05444 10.8345 5.08604 10.8743 5.12588C10.9142 5.16572 10.9458 5.21301 10.9673 5.26507C10.9889 5.31712 11 5.3729 11 5.42924C11 5.48558 10.9889 5.54137 10.9673 5.59342C10.9458 5.64547 10.9142 5.69277 10.8743 5.73261L8.60598 8.00011L10.8743 10.2676C10.9142 10.3075 10.9458 10.3548 10.9673 10.4068C10.9889 10.4589 11 10.5146 11 10.571C11 10.6273 10.9889 10.6831 10.9673 10.7352C10.9458 10.7872 10.9142 10.8345 10.8743 10.8743C10.8345 10.9142 10.7872 10.9458 10.7352 10.9673C10.6831 10.9889 10.6273 11 10.571 11C10.5146 11 10.4589 10.9889 10.4068 10.9673C10.3548 10.9458 10.3075 10.9142 10.2676 10.8743L8.00011 8.60598L5.73261 10.8743C5.69277 10.9142 5.64547 10.9458 5.59342 10.9673C5.54137 10.9889 5.48558 11 5.42924 11C5.3729 11 5.31712 10.9889 5.26507 10.9673C5.21301 10.9458 5.16572 10.9142 5.12588 10.8743C5.08604 10.8345 5.05444 10.7872 5.03288 10.7352C5.01132 10.6831 5.00022 10.6273 5.00022 10.571C5.00022 10.5146 5.01132 10.4589 5.03288 10.4068C5.05444 10.3548 5.08604 10.3075 5.12588 10.2676L7.39424 8.00011L5.12588 5.73261C5.08598 5.6928 5.05432 5.64552 5.03272 5.59347C5.01112 5.54141 5 5.4856 5 5.42924C5 5.37288 5.01112 5.31708 5.03272 5.26502C5.05432 5.21297 5.08598 5.16568 5.12588 5.12588Z" fill="white"/>
</svg>
