<svg width="22" height="23" viewBox="0 0 22 23" fill="none" xmlns="http://www.w3.org/2000/svg">
<path d="M7.66667 13.6046V20.3421V21C7.66667 21.5523 7.21895 22 6.66667 22H2C1.44772 22 1 21.5523 1 21V11.3631C1 11.097 1.10608 10.8418 1.29476 10.6542L10.2948 1.70153C10.6849 1.31349 11.3151 1.31349 11.7052 1.70153L20.7052 10.6542C20.8939 10.8418 21 11.097 21 11.3631V21C21 21.5523 20.5523 22 20 22H15.4444H15.3333C14.781 22 14.3333 21.5523 14.3333 21V20.3421V13.6053C14.3333 13.053 13.8856 12.6053 13.3333 12.6053H8.66667C8.11438 12.6053 7.66667 13.0523 7.66667 13.6046Z" fill="#323232" stroke="#323232" stroke-width="2"/>
</svg>
