<svg width="24" height="30" viewBox="0 0 24 30" fill="none" xmlns="http://www.w3.org/2000/svg">
<path d="M4 5L9 2.5L11.5 1.5C13 1.83333 16.1 2.5 16.5 2.5C17 2.5 19 4.5 19.5 5C20 5.5 21.5 7.5 21.5 8V13C21.5 13.5 20.5 17 20.5 17.5C20.5 17.9 18.5 20.3333 17.5 21.5L13.5 26.5L10.5 28C9.33333 26.6667 6.9 23.9 6.5 23.5C6.1 23.1 4.66667 19.6667 4 18L1 15C1.5 12.8333 2.5 8.4 2.5 8C2.5 7.6 3.5 5.83333 4 5Z" fill="white"/>
<path d="M12 15C10.35 15 9 13.65 9 12C9 10.35 10.35 9 12 9C13.65 9 15 10.35 15 12C15 13.65 13.65 15 12 15ZM21 12.3C21 6.855 17.025 3 12 3C6.975 3 3 6.855 3 12.3C3 15.81 5.925 20.46 12 26.01C18.075 20.46 21 15.81 21 12.3ZM12 0C18.3 0 24 4.83 24 12.3C24 17.28 19.995 23.175 12 30C4.005 23.175 0 17.28 0 12.3C0 4.83 5.7 0 12 0Z" fill="#00BAF6"/>
</svg>
