<svg width="18" height="22" viewBox="0 0 18 22" fill="none" xmlns="http://www.w3.org/2000/svg">
<path d="M9.00005 22C10.1001 22 10.9901 21.11 10.9901 20.01H7.01005C7.01005 21.11 7.90005 22 9.00005 22ZM17.2901 17.29L16.0001 16V10C16.0001 6.65 13.6401 3.85 10.5001 3.17V2C10.5001 1.17 9.83005 0.5 9.00005 0.5C8.17005 0.5 7.50005 1.17 7.50005 2V3.17C4.36005 3.85 2.00005 6.65 2.00005 10V16L0.710051 17.29C0.0800515 17.92 0.520051 19 1.41005 19H16.5801C17.4801 19 17.9201 17.92 17.2901 17.29ZM10.0001 15H8.00005V13H10.0001V15ZM10.0001 10C10.0001 10.55 9.55005 11 9.00005 11C8.45005 11 8.00005 10.55 8.00005 10V8C8.00005 7.45 8.45005 7 9.00005 7C9.55005 7 10.0001 7.45 10.0001 8V10Z" fill="#00BAF6"/>
</svg>
