<svg width="40" height="40" viewBox="0 0 40 40" fill="none" xmlns="http://www.w3.org/2000/svg">
<path d="M19.9997 33.3333C20.9201 33.3333 21.6663 32.5871 21.6663 31.6666C21.6663 30.7462 20.9201 30 19.9997 30C19.0792 30 18.333 30.7462 18.333 31.6666C18.333 32.5871 19.0792 33.3333 19.9997 33.3333Z" fill="#D9D9D9"/>
<path d="M20.7326 18.3336L17.5659 15.1836L13.4659 11.1169L10.8826 8.53356L7.84925 5.48356C7.69385 5.32816 7.50937 5.2049 7.30633 5.12079C7.1033 5.03669 6.88568 4.99341 6.66592 4.99341C6.44615 4.99341 6.22854 5.03669 6.0255 5.12079C5.82247 5.2049 5.63798 5.32816 5.48258 5.48356C5.16874 5.7974 4.99243 6.22306 4.99243 6.66689C4.99243 7.11073 5.16874 7.53639 5.48258 7.85023L7.78258 10.1336L10.2159 12.5669L13.9326 16.3002L16.5159 18.8669L21.0826 23.4336L25.7326 28.1002L32.1493 34.5169C32.3042 34.6731 32.4885 34.7971 32.6916 34.8817C32.8947 34.9663 33.1126 35.0099 33.3326 35.0099C33.5526 35.0099 33.7704 34.9663 33.9735 34.8817C34.1766 34.7971 34.361 34.6731 34.5159 34.5169C34.6721 34.362 34.7961 34.1776 34.8807 33.9745C34.9654 33.7714 35.0089 33.5536 35.0089 33.3336C35.0089 33.1135 34.9654 32.8957 34.8807 32.6926C34.7961 32.4895 34.6721 32.3052 34.5159 32.1502L20.7326 18.3336Z" fill="#00BAF6"/>
<path d="M36.1999 13.2165C31.8589 9.00681 26.0468 6.65685 19.9999 6.66653C17.484 6.67335 14.9855 7.08414 12.5999 7.8832L15.2999 10.5832C18.5695 9.76621 21.9935 9.79661 25.2482 10.6715C28.5028 11.5464 31.4805 13.2369 33.8999 15.5832C34.2088 15.881 34.6207 16.0482 35.0499 16.0499C35.2744 16.049 35.4964 16.0028 35.7026 15.914C35.9088 15.8252 36.0949 15.6957 36.2499 15.5332C36.5436 15.216 36.7027 14.797 36.6933 14.3648C36.684 13.9325 36.507 13.5208 36.1999 13.2165Z" fill="#D9D9D9"/>
<path d="M6.36616 11.0838C5.46188 11.7341 4.60422 12.447 3.7995 13.2171C3.51823 13.5299 3.36562 13.9374 3.37228 14.358C3.37894 14.7786 3.54439 15.1811 3.83542 15.4848C4.12646 15.7884 4.52156 15.9709 4.94148 15.9954C5.36139 16.02 5.77506 15.8848 6.0995 15.6171C6.93066 14.8317 7.8223 14.1128 8.76616 13.4671L6.36616 11.0838Z" fill="#D9D9D9"/>
<path d="M28.3329 21.8998C28.4873 22.0573 28.6713 22.1826 28.8745 22.2684C29.0776 22.3542 29.2957 22.3989 29.5162 22.3998C29.8419 22.3986 30.1601 22.3019 30.4315 22.1218C30.7029 21.9417 30.9156 21.6861 31.0432 21.3864C31.1709 21.0868 31.2079 20.7563 31.1498 20.4358C31.0917 20.1153 30.941 19.8189 30.7162 19.5832C29.3261 18.1428 27.6618 16.9952 25.8213 16.208C23.9808 15.4209 22.0013 15.0101 19.9996 14.9998H19.7329L23.6496 18.9165C25.428 19.5195 27.0347 20.5429 28.3329 21.8998Z" fill="#D9D9D9"/>
<path d="M12.3832 17.1003C11.2186 17.7786 10.153 18.6142 9.21655 19.5836C9.06443 19.7445 8.94549 19.9337 8.86652 20.1405C8.78754 20.3474 8.75008 20.5677 8.75627 20.7891C8.76247 21.0104 8.81219 21.2283 8.9026 21.4304C8.99301 21.6325 9.12234 21.8148 9.28321 21.9669C9.6081 22.2741 10.0417 22.4397 10.4887 22.4272C10.71 22.421 10.9279 22.3713 11.13 22.2809C11.3321 22.1905 11.5144 22.0611 11.6665 21.9003C12.6375 20.9349 13.7645 20.1404 14.9999 19.5502L12.3832 17.1003Z" fill="#D9D9D9"/>
<path d="M14.2161 25.667C13.8978 25.9742 13.7146 26.3952 13.7068 26.8375C13.699 27.2798 13.8672 27.7071 14.1744 28.0253C14.4816 28.3436 14.9027 28.5268 15.3449 28.5346C15.7872 28.5424 16.2145 28.3742 16.5327 28.067C17.3908 27.2756 18.4943 26.8026 19.659 26.7267C20.8238 26.6509 21.9793 26.9769 22.9327 27.6503L18.7327 23.4503C17.0348 23.7062 15.4573 24.4804 14.2161 25.667Z" fill="#D9D9D9"/>
</svg>
