<svg width="26" height="23" viewBox="0 0 26 23" fill="none" xmlns="http://www.w3.org/2000/svg">
<rect x="2" y="6" width="22" height="16" rx="1" fill="white" stroke="#323232" stroke-width="2"/>
<path d="M11.6735 17.9552C11.6735 18.5966 12.0865 19 12.7784 19C13.4702 19 13.8832 18.5862 13.8832 17.9552C13.8832 17.3241 13.4702 16.9103 12.7784 16.9103C12.0865 16.9103 11.6735 17.3138 11.6735 17.9552ZM13.8213 16.4241V15.9586C13.8213 15.6897 13.8729 15.4828 14.162 15.2862C14.668 14.9552 15.1636 14.5931 15.4734 14.231C15.8451 13.7966 16 13.3 16 12.6069C16 10.8379 14.7609 10 13.0468 10C11.3947 10 10.042 10.9724 10.0007 12.2345C9.98007 12.8759 10.4034 13.1966 10.8784 13.2276C11.4463 13.269 11.88 12.9897 12.0246 12.4931C12.1485 12.069 12.5718 11.831 13.0468 11.831C13.5115 11.831 13.8935 12.131 13.8935 12.6069C13.8935 12.9586 13.8109 13.1862 13.4805 13.4862C13.2637 13.6828 12.8919 13.9 12.4376 14.169C11.8594 14.5103 11.7355 14.9966 11.7355 15.7931V16.4241H13.8213Z" fill="#323232"/>
<rect x="1" y="1" width="24" height="5" rx="1" fill="white" stroke="#323232" stroke-width="2"/>
</svg>
