<svg width="45" height="26" viewBox="0 0 45 26" fill="none" xmlns="http://www.w3.org/2000/svg">
<rect y="0.254395" width="45" height="25" rx="12.5" fill="#82B5E0"/>
<path d="M16.3852 14.8898C17.2521 14.8898 18.0063 14.9784 18.6476 15.1556C19.2922 15.3329 19.7869 15.5891 20.1317 15.9243C20.4798 16.2595 20.6555 16.6591 20.6587 17.1232C20.6555 17.5808 20.4798 17.9772 20.1317 18.3124C19.7869 18.6476 19.2922 18.9022 18.6476 19.0762C18.0063 19.2503 17.2521 19.3373 16.3852 19.3373C15.5215 19.3373 14.7706 19.2503 14.1324 19.0762C13.4943 18.9022 13.0012 18.6476 12.6532 18.3124C12.3051 17.9772 12.1311 17.5808 12.1311 17.1232C12.1311 16.6591 12.3051 16.2595 12.6532 15.9243C13.0012 15.5891 13.4943 15.3329 14.1324 15.1556C14.7706 14.9784 15.5215 14.8898 16.3852 14.8898ZM16.3852 15.7116C15.7439 15.7148 15.1831 15.7744 14.7029 15.8904C14.2259 16.0032 13.8553 16.166 13.591 16.3787C13.3299 16.5882 13.201 16.8363 13.2043 17.1232C13.201 17.4003 13.3299 17.6404 13.591 17.8435C13.8553 18.0465 14.2259 18.2044 14.7029 18.3172C15.1831 18.43 15.7439 18.4864 16.3852 18.4864C17.0298 18.4864 17.5921 18.4317 18.0724 18.3221C18.5526 18.2125 18.9232 18.0546 19.1842 17.8483C19.4485 17.6421 19.5823 17.4003 19.5855 17.1232C19.5823 16.8363 19.4485 16.5882 19.1842 16.3787C18.9232 16.166 18.5526 16.0032 18.0724 15.8904C17.5921 15.7744 17.0298 15.7148 16.3852 15.7116ZM20.1076 8.71158H12.2181V7.83174H20.1076V8.71158ZM21.9639 13.7585H10.9032V12.8787H21.9639V13.7585ZM16.5399 13.1494H15.486V10.5293H16.5399V13.1494ZM20.5523 8.95329C20.5523 9.35937 20.5459 9.71066 20.533 10.0072C20.5201 10.3037 20.4895 10.6292 20.4411 10.9837C20.3928 11.3382 20.3171 11.7056 20.2139 12.0859L19.1601 11.9699C19.2632 11.5831 19.3389 11.2189 19.3873 10.8773C19.4356 10.5357 19.4646 10.2247 19.4743 9.94431C19.484 9.66392 19.4888 9.31747 19.4888 8.90495V8.86627V7.83174H20.5523V8.86627V8.95329ZM32.4972 15.0541H31.424V7.21296H32.4972V15.0541ZM34.3246 11.5154H32.1975V10.5969H34.3246V11.5154ZM28.6588 15.1411C29.4774 15.1411 30.1849 15.2233 30.7811 15.3877C31.3773 15.552 31.8349 15.7938 32.154 16.1128C32.4731 16.4287 32.6326 16.8073 32.6326 17.2489C32.6326 17.684 32.4731 18.0578 32.154 18.3704C31.8349 18.6863 31.3773 18.9264 30.7811 19.0907C30.1849 19.2551 29.4774 19.3373 28.6588 19.3373C27.8338 19.3373 27.1215 19.2551 26.5221 19.0907C25.9227 18.9264 25.4634 18.6863 25.1443 18.3704C24.8285 18.0578 24.6722 17.684 24.6754 17.2489C24.6722 16.8073 24.8285 16.4287 25.1443 16.1128C25.4634 15.7938 25.9227 15.552 26.5221 15.3877C27.1215 15.2233 27.8338 15.1411 28.6588 15.1411ZM28.6588 15.9823C28.0497 15.9823 27.526 16.0306 27.0877 16.1273C26.6526 16.224 26.3174 16.369 26.0822 16.5624C25.8501 16.7526 25.7357 16.9814 25.739 17.2489C25.7357 17.5067 25.8501 17.7291 26.0822 17.916C26.3174 18.1029 26.6542 18.2463 27.0925 18.3462C27.5308 18.4494 28.0529 18.4993 28.6588 18.4961C29.2583 18.4993 29.7772 18.4494 30.2155 18.3462C30.6538 18.2463 30.989 18.1029 31.221 17.916C31.453 17.7291 31.5691 17.5067 31.5691 17.2489C31.5691 16.9814 31.453 16.7526 31.221 16.5624C30.989 16.369 30.6538 16.224 30.2155 16.1273C29.7804 16.0306 29.2615 15.9823 28.6588 15.9823ZM30.2638 9.45605H23.0221V8.59555H30.2638V9.45605ZM26.6478 10.0845C27.2247 10.0845 27.7323 10.1715 28.1706 10.3456C28.6121 10.5196 28.9537 10.771 29.1954 11.0997C29.4404 11.4252 29.5645 11.8023 29.5677 12.2309C29.5645 12.6596 29.4404 13.0366 29.1954 13.3621C28.9537 13.6844 28.6121 13.9342 28.1706 14.1114C27.7323 14.2855 27.2247 14.3709 26.6478 14.3677C26.0645 14.3709 25.5504 14.2855 25.1057 14.1114C24.6641 13.9342 24.3209 13.6844 24.076 13.3621C23.8343 13.0398 23.715 12.6628 23.7182 12.2309C23.715 11.8023 23.8343 11.4252 24.076 11.0997C24.3209 10.771 24.6641 10.5196 25.1057 10.3456C25.5472 10.1715 26.0612 10.0845 26.6478 10.0845ZM26.6478 10.887C26.2675 10.8902 25.9339 10.9482 25.6471 11.061C25.3603 11.1706 25.1363 11.3269 24.9751 11.5299C24.8172 11.733 24.7399 11.9666 24.7431 12.2309C24.7399 12.492 24.8172 12.7208 24.9751 12.9174C25.1363 13.1107 25.3603 13.2622 25.6471 13.3718C25.9339 13.4814 26.2675 13.5362 26.6478 13.5362C27.0216 13.5362 27.352 13.4814 27.6388 13.3718C27.9256 13.2622 28.148 13.1107 28.3059 12.9174C28.4671 12.7208 28.5493 12.492 28.5525 12.2309C28.5493 11.9666 28.4671 11.733 28.3059 11.5299C28.148 11.3269 27.9256 11.1706 27.6388 11.061C27.352 10.9482 27.0216 10.8902 26.6478 10.887ZM27.1796 9.08865H26.116V7.11627H27.1796V9.08865Z" fill="white"/>
</svg>
