<svg width="69" height="26" viewBox="0 0 69 26" fill="none" xmlns="http://www.w3.org/2000/svg">
<rect y="0.254395" width="69" height="25" rx="12.5" fill="#8CC2A7"/>
<path d="M19.979 10.3456H16.6627V9.48506H19.979V10.3456ZM19.8919 12.8787H16.5563V11.9892H19.8919V12.8787ZM20.8685 14.5224H19.7953V7.22263H20.8685V14.5224ZM17.1074 8.1218C17.1042 9.14988 16.8738 10.0813 16.4161 10.916C15.9617 11.7475 15.3075 12.4646 14.4534 13.0672C13.5994 13.6699 12.5825 14.1453 11.403 14.4933L10.9582 13.6425C11.9992 13.3363 12.8936 12.9351 13.6413 12.4388C14.3922 11.9392 14.9674 11.364 15.3671 10.713C15.7667 10.0619 15.9665 9.35614 15.9665 8.59555V8.1218H17.1074ZM16.6917 9.02097H11.577V8.1218H16.6917V9.02097ZM16.8947 14.648C17.7101 14.648 18.4223 14.7399 19.0314 14.9236C19.6438 15.1073 20.1143 15.3748 20.443 15.7261C20.7718 16.0774 20.9361 16.4915 20.9361 16.9685C20.9361 17.4487 20.7718 17.866 20.443 18.2206C20.1143 18.5718 19.6438 18.841 19.0314 19.0279C18.4223 19.2148 17.7101 19.3083 16.8947 19.3083C16.0664 19.3083 15.3461 19.2148 14.7338 19.0279C14.1247 18.841 13.6541 18.5718 13.3222 18.2206C12.9902 17.866 12.8243 17.4487 12.8243 16.9685C12.8243 16.4915 12.9902 16.0774 13.3222 15.7261C13.6541 15.3748 14.1247 15.1073 14.7338 14.9236C15.3461 14.7399 16.0664 14.648 16.8947 14.648ZM16.8947 15.5085C16.2856 15.5053 15.7538 15.5617 15.2994 15.6777C14.8482 15.7905 14.5001 15.9581 14.2552 16.1805C14.0103 16.4029 13.8878 16.6655 13.8878 16.9685C13.8878 17.2714 14.0103 17.5325 14.2552 17.7516C14.5001 17.9708 14.8482 18.14 15.2994 18.2592C15.7538 18.3785 16.2856 18.4381 16.8947 18.4381C17.4909 18.4381 18.013 18.3785 18.461 18.2592C18.9122 18.14 19.2587 17.9708 19.5004 17.7516C19.7453 17.5325 19.8694 17.2714 19.8726 16.9685C19.8694 16.6655 19.7453 16.4029 19.5004 16.1805C19.2587 15.9581 18.9122 15.7905 18.461 15.6777C18.013 15.5617 17.4909 15.5053 16.8947 15.5085ZM26.8672 8.10246C27.4989 8.10246 28.0629 8.22171 28.5592 8.4602C29.0555 8.69869 29.4423 9.03547 29.7195 9.47055C29.9998 9.90241 30.1416 10.3971 30.1449 10.9547C30.1416 11.5122 29.9998 12.0069 29.7195 12.4388C29.4423 12.8674 29.0555 13.2026 28.5592 13.4443C28.0629 13.686 27.4989 13.8069 26.8672 13.8069C26.2356 13.8069 25.67 13.686 25.1704 13.4443C24.6709 13.2026 24.2809 12.8658 24.0005 12.434C23.7234 12.0021 23.5864 11.509 23.5896 10.9547C23.5864 10.4003 23.7234 9.90564 24.0005 9.47055C24.2809 9.03547 24.6709 8.69869 25.1704 8.4602C25.67 8.22171 26.2356 8.10246 26.8672 8.10246ZM26.8672 9.04031C26.4386 9.04031 26.0551 9.12088 25.7167 9.28202C25.3815 9.44316 25.1172 9.67037 24.9239 9.96365C24.7337 10.2537 24.6403 10.584 24.6435 10.9547C24.6403 11.3253 24.7337 11.6572 24.9239 11.9505C25.1172 12.2406 25.3815 12.4662 25.7167 12.6273C26.0551 12.7885 26.4386 12.869 26.8672 12.869C27.2927 12.869 27.6746 12.7885 28.013 12.6273C28.3514 12.4662 28.6156 12.2406 28.8058 11.9505C28.9959 11.6572 29.091 11.3253 29.091 10.9547C29.091 10.584 28.9959 10.2537 28.8058 9.96365C28.6156 9.67037 28.3514 9.44316 28.013 9.28202C27.6746 9.12088 27.2927 9.04031 26.8672 9.04031ZM32.8617 19.3856H31.7885V7.21296H32.8617V19.3856ZM22.9612 15.7889C23.9119 15.7921 24.8127 15.7873 25.6635 15.7744C26.5176 15.7583 27.4103 15.7196 28.3417 15.6584C29.2731 15.5972 30.1545 15.5053 30.986 15.3828L31.073 16.1757C30.2158 16.3368 29.3263 16.4561 28.4045 16.5334C27.4828 16.6107 26.6207 16.6591 25.8182 16.6784C25.0157 16.6978 24.1117 16.7074 23.1062 16.7074L22.9612 15.7889ZM41.0552 15.4022H39.9917V13.2751H41.0552V15.4022ZM46.0732 13.7875H34.9931V12.898H46.0732V13.7875ZM40.5235 15.0735C41.3936 15.0735 42.1413 15.1556 42.7666 15.32C43.3918 15.4844 43.8704 15.7277 44.2023 16.05C44.5375 16.369 44.7067 16.7558 44.7099 17.2102C44.7067 17.6614 44.5375 18.0465 44.2023 18.3656C43.8704 18.6846 43.3918 18.9264 42.7666 19.0907C42.1413 19.2551 41.3936 19.3373 40.5235 19.3373C39.6469 19.3373 38.8959 19.2551 38.2707 19.0907C37.6455 18.9264 37.1653 18.6846 36.8301 18.3656C36.4949 18.0465 36.3273 17.6614 36.3273 17.2102C36.3273 16.7558 36.4933 16.369 36.8253 16.05C37.1572 15.7277 37.6374 15.4844 38.2659 15.32C38.8943 15.1556 39.6469 15.0735 40.5235 15.0735ZM40.5235 15.9049C39.8757 15.9082 39.3181 15.9613 38.8508 16.0645C38.3867 16.1644 38.0306 16.3126 37.7825 16.5092C37.5375 16.7058 37.4167 16.9395 37.4199 17.2102C37.4167 17.4777 37.5375 17.7097 37.7825 17.9063C38.0306 18.0997 38.3884 18.2463 38.8557 18.3462C39.323 18.4494 39.8789 18.4993 40.5235 18.4961C41.1648 18.4993 41.7175 18.4494 42.1816 18.3462C42.6489 18.2463 43.0067 18.0997 43.2548 17.9063C43.5062 17.7097 43.6335 17.4777 43.6367 17.2102C43.6335 16.9395 43.5062 16.7058 43.2548 16.5092C43.0067 16.3126 42.6506 16.1644 42.1865 16.0645C41.7224 15.9613 41.168 15.9082 40.5235 15.9049ZM40.7942 8.57622C40.791 9.20467 40.5686 9.77189 40.1271 10.2779C39.6888 10.7806 39.1054 11.1948 38.3771 11.5203C37.6519 11.8426 36.8623 12.0569 36.0083 12.1632L35.6215 11.3124C36.3467 11.2351 37.0315 11.0659 37.6761 10.8048C38.3239 10.5438 38.846 10.2199 39.2424 9.83312C39.6388 9.44638 39.837 9.02741 39.837 8.57622V8.19915H40.7942V8.57622ZM41.2293 8.57622C41.2261 9.02741 41.421 9.44638 41.8142 9.83312C42.2106 10.2199 42.7311 10.5438 43.3757 10.8048C44.0235 11.0659 44.7164 11.2351 45.4544 11.3124L45.058 12.1632C44.204 12.0569 43.4128 11.8426 42.6844 11.5203C41.9593 11.1948 41.3759 10.7806 40.9344 10.2779C40.4929 9.77189 40.2721 9.20467 40.2721 8.57622V8.19915H41.2293V8.57622ZM45.0773 8.65357H36.0083V7.7834H45.0773V8.65357ZM50.5154 7.94776C51.1245 7.94454 51.6707 8.06379 52.1542 8.3055C52.6408 8.54399 53.0195 8.88078 53.2902 9.31586C53.5642 9.74772 53.7027 10.2424 53.706 10.8C53.7027 11.3543 53.5642 11.8474 53.2902 12.2793C53.0195 12.7111 52.6408 13.0495 52.1542 13.2944C51.6707 13.5362 51.1245 13.6586 50.5154 13.6619C49.903 13.6586 49.3551 13.5362 48.8717 13.2944C48.3883 13.0495 48.008 12.7111 47.7308 12.2793C47.4569 11.8474 47.3215 11.3543 47.3247 10.8C47.3215 10.2456 47.4569 9.75094 47.7308 9.31586C48.008 8.88078 48.3883 8.54399 48.8717 8.3055C49.3584 8.06379 49.9062 7.94454 50.5154 7.94776ZM50.5154 8.8566C50.1061 8.85338 49.7387 8.93556 49.4131 9.10315C49.0909 9.26752 48.8363 9.49795 48.6493 9.79445C48.4656 10.091 48.3754 10.4261 48.3786 10.8C48.3754 11.177 48.4656 11.5138 48.6493 11.8103C48.8363 12.1036 49.0909 12.334 49.4131 12.5016C49.7387 12.666 50.1061 12.7498 50.5154 12.753C50.9247 12.7498 51.2904 12.666 51.6127 12.5016C51.9382 12.334 52.1928 12.1036 52.3765 11.8103C52.5635 11.5138 52.6585 11.177 52.6618 10.8C52.6585 10.4261 52.5635 10.091 52.3765 9.79445C52.1928 9.49795 51.9382 9.26752 51.6127 9.10315C51.2872 8.93556 50.9214 8.85338 50.5154 8.8566ZM56.5968 14.4257H55.5236V7.21296H56.5968V14.4257ZM58.4242 11.1577H56.2971V10.2682H58.4242V11.1577ZM52.7004 14.7931C53.5255 14.7963 54.2377 14.8881 54.8372 15.0686C55.4366 15.2459 55.8975 15.5069 56.2198 15.8518C56.5421 16.1934 56.7032 16.6011 56.7032 17.0748C56.7032 17.5454 56.5421 17.9498 56.2198 18.2882C55.8975 18.6266 55.435 18.8861 54.8323 19.0665C54.2329 19.247 53.5223 19.3373 52.7004 19.3373C51.8754 19.3373 51.1599 19.247 50.554 19.0665C49.9481 18.8861 49.4824 18.6266 49.1569 18.2882C48.8314 17.9498 48.6687 17.5454 48.6687 17.0748C48.6687 16.6011 48.8314 16.1934 49.1569 15.8518C49.4824 15.5069 49.9465 15.2459 50.5492 15.0686C51.1551 14.8881 51.8722 14.7963 52.7004 14.7931ZM52.7004 15.6729C52.0913 15.6729 51.5628 15.7277 51.1148 15.8373C50.6701 15.9468 50.3284 16.108 50.0899 16.3207C49.8547 16.5334 49.7387 16.7848 49.7419 17.0748C49.7387 17.3649 49.8547 17.6147 50.0899 17.8241C50.3284 18.0336 50.6701 18.1932 51.1148 18.3027C51.5628 18.4123 52.0913 18.4671 52.7004 18.4671C53.3096 18.4671 53.8365 18.4123 54.2812 18.3027C54.7292 18.1932 55.0708 18.0336 55.3061 17.8241C55.5414 17.6147 55.659 17.3649 55.659 17.0748C55.659 16.7848 55.5414 16.5334 55.3061 16.3207C55.0708 16.108 54.7292 15.9468 54.2812 15.8373C53.8365 15.7277 53.3096 15.6729 52.7004 15.6729Z" fill="white"/>
</svg>
