<svg width="54" height="25" viewBox="0 0 54 25" fill="none" xmlns="http://www.w3.org/2000/svg">
<rect y="0.254395" width="54" height="24" rx="12" fill="#7899CB"/>
<path d="M20.6032 15.608H19.53V6.72263H20.6032V15.608ZM20.9803 18.5956H12.7524V17.7061H20.9803V18.5956ZM13.8256 18.0058H12.7524V14.6991H13.8256V18.0058ZM14.0383 7.57345C14.6378 7.57345 15.1808 7.69915 15.6675 7.95053C16.1541 8.20191 16.5344 8.55481 16.8083 9.00923C17.0823 9.46365 17.2192 9.97769 17.2192 10.5514C17.2192 11.1315 17.0823 11.6487 16.8083 12.1032C16.5344 12.5576 16.1541 12.9121 15.6675 13.1667C15.1808 13.4181 14.6378 13.5421 14.0383 13.5389C13.4389 13.5421 12.8958 13.4181 12.4092 13.1667C11.9225 12.9121 11.5406 12.5576 11.2634 12.1032C10.9863 11.6487 10.8477 11.1315 10.8477 10.5514C10.8477 9.97769 10.9863 9.46365 11.2634 9.00923C11.5406 8.55481 11.9225 8.20191 12.4092 7.95053C12.8958 7.69915 13.4389 7.57345 14.0383 7.57345ZM14.0383 8.5113C13.6322 8.5113 13.2664 8.59832 12.9409 8.77235C12.6154 8.94638 12.3592 9.18971 12.1723 9.50232C11.9886 9.81171 11.8983 10.1614 11.9016 10.5514C11.8983 10.9478 11.9886 11.3023 12.1723 11.6149C12.3592 11.9243 12.6154 12.166 12.9409 12.34C13.2664 12.5141 13.6322 12.6011 14.0383 12.6011C14.4379 12.6011 14.8005 12.5141 15.126 12.34C15.4515 12.166 15.7077 11.9243 15.8947 11.6149C16.0816 11.3023 16.175 10.9478 16.175 10.5514C16.175 10.1614 16.0816 9.81171 15.8947 9.50232C15.7077 9.18971 15.4515 8.94638 15.126 8.77235C14.8005 8.59832 14.4379 8.5113 14.0383 8.5113ZM26.6407 9.61351C26.6375 10.3322 26.494 11.0042 26.2104 11.6294C25.93 12.2514 25.532 12.7912 25.0164 13.2489C24.5039 13.7033 23.9109 14.0481 23.2374 14.2834L22.7056 13.4422C23.3018 13.2424 23.8304 12.9508 24.2912 12.5672C24.7553 12.1837 25.1147 11.7374 25.3693 11.2282C25.6239 10.7157 25.7512 10.1775 25.7512 9.61351V8.99473H26.6407V9.61351ZM26.8147 9.61351C26.8147 10.1453 26.9452 10.6513 27.2063 11.1315C27.4673 11.6084 27.8299 12.029 28.294 12.3932C28.7613 12.7542 29.2963 13.0297 29.899 13.2199L29.3672 14.0804C28.6936 13.8612 28.0974 13.5325 27.5785 13.0942C27.0629 12.6559 26.66 12.1386 26.37 11.5424C26.0799 10.9429 25.9349 10.3 25.9349 9.61351V8.99473H26.8147V9.61351ZM29.5509 9.22677H23.0053V8.34694H29.5509V9.22677ZM26.834 8.68533H25.7512V6.79031H26.834V8.68533ZM32.2387 11.3538H29.1352V10.4643H32.2387V11.3538ZM32.7415 15.8014H31.6683V6.72263H32.7415V15.8014ZM33.0799 18.5956H24.939V17.7061H33.0799V18.5956ZM26.0122 18.1605H24.939V14.9795H26.0122V18.1605ZM42.2153 17.7544H40.9777V9.13975H40.9197L38.5122 10.7351V9.49749L40.9777 7.85384H42.2153V17.7544Z" fill="white"/>
</svg>
