<svg width="45" height="25" viewBox="0 0 45 25" fill="none" xmlns="http://www.w3.org/2000/svg">
<rect y="0.254395" width="45" height="24" rx="12" fill="#98C255"/>
<path d="M20.4363 11.7406H17.0233V10.8607H20.4363V11.7406ZM14.9639 9.98091C14.9607 10.8575 14.8108 11.7164 14.5143 12.5576C14.2211 13.3987 13.8166 14.148 13.3009 14.8055C12.7853 15.4597 12.2084 15.9561 11.5703 16.2944L10.8838 15.434C11.4704 15.1439 12.0086 14.7104 12.4985 14.1335C12.9883 13.5567 13.3735 12.904 13.6538 12.1757C13.9375 11.4441 14.0809 10.7125 14.0841 9.98091V7.76683H14.9639V9.98091ZM15.167 9.98091C15.167 10.6964 15.3088 11.4054 15.5924 12.108C15.876 12.8106 16.2595 13.4358 16.7429 13.9837C17.2264 14.5283 17.7613 14.9344 18.3479 15.2019L17.7001 16.0721C17.0555 15.7401 16.4754 15.2615 15.9598 14.6363C15.4441 14.0078 15.0381 13.2908 14.7416 12.4851C14.445 11.6761 14.2968 10.8414 14.2968 9.98091V7.76683H15.167V9.98091ZM20.9681 18.8856H19.9045V6.71296H20.9681V18.8856ZM29.0649 9.69086H22.9641V8.81102H29.0649V9.69086ZM26.0193 10.5127C26.5221 10.5127 26.9733 10.6303 27.3729 10.8656C27.7726 11.1008 28.0836 11.428 28.3059 11.8469C28.5315 12.2627 28.6459 12.7364 28.6492 13.2682C28.6459 13.8064 28.5315 14.2866 28.3059 14.7088C28.0836 15.1278 27.7726 15.4565 27.3729 15.695C26.9733 15.9335 26.5221 16.0527 26.0193 16.0527C25.5198 16.0527 25.0702 15.9335 24.6706 15.695C24.2742 15.4565 23.9632 15.1278 23.7376 14.7088C23.5152 14.2866 23.4056 13.8064 23.4088 13.2682C23.4056 12.7364 23.5152 12.2627 23.7376 11.8469C23.9632 11.428 24.2742 11.1008 24.6706 10.8656C25.0702 10.6303 25.5198 10.5127 26.0193 10.5127ZM26.0193 11.4119C25.7003 11.4151 25.4134 11.4973 25.1588 11.6584C24.9075 11.8163 24.7109 12.0371 24.5691 12.3207C24.4273 12.6011 24.3564 12.9169 24.3564 13.2682C24.3564 13.6259 24.4273 13.945 24.5691 14.2254C24.7109 14.5026 24.9075 14.7217 25.1588 14.8828C25.4134 15.0408 25.7003 15.1181 26.0193 15.1149C26.3384 15.1181 26.6252 15.0408 26.8798 14.8828C27.1377 14.7217 27.3375 14.5009 27.4793 14.2206C27.6211 13.9402 27.692 13.6227 27.692 13.2682C27.692 12.9169 27.6211 12.6011 27.4793 12.3207C27.3375 12.0371 27.1377 11.8163 26.8798 11.6584C26.6252 11.4973 26.3384 11.4151 26.0193 11.4119ZM33.3481 18.8663H32.3232V6.71296H33.3481V18.8663ZM32.6616 12.7268H30.3315V11.8373H32.6616V12.7268ZM30.7086 18.2668H29.6934V7.00301H30.7086V18.2668ZM26.5608 9.35246H25.4876V7.08036H26.5608V9.35246Z" fill="white"/>
</svg>
