<svg width="45" height="25" viewBox="0 0 45 25" fill="none" xmlns="http://www.w3.org/2000/svg">
<rect y="0.254395" width="45" height="24" rx="12" fill="#5367A0"/>
<path d="M20.9294 15.637H19.8562V6.72263H20.9294V15.637ZM21.3065 18.5956H13.0786V17.7061H21.3065V18.5956ZM14.1518 18.1315H13.0786V14.8152H14.1518V18.1315ZM15.0026 8.61765C14.9994 9.40403 14.8544 10.1469 14.5675 10.8462C14.2839 11.5456 13.8859 12.1579 13.3735 12.6833C12.8642 13.2086 12.2761 13.6066 11.609 13.8773L11.0192 13.0362C11.6251 12.8009 12.1617 12.4577 12.629 12.0065C13.0963 11.552 13.4589 11.0332 13.7167 10.4498C13.9745 9.86328 14.1034 9.25255 14.1034 8.61765V7.39942H15.0026V8.61765ZM15.196 8.61765C15.1927 9.22677 15.32 9.8101 15.5779 10.3677C15.8389 10.922 16.2015 11.4102 16.6656 11.8324C17.1297 12.2546 17.6614 12.5753 18.2609 12.7944L17.7001 13.6549C17.0265 13.3939 16.4319 13.0168 15.9163 12.5237C15.4038 12.0274 15.0058 11.4441 14.7222 10.7737C14.4386 10.1034 14.2968 9.38469 14.2968 8.61765V7.39942H15.196V8.61765ZM33.029 13.9257H31.9558V6.72263H33.029V13.9257ZM24.6174 12.4367C25.4006 12.4399 26.1031 12.4319 26.7251 12.4125C27.3504 12.39 27.9643 12.3513 28.567 12.2965C29.1697 12.2417 29.7933 12.1628 30.4378 12.0596L30.5732 12.9491C29.6031 13.1006 28.6701 13.2037 27.7742 13.2585C26.8782 13.3101 25.826 13.3359 24.6174 13.3359H23.6312V12.4367H24.6174ZM29.1616 10.7544H24.6754V12.9975H23.6312V9.90357H28.0981V8.3276H23.6022V7.45743H29.1616V10.7544ZM33.029 18.7019H25.1202V14.5831H33.029V18.7019ZM26.1837 17.8221H31.9751V15.4533H26.1837V17.8221Z" fill="white"/>
</svg>
