<svg width="69" height="26" viewBox="0 0 69 26" fill="none" xmlns="http://www.w3.org/2000/svg">
<rect y="0.254395" width="69" height="25" rx="12.5" fill="#E1AB3A"/>
<path d="M16.7207 8.34417C16.7207 9.0822 16.4902 9.759 16.0294 10.3746C15.5685 10.9869 14.961 11.4961 14.2069 11.9022C13.4559 12.3083 12.6567 12.5822 11.8091 12.724L11.3643 11.8442C12.1056 11.741 12.8162 11.5203 13.4962 11.1819C14.1762 10.8435 14.7273 10.4261 15.1495 9.92981C15.5717 9.43027 15.7828 8.90172 15.7828 8.34417V7.64804H16.7207V8.34417ZM16.8947 8.34417C16.8947 8.89206 17.1074 9.41577 17.5328 9.91531C17.9582 10.4148 18.511 10.8354 19.191 11.177C19.8742 11.5187 20.5849 11.741 21.3229 11.8442L20.8878 12.724C20.037 12.5822 19.2345 12.3067 18.4803 11.8974C17.7262 11.488 17.1171 10.9756 16.653 10.3601C16.1921 9.7445 15.9633 9.07253 15.9665 8.34417V7.64804H16.8947V8.34417ZM16.8367 19.3663H15.7828V14.7254H16.8367V19.3663ZM21.874 14.9574H10.7939V14.0583H21.874V14.9574ZM32.9294 16.108H31.8562V7.22263H32.9294V16.108ZM33.3065 19.0956H25.0786V18.2061H33.3065V19.0956ZM26.1518 18.5058H25.0786V15.1991H26.1518V18.5058ZM26.3645 8.07345C26.9639 8.07345 27.507 8.19915 27.9936 8.45053C28.4803 8.70191 28.8606 9.05481 29.1345 9.50923C29.4084 9.96365 29.5454 10.4777 29.5454 11.0514C29.5454 11.6315 29.4084 12.1487 29.1345 12.6032C28.8606 13.0576 28.4803 13.4121 27.9936 13.6667C27.507 13.9181 26.9639 14.0421 26.3645 14.0389C25.765 14.0421 25.222 13.9181 24.7353 13.6667C24.2487 13.4121 23.8668 13.0576 23.5896 12.6032C23.3125 12.1487 23.1739 11.6315 23.1739 11.0514C23.1739 10.4777 23.3125 9.96365 23.5896 9.50923C23.8668 9.05481 24.2487 8.70191 24.7353 8.45053C25.222 8.19915 25.765 8.07345 26.3645 8.07345ZM26.3645 9.0113C25.9584 9.0113 25.5926 9.09832 25.2671 9.27235C24.9416 9.44638 24.6854 9.68971 24.4985 10.0023C24.3148 10.3117 24.2245 10.6614 24.2277 11.0514C24.2245 11.4478 24.3148 11.8023 24.4985 12.1149C24.6854 12.4243 24.9416 12.666 25.2671 12.84C25.5926 13.0141 25.9584 13.1011 26.3645 13.1011C26.7641 13.1011 27.1267 13.0141 27.4522 12.84C27.7777 12.666 28.0339 12.4243 28.2208 12.1149C28.4078 11.8023 28.5012 11.4478 28.5012 11.0514C28.5012 10.6614 28.4078 10.3117 28.2208 10.0023C28.0339 9.68971 27.7777 9.44638 27.4522 9.27235C27.1267 9.09832 26.7641 9.0113 26.3645 9.0113ZM46.1022 14.5224H34.9738V13.6425H46.1022V14.5224ZM41.1519 16.9008H40.0884V14.0776H41.1519V16.9008ZM44.8646 19.0956H36.4047V18.2061H44.8646V19.0956ZM37.4682 18.5348H36.4047V15.7793H37.4682V18.5348ZM37.5359 9.166H43.5497V7.5997H44.6229V12.4533H36.4627V7.5997H37.5359V9.166ZM43.5497 11.5831V9.98782H37.5359V11.5831H43.5497ZM56.6065 14.4643H55.5236V7.21296H56.6065V14.4643ZM58.4242 11.2834H56.2971V10.3842H58.4242V11.2834ZM52.7004 14.6964C53.5223 14.6996 54.2329 14.7931 54.8323 14.9768C55.435 15.1572 55.8975 15.4231 56.2198 15.7744C56.5421 16.1225 56.7032 16.5366 56.7032 17.0168C56.7032 17.5003 56.5421 17.9176 56.2198 18.2689C55.8975 18.6202 55.435 18.8861 54.8323 19.0665C54.2329 19.247 53.5223 19.3373 52.7004 19.3373C51.8754 19.3373 51.1599 19.2454 50.554 19.0617C49.9481 18.878 49.4824 18.6121 49.1569 18.2641C48.8314 17.916 48.6687 17.5003 48.6687 17.0168C48.6687 16.5366 48.8314 16.1225 49.1569 15.7744C49.4824 15.4231 49.9481 15.1572 50.554 14.9768C51.1599 14.7931 51.8754 14.6996 52.7004 14.6964ZM52.7004 15.5859C52.0913 15.5827 51.5628 15.6391 51.1148 15.7551C50.6701 15.8679 50.3268 16.0322 50.0851 16.2482C49.8434 16.4641 49.7225 16.7203 49.7225 17.0168C49.7225 17.3133 49.8434 17.5712 50.0851 17.7903C50.3268 18.0095 50.6701 18.177 51.1148 18.2931C51.5628 18.4091 52.0913 18.4671 52.7004 18.4671C53.3031 18.4671 53.8268 18.4091 54.2716 18.2931C54.7195 18.177 55.0644 18.0095 55.3061 17.7903C55.5478 17.5712 55.6687 17.3133 55.6687 17.0168C55.6687 16.7203 55.5478 16.4641 55.3061 16.2482C55.0644 16.0322 54.7195 15.8679 54.2716 15.7551C53.8268 15.6391 53.3031 15.5827 52.7004 15.5859ZM48.5913 12.5886C49.4969 12.5854 50.2575 12.5725 50.8731 12.55C51.4919 12.5242 52.0672 12.4823 52.5989 12.4243C53.1307 12.3663 53.6673 12.2825 54.2087 12.1729L54.3247 13.0624C53.764 13.1752 53.2113 13.2606 52.6666 13.3186C52.1219 13.3734 51.5354 13.4121 50.9069 13.4346C50.2785 13.4572 49.5066 13.4685 48.5913 13.4685H47.6535V12.5886H48.5913ZM53.0485 9.03064H48.7073V13.1688H47.6535V8.14113H53.0485V9.03064Z" fill="white"/>
</svg>
