<svg width="31" height="31" viewBox="0 0 31 31" fill="none" xmlns="http://www.w3.org/2000/svg">
<path fill-rule="evenodd" clip-rule="evenodd" d="M15.2262 -6.10352e-05C15.9907 -6.10352e-05 16.6105 0.619669 16.6105 1.38415V4.15256C16.6105 4.91703 15.9907 5.53676 15.2262 5.53676C14.4618 5.53676 13.842 4.91703 13.842 4.15256V1.38415C13.842 0.619669 14.4618 -6.10352e-05 15.2262 -6.10352e-05Z" fill="#00BAF6"/>
<path fill-rule="evenodd" clip-rule="evenodd" d="M22.8397 2.03993C23.5017 2.42217 23.7285 3.26874 23.3463 3.93079L21.9621 6.32828C21.5799 6.99033 20.7333 7.21717 20.0712 6.83493C19.4092 6.45269 19.1823 5.60612 19.5646 4.94406L20.9488 2.54658C21.331 1.88452 22.1776 1.65769 22.8397 2.03993Z" fill="#00BAF6"/>
<path fill-rule="evenodd" clip-rule="evenodd" d="M28.4128 7.61299C28.7951 8.27504 28.5682 9.12161 27.9062 9.50385L25.5087 10.8881C24.8466 11.2703 24 11.0435 23.6178 10.3814C23.2356 9.71935 23.4624 8.87278 24.1245 8.49054L26.522 7.10633C27.184 6.7241 28.0306 6.95093 28.4128 7.61299Z" fill="#00BAF6"/>
<path fill-rule="evenodd" clip-rule="evenodd" d="M24.9158 15.2266C24.9158 14.4621 25.5355 13.8423 26.3 13.8423H29.0684C29.8329 13.8423 30.4526 14.4621 30.4526 15.2266C30.4526 15.991 29.8329 16.6108 29.0684 16.6108H26.3C25.5355 16.6108 24.9158 15.991 24.9158 15.2266Z" fill="#00BAF6"/>
<path fill-rule="evenodd" clip-rule="evenodd" d="M23.6178 20.0708C24 19.4088 24.8466 19.182 25.5087 19.5642L27.9062 20.9484C28.5682 21.3306 28.7951 22.1772 28.4128 22.8393C28.0306 23.5013 27.184 23.7281 26.522 23.3459L24.1245 21.9617C23.4624 21.5795 23.2356 20.7329 23.6178 20.0708Z" fill="#00BAF6"/>
<path fill-rule="evenodd" clip-rule="evenodd" d="M20.0712 23.6174C20.7333 23.2352 21.5799 23.462 21.9621 24.1241L23.3463 26.5216C23.7285 27.1837 23.5017 28.0302 22.8397 28.4125C22.1776 28.7947 21.331 28.5679 20.9488 27.9058L19.5646 25.5083C19.1823 24.8462 19.4092 23.9997 20.0712 23.6174Z" fill="#00BAF6"/>
<path fill-rule="evenodd" clip-rule="evenodd" d="M15.2262 24.9153C15.9907 24.9153 16.6105 25.535 16.6105 26.2995V29.0679C16.6105 29.8324 15.9907 30.4521 15.2262 30.4521C14.4618 30.4521 13.842 29.8324 13.842 29.0679V26.2995C13.842 25.535 14.4618 24.9153 15.2262 24.9153Z" fill="#00BAF6"/>
<path fill-rule="evenodd" clip-rule="evenodd" d="M10.3816 23.6174C11.0437 23.9997 11.2705 24.8462 10.8883 25.5083L9.50409 27.9058C9.12186 28.5679 8.27529 28.7947 7.61323 28.4125C6.95118 28.0302 6.72434 27.1837 7.10658 26.5216L8.49078 24.1241C8.87302 23.462 9.71959 23.2352 10.3816 23.6174Z" fill="#00BAF6"/>
<path fill-rule="evenodd" clip-rule="evenodd" d="M6.83468 20.0708C7.21692 20.7329 6.99009 21.5795 6.32804 21.9617L3.93055 23.3459C3.2685 23.7281 2.42193 23.5013 2.03969 22.8393C1.65745 22.1772 1.88428 21.3306 2.54633 20.9484L4.94382 19.5642C5.60587 19.182 6.45244 19.4088 6.83468 20.0708Z" fill="#00BAF6"/>
<path fill-rule="evenodd" clip-rule="evenodd" d="M0 15.2266C0 14.4621 0.61973 13.8423 1.38421 13.8423H4.15262C4.91709 13.8423 5.53682 14.4621 5.53682 15.2266C5.53682 15.991 4.91709 16.6108 4.15262 16.6108H1.38421C0.61973 16.6108 0 15.991 0 15.2266Z" fill="#00BAF6"/>
<path fill-rule="evenodd" clip-rule="evenodd" d="M2.03969 7.61298C2.42193 6.95093 3.2685 6.7241 3.93055 7.10634L6.32804 8.49054C6.99009 8.87279 7.21692 9.71935 6.83468 10.3814C6.45244 11.0435 5.60587 11.2703 4.94382 10.8881L2.54633 9.50385C1.88428 9.1216 1.65745 8.27504 2.03969 7.61298Z" fill="#00BAF6"/>
<path fill-rule="evenodd" clip-rule="evenodd" d="M7.61323 2.03993C8.27528 1.65769 9.12185 1.88452 9.50409 2.54658L10.8883 4.94406C11.2705 5.60612 11.0437 6.45269 10.3817 6.83493C9.7196 7.21717 8.87303 6.99033 8.49079 6.32828L7.10658 3.93079C6.72434 3.26874 6.95117 2.42217 7.61323 2.03993Z" fill="#00BAF6"/>
</svg>
