<svg width="24" height="25" viewBox="0 0 24 25" fill="none" xmlns="http://www.w3.org/2000/svg">
<path fill-rule="evenodd" clip-rule="evenodd" d="M9.00006 7.72222C9.00006 6.15741 10.3432 4.88889 12.0001 4.88889C13.6569 4.88889 15.0001 6.15741 15.0001 7.72222C15.0001 9.28703 13.6569 10.5556 12.0001 10.5556C10.3432 10.5556 9.00006 9.28703 9.00006 7.72222ZM12.0001 3C9.23863 3 7.00006 5.11421 7.00006 7.72222C7.00006 10.3302 9.23863 12.4444 12.0001 12.4444C14.7615 12.4444 17.0001 10.3302 17.0001 7.72222C17.0001 5.11421 14.7615 3 12.0001 3ZM20.3517 21.0412C20.5324 21.2252 20.7766 21.33 21.0323 21.3334C21.2879 21.33 21.5321 21.2252 21.7129 21.0412C21.8936 20.8572 21.9967 20.6087 22 20.3486C22 14.1112 14.9935 14.1112 12 14.1112C9.00645 14.1112 2 14.1112 2 20.3486C2 20.6098 2.10196 20.8603 2.28344 21.045C2.46493 21.2297 2.71108 21.3334 2.96774 21.3334C3.2244 21.3334 3.47055 21.2297 3.65204 21.045C3.83353 20.8603 3.93548 20.6098 3.93548 20.3486C3.93548 17.788 5.30323 16.0809 12 16.0809C18.6968 16.0809 20.0645 17.788 20.0645 20.3486C20.0679 20.6087 20.1709 20.8572 20.3517 21.0412Z" fill="#323232"/>
</svg>
