<svg width="19" height="19" viewBox="0 0 19 19" fill="none" xmlns="http://www.w3.org/2000/svg">
<mask id="path-1-inside-1_326_7258" fill="white">
<path d="M16.2859 2.71428C16.2859 1.21522 15.0707 0 13.5716 0C12.0726 0 10.8573 1.21522 10.8573 2.71428C10.8573 3.58931 11.2714 4.36763 11.9143 4.86399C11.9336 4.87825 11.9528 4.89269 11.9719 4.90728C12.4205 5.23507 12.9735 5.42856 13.5716 5.42856C15.0707 5.42856 16.2859 4.21333 16.2859 2.71428ZM13.5716 1.35714C14.3211 1.35714 14.9287 1.96476 14.9287 2.71428C14.9287 3.4638 14.3211 4.07142 13.5716 4.07142C12.8221 4.07142 12.2145 3.4638 12.2145 2.71428C12.2145 1.96476 12.8221 1.35714 13.5716 1.35714Z"/>
</mask>
<path d="M11.9143 4.86399L11.0239 6.07117C11.0151 6.06463 11.0063 6.058 10.9976 6.05128L11.9143 4.86399ZM11.9719 4.90728L11.0869 6.1184C11.0782 6.11199 11.0695 6.10549 11.0608 6.09889L11.9719 4.90728ZM14.7859 2.71428C14.7859 2.04365 14.2422 1.5 13.5716 1.5V-1.5C15.8991 -1.5 17.7859 0.386796 17.7859 2.71428H14.7859ZM13.5716 1.5C12.901 1.5 12.3573 2.04365 12.3573 2.71428H9.35733C9.35733 0.386796 11.2441 -1.5 13.5716 -1.5V1.5ZM12.3573 2.71428C12.3573 3.10489 12.5401 3.45213 12.831 3.67669L10.9976 6.05128C10.0027 5.28312 9.35733 4.07372 9.35733 2.71428H12.3573ZM12.8046 3.65681C12.8311 3.67636 12.8573 3.696 12.883 3.71567L11.0608 6.09889C11.0484 6.08938 11.0361 6.08014 11.0239 6.07117L12.8046 3.65681ZM12.8569 3.69616C13.0573 3.84257 13.3022 3.92856 13.5716 3.92856V6.92856C12.6447 6.92856 11.7837 6.62757 11.0869 6.1184L12.8569 3.69616ZM13.5716 3.92856C14.2422 3.92856 14.7859 3.38491 14.7859 2.71428H17.7859C17.7859 5.04176 15.8991 6.92856 13.5716 6.92856V3.92856ZM13.5716 -0.142861C15.1496 -0.142861 16.4287 1.13633 16.4287 2.71428H13.4287C13.4287 2.79318 13.4927 2.85714 13.5716 2.85714V-0.142861ZM16.4287 2.71428C16.4287 4.29223 15.1496 5.57142 13.5716 5.57142V2.57142C13.4927 2.57142 13.4287 2.63537 13.4287 2.71428H16.4287ZM13.5716 5.57142C11.9937 5.57142 10.7145 4.29223 10.7145 2.71428H13.7145C13.7145 2.63537 13.6505 2.57142 13.5716 2.57142V5.57142ZM10.7145 2.71428C10.7145 1.13633 11.9937 -0.142861 13.5716 -0.142861V2.85714C13.6505 2.85714 13.7145 2.79318 13.7145 2.71428H10.7145Z" fill="current" mask="url(#path-1-inside-1_326_7258)"/>
<mask id="path-3-inside-2_326_7258" fill="white">
<path d="M7.08588 4.86399C7.72876 4.36763 8.14282 3.58931 8.14282 2.71428C8.14282 1.21522 6.9276 0 5.42854 0C3.92945 0 2.71427 1.21522 2.71427 2.71428C2.71427 4.21333 3.92945 5.42856 5.42854 5.42856C6.02664 5.42856 6.57967 5.23508 7.02824 4.90729C7.04733 4.89269 7.06654 4.87825 7.08588 4.86399ZM5.42854 1.35714C6.17809 1.35714 6.78568 1.96476 6.78568 2.71428C6.78568 3.4638 6.17809 4.07142 5.42854 4.07142C4.679 4.07142 4.0714 3.4638 4.0714 2.71428C4.0714 1.96476 4.679 1.35714 5.42854 1.35714Z"/>
</mask>
<path d="M7.08588 4.86399L8.00258 6.05128C7.99387 6.058 7.98509 6.06463 7.97623 6.07117L7.08588 4.86399ZM7.02824 4.90729L7.93986 6.09849C7.93106 6.10523 7.92219 6.11186 7.91324 6.1184L7.02824 4.90729ZM6.16918 3.67669C6.46004 3.45213 6.64282 3.10489 6.64282 2.71428H9.64282C9.64282 4.07372 8.99748 5.28312 8.00258 6.05128L6.16918 3.67669ZM6.64282 2.71428C6.64282 2.04365 6.09917 1.5 5.42854 1.5V-1.5C7.75603 -1.5 9.64282 0.386796 9.64282 2.71428H6.64282ZM5.42854 1.5C4.75789 1.5 4.21427 2.04364 4.21427 2.71428H1.21427C1.21427 0.386811 3.10101 -1.5 5.42854 -1.5V1.5ZM4.21427 2.71428C4.21427 3.38492 4.75789 3.92856 5.42854 3.92856V6.92856C3.10101 6.92856 1.21427 5.04175 1.21427 2.71428H4.21427ZM5.42854 3.92856C5.69795 3.92856 5.94295 3.84255 6.14325 3.69619L7.91324 6.1184C7.21639 6.62761 6.35532 6.92856 5.42854 6.92856V3.92856ZM6.11663 3.71609C6.14271 3.69613 6.16902 3.67637 6.19553 3.65681L7.97623 6.07117C7.96407 6.08013 7.95194 6.08925 7.93986 6.09849L6.11663 3.71609ZM5.42854 -0.142861C7.00654 -0.142861 8.28568 1.13635 8.28568 2.71428H5.28568C5.28568 2.79316 5.34965 2.85714 5.42854 2.85714V-0.142861ZM8.28568 2.71428C8.28568 4.29221 7.00654 5.57142 5.42854 5.57142V2.57142C5.34965 2.57142 5.28568 2.63539 5.28568 2.71428H8.28568ZM5.42854 5.57142C3.85055 5.57142 2.5714 4.29221 2.5714 2.71428H5.5714C5.5714 2.63539 5.50744 2.57142 5.42854 2.57142V5.57142ZM2.5714 2.71428C2.5714 1.13635 3.85055 -0.142861 5.42854 -0.142861V2.85714C5.50744 2.85714 5.5714 2.79316 5.5714 2.71428H2.5714Z" fill="current" mask="url(#path-3-inside-2_326_7258)"/>
<mask id="path-5-inside-3_326_7258" fill="white">
<path d="M16.9643 6.78564H13.3398C13.4898 7.21013 13.5714 7.66692 13.5714 8.14278H16.9643C17.339 8.14278 17.6429 8.44661 17.6429 8.82135C17.6429 9.93001 17.2024 10.7522 16.5054 11.3116C16.185 11.5689 15.8012 11.7772 15.3673 11.9286C15.6824 12.2644 15.93 12.6644 16.0883 13.1067C16.5497 12.919 16.9765 12.6737 17.3549 12.37C18.3771 11.5496 19 10.336 19 8.82135C19 7.69711 18.0886 6.78564 16.9643 6.78564Z"/>
</mask>
<path d="M13.3398 6.78564L11.9255 7.28555C11.7632 6.82645 11.8339 6.31715 12.1151 5.91958C12.3962 5.52201 12.8528 5.28564 13.3398 5.28564V6.78564ZM13.5714 8.14278V9.64278C12.743 9.64278 12.0714 8.97121 12.0714 8.14278H13.5714ZM16.5054 11.3116L15.5665 10.1419L15.5665 10.1419L16.5054 11.3116ZM15.3673 11.9286L14.2735 12.955C13.9261 12.5848 13.7895 12.064 13.9106 11.571C14.0316 11.078 14.3937 10.6796 14.873 10.5124L15.3673 11.9286ZM16.0883 13.1067L16.6535 14.4961C16.2748 14.6502 15.8495 14.6429 15.4762 14.4761C15.1028 14.3092 14.8138 13.9971 14.676 13.6121L16.0883 13.1067ZM17.3549 12.37L16.416 11.2002L16.416 11.2002L17.3549 12.37ZM16.9643 8.28564H13.3398V5.28564H16.9643V8.28564ZM14.754 6.28574C14.96 6.86857 15.0714 7.49429 15.0714 8.14278H12.0714C12.0714 7.83954 12.0196 7.55169 11.9255 7.28555L14.754 6.28574ZM13.5714 6.64278H16.9643V9.64278H13.5714V6.64278ZM16.9643 6.64278C18.1675 6.64278 19.1429 7.61822 19.1429 8.82135H16.1429C16.1429 9.27499 16.5106 9.64278 16.9643 9.64278V6.64278ZM19.1429 8.82135C19.1429 10.3789 18.5007 11.6336 17.4444 12.4814L15.5665 10.1419C15.9042 9.87082 16.1429 9.48115 16.1429 8.82135H19.1429ZM17.4444 12.4814C16.9766 12.8569 16.4385 13.1435 15.8616 13.3448L14.873 10.5124C15.1638 10.4109 15.3933 10.2809 15.5665 10.1419L17.4444 12.4814ZM16.4611 10.9022C16.9145 11.3853 17.2717 11.9618 17.5006 12.6012L14.676 13.6121C14.5883 13.367 14.4504 13.1436 14.2735 12.955L16.4611 10.9022ZM15.5231 11.7172C15.8612 11.5797 16.16 11.4057 16.416 11.2002L18.2939 13.5398C17.793 13.9418 17.2381 14.2583 16.6535 14.4961L15.5231 11.7172ZM16.416 11.2002C17.0787 10.6683 17.5 9.88735 17.5 8.82135H20.5C20.5 10.7847 19.6755 12.4308 18.2939 13.5398L16.416 11.2002ZM17.5 8.82135C17.5 8.52549 17.2601 8.28564 16.9643 8.28564V5.28564C18.9171 5.28564 20.5 6.86873 20.5 8.82135H17.5Z" fill="current" mask="url(#path-5-inside-3_326_7258)"/>
<path d="M10.503 10.666L10.2785 10.1017L11.8512 6.78585C12.0822 7.18508 12.2144 7.6486 12.2144 8.14299C12.2144 9.28779 11.5056 10.2671 10.503 10.666ZM10.503 10.666L10.2785 10.1017L8.49715 10.666C8.80741 10.7894 9.14582 10.8573 9.50008 10.8573C9.85433 10.8573 10.1927 10.7894 10.503 10.666Z" stroke="current" stroke-width="1.5" stroke-linejoin="round"/>
<mask id="path-8-inside-4_326_7258" fill="white">
<path d="M2.49449 11.3116C2.81491 11.5689 3.19871 11.7772 3.63259 11.9286C3.31746 12.2644 3.06992 12.6644 2.91168 13.1067C2.45025 12.919 2.02343 12.6737 1.64492 12.37C0.622863 11.5496 -6.34193e-05 10.336 -6.34193e-05 8.82135C-6.34193e-05 7.69706 0.911391 6.78564 2.03565 6.78564H5.66016C5.51019 7.21013 5.42849 7.66692 5.42849 8.14278H2.03565C1.66094 8.14278 1.35708 8.44659 1.35708 8.82135C1.35708 9.93001 1.79747 10.7522 2.49449 11.3116Z"/>
</mask>
<path d="M2.49449 11.3116L3.4334 10.1418L3.43353 10.1419L2.49449 11.3116ZM3.63259 11.9286L4.12683 10.5124C4.60614 10.6796 4.96832 11.078 5.08934 11.571C5.21037 12.064 5.0738 12.5848 4.72642 12.955L3.63259 11.9286ZM2.91168 13.1067L4.32401 13.612C4.18625 13.997 3.89725 14.3091 3.52392 14.476C3.1506 14.6429 2.7253 14.6502 2.3465 14.4961L2.91168 13.1067ZM1.64492 12.37L0.706144 13.5399L0.705942 13.5398L1.64492 12.37ZM5.66016 6.78564V5.28564C6.14704 5.28564 6.60364 5.52196 6.8848 5.91947C7.16595 6.31698 7.23668 6.82622 7.07449 7.28531L5.66016 6.78564ZM5.42849 8.14278H6.92849C6.92849 8.97121 6.25692 9.64278 5.42849 9.64278V8.14278ZM3.43353 10.1419C3.60659 10.2809 3.83602 10.4109 4.12683 10.5124L3.13835 13.3448C2.5614 13.1435 2.02324 12.8569 1.55546 12.4813L3.43353 10.1419ZM4.72642 12.955C4.54949 13.1436 4.41168 13.3669 4.32401 13.612L1.49935 12.6014C1.72816 11.9618 2.08544 11.3853 2.53876 10.9022L4.72642 12.955ZM2.3465 14.4961C1.76176 14.2583 1.20695 13.9418 0.706144 13.5399L2.58371 11.2001C2.83991 11.4057 3.13874 11.5797 3.47686 11.7172L2.3465 14.4961ZM0.705942 13.5398C-0.675524 12.4308 -1.50006 10.7847 -1.50006 8.82135H1.49994C1.49994 9.88733 1.92125 10.6683 2.58391 11.2003L0.705942 13.5398ZM-1.50006 8.82135C-1.50006 6.86861 0.082983 5.28564 2.03565 5.28564V8.28564C1.7398 8.28564 1.49994 8.5255 1.49994 8.82135H-1.50006ZM2.03565 5.28564H5.66016V8.28564H2.03565V5.28564ZM7.07449 7.28531C6.98036 7.55174 6.92849 7.83969 6.92849 8.14278H3.92849C3.92849 7.49415 4.04002 6.86852 4.24582 6.28598L7.07449 7.28531ZM5.42849 9.64278H2.03565V6.64278H5.42849V9.64278ZM2.03565 9.64278C2.48929 9.64278 2.85708 9.2751 2.85708 8.82135H-0.142924C-0.142924 7.61809 0.83259 6.64278 2.03565 6.64278V9.64278ZM2.85708 8.82135C2.85708 9.48119 3.09575 9.87083 3.4334 10.1418L1.55559 12.4814C0.499182 11.6336 -0.142924 10.3788 -0.142924 8.82135H2.85708Z" fill="current" mask="url(#path-8-inside-4_326_7258)"/>
<mask id="path-10-inside-5_326_7258" fill="white">
<path d="M6.10706 12.2144C5.25763 12.2144 4.5298 12.7345 4.22458 13.4738C4.12591 13.713 4.07135 13.9752 4.07135 14.2501C4.07135 15.7648 4.69428 16.9783 5.71634 17.7987C6.72239 18.6062 8.07073 19.0001 9.49991 19.0001C10.9291 19.0001 12.2774 18.6062 13.2834 17.7987C14.3056 16.9783 14.9285 15.7648 14.9285 14.2501C14.9285 13.9752 14.874 13.713 14.7752 13.4738C14.4701 12.7345 13.7422 12.2144 12.8928 12.2144H6.10706ZM6.10706 13.5715H12.8928C13.2675 13.5715 13.5713 13.8754 13.5713 14.2501C13.5713 15.3587 13.1309 16.1809 12.4339 16.7403C11.7208 17.3127 10.6941 17.6429 9.49991 17.6429C8.30574 17.6429 7.27906 17.3127 6.56591 16.7403C5.86889 16.1809 5.42849 15.3587 5.42849 14.2501C5.42849 13.8754 5.73236 13.5715 6.10706 13.5715Z"/>
</mask>
<path d="M4.22458 13.4738L2.83785 12.9019L2.83811 12.9013L4.22458 13.4738ZM5.71634 17.7987L4.77742 18.9685L4.77739 18.9685L5.71634 17.7987ZM13.2834 17.7987L12.3445 16.6289L12.3445 16.6289L13.2834 17.7987ZM14.7752 13.4738L16.1617 12.9014L16.1617 12.9015L14.7752 13.4738ZM12.4339 16.7403L11.4949 15.5705L11.495 15.5705L12.4339 16.7403ZM6.56591 16.7403L7.50479 15.5704L7.50488 15.5705L6.56591 16.7403ZM6.10706 13.7144C5.88589 13.7144 5.69259 13.8487 5.61104 14.0462L2.83811 12.9013C3.367 11.6204 4.62936 10.7144 6.10706 10.7144V13.7144ZM5.6113 14.0456C5.58593 14.1071 5.57135 14.1753 5.57135 14.2501H2.57135C2.57135 13.7752 2.66589 13.319 2.83785 12.9019L5.6113 14.0456ZM5.57135 14.2501C5.57135 15.3161 5.99268 16.0971 6.6553 16.6289L4.77739 18.9685C3.39588 17.8596 2.57135 16.2134 2.57135 14.2501H5.57135ZM6.65527 16.6289C7.33739 17.1764 8.33007 17.5001 9.49991 17.5001V20.5001C7.8114 20.5001 6.10739 20.036 4.77742 18.9685L6.65527 16.6289ZM9.49991 17.5001C10.6698 17.5001 11.6624 17.1764 12.3445 16.6289L14.2224 18.9685C12.8924 20.036 11.1884 20.5001 9.49991 20.5001V17.5001ZM12.3445 16.6289C13.0072 16.097 13.4285 15.3161 13.4285 14.2501H16.4285C16.4285 16.2134 15.604 17.8596 14.2223 18.9685L12.3445 16.6289ZM13.4285 14.2501C13.4285 14.1751 13.4139 14.1071 13.3887 14.0461L16.1617 12.9015C16.3341 13.319 16.4285 13.7754 16.4285 14.2501H13.4285ZM13.3887 14.0461C13.3072 13.8488 13.1139 13.7144 12.8928 13.7144V10.7144C14.3704 10.7144 15.6329 11.6203 16.1617 12.9014L13.3887 14.0461ZM12.8928 13.7144H6.10706V10.7144H12.8928V13.7144ZM6.10706 12.0715H12.8928V15.0715H6.10706V12.0715ZM12.8928 12.0715C14.096 12.0715 15.0713 13.047 15.0713 14.2501H12.0713C12.0713 14.7037 12.439 15.0715 12.8928 15.0715V12.0715ZM15.0713 14.2501C15.0713 15.8076 14.4291 17.0623 13.3728 17.9101L11.495 15.5705C11.8326 15.2995 12.0713 14.9098 12.0713 14.2501H15.0713ZM13.3729 17.91C12.3363 18.7421 10.9543 19.1429 9.49991 19.1429V16.1429C10.4339 16.1429 11.1052 15.8834 11.4949 15.5705L13.3729 17.91ZM9.49991 19.1429C8.0455 19.1429 6.66348 18.7421 5.62695 17.91L7.50488 15.5705C7.89465 15.8834 8.56597 16.1429 9.49991 16.1429V19.1429ZM5.62704 17.9101C4.57061 17.0623 3.92849 15.8075 3.92849 14.2501H6.92849C6.92849 14.9099 7.16716 15.2995 7.50479 15.5704L5.62704 17.9101ZM3.92849 14.2501C3.92849 13.0469 4.90393 12.0715 6.10706 12.0715V15.0715C6.56078 15.0715 6.92849 14.7038 6.92849 14.2501H3.92849Z" fill="current" mask="url(#path-10-inside-5_326_7258)"/>
</svg>
