<svg width="18" height="18" viewBox="0 0 18 18" fill="none" xmlns="http://www.w3.org/2000/svg">
      <path
        d="M12.8015 0C12.8434 0 12.8853 0 12.9295 0C13.0323 1.26946 12.5477 2.218 11.9589 2.90489C11.381 3.58705 10.5898 4.24865 9.31008 4.14827C9.22471 2.89699 9.71004 2.0188 10.2981 1.33348C10.8435 0.694803 11.8435 0.126472 12.8015 0Z"
        fill="black"
      />
      <path
        d="M16.6754 13.2123C16.6754 13.225 16.6754 13.236 16.6754 13.2479C16.3158 14.3371 15.8028 15.2706 15.1768 16.137C14.6053 16.9235 13.9049 17.9819 12.6544 17.9819C11.5739 17.9819 10.8562 17.2871 9.74875 17.2681C8.57731 17.2491 7.9331 17.8491 6.86204 18.0001C6.73952 18.0001 6.617 18.0001 6.49685 18.0001C5.71036 17.8862 5.07563 17.2634 4.61322 16.7021C3.2497 15.0438 2.19603 12.9017 2 10.1604C2 9.89164 2 9.62368 2 9.35493C2.083 7.39304 3.03628 5.79792 4.30336 5.02486C4.97208 4.61383 5.89137 4.26366 6.915 4.42017C7.3537 4.48815 7.80188 4.63833 8.19473 4.78694C8.56704 4.93001 9.03261 5.18374 9.47368 5.1703C9.77247 5.16161 10.0697 5.00589 10.3708 4.89602C11.253 4.57747 12.1177 4.21228 13.2575 4.38381C14.6274 4.5909 15.5996 5.19955 16.2004 6.1386C15.0416 6.87609 14.1255 7.98746 14.282 9.88532C14.4211 11.6093 15.4234 12.6179 16.6754 13.2123Z"
        fill="black"
      />
</svg>