<svg width="19" height="18" viewBox="0 0 19 18" fill="none" xmlns="http://www.w3.org/2000/svg">
      <path
        fillRule="evenodd"
        clipRule="evenodd"
        d="M15.98 9.15339C15.98 8.67475 15.937 8.21452 15.8573 7.77271H9.5V10.3837H13.1327C12.9762 11.2275 12.5007 11.9424 11.7858 12.421V14.1146H13.9673C15.2436 12.9395 15.98 11.2091 15.98 9.15339Z"
        fill="#4285F4"
      />
      <path
        fillRule="evenodd"
        clipRule="evenodd"
        d="M9.50006 15.75C11.3226 15.75 12.8505 15.1455 13.9673 14.1146L11.7859 12.421C11.1814 12.826 10.4082 13.0653 9.50006 13.0653C7.74199 13.0653 6.25393 11.8779 5.72313 10.2825H3.46802V12.0313C4.5787 14.2374 6.86143 15.75 9.50006 15.75Z"
        fill="#34A853"
      />
      <path
        fillRule="evenodd"
        clipRule="evenodd"
        d="M5.72307 10.2825C5.58807 9.87749 5.51136 9.44488 5.51136 8.99999C5.51136 8.55511 5.58807 8.12249 5.72307 7.71749V5.96863H3.46795C3.0108 6.87988 2.75 7.91079 2.75 8.99999C2.75 10.0892 3.0108 11.1201 3.46795 12.0314L5.72307 10.2825Z"
        fill="#FBBC05"
      />
      <path
        fillRule="evenodd"
        clipRule="evenodd"
        d="M9.50006 4.93466C10.4911 4.93466 11.3809 5.27523 12.0804 5.94409L14.0164 4.00807C12.8474 2.91886 11.3195 2.25 9.50006 2.25C6.86143 2.25 4.5787 3.76261 3.46802 5.96864L5.72313 7.7175C6.25393 6.12205 7.74199 4.93466 9.50006 4.93466Z"
        fill="#EA4335"
      />
</svg>