<svg width="67" height="66" viewBox="0 0 67 66" fill="none" xmlns="http://www.w3.org/2000/svg">
<g filter="url(#filter0_i_6653_5947)">
<path d="M66.5 33C66.5 51.2254 51.7254 66 33.5 66C15.2746 66 0.5 51.2254 0.5 33C0.5 14.7746 15.2746 0 33.5 0C51.7254 0 66.5 14.7746 66.5 33Z" fill="#DBDBDB"/>
</g>
<path d="M19.8096 31.3393C19.725 31.3393 19.6438 31.3393 19.5592 31.3359C19.3129 31.3261 19.0805 31.2184 18.913 31.0362C18.7455 30.8541 18.6565 30.6125 18.6657 30.3645C18.686 29.8464 19.1158 29.4407 19.6302 29.4646C21.7252 29.5464 23.573 28.1728 24.1179 26.1277C24.2499 25.6266 24.761 25.3301 25.2585 25.4664C25.756 25.5993 26.0504 26.114 25.915 26.6151C25.1671 29.4237 22.6762 31.3393 19.8096 31.3393ZM41.9265 31.3393C39.06 31.3393 36.5691 29.4237 35.8211 26.6083C35.7579 26.3683 35.7915 26.1129 35.9144 25.8977C36.0374 25.6825 36.2399 25.5251 36.4777 25.4596C36.9752 25.3267 37.4862 25.6232 37.6182 26.1209C38.1631 28.166 40.011 29.5396 42.1059 29.4578C42.352 29.4495 42.5914 29.5393 42.772 29.7079C42.9526 29.8764 43.0599 30.1099 43.0705 30.3576C43.0908 30.8757 42.6914 31.312 42.177 31.3291C42.0924 31.3393 42.0112 31.3393 41.9265 31.3393Z" fill="#2F2F2F"/>
<path d="M11.6229 32.7368C11.9749 34.3354 13.0105 35.3307 13.8837 35.6034C14.8617 35.9067 15.7484 35.7602 16.3813 35.1944C17.1834 34.4752 17.4609 33.2038 17.1699 31.612C16.6385 28.7522 17.0142 23.7145 17.0176 23.6667C17.0311 23.4725 16.9364 23.2952 16.7604 23.2134C16.5912 23.1248 16.3881 23.1589 16.246 23.2884C11.3927 27.7331 11.2641 31.1144 11.6229 32.7368Z" fill="white"/>
<path d="M37.9904 33.1629C34.782 33.1629 33.7227 34.7513 30.8663 34.7513C28.0099 34.7513 26.9506 33.1629 23.7422 33.1629C20.5338 33.1629 17.9346 35.433 17.9346 38.2348C17.9346 41.0366 20.5338 43.3067 23.7422 43.3067C26.9506 43.3067 28.0099 41.7183 30.8663 41.7183C33.7227 41.7183 34.782 43.3067 37.9904 43.3067C41.1988 43.3067 43.798 41.0332 43.798 38.2314C43.798 35.433 41.1988 33.1629 37.9904 33.1629Z" fill="#A0A0A0"/>
<defs>
<filter id="filter0_i_6653_5947" x="-3.5" y="-2" width="70" height="68" filterUnits="userSpaceOnUse" color-interpolation-filters="sRGB">
<feFlood flood-opacity="0" result="BackgroundImageFix"/>
<feBlend mode="normal" in="SourceGraphic" in2="BackgroundImageFix" result="shape"/>
<feColorMatrix in="SourceAlpha" type="matrix" values="0 0 0 0 0 0 0 0 0 0 0 0 0 0 0 0 0 0 127 0" result="hardAlpha"/>
<feOffset dx="-4" dy="-2"/>
<feGaussianBlur stdDeviation="3.5"/>
<feComposite in2="hardAlpha" operator="arithmetic" k2="-1" k3="1"/>
<feColorMatrix type="matrix" values="0 0 0 0 0 0 0 0 0 0 0 0 0 0 0 0 0 0 0.16 0"/>
<feBlend mode="normal" in2="shape" result="effect1_innerShadow_6653_5947"/>
</filter>
</defs>
</svg>
