<svg width="27" height="26" viewBox="0 0 27 26" fill="none" xmlns="http://www.w3.org/2000/svg">
<path d="M20.8125 10.5625V17.0625C20.8125 17.5118 20.4493 17.875 20 17.875H7C6.55069 17.875 6.1875 17.5118 6.1875 17.0625V10.5625C6.1875 6.53006 9.46756 3.25 13.5 3.25C17.5324 3.25 20.8125 6.53006 20.8125 10.5625ZM14.3125 8.125C14.3125 7.67569 13.9493 7.3125 13.5 7.3125C11.7076 7.3125 10.25 8.77012 10.25 10.5625C10.25 11.0118 10.6132 11.375 11.0625 11.375C11.5118 11.375 11.875 11.0118 11.875 10.5625C11.875 9.66631 12.6038 8.9375 13.5 8.9375C13.9493 8.9375 14.3125 8.57431 14.3125 8.125ZM20.8125 19.5H6.1875C4.84119 19.5 3.75 20.5912 3.75 21.9375C3.75 22.386 4.114 22.75 4.5625 22.75H22.4375C22.886 22.75 23.25 22.386 23.25 21.9375C23.25 20.5912 22.1588 19.5 20.8125 19.5Z" fill="#2ACF6C"/>
</svg>
