<svg width="27" height="26" viewBox="0 0 27 26" fill="none" xmlns="http://www.w3.org/2000/svg">
<path d="M13.5 3.2522C10.9754 3.19617 8.53161 4.14321 6.70403 5.88578C4.87646 7.62835 3.81419 10.0243 3.75 12.5487C3.75206 14.7718 4.57874 16.9151 6.07005 18.5638L5.49774 19.1361C5.27549 19.3579 5.12405 19.6407 5.06262 19.9486C5.0012 20.2565 5.03254 20.5758 5.15268 20.8659C5.27282 21.156 5.47636 21.4039 5.73751 21.5782C5.99866 21.7526 6.30568 21.8455 6.61967 21.8452H13.5C16.0246 21.9012 18.4684 20.9542 20.296 19.2116C22.1235 17.4691 23.1858 15.0731 23.25 12.5487C23.1858 10.0243 22.1235 7.62835 20.296 5.88578C18.4684 4.14321 16.0246 3.19617 13.5 3.2522Z" fill="#2ACF6C"/>
<path d="M17.1279 11.4147H9.87213C9.69172 11.4147 9.5187 11.343 9.39113 11.2154C9.26356 11.0879 9.19189 10.9148 9.19189 10.7344C9.19189 10.554 9.26356 10.381 9.39113 10.2534C9.5187 10.1259 9.69172 10.0542 9.87213 10.0542H17.1279C17.3084 10.0542 17.4814 10.1259 17.6089 10.2534C17.7365 10.381 17.8082 10.554 17.8082 10.7344C17.8082 10.9148 17.7365 11.0879 17.6089 11.2154C17.4814 11.343 17.3084 11.4147 17.1279 11.4147Z" fill="white"/>
<path d="M13.5 15.0425H9.87213C9.69172 15.0425 9.5187 14.9709 9.39113 14.8433C9.26356 14.7157 9.19189 14.5427 9.19189 14.3623C9.19189 14.1819 9.26356 14.0089 9.39113 13.8813C9.5187 13.7537 9.69172 13.6821 9.87213 13.6821H13.5C13.6804 13.6821 13.8535 13.7537 13.981 13.8813C14.1086 14.0089 14.1803 14.1819 14.1803 14.3623C14.1803 14.5427 14.1086 14.7157 13.981 14.8433C13.8535 14.9709 13.6804 15.0425 13.5 15.0425Z" fill="white"/>
</svg>
