<svg width="27" height="26" viewBox="0 0 27 26" fill="none" xmlns="http://www.w3.org/2000/svg">
<path d="M12.4167 15.9167C12.4167 13.7075 14.2076 11.9167 16.4167 11.9167H20.2501C21.9069 11.9167 23.2501 13.2598 23.2501 14.9167V19.75C23.2501 21.4069 21.9069 22.75 20.2501 22.75H16.4167C14.2076 22.75 12.4167 20.9592 12.4167 18.75V15.9167Z" fill="white"/>
<path d="M20.8125 8.125H18.375C18.375 6.83207 17.8614 5.59209 16.9471 4.67785C16.0329 3.76361 14.7929 3.25 13.5 3.25C12.2071 3.25 10.9671 3.76361 10.0529 4.67785C9.13862 5.59209 8.625 6.83207 8.625 8.125H6.1875C5.54103 8.125 4.92105 8.38181 4.46393 8.83893C4.00681 9.29605 3.75 9.91604 3.75 10.5625V18.6875C3.75129 19.7645 4.17972 20.7971 4.9413 21.5587C5.70289 22.3203 6.73545 22.7487 7.8125 22.75H17.3074C16.7425 22.3828 16.2599 21.9026 15.89 21.3396C15.52 20.7765 15.2708 20.1429 15.158 19.4788C15.0453 18.8146 15.0714 18.1342 15.2347 17.4806C15.398 16.8271 15.6951 16.2144 16.1071 15.6814C16.519 15.1483 17.037 14.7065 17.6283 14.3837C18.2197 14.0609 18.8715 13.8641 19.5426 13.8059C20.2138 13.7476 20.8898 13.8291 21.5278 14.0452C22.1659 14.2613 22.7523 14.6072 23.25 15.0613V10.5625C23.25 9.91604 22.9932 9.29605 22.5361 8.83893C22.079 8.38181 21.459 8.125 20.8125 8.125ZM10.25 8.125C10.25 7.26305 10.5924 6.4364 11.2019 5.8269C11.8114 5.21741 12.638 4.875 13.5 4.875C14.362 4.875 15.1886 5.21741 15.7981 5.8269C16.4076 6.4364 16.75 7.26305 16.75 8.125H10.25Z" fill="#2ACF6C"/>
<path d="M22.4375 17.875H20.8125V16.25C20.8125 16.0345 20.7269 15.8278 20.5745 15.6755C20.4222 15.5231 20.2155 15.4375 20 15.4375C19.7845 15.4375 19.5778 15.5231 19.4255 15.6755C19.2731 15.8278 19.1875 16.0345 19.1875 16.25V17.875H17.5625C17.347 17.875 17.1403 17.9606 16.988 18.113C16.8356 18.2653 16.75 18.472 16.75 18.6875C16.75 18.903 16.8356 19.1097 16.988 19.262C17.1403 19.4144 17.347 19.5 17.5625 19.5H19.1875V21.125C19.1875 21.3405 19.2731 21.5472 19.4255 21.6995C19.5778 21.8519 19.7845 21.9375 20 21.9375C20.2155 21.9375 20.4222 21.8519 20.5745 21.6995C20.7269 21.5472 20.8125 21.3405 20.8125 21.125V19.5H22.4375C22.653 19.5 22.8597 19.4144 23.012 19.262C23.1644 19.1097 23.25 18.903 23.25 18.6875C23.25 18.472 23.1644 18.2653 23.012 18.113C22.8597 17.9606 22.653 17.875 22.4375 17.875Z" fill="#2ACF6C"/>
</svg>
