<svg width="154" height="23" viewBox="0 0 154 23" fill="none" xmlns="http://www.w3.org/2000/svg">
<path d="M14.6555 18.4805H6.70571L5.43132 22.2852H0L7.70702 0.745468H13.7148L21.4219 22.2852H15.9299L14.6555 18.4805ZM13.3204 14.4303L10.6806 6.54463L8.07113 14.4303H13.3204Z" fill="#2EE477"/>
<path d="M35.2977 9.33682V13.6939H21.9469V9.33682H35.2977Z" fill="#2EE477"/>
<path d="M56.7826 0.745468V22.2852H51.594V13.4177H43.5229V22.2852H38.3343V0.745468H43.5229V9.1834H51.594V0.745468H56.7826Z" fill="#2EE477"/>
<path d="M72.2708 18.4805H64.3211L63.0467 22.2852H57.6154L65.3224 0.745468H71.3302L79.0372 22.2852H73.5452L72.2708 18.4805ZM70.9358 14.4303L68.296 6.54463L65.6865 14.4303H70.9358Z" fill="#2EE477"/>
<path d="M78.9858 11.4847C78.9858 9.35728 79.4409 7.46513 80.3512 5.80823C81.2615 4.13087 82.5257 2.83194 84.144 1.91144C85.7825 0.970479 87.6334 0.5 89.6967 0.5C92.2253 0.5 94.3897 1.17503 96.19 2.5251C97.9903 3.87517 99.1939 5.71618 99.8008 8.04812H94.0964C93.6716 7.14807 93.0647 6.46281 92.2758 5.99233C91.5071 5.52185 90.6272 5.28661 89.636 5.28661C88.038 5.28661 86.7434 5.84914 85.7522 6.9742C84.761 8.09926 84.2654 9.60274 84.2654 11.4847C84.2654 13.3666 84.761 14.8701 85.7522 15.9951C86.7434 17.1202 88.038 17.6827 89.636 17.6827C90.6272 17.6827 91.5071 17.4475 92.2758 16.977C93.0647 16.5065 93.6716 15.8212 94.0964 14.9212H99.8008C99.1939 17.2531 97.9903 19.0941 96.19 20.4442C94.3897 21.7738 92.2253 22.4386 89.6967 22.4386C87.6334 22.4386 85.7825 21.9784 84.144 21.0579C82.5257 20.1169 81.2615 18.818 80.3512 17.1611C79.4409 15.5042 78.9858 13.612 78.9858 11.4847Z" fill="#2EE477"/>
<path d="M119.909 0.745468V22.2852H114.721V13.4177H106.65V22.2852H101.461V0.745468H106.65V9.1834H114.721V0.745468H119.909Z" fill="#2EE477"/>
<path d="M127.235 0.745468V13.6325C127.235 14.9212 127.549 15.9133 128.176 16.6088C128.803 17.3043 129.724 17.652 130.937 17.652C132.151 17.652 133.081 17.3043 133.729 16.6088C134.376 15.9133 134.7 14.9212 134.7 13.6325V0.745468H139.888V13.6018C139.888 15.5246 139.484 17.1509 138.675 18.4805C137.865 19.8101 136.773 20.8124 135.398 21.4874C134.042 22.1625 132.525 22.5 130.846 22.5C129.167 22.5 127.66 22.1727 126.325 21.5181C125.01 20.8431 123.969 19.8408 123.2 18.5112C122.431 17.1611 122.047 15.5246 122.047 13.6018V0.745468H127.235Z" fill="#2EE477"/>
<path d="M147.203 18.235H154V22.2852H142.015V0.745468H147.203V18.235Z" fill="#2EE477"/>
</svg>