<svg width="55" height="53" viewBox="0 0 55 53" fill="none" xmlns="http://www.w3.org/2000/svg">
<circle cx="27.5" cy="16" r="16" fill="#2ACF6C"/>
<path d="M20.5 21L28.5 21" stroke="white" stroke-width="2" stroke-linecap="round" stroke-linejoin="round"/>
<path d="M20.5 16H34.5" stroke="white" stroke-width="2" stroke-linecap="round" stroke-linejoin="round"/>
<path d="M20.5 11L28.5 11" stroke="white" stroke-width="2" stroke-linecap="round" stroke-linejoin="round"/>
<path d="M3.35834 41.708H4.61834V42.956C4.61834 45.464 3.56234 48.02 1.52234 48.98L0.622343 47.72C2.45834 46.856 3.35834 44.78 3.35834 42.956V41.708ZM3.69434 41.708H4.95434V42.956C4.95434 44.636 5.81834 46.604 7.64234 47.444L6.76634 48.704C4.72634 47.756 3.69434 45.32 3.69434 42.956V41.708ZM1.05434 41.024H7.15034V42.332H1.05434V41.024ZM7.96634 39.956H9.57434V51.068H7.96634V39.956ZM9.21434 44.192H11.1823V45.512H9.21434V44.192ZM13.9294 46.976H15.5614V51.068H13.9294V46.976ZM17.7694 46.976H19.4014V51.068H17.7694V46.976ZM11.6614 46.136H21.7294V47.42H11.6614V46.136ZM16.6654 40.328C19.0414 40.328 20.6854 41.3 20.6854 42.824C20.6854 44.324 19.0414 45.296 16.6654 45.296C14.3014 45.296 12.6574 44.324 12.6574 42.824C12.6574 41.3 14.3014 40.328 16.6654 40.328ZM16.6654 41.6C15.2134 41.6 14.2894 42.032 14.2894 42.824C14.2894 43.604 15.2134 44.036 16.6654 44.036C18.1294 44.036 19.0414 43.604 19.0414 42.824C19.0414 42.032 18.1294 41.6 16.6654 41.6ZM30.5125 39.956H32.0365V51.068H30.5125V39.956ZM26.1085 44.216H28.4845V45.476H26.1085V44.216ZM28.1725 40.196H29.6605V50.576H28.1725V40.196ZM25.7485 41.264H27.2845C27.2845 44.432 26.3365 46.952 23.2165 48.764L22.3165 47.648C24.8485 46.124 25.7485 44.276 25.7485 41.588V41.264ZM22.9405 41.264H26.2525V42.536H22.9405V41.264ZM35.9715 40.808H37.2675V42.428C37.2675 45.284 36.2835 47.864 34.0755 48.884L33.1275 47.564C35.0595 46.724 35.9715 44.588 35.9715 42.428V40.808ZM36.2835 40.808H37.5795V42.428C37.5795 44.48 38.4555 46.52 40.3515 47.336L39.4155 48.62C37.2675 47.636 36.2835 45.164 36.2835 42.428V40.808ZM40.8795 39.944H42.4875V51.092H40.8795V39.944ZM44.2866 40.856H50.2146V42.14H44.2866V40.856ZM44.1666 46.664L43.9986 45.38C45.8826 45.368 48.4626 45.344 50.5986 45.068L50.7066 46.232C48.5226 46.616 46.0026 46.664 44.1666 46.664ZM45.1626 41.84H46.6986V45.62H45.1626V41.84ZM47.8146 41.84H49.3386V45.62H47.8146V41.84ZM51.2106 39.968H52.8066V48.152H51.2106V39.968ZM52.3506 43.088H54.2826V44.408H52.3506V43.088ZM45.6426 49.604H53.2026V50.876H45.6426V49.604ZM45.6426 47.384H47.2386V49.94H45.6426V47.384Z" fill="black"/>
</svg>
