<svg width="33" height="53" viewBox="0 0 33 53" fill="none" xmlns="http://www.w3.org/2000/svg">
<circle cx="17" cy="16" r="16" fill="#2ACF6C"/>
<path d="M8.112 39.968H9.72V47.948H8.112V39.968ZM2.316 49.604H9.996V50.876H2.316V49.604ZM2.316 47.144H3.912V50.12H2.316V47.144ZM3.672 40.664C5.376 40.664 6.684 41.84 6.684 43.484C6.684 45.116 5.376 46.304 3.672 46.304C1.968 46.304 0.648 45.116 0.648 43.484C0.648 41.84 1.968 40.664 3.672 40.664ZM3.672 42.044C2.844 42.044 2.208 42.572 2.208 43.484C2.208 44.384 2.844 44.912 3.672 44.912C4.488 44.912 5.124 44.384 5.124 43.484C5.124 42.572 4.488 42.044 3.672 42.044ZM18.9351 39.956H20.5431V51.068H18.9351V39.956ZM15.6591 41.108H17.2431C17.2431 44.504 16.0911 47.288 12.1431 49.196L11.3151 47.924C14.5071 46.388 15.6591 44.372 15.6591 41.396V41.108ZM11.9031 41.108H16.4151V42.368H11.9031V41.108ZM23.3141 40.4H30.3581V41.66H23.3141V40.4ZM22.0901 43.868H32.1461V45.128H22.0901V43.868ZM29.3981 40.4H30.9701V41.156C30.9701 41.948 30.9701 42.956 30.6821 44.24L29.1101 44.096C29.3981 42.836 29.3981 41.936 29.3981 41.156V40.4ZM23.2061 45.884H30.9341V49.016H24.8141V50.144H23.2181V47.84H29.3501V47.12H23.2061V45.884ZM23.2181 49.76H31.2221V50.996H23.2181V49.76Z" fill="black"/>
<path fill-rule="evenodd" clip-rule="evenodd" d="M17 7.75C13.524 7.75 10.75 10.467 10.75 13.766C10.75 15.771 11.57 17.499 13.035 18.576C13.358 18.813 13.635 19.167 13.74 19.616C13.827 19.985 13.926 20.434 14.024 20.91H19.976C20.074 20.434 20.173 19.985 20.26 19.616C20.366 19.167 20.642 18.813 20.965 18.576C22.429 17.499 23.25 15.77 23.25 13.766C23.25 10.467 20.476 7.75 17 7.75ZM19.689 22.41H14.31C14.42 23.047 14.507 23.65 14.534 24.084C14.561 24.541 14.902 24.95 15.405 25.058L15.601 25.101C16.521 25.3 17.476 25.3 18.397 25.101L18.593 25.058C19.096 24.95 19.437 24.541 19.465 24.084C19.491 23.651 19.577 23.047 19.688 22.41M9.25 13.766C9.25 9.59 12.744 6.25 17 6.25C21.256 6.25 24.75 9.591 24.75 13.766C24.75 16.19 23.746 18.393 21.853 19.784C21.7894 19.8253 21.7424 19.8876 21.72 19.96C21.5773 20.5718 21.4459 21.1863 21.326 21.803C21.143 22.741 20.994 23.651 20.963 24.175C20.893 25.333 20.041 26.28 18.911 26.525L18.715 26.567C17.585 26.811 16.415 26.811 15.285 26.567L15.089 26.525C13.959 26.281 13.107 25.333 13.037 24.175C13.006 23.651 12.857 22.741 12.674 21.803C12.5541 21.1863 12.4227 20.5718 12.28 19.96C12.2576 19.8876 12.2106 19.8253 12.147 19.784C10.254 18.394 9.25 16.19 9.25 13.767" fill="white"/>
</svg>
