<svg width="33" height="53" viewBox="0 0 33 53" fill="none" xmlns="http://www.w3.org/2000/svg">
<circle cx="17" cy="16" r="16" fill="#2ACF6C"/>
<path d="M20.5773 10.3346C19.6058 9.31074 18.5125 8.40976 17.3219 7.65176C17.2247 7.59335 17.1134 7.5625 17 7.5625C16.8866 7.5625 16.7753 7.59335 16.6781 7.65176C15.4875 8.40976 14.3942 9.31074 13.4227 10.3346C11.2648 12.6002 10.125 15.0994 10.125 17.5627C10.125 19.3861 10.8493 21.1347 12.1386 22.4241C13.428 23.7134 15.1766 24.4377 17 24.4377C18.8234 24.4377 20.572 23.7134 21.8614 22.4241C23.1507 21.1347 23.875 19.3861 23.875 17.5627C23.875 15.0994 22.7352 12.6002 20.5773 10.3346ZM14.5 20.6877C14.5 18.526 16.2602 16.9939 17 16.4455C17.7406 16.9924 19.5 18.526 19.5 20.6877C19.5 21.3507 19.2366 21.9866 18.7678 22.4555C18.2989 22.9243 17.663 23.1877 17 23.1877C16.337 23.1877 15.7011 22.9243 15.2322 22.4555C14.7634 21.9866 14.5 21.3507 14.5 20.6877ZM20.4375 21.625C20.5787 21.2253 20.7501 21.1116 20.75 20.6877C20.75 17.2502 17.4617 15.2354 17.3219 15.1518C17.2247 15.0934 17.1134 15.0625 17 15.0625C16.8866 15.0625 16.7753 15.0934 16.6781 15.1518C16.5383 15.2354 13.25 17.2502 13.25 20.6877C13.2499 21.1116 13.3221 21.5325 13.4633 21.9322C12.8112 21.4059 14.2363 22.6883 13.875 21.9322C13.5137 21.1761 14.1875 21.0035 14.1875 20.1655C14.1875 17.4772 13.8947 18.4498 15.2322 17.0405C16.0477 16.1861 16.0246 15.8177 17 15.1518C17.9755 15.8175 17.9524 16.186 18.7678 17.0405C21.1904 19.5944 20.125 20.9397 20.125 22.4241C20.125 23.262 20.7988 20.8689 20.4375 21.625C20.5564 21.2885 20.0762 22.3811 20.4375 21.625Z" fill="white"/>
<path d="M8.112 39.968H9.72V47.948H8.112V39.968ZM2.316 49.604H9.996V50.876H2.316V49.604ZM2.316 47.144H3.912V50.12H2.316V47.144ZM3.672 40.664C5.376 40.664 6.684 41.84 6.684 43.484C6.684 45.116 5.376 46.304 3.672 46.304C1.968 46.304 0.648 45.116 0.648 43.484C0.648 41.84 1.968 40.664 3.672 40.664ZM3.672 42.044C2.844 42.044 2.208 42.572 2.208 43.484C2.208 44.384 2.844 44.912 3.672 44.912C4.488 44.912 5.124 44.384 5.124 43.484C5.124 42.572 4.488 42.044 3.672 42.044ZM18.9351 39.956H20.5431V51.068H18.9351V39.956ZM15.6591 41.108H17.2431C17.2431 44.504 16.0911 47.288 12.1431 49.196L11.3151 47.924C14.5071 46.388 15.6591 44.372 15.6591 41.396V41.108ZM11.9031 41.108H16.4151V42.368H11.9031V41.108ZM23.3141 40.4H30.3581V41.66H23.3141V40.4ZM22.0901 43.868H32.1461V45.128H22.0901V43.868ZM29.3981 40.4H30.9701V41.156C30.9701 41.948 30.9701 42.956 30.6821 44.24L29.1101 44.096C29.3981 42.836 29.3981 41.936 29.3981 41.156V40.4ZM23.2061 45.884H30.9341V49.016H24.8141V50.144H23.2181V47.84H29.3501V47.12H23.2061V45.884ZM23.2181 49.76H31.2221V50.996H23.2181V49.76Z" fill="black"/>
</svg>
