<svg width="24" height="24" viewBox="0 0 24 24" fill="none" xmlns="http://www.w3.org/2000/svg">
<path d="M17 12C17 11.4477 17.4477 11 18 11C18.5523 11 19 11.4477 19 12C19 12.5523 18.5523 13 18 13C17.4477 13 17 12.5523 17 12Z" stroke="#B7B9C3" stroke-width="2" stroke-linecap="round" stroke-linejoin="round"/>
<path d="M11 12C11 11.4477 11.4477 11 12 11C12.5523 11 13 11.4477 13 12C13 12.5523 12.5523 13 12 13C11.4477 13 11 12.5523 11 12Z" stroke="#B7B9C3" stroke-width="2" stroke-linecap="round" stroke-linejoin="round"/>
<path d="M5 12C5 11.4477 5.44772 11 6 11C6.55228 11 7 11.4477 7 12C7 12.5523 6.55228 13 6 13C5.44772 13 5 12.5523 5 12Z" stroke="#B7B9C3" stroke-width="2" stroke-linecap="round" stroke-linejoin="round"/>
</svg>
